P2
# Created by MsrVolt
114 68
255
209 
209 
209 
209 
209 
209 
209 
209 
209 
209 
210 
210 
210 
210 
210 
210 
210 
210 
210 
209 
209 
210 
210 
210 
210 
210 
210 
210 
210 
210 
209 
209 
210 
210 
210 
210 
210 
210 
209 
209 
210 
210 
211 
211 
211 
211 
211 
210 
211 
211 
211 
211 
211 
211 
212 
213 
211 
211 
212 
212 
212 
212 
211 
211 
211 
210 
211 
212 
212 
210 
210 
212 
210 
209 
209 
209 
211 
212 
211 
210 
210 
210 
210 
211 
212 
213 
213 
212 
211 
212 
212 
212 
211 
210 
210 
209 
210 
211 
211 
211 
211 
210 
211 
212 
212 
213 
213 
213 
213 
214 
214 
214 
214 
214 
209 
209 
209 
209 
209 
209 
209 
209 
209 
210 
210 
210 
210 
210 
210 
210 
210 
210 
210 
209 
209 
210 
210 
210 
210 
210 
210 
210 
210 
210 
209 
209 
210 
210 
210 
210 
210 
210 
209 
209 
210 
210 
210 
211 
211 
211 
211 
211 
209 
209 
210 
210 
211 
212 
212 
212 
210 
210 
210 
210 
209 
208 
208 
207 
209 
207 
207 
208 
208 
207 
209 
211 
210 
211 
211 
210 
210 
210 
211 
213 
212 
213 
213 
211 
210 
209 
209 
209 
211 
211 
211 
212 
212 
212 
213 
213 
211 
211 
212 
211 
211 
211 
211 
212 
212 
213 
213 
213 
213 
214 
214 
214 
214 
214 
209 
209 
209 
209 
209 
209 
209 
209 
210 
210 
210 
211 
211 
211 
211 
211 
210 
210 
210 
209 
209 
210 
210 
210 
210 
210 
210 
210 
210 
210 
209 
209 
210 
210 
210 
210 
210 
210 
210 
210 
210 
210 
210 
210 
211 
211 
211 
211 
209 
210 
211 
213 
214 
214 
214 
213 
211 
211 
211 
212 
212 
212 
212 
212 
214 
212 
211 
210 
210 
209 
210 
212 
211 
213 
214 
213 
210 
210 
213 
216 
209 
211 
213 
212 
210 
208 
210 
212 
210 
210 
209 
209 
208 
209 
209 
209 
211 
211 
212 
212 
211 
211 
211 
212 
212 
213 
213 
213 
213 
214 
214 
214 
214 
214 
209 
209 
209 
209 
209 
209 
209 
209 
210 
210 
211 
211 
211 
211 
211 
211 
210 
210 
210 
209 
209 
210 
210 
210 
210 
210 
210 
210 
210 
210 
209 
209 
210 
210 
211 
211 
211 
210 
210 
210 
210 
210 
210 
210 
210 
211 
211 
211 
210 
211 
212 
213 
214 
213 
212 
212 
210 
211 
211 
211 
211 
211 
211 
211 
210 
209 
207 
207 
208 
208 
209 
209 
207 
209 
211 
210 
208 
207 
209 
211 
209 
210 
212 
213 
212 
211 
212 
214 
213 
213 
213 
213 
214 
214 
214 
214 
211 
212 
212 
212 
211 
211 
211 
212 
212 
213 
213 
213 
213 
214 
214 
214 
214 
214 
209 
209 
209 
209 
209 
209 
209 
209 
210 
211 
211 
211 
211 
211 
211 
211 
210 
210 
210 
209 
209 
210 
210 
210 
210 
210 
210 
210 
210 
210 
209 
209 
210 
210 
211 
211 
211 
211 
211 
210 
210 
210 
210 
210 
210 
211 
211 
212 
209 
210 
210 
211 
210 
209 
208 
207 
215 
215 
214 
213 
212 
211 
210 
209 
206 
206 
206 
207 
209 
211 
212 
211 
210 
210 
210 
211 
212 
212 
211 
210 
215 
213 
213 
214 
214 
211 
209 
209 
204 
205 
206 
208 
209 
210 
210 
210 
212 
212 
213 
212 
211 
211 
211 
212 
212 
213 
213 
213 
213 
214 
214 
214 
214 
214 
209 
209 
209 
209 
209 
209 
209 
209 
210 
210 
211 
211 
211 
211 
211 
211 
210 
210 
210 
209 
209 
210 
210 
210 
210 
210 
210 
210 
210 
210 
209 
209 
210 
211 
211 
211 
211 
211 
211 
211 
210 
210 
210 
210 
210 
211 
212 
212 
211 
211 
211 
210 
210 
209 
209 
208 
213 
213 
213 
213 
213 
212 
212 
212 
211 
211 
211 
211 
212 
214 
213 
211 
213 
211 
210 
211 
214 
215 
212 
209 
216 
213 
212 
214 
214 
211 
208 
208 
213 
214 
214 
215 
215 
215 
215 
214 
212 
213 
213 
212 
212 
211 
211 
212 
212 
213 
213 
213 
213 
214 
214 
214 
214 
214 
209 
209 
209 
209 
209 
209 
209 
209 
210 
210 
211 
211 
211 
211 
211 
211 
210 
210 
210 
209 
209 
210 
210 
210 
210 
210 
210 
210 
210 
210 
209 
209 
210 
211 
211 
211 
211 
211 
211 
211 
210 
210 
210 
209 
210 
211 
212 
212 
213 
212 
212 
211 
211 
212 
213 
213 
208 
208 
209 
209 
210 
210 
210 
210 
213 
212 
210 
208 
209 
210 
209 
206 
212 
209 
206 
207 
211 
212 
210 
207 
213 
211 
212 
216 
215 
212 
211 
213 
215 
214 
212 
211 
210 
210 
210 
211 
213 
213 
213 
213 
212 
211 
211 
212 
212 
213 
213 
213 
213 
214 
214 
214 
214 
214 
209 
209 
209 
209 
209 
209 
209 
209 
210 
210 
210 
211 
211 
211 
211 
210 
210 
210 
210 
209 
209 
210 
210 
210 
210 
210 
210 
210 
210 
210 
209 
209 
210 
211 
211 
211 
212 
212 
211 
211 
210 
210 
209 
209 
210 
211 
212 
213 
212 
211 
210 
210 
211 
213 
215 
216 
219 
218 
218 
217 
216 
215 
214 
213 
214 
213 
211 
209 
211 
215 
215 
212 
222 
219 
215 
215 
218 
220 
219 
218 
213 
213 
215 
218 
216 
212 
212 
216 
211 
210 
209 
208 
209 
211 
213 
215 
213 
213 
213 
213 
212 
211 
212 
212 
212 
213 
213 
213 
213 
214 
214 
214 
214 
214 
210 
210 
209 
209 
209 
209 
210 
210 
210 
210 
211 
211 
212 
211 
211 
210 
210 
210 
206 
211 
211 
209 
212 
207 
210 
214 
207 
212 
214 
208 
209 
211 
208 
211 
209 
212 
212 
208 
211 
209 
209 
212 
209 
208 
213 
211 
214 
211 
214 
210 
206 
217 
207 
202 
211 
210 
215 
208 
209 
201 
195 
216 
220 
211 
210 
212 
210 
212 
220 
208 
201 
203 
217 
212 
211 
209 
212 
201 
224 
205 
200 
200 
208 
214 
203 
215 
217 
210 
211 
206 
216 
217 
222 
210 
213 
216 
212 
214 
215 
213 
215 
201 
221 
207 
213 
214 
208 
213 
212 
217 
212 
214 
214 
214 
209 
209 
209 
209 
209 
209 
209 
210 
209 
210 
211 
211 
212 
211 
211 
211 
211 
212 
208 
211 
208 
210 
210 
211 
205 
213 
214 
201 
213 
210 
207 
212 
217 
209 
209 
216 
211 
208 
202 
219 
208 
212 
210 
216 
214 
211 
206 
219 
213 
216 
209 
205 
207 
204 
206 
204 
202 
184 
170 
156 
140 
186 
182 
181 
172 
172 
174 
188 
179 
176 
175 
182 
187 
201 
177 
178 
191 
179 
195 
205 
179 
183 
188 
191 
178 
192 
185 
189 
183 
196 
190 
195 
207 
217 
216 
212 
213 
210 
210 
219 
212 
216 
206 
215 
214 
210 
216 
213 
215 
207 
214 
216 
214 
214 
209 
209 
209 
209 
209 
209 
209 
209 
208 
209 
210 
211 
211 
212 
211 
211 
211 
213 
210 
210 
206 
212 
206 
214 
205 
212 
220 
197 
216 
212 
206 
213 
211 
201 
218 
223 
204 
209 
227 
218 
207 
214 
210 
176 
133 
195 
222 
210 
209 
192 
179 
171 
194 
147 
182 
184 
189 
172 
167 
100 
72 
132 
160 
160 
166 
186 
149 
149 
188 
169 
164 
145 
193 
139 
157 
182 
149 
201 
160 
167 
203 
141 
164 
200 
150 
172 
195 
136 
173 
175 
144 
188 
215 
207 
208 
217 
223 
220 
215 
211 
201 
208 
223 
203 
200 
222 
218 
198 
216 
217 
213 
216 
214 
214 
209 
209 
209 
209 
209 
209 
209 
208 
208 
208 
209 
211 
211 
212 
212 
212 
209 
212 
208 
209 
206 
214 
205 
213 
216 
213 
216 
207 
218 
209 
211 
218 
222 
206 
202 
202 
208 
210 
230 
197 
199 
226 
164 
87 
83 
184 
194 
195 
192 
210 
170 
145 
162 
176 
161 
130 
155 
186 
178 
123 
95 
155 
168 
190 
167 
166 
188 
158 
168 
148 
155 
146 
119 
163 
130 
136 
187 
140 
151 
150 
163 
179 
154 
180 
187 
147 
176 
163 
126 
156 
189 
136 
170 
216 
199 
198 
211 
203 
222 
232 
219 
201 
218 
222 
223 
201 
206 
225 
209 
215 
220 
213 
214 
214 
209 
209 
209 
210 
209 
209 
208 
208 
207 
208 
209 
210 
211 
211 
212 
212 
209 
210 
207 
209 
209 
216 
209 
208 
213 
204 
196 
211 
208 
196 
208 
208 
196 
200 
180 
167 
187 
183 
176 
198 
198 
208 
196 
152 
101 
177 
199 
188 
161 
166 
194 
184 
137 
157 
148 
122 
120 
130 
172 
121 
79 
102 
165 
162 
164 
146 
145 
174 
157 
150 
149 
143 
100 
155 
137 
116 
174 
138 
148 
176 
127 
191 
154 
128 
178 
118 
122 
162 
95 
139 
193 
152 
161 
179 
178 
188 
220 
183 
207 
214 
210 
230 
196 
220 
231 
207 
209 
228 
212 
215 
219 
211 
214 
214 
209 
210 
210 
210 
210 
209 
209 
208 
207 
208 
209 
210 
211 
211 
211 
211 
210 
209 
208 
211 
211 
212 
214 
202 
218 
221 
206 
216 
209 
202 
219 
207 
190 
178 
164 
154 
173 
201 
151 
165 
202 
186 
182 
187 
148 
154 
161 
191 
202 
178 
152 
161 
191 
145 
125 
101 
121 
135 
111 
90 
78 
61 
79 
163 
148 
120 
149 
144 
144 
144 
133 
147 
141 
105 
135 
118 
143 
154 
119 
172 
134 
141 
160 
85 
153 
177 
104 
186 
143 
158 
117 
168 
134 
139 
158 
164 
181 
98 
102 
90 
105 
178 
210 
219 
209 
227 
220 
201 
221 
219 
213 
215 
214 
214 
210 
210 
211 
211 
211 
210 
209 
208 
207 
208 
209 
210 
210 
211 
211 
210 
212 
210 
209 
211 
210 
201 
218 
193 
198 
216 
181 
139 
140 
162 
190 
181 
152 
147 
168 
157 
138 
164 
142 
130 
156 
179 
164 
152 
174 
193 
164 
141 
162 
190 
163 
167 
159 
139 
150 
122 
85 
125 
172 
135 
68 
54 
58 
62 
119 
118 
115 
138 
84 
125 
129 
123 
148 
92 
124 
166 
108 
170 
121 
156 
176 
102 
154 
107 
100 
181 
104 
161 
177 
105 
68 
111 
82 
113 
128 
158 
159 
66 
62 
56 
64 
89 
189 
234 
218 
207 
211 
213 
220 
211 
215 
217 
214 
214 
210 
210 
211 
211 
211 
210 
209 
208 
208 
208 
209 
210 
210 
210 
210 
210 
212 
210 
209 
210 
207 
192 
218 
187 
171 
191 
130 
28 
40 
95 
144 
147 
119 
131 
163 
159 
141 
131 
163 
155 
137 
152 
169 
164 
145 
148 
184 
206 
154 
109 
142 
163 
139 
100 
92 
83 
74 
90 
81 
71 
68 
86 
46 
77 
97 
102 
109 
90 
84 
91 
114 
122 
99 
96 
105 
153 
114 
151 
179 
124 
203 
108 
109 
153 
76 
139 
131 
112 
178 
90 
134 
82 
70 
49 
75 
70 
85 
43 
47 
51 
72 
62 
94 
170 
223 
217 
207 
216 
218 
221 
211 
213 
214 
214 
211 
211 
211 
211 
211 
211 
210 
208 
206 
211 
209 
212 
206 
211 
207 
215 
211 
210 
203 
200 
195 
188 
168 
184 
162 
183 
152 
61 
81 
105 
138 
148 
126 
116 
157 
167 
145 
174 
152 
158 
172 
161 
145 
134 
107 
129 
132 
164 
169 
141 
119 
116 
102 
80 
115 
123 
81 
79 
66 
83 
77 
109 
83 
80 
113 
107 
99 
100 
81 
91 
93 
108 
78 
84 
78 
118 
96 
83 
171 
126 
177 
138 
96 
183 
117 
145 
175 
115 
196 
114 
154 
133 
64 
63 
73 
55 
52 
45 
50 
45 
68 
74 
49 
75 
172 
216 
215 
212 
214 
211 
214 
215 
215 
215 
211 
211 
211 
210 
211 
211 
210 
209 
209 
209 
202 
211 
216 
213 
212 
212 
209 
204 
197 
200 
187 
179 
143 
175 
163 
166 
159 
106 
143 
142 
151 
153 
121 
87 
113 
134 
120 
110 
172 
156 
112 
156 
162 
108 
79 
118 
114 
118 
106 
89 
98 
117 
117 
106 
89 
97 
99 
123 
70 
69 
96 
103 
65 
65 
83 
114 
105 
85 
72 
70 
49 
75 
88 
43 
84 
69 
93 
52 
155 
164 
121 
162 
76 
144 
136 
119 
161 
89 
196 
94 
117 
190 
50 
54 
66 
47 
38 
46 
39 
34 
48 
64 
60 
70 
99 
172 
233 
214 
216 
219 
222 
210 
215 
214 
211 
210 
210 
210 
210 
210 
210 
210 
204 
210 
211 
211 
204 
203 
194 
185 
180 
153 
212 
180 
169 
182 
183 
117 
197 
135 
127 
160 
110 
172 
144 
170 
170 
81 
63 
73 
113 
79 
105 
98 
102 
82 
85 
87 
90 
77 
66 
106 
125 
119 
110 
90 
98 
103 
117 
89 
71 
102 
77 
59 
104 
107 
53 
60 
81 
66 
99 
99 
49 
66 
73 
53 
79 
71 
79 
135 
56 
80 
95 
141 
110 
109 
74 
96 
95 
107 
167 
97 
157 
89 
119 
138 
50 
49 
63 
55 
43 
51 
37 
37 
47 
54 
69 
75 
82 
124 
220 
217 
223 
213 
214 
214 
214 
214 
211 
210 
209 
210 
209 
209 
210 
211 
203 
202 
210 
209 
203 
210 
179 
129 
111 
89 
163 
191 
134 
185 
215 
139 
156 
197 
118 
151 
153 
155 
173 
153 
104 
86 
77 
46 
76 
74 
60 
76 
70 
84 
102 
88 
78 
66 
74 
86 
94 
136 
152 
105 
70 
81 
122 
87 
59 
69 
88 
66 
58 
67 
75 
78 
87 
79 
84 
79 
67 
68 
55 
74 
65 
65 
69 
131 
108 
57 
89 
142 
124 
99 
81 
116 
104 
84 
165 
83 
136 
149 
90 
88 
70 
50 
65 
58 
46 
48 
39 
44 
46 
43 
58 
66 
65 
90 
181 
211 
215 
217 
218 
214 
214 
214 
211 
209 
209 
210 
209 
208 
209 
212 
211 
205 
205 
201 
200 
187 
187 
119 
85 
87 
107 
206 
148 
144 
171 
209 
134 
168 
154 
109 
165 
146 
133 
136 
64 
80 
71 
66 
62 
74 
77 
65 
60 
48 
50 
59 
59 
52 
69 
50 
58 
89 
112 
121 
107 
140 
92 
57 
62 
91 
62 
53 
73 
57 
85 
94 
95 
94 
85 
77 
79 
68 
50 
84 
49 
67 
67 
96 
121 
59 
75 
105 
106 
70 
41 
88 
78 
53 
165 
107 
112 
178 
91 
123 
67 
56 
72 
63 
44 
48 
52 
48 
42 
44 
48 
54 
53 
79 
146 
230 
216 
217 
216 
216 
214 
213 
210 
209 
210 
211 
209 
207 
208 
211 
209 
211 
209 
204 
202 
151 
173 
123 
61 
84 
76 
157 
174 
127 
151 
177 
156 
107 
187 
122 
151 
127 
86 
109 
97 
73 
61 
76 
55 
50 
68 
59 
59 
47 
45 
55 
55 
75 
103 
76 
93 
99 
65 
66 
78 
113 
82 
87 
76 
69 
51 
64 
83 
83 
95 
80 
85 
90 
75 
70 
83 
75 
56 
72 
54 
69 
91 
82 
63 
96 
107 
77 
88 
60 
49 
66 
70 
65 
127 
126 
108 
164 
110 
172 
69 
59 
73 
71 
52 
48 
62 
59 
52 
49 
46 
63 
66 
83 
109 
230 
212 
211 
212 
217 
214 
214 
211 
209 
210 
212 
210 
206 
206 
210 
203 
207 
209 
210 
210 
171 
132 
119 
57 
66 
59 
131 
161 
167 
200 
126 
160 
95 
163 
166 
62 
107 
86 
77 
100 
61 
66 
66 
55 
64 
60 
50 
47 
50 
51 
55 
58 
112 
115 
71 
82 
89 
58 
53 
60 
67 
64 
65 
78 
65 
68 
62 
61 
77 
71 
89 
89 
79 
67 
66 
67 
66 
64 
49 
61 
53 
112 
151 
70 
84 
127 
79 
54 
76 
53 
46 
78 
70 
98 
141 
136 
172 
94 
195 
86 
55 
70 
65 
51 
48 
61 
63 
58 
49 
44 
66 
60 
81 
81 
202 
203 
216 
223 
211 
214 
214 
211 
209 
210 
212 
210 
205 
205 
209 
207 
210 
211 
197 
182 
200 
111 
161 
105 
54 
53 
125 
117 
132 
194 
86 
100 
111 
139 
173 
98 
76 
70 
67 
92 
62 
98 
114 
78 
67 
60 
55 
51 
47 
47 
53 
63 
129 
113 
87 
62 
50 
61 
81 
62 
84 
64 
68 
77 
68 
61 
61 
51 
70 
69 
84 
101 
85 
75 
76 
59 
57 
79 
63 
48 
51 
90 
183 
94 
44 
138 
130 
42 
50 
57 
50 
56 
63 
101 
132 
121 
158 
128 
167 
66 
55 
73 
59 
42 
57 
67 
60 
56 
54 
50 
58 
63 
71 
75 
213 
226 
212 
217 
216 
214 
214 
210 
208 
211 
212 
208 
207 
208 
207 
208 
208 
206 
175 
151 
175 
109 
146 
94 
47 
49 
77 
75 
127 
155 
115 
64 
76 
69 
74 
80 
59 
75 
78 
79 
48 
93 
155 
143 
61 
55 
59 
55 
46 
50 
67 
91 
116 
107 
132 
103 
60 
67 
58 
48 
59 
98 
128 
94 
56 
51 
63 
71 
60 
70 
82 
97 
115 
83 
62 
76 
51 
88 
76 
55 
54 
54 
174 
127 
40 
120 
176 
72 
49 
61 
59 
66 
44 
80 
110 
104 
140 
159 
132 
55 
57 
60 
56 
46 
53 
55 
57 
58 
52 
52 
63 
60 
71 
80 
189 
235 
220 
217 
215 
214 
214 
212 
209 
211 
212 
209 
209 
208 
205 
214 
204 
188 
162 
126 
170 
130 
90 
40 
61 
59 
45 
61 
70 
83 
63 
58 
63 
48 
70 
71 
62 
120 
111 
47 
59 
46 
115 
170 
117 
87 
53 
46 
59 
59 
55 
61 
68 
52 
85 
93 
56 
58 
63 
59 
50 
50 
71 
133 
132 
72 
48 
61 
49 
86 
65 
81 
111 
89 
54 
58 
66 
94 
69 
93 
65 
46 
129 
147 
47 
63 
167 
88 
56 
48 
57 
71 
58 
53 
48 
120 
129 
160 
96 
72 
64 
70 
51 
48 
56 
54 
48 
53 
62 
62 
57 
59 
60 
52 
146 
210 
213 
215 
213 
213 
213 
211 
208 
209 
210 
208 
209 
209 
204 
198 
201 
203 
140 
123 
114 
114 
119 
41 
77 
49 
52 
54 
64 
54 
54 
63 
55 
45 
73 
62 
50 
121 
148 
52 
53 
63 
47 
105 
161 
130 
87 
78 
68 
65 
55 
65 
55 
46 
55 
57 
55 
58 
61 
66 
64 
53 
70 
62 
89 
137 
75 
50 
58 
60 
73 
66 
84 
80 
60 
52 
65 
79 
59 
131 
131 
43 
101 
117 
41 
52 
79 
63 
47 
42 
55 
53 
50 
43 
45 
120 
99 
180 
154 
159 
86 
65 
54 
45 
52 
55 
51 
52 
62 
61 
47 
68 
64 
49 
128 
217 
220 
217 
217 
212 
212 
210 
207 
208 
209 
208 
210 
210 
205 
200 
165 
167 
145 
142 
168 
112 
112 
47 
55 
45 
48 
74 
74 
57 
46 
57 
47 
48 
65 
56 
65 
103 
164 
86 
54 
64 
48 
62 
112 
160 
150 
77 
64 
106 
112 
101 
52 
51 
48 
49 
61 
60 
52 
48 
54 
47 
59 
66 
54 
116 
108 
57 
66 
56 
55 
57 
58 
63 
64 
54 
54 
70 
60 
152 
106 
43 
79 
82 
50 
63 
69 
76 
56 
42 
50 
41 
42 
47 
66 
66 
93 
178 
142 
138 
93 
77 
57 
52 
52 
60 
63 
57 
55 
57 
55 
56 
76 
69 
114 
217 
217 
213 
214 
211 
211 
211 
210 
211 
210 
208 
209 
209 
203 
202 
139 
135 
161 
138 
167 
94 
129 
65 
55 
58 
48 
74 
85 
62 
50 
52 
49 
51 
56 
48 
90 
102 
137 
93 
70 
45 
62 
52 
45 
98 
110 
64 
46 
66 
83 
86 
56 
62 
52 
54 
52 
50 
57 
55 
59 
51 
56 
57 
48 
74 
152 
97 
70 
71 
52 
52 
54 
55 
52 
50 
51 
80 
66 
172 
80 
59 
55 
76 
47 
53 
83 
75 
51 
43 
49 
44 
48 
75 
111 
49 
135 
155 
66 
62 
72 
75 
55 
55 
48 
52 
58 
50 
47 
55 
63 
42 
75 
73 
88 
198 
210 
213 
213 
214 
214 
211 
210 
211 
210 
206 
206 
201 
191 
219 
141 
110 
163 
127 
145 
108 
169 
94 
44 
59 
61 
51 
72 
62 
50 
54 
53 
49 
65 
47 
74 
107 
100 
80 
82 
48 
60 
48 
68 
81 
93 
102 
90 
55 
52 
61 
55 
51 
52 
54 
55 
54 
54 
50 
53 
49 
45 
68 
58 
51 
132 
117 
87 
65 
50 
52 
55 
54 
49 
53 
50 
72 
62 
151 
80 
57 
64 
74 
47 
65 
71 
70 
58 
56 
55 
43 
40 
61 
94 
77 
150 
123 
56 
73 
58 
50 
57 
48 
44 
45 
50 
52 
53 
56 
56 
58 
52 
51 
96 
200 
216 
214 
215 
216 
216 
210 
208 
209 
210 
209 
206 
194 
178 
209 
160 
119 
187 
112 
178 
147 
154 
110 
38 
71 
68 
67 
59 
77 
48 
52 
54 
49 
72 
60 
55 
109 
88 
81 
97 
51 
61 
48 
58 
77 
80 
96 
139 
136 
127 
113 
79 
76 
90 
102 
114 
108 
79 
61 
55 
56 
49 
48 
70 
53 
91 
110 
77 
65 
52 
52 
52 
52 
52 
57 
53 
50 
56 
114 
61 
53 
82 
64 
50 
52 
61 
64 
56 
50 
48 
44 
49 
53 
54 
70 
101 
76 
60 
79 
56 
48 
55 
49 
50 
52 
57 
65 
64 
57 
52 
69 
37 
51 
144 
201 
217 
211 
212 
215 
215 
211 
209 
210 
213 
214 
210 
194 
173 
202 
184 
144 
175 
129 
165 
110 
114 
102 
50 
64 
51 
57 
60 
77 
58 
59 
70 
60 
64 
78 
59 
104 
75 
54 
91 
58 
46 
51 
44 
49 
54 
73 
97 
111 
107 
111 
62 
66 
57 
65 
79 
76 
58 
55 
48 
55 
67 
48 
62 
67 
46 
72 
57 
49 
50 
51 
53 
52 
49 
50 
63 
47 
59 
64 
52 
48 
61 
58 
49 
61 
66 
54 
57 
49 
47 
49 
71 
66 
49 
64 
52 
46 
66 
57 
47 
53 
47 
53 
53 
51 
57 
64 
57 
49 
51 
62 
42 
89 
190 
184 
210 
214 
214 
213 
213 
211 
211 
211 
210 
216 
212 
202 
173 
182 
198 
141 
173 
140 
116 
104 
80 
109 
48 
66 
52 
51 
61 
81 
60 
58 
70 
69 
59 
62 
73 
78 
76 
50 
54 
54 
50 
51 
57 
55 
47 
57 
56 
48 
45 
52 
67 
64 
49 
51 
54 
56 
56 
55 
55 
57 
59 
49 
50 
58 
52 
53 
48 
51 
52 
51 
49 
56 
51 
51 
57 
49 
55 
49 
49 
54 
50 
47 
55 
66 
59 
47 
52 
56 
45 
59 
52 
58 
58 
50 
71 
54 
50 
57 
46 
46 
49 
48 
48 
56 
54 
54 
52 
49 
52 
46 
48 
130 
195 
181 
220 
213 
214 
212 
212 
209 
210 
213 
210 
211 
207 
201 
170 
176 
201 
154 
148 
144 
112 
123 
113 
112 
52 
60 
71 
54 
62 
78 
49 
50 
63 
63 
49 
48 
58 
70 
78 
58 
57 
55 
52 
50 
51 
54 
55 
51 
61 
67 
60 
52 
53 
61 
67 
64 
62 
59 
56 
53 
51 
49 
48 
59 
57 
57 
49 
52 
51 
58 
60 
53 
50 
57 
51 
51 
57 
50 
56 
50 
50 
53 
51 
48 
55 
61 
55 
47 
54 
61 
55 
65 
56 
58 
59 
51 
67 
51 
47 
51 
44 
47 
48 
53 
56 
52 
53 
55 
45 
47 
69 
49 
64 
124 
186 
223 
210 
212 
218 
212 
212 
210 
209 
213 
210 
209 
207 
200 
161 
155 
191 
155 
121 
176 
134 
138 
90 
60 
51 
43 
75 
67 
70 
66 
52 
51 
58 
55 
49 
54 
64 
65 
61 
61 
56 
55 
55 
52 
48 
52 
61 
57 
52 
51 
54 
57 
56 
54 
55 
57 
53 
50 
50 
52 
54 
53 
52 
52 
50 
51 
49 
52 
51 
52 
51 
51 
50 
54 
50 
50 
54 
49 
54 
51 
51 
52 
52 
53 
55 
55 
52 
48 
53 
54 
51 
53 
51 
51 
56 
54 
62 
49 
47 
48 
45 
52 
51 
53 
58 
54 
55 
55 
52 
55 
66 
55 
79 
141 
199 
217 
219 
216 
217 
215 
215 
213 
207 
212 
211 
211 
211 
202 
156 
147 
183 
148 
101 
177 
120 
156 
113 
102 
108 
46 
66 
59 
65 
55 
51 
50 
61 
64 
58 
56 
59 
58 
57 
56 
53 
53 
56 
54 
50 
51 
59 
57 
51 
50 
54 
58 
56 
53 
53 
54 
51 
50 
49 
50 
52 
52 
50 
50 
49 
51 
53 
56 
53 
51 
49 
51 
50 
52 
50 
50 
51 
49 
52 
51 
52 
51 
53 
55 
53 
50 
52 
56 
59 
53 
53 
52 
60 
57 
56 
52 
54 
48 
48 
48 
49 
56 
53 
54 
51 
52 
45 
44 
68 
71 
64 
31 
117 
238 
201 
224 
216 
206 
213 
216 
216 
213 
208 
213 
212 
210 
212 
208 
168 
147 
175 
146 
109 
173 
101 
165 
151 
154 
130 
47 
64 
62 
74 
72 
57 
51 
59 
58 
51 
50 
54 
56 
58 
52 
52 
52 
53 
54 
53 
53 
54 
52 
54 
55 
54 
53 
53 
55 
56 
55 
53 
52 
51 
52 
52 
51 
50 
51 
52 
51 
52 
51 
52 
52 
53 
52 
51 
53 
51 
51 
52 
50 
53 
51 
52 
52 
53 
53 
50 
50 
54 
53 
59 
54 
59 
60 
75 
66 
54 
48 
47 
47 
49 
47 
49 
54 
50 
45 
47 
63 
58 
53 
67 
44 
49 
109 
201 
175 
223 
202 
216 
227 
213 
214 
214 
211 
210 
215 
211 
207 
208 
212 
186 
158 
181 
153 
108 
153 
92 
151 
150 
141 
120 
58 
69 
84 
68 
57 
51 
53 
54 
50 
49 
54 
60 
59 
56 
54 
55 
52 
51 
52 
56 
56 
52 
52 
51 
50 
50 
51 
55 
53 
50 
50 
50 
51 
52 
52 
52 
52 
52 
50 
51 
50 
51 
49 
50 
50 
53 
51 
52 
52 
51 
51 
51 
51 
52 
51 
51 
53 
52 
50 
50 
51 
54 
47 
49 
48 
54 
56 
73 
66 
51 
47 
46 
49 
50 
47 
48 
50 
48 
48 
50 
53 
52 
56 
67 
58 
106 
169 
181 
242 
214 
215 
212 
210 
213 
215 
215 
210 
210 
213 
210 
210 
207 
210 
190 
157 
186 
175 
105 
124 
68 
114 
154 
103 
104 
79 
61 
93 
64 
58 
62 
49 
55 
59 
56 
56 
55 
56 
60 
55 
54 
52 
51 
52 
55 
55 
52 
51 
54 
56 
53 
51 
51 
53 
54 
52 
52 
52 
51 
51 
51 
50 
50 
51 
52 
51 
56 
52 
55 
51 
53 
51 
52 
51 
52 
51 
50 
51 
50 
52 
50 
52 
52 
49 
50 
54 
51 
49 
48 
51 
58 
56 
63 
60 
52 
47 
47 
49 
48 
46 
46 
46 
49 
46 
48 
43 
46 
46 
70 
75 
92 
104 
201 
206 
200 
212 
210 
223 
214 
216 
216 
212 
209 
209 
210 
216 
210 
205 
183 
118 
154 
192 
148 
162 
72 
71 
134 
88 
89 
100 
64 
89 
65 
70 
50 
53 
55 
53 
52 
56 
57 
53 
52 
52 
51 
51 
53 
54 
54 
53 
52 
52 
51 
51 
52 
51 
51 
51 
51 
51 
50 
50 
51 
52 
52 
52 
52 
51 
51 
50 
52 
49 
54 
50 
52 
52 
54 
53 
54 
54 
51 
53 
52 
53 
49 
52 
52 
48 
51 
56 
48 
49 
48 
60 
70 
62 
53 
49 
43 
44 
45 
47 
43 
43 
43 
43 
50 
51 
52 
45 
59 
60 
123 
150 
102 
199 
224 
205 
217 
227 
220 
210 
218 
215 
215 
213 
210 
209 
209 
216 
216 
209 
177 
88 
131 
210 
161 
176 
104 
54 
99 
88 
93 
94 
66 
71 
71 
76 
58 
51 
51 
50 
51 
53 
55 
54 
52 
53 
53 
54 
54 
53 
52 
51 
51 
51 
53 
54 
53 
51 
50 
50 
51 
50 
50 
51 
51 
51 
50 
51 
50 
50 
50 
50 
51 
53 
54 
53 
52 
54 
51 
52 
55 
54 
54 
54 
51 
51 
52 
51 
50 
50 
50 
50 
49 
47 
58 
70 
72 
54 
47 
53 
42 
46 
45 
48 
39 
46 
43 
39 
50 
64 
61 
56 
78 
105 
135 
152 
225 
199 
208 
212 
224 
194 
212 
215 
218 
215 
215 
206 
212 
218 
211 
207 
205 
213 
197 
105 
126 
192 
152 
117 
131 
58 
71 
81 
86 
91 
69 
67 
58 
62 
53 
51 
52 
52 
54 
57 
61 
61 
59 
54 
54 
53 
52 
52 
51 
51 
51 
51 
52 
53 
53 
51 
51 
51 
52 
51 
51 
52 
52 
52 
51 
50 
50 
50 
50 
50 
50 
51 
52 
53 
54 
52 
52 
55 
55 
51 
51 
53 
51 
52 
50 
49 
49 
50 
50 
51 
52 
54 
61 
66 
64 
47 
47 
52 
52 
48 
47 
43 
52 
49 
52 
46 
46 
64 
64 
49 
71 
121 
144 
210 
199 
221 
218 
210 
220 
206 
222 
216 
209 
215 
215 
213 
209 
207 
206 
213 
214 
213 
187 
129 
132 
190 
163 
77 
140 
59 
66 
71 
73 
79 
65 
61 
50 
52 
50 
49 
50 
49 
50 
52 
55 
55 
53 
55 
54 
52 
50 
49 
49 
50 
50 
50 
51 
52 
52 
51 
51 
52 
54 
52 
52 
53 
53 
52 
52 
51 
50 
51 
50 
50 
50 
50 
53 
56 
58 
49 
52 
57 
56 
51 
53 
57 
56 
53 
50 
49 
50 
51 
51 
53 
56 
54 
53 
50 
50 
42 
48 
45 
51 
44 
45 
46 
43 
54 
49 
42 
67 
39 
55 
68 
44 
148 
209 
215 
210 
219 
219 
212 
214 
210 
218 
215 
212 
214 
214 
209 
209 
212 
210 
211 
209 
212 
193 
153 
133 
174 
163 
65 
101 
46 
68 
62 
60 
63 
56 
57 
50 
51 
50 
53 
54 
53 
52 
52 
54 
53 
51 
54 
53 
51 
49 
48 
48 
48 
48 
48 
50 
51 
52 
52 
52 
53 
53 
52 
53 
53 
53 
52 
51 
51 
50 
50 
50 
49 
51 
53 
55 
57 
58 
50 
53 
57 
55 
50 
53 
57 
55 
53 
51 
52 
54 
53 
51 
55 
61 
58 
51 
44 
47 
48 
56 
43 
45 
49 
57 
45 
46 
44 
42 
44 
60 
61 
54 
61 
134 
199 
199 
208 
211 
207 
214 
213 
209 
208 
209 
211 
217 
214 
214 
208 
211 
215 
210 
206 
204 
217 
210 
186 
145 
149 
155 
67 
67 
52 
56 
54 
56 
59 
52 
54 
51 
52 
49 
51 
52 
52 
51 
52 
55 
55 
54 
51 
51 
50 
48 
48 
48 
47 
47 
48 
48 
50 
52 
53 
53 
52 
52 
52 
52 
52 
52 
52 
51 
50 
49 
49 
48 
48 
51 
54 
56 
55 
53 
53 
53 
54 
52 
50 
50 
52 
49 
51 
52 
55 
56 
54 
52 
55 
61 
60 
53 
45 
46 
48 
51 
42 
43 
52 
46 
43 
48 
53 
71 
129 
85 
78 
119 
158 
203 
197 
210 
205 
208 
212 
216 
212 
207 
215 
212 
209 
211 
213 
213 
214 
208 
208 
208 
211 
210 
216 
202 
210 
166 
147 
163 
83 
74 
79 
50 
53 
60 
64 
56 
51 
51 
51 
49 
48 
48 
48 
48 
48 
49 
50 
50 
49 
49 
49 
49 
48 
48 
48 
47 
48 
48 
50 
52 
53 
53 
52 
51 
52 
52 
52 
52 
51 
50 
49 
48 
49 
48 
48 
50 
53 
54 
53 
52 
54 
51 
52 
52 
52 
52 
53 
50 
50 
52 
54 
54 
53 
53 
55 
57 
52 
51 
44 
43 
42 
42 
51 
51 
42 
42 
57 
46 
62 
106 
119 
77 
134 
219 
208 
213 
217 
206 
206 
223 
214 
217 
213 
211 
217 
214 
210 
211 
213 
213 
209 
208 
213 
213 
211 
204 
210 
199 
210 
163 
130 
145 
97 
83 
83 
61 
63 
66 
64 
56 
51 
51 
50 
49 
50 
51 
50 
48 
48 
48 
49 
49 
49 
49 
49 
49 
49 
49 
48 
48 
49 
49 
50 
51 
52 
52 
52 
52 
52 
52 
52 
52 
51 
50 
49 
48 
47 
48 
49 
50 
50 
53 
56 
59 
55 
51 
52 
55 
55 
55 
57 
57 
51 
52 
51 
50 
52 
57 
57 
54 
48 
52 
48 
46 
48 
43 
69 
60 
56 
71 
51 
48 
82 
163 
135 
165 
217 
233 
206 
208 
218 
212 
215 
204 
209 
213 
213 
213 
212 
212 
210 
215 
212 
212 
212 
208 
210 
209 
209 
205 
214 
205 
208 
145 
95 
103 
105 
83 
69 
79 
76 
68 
57 
52 
50 
52 
52 
52 
48 
48 
48 
47 
47 
48 
49 
49 
50 
50 
49 
49 
49 
50 
50 
51 
51 
50 
50 
50 
51 
52 
53 
53 
53 
53 
53 
52 
51 
50 
49 
48 
46 
49 
51 
50 
50 
53 
62 
69 
59 
53 
53 
56 
54 
52 
53 
55 
54 
53 
49 
48 
53 
62 
60 
53 
46 
49 
47 
48 
54 
43 
72 
49 
48 
61 
48 
73 
182 
206 
222 
238 
217 
190 
220 
214 
196 
215 
210 
212 
210 
211 
208 
212 
210 
213 
209 
212 
212 
212 
210 
210 
209 
210 
212 
212 
211 
210 
206 
156 
92 
86 
137 
105 
60 
78 
70 
60 
64 
48 
57 
52 
49 
50 
50 
49 
49 
50 
50 
50 
50 
51 
52 
51 
51 
50 
51 
52 
52 
52 
51 
52 
53 
53 
52 
53 
53 
53 
52 
53 
54 
51 
54 
52 
48 
47 
50 
46 
49 
50 
49 
59 
69 
65 
53 
58 
67 
67 
59 
54 
55 
55 
55 
72 
76 
75 
67 
67 
60 
56 
47 
44 
50 
54 
63 
50 
51 
58 
58 
64 
94 
157 
238 
215 
206 
206 
198 
219 
211 
194 
230 
212 
200 
219 
211 
211 
211 
211 
211 
211 
211 
211 
212 
212 
210 
210 
209 
210 
212 
212 
212 
211 
217 
192 
139 
132 
184 
143 
65 
69 
61 
54 
69 
58 
62 
49 
48 
54 
51 
51 
52 
52 
51 
50 
50 
51 
53 
52 
51 
50 
50 
49 
48 
48 
49 
50 
51 
52 
52 
52 
52 
52 
54 
51 
54 
52 
49 
48 
48 
51 
47 
50 
53 
47 
55 
50 
65 
74 
56 
51 
94 
85 
56 
68 
69 
55 
77 
94 
104 
105 
93 
75 
67 
56 
47 
51 
54 
61 
61 
49 
48 
68 
91 
120 
195 
241 
195 
208 
214 
219 
219 
200 
214 
230 
200 
214 
225 
205 
211 
211 
211 
211 
211 
211 
211 
211 
212 
212 
210 
210 
210 
210 
211 
212 
212 
211 
213 
214 
197 
169 
154 
117 
63 
72 
65 
60 
71 
53 
56 
56 
54 
51 
51 
52 
55 
55 
54 
54 
53 
53 
55 
55 
55 
53 
52 
51 
52 
53 
50 
50 
50 
52 
54 
54 
53 
52 
52 
46 
46 
49 
46 
59 
48 
52 
54 
51 
62 
54 
47 
74 
53 
60 
45 
82 
130 
93 
61 
55 
66 
54 
106 
163 
164 
166 
135 
165 
163 
135 
107 
88 
52 
52 
66 
87 
109 
151 
187 
207 
215 
213 
205 
222 
205 
211 
214 
215 
210 
222 
206 
216 
210 
210 
211 
211 
211 
211 
211 
211 
211 
211 
212 
212 
210 
210 
210 
210 
210 
211 
211 
211 
219 
210 
202 
179 
158 
143 
87 
62 
52 
52 
68 
56 
54 
55 
56 
53 
51 
53 
57 
57 
57 
57 
57 
55 
55 
56 
56 
55 
53 
52 
54 
56 
53 
52 
51 
52 
55 
56 
55 
53 
45 
58 
56 
57 
68 
47 
72 
64 
57 
74 
61 
54 
78 
66 
73 
48 
78 
144 
114 
79 
112 
96 
112 
98 
147 
190 
186 
215 
180 
206 
217 
211 
204 
203 
161 
133 
156 
198 
212 
220 
210 
220 
210 
199 
219 
206 
213 
211 
212 
213 
213 
210 
213 
210 
210 
211 
211 
211 
211 
211 
211 
211 
211 
211 
213 
213 
210 
210 
210 
209 
209 
209 
210 
210 
205 
213 
207 
192 
190 
185 
132 
109 
86 
49 
54 
63 
62 
56 
56 
59 
54 
59 
62 
60 
59 
60 
59 
55 
53 
55 
55 
53 
52 
51 
52 
54 
56 
54 
52 
52 
54 
55 
55 
53 
57 
55 
48 
50 
49 
47 
53 
80 
91 
81 
76 
81 
71 
70 
101 
60 
129 
162 
77 
88 
148 
157 
179 
168 
199 
203 
204 
229 
216 
199 
214 
211 
216 
230 
221 
205 
221 
221 
213 
211 
210 
206 
204 
217 
217 
209 
216 
207 
215 
208 
217 
211 
214 
208 
218 
210 
211 
211 
212 
212 
212 
212 
212 
212 
213 
213 
210 
210 
210 
209 
209 
209 
210 
211 
214 
208 
202 
199 
203 
208 
180 
151 
109 
56 
53 
65 
63 
62 
60 
61 
62 
67 
66 
61 
60 
63 
61 
55 
54 
55 
56 
55 
55 
55 
57 
59 
57 
55 
54 
54 
55 
55 
54 
53 
57 
49 
53 
72 
56 
57 
57 
95 
131 
113 
114 
109 
86 
151 
152 
125 
187 
178 
128 
180 
187 
206 
219 
211 
211 
217 
207 
215 
210 
211 
215 
195 
202 
205 
205 
203 
217 
202 
202 
217 
218 
213 
216 
209 
205 
209 
205 
217 
212 
217 
213 
210 
216 
213 
209 
214 
212 
212 
212 
212 
213 
213 
213 
213 
213 
213 
210 
210 
211 
210 
209 
210 
212 
213 
215 
204 
212 
218 
208 
205 
209 
180 
107 
62 
62 
69 
56 
58 
60 
60 
63 
67 
65 
59 
60 
66 
65 
59 
58 
57 
57 
57 
58 
58 
59 
60 
56 
57 
58 
59 
59 
57 
55 
54 
56 
56 
52 
57 
54 
41 
145 
155 
151 
192 
158 
127 
196 
207 
211 
200 
215 
201 
191 
229 
216 
219 
217 
202 
215 
218 
202 
220 
209 
221 
216 
217 
209 
222 
217 
201 
208 
220 
221 
216 
218 
199 
210 
205 
209 
216 
216 
209 
213 
212 
212 
217 
209 
214 
213 
211 
213 
213 
213 
213 
214 
214 
214 
214 
214 
214 
210 
210 
211 
211 
210 
211 
213 
215 
210 
211 
207 
210 
214 
203 
218 
215 
182 
92 
55 
58 
54 
59 
58 
53 
59 
62 
60 
55 
59 
69 
70 
64 
61 
60 
57 
55 
53 
52 
50 
49 
56 
59 
62 
64 
63 
60 
57 
55 
64 
45 
56 
71 
59 
135 
198 
199 
191 
217 
199 
179 
237 
205 
206 
206 
200 
219 
215 
204 
215 
198 
212 
209 
211 
215 
212 
214 
206 
202 
201 
209 
214 
219 
216 
221 
215 
211 
203 
208 
203 
216 
205 
215 
214 
208 
208 
213 
211 
215 
213 
212 
216 
215 
212 
215 
213 
213 
213 
214 
214 
214 
215 
215 
214 
214 
210 
210 
210 
210 
210 
210 
210 
210 
210 
211 
212 
211 
211 
210 
207 
204 
212 
140 
64 
65 
70 
58 
51 
54 
62 
62 
61 
55 
63 
56 
57 
60 
63 
55 
52 
59 
50 
55 
61 
67 
88 
110 
121 
121 
121 
121 
89 
82 
81 
73 
116 
170 
178 
216 
201 
210 
219 
204 
212 
222 
209 
205 
211 
204 
207 
220 
211 
201 
213 
214 
207 
215 
211 
211 
211 
211 
213 
215 
217 
219 
210 
209 
210 
213 
215 
215 
215 
217 
219 
217 
213 
210 
209 
210 
211 
212 
213 
213 
213 
213 
213 
213 
213 
214 
213 
213 
213 
214 
214 
215 
215 
216 
214 
214 
210 
210 
210 
210 
210 
210 
210 
210 
212 
213 
213 
211 
210 
209 
205 
202 
203 
197 
172 
148 
66 
62 
61 
56 
60 
63 
60 
53 
59 
61 
58 
51 
58 
70 
63 
72 
63 
96 
104 
113 
148 
185 
211 
212 
201 
196 
181 
191 
204 
190 
205 
226 
212 
224 
205 
208 
214 
202 
209 
216 
209 
208 
214 
210 
223 
196 
206 
223 
208 
203 
215 
214 
213 
212 
211 
210 
209 
209 
210 
211 
215 
214 
214 
215 
214 
212 
211 
212 
213 
213 
214 
214 
214 
213 
212 
212 
213 
213 
213 
213 
213 
214 
214 
214 
213 
213 
214 
214 
214 
215 
215 
216 
214 
214 
210 
210 
210 
210 
210 
210 
210 
210 
210 
211 
211 
210 
210 
210 
208 
205 
200 
201 
213 
188 
181 
88 
57 
78 
79 
76 
70 
65 
60 
67 
70 
69 
81 
90 
82 
104 
130 
188 
202 
210 
210 
217 
215 
209 
207 
211 
203 
211 
207 
202 
207 
216 
210 
216 
212 
218 
213 
208 
210 
212 
208 
209 
212 
210 
215 
206 
208 
215 
210 
208 
212 
212 
212 
211 
210 
210 
210 
211 
212 
212 
215 
214 
214 
215 
214 
213 
212 
213 
210 
212 
214 
215 
215 
215 
213 
212 
214 
214 
214 
214 
214 
214 
214 
214 
214 
214 
214 
214 
214 
215 
215 
216 
215 
215 
210 
210 
210 
210 
210 
210 
210 
210 
208 
209 
210 
209 
210 
211 
210 
208 
208 
208 
214 
219 
192 
203 
190 
187 
183 
172 
162 
158 
132 
125 
127 
137 
169 
178 
186 
200 
217 
218 
209 
206 
217 
216 
211 
208 
210 
209 
205 
210 
212 
214 
212 
213 
213 
211 
213 
214 
213 
214 
212 
210 
209 
210 
209 
209 
203 
222 
212 
200 
214 
216 
206 
212 
211 
211 
211 
211 
212 
214 
215 
216 
213 
213 
213 
215 
215 
214 
214 
215 
214 
214 
213 
213 
213 
214 
214 
214 
214 
214 
214 
214 
214 
214 
214 
214 
214 
214 
214 
214 
214 
215 
215 
215 
215 
215 
210 
210 
210 
210 
210 
210 
210 
210 
211 
212 
211 
210 
210 
210 
209 
207 
208 
213 
219 
209 
219 
213 
203 
216 
221 
217 
219 
227 
211 
208 
211 
221 
226 
220 
214 
212 
218 
211 
208 
215 
205 
209 
212 
215 
216 
210 
210 
213 
209 
215 
211 
210 
215 
211 
214 
213 
210 
214 
212 
210 
213 
213 
211 
211 
212 
209 
210 
212 
212 
210 
211 
212 
212 
212 
212 
211 
212 
212 
213 
213 
216 
215 
214 
215 
215 
213 
212 
213 
215 
214 
213 
212 
212 
213 
214 
215 
215 
215 
214 
214 
214 
214 
214 
214 
214 
214 
214 
214 
214 
214 
215 
215 
215 
215 
210 
210 
210 
210 
210 
210 
210 
210 
210 
211 
210 
209 
210 
212 
212 
210 
208 
207 
202 
201 
209 
214 
207 
209 
211 
214 
214 
215 
211 
216 
218 
215 
209 
210 
202 
210 
212 
220 
212 
212 
218 
213 
209 
210 
215 
209 
213 
209 
211 
214 
210 
209 
212 
209 
211 
210 
210 
214 
213 
212 
214 
214 
211 
212 
216 
204 
210 
218 
210 
208 
214 
211 
212 
212 
212 
212 
212 
213 
213 
213 
215 
214 
214 
215 
214 
212 
212 
213 
212 
212 
213 
213 
214 
214 
214 
214 
215 
215 
214 
214 
214 
214 
214 
214 
214 
214 
214 
214 
214 
214 
215 
215 
215 
215 
210 
210 
210 
210 
210 
210 
210 
210 
208 
209 
209 
209 
211 
214 
215 
214 
212 
205 
208 
217 
213 
211 
218 
213 
212 
214 
211 
202 
207 
211 
213 
210 
202 
214 
220 
223 
211 
214 
213 
214 
208 
210 
214 
214 
214 
205 
214 
209 
211 
210 
210 
210 
209 
211 
209 
212 
213 
212 
213 
214 
213 
212 
211 
211 
210 
214 
213 
209 
212 
213 
212 
212 
212 
212 
213 
213 
214 
215 
215 
215 
213 
212 
213 
214 
214 
213 
213 
214 
211 
212 
212 
213 
214 
214 
214 
214 
214 
214 
214 
214 
214 
214 
214 
214 
214 
214 
214 
214 
214 
214 
215 
215 
215 
215 
210 
210 
210 
210 
210 
210 
210 
210 
211 
211 
211 
210 
211 
213 
214 
213 
211 
209 
213 
206 
217 
203 
217 
204 
208 
212 
215 
211 
219 
213 
216 
221 
217 
208 
213 
207 
208 
203 
213 
209 
214 
213 
212 
210 
213 
205 
216 
207 
209 
206 
210 
213 
205 
209 
205 
210 
212 
209 
210 
214 
212 
211 
213 
213 
212 
214 
212 
211 
212 
213 
212 
214 
213 
213 
213 
213 
213 
213 
213 
213 
215 
214 
213 
214 
214 
212 
211 
212 
213 
213 
212 
211 
211 
212 
214 
215 
214 
214 
214 
214 
214 
213 
213 
213 
214 
214 
214 
214 
214 
214 
215 
215 
214 
214 
210 
210 
210 
210 
210 
210 
210 
210 
211 
210 
209 
210 
211 
210 
207 
204 
209 
212 
205 
209 
211 
212 
223 
222 
211 
223 
212 
203 
213 
211 
202 
210 
213 
210 
208 
207 
208 
210 
211 
212 
211 
211 
212 
212 
212 
212 
211 
211 
210 
209 
209 
209 
209 
209 
209 
210 
210 
210 
210 
210 
211 
211 
212 
212 
212 
212 
212 
212 
213 
213 
213 
213 
214 
214 
214 
214 
214 
214 
214 
215 
214 
214 
214 
214 
213 
212 
211 
210 
211 
211 
211 
212 
212 
213 
214 
215 
213 
213 
214 
214 
214 
214 
214 
214 
214 
214 
214 
214 
214 
215 
215 
215 
215 
215 
210 
210 
210 
210 
210 
210 
210 
210 
211 
210 
209 
210 
212 
211 
209 
207 
211 
213 
207 
208 
208 
206 
213 
211 
208 
218 
212 
205 
213 
212 
206 
211 
213 
212 
211 
211 
212 
213 
213 
213 
211 
211 
212 
212 
212 
212 
211 
211 
211 
210 
210 
210 
210 
210 
210 
211 
210 
210 
210 
210 
211 
211 
212 
212 
212 
212 
212 
212 
212 
213 
213 
213 
214 
213 
213 
213 
213 
214 
214 
214 
213 
213 
214 
213 
213 
212 
211 
211 
211 
211 
211 
212 
212 
213 
214 
214 
213 
213 
214 
214 
214 
214 
214 
214 
214 
214 
214 
214 
214 
215 
215 
215 
215 
215 
211 
211 
211 
211 
211 
211 
211 
211 
211 
210 
210 
211 
212 
212 
211 
210 
210 
212 
209 
211 
210 
208 
211 
208 
207 
213 
212 
209 
212 
213 
209 
209 
211 
210 
210 
211 
212 
212 
211 
210 
211 
211 
212 
212 
212 
212 
211 
211 
212 
211 
211 
211 
211 
211 
211 
212 
210 
210 
210 
211 
211 
211 
212 
212 
212 
212 
212 
212 
212 
213 
213 
213 
213 
213 
213 
213 
213 
213 
213 
214 
213 
213 
212 
212 
212 
212 
211 
212 
212 
212 
212 
212 
212 
213 
213 
213 
213 
213 
214 
214 
214 
214 
214 
214 
214 
214 
214 
214 
214 
215 
215 
215 
215 
215 
211 
211 
211 
211 
211 
211 
211 
211 
211 
211 
210 
210 
212 
212 
212 
211 
209 
211 
211 
212 
213 
212 
212 
211 
210 
211 
212 
211 
210 
211 
211 
207 
208 
209 
209 
210 
210 
210 
209 
209 
211 
211 
212 
212 
212 
212 
211 
211 
212 
212 
211 
211 
211 
211 
212 
212 
211 
211 
211 
211 
211 
211 
212 
212 
212 
212 
212 
212 
212 
212 
212 
212 
212 
212 
212 
212 
212 
212 
213 
213 
213 
212 
211 
211 
211 
211 
212 
212 
213 
212 
212 
212 
212 
212 
213 
213 
213 
213 
214 
214 
214 
214 
214 
214 
214 
214 
214 
214 
214 
215 
215 
215 
215 
215 
