P2
# Created by MsrVolt
106 70
255
211 
211 
211 
210 
211 
211 
211 
212 
210 
211 
211 
211 
211 
211 
211 
211 
211 
211 
211 
211 
210 
211 
211 
211 
211 
211 
211 
211 
211 
211 
211 
211 
211 
211 
211 
211 
211 
211 
211 
211 
211 
211 
210 
210 
211 
211 
211 
212 
212 
212 
212 
212 
212 
212 
212 
212 
212 
212 
212 
212 
212 
212 
211 
211 
211 
212 
213 
213 
213 
213 
212 
212 
212 
212 
211 
211 
212 
213 
214 
215 
215 
215 
215 
215 
215 
215 
215 
215 
215 
215 
215 
215 
215 
215 
215 
215 
215 
215 
215 
215 
215 
215 
215 
215 
215 
215 
211 
211 
210 
210 
211 
211 
211 
211 
211 
211 
211 
211 
211 
211 
211 
211 
211 
211 
211 
210 
210 
211 
211 
211 
211 
211 
211 
211 
211 
211 
211 
211 
211 
211 
211 
211 
211 
211 
211 
211 
211 
211 
211 
211 
211 
211 
212 
212 
212 
212 
212 
212 
212 
212 
212 
212 
212 
212 
212 
212 
212 
212 
211 
211 
211 
212 
213 
213 
213 
213 
212 
212 
212 
212 
212 
212 
212 
213 
214 
215 
215 
215 
215 
215 
215 
215 
215 
215 
215 
215 
215 
215 
215 
215 
215 
215 
215 
215 
215 
215 
215 
215 
215 
215 
215 
215 
211 
211 
210 
210 
210 
211 
211 
211 
211 
211 
211 
211 
211 
211 
211 
210 
211 
211 
211 
210 
210 
211 
211 
211 
211 
211 
211 
211 
211 
211 
211 
211 
211 
211 
211 
211 
211 
211 
211 
211 
212 
212 
212 
212 
212 
212 
212 
212 
212 
212 
212 
212 
212 
212 
212 
212 
212 
212 
212 
212 
212 
212 
211 
211 
211 
212 
213 
213 
213 
213 
213 
212 
213 
213 
213 
212 
213 
214 
214 
215 
215 
215 
215 
215 
215 
215 
215 
215 
215 
215 
215 
214 
215 
215 
215 
215 
215 
215 
215 
215 
215 
215 
215 
215 
215 
215 
211 
210 
210 
210 
210 
211 
211 
211 
211 
211 
211 
211 
211 
211 
211 
210 
211 
210 
210 
210 
210 
211 
211 
211 
211 
211 
211 
211 
211 
211 
211 
211 
211 
211 
211 
211 
211 
211 
211 
211 
212 
212 
212 
213 
213 
212 
212 
212 
212 
212 
212 
212 
212 
212 
212 
212 
212 
212 
212 
212 
212 
212 
211 
211 
212 
212 
213 
213 
213 
213 
213 
213 
214 
214 
213 
213 
213 
214 
214 
215 
214 
214 
214 
214 
214 
214 
214 
214 
215 
215 
214 
214 
214 
215 
215 
215 
215 
215 
215 
215 
215 
215 
215 
215 
215 
215 
210 
210 
210 
210 
210 
210 
211 
211 
211 
211 
211 
211 
211 
211 
210 
210 
210 
210 
210 
210 
210 
211 
211 
211 
211 
211 
211 
211 
211 
211 
211 
211 
211 
211 
211 
211 
211 
211 
211 
211 
212 
213 
213 
213 
213 
213 
212 
212 
212 
212 
212 
212 
212 
212 
212 
212 
212 
212 
212 
212 
212 
212 
211 
211 
212 
212 
212 
213 
213 
213 
213 
213 
214 
214 
214 
214 
214 
214 
214 
215 
214 
214 
214 
214 
214 
214 
214 
214 
214 
214 
214 
214 
214 
215 
215 
215 
215 
215 
215 
215 
215 
215 
215 
215 
215 
215 
210 
210 
210 
210 
210 
210 
211 
211 
211 
211 
211 
211 
211 
211 
210 
210 
210 
210 
210 
210 
210 
211 
211 
211 
211 
211 
211 
211 
211 
211 
211 
211 
211 
211 
211 
211 
211 
211 
211 
211 
212 
213 
213 
213 
213 
213 
212 
212 
212 
212 
212 
212 
212 
212 
212 
212 
212 
212 
212 
212 
212 
212 
211 
211 
212 
212 
212 
213 
213 
213 
214 
214 
214 
214 
214 
214 
214 
214 
214 
214 
214 
214 
214 
214 
214 
214 
214 
214 
214 
214 
214 
214 
214 
215 
215 
215 
215 
215 
215 
215 
215 
215 
215 
215 
215 
215 
210 
210 
210 
210 
210 
210 
211 
211 
211 
211 
211 
211 
211 
211 
210 
210 
210 
210 
210 
210 
210 
211 
211 
211 
211 
211 
211 
211 
211 
211 
211 
211 
211 
211 
211 
211 
211 
211 
211 
211 
212 
212 
213 
213 
213 
213 
212 
211 
212 
212 
212 
212 
212 
212 
212 
212 
212 
212 
212 
212 
212 
212 
211 
211 
212 
212 
212 
213 
213 
214 
214 
214 
214 
214 
214 
214 
214 
214 
213 
213 
214 
214 
214 
214 
214 
214 
214 
214 
214 
214 
214 
214 
214 
215 
215 
215 
215 
215 
215 
215 
215 
215 
215 
215 
215 
215 
210 
210 
210 
210 
210 
210 
211 
211 
211 
211 
211 
211 
211 
211 
210 
210 
210 
210 
210 
210 
210 
210 
211 
211 
211 
211 
211 
211 
211 
211 
211 
211 
211 
211 
211 
211 
211 
211 
211 
211 
212 
212 
213 
213 
213 
212 
211 
211 
212 
212 
212 
212 
212 
212 
212 
212 
212 
212 
212 
212 
212 
212 
211 
211 
212 
212 
212 
212 
213 
214 
214 
215 
214 
214 
214 
214 
214 
214 
213 
213 
214 
214 
214 
214 
214 
214 
214 
214 
214 
214 
214 
214 
214 
215 
215 
215 
215 
215 
215 
215 
215 
215 
215 
215 
215 
215 
210 
210 
209 
210 
210 
210 
211 
211 
211 
211 
211 
211 
211 
211 
211 
211 
210 
208 
208 
211 
211 
209 
209 
213 
214 
209 
209 
208 
211 
213 
209 
211 
211 
215 
209 
210 
212 
210 
211 
210 
212 
212 
213 
213 
213 
213 
212 
212 
213 
213 
212 
210 
212 
215 
214 
211 
213 
213 
213 
213 
212 
211 
212 
213 
212 
212 
213 
213 
214 
214 
213 
213 
212 
214 
214 
213 
213 
215 
215 
213 
213 
213 
214 
214 
214 
214 
214 
214 
214 
214 
214 
214 
214 
214 
215 
215 
215 
215 
215 
215 
215 
215 
215 
215 
215 
215 
210 
210 
210 
210 
210 
210 
210 
211 
212 
212 
212 
211 
210 
209 
208 
208 
213 
212 
212 
211 
211 
210 
211 
212 
209 
211 
213 
214 
212 
211 
212 
212 
209 
213 
208 
210 
213 
210 
211 
210 
213 
213 
213 
213 
213 
212 
212 
211 
209 
212 
214 
213 
211 
211 
211 
211 
211 
211 
211 
211 
211 
211 
211 
211 
211 
212 
212 
212 
212 
212 
213 
214 
214 
215 
215 
214 
214 
216 
215 
213 
213 
214 
214 
215 
214 
214 
214 
215 
214 
214 
214 
214 
214 
214 
215 
215 
215 
215 
215 
215 
215 
215 
215 
215 
215 
215 
211 
210 
210 
210 
210 
210 
210 
210 
210 
211 
211 
211 
211 
211 
211 
211 
207 
210 
210 
207 
207 
210 
211 
208 
211 
213 
208 
213 
210 
205 
212 
208 
210 
214 
208 
210 
213 
210 
212 
213 
213 
212 
211 
212 
213 
213 
212 
211 
212 
212 
213 
213 
212 
210 
211 
213 
212 
212 
211 
212 
212 
212 
212 
211 
212 
212 
213 
213 
212 
213 
214 
215 
213 
214 
213 
213 
215 
216 
214 
212 
213 
214 
214 
214 
214 
214 
214 
215 
214 
214 
214 
214 
214 
214 
215 
215 
215 
215 
215 
215 
215 
215 
215 
215 
215 
215 
211 
211 
210 
210 
209 
209 
209 
209 
207 
208 
209 
210 
211 
212 
212 
213 
207 
212 
213 
209 
210 
215 
215 
210 
225 
217 
204 
215 
215 
210 
221 
212 
210 
212 
206 
207 
210 
207 
210 
211 
209 
208 
208 
210 
212 
213 
212 
210 
217 
212 
209 
210 
213 
213 
214 
215 
215 
213 
212 
212 
213 
213 
212 
211 
212 
212 
213 
213 
214 
214 
213 
213 
209 
211 
212 
212 
212 
213 
213 
212 
213 
213 
214 
213 
213 
213 
213 
214 
214 
214 
214 
214 
214 
214 
215 
215 
215 
215 
215 
215 
215 
215 
215 
215 
215 
215 
211 
211 
210 
210 
209 
209 
209 
209 
208 
208 
208 
209 
209 
209 
209 
209 
211 
213 
212 
209 
211 
215 
216 
212 
221 
210 
200 
215 
213 
204 
215 
206 
216 
218 
213 
217 
219 
214 
214 
215 
209 
209 
208 
209 
211 
212 
211 
210 
214 
211 
210 
212 
213 
214 
215 
217 
215 
214 
213 
212 
212 
212 
211 
211 
212 
211 
211 
212 
214 
214 
211 
208 
209 
211 
213 
213 
210 
209 
210 
212 
213 
213 
213 
213 
212 
212 
213 
213 
214 
214 
214 
214 
214 
214 
215 
215 
215 
215 
215 
215 
215 
215 
215 
215 
215 
215 
211 
210 
210 
209 
209 
209 
209 
209 
209 
209 
210 
211 
211 
212 
212 
212 
209 
207 
206 
208 
210 
210 
211 
212 
216 
210 
211 
221 
211 
202 
210 
201 
206 
210 
208 
215 
218 
210 
208 
207 
214 
214 
214 
213 
212 
211 
211 
210 
208 
213 
216 
215 
213 
213 
214 
216 
210 
212 
213 
213 
213 
212 
213 
213 
213 
212 
212 
214 
216 
215 
213 
210 
213 
213 
214 
214 
211 
209 
210 
212 
213 
213 
213 
212 
212 
212 
213 
213 
214 
214 
214 
214 
214 
214 
215 
215 
215 
215 
215 
215 
215 
215 
215 
215 
215 
215 
210 
210 
210 
209 
209 
209 
209 
209 
210 
210 
211 
212 
213 
213 
214 
214 
207 
201 
203 
211 
210 
199 
192 
194 
211 
209 
214 
212 
202 
209 
218 
207 
204 
208 
206 
213 
217 
211 
210 
211 
211 
212 
213 
211 
209 
207 
207 
207 
206 
210 
210 
206 
205 
209 
209 
205 
199 
204 
209 
212 
212 
211 
212 
212 
212 
212 
213 
213 
213 
213 
214 
214 
216 
214 
212 
213 
213 
211 
212 
213 
214 
214 
214 
213 
212 
212 
213 
214 
214 
214 
214 
214 
214 
214 
215 
215 
215 
215 
215 
215 
215 
215 
215 
215 
215 
215 
210 
210 
209 
209 
209 
209 
209 
210 
212 
212 
211 
211 
210 
209 
208 
208 
199 
192 
196 
206 
200 
176 
159 
157 
178 
174 
177 
167 
165 
193 
208 
195 
189 
191 
186 
193 
198 
194 
198 
201 
203 
204 
206 
204 
200 
198 
199 
200 
206 
204 
195 
189 
195 
203 
201 
190 
187 
194 
202 
207 
208 
207 
207 
208 
207 
209 
211 
210 
208 
208 
211 
215 
216 
211 
209 
211 
214 
214 
214 
214 
215 
215 
214 
213 
213 
213 
214 
215 
214 
214 
214 
214 
214 
214 
215 
215 
215 
215 
215 
215 
215 
215 
215 
215 
215 
215 
211 
210 
210 
209 
208 
208 
210 
212 
212 
209 
210 
205 
204 
204 
197 
196 
192 
184 
179 
163 
140 
119 
105 
109 
120 
105 
105 
102 
95 
150 
204 
177 
175 
174 
178 
173 
183 
197 
193 
197 
196 
202 
203 
203 
203 
199 
193 
191 
191 
188 
184 
167 
182 
205 
192 
186 
188 
185 
195 
198 
199 
203 
199 
198 
200 
201 
200 
199 
196 
192 
198 
211 
213 
213 
200 
210 
215 
209 
216 
209 
217 
210 
213 
213 
216 
210 
216 
216 
214 
213 
213 
214 
212 
216 
217 
214 
215 
215 
215 
215 
215 
215 
215 
215 
215 
215 
212 
210 
210 
211 
210 
208 
209 
211 
208 
215 
208 
212 
206 
195 
200 
192 
194 
180 
142 
105 
85 
69 
56 
77 
64 
58 
60 
57 
58 
120 
180 
163 
165 
184 
170 
165 
181 
204 
189 
192 
195 
199 
199 
198 
203 
199 
185 
173 
173 
170 
159 
164 
178 
189 
199 
199 
193 
188 
192 
191 
194 
191 
191 
198 
203 
201 
196 
192 
189 
186 
189 
198 
209 
207 
197 
206 
203 
197 
205 
209 
207 
214 
218 
214 
216 
214 
208 
212 
214 
216 
215 
213 
212 
214 
214 
214 
215 
215 
215 
215 
215 
215 
215 
215 
215 
215 
212 
209 
209 
212 
211 
207 
208 
212 
210 
211 
205 
205 
199 
195 
200 
194 
188 
170 
125 
87 
71 
72 
55 
57 
62 
63 
65 
58 
58 
101 
137 
119 
117 
145 
137 
128 
146 
181 
192 
190 
190 
190 
185 
180 
180 
177 
175 
178 
161 
157 
165 
155 
166 
198 
204 
211 
196 
195 
189 
180 
190 
184 
189 
198 
194 
202 
202 
192 
180 
172 
177 
188 
201 
199 
195 
202 
192 
190 
196 
212 
206 
211 
215 
199 
214 
218 
213 
218 
208 
215 
215 
212 
216 
215 
213 
216 
214 
214 
214 
214 
214 
215 
215 
215 
215 
215 
210 
207 
207 
210 
209 
206 
209 
216 
206 
198 
212 
202 
195 
200 
186 
184 
205 
148 
92 
65 
50 
73 
75 
68 
60 
62 
61 
53 
51 
64 
69 
51 
60 
79 
96 
78 
83 
113 
168 
160 
163 
171 
162 
142 
138 
148 
157 
161 
168 
203 
172 
123 
157 
171 
148 
187 
191 
196 
178 
165 
186 
182 
186 
186 
196 
205 
203 
188 
173 
167 
175 
188 
196 
197 
197 
200 
189 
195 
195 
210 
168 
179 
211 
204 
226 
220 
215 
211 
206 
214 
215 
210 
221 
216 
212 
214 
213 
213 
213 
214 
214 
214 
215 
215 
214 
214 
209 
207 
208 
210 
208 
206 
211 
220 
216 
199 
205 
198 
194 
203 
192 
185 
172 
112 
72 
69 
62 
66 
59 
54 
61 
59 
58 
56 
55 
55 
54 
55 
65 
80 
98 
77 
63 
72 
122 
119 
132 
155 
152 
128 
131 
154 
157 
142 
163 
192 
132 
96 
105 
96 
113 
137 
162 
166 
144 
150 
185 
184 
188 
189 
206 
203 
189 
174 
170 
173 
179 
187 
197 
201 
202 
199 
193 
201 
196 
199 
186 
184 
203 
198 
200 
200 
212 
221 
213 
217 
215 
207 
219 
213 
209 
210 
213 
213 
213 
214 
214 
214 
214 
214 
214 
214 
209 
209 
209 
210 
209 
208 
210 
214 
192 
168 
151 
179 
196 
195 
197 
171 
108 
93 
69 
53 
64 
69 
62 
67 
64 
60 
62 
60 
57 
51 
54 
74 
86 
101 
97 
86 
68 
63 
69 
77 
90 
107 
117 
120 
131 
145 
153 
155 
169 
186 
137 
89 
73 
65 
82 
102 
146 
149 
126 
154 
187 
179 
185 
193 
193 
190 
180 
174 
174 
175 
176 
180 
197 
203 
203 
197 
197 
199 
197 
186 
202 
199 
197 
215 
211 
213 
208 
212 
214 
214 
214 
204 
216 
211 
214 
214 
214 
214 
214 
214 
214 
214 
214 
214 
214 
214 
209 
209 
209 
209 
210 
209 
203 
197 
206 
181 
166 
209 
207 
165 
152 
119 
66 
84 
82 
51 
63 
67 
66 
69 
65 
58 
60 
60 
59 
55 
59 
84 
102 
99 
84 
80 
70 
71 
60 
70 
76 
76 
85 
106 
124 
134 
156 
183 
165 
151 
179 
145 
88 
95 
103 
100 
163 
176 
149 
175 
183 
170 
175 
182 
177 
178 
179 
183 
186 
182 
179 
183 
188 
196 
197 
193 
200 
194 
202 
188 
185 
186 
166 
183 
206 
206 
208 
216 
207 
207 
215 
207 
216 
210 
219 
217 
215 
215 
215 
214 
214 
214 
214 
213 
214 
214 
208 
209 
208 
208 
211 
209 
196 
182 
192 
171 
179 
214 
186 
130 
125 
130 
95 
97 
110 
85 
77 
60 
63 
64 
63 
52 
54 
60 
72 
82 
90 
114 
104 
73 
64 
56 
52 
63 
67 
71 
79 
73 
67 
78 
103 
129 
152 
169 
141 
134 
187 
189 
126 
96 
89 
84 
166 
197 
172 
187 
180 
175 
183 
185 
184 
178 
175 
185 
198 
199 
193 
193 
176 
185 
190 
189 
203 
191 
210 
198 
172 
173 
137 
117 
159 
150 
187 
215 
201 
204 
220 
213 
218 
209 
218 
214 
216 
215 
215 
215 
214 
214 
213 
213 
214 
214 
212 
206 
209 
210 
208 
212 
198 
166 
163 
135 
153 
184 
155 
124 
147 
156 
144 
155 
147 
98 
54 
44 
67 
54 
58 
62 
58 
68 
90 
108 
166 
162 
120 
79 
50 
47 
56 
60 
55 
63 
70 
71 
57 
64 
75 
96 
133 
128 
161 
165 
165 
176 
160 
118 
93 
83 
125 
158 
132 
138 
165 
198 
157 
179 
187 
171 
162 
163 
178 
194 
193 
191 
150 
166 
172 
170 
193 
175 
195 
204 
171 
179 
150 
110 
154 
147 
146 
190 
182 
193 
217 
216 
219 
215 
217 
217 
217 
215 
217 
213 
211 
213 
213 
214 
214 
214 
210 
207 
211 
211 
207 
208 
195 
167 
187 
176 
180 
185 
133 
124 
145 
151 
155 
170 
174 
113 
37 
54 
51 
57 
64 
58 
56 
62 
91 
133 
194 
172 
115 
72 
58 
57 
60 
61 
51 
53 
54 
60 
53 
52 
52 
65 
91 
88 
172 
201 
177 
176 
166 
166 
164 
121 
92 
117 
105 
97 
129 
169 
157 
172 
175 
167 
153 
170 
181 
176 
181 
176 
139 
146 
148 
154 
185 
173 
174 
188 
179 
176 
168 
144 
165 
171 
138 
170 
168 
163 
182 
185 
199 
210 
222 
216 
215 
212 
215 
215 
213 
215 
215 
215 
214 
214 
209 
208 
210 
209 
207 
213 
209 
192 
197 
180 
189 
174 
119 
149 
141 
152 
174 
177 
196 
180 
110 
92 
46 
54 
50 
59 
56 
45 
80 
125 
186 
159 
93 
43 
49 
62 
53 
56 
56 
52 
53 
56 
58 
53 
48 
53 
63 
62 
132 
204 
210 
195 
159 
174 
175 
117 
74 
121 
161 
149 
162 
172 
171 
176 
168 
175 
182 
196 
194 
180 
181 
183 
143 
144 
154 
144 
186 
180 
159 
180 
177 
165 
147 
137 
135 
173 
150 
176 
157 
126 
144 
144 
165 
198 
221 
218 
220 
216 
216 
216 
212 
213 
215 
212 
214 
214 
208 
208 
210 
209 
209 
216 
215 
203 
197 
197 
188 
195 
147 
162 
167 
159 
186 
180 
182 
205 
173 
92 
47 
57 
54 
48 
63 
53 
63 
104 
174 
134 
99 
69 
72 
46 
45 
64 
57 
63 
53 
49 
54 
52 
51 
55 
51 
55 
70 
127 
174 
181 
168 
185 
159 
97 
117 
132 
155 
144 
169 
179 
182 
186 
182 
191 
215 
203 
192 
192 
178 
183 
175 
136 
186 
161 
164 
176 
160 
159 
140 
148 
137 
165 
160 
191 
171 
167 
181 
139 
165 
144 
136 
167 
195 
213 
220 
220 
215 
214 
211 
211 
215 
212 
215 
215 
207 
208 
211 
212 
211 
209 
199 
186 
189 
196 
206 
199 
147 
149 
149 
147 
171 
180 
161 
184 
181 
83 
46 
58 
53 
52 
52 
49 
82 
116 
178 
179 
161 
117 
39 
49 
79 
50 
46 
45 
52 
47 
51 
51 
53 
54 
48 
60 
62 
65 
105 
137 
156 
162 
152 
115 
139 
130 
130 
135 
162 
170 
166 
182 
182 
188 
201 
189 
188 
198 
186 
181 
190 
158 
192 
168 
163 
180 
134 
164 
148 
142 
141 
190 
195 
207 
178 
164 
172 
113 
132 
127 
134 
173 
175 
181 
205 
217 
213 
213 
214 
214 
218 
216 
215 
215 
208 
209 
209 
209 
211 
207 
197 
187 
185 
216 
202 
205 
162 
141 
169 
139 
159 
169 
141 
172 
193 
121 
53 
55 
60 
46 
48 
53 
66 
97 
168 
187 
163 
111 
90 
49 
41 
65 
56 
64 
53 
51 
56 
53 
52 
52 
49 
63 
53 
45 
63 
92 
105 
104 
155 
164 
181 
147 
127 
145 
166 
169 
138 
143 
166 
189 
190 
199 
198 
193 
199 
184 
189 
162 
168 
185 
157 
180 
130 
170 
170 
118 
118 
155 
158 
171 
149 
150 
166 
136 
148 
155 
149 
169 
162 
159 
186 
216 
215 
212 
218 
215 
217 
215 
215 
215 
210 
210 
207 
206 
210 
211 
206 
204 
192 
205 
195 
202 
177 
170 
175 
142 
166 
168 
130 
158 
180 
131 
61 
54 
58 
67 
54 
48 
53 
51 
82 
119 
107 
89 
143 
141 
110 
122 
100 
66 
49 
57 
58 
49 
51 
53 
51 
54 
59 
57 
59 
61 
66 
82 
132 
134 
144 
133 
146 
172 
155 
138 
98 
92 
151 
192 
192 
194 
180 
166 
179 
157 
162 
172 
143 
175 
153 
158 
120 
155 
169 
119 
139 
175 
155 
162 
149 
133 
166 
166 
144 
170 
169 
181 
176 
146 
174 
220 
218 
210 
218 
213 
212 
213 
215 
215 
209 
211 
209 
208 
211 
209 
205 
204 
197 
205 
186 
210 
191 
178 
176 
137 
163 
187 
153 
153 
147 
96 
58 
46 
46 
61 
53 
56 
55 
39 
37 
53 
80 
121 
174 
200 
192 
171 
132 
71 
49 
63 
58 
48 
54 
63 
57 
50 
48 
54 
64 
49 
62 
114 
127 
104 
103 
100 
136 
174 
153 
141 
99 
72 
126 
165 
167 
147 
134 
140 
148 
127 
158 
178 
148 
178 
139 
129 
131 
123 
160 
137 
162 
198 
150 
156 
169 
127 
146 
174 
127 
165 
170 
184 
197 
156 
168 
222 
217 
205 
216 
212 
212 
217 
215 
215 
208 
209 
211 
207 
205 
207 
205 
205 
191 
202 
173 
189 
192 
157 
172 
134 
155 
182 
155 
123 
107 
72 
76 
72 
46 
48 
52 
61 
43 
43 
62 
40 
63 
132 
189 
185 
174 
192 
150 
90 
68 
68 
60 
48 
52 
54 
48 
51 
49 
48 
49 
59 
69 
88 
152 
130 
104 
93 
119 
144 
137 
138 
131 
93 
117 
131 
122 
120 
119 
160 
147 
149 
158 
185 
158 
169 
161 
147 
175 
116 
141 
135 
135 
177 
134 
159 
157 
98 
135 
168 
115 
157 
166 
164 
195 
171 
168 
189 
215 
213 
217 
216 
214 
217 
215 
215 
210 
207 
208 
208 
209 
208 
201 
195 
167 
176 
154 
168 
175 
127 
151 
133 
153 
181 
146 
108 
90 
79 
111 
103 
77 
45 
55 
48 
50 
49 
33 
61 
52 
64 
139 
196 
179 
172 
160 
125 
108 
95 
53 
56 
61 
45 
52 
55 
52 
53 
56 
56 
50 
65 
116 
150 
138 
111 
78 
92 
88 
139 
153 
132 
138 
112 
108 
116 
116 
173 
177 
182 
149 
171 
145 
147 
183 
179 
174 
109 
147 
141 
138 
200 
142 
186 
157 
95 
146 
172 
116 
169 
174 
133 
197 
169 
158 
160 
187 
214 
223 
212 
210 
218 
215 
215 
211 
207 
207 
210 
210 
207 
199 
188 
146 
155 
135 
154 
168 
112 
137 
139 
161 
196 
175 
124 
94 
92 
123 
124 
83 
55 
66 
60 
43 
62 
64 
39 
41 
70 
105 
152 
190 
170 
146 
147 
138 
114 
70 
84 
86 
47 
46 
54 
54 
50 
53 
52 
46 
53 
67 
138 
174 
143 
76 
77 
76 
139 
164 
152 
169 
115 
105 
110 
122 
175 
170 
188 
149 
153 
147 
132 
168 
161 
152 
99 
165 
191 
135 
207 
132 
164 
188 
120 
170 
152 
103 
176 
200 
118 
194 
175 
141 
146 
176 
217 
220 
209 
212 
215 
216 
216 
209 
211 
210 
210 
206 
206 
202 
184 
111 
132 
120 
154 
165 
101 
96 
89 
148 
169 
148 
106 
90 
84 
102 
137 
82 
67 
50 
61 
54 
52 
67 
42 
33 
64 
92 
136 
190 
180 
153 
125 
104 
80 
78 
96 
102 
74 
50 
71 
54 
49 
49 
51 
51 
55 
47 
112 
167 
152 
96 
71 
66 
96 
139 
139 
169 
161 
103 
147 
194 
185 
176 
160 
174 
133 
143 
134 
157 
149 
160 
110 
168 
174 
167 
183 
124 
174 
177 
166 
165 
145 
176 
161 
193 
169 
179 
160 
104 
113 
154 
208 
215 
212 
220 
219 
216 
216 
208 
212 
210 
208 
205 
209 
204 
174 
91 
112 
90 
128 
134 
102 
103 
105 
174 
165 
111 
115 
124 
81 
87 
138 
96 
57 
52 
54 
45 
48 
53 
57 
49 
43 
60 
108 
154 
154 
148 
124 
112 
86 
96 
100 
99 
80 
45 
56 
52 
50 
54 
53 
54 
53 
56 
95 
159 
177 
142 
86 
59 
69 
131 
151 
189 
174 
107 
128 
192 
194 
183 
185 
179 
130 
153 
156 
172 
153 
160 
115 
166 
175 
145 
171 
141 
153 
169 
166 
154 
148 
194 
189 
201 
137 
137 
134 
106 
106 
156 
218 
226 
213 
215 
215 
216 
216 
208 
211 
206 
208 
207 
213 
207 
167 
108 
117 
85 
120 
111 
95 
109 
119 
183 
161 
84 
132 
142 
76 
103 
132 
66 
58 
62 
46 
47 
58 
43 
49 
45 
61 
66 
97 
153 
162 
143 
132 
116 
98 
95 
108 
108 
92 
70 
52 
49 
51 
53 
52 
55 
48 
57 
63 
136 
188 
182 
123 
69 
71 
121 
145 
183 
182 
143 
157 
188 
174 
176 
166 
180 
145 
154 
144 
169 
148 
137 
129 
177 
178 
128 
163 
139 
137 
149 
151 
148 
145 
171 
175 
177 
128 
120 
101 
81 
93 
161 
210 
220 
211 
216 
217 
216 
216 
209 
209 
205 
211 
207 
209 
211 
178 
166 
142 
99 
130 
116 
112 
153 
178 
207 
178 
107 
135 
112 
82 
130 
102 
48 
39 
53 
66 
50 
46 
50 
36 
40 
51 
64 
87 
128 
168 
159 
134 
110 
95 
90 
120 
121 
101 
89 
51 
47 
50 
47 
52 
59 
47 
49 
42 
109 
166 
179 
140 
87 
84 
114 
137 
176 
163 
179 
172 
174 
160 
128 
119 
151 
131 
151 
153 
191 
163 
106 
128 
162 
161 
133 
152 
131 
148 
143 
129 
147 
144 
129 
166 
153 
125 
144 
101 
93 
103 
174 
200 
216 
214 
215 
214 
215 
215 
209 
209 
207 
214 
204 
203 
216 
196 
202 
156 
115 
150 
136 
122 
167 
191 
204 
177 
143 
142 
100 
131 
169 
79 
51 
58 
56 
53 
59 
53 
45 
59 
51 
42 
65 
111 
147 
174 
152 
134 
112 
93 
98 
134 
131 
111 
99 
61 
46 
52 
47 
56 
61 
50 
50 
53 
89 
119 
134 
109 
79 
78 
114 
147 
185 
168 
167 
166 
182 
163 
130 
106 
143 
123 
156 
154 
167 
137 
83 
155 
162 
154 
141 
127 
113 
157 
147 
103 
143 
112 
128 
173 
127 
115 
127 
126 
112 
90 
151 
183 
222 
220 
214 
216 
215 
215 
209 
210 
209 
207 
208 
211 
211 
208 
212 
156 
126 
165 
174 
157 
138 
182 
184 
169 
148 
117 
118 
183 
135 
63 
74 
72 
52 
42 
54 
50 
73 
110 
101 
56 
79 
155 
176 
169 
152 
148 
147 
129 
114 
129 
132 
112 
88 
59 
46 
47 
51 
54 
53 
46 
55 
48 
67 
79 
72 
79 
74 
88 
144 
155 
178 
155 
174 
167 
177 
161 
168 
124 
145 
125 
153 
150 
163 
97 
104 
168 
159 
156 
136 
109 
94 
153 
132 
101 
156 
126 
134 
163 
103 
129 
108 
159 
143 
79 
98 
176 
214 
205 
217 
213 
215 
215 
210 
210 
209 
207 
208 
210 
210 
208 
211 
180 
163 
188 
191 
164 
150 
205 
189 
168 
149 
86 
123 
161 
85 
58 
74 
67 
74 
70 
52 
57 
126 
155 
162 
108 
120 
168 
144 
109 
150 
143 
144 
139 
141 
153 
137 
125 
107 
95 
71 
43 
49 
49 
48 
47 
45 
43 
58 
54 
51 
60 
59 
97 
157 
153 
187 
160 
179 
163 
185 
139 
133 
115 
144 
122 
130 
139 
177 
143 
137 
169 
148 
176 
133 
93 
109 
153 
136 
156 
190 
156 
167 
134 
122 
156 
126 
163 
148 
96 
103 
181 
216 
214 
215 
216 
214 
214 
210 
210 
209 
207 
208 
209 
209 
208 
217 
211 
204 
207 
196 
154 
151 
210 
195 
184 
155 
124 
175 
143 
68 
80 
91 
45 
96 
108 
82 
78 
126 
164 
190 
177 
192 
206 
154 
131 
129 
121 
118 
129 
151 
176 
170 
126 
157 
129 
80 
45 
56 
58 
51 
51 
53 
46 
57 
58 
47 
46 
62 
96 
131 
138 
196 
181 
183 
151 
174 
136 
125 
122 
166 
125 
98 
100 
165 
163 
154 
149 
140 
180 
118 
93 
142 
156 
147 
160 
165 
144 
178 
116 
118 
136 
106 
136 
95 
86 
115 
184 
218 
212 
212 
217 
214 
214 
210 
210 
209 
208 
208 
208 
208 
208 
206 
206 
208 
196 
174 
133 
142 
187 
189 
188 
183 
173 
153 
122 
111 
99 
85 
84 
102 
75 
73 
114 
182 
195 
218 
201 
182 
185 
158 
156 
136 
151 
142 
146 
178 
193 
170 
131 
178 
108 
55 
51 
50 
55 
50 
48 
64 
47 
54 
63 
57 
49 
57 
64 
65 
76 
96 
133 
136 
91 
97 
120 
119 
86 
161 
159 
81 
63 
72 
143 
132 
121 
153 
139 
189 
154 
159 
150 
117 
166 
128 
158 
182 
135 
145 
133 
84 
82 
113 
132 
170 
197 
226 
208 
213 
210 
213 
213 
211 
210 
209 
209 
208 
208 
208 
209 
210 
204 
213 
205 
184 
157 
175 
196 
203 
184 
177 
162 
140 
117 
120 
116 
146 
139 
66 
76 
102 
99 
170 
138 
157 
189 
192 
184 
171 
151 
161 
148 
152 
186 
185 
154 
144 
146 
117 
86 
56 
62 
53 
57 
65 
55 
68 
55 
47 
51 
64 
59 
51 
56 
54 
48 
54 
68 
74 
69 
54 
58 
69 
49 
90 
75 
52 
68 
65 
61 
87 
149 
166 
116 
149 
193 
197 
134 
146 
137 
152 
180 
140 
112 
146 
113 
76 
55 
93 
148 
201 
212 
221 
206 
217 
219 
213 
213 
211 
210 
210 
210 
209 
208 
209 
211 
211 
201 
209 
209 
194 
179 
196 
193 
170 
185 
199 
192 
160 
85 
116 
145 
139 
154 
165 
110 
67 
61 
66 
79 
124 
193 
183 
125 
116 
122 
131 
133 
147 
159 
171 
151 
131 
142 
127 
90 
73 
66 
64 
67 
83 
72 
60 
58 
59 
62 
59 
49 
50 
64 
69 
66 
62 
61 
69 
72 
72 
69 
71 
46 
41 
56 
62 
70 
53 
52 
72 
123 
117 
70 
95 
148 
176 
153 
173 
149 
162 
124 
103 
132 
156 
73 
64 
61 
77 
137 
188 
222 
216 
214 
211 
214 
213 
213 
211 
210 
210 
211 
210 
208 
209 
212 
214 
206 
207 
209 
199 
190 
198 
188 
151 
162 
186 
192 
148 
100 
138 
111 
127 
139 
122 
94 
79 
79 
78 
83 
114 
163 
157 
127 
146 
149 
120 
144 
144 
155 
166 
157 
151 
141 
151 
111 
75 
68 
66 
64 
68 
61 
67 
72 
87 
84 
60 
49 
58 
60 
61 
71 
83 
69 
73 
82 
90 
70 
45 
71 
69 
70 
78 
44 
65 
73 
96 
104 
75 
47 
81 
96 
132 
184 
163 
156 
151 
78 
92 
123 
139 
71 
58 
88 
81 
97 
128 
197 
214 
224 
213 
210 
213 
213 
211 
210 
210 
211 
210 
209 
210 
213 
214 
213 
206 
209 
205 
198 
202 
196 
169 
148 
136 
131 
132 
126 
109 
111 
115 
113 
91 
99 
108 
88 
69 
114 
139 
184 
194 
164 
164 
123 
129 
127 
132 
149 
159 
133 
119 
144 
135 
101 
86 
94 
79 
68 
53 
53 
108 
117 
107 
85 
81 
99 
93 
79 
85 
88 
86 
87 
75 
63 
62 
66 
50 
148 
113 
62 
54 
64 
88 
69 
58 
85 
73 
63 
84 
94 
108 
165 
125 
128 
137 
112 
121 
86 
139 
140 
66 
91 
72 
74 
120 
204 
223 
214 
211 
217 
213 
213 
210 
211 
211 
212 
211 
209 
207 
206 
212 
210 
209 
208 
208 
207 
204 
201 
186 
177 
157 
132 
136 
128 
104 
124 
122 
121 
154 
134 
104 
114 
150 
166 
176 
177 
161 
172 
172 
155 
117 
134 
147 
142 
135 
126 
125 
150 
159 
124 
121 
138 
118 
100 
112 
125 
139 
152 
140 
109 
101 
116 
134 
127 
129 
121 
98 
108 
89 
77 
80 
73 
115 
155 
106 
57 
63 
82 
83 
56 
49 
64 
62 
64 
104 
87 
95 
152 
152 
106 
120 
148 
132 
118 
167 
102 
58 
68 
64 
97 
173 
228 
218 
218 
217 
213 
213 
213 
208 
209 
210 
211 
212 
211 
210 
210 
208 
208 
207 
209 
210 
210 
208 
207 
189 
207 
201 
183 
156 
138 
144 
141 
173 
186 
138 
120 
162 
169 
161 
132 
135 
171 
180 
165 
121 
102 
108 
161 
159 
150 
142 
142 
150 
174 
190 
172 
169 
177 
162 
155 
165 
163 
155 
150 
150 
132 
121 
124 
145 
157 
147 
126 
118 
103 
97 
90 
71 
73 
111 
105 
74 
63 
61 
51 
60 
61 
58 
59 
59 
64 
132 
115 
119 
169 
142 
97 
99 
115 
148 
155 
124 
40 
40 
50 
70 
122 
211 
232 
214 
214 
214 
215 
213 
213 
209 
209 
210 
211 
211 
212 
212 
212 
207 
206 
207 
209 
211 
213 
212 
211 
204 
209 
202 
180 
173 
167 
165 
190 
182 
187 
190 
191 
156 
139 
164 
123 
158 
183 
164 
127 
123 
162 
149 
122 
121 
150 
151 
129 
132 
172 
195 
174 
172 
180 
173 
168 
161 
148 
140 
135 
135 
144 
148 
134 
128 
138 
130 
132 
126 
106 
78 
60 
52 
49 
78 
86 
93 
65 
68 
50 
55 
58 
52 
76 
70 
72 
147 
131 
142 
152 
72 
62 
95 
99 
120 
109 
32 
43 
40 
55 
76 
133 
221 
222 
214 
218 
214 
215 
213 
213 
210 
210 
210 
210 
210 
211 
211 
211 
208 
208 
208 
210 
211 
212 
211 
211 
207 
204 
206 
198 
210 
202 
168 
183 
183 
165 
151 
151 
161 
161 
162 
174 
171 
168 
167 
168 
155 
151 
128 
117 
144 
175 
176 
153 
148 
172 
193 
188 
184 
188 
176 
152 
128 
127 
154 
174 
169 
171 
177 
167 
146 
130 
102 
113 
131 
121 
75 
48 
66 
61 
69 
90 
76 
48 
62 
64 
50 
51 
61 
56 
74 
65 
89 
112 
110 
84 
83 
93 
143 
146 
81 
41 
39 
50 
47 
47 
96 
148 
211 
215 
216 
220 
213 
216 
215 
215 
211 
210 
210 
209 
209 
209 
210 
210 
210 
210 
210 
210 
210 
210 
209 
209 
216 
217 
209 
208 
203 
202 
204 
187 
178 
157 
151 
148 
171 
192 
173 
176 
170 
168 
171 
163 
147 
160 
167 
167 
182 
194 
182 
164 
158 
165 
178 
181 
178 
194 
198 
186 
166 
162 
175 
177 
182 
176 
187 
193 
174 
141 
98 
107 
109 
91 
73 
68 
82 
80 
72 
52 
60 
73 
51 
54 
72 
52 
60 
66 
76 
75 
73 
67 
76 
61 
79 
143 
159 
89 
50 
49 
58 
43 
52 
82 
133 
190 
221 
222 
213 
214 
213 
216 
215 
215 
210 
210 
209 
209 
209 
210 
210 
210 
210 
210 
210 
210 
209 
209 
209 
209 
206 
209 
214 
213 
211 
209 
205 
203 
198 
183 
164 
159 
173 
196 
193 
192 
192 
188 
195 
185 
162 
166 
180 
190 
195 
201 
193 
183 
173 
165 
170 
175 
201 
197 
182 
172 
172 
182 
191 
181 
178 
181 
199 
206 
189 
164 
143 
156 
136 
84 
66 
68 
69 
70 
91 
95 
75 
54 
57 
51 
50 
57 
62 
55 
55 
65 
63 
62 
68 
75 
112 
125 
86 
74 
80 
33 
35 
61 
41 
111 
171 
221 
226 
220 
210 
216 
217 
213 
215 
215 
210 
210 
210 
210 
210 
210 
210 
210 
210 
210 
210 
210 
210 
210 
210 
211 
216 
210 
218 
210 
218 
217 
194 
216 
227 
213 
192 
190 
186 
190 
189 
194 
199 
194 
197 
181 
161 
169 
188 
198 
200 
196 
201 
215 
202 
174 
175 
192 
209 
197 
174 
167 
177 
192 
203 
200 
195 
188 
193 
195 
190 
178 
177 
179 
145 
104 
96 
100 
94 
80 
101 
127 
83 
62 
72 
48 
50 
75 
61 
48 
60 
62 
63 
45 
65 
81 
82 
89 
44 
51 
58 
47 
64 
58 
87 
139 
201 
224 
219 
209 
213 
219 
217 
213 
214 
214 
211 
211 
211 
211 
211 
210 
210 
209 
210 
210 
211 
210 
210 
210 
211 
211 
211 
211 
211 
210 
205 
210 
218 
210 
207 
211 
209 
208 
211 
215 
197 
209 
202 
202 
207 
190 
175 
183 
191 
189 
191 
201 
204 
206 
201 
197 
197 
186 
175 
185 
189 
199 
204 
201 
203 
204 
198 
188 
191 
194 
193 
182 
192 
192 
164 
141 
142 
131 
117 
114 
128 
130 
134 
99 
50 
53 
60 
44 
58 
58 
65 
63 
57 
61 
61 
48 
63 
57 
90 
87 
52 
77 
102 
141 
165 
200 
224 
221 
221 
209 
217 
213 
209 
217 
215 
215 
210 
210 
210 
210 
210 
210 
210 
210 
210 
210 
210 
210 
211 
211 
212 
212 
211 
210 
209 
209 
209 
210 
212 
213 
205 
210 
214 
214 
211 
210 
214 
218 
216 
216 
222 
204 
198 
204 
186 
176 
175 
189 
208 
199 
200 
208 
190 
184 
178 
174 
181 
195 
202 
201 
195 
188 
192 
190 
190 
190 
194 
202 
204 
197 
173 
177 
164 
142 
124 
126 
149 
164 
140 
97 
72 
61 
85 
103 
81 
76 
76 
75 
61 
68 
83 
84 
87 
82 
147 
130 
96 
127 
167 
222 
216 
214 
217 
214 
213 
217 
220 
219 
216 
215 
215 
215 
210 
210 
210 
210 
210 
210 
210 
210 
210 
210 
210 
210 
211 
211 
212 
212 
210 
210 
209 
209 
210 
212 
213 
214 
219 
218 
216 
211 
207 
206 
209 
211 
206 
206 
213 
200 
199 
207 
194 
189 
190 
189 
203 
203 
203 
199 
183 
190 
197 
187 
181 
181 
180 
181 
187 
189 
183 
184 
190 
194 
197 
200 
196 
185 
191 
192 
180 
169 
161 
160 
168 
167 
130 
89 
99 
116 
121 
181 
116 
94 
104 
103 
110 
114 
148 
169 
94 
153 
184 
152 
157 
201 
234 
216 
209 
222 
217 
215 
214 
216 
216 
215 
215 
216 
215 
215 
210 
210 
210 
210 
210 
210 
210 
210 
210 
210 
210 
210 
211 
211 
212 
212 
210 
210 
210 
211 
211 
212 
213 
214 
215 
212 
209 
208 
210 
213 
216 
217 
213 
212 
218 
211 
213 
222 
215 
215 
206 
199 
206 
209 
208 
200 
189 
202 
209 
200 
195 
190 
184 
185 
194 
200 
197 
197 
200 
202 
203 
206 
204 
196 
205 
205 
196 
193 
190 
184 
179 
167 
140 
145 
116 
99 
121 
143 
115 
109 
138 
164 
170 
148 
169 
210 
133 
173 
161 
183 
218 
210 
218 
209 
220 
210 
216 
216 
216 
215 
212 
210 
213 
217 
215 
215 
210 
210 
210 
210 
210 
210 
210 
210 
210 
210 
210 
210 
210 
211 
211 
212 
211 
211 
211 
211 
211 
211 
211 
211 
213 
211 
210 
211 
212 
214 
213 
212 
211 
207 
211 
208 
210 
215 
211 
213 
212 
211 
214 
210 
211 
211 
205 
211 
210 
207 
209 
209 
203 
202 
208 
212 
209 
206 
205 
204 
203 
207 
210 
205 
206 
211 
207 
203 
194 
184 
180 
173 
184 
176 
170 
153 
133 
125 
179 
145 
162 
168 
125 
177 
218 
190 
195 
200 
210 
209 
221 
223 
217 
210 
218 
220 
215 
216 
216 
214 
211 
210 
213 
216 
214 
214 
210 
210 
210 
210 
210 
210 
210 
210 
210 
210 
210 
210 
210 
211 
211 
211 
210 
211 
211 
211 
211 
211 
210 
210 
211 
212 
212 
212 
212 
211 
210 
209 
215 
212 
214 
213 
213 
214 
211 
213 
210 
213 
214 
208 
211 
215 
212 
214 
213 
210 
211 
210 
206 
206 
211 
213 
209 
207 
209 
209 
207 
209 
209 
204 
205 
213 
213 
208 
197 
188 
190 
189 
192 
194 
192 
177 
163 
153 
140 
152 
178 
177 
176 
185 
220 
217 
208 
210 
220 
220 
217 
215 
206 
215 
216 
210 
215 
215 
215 
214 
213 
214 
214 
214 
214 
214 
210 
210 
210 
210 
210 
210 
210 
210 
210 
210 
210 
210 
210 
210 
211 
211 
209 
210 
210 
211 
211 
211 
211 
211 
207 
208 
209 
210 
210 
211 
214 
216 
211 
210 
211 
211 
211 
210 
209 
210 
211 
211 
210 
211 
213 
212 
211 
214 
216 
212 
212 
212 
209 
210 
213 
212 
215 
213 
215 
216 
213 
213 
214 
211 
207 
213 
213 
213 
208 
203 
207 
207 
203 
206 
201 
193 
201 
201 
161 
202 
190 
195 
216 
222 
208 
213 
224 
222 
212 
210 
215 
218 
215 
210 
216 
222 
214 
215 
214 
214 
215 
216 
215 
213 
214 
214 
210 
210 
210 
210 
210 
210 
210 
210 
210 
210 
210 
210 
210 
210 
211 
211 
210 
210 
210 
211 
211 
211 
211 
211 
213 
212 
211 
210 
209 
209 
211 
212 
210 
212 
212 
212 
212 
212 
213 
212 
212 
213 
210 
213 
215 
212 
211 
213 
214 
212 
215 
216 
214 
215 
215 
212 
217 
214 
214 
213 
210 
211 
214 
214 
210 
213 
210 
214 
214 
212 
216 
215 
213 
217 
211 
212 
217 
211 
203 
224 
220 
201 
222 
222 
201 
219 
217 
211 
218 
214 
212 
212 
220 
219 
216 
214 
214 
215 
214 
213 
214 
216 
215 
213 
214 
214 
210 
210 
210 
210 
210 
210 
210 
210 
210 
210 
210 
210 
210 
210 
210 
211 
213 
212 
212 
211 
211 
211 
211 
211 
211 
210 
210 
211 
212 
213 
212 
212 
210 
214 
212 
212 
212 
212 
214 
212 
210 
217 
213 
211 
214 
214 
214 
210 
211 
210 
211 
212 
209 
211 
212 
210 
215 
213 
216 
217 
213 
212 
214 
213 
212 
213 
210 
213 
214 
212 
217 
217 
215 
215 
209 
216 
202 
213 
215 
221 
211 
212 
211 
206 
218 
217 
209 
215 
209 
217 
213 
217 
215 
218 
212 
219 
214 
215 
215 
213 
213 
214 
215 
213 
214 
214 
209 
210 
210 
210 
210 
210 
210 
209 
210 
210 
210 
210 
210 
210 
211 
211 
211 
211 
211 
211 
210 
211 
211 
211 
211 
211 
211 
211 
211 
212 
212 
212 
212 
212 
212 
212 
212 
212 
213 
213 
212 
212 
212 
212 
212 
212 
212 
212 
210 
210 
210 
211 
211 
212 
212 
213 
213 
213 
213 
214 
215 
215 
214 
213 
211 
210 
210 
212 
214 
214 
212 
209 
212 
213 
214 
214 
214 
213 
211 
211 
217 
213 
212 
215 
216 
212 
211 
213 
215 
215 
213 
212 
211 
213 
215 
217 
215 
215 
214 
214 
214 
214 
214 
214 
214 
214 
210 
210 
210 
210 
210 
210 
210 
210 
210 
210 
210 
210 
210 
210 
210 
211 
211 
211 
211 
210 
210 
211 
211 
211 
211 
211 
211 
211 
211 
211 
212 
212 
212 
212 
212 
212 
212 
212 
213 
213 
214 
214 
214 
214 
214 
214 
214 
214 
211 
211 
211 
211 
211 
212 
213 
213 
213 
213 
213 
214 
215 
215 
214 
213 
213 
212 
211 
212 
214 
214 
213 
211 
213 
213 
213 
214 
214 
214 
214 
214 
211 
213 
214 
213 
212 
212 
212 
212 
214 
214 
213 
212 
212 
213 
216 
217 
215 
215 
214 
214 
214 
214 
214 
214 
214 
214 
210 
210 
210 
210 
210 
210 
210 
210 
210 
210 
210 
210 
210 
210 
210 
210 
211 
211 
211 
210 
210 
211 
211 
211 
211 
211 
211 
211 
211 
211 
211 
212 
212 
212 
212 
212 
212 
212 
212 
213 
214 
214 
214 
214 
214 
214 
214 
214 
211 
211 
211 
211 
212 
212 
213 
213 
213 
213 
213 
214 
215 
215 
214 
213 
214 
213 
212 
213 
214 
215 
214 
213 
213 
213 
212 
212 
213 
214 
216 
217 
207 
213 
215 
211 
209 
212 
214 
213 
213 
213 
213 
213 
213 
214 
216 
217 
215 
215 
214 
214 
214 
214 
214 
214 
214 
214 
210 
210 
210 
210 
210 
210 
210 
210 
210 
210 
210 
210 
210 
210 
210 
210 
211 
210 
210 
210 
210 
211 
211 
211 
211 
211 
211 
211 
211 
211 
211 
211 
212 
212 
211 
211 
211 
212 
212 
212 
212 
212 
212 
212 
212 
212 
212 
212 
212 
212 
212 
212 
212 
213 
213 
214 
213 
213 
213 
214 
215 
215 
214 
213 
214 
214 
213 
214 
214 
214 
214 
213 
212 
212 
211 
211 
212 
214 
215 
216 
210 
214 
215 
213 
212 
213 
215 
215 
213 
213 
214 
214 
214 
214 
215 
217 
215 
215 
214 
214 
214 
214 
214 
214 
214 
214 
210 
210 
210 
211 
211 
210 
210 
210 
210 
210 
210 
210 
210 
210 
210 
210 
210 
210 
210 
210 
210 
211 
211 
211 
211 
211 
211 
211 
211 
211 
211 
211 
211 
211 
211 
211 
211 
212 
212 
212 
211 
211 
211 
211 
211 
211 
211 
211 
212 
212 
212 
212 
212 
213 
213 
213 
213 
213 
213 
214 
215 
215 
214 
213 
213 
213 
214 
215 
215 
214 
213 
211 
212 
212 
212 
213 
213 
214 
214 
215 
215 
213 
212 
214 
215 
213 
213 
215 
213 
214 
214 
214 
214 
214 
215 
216 
215 
215 
214 
214 
214 
214 
214 
214 
214 
214 
210 
210 
210 
211 
211 
210 
210 
210 
210 
210 
210 
210 
210 
210 
210 
210 
210 
210 
210 
210 
210 
211 
211 
211 
212 
211 
211 
211 
211 
211 
211 
211 
211 
211 
211 
211 
211 
211 
212 
212 
212 
212 
212 
212 
212 
212 
212 
212 
212 
212 
212 
212 
212 
213 
213 
213 
213 
213 
213 
214 
215 
215 
214 
213 
213 
213 
214 
215 
215 
213 
212 
211 
213 
213 
214 
215 
215 
215 
215 
214 
217 
212 
211 
214 
215 
212 
212 
215 
214 
214 
215 
214 
214 
214 
215 
216 
215 
215 
214 
214 
214 
214 
214 
214 
214 
214 
