P2
# Created by MsrVolt
103 53
255
215 
215 
215 
215 
215 
215 
215 
215 
215 
215 
215 
215 
215 
216 
216 
216 
216 
216 
216 
216 
216 
216 
216 
216 
216 
216 
216 
216 
216 
216 
217 
217 
217 
217 
217 
217 
217 
217 
218 
218 
217 
217 
217 
217 
217 
217 
217 
216 
217 
217 
217 
217 
217 
217 
217 
217 
217 
217 
217 
217 
217 
217 
216 
216 
217 
217 
217 
217 
217 
217 
217 
217 
217 
217 
217 
217 
217 
217 
217 
217 
217 
217 
217 
217 
217 
217 
217 
217 
218 
218 
218 
218 
218 
218 
218 
218 
218 
218 
218 
218 
218 
218 
218 
215 
215 
215 
215 
215 
215 
215 
215 
215 
215 
215 
215 
215 
216 
216 
216 
216 
216 
216 
216 
216 
216 
216 
216 
216 
216 
216 
216 
216 
216 
217 
217 
217 
217 
217 
217 
217 
217 
217 
218 
217 
218 
218 
218 
218 
217 
217 
217 
217 
217 
217 
217 
217 
217 
217 
217 
217 
217 
217 
217 
217 
217 
217 
217 
217 
217 
217 
217 
217 
217 
217 
217 
217 
217 
217 
217 
217 
217 
217 
217 
217 
217 
217 
217 
217 
217 
217 
217 
218 
218 
218 
218 
218 
218 
218 
218 
218 
218 
218 
218 
218 
218 
218 
215 
215 
215 
215 
215 
215 
215 
215 
215 
215 
215 
215 
215 
216 
216 
216 
216 
216 
216 
216 
216 
216 
216 
216 
216 
216 
216 
216 
216 
216 
217 
217 
217 
217 
217 
217 
217 
217 
217 
217 
218 
218 
218 
218 
218 
218 
217 
217 
217 
217 
217 
217 
217 
217 
217 
217 
217 
217 
217 
217 
217 
217 
217 
217 
217 
217 
217 
217 
217 
217 
217 
217 
217 
217 
217 
217 
217 
217 
217 
217 
217 
217 
217 
217 
217 
217 
217 
217 
218 
218 
218 
218 
218 
218 
218 
218 
218 
218 
218 
218 
218 
218 
218 
215 
215 
215 
215 
215 
215 
215 
215 
215 
215 
215 
215 
215 
216 
216 
216 
216 
216 
216 
216 
216 
216 
216 
216 
216 
216 
216 
216 
216 
216 
217 
217 
217 
217 
217 
217 
217 
217 
217 
217 
218 
218 
218 
218 
218 
218 
217 
217 
217 
217 
217 
217 
217 
217 
217 
217 
217 
217 
217 
217 
217 
217 
218 
218 
217 
217 
217 
217 
217 
217 
217 
217 
217 
217 
217 
217 
217 
217 
217 
217 
217 
217 
217 
217 
217 
217 
217 
217 
218 
218 
218 
218 
218 
218 
218 
218 
218 
218 
218 
218 
218 
218 
218 
215 
215 
215 
215 
215 
215 
215 
215 
215 
215 
215 
215 
215 
216 
216 
216 
216 
216 
216 
216 
216 
216 
216 
216 
216 
216 
216 
216 
216 
216 
217 
217 
217 
217 
217 
217 
217 
217 
217 
217 
218 
218 
218 
218 
218 
218 
217 
217 
217 
217 
217 
217 
217 
218 
218 
218 
217 
217 
217 
217 
217 
217 
217 
218 
217 
217 
217 
217 
217 
217 
217 
217 
217 
217 
217 
217 
217 
217 
217 
217 
217 
217 
217 
217 
217 
217 
217 
217 
218 
218 
218 
218 
218 
218 
218 
218 
218 
218 
218 
218 
218 
218 
218 
215 
215 
215 
215 
215 
215 
215 
215 
215 
215 
215 
215 
215 
216 
216 
216 
216 
216 
216 
216 
216 
216 
216 
216 
216 
216 
216 
216 
216 
216 
217 
217 
217 
217 
217 
217 
217 
217 
216 
216 
217 
217 
218 
218 
218 
217 
217 
217 
217 
217 
217 
217 
218 
218 
218 
218 
218 
218 
218 
218 
217 
217 
217 
217 
217 
217 
217 
217 
217 
217 
217 
217 
217 
217 
217 
217 
217 
217 
217 
217 
217 
217 
217 
217 
217 
217 
217 
217 
218 
218 
218 
218 
218 
218 
218 
218 
218 
218 
218 
218 
218 
218 
218 
215 
215 
215 
215 
215 
215 
215 
215 
215 
215 
215 
215 
215 
216 
216 
216 
216 
216 
216 
216 
216 
216 
216 
216 
216 
216 
216 
216 
216 
216 
217 
217 
217 
217 
217 
217 
217 
216 
216 
216 
217 
217 
217 
217 
217 
217 
216 
216 
217 
217 
217 
217 
218 
218 
218 
218 
219 
218 
218 
218 
217 
217 
217 
216 
217 
217 
217 
217 
217 
217 
217 
217 
217 
217 
217 
217 
217 
217 
217 
217 
217 
217 
217 
217 
217 
217 
217 
217 
218 
218 
218 
218 
218 
218 
218 
218 
218 
218 
218 
218 
218 
218 
218 
215 
215 
215 
215 
215 
215 
215 
215 
215 
215 
215 
215 
215 
216 
216 
216 
216 
216 
216 
216 
216 
216 
216 
216 
216 
216 
216 
216 
216 
216 
217 
217 
217 
217 
217 
217 
216 
216 
216 
216 
216 
217 
217 
217 
217 
216 
216 
216 
217 
217 
217 
217 
218 
218 
218 
218 
219 
219 
218 
218 
217 
217 
216 
216 
217 
217 
217 
217 
217 
217 
217 
217 
217 
217 
217 
217 
217 
217 
217 
217 
217 
217 
217 
217 
217 
217 
217 
217 
218 
218 
218 
218 
218 
218 
218 
218 
218 
218 
218 
218 
218 
218 
218 
217 
217 
216 
214 
213 
214 
215 
214 
215 
215 
216 
216 
216 
216 
216 
216 
216 
216 
217 
217 
217 
217 
217 
217 
217 
216 
216 
216 
217 
218 
218 
217 
217 
217 
217 
217 
217 
217 
217 
217 
215 
216 
215 
215 
217 
215 
214 
218 
218 
216 
215 
217 
219 
218 
218 
218 
219 
219 
218 
218 
216 
216 
217 
219 
219 
215 
216 
217 
214 
216 
219 
217 
217 
218 
218 
217 
217 
217 
218 
219 
217 
217 
217 
217 
217 
217 
217 
217 
217 
217 
217 
217 
217 
217 
217 
217 
217 
217 
218 
219 
219 
218 
218 
216 
217 
215 
212 
212 
213 
214 
213 
215 
215 
216 
216 
216 
216 
216 
216 
216 
216 
217 
217 
217 
217 
217 
217 
217 
217 
217 
216 
217 
217 
217 
217 
217 
217 
217 
217 
217 
217 
217 
217 
215 
217 
215 
214 
216 
216 
215 
216 
219 
216 
216 
220 
220 
217 
217 
220 
219 
218 
217 
216 
216 
215 
214 
214 
212 
212 
216 
219 
218 
218 
218 
215 
218 
218 
218 
217 
216 
216 
216 
216 
218 
217 
217 
217 
217 
217 
217 
217 
217 
217 
217 
217 
217 
217 
217 
217 
217 
218 
218 
219 
219 
219 
218 
216 
216 
214 
212 
211 
213 
214 
213 
215 
215 
216 
216 
216 
216 
216 
216 
216 
216 
217 
217 
218 
218 
218 
218 
217 
218 
218 
217 
216 
216 
217 
218 
217 
217 
217 
217 
217 
217 
217 
217 
216 
218 
216 
214 
216 
217 
215 
215 
218 
216 
217 
220 
219 
215 
215 
220 
218 
217 
216 
216 
216 
215 
213 
211 
217 
218 
219 
220 
219 
218 
217 
215 
219 
219 
219 
219 
218 
217 
217 
217 
218 
218 
217 
217 
217 
217 
217 
217 
217 
217 
217 
217 
217 
217 
217 
217 
217 
218 
218 
219 
219 
219 
218 
216 
216 
214 
212 
211 
213 
214 
214 
215 
215 
216 
216 
216 
216 
216 
216 
216 
216 
217 
217 
218 
218 
218 
218 
218 
218 
218 
217 
216 
216 
217 
218 
217 
217 
217 
217 
217 
217 
217 
217 
216 
218 
217 
218 
219 
215 
213 
218 
215 
217 
219 
218 
216 
215 
216 
217 
216 
217 
216 
216 
216 
217 
216 
215 
223 
222 
218 
215 
216 
217 
219 
222 
217 
218 
219 
219 
219 
218 
218 
218 
217 
217 
217 
217 
217 
217 
217 
217 
217 
217 
217 
217 
217 
217 
217 
217 
217 
218 
218 
219 
219 
219 
218 
216 
217 
215 
213 
212 
214 
215 
214 
215 
215 
216 
216 
216 
216 
216 
216 
216 
216 
217 
217 
218 
218 
218 
218 
218 
218 
218 
217 
217 
216 
217 
217 
217 
217 
217 
217 
217 
217 
217 
217 
217 
216 
218 
222 
221 
213 
212 
221 
212 
219 
221 
216 
214 
218 
219 
215 
215 
217 
217 
215 
215 
217 
218 
218 
216 
217 
214 
212 
217 
218 
220 
225 
215 
216 
217 
217 
216 
216 
216 
216 
216 
216 
216 
217 
217 
217 
217 
217 
217 
217 
217 
217 
217 
217 
217 
217 
217 
218 
219 
219 
219 
219 
218 
216 
217 
216 
214 
214 
215 
216 
215 
215 
215 
216 
216 
216 
216 
216 
216 
216 
216 
217 
218 
218 
218 
218 
218 
219 
218 
217 
217 
217 
218 
217 
217 
217 
217 
217 
217 
217 
217 
217 
217 
217 
216 
217 
221 
221 
213 
213 
223 
210 
217 
219 
214 
213 
218 
218 
213 
216 
217 
216 
213 
213 
216 
216 
215 
211 
218 
217 
217 
224 
221 
216 
220 
217 
218 
218 
217 
216 
215 
215 
215 
216 
216 
216 
217 
217 
217 
217 
217 
217 
217 
217 
217 
217 
217 
217 
217 
218 
218 
219 
219 
219 
219 
219 
216 
217 
216 
215 
215 
216 
216 
214 
215 
215 
216 
216 
216 
216 
216 
216 
216 
216 
217 
218 
218 
218 
219 
219 
219 
217 
215 
216 
218 
219 
218 
217 
217 
217 
217 
217 
217 
217 
217 
217 
217 
218 
216 
215 
217 
216 
216 
220 
213 
215 
216 
217 
217 
218 
217 
216 
217 
217 
214 
211 
214 
218 
215 
210 
215 
223 
221 
221 
227 
222 
214 
217 
219 
219 
219 
218 
217 
216 
216 
217 
218 
217 
217 
217 
216 
216 
216 
216 
217 
217 
217 
217 
217 
217 
217 
217 
218 
218 
219 
219 
219 
219 
219 
215 
216 
216 
215 
215 
216 
215 
214 
215 
215 
216 
216 
216 
216 
216 
216 
216 
216 
217 
218 
218 
219 
219 
219 
219 
217 
214 
216 
219 
220 
219 
216 
217 
217 
217 
217 
217 
217 
217 
217 
217 
220 
214 
209 
213 
220 
220 
218 
219 
216 
217 
223 
224 
220 
219 
222 
219 
216 
212 
211 
217 
221 
216 
207 
217 
224 
219 
216 
223 
220 
215 
222 
218 
218 
217 
217 
216 
216 
217 
217 
219 
218 
218 
217 
216 
215 
215 
214 
217 
217 
217 
217 
217 
217 
217 
217 
218 
218 
219 
219 
219 
219 
219 
217 
217 
217 
216 
216 
216 
216 
215 
216 
215 
216 
218 
217 
214 
214 
216 
214 
220 
216 
223 
217 
212 
224 
212 
218 
222 
218 
220 
214 
208 
215 
213 
215 
224 
207 
222 
220 
216 
218 
215 
219 
215 
215 
224 
224 
227 
223 
207 
221 
221 
219 
216 
221 
219 
210 
217 
216 
217 
220 
219 
220 
217 
220 
222 
215 
214 
210 
177 
182 
199 
206 
204 
213 
214 
223 
223 
222 
215 
220 
214 
215 
215 
216 
218 
217 
219 
215 
215 
216 
217 
216 
214 
214 
217 
218 
217 
218 
218 
218 
218 
218 
218 
218 
217 
217 
217 
216 
216 
216 
216 
215 
214 
217 
217 
214 
216 
219 
218 
214 
215 
214 
213 
215 
216 
219 
223 
219 
218 
214 
210 
221 
229 
216 
208 
218 
216 
212 
221 
206 
222 
219 
221 
217 
219 
222 
218 
221 
206 
211 
203 
190 
218 
225 
214 
218 
215 
224 
227 
223 
223 
223 
225 
226 
202 
226 
220 
208 
157 
147 
96 
81 
91 
137 
136 
135 
149 
162 
185 
195 
219 
225 
216 
220 
213 
208 
220 
218 
215 
215 
220 
214 
215 
217 
217 
216 
215 
217 
217 
216 
217 
218 
218 
218 
218 
218 
218 
217 
217 
217 
216 
216 
216 
216 
215 
216 
217 
216 
214 
216 
219 
218 
215 
218 
217 
218 
213 
214 
218 
212 
215 
217 
219 
218 
212 
216 
223 
219 
215 
227 
225 
236 
206 
218 
214 
221 
210 
203 
212 
198 
192 
153 
155 
148 
161 
190 
196 
194 
193 
198 
216 
189 
196 
196 
192 
179 
190 
184 
204 
161 
135 
90 
85 
55 
62 
98 
136 
89 
151 
101 
108 
127 
170 
211 
214 
226 
218 
218 
213 
222 
223 
219 
218 
214 
213 
214 
217 
219 
218 
217 
217 
217 
216 
217 
217 
218 
218 
219 
219 
219 
217 
217 
217 
216 
216 
216 
216 
215 
218 
216 
216 
217 
217 
215 
215 
216 
209 
217 
218 
215 
218 
217 
215 
221 
221 
212 
212 
221 
217 
218 
229 
226 
214 
191 
142 
122 
130 
140 
150 
124 
125 
140 
91 
117 
91 
117 
77 
117 
131 
169 
114 
94 
141 
181 
162 
105 
109 
125 
125 
128 
119 
133 
113 
80 
62 
58 
60 
65 
102 
114 
77 
161 
97 
73 
130 
165 
189 
196 
214 
216 
212 
212 
218 
224 
216 
219 
210 
222 
215 
217 
219 
219 
217 
217 
217 
217 
216 
217 
217 
218 
219 
219 
219 
217 
217 
217 
216 
216 
216 
216 
215 
213 
218 
219 
216 
213 
214 
215 
215 
215 
225 
213 
214 
217 
211 
216 
215 
213 
221 
217 
235 
240 
215 
188 
159 
146 
120 
68 
62 
67 
85 
95 
75 
78 
60 
90 
97 
73 
77 
97 
90 
86 
130 
117 
95 
137 
162 
130 
62 
60 
85 
96 
94 
63 
111 
137 
78 
56 
57 
59 
63 
68 
79 
96 
104 
52 
65 
118 
149 
160 
144 
196 
198 
202 
209 
224 
213 
219 
224 
215 
215 
217 
217 
218 
218 
217 
216 
217 
218 
216 
216 
217 
218 
219 
219 
219 
217 
217 
217 
216 
216 
216 
216 
215 
206 
220 
224 
213 
209 
217 
219 
213 
212 
218 
202 
211 
219 
217 
225 
215 
224 
227 
172 
146 
164 
145 
103 
78 
79 
68 
74 
66 
66 
73 
81 
79 
78 
81 
87 
91 
74 
90 
77 
77 
83 
93 
152 
132 
129 
121 
77 
65 
71 
85 
76 
91 
75 
122 
125 
68 
58 
65 
72 
76 
69 
87 
95 
69 
53 
76 
117 
111 
131 
135 
148 
167 
128 
79 
134 
175 
212 
212 
227 
219 
219 
217 
217 
217 
217 
216 
217 
218 
216 
217 
217 
218 
219 
219 
219 
217 
217 
217 
216 
216 
216 
216 
215 
209 
218 
221 
216 
213 
215 
216 
214 
211 
216 
217 
226 
228 
221 
216 
200 
126 
112 
83 
72 
97 
95 
68 
78 
83 
72 
84 
73 
74 
76 
86 
80 
78 
83 
95 
83 
67 
70 
71 
91 
117 
127 
117 
95 
101 
95 
89 
75 
76 
82 
72 
84 
84 
94 
67 
58 
67 
65 
72 
67 
68 
77 
62 
62 
101 
120 
100 
104 
126 
129 
115 
111 
44 
64 
84 
76 
165 
211 
213 
216 
220 
216 
215 
217 
218 
217 
216 
217 
217 
217 
217 
218 
219 
219 
219 
217 
217 
217 
216 
216 
216 
216 
215 
218 
213 
215 
223 
220 
210 
209 
218 
212 
212 
220 
207 
173 
139 
101 
75 
62 
61 
90 
79 
75 
88 
63 
60 
77 
85 
87 
89 
81 
77 
100 
87 
76 
60 
72 
66 
63 
55 
61 
88 
112 
131 
87 
78 
117 
108 
84 
80 
84 
69 
76 
66 
72 
75 
59 
68 
70 
60 
59 
62 
69 
61 
69 
55 
99 
92 
67 
92 
104 
118 
77 
67 
58 
55 
74 
61 
80 
166 
213 
220 
220 
216 
214 
217 
219 
218 
216 
215 
217 
217 
218 
218 
218 
219 
219 
218 
214 
215 
220 
216 
209 
212 
222 
218 
199 
221 
220 
208 
218 
216 
228 
222 
217 
216 
145 
79 
73 
65 
77 
74 
82 
87 
81 
72 
75 
79 
75 
82 
85 
82 
89 
93 
85 
81 
80 
73 
55 
63 
60 
59 
61 
60 
92 
94 
81 
77 
95 
131 
99 
64 
73 
86 
81 
75 
70 
68 
66 
65 
65 
63 
77 
66 
66 
77 
90 
100 
80 
84 
59 
66 
79 
93 
72 
57 
66 
54 
73 
62 
56 
95 
151 
198 
221 
219 
218 
208 
220 
214 
213 
218 
215 
217 
217 
218 
219 
219 
219 
219 
216 
218 
215 
210 
214 
222 
221 
212 
211 
220 
210 
219 
217 
220 
218 
210 
209 
223 
152 
71 
70 
74 
67 
65 
70 
66 
67 
71 
74 
76 
69 
57 
79 
79 
70 
77 
88 
81 
71 
67 
63 
60 
62 
63 
61 
62 
71 
84 
69 
58 
77 
97 
97 
60 
50 
74 
71 
72 
73 
74 
70 
66 
66 
69 
60 
75 
70 
68 
66 
71 
93 
93 
79 
66 
71 
69 
73 
60 
58 
72 
80 
57 
63 
87 
88 
101 
190 
201 
214 
230 
221 
220 
214 
218 
224 
220 
217 
218 
218 
219 
219 
219 
219 
212 
216 
218 
216 
215 
215 
211 
205 
209 
222 
220 
199 
229 
220 
166 
110 
113 
128 
94 
66 
75 
59 
67 
70 
64 
52 
51 
64 
78 
82 
70 
54 
71 
70 
57 
61 
74 
67 
58 
55 
54 
64 
59 
64 
58 
56 
73 
62 
51 
67 
83 
73 
67 
63 
62 
64 
66 
68 
73 
73 
66 
59 
60 
67 
71 
74 
65 
68 
67 
61 
66 
59 
70 
67 
69 
63 
68 
65 
61 
65 
64 
60 
55 
58 
61 
88 
182 
200 
197 
225 
219 
217 
214 
217 
218 
216 
218 
218 
219 
219 
219 
219 
218 
216 
215 
215 
215 
213 
214 
219 
226 
230 
212 
204 
234 
231 
180 
85 
74 
83 
72 
95 
85 
82 
80 
83 
67 
56 
49 
49 
61 
74 
81 
73 
58 
64 
66 
51 
52 
62 
56 
51 
55 
53 
61 
58 
63 
58 
58 
70 
51 
68 
69 
63 
60 
74 
68 
57 
76 
74 
71 
70 
69 
63 
56 
60 
69 
79 
75 
62 
59 
56 
53 
60 
61 
66 
66 
63 
60 
68 
68 
59 
53 
61 
62 
52 
68 
89 
100 
114 
144 
196 
224 
216 
219 
222 
218 
215 
220 
219 
219 
219 
219 
219 
218 
218 
214 
216 
215 
213 
215 
221 
219 
212 
203 
227 
215 
177 
154 
106 
89 
77 
98 
70 
87 
70 
73 
71 
58 
53 
50 
49 
53 
58 
66 
74 
67 
51 
58 
60 
51 
54 
62 
57 
55 
59 
57 
54 
58 
64 
64 
69 
73 
59 
69 
59 
51 
56 
66 
54 
49 
79 
74 
67 
63 
64 
65 
65 
70 
76 
80 
75 
63 
58 
58 
62 
67 
66 
67 
66 
56 
55 
59 
59 
55 
52 
57 
56 
57 
85 
83 
74 
82 
112 
186 
221 
217 
219 
222 
217 
215 
224 
220 
220 
219 
219 
219 
218 
218 
213 
214 
216 
218 
218 
215 
211 
207 
210 
232 
194 
106 
63 
65 
67 
84 
89 
68 
67 
61 
65 
53 
51 
54 
50 
53 
59 
62 
68 
73 
65 
48 
52 
51 
51 
58 
65 
61 
59 
55 
58 
50 
56 
61 
64 
71 
68 
66 
59 
58 
60 
53 
48 
56 
59 
57 
64 
59 
56 
59 
66 
70 
72 
73 
68 
65 
59 
58 
63 
69 
66 
59 
64 
60 
51 
54 
60 
62 
58 
57 
60 
84 
85 
92 
78 
69 
118 
130 
154 
206 
215 
218 
218 
216 
213 
217 
220 
220 
219 
219 
218 
218 
219 
219 
214 
212 
215 
216 
217 
222 
228 
220 
217 
198 
55 
63 
61 
56 
69 
72 
61 
49 
44 
45 
52 
60 
48 
59 
61 
67 
71 
71 
72 
65 
52 
50 
50 
52 
62 
61 
57 
59 
53 
56 
50 
55 
58 
61 
65 
62 
67 
67 
59 
58 
57 
49 
57 
55 
53 
55 
55 
56 
58 
62 
66 
65 
61 
50 
52 
55 
52 
51 
56 
63 
70 
55 
57 
51 
58 
62 
64 
63 
64 
87 
104 
108 
135 
128 
101 
119 
114 
157 
204 
214 
222 
222 
219 
216 
216 
220 
219 
219 
218 
218 
219 
219 
212 
217 
216 
212 
219 
226 
214 
194 
167 
202 
184 
41 
71 
58 
58 
53 
58 
50 
48 
49 
51 
45 
46 
70 
68 
69 
74 
75 
68 
63 
59 
55 
53 
53 
61 
68 
56 
53 
59 
56 
54 
56 
57 
60 
63 
63 
66 
72 
68 
67 
55 
51 
50 
54 
46 
56 
52 
57 
60 
59 
60 
63 
61 
57 
55 
51 
53 
57 
61 
60 
49 
47 
49 
61 
55 
60 
51 
51 
61 
73 
120 
128 
151 
185 
155 
151 
156 
159 
192 
214 
209 
218 
220 
215 
214 
221 
220 
219 
219 
218 
218 
219 
220 
216 
219 
215 
218 
223 
205 
179 
120 
133 
203 
171 
60 
63 
53 
52 
53 
48 
56 
51 
49 
52 
49 
52 
77 
73 
55 
64 
68 
57 
72 
63 
54 
51 
61 
63 
64 
52 
60 
64 
58 
60 
60 
62 
63 
67 
65 
62 
57 
62 
59 
57 
55 
51 
48 
49 
53 
48 
56 
62 
51 
51 
58 
54 
58 
57 
52 
63 
76 
76 
63 
53 
48 
50 
53 
51 
50 
55 
57 
64 
83 
133 
146 
176 
178 
167 
190 
187 
182 
206 
210 
215 
218 
218 
217 
216 
216 
219 
219 
219 
219 
219 
219 
219 
216 
208 
211 
212 
217 
109 
84 
84 
164 
226 
170 
81 
54 
47 
49 
43 
49 
46 
49 
49 
52 
51 
60 
74 
78 
63 
59 
62 
59 
73 
66 
57 
52 
71 
72 
62 
51 
67 
70 
59 
65 
65 
69 
70 
64 
62 
61 
56 
53 
55 
53 
53 
53 
57 
51 
46 
55 
48 
50 
51 
53 
52 
51 
57 
78 
64 
61 
77 
87 
74 
50 
48 
55 
57 
49 
56 
78 
115 
97 
101 
140 
150 
179 
179 
173 
203 
210 
204 
208 
212 
216 
218 
218 
217 
217 
217 
219 
219 
219 
219 
219 
219 
219 
218 
222 
219 
219 
220 
138 
49 
113 
213 
218 
155 
130 
89 
63 
40 
61 
47 
43 
66 
57 
46 
51 
68 
76 
54 
61 
56 
62 
61 
67 
69 
70 
67 
78 
73 
62 
51 
61 
68 
76 
68 
70 
76 
79 
70 
67 
65 
62 
58 
58 
52 
56 
54 
62 
58 
58 
63 
48 
49 
60 
64 
56 
54 
69 
61 
72 
77 
84 
87 
59 
54 
55 
70 
76 
96 
120 
143 
162 
132 
152 
177 
167 
195 
205 
200 
208 
217 
218 
211 
214 
217 
218 
217 
217 
217 
218 
219 
219 
219 
219 
219 
219 
219 
217 
210 
224 
220 
202 
130 
31 
92 
202 
220 
196 
190 
180 
204 
143 
133 
79 
44 
53 
54 
52 
44 
50 
60 
73 
85 
66 
68 
69 
65 
61 
57 
63 
67 
62 
61 
61 
69 
69 
82 
63 
70 
69 
73 
71 
67 
58 
61 
61 
57 
53 
63 
54 
55 
59 
76 
80 
68 
66 
71 
68 
62 
64 
71 
69 
78 
88 
46 
59 
71 
79 
96 
168 
149 
157 
168 
196 
186 
166 
188 
207 
185 
207 
218 
211 
204 
212 
212 
215 
216 
217 
218 
217 
217 
218 
219 
219 
219 
219 
219 
219 
219 
219 
229 
214 
207 
215 
187 
158 
120 
111 
187 
212 
210 
204 
177 
173 
150 
197 
195 
137 
81 
50 
77 
108 
103 
84 
103 
107 
75 
78 
84 
80 
71 
55 
55 
64 
63 
59 
64 
79 
66 
64 
66 
73 
61 
63 
67 
64 
52 
57 
55 
55 
57 
67 
61 
60 
66 
84 
90 
85 
77 
70 
68 
76 
79 
69 
70 
85 
76 
80 
82 
79 
138 
209 
206 
194 
184 
175 
199 
197 
192 
195 
215 
203 
216 
211 
207 
212 
224 
214 
217 
217 
217 
217 
217 
218 
218 
219 
219 
219 
219 
219 
219 
219 
219 
217 
214 
192 
189 
202 
218 
205 
186 
203 
221 
204 
205 
195 
169 
166 
187 
209 
196 
153 
133 
171 
211 
194 
151 
178 
172 
125 
91 
58 
49 
63 
68 
52 
56 
60 
56 
52 
63 
58 
70 
69 
70 
56 
61 
59 
60 
52 
57 
51 
52 
54 
55 
60 
67 
75 
78 
84 
80 
68 
61 
63 
76 
76 
51 
110 
87 
70 
95 
80 
157 
183 
139 
169 
183 
184 
187 
194 
204 
206 
209 
217 
212 
218 
217 
214 
218 
225 
218 
218 
218 
217 
217 
217 
218 
219 
219 
219 
219 
219 
219 
219 
219 
219 
210 
206 
218 
191 
225 
193 
192 
214 
228 
226 
202 
204 
207 
188 
199 
195 
203 
203 
186 
205 
210 
205 
196 
190 
194 
204 
194 
169 
114 
90 
93 
89 
72 
66 
80 
91 
88 
90 
77 
86 
68 
61 
61 
72 
51 
55 
53 
51 
52 
51 
55 
49 
62 
66 
74 
69 
71 
67 
68 
78 
80 
80 
77 
53 
114 
91 
85 
62 
112 
221 
138 
141 
201 
189 
192 
198 
208 
218 
215 
218 
215 
213 
213 
222 
219 
214 
212 
214 
218 
218 
217 
217 
218 
219 
219 
219 
219 
219 
219 
219 
219 
219 
219 
210 
216 
213 
208 
201 
190 
218 
225 
213 
192 
191 
200 
217 
218 
221 
201 
199 
212 
198 
220 
208 
207 
210 
205 
204 
208 
217 
221 
194 
186 
175 
150 
131 
124 
144 
166 
172 
167 
110 
70 
80 
67 
82 
98 
57 
60 
64 
50 
66 
63 
75 
73 
86 
74 
78 
73 
55 
58 
81 
121 
128 
120 
121 
110 
107 
130 
150 
130 
166 
221 
177 
227 
234 
203 
217 
206 
221 
224 
216 
211 
213 
222 
215 
217 
214 
220 
219 
219 
218 
218 
217 
217 
218 
219 
219 
219 
219 
219 
219 
219 
219 
219 
219 
216 
212 
218 
208 
218 
210 
217 
214 
202 
200 
205 
219 
216 
214 
227 
220 
225 
226 
216 
225 
215 
214 
217 
213 
215 
211 
209 
211 
216 
220 
218 
215 
203 
204 
208 
217 
223 
208 
171 
137 
152 
155 
151 
97 
68 
132 
129 
64 
52 
47 
82 
63 
98 
102 
56 
58 
85 
128 
155 
181 
168 
185 
174 
174 
172 
198 
227 
204 
200 
208 
213 
223 
208 
218 
221 
216 
226 
208 
217 
214 
215 
216 
216 
217 
217 
217 
217 
217 
218 
218 
218 
218 
218 
218 
218 
218 
219 
219 
219 
219 
219 
219 
219 
216 
213 
221 
213 
221 
211 
215 
210 
228 
218 
215 
219 
213 
213 
222 
218 
221 
220 
217 
221 
216 
215 
217 
215 
217 
216 
214 
215 
217 
218 
217 
216 
216 
221 
221 
214 
211 
217 
228 
234 
212 
209 
202 
153 
134 
195 
209 
169 
91 
100 
126 
107 
134 
148 
117 
110 
161 
206 
226 
228 
206 
220 
217 
215 
218 
213 
218 
216 
221 
226 
212 
216 
216 
217 
220 
212 
221 
210 
218 
216 
216 
216 
217 
217 
217 
217 
217 
217 
218 
218 
218 
218 
218 
218 
218 
218 
219 
219 
219 
219 
219 
219 
219 
216 
215 
222 
216 
222 
213 
215 
210 
218 
207 
212 
216 
214 
218 
218 
216 
219 
213 
219 
217 
217 
216 
217 
216 
217 
218 
218 
218 
217 
216 
217 
218 
216 
217 
216 
216 
217 
216 
209 
201 
227 
203 
218 
224 
216 
217 
220 
221 
179 
212 
233 
218 
207 
211 
214 
222 
223 
224 
214 
212 
210 
223 
220 
217 
219 
217 
220 
223 
214 
214 
204 
223 
222 
214 
221 
212 
218 
214 
219 
217 
217 
217 
217 
218 
218 
218 
218 
218 
218 
218 
218 
218 
218 
218 
218 
218 
218 
218 
219 
219 
219 
219 
219 
218 
215 
219 
214 
219 
214 
218 
216 
216 
208 
218 
220 
219 
221 
213 
212 
219 
210 
222 
215 
218 
216 
215 
216 
214 
216 
218 
218 
217 
216 
217 
218 
219 
218 
216 
215 
217 
220 
221 
218 
225 
210 
219 
214 
213 
212 
220 
224 
219 
222 
211 
222 
219 
217 
217 
210 
224 
219 
215 
217 
219 
217 
216 
217 
213 
217 
219 
216 
213 
218 
213 
223 
221 
211 
224 
216 
217 
218 
218 
216 
217 
217 
218 
218 
218 
218 
218 
218 
218 
218 
218 
218 
218 
218 
218 
218 
218 
218 
218 
218 
218 
219 
219 
217 
215 
217 
213 
216 
214 
218 
218 
221 
214 
221 
217 
215 
218 
213 
217 
219 
210 
222 
215 
218 
217 
215 
216 
214 
215 
216 
217 
217 
218 
217 
217 
213 
218 
222 
220 
216 
214 
215 
217 
214 
222 
230 
214 
216 
221 
220 
207 
222 
222 
208 
227 
217 
208 
217 
216 
210 
220 
226 
219 
215 
214 
217 
215 
218 
219 
219 
211 
220 
223 
220 
216 
218 
211 
224 
219 
217 
219 
218 
218 
218 
218 
218 
219 
219 
219 
218 
218 
218 
218 
218 
218 
218 
218 
218 
218 
218 
218 
218 
218 
218 
219 
219 
216 
216 
217 
215 
216 
215 
216 
215 
214 
213 
215 
213 
213 
215 
215 
219 
218 
212 
218 
217 
217 
216 
217 
217 
217 
217 
216 
217 
218 
218 
217 
216 
218 
216 
213 
213 
216 
219 
221 
222 
223 
217 
217 
218 
221 
215 
215 
219 
223 
223 
209 
223 
220 
221 
224 
216 
221 
219 
217 
215 
217 
219 
220 
218 
216 
217 
221 
214 
220 
212 
215 
217 
217 
215 
220 
218 
216 
217 
219 
220 
218 
218 
218 
219 
219 
218 
218 
218 
218 
218 
218 
218 
218 
218 
218 
218 
218 
218 
218 
218 
218 
219 
219 
216 
217 
217 
217 
216 
216 
215 
215 
217 
221 
217 
218 
219 
216 
215 
214 
217 
216 
213 
219 
215 
215 
218 
217 
219 
218 
217 
217 
217 
217 
217 
216 
216 
219 
222 
221 
217 
214 
214 
216 
217 
219 
217 
219 
217 
219 
218 
216 
217 
218 
213 
215 
216 
221 
218 
213 
213 
212 
216 
224 
221 
214 
212 
217 
220 
218 
214 
216 
223 
219 
217 
217 
217 
220 
215 
216 
218 
217 
219 
219 
218 
218 
218 
218 
218 
218 
218 
218 
218 
218 
218 
218 
218 
218 
218 
218 
217 
217 
218 
218 
218 
219 
219 
217 
217 
216 
216 
215 
217 
216 
217 
214 
219 
209 
213 
218 
215 
219 
216 
217 
219 
210 
221 
213 
213 
218 
215 
217 
217 
217 
216 
216 
216 
217 
218 
218 
216 
215 
216 
217 
218 
219 
219 
220 
222 
217 
221 
214 
218 
218 
216 
218 
215 
218 
216 
218 
221 
214 
218 
220 
224 
219 
217 
213 
221 
219 
216 
213 
222 
216 
217 
214 
218 
216 
217 
216 
223 
212 
217 
222 
217 
218 
216 
218 
218 
218 
218 
218 
218 
218 
217 
218 
218 
218 
218 
218 
218 
218 
218 
217 
217 
218 
218 
218 
218 
219 
217 
217 
217 
217 
217 
217 
217 
217 
216 
216 
216 
216 
216 
216 
216 
216 
216 
217 
217 
217 
217 
216 
216 
216 
218 
218 
217 
217 
217 
217 
217 
217 
218 
217 
217 
217 
217 
218 
218 
218 
219 
219 
220 
219 
218 
218 
218 
219 
218 
218 
217 
217 
217 
217 
217 
217 
217 
217 
217 
218 
218 
218 
217 
217 
218 
218 
218 
217 
217 
217 
217 
217 
216 
217 
217 
217 
217 
218 
218 
218 
218 
218 
218 
218 
218 
218 
218 
218 
218 
218 
218 
218 
218 
218 
218 
218 
218 
218 
218 
219 
219 
219 
219 
217 
217 
217 
217 
217 
217 
217 
217 
216 
216 
216 
216 
216 
216 
216 
216 
216 
217 
217 
217 
216 
216 
216 
216 
218 
218 
217 
217 
217 
217 
217 
217 
217 
217 
217 
217 
217 
217 
218 
218 
219 
219 
219 
219 
218 
218 
218 
219 
218 
218 
217 
217 
217 
217 
217 
217 
217 
217 
217 
218 
218 
218 
218 
217 
218 
218 
218 
217 
217 
217 
217 
217 
217 
217 
217 
217 
217 
218 
218 
218 
218 
218 
218 
218 
218 
218 
218 
218 
218 
218 
218 
218 
218 
218 
218 
218 
218 
218 
218 
219 
219 
219 
219 
217 
217 
217 
217 
217 
217 
217 
217 
216 
216 
216 
216 
216 
216 
216 
216 
216 
217 
217 
217 
216 
216 
216 
217 
218 
218 
217 
217 
217 
217 
217 
217 
217 
217 
216 
216 
216 
217 
217 
217 
218 
219 
219 
219 
219 
218 
218 
219 
218 
218 
217 
217 
217 
217 
217 
217 
217 
217 
217 
218 
218 
218 
218 
217 
218 
218 
218 
217 
217 
217 
217 
217 
217 
217 
217 
217 
218 
218 
218 
218 
218 
218 
218 
218 
218 
218 
218 
218 
218 
218 
218 
218 
218 
218 
218 
218 
218 
218 
218 
219 
219 
219 
219 
217 
217 
217 
217 
217 
217 
217 
217 
217 
217 
217 
216 
216 
216 
216 
216 
217 
217 
217 
217 
216 
216 
216 
217 
218 
218 
217 
217 
217 
217 
217 
217 
216 
216 
216 
216 
216 
216 
216 
217 
217 
218 
219 
219 
219 
218 
218 
219 
218 
218 
217 
217 
217 
217 
217 
217 
217 
217 
218 
218 
218 
218 
218 
218 
218 
218 
218 
218 
218 
218 
217 
217 
217 
217 
217 
217 
218 
218 
218 
218 
218 
218 
218 
218 
218 
218 
218 
218 
218 
218 
218 
218 
218 
218 
218 
218 
218 
218 
218 
219 
219 
219 
219 
217 
217 
217 
217 
217 
217 
217 
217 
217 
217 
217 
217 
216 
216 
216 
216 
217 
217 
217 
216 
216 
216 
216 
217 
218 
218 
217 
217 
217 
217 
217 
217 
216 
216 
216 
216 
216 
216 
216 
216 
217 
218 
219 
219 
219 
218 
218 
218 
218 
218 
218 
217 
217 
217 
217 
217 
217 
217 
218 
218 
218 
218 
218 
218 
218 
218 
218 
218 
218 
218 
218 
218 
217 
217 
218 
218 
218 
218 
218 
218 
218 
218 
218 
218 
218 
218 
218 
218 
218 
218 
218 
218 
218 
218 
218 
218 
218 
218 
218 
219 
219 
219 
219 
