P2
# Created by MsrVolt
45 58
255
212 
212 
212 
212 
212 
212 
212 
212 
211 
211 
212 
213 
214 
215 
214 
213 
214 
214 
214 
214 
214 
213 
213 
213 
213 
214 
214 
214 
214 
213 
214 
214 
213 
214 
214 
214 
214 
215 
215 
215 
215 
215 
215 
215 
215 
212 
212 
212 
212 
212 
212 
212 
212 
212 
212 
212 
212 
214 
214 
215 
214 
214 
215 
216 
216 
216 
215 
215 
214 
214 
214 
214 
214 
213 
213 
213 
213 
214 
214 
214 
215 
215 
215 
215 
216 
215 
215 
215 
215 
215 
212 
212 
212 
212 
212 
212 
212 
212 
213 
213 
212 
212 
213 
214 
215 
215 
213 
213 
213 
213 
213 
213 
213 
213 
214 
215 
215 
215 
214 
214 
214 
215 
214 
214 
214 
214 
215 
215 
215 
215 
215 
215 
215 
215 
215 
212 
212 
212 
212 
212 
212 
212 
212 
213 
213 
212 
212 
213 
214 
214 
214 
216 
216 
215 
214 
214 
215 
215 
216 
213 
213 
214 
214 
214 
214 
215 
216 
214 
214 
214 
214 
214 
214 
214 
214 
215 
215 
215 
215 
215 
212 
212 
212 
212 
212 
212 
212 
212 
212 
212 
212 
213 
214 
214 
213 
213 
214 
214 
215 
215 
215 
214 
213 
213 
212 
212 
213 
213 
212 
212 
213 
213 
215 
215 
215 
215 
215 
215 
215 
215 
215 
215 
215 
215 
215 
212 
212 
212 
212 
212 
212 
212 
212 
212 
212 
212 
213 
214 
214 
212 
211 
211 
213 
215 
217 
216 
214 
210 
208 
215 
216 
216 
215 
214 
213 
213 
213 
216 
216 
216 
216 
216 
216 
216 
216 
216 
216 
216 
216 
216 
212 
212 
212 
212 
212 
212 
212 
212 
212 
212 
212 
212 
212 
212 
212 
211 
217 
218 
219 
219 
218 
216 
214 
212 
216 
216 
216 
216 
215 
214 
214 
215 
216 
216 
216 
216 
216 
216 
216 
216 
216 
216 
216 
216 
216 
212 
212 
212 
212 
212 
212 
212 
212 
213 
212 
211 
211 
211 
212 
212 
212 
217 
215 
211 
209 
207 
208 
209 
211 
211 
212 
213 
213 
213 
213 
214 
215 
215 
215 
215 
215 
215 
215 
215 
215 
216 
216 
216 
216 
216 
213 
211 
212 
213 
212 
210 
211 
214 
216 
206 
213 
220 
208 
211 
215 
206 
211 
214 
208 
206 
217 
207 
215 
218 
215 
215 
215 
217 
213 
211 
216 
214 
216 
216 
215 
215 
216 
216 
215 
215 
214 
214 
214 
215 
216 
212 
212 
212 
213 
212 
211 
212 
213 
207 
217 
213 
204 
218 
213 
208 
213 
211 
214 
213 
204 
218 
213 
204 
209 
215 
213 
212 
212 
212 
216 
219 
212 
214 
214 
213 
213 
214 
214 
213 
213 
215 
215 
214 
215 
216 
212 
212 
212 
212 
212 
213 
212 
211 
213 
217 
213 
209 
215 
213 
209 
212 
220 
208 
217 
223 
219 
212 
217 
215 
216 
211 
216 
220 
215 
214 
217 
216 
214 
214 
214 
214 
214 
214 
214 
214 
216 
215 
214 
214 
215 
211 
212 
212 
211 
212 
214 
213 
210 
212 
208 
207 
217 
209 
213 
214 
218 
217 
223 
208 
203 
204 
198 
215 
231 
221 
204 
211 
224 
219 
213 
213 
215 
214 
214 
214 
214 
214 
214 
214 
214 
214 
214 
214 
214 
216 
212 
212 
212 
211 
212 
213 
213 
211 
211 
215 
215 
208 
214 
213 
216 
220 
215 
201 
202 
181 
158 
173 
187 
191 
190 
164 
172 
194 
208 
220 
219 
214 
212 
213 
213 
213 
212 
212 
213 
213 
211 
212 
213 
215 
216 
212 
212 
212 
212 
212 
211 
212 
214 
203 
205 
224 
200 
213 
208 
223 
198 
144 
110 
110 
85 
89 
114 
102 
155 
160 
142 
158 
173 
186 
211 
219 
216 
213 
214 
215 
214 
213 
213 
214 
215 
212 
212 
213 
215 
216 
214 
211 
211 
214 
212 
208 
210 
217 
213 
211 
235 
219 
219 
203 
198 
157 
73 
39 
64 
79 
87 
105 
91 
137 
160 
147 
173 
182 
174 
185 
198 
209 
214 
216 
217 
216 
215 
215 
216 
217 
215 
214 
214 
214 
215 
214 
210 
211 
215 
212 
206 
209 
219 
216 
225 
217 
207 
195 
148 
88 
63 
63 
59 
47 
48 
57 
73 
81 
115 
140 
122 
156 
179 
168 
166 
179 
202 
213 
215 
216 
216 
214 
214 
215 
217 
218 
217 
215 
214 
214 
211 
212 
212 
215 
209 
219 
211 
205 
202 
243 
198 
145 
110 
80 
48 
47 
57 
58 
44 
49 
53 
80 
89 
119 
131 
108 
142 
172 
176 
168 
178 
186 
197 
207 
210 
214 
217 
211 
210 
217 
217 
214 
214 
216 
216 
213 
212 
210 
213 
209 
219 
216 
214 
214 
221 
129 
74 
74 
71 
63 
66 
55 
43 
44 
56 
45 
77 
101 
116 
110 
109 
141 
167 
177 
190 
175 
177 
184 
198 
220 
207 
218 
218 
207 
205 
211 
214 
216 
215 
214 
214 
209 
209 
218 
211 
209 
213 
223 
208 
191 
74 
40 
58 
51 
47 
44 
53 
56 
68 
62 
46 
78 
96 
85 
99 
117 
153 
184 
168 
191 
188 
173 
170 
201 
229 
215 
212 
209 
204 
208 
208 
214 
217 
214 
213 
212 
212 
211 
216 
213 
212 
212 
206 
162 
144 
40 
44 
49 
39 
44 
47 
46 
58 
78 
78 
90 
86 
88 
97 
116 
137 
147 
170 
147 
160 
180 
166 
186 
209 
214 
219 
218 
212 
207 
206 
213 
215 
216 
214 
214 
209 
217 
211 
205 
214 
223 
213 
177 
109 
110 
40 
66 
47 
47 
56 
58 
46 
70 
88 
62 
85 
76 
73 
71 
103 
122 
109 
109 
136 
158 
172 
183 
192 
205 
217 
217 
220 
212 
204 
208 
220 
214 
211 
215 
217 
209 
213 
209 
210 
215 
209 
200 
169 
105 
116 
68 
83 
52 
63 
56 
49 
59 
52 
73 
71 
89 
81 
98 
109 
108 
113 
123 
103 
133 
159 
163 
174 
181 
192 
228 
209 
214 
206 
198 
212 
222 
212 
209 
215 
218 
210 
210 
208 
216 
216 
191 
180 
154 
136 
132 
79 
67 
53 
71 
56 
55 
55 
51 
67 
70 
73 
97 
117 
115 
107 
109 
140 
137 
135 
145 
174 
181 
185 
189 
194 
204 
213 
208 
201 
208 
219 
213 
210 
214 
217 
210 
215 
208 
206 
213 
197 
174 
121 
154 
132 
78 
54 
61 
71 
51 
59 
62 
61 
66 
80 
73 
98 
100 
104 
110 
125 
130 
147 
135 
114 
169 
187 
187 
201 
160 
214 
204 
194 
205 
217 
216 
214 
213 
213 
215 
211 
210 
210 
212 
218 
167 
172 
124 
146 
120 
66 
64 
64 
64 
62 
57 
69 
62 
74 
73 
103 
78 
66 
112 
154 
146 
137 
155 
175 
140 
177 
184 
187 
194 
158 
202 
193 
180 
202 
215 
208 
215 
219 
215 
213 
211 
214 
210 
209 
226 
137 
167 
144 
156 
111 
93 
62 
72 
71 
56 
59 
62 
54 
70 
79 
79 
72 
69 
101 
142 
129 
144 
200 
165 
153 
158 
179 
192 
193 
191 
203 
188 
178 
204 
222 
210 
214 
216 
214 
213 
212 
212 
211 
208 
221 
120 
160 
165 
167 
122 
113 
64 
67 
73 
57 
64 
76 
68 
90 
113 
113 
100 
79 
83 
89 
95 
117 
150 
151 
167 
150 
185 
195 
179 
209 
203 
194 
196 
212 
217 
213 
213 
214 
214 
214 
212 
206 
213 
210 
204 
137 
163 
159 
145 
123 
95 
67 
54 
70 
68 
70 
70 
70 
105 
142 
161 
124 
90 
83 
67 
91 
120 
125 
173 
186 
159 
186 
181 
150 
182 
185 
179 
207 
220 
221 
217 
213 
212 
215 
216 
211 
205 
214 
211 
194 
164 
180 
130 
118 
94 
64 
63 
54 
68 
69 
72 
57 
58 
100 
145 
142 
93 
77 
78 
73 
76 
112 
147 
161 
165 
159 
178 
168 
152 
183 
212 
189 
214 
214 
209 
219 
214 
212 
215 
217 
211 
211 
212 
210 
199 
184 
187 
109 
140 
84 
70 
56 
60 
63 
59 
71 
64 
55 
91 
145 
97 
66 
70 
64 
92 
79 
109 
156 
158 
156 
179 
191 
188 
169 
169 
199 
177 
207 
217 
216 
218 
215 
214 
216 
217 
212 
212 
212 
209 
206 
206 
161 
123 
173 
110 
105 
59 
58 
56 
56 
68 
63 
54 
82 
131 
84 
72 
86 
62 
90 
91 
118 
151 
181 
164 
182 
184 
173 
149 
142 
168 
175 
205 
219 
209 
216 
215 
215 
215 
216 
213 
207 
214 
210 
205 
227 
126 
150 
169 
133 
129 
68 
52 
54 
61 
62 
54 
58 
80 
104 
79 
68 
85 
56 
76 
85 
109 
149 
178 
164 
174 
184 
187 
160 
155 
162 
187 
209 
226 
213 
214 
215 
215 
215 
215 
211 
208 
212 
208 
217 
201 
140 
161 
158 
152 
106 
74 
54 
62 
54 
63 
53 
65 
75 
85 
68 
73 
88 
50 
65 
91 
111 
138 
170 
183 
169 
195 
199 
177 
191 
187 
198 
221 
218 
212 
218 
216 
214 
214 
215 
211 
217 
213 
208 
221 
181 
116 
167 
154 
157 
100 
74 
62 
55 
64 
53 
59 
70 
75 
77 
66 
66 
83 
59 
82 
100 
120 
150 
175 
192 
186 
194 
187 
169 
185 
179 
203 
219 
226 
214 
219 
217 
215 
214 
215 
209 
211 
211 
208 
205 
180 
103 
163 
167 
156 
118 
78 
69 
69 
67 
62 
70 
78 
80 
72 
71 
65 
83 
78 
116 
130 
143 
160 
163 
178 
190 
188 
181 
179 
184 
180 
212 
220 
224 
212 
219 
217 
215 
215 
216 
212 
209 
213 
212 
207 
188 
154 
149 
152 
139 
120 
86 
73 
75 
62 
66 
76 
80 
80 
65 
73 
62 
77 
86 
139 
153 
154 
155 
153 
168 
188 
182 
183 
197 
179 
177 
218 
222 
215 
209 
218 
216 
215 
214 
216 
210 
214 
211 
210 
222 
184 
208 
140 
122 
129 
107 
105 
84 
73 
67 
63 
80 
80 
81 
64 
75 
64 
73 
89 
142 
159 
149 
144 
161 
180 
194 
187 
190 
200 
163 
151 
219 
219 
213 
212 
215 
214 
213 
214 
215 
209 
212 
211 
210 
213 
200 
201 
160 
135 
132 
118 
116 
94 
93 
77 
77 
76 
71 
78 
65 
71 
68 
76 
97 
147 
170 
161 
143 
161 
180 
195 
200 
208 
199 
160 
136 
218 
214 
217 
214 
214 
213 
212 
213 
215 
215 
213 
214 
217 
204 
218 
196 
191 
169 
147 
141 
122 
113 
129 
100 
96 
74 
64 
75 
64 
59 
66 
77 
100 
142 
172 
182 
156 
161 
175 
193 
207 
220 
207 
181 
167 
214 
215 
217 
215 
214 
213 
213 
214 
215 
212 
212 
207 
212 
210 
201 
222 
196 
186 
171 
153 
143 
150 
158 
142 
110 
90 
76 
87 
74 
57 
69 
81 
104 
120 
153 
185 
169 
174 
187 
197 
205 
218 
214 
204 
211 
210 
220 
213 
215 
215 
214 
214 
214 
216 
211 
212 
212 
210 
209 
209 
207 
203 
194 
188 
179 
173 
162 
161 
134 
111 
96 
101 
82 
52 
79 
63 
79 
98 
100 
141 
185 
180 
182 
206 
208 
208 
215 
215 
215 
216 
216 
216 
216 
215 
214 
214 
215 
215 
215 
213 
213 
213 
213 
212 
212 
212 
212 
208 
201 
191 
186 
177 
170 
149 
125 
117 
116 
96 
75 
65 
52 
69 
95 
109 
149 
194 
193 
194 
212 
210 
211 
215 
215 
214 
214 
215 
215 
215 
214 
214 
215 
215 
215 
215 
213 
211 
211 
213 
212 
211 
213 
217 
212 
205 
192 
190 
189 
181 
178 
159 
134 
127 
108 
109 
76 
74 
93 
120 
140 
165 
196 
196 
198 
213 
212 
213 
216 
215 
214 
213 
214 
214 
214 
214 
215 
215 
215 
215 
215 
212 
209 
210 
213 
212 
208 
211 
218 
215 
207 
193 
191 
192 
176 
181 
163 
142 
134 
118 
135 
113 
123 
133 
152 
169 
176 
190 
192 
202 
216 
213 
211 
216 
215 
214 
213 
213 
214 
214 
214 
215 
215 
215 
215 
216 
214 
212 
213 
216 
214 
209 
211 
216 
221 
219 
212 
215 
214 
192 
191 
171 
161 
158 
146 
161 
162 
167 
167 
171 
178 
181 
192 
201 
212 
220 
215 
209 
217 
216 
214 
214 
214 
215 
215 
215 
215 
215 
215 
216 
216 
215 
214 
215 
216 
214 
211 
211 
213 
209 
210 
208 
214 
213 
200 
198 
183 
176 
180 
177 
182 
195 
191 
189 
187 
190 
195 
204 
211 
216 
216 
215 
214 
217 
216 
215 
215 
215 
216 
216 
216 
215 
216 
216 
216 
216 
214 
214 
214 
214 
213 
212 
211 
211 
216 
214 
211 
213 
207 
207 
204 
197 
183 
186 
190 
194 
206 
200 
204 
199 
207 
211 
214 
215 
214 
212 
215 
216 
215 
215 
215 
215 
216 
216 
216 
216 
216 
216 
216 
216 
216 
214 
215 
214 
213 
213 
214 
214 
212 
213 
212 
214 
216 
209 
217 
209 
207 
202 
197 
202 
209 
215 
210 
220 
212 
213 
215 
215 
217 
217 
215 
216 
214 
214 
214 
214 
215 
216 
217 
216 
216 
216 
216 
216 
216 
217 
214 
214 
214 
214 
213 
213 
213 
213 
213 
214 
214 
214 
214 
214 
216 
217 
212 
213 
214 
214 
213 
214 
215 
216 
214 
214 
214 
215 
215 
215 
215 
215 
215 
215 
215 
215 
216 
216 
216 
216 
216 
216 
216 
217 
217 
214 
214 
214 
214 
214 
214 
214 
213 
213 
214 
214 
214 
213 
214 
215 
216 
214 
215 
216 
216 
215 
214 
215 
216 
216 
216 
216 
216 
215 
215 
215 
215 
215 
215 
215 
215 
216 
216 
216 
216 
216 
216 
216 
217 
217 
214 
214 
214 
214 
214 
214 
214 
215 
214 
214 
214 
214 
213 
213 
214 
215 
215 
215 
215 
215 
214 
213 
213 
214 
216 
216 
215 
215 
215 
215 
215 
214 
215 
215 
215 
215 
216 
216 
216 
216 
216 
216 
216 
217 
217 
214 
214 
214 
215 
215 
215 
215 
215 
214 
215 
215 
214 
214 
213 
214 
214 
215 
215 
215 
214 
213 
213 
213 
213 
213 
213 
213 
214 
214 
214 
215 
215 
215 
215 
215 
216 
216 
216 
216 
216 
216 
216 
216 
216 
217 
214 
214 
214 
215 
215 
215 
215 
216 
215 
216 
216 
216 
215 
214 
214 
215 
216 
216 
215 
215 
215 
215 
215 
215 
213 
213 
213 
214 
214 
215 
215 
215 
216 
216 
216 
216 
216 
216 
216 
216 
216 
216 
216 
216 
216 
214 
214 
215 
215 
215 
215 
215 
215 
215 
216 
217 
216 
215 
215 
215 
215 
215 
215 
214 
215 
215 
216 
215 
215 
216 
216 
216 
216 
215 
215 
215 
215 
216 
216 
216 
216 
216 
216 
216 
216 
216 
216 
216 
216 
216 
215 
215 
214 
214 
214 
214 
214 
214 
214 
215 
216 
216 
216 
215 
215 
215 
214 
214 
213 
214 
215 
215 
215 
214 
216 
216 
216 
216 
216 
216 
216 
216 
216 
216 
216 
216 
216 
216 
216 
216 
216 
216 
216 
216 
216 
215 
215 
214 
214 
214 
214 
214 
213 
214 
215 
216 
216 
215 
215 
215 
215 
216 
215 
214 
215 
216 
216 
216 
215 
214 
214 
214 
215 
216 
216 
217 
217 
216 
216 
216 
216 
216 
216 
216 
216 
216 
216 
216 
216 
216 
214 
214 
214 
215 
215 
214 
214 
214 
215 
216 
216 
216 
215 
215 
215 
215 
215 
215 
215 
215 
215 
215 
215 
215 
215 
215 
215 
215 
216 
216 
216 
216 
216 
216 
216 
216 
216 
216 
216 
216 
216 
216 
216 
216 
216 
214 
214 
214 
215 
215 
214 
214 
214 
215 
216 
216 
216 
215 
215 
215 
215 
215 
215 
215 
215 
215 
215 
215 
215 
215 
215 
215 
215 
216 
216 
216 
216 
216 
216 
216 
216 
216 
216 
216 
216 
216 
216 
216 
216 
216 
