P2
# Created by MsrVolt
71 61
255
220 
220 
220 
220 
220 
220 
220 
220 
220 
220 
220 
220 
220 
220 
220 
220 
221 
220 
220 
220 
219 
220 
220 
220 
220 
220 
220 
220 
220 
220 
220 
220 
221 
221 
221 
221 
221 
220 
220 
219 
222 
220 
219 
224 
220 
216 
222 
219 
218 
220 
220 
220 
222 
219 
219 
225 
218 
220 
223 
225 
223 
220 
220 
222 
223 
219 
220 
222 
219 
217 
219 
220 
220 
220 
220 
220 
220 
220 
220 
220 
220 
220 
220 
220 
220 
220 
220 
221 
221 
220 
220 
219 
219 
219 
219 
220 
220 
220 
220 
220 
220 
221 
221 
220 
220 
220 
220 
221 
221 
221 
221 
220 
225 
218 
218 
224 
222 
220 
215 
221 
220 
220 
214 
216 
219 
215 
220 
227 
218 
217 
225 
225 
216 
214 
220 
222 
223 
224 
220 
216 
221 
223 
220 
220 
220 
220 
220 
220 
220 
220 
220 
220 
220 
220 
220 
220 
220 
220 
221 
221 
220 
220 
219 
219 
219 
219 
219 
219 
219 
219 
220 
220 
221 
221 
220 
220 
219 
220 
220 
221 
222 
222 
210 
227 
221 
216 
222 
221 
221 
223 
218 
217 
220 
216 
221 
227 
221 
225 
221 
223 
225 
226 
226 
225 
224 
224 
226 
223 
220 
214 
214 
223 
228 
220 
220 
220 
220 
220 
220 
220 
221 
221 
221 
221 
221 
221 
221 
221 
221 
222 
221 
220 
220 
219 
218 
218 
218 
218 
218 
218 
219 
219 
220 
221 
221 
221 
220 
220 
219 
219 
220 
221 
222 
218 
229 
225 
220 
217 
214 
218 
218 
217 
217 
213 
219 
227 
225 
225 
226 
220 
228 
233 
230 
224 
223 
226 
230 
225 
222 
223 
226 
225 
224 
221 
220 
220 
220 
220 
220 
221 
221 
221 
221 
221 
221 
221 
221 
221 
221 
221 
221 
221 
220 
219 
219 
218 
218 
218 
218 
218 
218 
218 
219 
219 
220 
220 
221 
220 
220 
219 
219 
220 
221 
222 
224 
216 
216 
224 
220 
221 
225 
212 
221 
224 
212 
224 
226 
208 
209 
204 
197 
188 
188 
196 
194 
187 
200 
222 
224 
227 
232 
229 
221 
219 
221 
220 
220 
220 
220 
221 
221 
221 
221 
221 
221 
221 
221 
221 
221 
221 
221 
221 
221 
220 
219 
219 
218 
218 
218 
218 
218 
218 
218 
218 
219 
220 
220 
219 
219 
219 
219 
220 
221 
221 
222 
218 
207 
215 
229 
221 
222 
230 
216 
222 
228 
220 
229 
221 
190 
180 
169 
156 
141 
131 
133 
138 
144 
160 
177 
190 
207 
224 
224 
216 
220 
229 
220 
220 
220 
220 
221 
221 
221 
221 
221 
221 
221 
221 
221 
221 
221 
221 
220 
220 
220 
219 
219 
219 
219 
219 
219 
219 
219 
219 
219 
219 
220 
220 
219 
219 
219 
220 
220 
220 
221 
221 
222 
220 
224 
227 
214 
213 
222 
214 
220 
219 
213 
198 
181 
159 
140 
135 
131 
125 
110 
97 
98 
111 
120 
119 
124 
147 
189 
224 
233 
228 
223 
220 
220 
220 
221 
221 
221 
221 
221 
221 
221 
221 
221 
221 
221 
221 
221 
220 
220 
219 
219 
219 
219 
219 
219 
220 
220 
220 
220 
220 
220 
220 
220 
221 
221 
221 
220 
220 
219 
219 
219 
221 
223 
217 
214 
214 
219 
227 
221 
222 
205 
189 
144 
120 
118 
104 
114 
102 
99 
94 
88 
87 
90 
93 
94 
96 
101 
144 
207 
234 
224 
215 
221 
221 
221 
221 
221 
221 
221 
221 
221 
221 
221 
221 
221 
221 
221 
221 
220 
220 
220 
219 
219 
219 
219 
220 
220 
219 
220 
221 
221 
219 
219 
221 
220 
218 
221 
220 
220 
222 
218 
213 
225 
221 
218 
221 
227 
231 
210 
206 
202 
176 
137 
106 
87 
91 
77 
83 
65 
66 
66 
70 
58 
78 
75 
87 
93 
73 
95 
168 
222 
231 
218 
221 
221 
221 
221 
221 
221 
221 
221 
221 
221 
221 
221 
221 
221 
221 
221 
220 
220 
220 
219 
219 
219 
220 
220 
220 
220 
221 
223 
222 
219 
219 
220 
221 
218 
219 
218 
218 
218 
219 
222 
224 
212 
215 
234 
223 
155 
115 
132 
154 
111 
98 
101 
78 
83 
84 
75 
75 
71 
70 
70 
66 
72 
67 
76 
77 
73 
77 
114 
192 
230 
231 
221 
221 
221 
221 
221 
221 
221 
221 
221 
221 
221 
221 
221 
221 
221 
220 
220 
220 
219 
219 
219 
219 
220 
221 
220 
220 
222 
223 
222 
220 
219 
219 
222 
224 
223 
219 
217 
217 
221 
223 
220 
219 
227 
207 
126 
40 
49 
81 
118 
82 
80 
95 
73 
75 
86 
68 
63 
64 
72 
74 
84 
77 
66 
68 
73 
67 
59 
68 
144 
239 
232 
221 
221 
221 
221 
221 
221 
221 
221 
221 
221 
221 
221 
221 
220 
220 
220 
220 
220 
218 
218 
219 
220 
220 
221 
220 
221 
222 
222 
221 
219 
219 
219 
218 
222 
223 
224 
220 
219 
227 
231 
221 
227 
201 
149 
67 
29 
66 
83 
85 
87 
78 
78 
74 
77 
88 
80 
67 
67 
62 
57 
67 
64 
58 
62 
54 
65 
60 
71 
156 
197 
206 
221 
221 
221 
221 
221 
221 
221 
221 
221 
221 
221 
221 
220 
220 
220 
220 
221 
220 
218 
218 
219 
220 
220 
220 
221 
221 
221 
220 
219 
219 
219 
220 
216 
218 
217 
222 
220 
218 
213 
190 
198 
217 
157 
116 
75 
50 
51 
63 
68 
87 
75 
65 
72 
74 
79 
74 
67 
73 
59 
52 
56 
60 
57 
62 
60 
68 
68 
74 
133 
166 
141 
221 
221 
221 
221 
221 
221 
221 
221 
221 
221 
221 
221 
220 
220 
220 
220 
221 
220 
219 
219 
220 
220 
220 
218 
221 
222 
221 
219 
218 
220 
221 
221 
218 
225 
221 
218 
224 
234 
199 
111 
115 
146 
106 
86 
50 
40 
45 
61 
76 
77 
77 
73 
75 
70 
70 
58 
60 
68 
59 
59 
60 
61 
60 
61 
56 
64 
80 
83 
111 
202 
122 
221 
221 
221 
221 
221 
221 
221 
221 
221 
221 
221 
220 
220 
220 
220 
220 
221 
220 
219 
219 
221 
220 
219 
217 
220 
222 
222 
220 
220 
222 
222 
222 
218 
223 
225 
223 
212 
212 
175 
80 
82 
96 
71 
57 
36 
51 
69 
60 
76 
68 
79 
79 
80 
76 
75 
66 
64 
59 
50 
49 
53 
49 
58 
60 
64 
78 
73 
62 
104 
182 
186 
221 
221 
221 
221 
221 
221 
221 
221 
221 
221 
220 
220 
220 
220 
220 
220 
221 
220 
219 
220 
221 
221 
218 
216 
220 
222 
223 
222 
222 
223 
224 
222 
225 
210 
217 
224 
169 
123 
115 
81 
67 
76 
52 
45 
59 
91 
98 
78 
74 
73 
84 
73 
76 
74 
70 
73 
54 
44 
46 
53 
67 
51 
67 
67 
66 
81 
73 
63 
88 
154 
193 
221 
221 
221 
221 
221 
221 
221 
221 
221 
221 
220 
220 
220 
220 
219 
219 
222 
221 
222 
219 
215 
218 
224 
225 
219 
227 
219 
227 
229 
215 
230 
206 
207 
194 
205 
187 
95 
70 
75 
79 
78 
64 
60 
67 
74 
100 
98 
84 
88 
88 
85 
79 
84 
84 
64 
53 
54 
46 
56 
70 
99 
84 
82 
77 
71 
81 
73 
61 
157 
170 
189 
221 
221 
221 
221 
221 
221 
221 
221 
221 
221 
220 
221 
221 
221 
221 
221 
216 
218 
223 
222 
219 
222 
226 
223 
224 
221 
214 
219 
219 
221 
228 
189 
161 
210 
190 
110 
76 
84 
72 
63 
86 
71 
87 
81 
80 
106 
83 
76 
78 
99 
89 
83 
75 
69 
65 
54 
65 
76 
81 
77 
91 
81 
84 
91 
62 
72 
59 
81 
181 
151 
199 
221 
221 
221 
221 
221 
221 
221 
221 
219 
220 
220 
220 
220 
221 
221 
221 
225 
220 
218 
217 
219 
225 
226 
220 
220 
223 
228 
224 
202 
205 
198 
156 
148 
154 
124 
65 
76 
86 
78 
65 
78 
73 
98 
93 
84 
100 
72 
66 
70 
89 
64 
72 
68 
57 
58 
45 
68 
86 
87 
80 
86 
77 
66 
70 
79 
78 
74 
108 
198 
180 
211 
221 
221 
221 
221 
221 
221 
221 
221 
221 
221 
221 
221 
220 
220 
220 
221 
219 
217 
220 
225 
225 
225 
223 
218 
225 
222 
221 
212 
188 
184 
148 
101 
99 
84 
79 
55 
60 
67 
74 
61 
63 
60 
65 
74 
72 
78 
62 
50 
50 
76 
61 
73 
67 
62 
72 
70 
68 
77 
78 
79 
81 
90 
88 
98 
97 
90 
85 
140 
205 
220 
217 
221 
221 
221 
221 
221 
221 
221 
221 
223 
223 
223 
222 
221 
220 
220 
220 
220 
219 
223 
223 
216 
212 
215 
219 
210 
201 
182 
163 
141 
129 
89 
65 
79 
83 
85 
77 
81 
78 
68 
69 
63 
52 
51 
65 
70 
76 
63 
60 
63 
76 
72 
70 
63 
69 
73 
68 
65 
77 
90 
88 
72 
89 
100 
114 
83 
98 
98 
177 
215 
224 
219 
221 
221 
221 
221 
221 
221 
221 
221 
221 
222 
222 
221 
219 
218 
218 
219 
226 
221 
220 
221 
223 
226 
224 
217 
183 
170 
141 
113 
92 
75 
59 
65 
87 
88 
81 
82 
83 
76 
59 
70 
88 
69 
72 
57 
51 
77 
87 
130 
113 
86 
84 
85 
80 
77 
73 
72 
73 
86 
98 
82 
56 
66 
68 
76 
86 
126 
165 
207 
223 
227 
219 
221 
221 
221 
221 
221 
221 
221 
221 
219 
220 
221 
220 
219 
218 
219 
220 
218 
219 
219 
218 
225 
230 
211 
180 
150 
129 
106 
92 
85 
74 
73 
75 
79 
89 
86 
68 
56 
66 
63 
65 
67 
73 
96 
82 
66 
84 
92 
136 
110 
74 
85 
86 
78 
71 
85 
93 
91 
88 
85 
70 
64 
68 
65 
89 
134 
181 
227 
222 
225 
229 
221 
221 
221 
221 
221 
221 
221 
221 
221 
220 
221 
223 
223 
222 
222 
223 
225 
228 
231 
216 
183 
167 
168 
151 
119 
93 
86 
90 
92 
84 
71 
84 
84 
78 
79 
69 
56 
65 
67 
54 
53 
73 
87 
90 
83 
74 
88 
101 
122 
108 
81 
87 
73 
74 
88 
110 
88 
91 
82 
81 
85 
100 
89 
79 
124 
182 
227 
227 
228 
225 
208 
224 
219 
220 
220 
220 
221 
222 
222 
221 
219 
225 
220 
221 
217 
219 
219 
226 
232 
203 
165 
132 
121 
120 
103 
82 
78 
75 
73 
74 
80 
84 
81 
76 
75 
61 
60 
53 
54 
63 
52 
51 
82 
88 
76 
67 
76 
81 
91 
129 
142 
106 
89 
76 
83 
92 
102 
97 
95 
79 
106 
126 
121 
138 
91 
175 
221 
220 
221 
222 
220 
216 
218 
220 
220 
220 
221 
220 
220 
221 
222 
228 
217 
217 
230 
216 
218 
225 
225 
195 
123 
91 
94 
94 
92 
83 
77 
74 
72 
70 
72 
78 
81 
76 
69 
61 
55 
59 
52 
56 
65 
53 
51 
75 
82 
77 
67 
75 
84 
89 
143 
166 
122 
89 
81 
88 
87 
93 
100 
90 
91 
127 
138 
164 
190 
143 
176 
221 
220 
222 
225 
224 
221 
221 
220 
219 
220 
221 
220 
218 
220 
223 
216 
215 
218 
222 
234 
219 
212 
196 
126 
73 
72 
90 
85 
88 
85 
68 
68 
67 
67 
71 
77 
80 
74 
67 
59 
55 
58 
50 
54 
68 
64 
65 
70 
73 
79 
73 
83 
92 
95 
156 
153 
114 
89 
80 
92 
76 
94 
123 
94 
100 
139 
138 
179 
198 
174 
186 
221 
220 
221 
224 
224 
222 
222 
221 
219 
219 
221 
219 
217 
219 
223 
213 
224 
226 
233 
208 
174 
142 
115 
74 
71 
88 
100 
84 
83 
86 
55 
60 
60 
62 
67 
75 
78 
74 
67 
61 
59 
58 
49 
55 
71 
73 
73 
70 
63 
76 
73 
80 
75 
92 
140 
133 
111 
99 
83 
101 
83 
120 
156 
126 
148 
188 
173 
194 
194 
189 
193 
225 
221 
219 
220 
221 
221 
222 
221 
219 
219 
220 
219 
217 
218 
222 
216 
224 
223 
233 
136 
110 
89 
64 
87 
86 
75 
87 
73 
56 
75 
66 
56 
57 
58 
62 
69 
72 
69 
64 
56 
58 
60 
59 
65 
76 
73 
68 
65 
52 
69 
71 
74 
61 
113 
150 
127 
119 
102 
93 
102 
103 
138 
168 
173 
201 
225 
204 
212 
220 
225 
219 
226 
222 
220 
220 
221 
222 
223 
220 
220 
219 
218 
218 
218 
219 
219 
215 
225 
205 
173 
101 
94 
105 
78 
79 
85 
76 
98 
89 
50 
57 
55 
58 
59 
60 
62 
65 
67 
65 
62 
56 
59 
61 
65 
71 
77 
74 
68 
65 
54 
72 
74 
72 
62 
137 
176 
107 
109 
94 
122 
110 
126 
148 
177 
210 
209 
210 
208 
218 
229 
231 
225 
220 
219 
219 
221 
223 
223 
222 
219 
220 
219 
217 
218 
221 
220 
215 
226 
227 
172 
101 
95 
96 
117 
91 
79 
80 
70 
71 
62 
49 
56 
58 
58 
61 
63 
63 
64 
65 
65 
64 
62 
62 
61 
64 
68 
70 
72 
70 
71 
64 
75 
76 
70 
64 
121 
171 
117 
101 
99 
161 
147 
153 
171 
199 
227 
209 
210 
224 
226 
220 
211 
208 
217 
218 
219 
220 
221 
222 
221 
219 
221 
219 
216 
218 
222 
220 
213 
232 
208 
127 
87 
77 
87 
98 
89 
76 
66 
63 
55 
51 
58 
55 
50 
52 
57 
61 
62 
63 
65 
66 
66 
60 
61 
60 
64 
65 
62 
65 
66 
64 
63 
71 
77 
77 
79 
107 
162 
162 
107 
104 
177 
181 
166 
189 
209 
225 
217 
225 
226 
219 
220 
225 
229 
221 
222 
221 
220 
220 
221 
222 
223 
217 
218 
221 
218 
216 
232 
208 
232 
178 
90 
82 
74 
65 
79 
72 
69 
57 
54 
49 
48 
57 
70 
64 
52 
60 
63 
58 
58 
64 
60 
60 
56 
59 
65 
57 
58 
66 
62 
55 
67 
60 
62 
82 
91 
102 
101 
167 
179 
130 
148 
198 
198 
194 
213 
215 
222 
223 
223 
222 
222 
223 
223 
222 
221 
221 
221 
221 
221 
222 
222 
217 
221 
220 
218 
218 
218 
226 
227 
220 
131 
66 
78 
78 
62 
66 
73 
75 
66 
58 
54 
51 
52 
58 
63 
57 
51 
57 
67 
65 
65 
65 
67 
57 
60 
54 
63 
62 
65 
71 
70 
74 
56 
69 
67 
83 
92 
120 
175 
185 
180 
204 
202 
202 
212 
226 
227 
222 
223 
223 
222 
222 
223 
223 
222 
221 
221 
222 
222 
222 
222 
222 
220 
223 
219 
218 
224 
221 
217 
232 
211 
107 
62 
69 
72 
63 
62 
74 
60 
57 
49 
50 
55 
52 
52 
61 
73 
68 
77 
80 
74 
75 
80 
72 
65 
62 
58 
75 
57 
69 
106 
106 
85 
83 
109 
74 
66 
93 
155 
198 
189 
200 
225 
207 
223 
229 
222 
223 
222 
223 
223 
222 
222 
223 
223 
222 
223 
223 
222 
222 
222 
222 
222 
225 
219 
219 
220 
223 
219 
224 
228 
125 
73 
63 
59 
67 
68 
61 
58 
51 
50 
47 
49 
55 
63 
68 
72 
77 
75 
76 
74 
74 
71 
75 
64 
78 
52 
94 
156 
119 
85 
118 
131 
113 
120 
136 
103 
79 
140 
196 
210 
185 
205 
225 
220 
227 
218 
211 
225 
223 
223 
223 
223 
223 
223 
223 
223 
224 
223 
223 
223 
223 
222 
222 
221 
217 
224 
218 
215 
217 
229 
196 
76 
78 
84 
73 
76 
66 
56 
50 
51 
55 
61 
57 
52 
67 
82 
77 
77 
74 
76 
85 
93 
76 
85 
95 
121 
99 
149 
193 
165 
124 
140 
159 
144 
121 
122 
133 
138 
200 
222 
208 
209 
226 
220 
223 
219 
220 
222 
223 
223 
223 
223 
223 
223 
223 
223 
223 
224 
224 
224 
223 
223 
223 
223 
220 
220 
226 
216 
221 
221 
185 
113 
52 
67 
73 
74 
76 
59 
54 
62 
50 
64 
88 
89 
70 
72 
80 
71 
68 
86 
106 
114 
113 
95 
127 
151 
154 
164 
183 
182 
174 
170 
170 
180 
153 
114 
126 
169 
196 
216 
223 
220 
231 
231 
209 
226 
220 
226 
230 
218 
224 
223 
223 
224 
224 
223 
223 
224 
223 
223 
223 
223 
223 
223 
223 
222 
223 
222 
219 
234 
218 
113 
56 
69 
71 
73 
80 
79 
67 
55 
59 
66 
81 
109 
124 
108 
85 
74 
71 
56 
78 
115 
127 
119 
113 
162 
177 
158 
169 
176 
202 
192 
183 
172 
182 
167 
151 
172 
203 
221 
213 
219 
231 
222 
223 
217 
233 
221 
216 
222 
226 
224 
222 
222 
224 
224 
222 
222 
224 
223 
223 
223 
223 
223 
223 
223 
221 
224 
219 
223 
237 
207 
68 
66 
88 
74 
67 
67 
70 
93 
86 
81 
90 
92 
107 
129 
124 
87 
65 
72 
71 
62 
100 
137 
141 
137 
187 
187 
174 
170 
159 
197 
162 
173 
188 
194 
198 
206 
212 
218 
226 
227 
222 
222 
224 
222 
223 
225 
225 
224 
222 
223 
224 
222 
222 
224 
224 
222 
222 
224 
222 
222 
222 
223 
223 
223 
223 
221 
224 
223 
220 
211 
158 
77 
66 
75 
66 
58 
57 
84 
105 
109 
103 
86 
96 
111 
112 
113 
95 
94 
111 
116 
81 
51 
112 
153 
134 
191 
195 
192 
176 
170 
184 
175 
186 
209 
221 
220 
227 
227 
219 
219 
226 
227 
220 
223 
223 
223 
223 
223 
223 
223 
223 
223 
223 
223 
223 
223 
223 
223 
223 
223 
223 
223 
223 
223 
223 
223 
220 
229 
220 
223 
176 
93 
73 
69 
70 
67 
51 
56 
91 
100 
96 
105 
90 
99 
94 
86 
150 
129 
146 
175 
126 
165 
138 
149 
187 
183 
177 
187 
180 
203 
219 
211 
207 
207 
231 
225 
215 
226 
231 
224 
219 
221 
224 
223 
223 
223 
223 
223 
223 
223 
223 
223 
223 
223 
223 
223 
223 
223 
223 
223 
223 
223 
223 
223 
223 
223 
223 
220 
226 
227 
174 
93 
86 
73 
102 
125 
91 
49 
54 
98 
114 
103 
91 
73 
85 
108 
149 
181 
174 
182 
182 
129 
194 
206 
169 
203 
169 
147 
194 
192 
221 
219 
229 
220 
219 
223 
223 
216 
224 
228 
224 
219 
219 
222 
224 
223 
223 
223 
223 
223 
223 
223 
223 
223 
223 
223 
223 
223 
223 
223 
223 
223 
223 
223 
223 
223 
223 
223 
227 
217 
221 
199 
91 
153 
83 
158 
159 
100 
77 
87 
116 
120 
124 
100 
91 
103 
129 
185 
185 
163 
139 
161 
139 
172 
209 
169 
188 
151 
160 
228 
214 
230 
206 
228 
224 
221 
215 
223 
224 
221 
219 
219 
221 
222 
223 
223 
223 
223 
223 
223 
223 
223 
223 
223 
223 
223 
223 
223 
223 
223 
223 
223 
223 
223 
223 
223 
223 
223 
223 
224 
217 
222 
185 
117 
133 
116 
121 
147 
97 
110 
118 
136 
109 
111 
96 
109 
99 
139 
162 
179 
145 
132 
176 
136 
162 
187 
166 
180 
196 
209 
238 
211 
232 
222 
217 
227 
219 
224 
220 
227 
220 
216 
219 
223 
224 
223 
222 
223 
223 
223 
223 
223 
223 
223 
223 
223 
223 
223 
223 
223 
223 
223 
223 
223 
223 
223 
223 
223 
223 
223 
218 
222 
221 
213 
143 
123 
131 
93 
126 
112 
132 
101 
115 
96 
90 
86 
109 
117 
176 
168 
182 
169 
160 
189 
123 
166 
193 
176 
210 
232 
229 
213 
216 
229 
226 
216 
220 
220 
222 
217 
221 
219 
220 
223 
224 
222 
222 
223 
223 
223 
223 
223 
223 
223 
223 
223 
223 
223 
223 
223 
223 
223 
223 
223 
223 
223 
223 
223 
223 
223 
223 
217 
224 
238 
154 
139 
151 
166 
128 
116 
120 
138 
84 
90 
109 
107 
112 
129 
156 
192 
188 
191 
192 
164 
190 
164 
192 
218 
205 
238 
227 
221 
216 
234 
223 
223 
224 
219 
224 
221 
222 
219 
220 
222 
224 
223 
222 
222 
223 
223 
223 
223 
223 
223 
223 
223 
223 
223 
223 
223 
223 
223 
223 
223 
223 
223 
223 
223 
223 
223 
223 
223 
225 
215 
228 
108 
143 
155 
142 
147 
145 
110 
123 
97 
109 
146 
129 
120 
135 
101 
153 
209 
196 
203 
201 
204 
232 
226 
224 
225 
226 
216 
211 
243 
230 
208 
232 
217 
224 
218 
227 
221 
222 
221 
220 
221 
222 
224 
224 
223 
223 
223 
223 
223 
223 
223 
223 
223 
223 
223 
223 
223 
223 
223 
223 
223 
223 
223 
223 
223 
223 
223 
223 
223 
223 
220 
167 
131 
145 
129 
137 
128 
111 
99 
116 
101 
201 
177 
152 
157 
183 
208 
216 
212 
210 
214 
219 
222 
222 
223 
224 
225 
225 
226 
227 
220 
220 
220 
221 
221 
221 
221 
221 
221 
221 
222 
222 
223 
223 
223 
223 
223 
223 
223 
223 
223 
223 
223 
223 
223 
223 
223 
223 
223 
223 
223 
223 
223 
223 
223 
222 
223 
223 
223 
220 
234 
218 
204 
170 
185 
154 
112 
143 
169 
118 
157 
150 
197 
217 
201 
183 
207 
227 
228 
223 
223 
224 
223 
224 
224 
224 
224 
224 
224 
224 
224 
222 
221 
221 
221 
221 
221 
221 
221 
221 
221 
222 
222 
223 
223 
223 
223 
223 
223 
223 
223 
223 
223 
223 
223 
223 
223 
223 
223 
223 
223 
223 
223 
223 
223 
223 
223 
223 
223 
223 
222 
232 
213 
226 
189 
201 
151 
108 
182 
189 
156 
196 
169 
175 
204 
211 
187 
209 
224 
224 
222 
226 
225 
219 
225 
224 
224 
224 
223 
222 
222 
222 
223 
223 
222 
222 
222 
221 
221 
221 
221 
221 
222 
222 
223 
223 
223 
223 
223 
223 
223 
223 
223 
223 
223 
223 
223 
223 
223 
223 
223 
223 
223 
223 
223 
223 
223 
223 
223 
223 
223 
219 
214 
216 
237 
208 
184 
85 
87 
187 
195 
191 
183 
161 
200 
221 
224 
226 
230 
229 
220 
217 
222 
226 
224 
223 
223 
223 
223 
223 
223 
223 
223 
223 
223 
223 
223 
222 
222 
222 
222 
221 
222 
222 
223 
223 
223 
223 
223 
223 
223 
223 
223 
223 
223 
223 
223 
223 
223 
223 
223 
223 
223 
223 
223 
223 
223 
223 
223 
223 
223 
223 
226 
217 
220 
230 
224 
164 
47 
90 
179 
213 
207 
204 
211 
224 
224 
216 
210 
214 
220 
226 
228 
226 
222 
218 
222 
222 
222 
223 
223 
223 
223 
223 
223 
223 
223 
223 
223 
223 
223 
223 
222 
222 
222 
223 
223 
223 
223 
223 
223 
223 
223 
223 
223 
223 
223 
223 
223 
223 
223 
223 
223 
223 
223 
223 
223 
223 
223 
223 
223 
223 
222 
220 
230 
222 
215 
230 
173 
109 
163 
219 
214 
208 
222 
224 
213 
214 
220 
233 
226 
222 
222 
221 
220 
221 
225 
223 
223 
223 
223 
223 
223 
222 
222 
223 
223 
223 
223 
223 
223 
223 
223 
222 
222 
223 
223 
223 
223 
223 
223 
223 
223 
223 
223 
223 
223 
223 
223 
223 
223 
223 
223 
223 
223 
223 
223 
223 
223 
224 
224 
223 
223 
222 
206 
228 
226 
215 
233 
205 
189 
218 
205 
198 
224 
228 
218 
231 
228 
222 
221 
220 
219 
222 
224 
225 
225 
226 
224 
224 
224 
223 
223 
223 
223 
222 
223 
223 
223 
223 
223 
223 
223 
223 
222 
222 
223 
223 
223 
223 
223 
223 
223 
223 
223 
223 
223 
223 
223 
223 
223 
223 
223 
223 
223 
223 
223 
223 
223 
223 
224 
224 
224 
223 
222 
221 
222 
224 
207 
222 
223 
219 
220 
195 
211 
226 
225 
220 
222 
219 
224 
221 
223 
223 
221 
222 
224 
223 
220 
223 
223 
223 
223 
223 
224 
224 
224 
224 
223 
223 
223 
222 
222 
222 
222 
222 
223 
223 
223 
223 
223 
223 
223 
223 
223 
223 
223 
223 
223 
223 
223 
223 
223 
223 
223 
223 
223 
223 
223 
223 
223 
224 
224 
224 
223 
222 
226 
217 
217 
225 
225 
216 
216 
224 
215 
227 
230 
221 
215 
220 
223 
221 
221 
222 
222 
222 
223 
223 
223 
224 
224 
224 
224 
224 
224 
224 
224 
224 
223 
223 
223 
223 
223 
223 
223 
223 
223 
223 
223 
223 
223 
223 
223 
223 
223 
223 
223 
223 
223 
223 
223 
223 
223 
223 
223 
223 
223 
223 
223 
223 
223 
223 
223 
223 
223 
223 
223 
226 
220 
220 
227 
227 
221 
222 
228 
226 
228 
225 
220 
222 
228 
224 
216 
222 
222 
222 
222 
223 
223 
223 
224 
224 
224 
224 
224 
224 
224 
224 
224 
223 
223 
223 
223 
223 
223 
223 
223 
223 
223 
223 
223 
223 
223 
223 
223 
223 
223 
223 
223 
223 
223 
223 
223 
223 
223 
223 
223 
223 
223 
223 
223 
223 
223 
223 
223 
223 
223 
223 
224 
221 
221 
225 
226 
223 
224 
227 
226 
222 
218 
218 
225 
229 
225 
216 
222 
222 
222 
222 
223 
223 
224 
224 
224 
224 
224 
224 
224 
224 
224 
224 
223 
223 
223 
223 
223 
223 
223 
223 
223 
223 
223 
223 
223 
223 
223 
223 
223 
223 
223 
223 
223 
223 
223 
223 
223 
223 
223 
223 
223 
223 
223 
223 
223 
223 
223 
223 
223 
223 
223 
223 
222 
222 
223 
223 
222 
222 
223 
220 
219 
219 
220 
222 
222 
221 
221 
222 
222 
222 
223 
223 
223 
224 
224 
224 
224 
224 
224 
224 
224 
224 
224 
223 
223 
223 
223 
223 
223 
223 
223 
223 
223 
223 
223 
223 
223 
223 
223 
223 
223 
223 
223 
223 
223 
223 
223 
223 
223 
223 
223 
223 
223 
223 
223 
223 
223 
223 
223 
223 
223 
223 
224 
224 
224 
223 
223 
223 
223 
222 
223 
223 
225 
226 
222 
217 
218 
222 
222 
222 
222 
223 
223 
224 
224 
224 
224 
224 
224 
224 
224 
224 
224 
224 
223 
223 
223 
223 
223 
223 
223 
223 
223 
223 
223 
223 
223 
223 
223 
223 
223 
223 
223 
223 
223 
223 
223 
223 
223 
223 
223 
223 
223 
223 
223 
223 
223 
223 
223 
223 
223 
223 
223 
