P2
# Created by MsrVolt
100 62
255
224 
224 
224 
223 
223 
223 
223 
223 
220 
221 
221 
221 
222 
222 
223 
223 
223 
223 
223 
223 
223 
223 
223 
223 
223 
223 
223 
222 
222 
223 
223 
223 
223 
223 
223 
222 
222 
223 
223 
223 
223 
223 
223 
223 
223 
223 
223 
223 
226 
224 
222 
223 
222 
220 
220 
222 
222 
219 
223 
218 
222 
221 
222 
222 
221 
220 
223 
219 
223 
220 
224 
224 
220 
223 
223 
221 
222 
224 
225 
224 
224 
224 
225 
224 
224 
224 
225 
226 
224 
224 
224 
224 
224 
224 
224 
224 
224 
224 
224 
224 
224 
223 
223 
223 
223 
223 
223 
223 
221 
222 
222 
222 
222 
223 
223 
223 
223 
223 
223 
223 
223 
223 
223 
223 
223 
223 
223 
223 
223 
223 
223 
223 
224 
223 
223 
223 
223 
223 
223 
223 
223 
223 
223 
223 
223 
223 
222 
222 
220 
220 
222 
224 
225 
224 
222 
222 
222 
221 
223 
221 
222 
222 
222 
222 
223 
222 
224 
223 
225 
223 
222 
219 
225 
225 
223 
223 
224 
225 
224 
222 
224 
223 
223 
225 
226 
226 
223 
220 
224 
224 
224 
224 
224 
224 
224 
224 
224 
224 
224 
224 
223 
223 
223 
223 
223 
223 
223 
222 
223 
223 
223 
223 
223 
223 
223 
223 
223 
223 
223 
223 
223 
223 
223 
223 
223 
223 
223 
223 
223 
223 
223 
224 
224 
224 
224 
223 
223 
223 
223 
223 
223 
223 
223 
223 
223 
223 
223 
223 
225 
226 
224 
222 
221 
221 
221 
220 
221 
221 
221 
221 
221 
221 
221 
221 
216 
219 
221 
221 
218 
220 
223 
228 
221 
221 
221 
222 
222 
222 
222 
223 
227 
225 
224 
223 
224 
224 
224 
224 
224 
224 
224 
224 
224 
224 
224 
224 
224 
224 
224 
224 
223 
223 
223 
223 
223 
222 
222 
222 
224 
224 
224 
224 
223 
223 
223 
223 
224 
224 
224 
223 
223 
223 
223 
223 
223 
223 
223 
223 
223 
223 
223 
224 
223 
223 
224 
224 
224 
224 
223 
223 
221 
222 
222 
223 
224 
224 
224 
224 
222 
223 
223 
222 
222 
223 
223 
222 
221 
223 
219 
222 
220 
221 
223 
222 
224 
226 
224 
224 
219 
221 
222 
225 
221 
222 
225 
226 
224 
221 
223 
227 
223 
226 
227 
225 
222 
222 
225 
228 
224 
224 
224 
224 
224 
224 
224 
224 
224 
224 
224 
224 
223 
223 
223 
223 
223 
223 
223 
222 
225 
225 
225 
224 
224 
223 
223 
223 
224 
224 
224 
223 
223 
223 
223 
223 
223 
223 
222 
222 
223 
223 
223 
224 
222 
223 
223 
224 
224 
224 
224 
223 
222 
223 
223 
223 
223 
223 
223 
223 
221 
223 
225 
225 
225 
223 
220 
217 
221 
224 
219 
222 
222 
220 
226 
224 
223 
221 
220 
223 
226 
226 
223 
218 
224 
223 
223 
224 
224 
222 
222 
223 
221 
223 
226 
226 
225 
223 
223 
222 
224 
224 
224 
224 
224 
224 
224 
224 
224 
224 
224 
224 
224 
224 
223 
223 
223 
223 
223 
223 
225 
225 
225 
224 
224 
223 
223 
223 
223 
223 
223 
223 
223 
223 
222 
222 
222 
222 
222 
222 
222 
223 
223 
223 
222 
222 
223 
223 
224 
223 
223 
223 
225 
224 
223 
223 
222 
222 
222 
222 
226 
224 
222 
222 
222 
221 
221 
223 
219 
222 
219 
219 
225 
216 
227 
221 
226 
223 
226 
220 
224 
220 
227 
227 
224 
222 
219 
219 
223 
226 
226 
223 
229 
225 
220 
221 
224 
227 
225 
223 
224 
224 
224 
224 
224 
224 
224 
224 
224 
224 
224 
224 
224 
224 
224 
224 
224 
224 
223 
223 
225 
225 
224 
224 
224 
223 
223 
223 
223 
223 
223 
223 
222 
222 
222 
222 
221 
221 
221 
221 
222 
222 
222 
223 
222 
223 
223 
223 
223 
222 
221 
221 
225 
224 
223 
222 
222 
222 
223 
223 
222 
217 
216 
220 
222 
222 
227 
234 
218 
221 
222 
219 
230 
213 
227 
217 
238 
231 
234 
218 
225 
214 
223 
221 
216 
221 
220 
213 
212 
218 
225 
227 
227 
222 
218 
218 
221 
224 
226 
226 
224 
224 
224 
224 
224 
224 
224 
224 
224 
224 
224 
224 
224 
224 
224 
224 
224 
224 
224 
224 
224 
224 
224 
224 
224 
223 
223 
223 
223 
223 
222 
222 
222 
222 
221 
221 
221 
221 
221 
221 
221 
222 
222 
222 
223 
223 
224 
223 
223 
221 
220 
219 
223 
222 
221 
221 
222 
223 
225 
226 
226 
222 
224 
230 
228 
219 
214 
217 
221 
224 
228 
223 
237 
215 
230 
216 
220 
205 
210 
203 
231 
220 
218 
199 
198 
211 
214 
199 
186 
190 
204 
214 
207 
213 
220 
223 
221 
219 
220 
222 
224 
224 
224 
224 
224 
224 
224 
224 
224 
224 
224 
224 
224 
224 
224 
224 
224 
224 
224 
224 
224 
224 
224 
224 
224 
224 
224 
223 
224 
224 
223 
223 
222 
222 
222 
222 
221 
221 
222 
222 
222 
222 
222 
223 
224 
221 
227 
222 
225 
219 
223 
219 
222 
220 
219 
220 
225 
223 
217 
220 
222 
217 
217 
226 
217 
220 
235 
219 
226 
223 
221 
206 
189 
197 
194 
191 
213 
210 
209 
197 
199 
184 
195 
190 
156 
165 
205 
189 
175 
164 
196 
205 
202 
207 
218 
216 
219 
223 
223 
220 
220 
221 
225 
228 
228 
224 
223 
226 
223 
223 
223 
224 
224 
224 
224 
224 
224 
224 
224 
224 
224 
224 
224 
224 
224 
224 
224 
223 
223 
223 
223 
222 
222 
222 
222 
222 
225 
223 
222 
222 
223 
223 
222 
221 
228 
219 
219 
220 
229 
223 
225 
224 
219 
223 
223 
218 
219 
224 
226 
230 
231 
229 
218 
224 
233 
226 
234 
218 
220 
222 
213 
212 
175 
214 
197 
183 
204 
194 
196 
169 
157 
155 
196 
160 
152 
139 
187 
216 
165 
142 
199 
202 
203 
218 
205 
209 
205 
221 
225 
225 
219 
221 
225 
228 
226 
222 
222 
224 
223 
223 
223 
224 
224 
224 
224 
224 
224 
224 
224 
224 
224 
224 
224 
224 
224 
224 
224 
223 
223 
223 
222 
222 
222 
222 
222 
223 
221 
223 
225 
224 
222 
221 
224 
227 
219 
223 
225 
219 
223 
221 
224 
224 
225 
221 
219 
223 
224 
220 
218 
220 
223 
222 
227 
229 
217 
209 
212 
214 
225 
210 
175 
157 
129 
174 
162 
139 
150 
163 
156 
121 
133 
126 
130 
138 
159 
124 
164 
195 
113 
100 
195 
197 
200 
223 
185 
204 
219 
227 
225 
227 
222 
224 
227 
228 
226 
223 
223 
225 
224 
224 
224 
224 
224 
224 
224 
224 
224 
224 
224 
224 
224 
224 
224 
224 
224 
224 
224 
223 
223 
223 
222 
221 
221 
222 
223 
223 
222 
223 
225 
224 
223 
222 
224 
226 
224 
227 
224 
221 
227 
226 
222 
219 
218 
222 
226 
229 
223 
220 
227 
230 
221 
213 
220 
222 
206 
206 
185 
206 
221 
207 
119 
87 
92 
136 
118 
89 
115 
133 
142 
107 
113 
130 
90 
125 
162 
123 
123 
140 
56 
92 
165 
181 
197 
204 
179 
222 
219 
210 
228 
223 
226 
227 
227 
226 
225 
225 
225 
225 
224 
224 
224 
224 
224 
224 
224 
224 
224 
224 
224 
224 
224 
224 
224 
224 
224 
224 
224 
223 
224 
223 
222 
221 
221 
222 
223 
224 
227 
224 
222 
222 
225 
226 
223 
219 
221 
222 
223 
226 
222 
218 
219 
227 
222 
227 
222 
217 
211 
216 
229 
222 
226 
227 
221 
215 
201 
181 
174 
193 
186 
197 
75 
82 
126 
172 
129 
106 
111 
102 
105 
103 
134 
152 
106 
156 
155 
132 
136 
102 
75 
113 
159 
187 
194 
190 
130 
180 
205 
208 
210 
217 
227 
226 
223 
221 
223 
226 
226 
223 
224 
224 
224 
224 
224 
224 
224 
224 
224 
224 
224 
224 
224 
224 
224 
224 
224 
224 
224 
223 
225 
224 
223 
222 
222 
222 
223 
224 
221 
223 
225 
226 
225 
224 
224 
224 
221 
226 
227 
223 
216 
228 
233 
227 
227 
223 
216 
218 
204 
194 
207 
206 
194 
195 
198 
200 
173 
146 
195 
169 
141 
152 
50 
75 
141 
142 
100 
94 
103 
105 
105 
95 
111 
96 
91 
135 
109 
136 
157 
86 
70 
98 
144 
186 
191 
165 
75 
122 
172 
215 
208 
216 
226 
226 
223 
220 
222 
228 
227 
223 
224 
224 
224 
224 
224 
224 
224 
224 
224 
224 
224 
224 
224 
224 
224 
224 
224 
224 
224 
223 
227 
225 
224 
222 
222 
222 
223 
224 
221 
223 
226 
227 
226 
225 
225 
224 
235 
225 
218 
220 
219 
240 
234 
208 
208 
215 
219 
221 
195 
177 
197 
203 
184 
177 
172 
171 
139 
130 
163 
94 
105 
131 
86 
71 
111 
97 
93 
94 
91 
87 
90 
70 
73 
91 
107 
79 
156 
153 
121 
131 
120 
157 
158 
161 
171 
123 
90 
118 
122 
161 
194 
201 
222 
226 
226 
222 
223 
228 
229 
225 
225 
225 
225 
224 
224 
224 
224 
224 
224 
224 
224 
224 
224 
224 
224 
224 
224 
224 
224 
223 
228 
226 
224 
223 
222 
222 
223 
224 
236 
226 
218 
223 
234 
235 
223 
209 
223 
204 
209 
227 
204 
195 
196 
199 
206 
216 
203 
187 
175 
184 
193 
160 
148 
178 
163 
147 
130 
143 
119 
81 
116 
182 
168 
93 
59 
79 
90 
75 
81 
89 
90 
78 
81 
87 
90 
123 
156 
119 
114 
173 
169 
118 
145 
143 
184 
165 
159 
147 
162 
143 
169 
213 
216 
223 
227 
223 
222 
226 
227 
224 
225 
225 
225 
224 
224 
224 
224 
224 
224 
224 
224 
224 
225 
224 
226 
223 
225 
227 
223 
226 
226 
215 
232 
221 
223 
227 
225 
229 
221 
224 
216 
218 
211 
202 
216 
211 
221 
196 
170 
206 
209 
191 
177 
196 
187 
182 
161 
156 
148 
146 
140 
98 
112 
166 
158 
146 
144 
161 
161 
109 
137 
165 
85 
61 
78 
61 
83 
77 
75 
85 
84 
72 
79 
86 
70 
112 
122 
96 
104 
152 
128 
64 
85 
99 
164 
194 
128 
130 
193 
157 
159 
211 
203 
238 
219 
220 
218 
227 
229 
225 
225 
225 
224 
224 
224 
224 
224 
224 
224 
224 
224 
224 
227 
221 
229 
220 
225 
218 
219 
220 
218 
226 
218 
224 
227 
219 
214 
208 
211 
211 
197 
185 
174 
176 
192 
190 
197 
181 
168 
195 
199 
165 
159 
175 
154 
106 
112 
130 
123 
101 
119 
106 
103 
141 
110 
120 
118 
101 
115 
124 
113 
87 
73 
69 
70 
73 
68 
64 
72 
79 
70 
77 
74 
81 
111 
124 
116 
143 
149 
130 
112 
77 
97 
109 
130 
164 
133 
158 
194 
161 
168 
196 
215 
223 
228 
233 
215 
227 
223 
224 
225 
225 
224 
224 
224 
224 
224 
224 
224 
224 
224 
224 
227 
221 
222 
225 
222 
229 
225 
227 
235 
229 
228 
218 
216 
220 
183 
191 
196 
194 
176 
159 
166 
188 
179 
145 
146 
167 
178 
176 
158 
100 
95 
102 
89 
79 
75 
104 
108 
85 
123 
99 
101 
98 
63 
86 
99 
79 
52 
78 
84 
94 
102 
64 
59 
75 
57 
66 
61 
74 
78 
71 
83 
88 
96 
115 
92 
118 
137 
106 
88 
49 
97 
157 
149 
193 
129 
150 
161 
195 
188 
179 
233 
201 
223 
231 
210 
231 
226 
228 
225 
225 
224 
224 
224 
224 
224 
224 
224 
224 
224 
224 
224 
222 
224 
225 
220 
231 
228 
228 
223 
223 
209 
208 
203 
197 
187 
182 
180 
173 
157 
146 
154 
178 
156 
120 
104 
140 
144 
117 
101 
64 
64 
59 
71 
95 
86 
69 
85 
100 
83 
73 
71 
103 
82 
95 
75 
88 
92 
55 
71 
95 
55 
54 
68 
52 
63 
63 
68 
75 
67 
77 
77 
80 
127 
108 
78 
91 
120 
106 
99 
67 
132 
181 
135 
161 
162 
190 
154 
157 
186 
170 
206 
181 
224 
233 
217 
224 
225 
228 
225 
225 
224 
224 
224 
224 
224 
224 
224 
224 
224 
224 
223 
222 
230 
221 
223 
220 
215 
206 
194 
190 
190 
189 
179 
166 
172 
156 
144 
150 
157 
160 
146 
144 
126 
118 
90 
109 
91 
71 
81 
81 
71 
58 
97 
111 
73 
55 
80 
81 
65 
69 
70 
103 
94 
79 
62 
68 
54 
77 
73 
62 
75 
59 
51 
70 
70 
67 
71 
74 
65 
76 
76 
79 
121 
93 
74 
84 
97 
92 
88 
57 
125 
160 
166 
184 
154 
180 
154 
180 
179 
168 
161 
167 
207 
222 
231 
222 
229 
223 
225 
225 
224 
224 
224 
224 
224 
224 
224 
224 
224 
224 
225 
225 
216 
228 
225 
229 
194 
184 
162 
148 
172 
165 
150 
143 
138 
123 
133 
153 
158 
155 
130 
125 
106 
90 
72 
84 
72 
61 
69 
78 
66 
77 
112 
103 
55 
65 
87 
55 
85 
74 
63 
79 
69 
71 
54 
74 
83 
56 
72 
84 
53 
50 
74 
60 
48 
61 
62 
71 
80 
77 
86 
86 
73 
62 
83 
81 
71 
90 
100 
63 
104 
133 
179 
168 
169 
157 
126 
124 
160 
174 
110 
160 
191 
218 
240 
224 
232 
224 
225 
225 
224 
224 
224 
224 
224 
224 
224 
224 
224 
224 
225 
226 
216 
231 
221 
208 
166 
172 
166 
163 
143 
139 
114 
85 
88 
59 
132 
142 
118 
104 
82 
94 
91 
73 
73 
85 
86 
68 
69 
80 
76 
116 
104 
69 
69 
63 
67 
60 
68 
62 
66 
60 
67 
69 
61 
74 
58 
55 
68 
83 
81 
59 
52 
57 
64 
58 
66 
71 
74 
87 
77 
76 
80 
55 
75 
68 
61 
100 
129 
132 
131 
103 
175 
167 
126 
99 
110 
146 
143 
164 
85 
171 
195 
230 
235 
219 
224 
228 
225 
225 
224 
224 
224 
224 
224 
224 
224 
224 
224 
224 
221 
225 
246 
220 
215 
147 
139 
164 
154 
139 
112 
98 
78 
71 
60 
53 
82 
88 
69 
76 
57 
66 
90 
104 
57 
65 
75 
54 
65 
75 
55 
81 
78 
58 
73 
62 
55 
72 
64 
61 
60 
70 
66 
64 
70 
72 
63 
75 
85 
79 
75 
72 
63 
59 
61 
59 
65 
70 
77 
68 
69 
78 
55 
61 
75 
54 
69 
116 
126 
159 
168 
132 
171 
140 
114 
104 
129 
135 
123 
168 
134 
196 
174 
208 
215 
226 
226 
229 
225 
225 
224 
224 
223 
225 
222 
222 
225 
220 
218 
228 
224 
226 
218 
183 
193 
132 
117 
135 
142 
100 
75 
49 
55 
60 
64 
70 
65 
59 
81 
72 
59 
84 
84 
110 
90 
114 
87 
50 
85 
70 
73 
67 
57 
78 
74 
64 
67 
71 
71 
70 
66 
71 
67 
66 
62 
70 
67 
79 
86 
82 
80 
82 
72 
64 
66 
59 
63 
70 
70 
69 
61 
62 
72 
63 
67 
59 
77 
108 
136 
178 
141 
132 
167 
125 
127 
79 
150 
113 
99 
168 
178 
196 
148 
200 
208 
222 
229 
225 
225 
225 
225 
224 
222 
227 
224 
222 
226 
224 
221 
225 
223 
229 
168 
169 
188 
145 
111 
98 
105 
67 
57 
47 
52 
60 
58 
61 
51 
72 
74 
58 
84 
96 
66 
90 
150 
137 
68 
74 
102 
64 
90 
53 
61 
73 
76 
75 
77 
74 
71 
70 
69 
75 
68 
67 
60 
62 
74 
77 
82 
83 
75 
70 
75 
79 
74 
65 
61 
68 
67 
67 
63 
66 
78 
77 
71 
62 
80 
88 
110 
173 
93 
99 
138 
133 
117 
69 
134 
115 
134 
154 
176 
185 
149 
212 
211 
220 
222 
227 
225 
225 
224 
224 
221 
227 
226 
222 
225 
227 
224 
221 
225 
218 
158 
193 
164 
116 
114 
86 
76 
49 
59 
53 
57 
58 
64 
58 
79 
85 
64 
50 
73 
71 
64 
91 
119 
75 
51 
81 
80 
92 
73 
67 
70 
66 
70 
75 
72 
64 
59 
58 
56 
66 
65 
68 
61 
62 
91 
85 
74 
80 
76 
67 
78 
86 
71 
60 
64 
71 
69 
69 
68 
67 
76 
82 
64 
79 
71 
78 
97 
133 
88 
108 
98 
114 
90 
98 
156 
126 
174 
156 
165 
171 
157 
225 
218 
228 
227 
231 
225 
224 
224 
224 
222 
226 
226 
222 
223 
225 
224 
222 
232 
187 
124 
183 
129 
107 
111 
83 
58 
50 
69 
58 
62 
53 
77 
60 
97 
103 
54 
49 
70 
50 
75 
130 
63 
47 
88 
72 
78 
81 
71 
81 
84 
68 
70 
75 
72 
71 
70 
68 
67 
71 
77 
73 
63 
63 
92 
84 
71 
69 
71 
71 
78 
85 
77 
75 
66 
73 
73 
73 
73 
66 
68 
78 
71 
87 
91 
73 
94 
113 
102 
133 
81 
98 
72 
136 
161 
100 
168 
160 
160 
166 
164 
211 
207 
226 
230 
225 
224 
224 
224 
224 
225 
224 
224 
224 
222 
223 
226 
227 
225 
142 
110 
139 
147 
106 
103 
75 
49 
63 
70 
69 
69 
72 
90 
68 
88 
80 
58 
69 
59 
51 
108 
106 
54 
80 
116 
70 
78 
76 
80 
103 
92 
76 
79 
77 
71 
76 
74 
67 
76 
76 
89 
80 
71 
71 
84 
80 
66 
60 
83 
114 
117 
99 
81 
73 
65 
71 
74 
74 
74 
67 
65 
76 
84 
105 
95 
77 
95 
92 
113 
114 
61 
88 
74 
155 
143 
68 
140 
160 
176 
182 
178 
197 
197 
217 
230 
224 
225 
224 
224 
224 
226 
222 
224 
226 
223 
224 
227 
227 
206 
112 
139 
175 
178 
89 
74 
58 
50 
74 
66 
80 
79 
104 
85 
68 
81 
57 
80 
97 
51 
87 
150 
66 
75 
118 
93 
71 
66 
68 
67 
85 
73 
69 
81 
73 
61 
68 
62 
55 
62 
68 
86 
86 
85 
81 
73 
71 
63 
64 
99 
159 
164 
123 
88 
70 
69 
70 
74 
72 
71 
70 
68 
77 
82 
105 
85 
82 
90 
62 
110 
107 
61 
70 
54 
132 
129 
60 
124 
162 
172 
198 
197 
206 
205 
217 
228 
226 
225 
225 
224 
224 
225 
222 
224 
225 
224 
227 
226 
216 
231 
143 
127 
184 
123 
66 
59 
80 
53 
69 
69 
77 
88 
119 
64 
61 
54 
63 
84 
77 
67 
110 
115 
60 
66 
99 
59 
59 
75 
58 
88 
73 
56 
63 
84 
73 
59 
67 
65 
64 
76 
87 
82 
86 
90 
80 
66 
67 
93 
98 
104 
149 
160 
114 
91 
89 
73 
69 
76 
73 
70 
75 
75 
80 
77 
88 
125 
75 
82 
68 
92 
121 
57 
55 
48 
130 
170 
92 
109 
115 
130 
200 
203 
211 
202 
219 
223 
223 
226 
225 
225 
225 
224 
223 
225 
224 
222 
228 
222 
203 
204 
168 
148 
171 
128 
59 
63 
74 
59 
63 
84 
73 
103 
126 
57 
68 
70 
90 
115 
95 
94 
116 
72 
58 
76 
68 
72 
57 
52 
76 
62 
69 
66 
77 
98 
79 
57 
61 
61 
69 
108 
115 
78 
79 
87 
80 
79 
91 
141 
149 
118 
131 
132 
77 
63 
76 
69 
65 
76 
75 
73 
82 
82 
84 
69 
110 
170 
71 
91 
80 
101 
103 
83 
76 
57 
111 
184 
126 
141 
126 
102 
206 
207 
208 
191 
223 
227 
226 
226 
226 
225 
225 
226 
226 
217 
225 
225 
226 
231 
203 
188 
151 
140 
138 
102 
58 
64 
55 
68 
50 
77 
63 
88 
79 
50 
76 
61 
98 
120 
95 
97 
96 
73 
65 
74 
49 
109 
85 
51 
68 
68 
67 
59 
72 
85 
76 
68 
71 
61 
85 
114 
121 
83 
73 
81 
75 
115 
101 
142 
169 
127 
61 
51 
51 
66 
70 
64 
69 
70 
75 
58 
77 
76 
119 
126 
120 
186 
75 
96 
73 
82 
99 
90 
71 
57 
97 
196 
131 
151 
200 
149 
220 
199 
219 
218 
234 
227 
222 
225 
225 
225 
225 
223 
227 
224 
226 
223 
224 
232 
220 
176 
139 
78 
92 
101 
44 
59 
48 
52 
90 
79 
63 
78 
47 
59 
86 
61 
82 
105 
82 
95 
78 
97 
73 
59 
61 
137 
117 
107 
83 
65 
61 
63 
65 
68 
64 
61 
71 
73 
80 
85 
83 
89 
90 
86 
82 
129 
174 
165 
134 
100 
84 
77 
61 
70 
69 
70 
71 
79 
68 
61 
79 
69 
143 
168 
142 
192 
104 
93 
87 
83 
142 
105 
75 
66 
100 
198 
125 
126 
222 
169 
208 
186 
220 
229 
228 
221 
229 
225 
225 
225 
225 
221 
225 
226 
224 
221 
221 
226 
226 
186 
143 
82 
53 
80 
44 
59 
51 
63 
139 
88 
81 
76 
69 
63 
94 
67 
96 
104 
96 
93 
71 
75 
88 
66 
86 
151 
111 
160 
120 
69 
81 
106 
109 
92 
78 
73 
71 
79 
79 
71 
78 
106 
123 
130 
112 
101 
124 
117 
56 
51 
67 
55 
55 
76 
64 
57 
82 
82 
68 
71 
89 
92 
118 
154 
151 
190 
138 
77 
123 
111 
184 
138 
65 
99 
84 
205 
158 
131 
186 
137 
209 
218 
227 
224 
226 
227 
223 
225 
225 
225 
225 
224 
224 
225 
222 
224 
224 
219 
221 
207 
181 
105 
48 
57 
64 
56 
52 
58 
145 
81 
69 
48 
63 
59 
91 
79 
100 
103 
96 
106 
70 
86 
89 
53 
105 
143 
101 
172 
115 
77 
110 
134 
122 
73 
62 
79 
71 
76 
81 
75 
68 
101 
132 
123 
123 
114 
91 
64 
75 
74 
58 
61 
70 
67 
64 
66 
67 
64 
66 
65 
81 
117 
135 
144 
123 
136 
167 
70 
101 
82 
159 
132 
85 
102 
69 
181 
205 
140 
208 
188 
227 
229 
229 
230 
223 
226 
226 
225 
225 
225 
225 
227 
225 
225 
223 
227 
228 
221 
222 
204 
179 
103 
51 
66 
49 
58 
55 
49 
117 
69 
57 
53 
54 
82 
82 
91 
91 
88 
98 
83 
53 
97 
85 
44 
106 
120 
102 
163 
113 
113 
114 
109 
91 
64 
76 
78 
52 
55 
74 
66 
49 
66 
93 
99 
112 
95 
95 
87 
69 
75 
86 
69 
52 
52 
71 
68 
55 
72 
61 
55 
78 
117 
172 
178 
135 
117 
184 
103 
95 
89 
105 
154 
104 
93 
110 
165 
209 
175 
227 
228 
225 
214 
215 
226 
217 
220 
223 
225 
225 
225 
225 
224 
225 
224 
223 
223 
225 
227 
225 
209 
131 
75 
66 
66 
51 
61 
56 
64 
92 
84 
79 
79 
91 
109 
109 
114 
76 
75 
93 
83 
59 
56 
90 
77 
107 
125 
89 
132 
162 
180 
140 
125 
117 
129 
141 
104 
74 
73 
98 
77 
64 
100 
126 
139 
159 
88 
73 
73 
85 
75 
72 
72 
66 
57 
67 
70 
73 
84 
79 
82 
81 
98 
159 
196 
182 
162 
189 
153 
140 
171 
119 
212 
148 
109 
181 
183 
208 
232 
217 
220 
229 
232 
222 
228 
230 
233 
226 
225 
225 
225 
225 
221 
224 
221 
223 
220 
222 
229 
217 
222 
151 
56 
77 
48 
85 
59 
52 
77 
79 
105 
104 
87 
105 
110 
137 
132 
82 
86 
71 
135 
92 
63 
96 
87 
95 
108 
70 
110 
165 
186 
146 
159 
171 
166 
140 
121 
145 
121 
129 
91 
68 
125 
148 
128 
173 
124 
57 
70 
86 
86 
93 
77 
66 
65 
63 
109 
85 
81 
122 
135 
91 
83 
148 
193 
193 
187 
197 
189 
156 
196 
160 
192 
195 
114 
190 
175 
207 
223 
224 
231 
222 
225 
222 
225 
223 
223 
223 
225 
225 
225 
225 
222 
225 
219 
225 
223 
222 
229 
204 
203 
228 
97 
55 
51 
59 
63 
54 
76 
74 
111 
130 
134 
108 
113 
109 
123 
141 
117 
91 
139 
102 
114 
103 
99 
103 
74 
100 
170 
159 
177 
127 
122 
182 
163 
96 
109 
174 
120 
112 
107 
95 
81 
83 
93 
150 
105 
52 
85 
115 
96 
94 
79 
52 
60 
103 
123 
77 
107 
155 
166 
134 
91 
143 
188 
191 
190 
206 
207 
167 
185 
181 
180 
206 
155 
200 
203 
221 
225 
222 
222 
217 
228 
227 
224 
224 
223 
227 
225 
225 
225 
225 
220 
226 
227 
218 
223 
224 
219 
241 
221 
233 
88 
53 
74 
56 
72 
68 
60 
95 
106 
132 
162 
87 
84 
66 
89 
163 
123 
116 
163 
147 
99 
112 
103 
98 
110 
142 
166 
144 
142 
154 
136 
135 
126 
133 
157 
115 
135 
100 
101 
106 
100 
94 
65 
104 
93 
55 
90 
110 
93 
106 
109 
96 
85 
80 
102 
97 
153 
184 
177 
169 
140 
155 
191 
193 
193 
208 
200 
174 
184 
205 
174 
218 
199 
207 
237 
227 
224 
222 
224 
224 
224 
224 
224 
224 
225 
225 
225 
225 
225 
225 
226 
221 
222 
223 
227 
220 
215 
235 
225 
191 
88 
46 
50 
77 
58 
52 
60 
95 
116 
144 
168 
115 
90 
89 
95 
150 
117 
128 
127 
125 
75 
78 
90 
137 
151 
149 
148 
135 
141 
145 
127 
127 
118 
137 
167 
111 
80 
115 
114 
115 
135 
106 
68 
111 
92 
72 
83 
85 
75 
110 
139 
142 
114 
92 
143 
181 
186 
189 
178 
137 
168 
179 
189 
195 
194 
204 
197 
180 
195 
215 
195 
215 
224 
211 
232 
217 
226 
223 
224 
224 
224 
224 
224 
224 
225 
225 
225 
225 
225 
225 
224 
224 
226 
222 
223 
226 
221 
221 
227 
210 
179 
80 
54 
58 
65 
63 
69 
90 
120 
137 
141 
151 
117 
139 
114 
162 
157 
142 
74 
99 
109 
56 
103 
156 
133 
128 
164 
158 
136 
144 
124 
139 
105 
84 
141 
146 
88 
90 
78 
83 
161 
162 
94 
100 
92 
70 
92 
81 
77 
86 
90 
101 
76 
74 
84 
80 
106 
179 
201 
209 
169 
175 
182 
194 
196 
207 
204 
193 
205 
217 
220 
214 
238 
222 
223 
218 
227 
224 
224 
224 
224 
224 
224 
224 
225 
225 
225 
225 
225 
225 
222 
225 
229 
223 
222 
231 
229 
216 
225 
235 
219 
123 
167 
53 
54 
75 
68 
88 
106 
119 
113 
148 
126 
135 
102 
146 
161 
139 
82 
120 
119 
108 
138 
154 
137 
142 
165 
166 
142 
144 
125 
156 
138 
83 
98 
124 
112 
80 
87 
88 
102 
126 
126 
114 
100 
72 
83 
94 
80 
86 
66 
68 
86 
88 
72 
72 
147 
200 
178 
174 
172 
178 
186 
195 
196 
210 
214 
205 
212 
216 
233 
221 
229 
233 
217 
229 
225 
224 
224 
224 
224 
224 
224 
224 
225 
225 
225 
225 
225 
225 
227 
222 
225 
229 
225 
226 
228 
220 
223 
213 
200 
148 
190 
80 
67 
84 
56 
82 
89 
111 
144 
147 
153 
142 
117 
97 
148 
103 
100 
133 
127 
133 
141 
138 
172 
161 
111 
141 
155 
120 
107 
152 
172 
113 
79 
113 
132 
93 
92 
93 
86 
110 
114 
94 
99 
79 
79 
79 
89 
82 
74 
92 
91 
90 
41 
38 
121 
179 
156 
172 
185 
187 
201 
201 
195 
210 
220 
214 
220 
222 
229 
228 
217 
236 
220 
231 
222 
224 
224 
224 
224 
224 
224 
224 
225 
225 
225 
225 
225 
225 
225 
225 
225 
226 
222 
224 
228 
216 
239 
209 
194 
174 
157 
155 
132 
138 
79 
97 
68 
90 
141 
92 
155 
137 
151 
103 
139 
117 
113 
118 
142 
109 
138 
151 
161 
147 
118 
91 
93 
145 
128 
80 
113 
177 
163 
125 
95 
109 
104 
99 
105 
87 
61 
90 
116 
76 
80 
71 
87 
74 
84 
112 
123 
128 
101 
45 
36 
152 
176 
166 
171 
186 
206 
208 
203 
218 
229 
222 
225 
223 
220 
231 
218 
230 
226 
221 
223 
224 
224 
224 
224 
224 
224 
224 
225 
225 
225 
225 
225 
225 
221 
229 
225 
221 
221 
226 
229 
212 
222 
232 
224 
214 
165 
155 
170 
190 
112 
64 
109 
87 
73 
81 
112 
144 
142 
137 
121 
149 
144 
119 
129 
120 
120 
159 
162 
122 
83 
71 
94 
108 
95 
72 
82 
126 
149 
171 
172 
153 
130 
111 
114 
119 
109 
97 
97 
130 
129 
142 
123 
128 
141 
130 
187 
176 
125 
136 
167 
152 
167 
182 
183 
195 
204 
217 
216 
226 
231 
224 
226 
221 
219 
228 
222 
224 
226 
217 
225 
224 
224 
224 
224 
224 
224 
224 
225 
225 
225 
225 
225 
225 
225 
225 
218 
225 
228 
223 
224 
216 
231 
225 
220 
197 
136 
97 
192 
107 
153 
120 
179 
187 
77 
91 
141 
138 
139 
127 
145 
100 
135 
119 
151 
131 
128 
171 
151 
126 
128 
115 
125 
111 
92 
88 
91 
125 
144 
147 
196 
171 
148 
150 
151 
157 
152 
144 
137 
157 
168 
161 
181 
178 
202 
189 
197 
190 
181 
197 
200 
193 
191 
199 
195 
201 
206 
225 
224 
224 
222 
219 
226 
223 
223 
225 
220 
222 
223 
222 
226 
223 
224 
224 
224 
224 
224 
224 
225 
225 
225 
225 
225 
225 
223 
224 
224 
223 
224 
224 
222 
220 
230 
219 
223 
201 
132 
90 
178 
140 
104 
204 
164 
172 
149 
105 
124 
147 
166 
163 
131 
176 
123 
140 
152 
133 
132 
168 
163 
145 
166 
156 
166 
165 
153 
144 
131 
131 
149 
157 
200 
193 
190 
178 
170 
159 
163 
172 
172 
184 
179 
180 
182 
181 
188 
177 
199 
189 
174 
178 
198 
195 
208 
216 
210 
213 
220 
222 
223 
223 
222 
222 
222 
223 
223 
223 
223 
223 
223 
223 
224 
224 
225 
224 
224 
224 
224 
224 
225 
225 
225 
225 
225 
225 
224 
224 
224 
224 
224 
223 
223 
222 
221 
226 
226 
228 
181 
144 
102 
179 
134 
102 
200 
145 
95 
118 
123 
164 
171 
173 
180 
173 
198 
147 
160 
132 
107 
113 
119 
131 
165 
176 
188 
158 
130 
126 
147 
154 
117 
97 
140 
188 
212 
194 
173 
161 
168 
182 
194 
209 
199 
196 
180 
168 
179 
175 
194 
186 
136 
147 
178 
188 
211 
224 
222 
226 
221 
222 
223 
223 
222 
222 
222 
223 
223 
223 
223 
223 
223 
223 
224 
224 
225 
224 
224 
224 
224 
224 
225 
225 
225 
225 
225 
225 
224 
223 
224 
225 
224 
222 
223 
226 
219 
225 
227 
225 
224 
205 
183 
89 
112 
127 
71 
169 
157 
90 
153 
139 
185 
173 
179 
173 
160 
189 
166 
145 
134 
145 
156 
152 
151 
151 
182 
182 
166 
170 
189 
203 
163 
109 
85 
149 
196 
188 
177 
179 
174 
162 
170 
187 
192 
204 
194 
185 
205 
201 
207 
201 
172 
181 
204 
207 
223 
228 
222 
224 
222 
222 
223 
222 
222 
222 
223 
223 
223 
223 
223 
223 
223 
223 
224 
224 
224 
224 
224 
224 
224 
224 
225 
225 
225 
225 
225 
225 
225 
222 
223 
226 
225 
221 
223 
229 
222 
217 
220 
228 
231 
216 
230 
156 
111 
74 
133 
130 
212 
136 
128 
167 
143 
189 
173 
176 
186 
190 
161 
165 
168 
198 
200 
184 
180 
152 
157 
179 
203 
190 
179 
189 
187 
165 
132 
175 
194 
192 
189 
195 
171 
132 
141 
170 
174 
193 
186 
178 
201 
200 
211 
223 
216 
217 
226 
218 
225 
225 
222 
223 
223 
223 
223 
222 
222 
222 
223 
224 
223 
223 
223 
223 
223 
223 
224 
224 
224 
224 
224 
224 
224 
225 
225 
225 
225 
225 
225 
225 
225 
222 
223 
226 
225 
221 
224 
230 
218 
225 
217 
219 
226 
214 
210 
241 
148 
141 
197 
177 
136 
184 
154 
159 
207 
157 
191 
192 
194 
170 
183 
181 
156 
182 
181 
185 
210 
188 
171 
190 
190 
187 
203 
214 
199 
196 
204 
214 
210 
212 
208 
213 
194 
163 
173 
195 
192 
205 
196 
189 
206 
204 
213 
236 
221 
221 
224 
216 
223 
222 
224 
228 
224 
223 
223 
222 
222 
223 
223 
223 
223 
223 
223 
223 
223 
223 
224 
224 
224 
224 
224 
224 
225 
225 
225 
225 
225 
225 
225 
225 
225 
223 
223 
225 
224 
223 
224 
229 
215 
228 
223 
210 
225 
228 
228 
205 
188 
212 
176 
194 
210 
161 
192 
191 
171 
198 
181 
172 
190 
191 
204 
190 
196 
200 
197 
200 
209 
194 
183 
193 
198 
184 
179 
184 
189 
190 
201 
188 
184 
190 
189 
196 
204 
205 
206 
205 
208 
214 
212 
213 
223 
217 
215 
227 
222 
224 
227 
222 
228 
223 
223 
224 
224 
223 
223 
223 
223 
224 
223 
223 
223 
223 
223 
223 
223 
223 
224 
224 
224 
224 
224 
225 
225 
225 
225 
224 
225 
225 
225 
225 
224 
224 
223 
223 
224 
224 
225 
226 
221 
220 
226 
226 
224 
227 
222 
229 
221 
214 
221 
208 
212 
205 
196 
198 
196 
188 
202 
199 
171 
167 
183 
195 
194 
189 
193 
202 
202 
193 
182 
183 
176 
185 
182 
179 
185 
178 
188 
197 
193 
192 
191 
192 
211 
230 
228 
224 
225 
223 
222 
223 
225 
227 
226 
230 
221 
224 
226 
223 
229 
222 
224 
223 
224 
224 
223 
223 
224 
224 
223 
222 
223 
223 
223 
223 
223 
223 
224 
224 
223 
224 
224 
225 
225 
225 
224 
224 
224 
224 
224 
224 
223 
224 
223 
222 
223 
225 
225 
224 
225 
226 
223 
217 
227 
218 
231 
222 
224 
227 
217 
220 
216 
218 
207 
207 
204 
208 
204 
200 
203 
192 
187 
199 
196 
197 
201 
208 
208 
199 
190 
200 
200 
201 
206 
207 
204 
206 
209 
206 
219 
214 
217 
216 
223 
229 
220 
224 
223 
222 
228 
226 
219 
224 
224 
220 
223 
225 
224 
221 
227 
221 
225 
226 
224 
224 
223 
224 
225 
225 
223 
222 
223 
223 
223 
223 
223 
223 
224 
224 
223 
224 
224 
225 
225 
225 
224 
224 
224 
224 
224 
224 
224 
224 
224 
224 
224 
224 
225 
225 
225 
224 
223 
223 
224 
225 
225 
225 
225 
225 
225 
224 
223 
222 
221 
221 
218 
216 
214 
214 
215 
215 
214 
212 
214 
212 
214 
220 
221 
215 
212 
213 
217 
219 
223 
225 
226 
223 
219 
216 
228 
228 
226 
225 
224 
223 
224 
224 
224 
224 
224 
224 
224 
224 
224 
224 
224 
224 
224 
224 
224 
224 
224 
224 
224 
224 
224 
224 
224 
224 
223 
223 
223 
223 
223 
223 
223 
223 
223 
223 
223 
223 
224 
225 
225 
225 
224 
224 
224 
224 
224 
224 
224 
224 
224 
224 
224 
224 
225 
225 
225 
224 
223 
222 
223 
223 
223 
222 
222 
222 
222 
221 
221 
221 
220 
220 
220 
219 
218 
219 
221 
223 
223 
222 
225 
222 
224 
229 
230 
225 
223 
223 
224 
223 
223 
222 
223 
223 
223 
223 
219 
220 
221 
221 
221 
222 
223 
224 
224 
224 
224 
224 
224 
224 
224 
224 
224 
224 
224 
224 
224 
224 
224 
224 
224 
224 
224 
224 
224 
224 
223 
223 
223 
223 
223 
223 
223 
223 
223 
223 
223 
223 
224 
225 
225 
225 
224 
224 
224 
224 
224 
224 
224 
224 
224 
224 
224 
224 
225 
225 
225 
224 
223 
222 
222 
222 
222 
222 
221 
221 
221 
220 
220 
219 
219 
218 
225 
223 
221 
221 
223 
224 
224 
224 
223 
221 
221 
225 
226 
223 
222 
222 
226 
224 
222 
220 
219 
221 
223 
224 
217 
219 
222 
223 
223 
223 
224 
225 
224 
224 
224 
224 
224 
224 
224 
224 
224 
224 
224 
224 
224 
224 
224 
224 
224 
224 
224 
224 
224 
224 
223 
223 
223 
223 
223 
223 
223 
223 
223 
223 
223 
223 
224 
225 
225 
225 
224 
224 
224 
224 
224 
224 
224 
224 
224 
224 
224 
224 
225 
225 
224 
224 
223 
223 
224 
224 
224 
223 
223 
223 
222 
222 
221 
220 
219 
219 
227 
225 
222 
221 
221 
222 
222 
222 
225 
222 
221 
222 
224 
224 
223 
222 
224 
223 
223 
222 
221 
221 
221 
222 
223 
224 
226 
226 
225 
224 
224 
225 
224 
224 
224 
224 
224 
224 
224 
224 
224 
224 
224 
224 
224 
224 
224 
224 
224 
224 
224 
224 
224 
224 
223 
223 
223 
223 
223 
223 
223 
223 
223 
223 
223 
223 
224 
225 
225 
225 
224 
224 
224 
224 
224 
224 
224 
224 
224 
224 
224 
224 
225 
225 
224 
224 
223 
223 
224 
224 
223 
222 
223 
223 
223 
223 
222 
222 
221 
221 
224 
222 
221 
220 
221 
223 
225 
226 
227 
225 
223 
222 
224 
226 
226 
224 
223 
224 
225 
225 
224 
223 
222 
223 
225 
225 
225 
224 
223 
223 
223 
223 
224 
224 
224 
224 
224 
224 
224 
224 
224 
224 
224 
224 
224 
224 
224 
224 
224 
224 
224 
224 
224 
224 
223 
223 
223 
223 
223 
223 
223 
223 
223 
223 
223 
223 
224 
225 
225 
225 
224 
224 
224 
224 
224 
224 
224 
224 
224 
224 
224 
224 
225 
225 
224 
224 
223 
222 
222 
221 
220 
219 
221 
221 
222 
222 
223 
223 
223 
223 
222 
221 
220 
220 
220 
222 
225 
226 
224 
223 
220 
218 
220 
224 
224 
221 
223 
224 
224 
223 
222 
221 
223 
224 
224 
222 
220 
220 
222 
224 
224 
224 
224 
224 
224 
224 
224 
224 
224 
224 
224 
224 
224 
224 
224 
224 
224 
224 
224 
224 
224 
224 
224 
224 
223 
223 
223 
223 
223 
223 
223 
223 
223 
223 
223 
223 
224 
225 
225 
225 
224 
224 
224 
224 
224 
224 
