P2
# Created by MsrVolt
38 46
255
224 
224 
224 
224 
224 
224 
224 
224 
224 
224 
224 
224 
224 
224 
223 
223 
223 
223 
224 
224 
224 
223 
222 
222 
222 
222 
223 
223 
223 
223 
223 
223 
223 
223 
223 
223 
223 
223 
224 
224 
224 
224 
224 
224 
224 
224 
224 
224 
224 
224 
224 
224 
223 
223 
223 
223 
224 
224 
223 
223 
222 
222 
222 
222 
222 
222 
223 
223 
223 
223 
223 
223 
223 
223 
223 
223 
224 
224 
224 
224 
224 
224 
224 
224 
224 
224 
224 
224 
224 
224 
223 
223 
223 
223 
223 
223 
223 
222 
222 
222 
222 
222 
222 
222 
222 
222 
223 
223 
223 
223 
223 
223 
223 
223 
224 
224 
224 
224 
224 
224 
224 
224 
224 
224 
224 
224 
224 
224 
223 
223 
224 
223 
223 
223 
223 
223 
223 
223 
223 
223 
222 
222 
222 
222 
223 
223 
223 
223 
223 
223 
223 
223 
224 
224 
224 
224 
224 
224 
224 
224 
224 
224 
224 
224 
224 
224 
223 
223 
223 
223 
223 
223 
223 
224 
224 
225 
224 
224 
224 
223 
223 
223 
223 
223 
223 
223 
223 
223 
223 
223 
224 
224 
224 
224 
224 
224 
224 
224 
224 
224 
224 
224 
224 
224 
223 
223 
223 
223 
223 
223 
224 
224 
224 
224 
224 
224 
224 
224 
224 
223 
223 
222 
223 
223 
223 
223 
223 
223 
224 
224 
224 
224 
224 
224 
224 
224 
224 
224 
224 
224 
224 
224 
223 
223 
222 
223 
223 
223 
223 
222 
222 
221 
222 
222 
224 
224 
225 
224 
223 
223 
223 
223 
223 
223 
223 
223 
224 
224 
224 
224 
224 
224 
224 
224 
224 
224 
224 
224 
224 
224 
223 
223 
222 
223 
223 
223 
222 
221 
220 
219 
220 
221 
223 
224 
225 
224 
224 
223 
223 
223 
223 
223 
223 
223 
225 
224 
224 
223 
224 
224 
225 
225 
224 
223 
224 
224 
225 
226 
223 
219 
225 
223 
223 
216 
225 
221 
219 
216 
215 
226 
220 
223 
224 
226 
223 
222 
220 
226 
220 
225 
224 
220 
224 
224 
223 
223 
223 
223 
223 
223 
226 
221 
221 
225 
228 
224 
224 
213 
221 
240 
216 
197 
192 
190 
204 
182 
194 
207 
206 
218 
234 
221 
227 
225 
225 
223 
217 
227 
224 
221 
223 
223 
223 
223 
223 
222 
222 
222 
223 
221 
223 
223 
223 
219 
232 
217 
225 
204 
192 
186 
178 
165 
158 
192 
178 
176 
195 
176 
215 
210 
225 
222 
216 
215 
216 
226 
223 
227 
223 
223 
223 
223 
223 
222 
222 
221 
221 
222 
224 
219 
218 
219 
227 
192 
182 
190 
167 
179 
184 
163 
155 
177 
145 
139 
187 
133 
187 
223 
233 
217 
219 
222 
227 
222 
220 
221 
223 
223 
224 
224 
224 
223 
222 
222 
222 
222 
221 
216 
221 
224 
204 
142 
138 
178 
159 
157 
171 
160 
130 
119 
125 
138 
179 
140 
150 
188 
208 
222 
229 
228 
227 
217 
227 
218 
223 
223 
224 
224 
224 
224 
223 
223 
220 
221 
223 
220 
219 
223 
191 
142 
145 
161 
153 
132 
140 
137 
94 
81 
106 
121 
112 
164 
152 
147 
164 
222 
225 
226 
215 
216 
239 
223 
223 
223 
223 
223 
223 
224 
224 
225 
220 
217 
225 
228 
211 
207 
178 
170 
157 
163 
137 
122 
113 
105 
106 
66 
79 
104 
53 
149 
183 
167 
156 
198 
194 
224 
207 
217 
234 
220 
223 
223 
222 
222 
223 
224 
225 
225 
226 
213 
221 
232 
206 
189 
153 
170 
160 
124 
126 
118 
96 
87 
91 
66 
94 
165 
96 
111 
157 
162 
152 
175 
141 
210 
198 
212 
219 
218 
223 
222 
224 
220 
226 
225 
215 
228 
222 
221 
226 
232 
205 
162 
152 
159 
136 
124 
124 
101 
78 
89 
66 
93 
113 
159 
102 
63 
158 
144 
133 
142 
90 
193 
196 
231 
218 
233 
223 
223 
222 
223 
223 
222 
223 
218 
232 
220 
220 
209 
197 
163 
153 
131 
144 
107 
84 
106 
100 
72 
53 
115 
105 
100 
68 
111 
161 
172 
132 
79 
97 
194 
183 
223 
219 
230 
223 
223 
220 
226 
221 
221 
231 
213 
232 
223 
223 
193 
170 
134 
139 
125 
117 
111 
78 
77 
86 
70 
98 
174 
73 
58 
63 
114 
179 
144 
95 
61 
97 
191 
169 
207 
222 
232 
222 
223 
222 
225 
223 
223 
229 
219 
215 
226 
229 
212 
172 
126 
123 
137 
119 
121 
96 
70 
85 
74 
108 
158 
116 
69 
70 
126 
151 
145 
90 
77 
105 
203 
181 
195 
221 
221 
223 
223 
224 
221 
224 
224 
219 
229 
218 
223 
192 
191 
163 
138 
121 
149 
148 
125 
101 
76 
79 
84 
86 
96 
76 
60 
87 
111 
95 
137 
100 
95 
99 
202 
200 
190 
222 
215 
224 
223 
225 
219 
224 
223 
213 
231 
230 
215 
150 
143 
135 
143 
128 
150 
146 
117 
112 
110 
68 
78 
80 
113 
73 
64 
81 
47 
113 
174 
148 
104 
91 
185 
204 
192 
229 
225 
223 
223 
224 
222 
222 
222 
221 
225 
223 
203 
158 
145 
146 
150 
147 
151 
143 
107 
128 
156 
95 
67 
72 
129 
171 
129 
118 
94 
112 
182 
200 
157 
138 
197 
208 
200 
228 
228 
222 
224 
222 
226 
221 
222 
233 
220 
217 
190 
173 
159 
163 
153 
169 
167 
152 
116 
130 
139 
112 
90 
85 
86 
181 
152 
155 
160 
84 
107 
170 
182 
198 
221 
214 
207 
223 
227 
224 
223 
225 
220 
226 
227 
217 
228 
233 
187 
142 
115 
152 
159 
158 
175 
140 
135 
110 
88 
116 
99 
79 
103 
161 
161 
162 
130 
100 
103 
61 
123 
206 
213 
197 
213 
230 
221 
222 
224 
224 
224 
220 
220 
226 
226 
220 
212 
171 
138 
148 
177 
154 
158 
116 
111 
120 
100 
167 
122 
93 
96 
80 
162 
162 
147 
139 
152 
113 
169 
219 
223 
209 
215 
224 
222 
222 
223 
222 
228 
220 
219 
234 
225 
186 
159 
201 
201 
173 
152 
144 
136 
100 
95 
123 
154 
176 
138 
86 
88 
114 
144 
100 
103 
175 
193 
143 
183 
223 
224 
224 
224 
223 
225 
225 
222 
220 
227 
225 
221 
227 
222 
191 
157 
155 
163 
166 
199 
171 
152 
80 
52 
95 
143 
111 
80 
65 
81 
138 
145 
138 
146 
179 
187 
132 
184 
218 
214 
227 
227 
222 
228 
227 
222 
222 
223 
225 
220 
213 
225 
193 
189 
178 
140 
107 
141 
151 
171 
88 
62 
93 
143 
82 
67 
71 
95 
79 
117 
150 
168 
104 
149 
154 
224 
233 
218 
229 
227 
215 
218 
223 
222 
226 
221 
224 
221 
214 
237 
211 
178 
187 
166 
118 
85 
118 
165 
66 
60 
66 
113 
76 
77 
82 
102 
74 
84 
110 
154 
87 
103 
176 
224 
233 
219 
228 
229 
218 
218 
221 
222 
224 
223 
224 
225 
225 
231 
218 
201 
173 
174 
159 
142 
143 
181 
93 
74 
70 
86 
85 
59 
88 
92 
118 
101 
105 
136 
110 
59 
175 
209 
218 
212 
222 
228 
226 
229 
224 
224 
220 
225 
223 
225 
228 
207 
212 
219 
224 
199 
175 
154 
156 
125 
68 
51 
52 
104 
87 
64 
90 
90 
106 
109 
102 
126 
157 
118 
221 
226 
233 
229 
227 
224 
221 
223 
224 
223 
222 
223 
223 
223 
225 
228 
234 
216 
183 
193 
201 
168 
184 
103 
67 
45 
56 
144 
113 
80 
84 
107 
108 
171 
144 
138 
163 
225 
216 
217 
225 
224 
223 
222 
222 
223 
222 
222 
223 
225 
224 
222 
222 
224 
210 
234 
213 
199 
209 
135 
158 
104 
58 
73 
46 
100 
102 
64 
54 
70 
84 
118 
129 
171 
206 
229 
221 
227 
225 
224 
223 
223 
223 
223 
222 
223 
224 
225 
223 
222 
223 
226 
214 
233 
228 
217 
216 
120 
130 
135 
72 
83 
49 
71 
87 
72 
91 
75 
79 
104 
144 
195 
226 
226 
223 
221 
224 
224 
224 
223 
223 
224 
224 
223 
224 
223 
222 
222 
226 
231 
224 
227 
226 
222 
201 
112 
89 
180 
109 
69 
60 
85 
95 
76 
94 
76 
93 
131 
176 
206 
224 
224 
229 
223 
224 
224 
224 
224 
224 
224 
224 
223 
223 
223 
222 
222 
225 
229 
212 
225 
217 
218 
214 
153 
85 
144 
111 
92 
92 
91 
79 
79 
70 
93 
138 
177 
203 
220 
226 
222 
222 
227 
224 
224 
224 
225 
225 
224 
222 
222 
223 
224 
224 
222 
221 
222 
216 
223 
221 
223 
231 
223 
174 
113 
82 
73 
69 
86 
76 
119 
102 
141 
195 
222 
220 
222 
224 
224 
217 
223 
224 
224 
224 
225 
225 
224 
223 
222 
222 
224 
224 
222 
220 
219 
230 
227 
233 
222 
212 
235 
245 
174 
141 
85 
82 
163 
176 
194 
184 
199 
220 
232 
221 
218 
223 
228 
226 
226 
224 
224 
224 
224 
224 
224 
225 
222 
221 
222 
224 
223 
222 
221 
223 
223 
225 
214 
213 
224 
228 
216 
224 
187 
183 
233 
236 
214 
236 
228 
228 
224 
220 
226 
229 
220 
222 
223 
225 
224 
224 
224 
224 
224 
222 
222 
223 
223 
223 
223 
222 
222 
219 
216 
220 
226 
226 
219 
219 
226 
229 
226 
221 
218 
222 
227 
226 
220 
225 
224 
223 
222 
222 
223 
224 
225 
224 
224 
224 
224 
224 
224 
222 
222 
223 
223 
223 
223 
222 
222 
220 
218 
220 
224 
223 
219 
221 
226 
225 
226 
223 
220 
222 
226 
225 
221 
224 
224 
223 
222 
222 
223 
224 
224 
224 
224 
224 
224 
224 
224 
222 
223 
223 
223 
223 
223 
222 
221 
221 
221 
221 
221 
220 
220 
222 
225 
222 
225 
226 
223 
222 
224 
224 
222 
224 
223 
223 
223 
223 
223 
223 
224 
223 
223 
223 
223 
223 
223 
222 
223 
223 
223 
223 
222 
222 
221 
221 
222 
222 
220 
219 
221 
223 
223 
221 
224 
226 
224 
222 
223 
223 
222 
223 
223 
223 
223 
223 
223 
223 
223 
223 
223 
223 
223 
223 
223 
223 
223 
223 
223 
223 
222 
222 
221 
221 
222 
222 
220 
220 
222 
223 
222 
223 
224 
224 
223 
223 
223 
223 
223 
223 
223 
223 
224 
224 
223 
223 
223 
223 
223 
223 
223 
223 
223 
223 
223 
223 
223 
223 
222 
221 
221 
221 
221 
221 
221 
221 
222 
222 
221 
224 
223 
222 
222 
223 
224 
224 
223 
223 
223 
223 
224 
224 
223 
223 
223 
223 
223 
223 
223 
223 
223 
