P2
# Created by MsrVolt
110 41
255
214 
214 
214 
215 
215 
214 
214 
214 
214 
214 
214 
214 
214 
214 
214 
214 
215 
215 
215 
214 
214 
214 
214 
213 
212 
213 
214 
215 
214 
214 
214 
214 
214 
214 
214 
214 
214 
214 
215 
215 
215 
214 
214 
214 
214 
214 
214 
215 
213 
211 
212 
214 
215 
214 
213 
214 
210 
211 
212 
212 
211 
211 
211 
211 
211 
213 
211 
211 
213 
211 
208 
211 
210 
209 
210 
211 
212 
212 
210 
209 
211 
211 
211 
211 
211 
211 
211 
211 
212 
212 
212 
213 
213 
213 
213 
213 
213 
214 
214 
215 
214 
214 
214 
214 
214 
214 
214 
214 
214 
214 
213 
214 
214 
214 
214 
214 
214 
213 
214 
214 
214 
214 
214 
214 
214 
214 
215 
215 
214 
214 
214 
214 
214 
213 
212 
213 
215 
215 
215 
214 
214 
215 
214 
214 
214 
214 
214 
214 
214 
214 
214 
214 
214 
214 
214 
214 
214 
214 
216 
215 
214 
216 
216 
213 
211 
211 
212 
212 
212 
212 
211 
211 
211 
212 
208 
211 
211 
210 
212 
214 
213 
213 
210 
210 
209 
207 
207 
209 
213 
216 
211 
211 
211 
211 
211 
211 
211 
211 
210 
211 
211 
212 
212 
212 
211 
211 
213 
214 
214 
214 
214 
214 
214 
214 
214 
214 
214 
214 
215 
215 
214 
214 
214 
214 
214 
214 
214 
214 
214 
214 
214 
214 
214 
214 
214 
214 
215 
214 
214 
214 
214 
214 
213 
213 
213 
214 
215 
215 
215 
214 
215 
215 
214 
214 
214 
215 
215 
214 
214 
213 
214 
214 
214 
214 
214 
214 
214 
214 
214 
213 
214 
216 
216 
214 
213 
212 
211 
212 
212 
212 
211 
210 
211 
211 
213 
215 
215 
211 
210 
211 
210 
207 
213 
210 
208 
208 
211 
212 
210 
208 
211 
211 
211 
211 
211 
211 
211 
211 
210 
211 
212 
213 
213 
213 
212 
211 
213 
213 
214 
214 
214 
213 
214 
214 
215 
215 
215 
215 
215 
215 
215 
215 
214 
214 
214 
214 
215 
215 
214 
214 
214 
214 
214 
214 
214 
214 
214 
214 
214 
214 
213 
213 
213 
213 
213 
214 
214 
214 
214 
214 
214 
215 
214 
214 
214 
214 
214 
214 
214 
214 
214 
214 
214 
214 
214 
214 
214 
214 
213 
213 
213 
214 
215 
214 
214 
213 
209 
210 
211 
212 
211 
211 
210 
210 
211 
210 
212 
212 
211 
212 
213 
211 
207 
207 
208 
210 
212 
213 
212 
210 
211 
211 
211 
211 
211 
211 
211 
212 
211 
212 
213 
213 
213 
213 
212 
212 
213 
213 
214 
214 
214 
213 
214 
214 
215 
215 
215 
215 
215 
216 
214 
214 
213 
213 
213 
213 
214 
214 
214 
214 
214 
214 
214 
214 
214 
214 
214 
214 
214 
214 
213 
213 
213 
213 
212 
213 
213 
213 
213 
213 
213 
214 
214 
214 
213 
213 
213 
214 
215 
215 
213 
214 
214 
214 
214 
214 
214 
213 
217 
216 
215 
214 
213 
213 
213 
212 
210 
211 
211 
210 
210 
211 
212 
213 
215 
209 
211 
215 
212 
210 
211 
211 
212 
213 
213 
209 
205 
205 
209 
214 
211 
211 
211 
211 
211 
212 
212 
212 
212 
211 
211 
211 
211 
211 
212 
212 
213 
214 
214 
214 
214 
214 
214 
214 
215 
215 
215 
215 
216 
216 
213 
212 
212 
211 
211 
212 
212 
213 
214 
214 
214 
214 
214 
214 
214 
214 
214 
214 
213 
213 
213 
213 
213 
212 
212 
213 
213 
213 
212 
212 
213 
213 
214 
214 
213 
213 
213 
214 
214 
214 
213 
213 
214 
214 
214 
214 
213 
213 
216 
216 
215 
214 
214 
216 
215 
214 
214 
213 
211 
210 
209 
211 
214 
216 
215 
208 
211 
216 
211 
210 
213 
211 
213 
210 
207 
208 
212 
213 
212 
210 
211 
211 
211 
211 
212 
212 
212 
212 
213 
213 
212 
211 
211 
212 
213 
214 
213 
214 
215 
215 
215 
214 
214 
215 
215 
215 
215 
215 
215 
216 
213 
213 
212 
211 
211 
212 
213 
213 
214 
214 
214 
214 
214 
214 
214 
214 
214 
213 
213 
213 
213 
213 
212 
212 
213 
213 
213 
213 
212 
212 
213 
214 
214 
214 
215 
215 
214 
213 
212 
211 
213 
213 
214 
214 
214 
214 
213 
213 
211 
213 
214 
214 
215 
217 
217 
214 
212 
212 
212 
212 
211 
211 
212 
212 
205 
204 
211 
213 
209 
217 
223 
215 
203 
202 
204 
210 
218 
221 
218 
214 
211 
211 
211 
211 
212 
212 
212 
212 
214 
214 
214 
213 
213 
214 
215 
215 
214 
215 
215 
216 
215 
215 
215 
215 
215 
215 
215 
215 
215 
215 
215 
214 
213 
213 
213 
213 
214 
215 
214 
214 
214 
214 
214 
214 
214 
214 
214 
213 
213 
213 
213 
212 
212 
212 
214 
214 
214 
213 
212 
212 
213 
214 
214 
215 
216 
216 
215 
213 
210 
209 
213 
213 
214 
215 
215 
214 
213 
213 
210 
212 
214 
213 
214 
215 
212 
209 
206 
209 
214 
216 
215 
211 
207 
204 
214 
215 
220 
213 
204 
213 
217 
201 
213 
219 
222 
217 
206 
201 
205 
211 
211 
211 
211 
212 
212 
212 
212 
212 
213 
213 
213 
213 
213 
213 
213 
213 
214 
215 
216 
216 
216 
215 
215 
216 
214 
215 
215 
215 
215 
215 
213 
213 
213 
213 
213 
214 
214 
214 
215 
215 
216 
215 
214 
214 
213 
212 
218 
208 
214 
215 
212 
211 
214 
216 
218 
212 
208 
210 
212 
212 
208 
216 
215 
209 
210 
219 
211 
210 
221 
210 
211 
219 
210 
212 
218 
215 
218 
215 
211 
222 
220 
210 
216 
216 
204 
210 
205 
199 
194 
185 
199 
208 
191 
197 
197 
179 
216 
214 
199 
213 
202 
202 
227 
206 
203 
204 
208 
221 
222 
211 
207 
209 
212 
211 
215 
217 
211 
214 
215 
214 
214 
213 
215 
211 
207 
214 
215 
215 
215 
215 
215 
215 
215 
215 
215 
215 
215 
215 
215 
215 
213 
213 
213 
213 
213 
214 
214 
215 
216 
214 
213 
214 
215 
215 
217 
220 
214 
210 
214 
211 
218 
211 
219 
212 
211 
209 
216 
207 
214 
220 
215 
217 
221 
218 
208 
211 
217 
221 
221 
208 
200 
211 
214 
214 
212 
210 
214 
216 
213 
200 
204 
206 
204 
205 
202 
199 
190 
131 
94 
89 
109 
126 
114 
110 
103 
90 
136 
166 
177 
191 
179 
179 
208 
202 
220 
220 
210 
216 
214 
206 
214 
211 
211 
209 
212 
215 
211 
216 
212 
211 
216 
218 
215 
216 
214 
210 
215 
215 
215 
215 
215 
215 
215 
215 
215 
215 
215 
215 
215 
215 
214 
214 
214 
214 
214 
214 
215 
215 
214 
212 
214 
218 
218 
213 
211 
212 
216 
221 
210 
213 
213 
215 
216 
213 
215 
214 
214 
209 
214 
210 
213 
208 
207 
221 
216 
209 
210 
210 
210 
207 
201 
194 
198 
202 
207 
211 
204 
198 
203 
183 
181 
180 
174 
172 
161 
148 
140 
85 
61 
58 
68 
93 
92 
77 
68 
64 
85 
92 
94 
107 
112 
117 
127 
149 
202 
211 
203 
220 
217 
201 
212 
211 
217 
216 
215 
213 
207 
210 
207 
202 
213 
221 
214 
213 
217 
213 
215 
215 
215 
215 
215 
215 
215 
215 
215 
215 
215 
215 
215 
215 
214 
214 
214 
214 
214 
215 
215 
215 
217 
216 
214 
213 
214 
216 
219 
221 
213 
216 
221 
212 
224 
213 
214 
212 
214 
205 
205 
213 
215 
207 
206 
207 
203 
210 
210 
207 
206 
201 
194 
186 
182 
174 
190 
197 
191 
187 
178 
180 
176 
177 
164 
137 
121 
106 
85 
80 
75 
61 
72 
74 
64 
69 
70 
62 
61 
67 
76 
72 
59 
53 
56 
62 
64 
55 
100 
139 
173 
215 
222 
215 
217 
211 
212 
209 
209 
211 
200 
192 
196 
192 
197 
214 
216 
209 
211 
212 
215 
215 
215 
215 
215 
215 
215 
215 
215 
215 
215 
215 
215 
215 
214 
214 
214 
214 
214 
215 
215 
215 
215 
218 
218 
214 
213 
215 
215 
211 
214 
214 
216 
212 
214 
217 
209 
220 
215 
208 
206 
202 
194 
201 
191 
185 
184 
181 
193 
200 
190 
184 
182 
177 
182 
165 
176 
189 
187 
178 
164 
165 
171 
168 
150 
111 
77 
58 
49 
56 
61 
56 
69 
80 
72 
59 
56 
66 
67 
63 
73 
95 
93 
67 
56 
63 
62 
58 
69 
56 
76 
152 
199 
207 
214 
214 
219 
212 
204 
205 
199 
191 
181 
198 
201 
213 
226 
219 
213 
213 
215 
215 
215 
215 
215 
215 
215 
215 
215 
215 
215 
215 
215 
215 
214 
214 
214 
214 
214 
214 
215 
215 
212 
216 
217 
216 
216 
216 
214 
210 
211 
211 
213 
212 
215 
215 
202 
199 
198 
144 
168 
175 
177 
185 
172 
217 
183 
170 
184 
190 
169 
155 
155 
158 
140 
145 
159 
155 
129 
111 
121 
147 
170 
128 
109 
90 
61 
53 
58 
59 
55 
54 
53 
56 
61 
60 
62 
70 
71 
62 
68 
84 
84 
67 
55 
58 
65 
58 
66 
60 
45 
73 
152 
222 
208 
201 
211 
217 
211 
195 
161 
131 
159 
209 
220 
216 
221 
217 
215 
215 
215 
215 
215 
215 
215 
215 
215 
215 
215 
215 
215 
215 
215 
215 
213 
213 
213 
213 
213 
214 
214 
215 
217 
212 
209 
211 
212 
213 
217 
223 
197 
197 
202 
195 
219 
198 
197 
154 
151 
164 
143 
157 
163 
144 
198 
173 
198 
168 
159 
158 
149 
131 
109 
102 
111 
131 
138 
125 
95 
71 
80 
99 
117 
70 
59 
65 
57 
58 
58 
51 
53 
58 
54 
51 
52 
59 
65 
63 
70 
71 
83 
83 
76 
71 
60 
58 
65 
65 
65 
69 
61 
64 
109 
151 
121 
136 
187 
223 
220 
201 
185 
179 
165 
209 
214 
207 
207 
207 
216 
213 
215 
215 
215 
215 
215 
215 
215 
215 
215 
215 
215 
215 
215 
215 
213 
213 
213 
213 
213 
214 
214 
214 
212 
207 
211 
219 
212 
191 
177 
177 
199 
208 
144 
173 
157 
194 
189 
155 
152 
141 
166 
171 
178 
140 
161 
154 
155 
132 
120 
116 
117 
100 
72 
71 
82 
126 
143 
128 
89 
52 
50 
56 
53 
42 
47 
58 
62 
58 
48 
50 
51 
50 
51 
53 
51 
52 
61 
61 
70 
61 
76 
77 
69 
66 
57 
60 
58 
62 
53 
61 
71 
71 
81 
78 
73 
61 
103 
171 
213 
225 
218 
212 
210 
215 
198 
201 
214 
222 
231 
218 
215 
215 
215 
215 
215 
215 
215 
215 
215 
215 
215 
215 
215 
215 
212 
213 
213 
211 
213 
214 
211 
216 
216 
220 
214 
212 
220 
176 
145 
139 
186 
218 
138 
136 
102 
170 
189 
182 
169 
121 
148 
172 
188 
148 
72 
115 
107 
90 
80 
83 
77 
74 
81 
77 
77 
105 
129 
119 
84 
60 
55 
57 
51 
52 
58 
63 
61 
54 
50 
51 
56 
53 
50 
50 
50 
49 
53 
58 
60 
65 
70 
72 
73 
72 
68 
63 
62 
62 
59 
62 
72 
71 
66 
69 
63 
59 
52 
97 
167 
198 
207 
210 
200 
152 
138 
155 
196 
216 
216 
208 
216 
215 
214 
214 
215 
215 
215 
215 
216 
215 
214 
214 
214 
215 
214 
214 
214 
212 
214 
214 
211 
213 
209 
211 
205 
200 
200 
183 
185 
146 
137 
180 
183 
125 
141 
141 
179 
168 
146 
136 
103 
164 
133 
104 
55 
46 
84 
81 
64 
56 
60 
68 
75 
71 
59 
68 
81 
80 
65 
58 
63 
70 
57 
55 
53 
52 
51 
51 
53 
56 
58 
54 
51 
50 
49 
48 
48 
50 
55 
58 
61 
66 
71 
76 
75 
72 
65 
65 
69 
74 
71 
60 
59 
69 
73 
68 
64 
75 
89 
112 
140 
142 
95 
69 
84 
110 
162 
205 
214 
212 
215 
216 
217 
217 
215 
214 
214 
215 
215 
214 
213 
213 
213 
214 
215 
215 
214 
214 
215 
214 
212 
211 
213 
208 
185 
191 
204 
186 
193 
122 
105 
111 
150 
153 
186 
163 
173 
143 
128 
161 
145 
123 
130 
79 
54 
41 
56 
70 
54 
46 
51 
64 
65 
57 
58 
55 
59 
62 
56 
51 
53 
56 
56 
55 
54 
52 
52 
53 
53 
52 
52 
50 
49 
49 
50 
49 
48 
47 
48 
48 
49 
53 
60 
66 
67 
65 
57 
60 
69 
71 
62 
57 
60 
66 
58 
72 
65 
56 
59 
65 
67 
64 
51 
59 
86 
107 
138 
175 
216 
230 
209 
212 
215 
216 
214 
214 
215 
216 
213 
213 
212 
212 
212 
213 
213 
215 
214 
215 
214 
213 
216 
212 
212 
205 
171 
178 
205 
186 
189 
89 
95 
89 
111 
165 
170 
183 
157 
157 
151 
178 
180 
133 
139 
95 
53 
55 
44 
59 
53 
48 
51 
59 
62 
54 
52 
51 
56 
61 
56 
52 
50 
50 
51 
56 
57 
56 
54 
54 
51 
48 
48 
48 
48 
49 
51 
51 
49 
47 
45 
45 
44 
46 
49 
52 
54 
53 
51 
55 
59 
56 
56 
67 
72 
62 
60 
71 
58 
50 
58 
63 
53 
47 
56 
61 
67 
94 
137 
176 
221 
219 
209 
211 
214 
215 
214 
214 
215 
216 
213 
212 
212 
212 
212 
212 
213 
216 
215 
217 
212 
210 
218 
211 
214 
207 
188 
165 
168 
169 
208 
117 
85 
137 
105 
145 
165 
153 
163 
144 
189 
169 
167 
176 
107 
62 
56 
55 
47 
53 
56 
56 
51 
52 
64 
62 
51 
49 
51 
51 
49 
53 
54 
51 
51 
54 
54 
50 
49 
49 
50 
49 
47 
47 
47 
50 
52 
53 
50 
47 
48 
46 
46 
46 
46 
48 
51 
54 
57 
58 
57 
54 
58 
74 
76 
59 
65 
59 
62 
58 
52 
58 
63 
55 
60 
55 
57 
74 
144 
212 
231 
213 
218 
217 
216 
216 
215 
215 
214 
214 
214 
213 
212 
212 
213 
213 
215 
217 
215 
218 
211 
209 
218 
207 
182 
199 
188 
132 
137 
125 
186 
197 
97 
161 
179 
65 
51 
94 
120 
110 
130 
191 
183 
143 
102 
80 
61 
50 
55 
58 
68 
74 
58 
52 
62 
61 
58 
55 
53 
49 
50 
54 
54 
50 
50 
50 
49 
48 
48 
49 
48 
48 
47 
48 
49 
50 
53 
55 
55 
53 
53 
51 
47 
46 
46 
47 
51 
57 
65 
61 
58 
58 
63 
70 
68 
58 
52 
49 
58 
58 
52 
54 
57 
59 
59 
56 
77 
55 
126 
221 
218 
215 
218 
217 
215 
215 
215 
215 
215 
214 
215 
214 
213 
213 
214 
214 
215 
216 
213 
219 
213 
211 
219 
201 
159 
126 
178 
142 
95 
70 
151 
186 
138 
117 
155 
79 
45 
50 
57 
63 
96 
130 
153 
158 
115 
102 
64 
46 
55 
70 
79 
80 
67 
57 
60 
58 
58 
56 
59 
60 
58 
59 
58 
53 
53 
50 
51 
55 
58 
58 
55 
53 
52 
53 
53 
52 
53 
57 
58 
58 
54 
51 
49 
49 
49 
50 
53 
58 
63 
62 
58 
59 
70 
78 
77 
73 
60 
53 
49 
46 
51 
56 
56 
72 
69 
68 
85 
57 
133 
225 
217 
222 
212 
212 
213 
214 
214 
215 
215 
216 
215 
215 
214 
214 
214 
215 
214 
214 
210 
219 
215 
213 
221 
198 
162 
131 
194 
151 
107 
50 
78 
118 
80 
60 
100 
73 
59 
46 
42 
45 
72 
114 
124 
115 
99 
73 
58 
53 
51 
76 
77 
69 
65 
61 
63 
64 
60 
60 
65 
67 
59 
53 
55 
58 
64 
57 
54 
60 
67 
68 
66 
64 
60 
61 
58 
54 
52 
54 
56 
56 
51 
50 
52 
56 
60 
61 
62 
64 
60 
65 
58 
57 
79 
100 
102 
96 
79 
56 
59 
57 
49 
60 
68 
68 
64 
77 
82 
74 
147 
212 
211 
219 
212 
214 
217 
217 
215 
214 
214 
216 
215 
215 
214 
214 
214 
215 
212 
220 
218 
214 
211 
213 
218 
214 
182 
169 
192 
152 
101 
69 
54 
62 
52 
44 
58 
51 
69 
57 
48 
50 
49 
100 
102 
95 
81 
65 
72 
59 
58 
62 
67 
70 
70 
69 
68 
68 
71 
60 
63 
64 
60 
58 
59 
67 
66 
70 
66 
59 
62 
70 
72 
71 
69 
63 
59 
54 
52 
60 
61 
50 
49 
58 
59 
57 
60 
59 
58 
64 
62 
56 
58 
63 
72 
90 
101 
95 
83 
72 
72 
74 
72 
78 
81 
70 
64 
79 
70 
94 
170 
210 
211 
225 
213 
214 
215 
216 
215 
214 
215 
215 
215 
215 
214 
214 
214 
214 
216 
217 
212 
213 
211 
209 
216 
219 
211 
210 
199 
139 
94 
87 
69 
61 
61 
73 
68 
74 
75 
70 
69 
58 
49 
79 
100 
104 
101 
99 
91 
73 
62 
60 
66 
79 
83 
74 
66 
65 
69 
64 
64 
58 
56 
65 
68 
68 
72 
74 
71 
63 
58 
61 
65 
66 
69 
61 
63 
69 
65 
57 
58 
65 
61 
65 
64 
56 
52 
51 
54 
59 
66 
59 
57 
59 
60 
67 
71 
64 
65 
78 
76 
72 
81 
84 
78 
80 
74 
75 
83 
128 
194 
224 
222 
223 
212 
213 
215 
216 
215 
214 
215 
215 
215 
215 
215 
214 
214 
214 
213 
212 
211 
219 
217 
209 
213 
218 
202 
211 
222 
196 
126 
116 
104 
86 
80 
90 
75 
91 
73 
84 
79 
68 
78 
62 
120 
151 
127 
117 
98 
71 
79 
64 
62 
76 
83 
73 
66 
70 
73 
68 
69 
63 
65 
78 
80 
78 
74 
70 
71 
74 
73 
71 
66 
60 
55 
67 
70 
63 
60 
62 
61 
59 
63 
65 
66 
59 
52 
52 
58 
62 
57 
54 
54 
55 
55 
57 
59 
57 
61 
80 
79 
69 
74 
77 
76 
85 
92 
84 
113 
170 
209 
222 
222 
216 
212 
214 
215 
216 
215 
215 
215 
215 
215 
215 
215 
215 
214 
214 
212 
211 
211 
220 
220 
211 
214 
218 
209 
204 
210 
229 
182 
177 
164 
147 
131 
116 
110 
124 
95 
105 
72 
63 
95 
82 
127 
152 
139 
124 
105 
109 
101 
85 
72 
71 
73 
70 
69 
72 
76 
67 
69 
71 
72 
75 
75 
77 
78 
70 
69 
73 
71 
68 
66 
64 
66 
67 
60 
56 
58 
57 
58 
66 
72 
74 
78 
72 
57 
55 
60 
60 
60 
58 
58 
61 
59 
58 
64 
71 
80 
73 
73 
77 
77 
78 
82 
81 
98 
107 
153 
203 
214 
212 
212 
206 
215 
215 
215 
215 
215 
215 
215 
215 
215 
215 
215 
215 
214 
214 
215 
215 
210 
213 
213 
211 
218 
220 
216 
226 
201 
216 
215 
223 
203 
202 
219 
197 
194 
200 
169 
157 
106 
75 
95 
77 
112 
138 
142 
164 
165 
140 
125 
131 
116 
84 
73 
82 
81 
67 
78 
69 
72 
74 
71 
69 
67 
70 
73 
75 
81 
82 
70 
59 
60 
68 
76 
77 
66 
55 
56 
63 
69 
77 
71 
74 
80 
78 
66 
64 
69 
67 
59 
59 
61 
61 
59 
58 
64 
78 
88 
68 
66 
88 
100 
92 
86 
90 
96 
130 
182 
217 
222 
219 
218 
217 
218 
217 
216 
215 
214 
215 
215 
216 
215 
215 
215 
215 
215 
214 
211 
214 
210 
211 
211 
211 
216 
215 
207 
224 
214 
220 
215 
218 
210 
217 
213 
211 
208 
219 
211 
203 
184 
140 
86 
100 
119 
136 
155 
165 
164 
168 
162 
143 
127 
113 
86 
59 
61 
80 
74 
69 
73 
71 
68 
71 
69 
69 
67 
71 
74 
74 
71 
62 
63 
76 
67 
83 
82 
66 
64 
75 
78 
72 
60 
62 
66 
67 
66 
69 
73 
72 
65 
70 
72 
71 
66 
61 
66 
80 
75 
74 
72 
93 
115 
98 
94 
128 
157 
186 
211 
218 
218 
214 
208 
208 
219 
218 
215 
214 
214 
215 
216 
216 
215 
215 
215 
215 
215 
215 
208 
213 
211 
214 
214 
211 
213 
209 
217 
206 
212 
217 
209 
210 
215 
213 
213 
213 
211 
214 
211 
212 
217 
191 
170 
134 
131 
151 
169 
177 
167 
156 
156 
164 
149 
106 
71 
64 
70 
74 
76 
68 
73 
76 
75 
75 
70 
71 
77 
74 
59 
54 
65 
68 
73 
90 
79 
74 
78 
84 
80 
72 
72 
76 
68 
67 
63 
62 
67 
70 
68 
66 
68 
77 
80 
78 
73 
62 
57 
63 
74 
86 
91 
110 
136 
131 
138 
178 
199 
207 
210 
211 
215 
216 
216 
219 
217 
215 
214 
214 
215 
216 
215 
215 
215 
215 
215 
215 
215 
215 
213 
214 
210 
213 
213 
209 
213 
212 
214 
209 
217 
209 
216 
216 
216 
213 
217 
207 
217 
211 
205 
212 
215 
220 
215 
193 
198 
200 
201 
200 
182 
180 
171 
173 
165 
136 
98 
77 
84 
100 
99 
81 
86 
99 
98 
85 
75 
79 
85 
92 
82 
77 
88 
83 
76 
90 
98 
84 
77 
76 
74 
79 
83 
81 
76 
75 
68 
68 
79 
83 
77 
75 
72 
86 
94 
98 
100 
90 
80 
81 
90 
93 
107 
138 
172 
190 
199 
210 
221 
214 
211 
214 
215 
210 
208 
210 
214 
213 
213 
214 
216 
216 
215 
214 
215 
215 
215 
215 
215 
215 
212 
212 
212 
212 
212 
212 
212 
212 
212 
213 
214 
215 
215 
214 
213 
213 
212 
213 
213 
213 
211 
211 
211 
212 
212 
219 
220 
218 
219 
213 
199 
190 
184 
171 
169 
170 
152 
131 
124 
124 
120 
104 
109 
135 
142 
118 
96 
91 
87 
78 
76 
97 
109 
89 
94 
136 
172 
155 
133 
118 
126 
153 
161 
145 
121 
107 
91 
84 
87 
89 
84 
75 
77 
89 
102 
124 
146 
140 
125 
127 
134 
139 
139 
166 
204 
215 
216 
219 
213 
216 
216 
211 
209 
212 
214 
213 
212 
214 
215 
216 
216 
215 
215 
215 
215 
215 
215 
215 
215 
215 
212 
212 
212 
212 
212 
212 
212 
212 
213 
213 
214 
215 
215 
214 
214 
213 
211 
211 
210 
210 
210 
212 
215 
218 
210 
214 
211 
208 
212 
214 
210 
207 
210 
207 
193 
175 
172 
182 
175 
154 
130 
147 
164 
174 
178 
173 
154 
133 
120 
124 
131 
150 
162 
150 
156 
189 
222 
216 
209 
205 
204 
206 
207 
205 
194 
171 
143 
130 
134 
137 
128 
116 
125 
128 
132 
149 
173 
174 
166 
169 
187 
202 
199 
198 
206 
208 
211 
216 
211 
213 
213 
210 
211 
216 
217 
215 
213 
214 
215 
216 
215 
215 
215 
215 
215 
215 
215 
215 
215 
215 
212 
212 
212 
212 
212 
212 
212 
212 
213 
213 
214 
215 
215 
214 
214 
214 
215 
214 
212 
210 
210 
211 
213 
216 
215 
218 
217 
215 
219 
221 
217 
215 
214 
217 
205 
189 
191 
201 
200 
192 
182 
192 
200 
202 
203 
205 
201 
193 
197 
201 
200 
208 
220 
213 
207 
218 
213 
215 
218 
221 
219 
210 
206 
210 
225 
216 
205 
197 
196 
198 
197 
194 
194 
192 
185 
188 
197 
194 
189 
195 
210 
222 
217 
213 
218 
218 
222 
225 
211 
212 
211 
211 
214 
218 
218 
215 
213 
214 
215 
216 
215 
215 
215 
215 
215 
215 
215 
215 
215 
215 
212 
212 
212 
212 
212 
212 
212 
212 
213 
213 
214 
214 
214 
214 
214 
214 
215 
215 
215 
214 
213 
211 
210 
209 
207 
211 
210 
209 
211 
209 
203 
199 
208 
213 
212 
210 
211 
207 
208 
218 
230 
218 
212 
214 
216 
215 
219 
226 
217 
218 
211 
212 
222 
220 
212 
213 
205 
214 
213 
209 
215 
217 
212 
210 
208 
215 
220 
216 
210 
208 
211 
215 
215 
218 
215 
211 
209 
203 
203 
212 
212 
213 
207 
215 
223 
219 
219 
221 
212 
213 
213 
213 
214 
217 
216 
214 
214 
214 
215 
216 
215 
215 
215 
215 
215 
215 
215 
215 
215 
215 
212 
212 
212 
212 
212 
212 
212 
212 
212 
213 
213 
213 
214 
214 
214 
214 
211 
212 
214 
215 
215 
214 
212 
210 
215 
216 
213 
211 
214 
214 
212 
212 
208 
215 
214 
212 
220 
221 
216 
214 
213 
211 
209 
210 
213 
214 
211 
207 
213 
217 
215 
213 
216 
213 
213 
221 
211 
219 
213 
205 
212 
221 
217 
211 
217 
218 
217 
215 
214 
215 
216 
215 
208 
214 
217 
216 
213 
210 
212 
218 
213 
216 
214 
219 
218 
210 
213 
217 
213 
215 
216 
215 
214 
214 
214 
214 
214 
215 
216 
216 
215 
215 
215 
216 
215 
215 
215 
215 
215 
215 
212 
212 
212 
212 
212 
212 
212 
212 
212 
212 
212 
213 
213 
213 
214 
214 
213 
212 
212 
212 
213 
213 
213 
212 
211 
213 
210 
209 
213 
213 
213 
215 
212 
213 
209 
207 
212 
216 
213 
209 
210 
215 
218 
218 
217 
217 
215 
213 
215 
215 
214 
214 
214 
210 
209 
215 
214 
217 
215 
213 
215 
216 
214 
214 
214 
212 
211 
211 
214 
217 
216 
212 
213 
214 
215 
214 
213 
213 
212 
211 
211 
219 
218 
216 
213 
214 
221 
218 
213 
215 
217 
216 
214 
214 
214 
215 
215 
215 
216 
215 
215 
215 
215 
216 
216 
216 
215 
215 
215 
215 
212 
212 
212 
212 
212 
212 
212 
212 
211 
211 
211 
212 
212 
213 
213 
213 
215 
214 
212 
211 
211 
212 
212 
211 
210 
212 
212 
212 
215 
213 
210 
211 
216 
210 
211 
214 
211 
208 
212 
216 
217 
214 
214 
215 
213 
210 
213 
220 
217 
213 
211 
214 
218 
218 
216 
216 
214 
212 
215 
218 
216 
214 
215 
215 
214 
216 
218 
216 
214 
213 
212 
210 
213 
212 
213 
213 
213 
216 
217 
213 
216 
218 
214 
214 
213 
216 
220 
211 
215 
215 
215 
215 
215 
215 
215 
216 
215 
216 
216 
215 
215 
215 
215 
216 
216 
216 
215 
215 
215 
215 
212 
212 
212 
212 
212 
212 
212 
212 
211 
211 
211 
211 
211 
212 
213 
213 
212 
212 
211 
211 
213 
213 
212 
211 
213 
214 
211 
210 
213 
212 
211 
214 
213 
209 
213 
215 
212 
213 
216 
213 
214 
214 
215 
216 
217 
217 
216 
214 
214 
215 
216 
214 
212 
212 
215 
217 
218 
214 
215 
215 
212 
215 
218 
213 
215 
216 
215 
213 
212 
213 
214 
214 
211 
214 
218 
216 
211 
213 
216 
213 
216 
213 
212 
219 
217 
211 
216 
215 
217 
215 
214 
215 
216 
216 
215 
214 
215 
216 
216 
215 
215 
215 
215 
216 
216 
216 
215 
215 
215 
215 
212 
212 
212 
212 
212 
212 
212 
212 
212 
211 
211 
211 
212 
213 
213 
213 
213 
212 
212 
212 
212 
212 
212 
212 
212 
212 
212 
212 
212 
212 
212 
212 
212 
212 
212 
213 
213 
213 
214 
214 
214 
215 
215 
215 
215 
215 
215 
215 
215 
214 
214 
214 
214 
215 
215 
216 
216 
215 
215 
215 
215 
215 
215 
215 
215 
215 
214 
214 
214 
213 
213 
213 
213 
214 
214 
214 
214 
214 
214 
214 
214 
215 
215 
215 
215 
215 
215 
215 
215 
215 
215 
215 
215 
215 
215 
215 
215 
215 
215 
215 
215 
215 
215 
215 
215 
216 
216 
216 
215 
214 
