P2
# Created by MsrVolt
103 87
255
219 
219 
219 
219 
219 
219 
219 
219 
219 
219 
219 
219 
220 
220 
220 
220 
220 
220 
220 
220 
220 
220 
220 
220 
220 
220 
220 
220 
220 
220 
220 
220 
220 
220 
220 
220 
220 
220 
220 
220 
220 
220 
220 
220 
220 
220 
220 
220 
220 
220 
220 
220 
219 
219 
219 
219 
219 
219 
219 
219 
219 
219 
219 
219 
219 
219 
219 
219 
219 
219 
219 
219 
219 
219 
219 
219 
219 
219 
219 
219 
219 
219 
219 
219 
219 
219 
219 
219 
219 
219 
219 
219 
219 
219 
219 
219 
219 
219 
219 
219 
219 
220 
220 
219 
219 
219 
219 
219 
219 
219 
219 
219 
219 
219 
219 
220 
220 
220 
220 
220 
220 
220 
220 
220 
220 
220 
220 
220 
220 
220 
220 
220 
220 
220 
220 
220 
220 
220 
220 
220 
220 
220 
220 
220 
220 
220 
220 
220 
220 
220 
220 
220 
220 
220 
220 
219 
219 
219 
219 
219 
219 
219 
219 
219 
219 
219 
219 
219 
219 
219 
219 
219 
219 
219 
219 
219 
219 
219 
219 
219 
219 
219 
219 
219 
219 
219 
219 
219 
219 
219 
219 
219 
219 
219 
219 
219 
219 
219 
219 
219 
219 
219 
219 
219 
220 
220 
219 
219 
219 
219 
219 
219 
219 
219 
219 
219 
219 
220 
220 
220 
220 
220 
220 
220 
220 
220 
220 
220 
220 
220 
220 
220 
220 
220 
220 
220 
220 
220 
220 
220 
220 
220 
220 
220 
220 
220 
220 
220 
220 
220 
220 
220 
220 
220 
220 
220 
220 
220 
219 
219 
219 
219 
219 
219 
219 
219 
219 
219 
219 
219 
219 
219 
219 
219 
219 
219 
219 
219 
219 
219 
219 
219 
219 
219 
219 
219 
219 
219 
219 
219 
219 
219 
219 
219 
219 
219 
219 
219 
219 
219 
219 
219 
219 
219 
219 
219 
219 
220 
220 
219 
219 
219 
219 
219 
219 
219 
219 
219 
219 
220 
220 
220 
220 
220 
220 
220 
220 
220 
220 
220 
220 
220 
220 
220 
220 
220 
220 
220 
220 
220 
220 
220 
220 
220 
220 
220 
220 
220 
220 
220 
220 
220 
220 
220 
220 
220 
220 
220 
220 
220 
220 
219 
219 
219 
219 
219 
219 
219 
219 
219 
219 
219 
219 
219 
219 
219 
219 
219 
219 
219 
219 
219 
219 
219 
219 
219 
219 
219 
219 
219 
219 
219 
219 
219 
219 
219 
219 
219 
219 
219 
219 
219 
219 
219 
219 
219 
219 
219 
219 
219 
219 
220 
219 
219 
219 
219 
219 
219 
219 
219 
220 
220 
220 
220 
220 
220 
220 
220 
220 
220 
220 
220 
220 
220 
220 
220 
220 
220 
220 
220 
220 
220 
220 
220 
220 
220 
220 
220 
220 
220 
220 
220 
220 
220 
220 
220 
220 
220 
220 
220 
220 
220 
220 
220 
219 
219 
219 
219 
219 
219 
219 
219 
219 
219 
219 
219 
219 
219 
219 
219 
219 
219 
219 
219 
219 
219 
219 
219 
219 
219 
219 
219 
219 
219 
219 
219 
219 
219 
219 
219 
219 
219 
219 
219 
219 
219 
219 
219 
219 
219 
219 
219 
219 
219 
219 
220 
220 
220 
220 
220 
220 
220 
220 
220 
220 
220 
220 
220 
220 
220 
220 
220 
220 
220 
220 
220 
220 
220 
220 
220 
220 
220 
220 
220 
220 
220 
220 
220 
220 
220 
220 
220 
220 
220 
220 
220 
220 
220 
220 
220 
220 
220 
220 
220 
220 
220 
220 
219 
219 
219 
219 
219 
219 
219 
219 
219 
219 
219 
219 
219 
219 
219 
219 
219 
219 
219 
219 
219 
219 
219 
219 
219 
219 
219 
219 
219 
219 
219 
219 
219 
219 
219 
219 
219 
219 
219 
219 
219 
219 
219 
219 
219 
219 
219 
219 
219 
219 
219 
220 
220 
220 
220 
220 
220 
220 
220 
220 
220 
220 
220 
220 
220 
220 
220 
220 
220 
220 
220 
220 
220 
220 
220 
220 
220 
220 
220 
220 
220 
220 
220 
220 
220 
220 
220 
220 
220 
220 
220 
220 
220 
220 
220 
220 
220 
220 
220 
220 
220 
220 
220 
219 
219 
219 
219 
219 
219 
219 
219 
219 
219 
219 
219 
219 
219 
219 
219 
219 
219 
219 
219 
219 
219 
219 
219 
219 
219 
219 
219 
219 
219 
219 
219 
219 
219 
219 
219 
219 
219 
219 
219 
219 
219 
219 
219 
219 
219 
219 
219 
219 
219 
219 
221 
221 
221 
221 
221 
221 
221 
221 
220 
220 
220 
220 
220 
220 
220 
220 
220 
220 
220 
220 
220 
220 
220 
220 
220 
220 
220 
220 
220 
220 
220 
220 
220 
220 
220 
220 
220 
220 
220 
220 
220 
220 
220 
220 
220 
220 
220 
220 
220 
220 
220 
220 
219 
219 
219 
219 
219 
219 
219 
219 
219 
219 
219 
219 
219 
219 
219 
219 
219 
219 
219 
219 
219 
219 
219 
219 
219 
219 
219 
219 
219 
219 
219 
219 
219 
219 
219 
219 
219 
219 
219 
219 
219 
219 
219 
219 
219 
219 
219 
218 
218 
219 
219 
220 
220 
221 
221 
221 
220 
220 
220 
219 
220 
220 
220 
220 
220 
220 
220 
220 
220 
219 
219 
219 
219 
220 
220 
220 
220 
221 
220 
220 
220 
220 
221 
221 
220 
220 
220 
220 
220 
220 
221 
220 
220 
220 
220 
220 
220 
220 
220 
220 
220 
220 
220 
220 
220 
219 
219 
219 
219 
219 
219 
219 
219 
219 
219 
219 
219 
219 
219 
219 
219 
219 
219 
219 
219 
219 
219 
219 
219 
219 
219 
219 
219 
219 
219 
219 
219 
219 
219 
219 
219 
219 
219 
219 
219 
219 
219 
218 
219 
219 
219 
219 
219 
219 
220 
221 
221 
221 
221 
220 
220 
220 
220 
220 
220 
220 
220 
220 
220 
220 
220 
220 
220 
219 
219 
220 
220 
220 
220 
220 
220 
220 
220 
220 
220 
220 
220 
220 
220 
220 
220 
220 
220 
220 
220 
220 
220 
220 
220 
220 
220 
220 
220 
220 
220 
220 
220 
220 
219 
219 
219 
219 
219 
219 
219 
219 
219 
219 
219 
219 
219 
219 
219 
219 
219 
219 
219 
219 
219 
219 
219 
219 
219 
219 
219 
219 
219 
219 
219 
219 
219 
219 
219 
219 
219 
219 
219 
219 
219 
219 
219 
219 
219 
219 
219 
219 
219 
220 
221 
221 
221 
221 
220 
220 
220 
220 
220 
221 
221 
221 
221 
220 
220 
220 
220 
220 
220 
220 
220 
220 
220 
220 
220 
220 
220 
220 
220 
220 
220 
220 
220 
220 
220 
220 
220 
220 
220 
220 
220 
220 
220 
220 
220 
220 
220 
220 
220 
220 
220 
220 
220 
219 
219 
219 
219 
219 
219 
219 
219 
219 
219 
219 
219 
219 
219 
219 
219 
219 
219 
219 
219 
219 
219 
219 
219 
219 
219 
219 
219 
219 
219 
219 
218 
218 
218 
219 
219 
219 
219 
219 
219 
219 
219 
219 
219 
219 
219 
219 
219 
219 
221 
221 
221 
221 
221 
221 
220 
220 
221 
221 
221 
221 
221 
221 
220 
220 
220 
220 
220 
220 
220 
220 
220 
220 
220 
220 
220 
220 
220 
220 
220 
220 
219 
220 
220 
221 
221 
220 
220 
219 
220 
220 
220 
220 
220 
220 
220 
220 
220 
220 
220 
220 
220 
220 
219 
219 
219 
219 
219 
219 
219 
219 
219 
219 
219 
219 
219 
219 
219 
219 
219 
219 
219 
219 
219 
219 
219 
219 
219 
219 
219 
219 
218 
218 
218 
218 
218 
218 
219 
219 
219 
219 
219 
219 
219 
219 
219 
219 
219 
219 
219 
220 
220 
221 
221 
221 
221 
221 
221 
220 
220 
221 
221 
221 
221 
221 
221 
220 
220 
219 
220 
220 
221 
221 
221 
221 
220 
221 
220 
220 
220 
221 
221 
221 
220 
220 
220 
221 
221 
221 
221 
220 
220 
220 
220 
220 
220 
220 
220 
220 
220 
220 
220 
220 
220 
220 
220 
219 
219 
220 
219 
219 
219 
219 
219 
219 
219 
220 
219 
219 
219 
219 
219 
219 
220 
219 
219 
219 
219 
219 
219 
219 
219 
218 
218 
218 
218 
218 
218 
217 
217 
219 
219 
219 
219 
219 
219 
219 
219 
219 
219 
219 
220 
220 
220 
220 
221 
221 
221 
221 
221 
221 
220 
220 
221 
221 
221 
221 
221 
220 
220 
220 
219 
220 
221 
221 
221 
221 
221 
221 
221 
220 
219 
220 
221 
221 
221 
219 
220 
220 
221 
221 
221 
221 
220 
220 
220 
220 
220 
220 
220 
220 
220 
220 
220 
220 
220 
220 
220 
220 
219 
219 
220 
220 
219 
219 
219 
219 
219 
219 
220 
219 
219 
218 
218 
219 
219 
220 
219 
219 
219 
219 
219 
219 
219 
219 
218 
218 
218 
217 
217 
217 
217 
217 
219 
219 
219 
219 
219 
219 
219 
219 
220 
220 
220 
220 
220 
220 
220 
221 
221 
221 
221 
221 
221 
220 
220 
220 
221 
221 
221 
220 
220 
219 
219 
219 
220 
221 
222 
222 
222 
221 
221 
221 
219 
218 
219 
220 
221 
220 
218 
220 
220 
219 
219 
219 
219 
220 
220 
220 
220 
220 
220 
220 
220 
220 
220 
220 
220 
220 
220 
220 
220 
219 
219 
220 
220 
220 
219 
219 
219 
219 
218 
220 
219 
219 
218 
218 
219 
219 
220 
219 
219 
219 
219 
219 
219 
219 
219 
217 
217 
217 
217 
217 
217 
217 
217 
219 
219 
219 
219 
219 
219 
219 
219 
220 
220 
220 
220 
220 
220 
220 
221 
221 
221 
221 
221 
221 
221 
220 
220 
220 
220 
220 
220 
219 
219 
219 
219 
220 
221 
222 
222 
222 
221 
221 
220 
218 
217 
218 
219 
220 
219 
217 
219 
219 
218 
218 
218 
218 
219 
219 
220 
220 
220 
220 
220 
220 
220 
220 
220 
220 
220 
220 
220 
220 
219 
219 
220 
220 
220 
219 
219 
219 
218 
218 
220 
220 
219 
218 
218 
219 
220 
220 
219 
219 
219 
219 
219 
219 
219 
219 
217 
217 
217 
217 
217 
217 
217 
217 
219 
219 
219 
219 
219 
219 
219 
219 
220 
220 
220 
220 
220 
220 
220 
220 
221 
219 
220 
223 
221 
219 
222 
225 
218 
222 
221 
219 
223 
220 
217 
218 
219 
220 
221 
222 
222 
222 
222 
217 
221 
225 
215 
216 
223 
217 
221 
217 
224 
221 
219 
218 
218 
223 
220 
223 
221 
220 
219 
220 
220 
220 
221 
220 
220 
220 
220 
220 
220 
220 
220 
220 
220 
220 
219 
219 
218 
218 
218 
219 
219 
219 
218 
217 
218 
219 
220 
220 
220 
219 
219 
219 
219 
219 
219 
218 
218 
218 
218 
218 
218 
218 
218 
218 
218 
219 
219 
219 
219 
219 
219 
219 
219 
220 
220 
220 
220 
220 
220 
222 
221 
220 
221 
220 
220 
225 
221 
225 
228 
221 
218 
216 
212 
219 
220 
219 
219 
219 
218 
217 
217 
218 
216 
222 
227 
215 
213 
220 
218 
222 
225 
225 
219 
219 
219 
217 
222 
222 
218 
218 
219 
220 
221 
221 
220 
220 
220 
220 
220 
220 
220 
220 
220 
220 
220 
220 
220 
219 
219 
219 
218 
218 
219 
219 
219 
218 
218 
218 
219 
220 
220 
220 
219 
219 
219 
219 
219 
219 
218 
218 
218 
218 
218 
218 
218 
218 
218 
218 
219 
219 
219 
219 
219 
219 
219 
219 
219 
220 
220 
220 
220 
219 
222 
221 
218 
219 
219 
220 
225 
224 
222 
216 
210 
217 
219 
211 
217 
214 
214 
217 
221 
221 
215 
211 
210 
208 
215 
222 
216 
213 
217 
216 
218 
218 
222 
221 
224 
222 
218 
221 
220 
220 
220 
220 
220 
220 
220 
220 
219 
220 
220 
220 
220 
220 
220 
220 
220 
220 
220 
220 
220 
219 
219 
219 
218 
219 
219 
219 
219 
218 
218 
219 
220 
220 
220 
219 
219 
219 
219 
219 
219 
219 
218 
218 
218 
218 
218 
218 
218 
218 
218 
219 
219 
219 
219 
219 
219 
219 
219 
219 
220 
220 
220 
220 
218 
221 
219 
218 
220 
219 
218 
221 
221 
213 
210 
207 
210 
217 
210 
204 
207 
204 
206 
214 
217 
212 
208 
208 
216 
211 
212 
212 
212 
213 
215 
217 
210 
220 
224 
226 
221 
214 
219 
220 
220 
220 
219 
217 
217 
219 
221 
222 
220 
220 
220 
220 
220 
220 
220 
220 
220 
220 
220 
220 
219 
219 
219 
219 
219 
219 
219 
219 
218 
218 
219 
220 
220 
220 
219 
219 
219 
219 
219 
219 
219 
219 
218 
218 
218 
218 
218 
218 
218 
218 
219 
219 
219 
219 
219 
219 
219 
219 
219 
220 
220 
220 
220 
220 
220 
218 
219 
222 
217 
212 
215 
198 
195 
214 
211 
194 
206 
217 
208 
203 
194 
192 
201 
207 
207 
208 
213 
213 
192 
183 
193 
200 
202 
209 
213 
212 
213 
214 
224 
221 
211 
217 
223 
218 
219 
219 
217 
217 
220 
222 
222 
220 
220 
220 
220 
220 
220 
220 
220 
220 
220 
220 
220 
219 
219 
219 
219 
219 
219 
220 
219 
219 
219 
219 
220 
220 
219 
219 
219 
219 
219 
219 
219 
219 
219 
219 
218 
218 
218 
218 
218 
218 
218 
219 
219 
219 
219 
219 
219 
219 
219 
219 
220 
220 
220 
220 
222 
220 
219 
221 
219 
208 
204 
212 
201 
195 
213 
200 
172 
194 
219 
207 
190 
184 
189 
204 
211 
206 
205 
211 
184 
162 
158 
184 
199 
201 
209 
208 
201 
194 
195 
216 
223 
214 
216 
222 
218 
222 
224 
221 
220 
221 
220 
218 
220 
220 
220 
220 
220 
220 
220 
220 
220 
220 
220 
220 
220 
219 
219 
219 
219 
219 
220 
220 
219 
219 
219 
220 
220 
219 
219 
219 
219 
219 
219 
219 
219 
219 
219 
218 
218 
218 
218 
218 
218 
218 
219 
219 
219 
219 
219 
219 
219 
219 
219 
220 
220 
219 
219 
221 
220 
220 
220 
209 
192 
194 
213 
219 
208 
209 
186 
163 
188 
203 
181 
166 
171 
190 
215 
219 
205 
197 
200 
178 
164 
167 
196 
208 
207 
209 
197 
179 
184 
184 
191 
201 
209 
216 
211 
211 
217 
220 
219 
218 
219 
219 
217 
220 
220 
220 
220 
220 
220 
220 
220 
220 
220 
220 
220 
220 
220 
220 
219 
219 
219 
220 
220 
219 
219 
219 
220 
219 
219 
219 
219 
219 
219 
219 
219 
220 
219 
219 
218 
218 
218 
218 
218 
218 
218 
219 
219 
219 
219 
219 
219 
219 
219 
219 
220 
220 
219 
219 
218 
218 
220 
217 
199 
177 
186 
215 
201 
199 
202 
183 
172 
197 
199 
171 
149 
159 
186 
214 
216 
198 
189 
194 
200 
188 
185 
201 
200 
194 
194 
175 
169 
191 
183 
161 
164 
195 
214 
201 
197 
203 
207 
208 
210 
217 
221 
221 
220 
220 
220 
220 
220 
220 
220 
220 
220 
220 
220 
220 
220 
220 
220 
220 
219 
219 
220 
220 
220 
219 
219 
220 
219 
219 
219 
219 
219 
219 
219 
220 
220 
220 
219 
219 
218 
218 
218 
218 
218 
218 
219 
219 
219 
219 
219 
219 
219 
219 
219 
220 
219 
219 
219 
220 
213 
223 
211 
167 
156 
189 
214 
188 
171 
202 
197 
185 
196 
194 
177 
162 
178 
198 
215 
210 
194 
171 
178 
198 
214 
188 
195 
209 
182 
167 
163 
166 
183 
164 
145 
125 
139 
164 
174 
170 
182 
188 
191 
198 
204 
208 
215 
215 
217 
220 
221 
221 
221 
218 
216 
220 
220 
220 
220 
220 
221 
221 
221 
219 
217 
218 
221 
222 
220 
219 
222 
221 
220 
219 
219 
220 
220 
220 
219 
219 
218 
218 
218 
219 
219 
219 
219 
220 
220 
219 
219 
219 
219 
219 
219 
218 
219 
219 
219 
219 
219 
219 
214 
221 
227 
192 
137 
136 
181 
210 
196 
194 
211 
201 
199 
195 
174 
150 
150 
192 
209 
204 
201 
193 
169 
178 
197 
201 
180 
189 
185 
146 
146 
165 
163 
162 
184 
168 
139 
103 
140 
163 
162 
165 
175 
183 
187 
196 
201 
199 
204 
203 
202 
204 
211 
218 
221 
220 
221 
221 
221 
221 
220 
220 
220 
220 
217 
217 
219 
222 
223 
222 
221 
221 
218 
217 
217 
218 
219 
220 
219 
218 
220 
219 
219 
219 
219 
219 
219 
219 
219 
219 
219 
219 
219 
219 
219 
219 
219 
219 
219 
219 
219 
219 
219 
224 
211 
207 
198 
175 
173 
195 
209 
208 
213 
215 
197 
196 
192 
163 
114 
133 
191 
206 
194 
197 
189 
156 
163 
178 
180 
179 
198 
181 
132 
131 
147 
130 
148 
204 
198 
188 
137 
157 
182 
164 
165 
181 
190 
187 
194 
204 
200 
197 
196 
195 
198 
206 
213 
213 
209 
210 
211 
214 
217 
219 
220 
221 
221 
221 
223 
222 
220 
219 
219 
220 
219 
219 
218 
217 
219 
221 
222 
220 
219 
219 
219 
219 
219 
219 
219 
219 
219 
219 
219 
219 
219 
219 
219 
219 
220 
219 
219 
219 
219 
219 
219 
219 
222 
220 
217 
207 
202 
212 
216 
205 
199 
195 
200 
192 
181 
180 
181 
137 
144 
183 
191 
189 
198 
186 
146 
146 
172 
164 
162 
191 
196 
168 
149 
130 
113 
158 
186 
166 
184 
178 
171 
186 
167 
171 
180 
187 
188 
193 
198 
198 
199 
197 
195 
194 
198 
202 
199 
193 
192 
195 
200 
206 
210 
210 
209 
209 
212 
218 
222 
219 
216 
216 
216 
214 
217 
217 
218 
218 
219 
218 
217 
217 
218 
218 
219 
220 
220 
219 
219 
219 
220 
219 
219 
219 
219 
219 
219 
219 
219 
219 
219 
219 
219 
219 
219 
213 
222 
227 
211 
175 
155 
172 
203 
206 
199 
197 
193 
177 
162 
183 
179 
175 
185 
184 
190 
198 
191 
157 
149 
192 
181 
169 
181 
186 
173 
161 
142 
137 
170 
156 
116 
137 
174 
172 
179 
181 
188 
184 
183 
192 
189 
182 
188 
199 
198 
193 
188 
188 
193 
193 
190 
186 
188 
193 
198 
197 
192 
187 
185 
187 
199 
211 
213 
211 
210 
210 
208 
210 
213 
215 
215 
214 
213 
214 
215 
218 
220 
221 
221 
220 
219 
219 
219 
220 
220 
219 
219 
219 
219 
219 
219 
220 
219 
219 
219 
219 
219 
219 
219 
209 
215 
218 
174 
116 
131 
196 
197 
207 
186 
172 
190 
190 
203 
217 
186 
183 
181 
189 
197 
203 
177 
162 
196 
195 
183 
182 
180 
166 
161 
161 
165 
170 
166 
142 
147 
171 
181 
171 
179 
196 
191 
181 
179 
164 
156 
173 
195 
199 
199 
195 
195 
197 
196 
192 
190 
191 
194 
198 
195 
186 
179 
176 
183 
189 
194 
195 
195 
197 
202 
205 
207 
210 
212 
213 
213 
214 
216 
217 
217 
219 
222 
222 
221 
219 
219 
219 
220 
219 
219 
219 
219 
219 
219 
219 
220 
220 
219 
219 
219 
219 
220 
222 
218 
217 
214 
182 
137 
141 
188 
207 
214 
179 
157 
194 
203 
200 
208 
182 
172 
164 
175 
191 
201 
178 
166 
181 
187 
173 
176 
195 
191 
175 
172 
176 
173 
178 
179 
176 
177 
177 
154 
151 
171 
177 
171 
163 
148 
146 
164 
190 
198 
204 
204 
204 
205 
200 
193 
192 
192 
197 
202 
202 
195 
189 
188 
197 
192 
186 
183 
183 
187 
194 
200 
202 
202 
203 
205 
208 
210 
211 
211 
211 
214 
218 
220 
219 
219 
219 
220 
218 
218 
218 
219 
219 
220 
220 
221 
220 
220 
219 
219 
219 
219 
220 
219 
220 
217 
203 
160 
113 
132 
196 
212 
196 
170 
162 
189 
188 
189 
207 
188 
165 
143 
156 
180 
188 
166 
166 
174 
198 
186 
173 
188 
189 
179 
184 
174 
177 
158 
166 
171 
182 
175 
157 
144 
153 
166 
177 
182 
179 
179 
182 
186 
193 
197 
197 
200 
204 
202 
195 
190 
190 
196 
203 
205 
201 
198 
199 
204 
195 
187 
185 
187 
188 
190 
194 
192 
190 
188 
191 
196 
199 
198 
196 
203 
207 
212 
216 
217 
218 
219 
221 
217 
217 
218 
218 
219 
220 
221 
222 
220 
220 
219 
218 
218 
219 
220 
222 
222 
217 
215 
187 
136 
125 
146 
176 
186 
166 
173 
201 
191 
188 
209 
194 
168 
115 
137 
180 
175 
170 
160 
177 
185 
181 
192 
186 
179 
176 
183 
184 
183 
167 
161 
167 
171 
174 
159 
158 
170 
176 
168 
161 
178 
189 
169 
157 
171 
188 
188 
194 
192 
194 
189 
174 
181 
195 
200 
200 
201 
198 
201 
198 
207 
204 
199 
191 
192 
185 
192 
189 
181 
174 
174 
180 
187 
190 
192 
195 
205 
205 
205 
213 
212 
208 
214 
216 
214 
215 
221 
224 
223 
222 
223 
221 
220 
219 
218 
218 
219 
220 
223 
220 
209 
204 
203 
201 
174 
127 
162 
176 
149 
156 
186 
193 
195 
200 
211 
195 
141 
138 
167 
175 
181 
169 
165 
166 
168 
186 
195 
184 
175 
182 
187 
179 
172 
176 
177 
165 
171 
170 
171 
173 
168 
144 
131 
153 
172 
165 
156 
183 
196 
193 
199 
189 
183 
192 
181 
183 
190 
188 
191 
198 
199 
203 
204 
191 
189 
199 
193 
194 
188 
189 
190 
181 
173 
173 
181 
190 
194 
194 
199 
204 
203 
201 
207 
209 
207 
208 
210 
215 
219 
220 
220 
220 
220 
220 
220 
219 
219 
218 
219 
219 
220 
217 
215 
198 
169 
163 
195 
188 
123 
173 
177 
144 
151 
173 
193 
195 
191 
209 
205 
179 
180 
184 
173 
182 
188 
179 
182 
188 
190 
195 
179 
169 
180 
186 
173 
171 
179 
179 
164 
174 
182 
187 
173 
169 
158 
165 
187 
177 
154 
164 
179 
184 
185 
181 
175 
170 
179 
169 
168 
176 
181 
188 
197 
199 
205 
199 
180 
177 
192 
189 
197 
193 
180 
187 
184 
183 
186 
192 
196 
194 
189 
197 
191 
193 
200 
203 
203 
205 
207 
207 
212 
214 
214 
216 
220 
220 
216 
218 
218 
219 
219 
219 
220 
220 
222 
211 
195 
176 
170 
192 
190 
140 
180 
186 
180 
186 
178 
187 
180 
188 
205 
204 
193 
192 
180 
158 
165 
180 
172 
189 
204 
189 
183 
164 
163 
183 
191 
173 
168 
169 
171 
170 
184 
191 
187 
173 
178 
170 
171 
181 
164 
155 
159 
154 
166 
179 
159 
161 
165 
158 
156 
160 
174 
184 
189 
191 
187 
191 
192 
170 
166 
192 
190 
183 
181 
182 
184 
189 
194 
197 
198 
198 
193 
188 
189 
176 
185 
203 
203 
198 
204 
210 
207 
205 
203 
206 
215 
222 
221 
216 
217 
218 
218 
219 
220 
220 
220 
227 
215 
207 
213 
211 
208 
205 
189 
192 
183 
185 
182 
169 
185 
166 
174 
194 
205 
196 
179 
175 
179 
176 
168 
164 
177 
191 
181 
174 
155 
161 
181 
191 
178 
176 
177 
171 
176 
181 
182 
174 
164 
177 
175 
170 
167 
151 
154 
154 
150 
169 
187 
164 
161 
159 
146 
151 
164 
174 
165 
159 
162 
155 
149 
172 
180 
174 
182 
181 
182 
181 
178 
186 
194 
200 
197 
193 
193 
193 
191 
186 
179 
190 
202 
197 
198 
206 
206 
202 
197 
198 
206 
216 
220 
219 
217 
217 
218 
218 
219 
220 
219 
219 
220 
219 
217 
222 
212 
195 
198 
206 
195 
182 
181 
169 
164 
188 
168 
164 
180 
196 
191 
167 
168 
182 
179 
174 
179 
169 
162 
168 
171 
159 
169 
180 
171 
173 
183 
193 
172 
175 
161 
154 
142 
136 
150 
163 
169 
157 
124 
111 
132 
135 
142 
156 
161 
161 
155 
152 
153 
169 
169 
138 
124 
137 
137 
128 
165 
183 
172 
175 
179 
186 
187 
181 
188 
197 
202 
198 
192 
190 
186 
181 
188 
193 
201 
194 
186 
198 
207 
195 
193 
195 
202 
212 
215 
213 
214 
218 
217 
218 
218 
219 
219 
219 
218 
218 
218 
217 
220 
214 
201 
193 
181 
180 
189 
200 
195 
186 
190 
183 
180 
190 
191 
182 
158 
149 
145 
144 
170 
179 
167 
146 
161 
168 
173 
189 
182 
154 
162 
165 
168 
142 
171 
158 
144 
140 
145 
148 
147 
142 
129 
109 
98 
98 
101 
105 
108 
120 
132 
150 
164 
171 
178 
173 
144 
129 
138 
144 
146 
177 
151 
135 
176 
188 
175 
178 
189 
180 
188 
192 
192 
192 
192 
182 
168 
182 
191 
195 
185 
180 
195 
201 
187 
189 
196 
205 
211 
212 
212 
215 
218 
218 
218 
218 
219 
218 
218 
218 
220 
219 
219 
221 
216 
215 
212 
189 
189 
186 
179 
189 
196 
193 
201 
196 
200 
199 
195 
181 
172 
151 
135 
164 
179 
185 
164 
176 
175 
187 
202 
174 
156 
160 
136 
118 
97 
169 
174 
160 
144 
153 
144 
129 
120 
116 
115 
110 
104 
107 
122 
106 
84 
92 
140 
164 
188 
180 
176 
163 
147 
140 
143 
158 
166 
132 
113 
154 
173 
179 
184 
170 
169 
172 
172 
175 
185 
193 
184 
169 
171 
175 
181 
181 
181 
190 
194 
187 
191 
197 
203 
205 
209 
216 
219 
218 
219 
219 
219 
218 
218 
218 
217 
219 
218 
217 
219 
221 
214 
197 
181 
186 
171 
165 
180 
194 
194 
197 
210 
210 
201 
200 
210 
205 
177 
161 
171 
170 
166 
166 
155 
158 
172 
193 
175 
169 
164 
147 
114 
92 
136 
167 
173 
157 
138 
129 
129 
134 
132 
115 
107 
113 
157 
145 
105 
86 
82 
111 
159 
190 
159 
164 
177 
155 
147 
155 
147 
139 
139 
119 
131 
158 
172 
183 
171 
164 
158 
154 
162 
172 
182 
190 
185 
176 
173 
159 
157 
174 
182 
176 
171 
179 
187 
195 
208 
221 
216 
210 
219 
213 
214 
216 
217 
219 
219 
219 
221 
220 
218 
218 
218 
212 
199 
187 
186 
177 
177 
192 
204 
199 
195 
202 
213 
200 
203 
214 
208 
193 
185 
182 
167 
157 
137 
134 
147 
164 
176 
172 
164 
153 
155 
157 
122 
119 
135 
169 
167 
132 
112 
118 
135 
136 
114 
101 
130 
168 
141 
104 
97 
72 
69 
132 
166 
151 
149 
155 
142 
158 
178 
139 
121 
124 
161 
153 
135 
164 
182 
187 
166 
156 
153 
162 
167 
170 
181 
189 
181 
167 
145 
147 
172 
175 
158 
149 
151 
149 
171 
204 
212 
202 
206 
220 
211 
213 
215 
218 
219 
218 
216 
217 
218 
219 
221 
224 
224 
221 
217 
194 
180 
172 
183 
199 
202 
199 
201 
199 
189 
194 
191 
168 
158 
166 
165 
177 
164 
144 
166 
167 
146 
134 
158 
169 
122 
116 
159 
155 
129 
119 
152 
147 
116 
94 
94 
114 
125 
111 
99 
120 
153 
148 
125 
112 
110 
93 
94 
132 
128 
128 
144 
133 
145 
171 
130 
97 
136 
185 
156 
134 
150 
151 
176 
174 
157 
148 
155 
164 
169 
177 
186 
188 
167 
141 
147 
176 
174 
154 
151 
137 
123 
149 
194 
205 
202 
206 
209 
210 
212 
216 
219 
221 
221 
220 
218 
219 
220 
219 
219 
219 
220 
221 
208 
186 
165 
170 
192 
204 
202 
199 
203 
200 
202 
189 
159 
144 
150 
154 
179 
166 
152 
176 
159 
112 
97 
135 
169 
129 
119 
144 
165 
150 
118 
105 
109 
104 
95 
80 
86 
106 
110 
107 
117 
152 
157 
142 
127 
156 
139 
72 
104 
104 
105 
123 
124 
131 
150 
127 
109 
136 
165 
157 
133 
138 
162 
175 
161 
155 
155 
156 
160 
163 
167 
178 
187 
172 
153 
161 
186 
183 
175 
187 
169 
158 
171 
194 
203 
209 
212 
205 
207 
209 
212 
215 
217 
219 
219 
219 
220 
220 
218 
215 
214 
216 
218 
219 
201 
182 
183 
199 
205 
199 
194 
205 
203 
200 
198 
192 
174 
157 
151 
168 
167 
162 
167 
145 
108 
106 
134 
187 
159 
131 
106 
145 
166 
134 
70 
79 
88 
91 
73 
67 
82 
90 
95 
115 
170 
156 
143 
155 
171 
148 
87 
102 
112 
105 
102 
123 
155 
165 
148 
126 
132 
140 
169 
171 
149 
161 
180 
167 
152 
146 
149 
163 
172 
176 
195 
195 
188 
175 
178 
187 
179 
175 
191 
191 
194 
200 
202 
201 
203 
207 
207 
208 
211 
214 
217 
219 
219 
218 
217 
218 
219 
220 
220 
220 
223 
227 
220 
214 
205 
203 
206 
203 
198 
199 
208 
208 
206 
212 
220 
206 
177 
161 
172 
184 
186 
182 
148 
110 
122 
163 
174 
157 
138 
91 
98 
115 
120 
93 
71 
71 
75 
71 
66 
65 
62 
66 
92 
166 
166 
156 
179 
178 
150 
99 
112 
126 
117 
101 
124 
163 
176 
172 
135 
118 
119 
163 
203 
177 
146 
171 
180 
160 
154 
158 
169 
165 
158 
178 
191 
189 
183 
180 
180 
172 
166 
170 
177 
182 
194 
205 
207 
204 
204 
208 
204 
208 
214 
220 
223 
222 
219 
220 
218 
218 
219 
218 
217 
218 
220 
218 
219 
216 
213 
208 
199 
199 
208 
203 
207 
211 
212 
208 
195 
168 
141 
172 
196 
191 
188 
142 
92 
99 
165 
167 
134 
114 
95 
93 
99 
95 
78 
74 
66 
70 
73 
73 
67 
58 
59 
72 
131 
170 
160 
175 
182 
161 
106 
117 
121 
106 
95 
100 
127 
160 
164 
152 
104 
109 
136 
162 
188 
184 
174 
166 
170 
180 
174 
168 
152 
128 
138 
164 
170 
175 
174 
176 
182 
182 
175 
173 
165 
177 
193 
193 
198 
208 
208 
201 
204 
210 
215 
218 
218 
217 
221 
218 
217 
219 
220 
219 
220 
222 
218 
220 
220 
218 
211 
199 
197 
205 
200 
205 
217 
214 
196 
181 
150 
106 
152 
199 
196 
200 
156 
102 
75 
129 
163 
130 
103 
94 
95 
121 
108 
78 
65 
63 
68 
67 
69 
70 
63 
63 
58 
89 
141 
134 
159 
181 
174 
141 
130 
120 
88 
77 
74 
104 
154 
149 
153 
140 
128 
114 
131 
185 
204 
182 
172 
168 
160 
147 
169 
187 
163 
152 
158 
168 
177 
174 
173 
187 
192 
179 
187 
168 
170 
166 
148 
165 
198 
202 
215 
216 
217 
218 
219 
219 
219 
219 
219 
219 
219 
219 
219 
219 
219 
220 
215 
221 
220 
209 
214 
210 
183 
184 
205 
220 
209 
193 
194 
179 
143 
173 
181 
173 
183 
175 
119 
86 
93 
102 
131 
119 
93 
81 
81 
89 
72 
60 
63 
65 
73 
74 
66 
65 
65 
60 
68 
91 
108 
152 
169 
199 
184 
152 
148 
157 
111 
67 
68 
110 
150 
151 
132 
143 
142 
147 
184 
196 
186 
171 
178 
162 
134 
162 
199 
192 
180 
173 
180 
187 
187 
171 
169 
169 
176 
164 
128 
126 
146 
142 
156 
187 
183 
209 
205 
216 
221 
219 
222 
222 
219 
219 
219 
219 
219 
219 
219 
219 
223 
218 
223 
222 
214 
218 
215 
195 
196 
207 
214 
208 
203 
208 
200 
178 
163 
151 
120 
148 
161 
104 
77 
86 
85 
97 
104 
71 
76 
67 
67 
63 
62 
67 
63 
64 
69 
65 
63 
68 
59 
59 
74 
90 
108 
119 
167 
185 
166 
172 
184 
157 
101 
96 
104 
120 
139 
135 
160 
172 
157 
154 
169 
191 
185 
182 
178 
167 
168 
173 
169 
174 
177 
179 
184 
181 
172 
166 
157 
162 
166 
145 
117 
123 
163 
192 
193 
182 
199 
200 
207 
211 
215 
220 
222 
219 
219 
219 
219 
219 
219 
219 
219 
222 
219 
221 
220 
217 
219 
217 
209 
211 
211 
209 
205 
208 
213 
208 
198 
180 
159 
125 
144 
138 
94 
84 
66 
90 
94 
65 
71 
102 
134 
96 
71 
64 
68 
65 
68 
82 
82 
70 
66 
75 
88 
98 
86 
59 
60 
109 
146 
137 
152 
181 
186 
163 
168 
148 
118 
113 
128 
162 
174 
155 
129 
122 
146 
183 
169 
175 
189 
185 
172 
165 
174 
184 
178 
177 
169 
168 
162 
150 
159 
169 
170 
145 
127 
143 
140 
116 
115 
172 
191 
201 
204 
214 
222 
225 
219 
219 
219 
219 
219 
219 
219 
219 
219 
219 
218 
219 
220 
218 
217 
218 
219 
215 
207 
203 
209 
210 
201 
192 
192 
178 
177 
171 
113 
90 
117 
93 
111 
129 
93 
98 
148 
167 
138 
89 
83 
66 
57 
63 
82 
97 
90 
76 
94 
103 
115 
99 
69 
55 
63 
69 
75 
86 
142 
172 
186 
185 
158 
110 
71 
91 
122 
120 
131 
139 
111 
116 
173 
186 
187 
179 
177 
191 
182 
167 
192 
182 
171 
156 
158 
152 
145 
160 
159 
167 
175 
167 
151 
123 
87 
73 
130 
176 
198 
201 
211 
219 
221 
219 
219 
219 
219 
219 
219 
219 
219 
219 
221 
219 
221 
223 
220 
218 
223 
218 
217 
210 
205 
211 
213 
202 
189 
190 
172 
192 
191 
141 
124 
124 
89 
108 
154 
151 
144 
145 
131 
129 
143 
123 
78 
61 
66 
85 
125 
144 
138 
106 
75 
75 
75 
86 
77 
59 
41 
48 
49 
97 
110 
111 
107 
93 
77 
46 
52 
83 
73 
104 
139 
105 
113 
163 
181 
179 
176 
168 
172 
171 
178 
183 
182 
170 
158 
153 
144 
144 
159 
154 
158 
173 
171 
142 
109 
91 
89 
106 
173 
205 
207 
215 
220 
222 
219 
219 
219 
219 
219 
219 
219 
219 
219 
221 
220 
221 
223 
220 
219 
223 
219 
218 
214 
209 
211 
215 
208 
194 
190 
181 
187 
188 
182 
168 
124 
79 
98 
133 
168 
180 
150 
115 
79 
138 
160 
102 
78 
69 
66 
86 
97 
96 
88 
55 
57 
50 
65 
73 
65 
57 
56 
78 
107 
75 
50 
83 
67 
55 
46 
45 
96 
109 
127 
133 
93 
117 
178 
172 
162 
173 
146 
116 
104 
118 
149 
170 
166 
173 
160 
151 
157 
168 
163 
164 
165 
167 
128 
63 
57 
96 
99 
165 
197 
206 
216 
220 
225 
219 
219 
219 
219 
219 
219 
219 
219 
219 
219 
219 
220 
220 
219 
219 
220 
221 
218 
218 
215 
211 
214 
212 
200 
189 
197 
190 
184 
185 
172 
153 
145 
126 
110 
142 
138 
164 
144 
120 
164 
149 
98 
77 
71 
67 
64 
55 
59 
61 
53 
74 
65 
57 
64 
54 
58 
94 
140 
166 
91 
67 
126 
88 
48 
48 
52 
119 
167 
178 
155 
121 
144 
165 
156 
141 
142 
110 
106 
97 
73 
121 
162 
163 
185 
162 
153 
166 
170 
163 
169 
165 
181 
148 
68 
53 
82 
87 
135 
161 
186 
208 
213 
219 
219 
219 
219 
219 
219 
219 
219 
219 
220 
219 
219 
219 
218 
220 
221 
220 
221 
216 
220 
221 
214 
215 
216 
207 
197 
191 
184 
201 
198 
169 
172 
188 
173 
165 
166 
159 
183 
186 
153 
162 
135 
88 
67 
70 
84 
81 
66 
83 
76 
52 
63 
74 
64 
68 
48 
64 
154 
180 
191 
86 
65 
119 
83 
45 
49 
53 
112 
173 
190 
172 
154 
165 
178 
141 
121 
132 
96 
104 
115 
95 
119 
167 
164 
189 
153 
141 
158 
157 
155 
177 
167 
158 
116 
61 
61 
61 
80 
111 
133 
173 
207 
213 
220 
219 
219 
219 
219 
219 
219 
219 
219 
219 
218 
218 
218 
218 
218 
218 
219 
219 
220 
220 
218 
218 
219 
219 
217 
204 
193 
198 
203 
188 
181 
193 
200 
189 
197 
196 
154 
139 
155 
130 
96 
99 
96 
79 
77 
81 
77 
76 
80 
73 
80 
81 
81 
80 
65 
58 
69 
137 
176 
174 
79 
61 
77 
67 
43 
43 
52 
65 
138 
195 
182 
167 
173 
174 
119 
121 
119 
109 
110 
78 
103 
139 
166 
183 
173 
129 
110 
142 
145 
153 
166 
147 
151 
113 
63 
58 
56 
71 
121 
172 
184 
206 
219 
221 
219 
219 
219 
219 
219 
219 
219 
219 
219 
218 
218 
218 
218 
218 
218 
219 
219 
220 
220 
218 
218 
219 
219 
217 
219 
208 
210 
212 
198 
191 
195 
196 
194 
197 
190 
126 
87 
123 
142 
125 
115 
109 
92 
70 
55 
76 
82 
69 
68 
80 
79 
72 
71 
68 
60 
56 
90 
144 
154 
69 
45 
57 
57 
46 
45 
40 
49 
84 
175 
177 
162 
154 
143 
115 
110 
113 
141 
115 
62 
100 
152 
164 
158 
147 
116 
101 
131 
144 
141 
141 
131 
146 
93 
52 
56 
51 
83 
110 
150 
180 
206 
216 
217 
219 
219 
219 
219 
219 
219 
219 
219 
219 
218 
218 
218 
218 
218 
218 
219 
219 
220 
219 
218 
218 
219 
219 
217 
223 
213 
213 
214 
205 
199 
197 
190 
184 
186 
180 
135 
119 
164 
192 
190 
180 
143 
113 
91 
76 
83 
80 
85 
81 
78 
75 
75 
75 
70 
66 
64 
78 
111 
120 
66 
55 
57 
52 
48 
54 
47 
49 
46 
140 
165 
148 
127 
101 
95 
106 
110 
132 
101 
70 
100 
140 
164 
161 
150 
121 
102 
120 
128 
116 
108 
107 
141 
99 
58 
60 
62 
85 
104 
139 
169 
197 
210 
211 
219 
219 
219 
219 
219 
219 
219 
219 
218 
218 
218 
218 
218 
218 
218 
218 
219 
219 
219 
218 
218 
218 
218 
218 
218 
213 
213 
214 
211 
211 
208 
199 
189 
184 
161 
140 
154 
172 
172 
184 
174 
133 
117 
115 
127 
96 
68 
90 
88 
73 
69 
75 
73 
66 
67 
71 
71 
69 
70 
59 
70 
64 
54 
55 
54 
50 
46 
50 
104 
142 
139 
137 
88 
83 
121 
128 
98 
96 
121 
124 
136 
167 
167 
153 
119 
113 
129 
119 
96 
89 
84 
118 
106 
58 
55 
71 
78 
105 
141 
151 
181 
204 
214 
219 
219 
219 
219 
219 
219 
219 
219 
218 
218 
218 
218 
218 
218 
218 
218 
219 
218 
218 
219 
218 
218 
218 
218 
218 
218 
219 
219 
220 
222 
220 
214 
199 
195 
180 
175 
188 
181 
169 
185 
175 
157 
161 
132 
132 
91 
67 
73 
74 
73 
75 
76 
73 
72 
72 
71 
67 
57 
58 
62 
71 
60 
55 
65 
62 
55 
46 
58 
76 
112 
137 
157 
104 
95 
117 
121 
81 
104 
147 
142 
136 
154 
159 
159 
125 
128 
139 
108 
87 
84 
83 
96 
92 
58 
69 
84 
71 
89 
133 
145 
185 
204 
222 
219 
219 
219 
219 
219 
219 
219 
219 
218 
218 
218 
217 
217 
218 
218 
218 
219 
218 
218 
219 
219 
218 
218 
219 
218 
219 
219 
217 
218 
220 
219 
216 
208 
199 
195 
194 
187 
178 
173 
169 
146 
146 
171 
126 
97 
80 
97 
92 
71 
80 
88 
90 
86 
79 
77 
78 
75 
76 
76 
73 
70 
64 
65 
72 
71 
73 
68 
62 
77 
114 
144 
150 
123 
134 
128 
134 
133 
135 
121 
113 
121 
134 
151 
174 
141 
138 
141 
105 
88 
92 
104 
101 
75 
60 
84 
81 
65 
64 
114 
159 
208 
211 
220 
218 
218 
218 
218 
218 
218 
218 
218 
218 
218 
218 
217 
217 
218 
218 
218 
219 
217 
217 
219 
219 
217 
217 
219 
216 
217 
215 
213 
215 
215 
214 
214 
223 
208 
198 
197 
195 
195 
194 
184 
149 
157 
185 
162 
124 
110 
132 
127 
103 
114 
115 
104 
92 
80 
73 
77 
70 
75 
74 
71 
69 
70 
73 
74 
67 
74 
89 
94 
127 
143 
132 
126 
148 
161 
130 
106 
121 
117 
91 
90 
109 
122 
131 
157 
133 
137 
142 
114 
98 
105 
110 
111 
68 
55 
65 
63 
75 
69 
112 
172 
214 
219 
217 
218 
218 
218 
218 
218 
218 
218 
218 
218 
218 
218 
217 
217 
218 
218 
218 
219 
217 
217 
219 
219 
217 
217 
219 
219 
220 
217 
217 
221 
220 
218 
220 
209 
206 
194 
199 
210 
194 
172 
163 
155 
162 
166 
155 
127 
113 
118 
115 
150 
172 
156 
112 
91 
87 
79 
70 
69 
72 
70 
71 
66 
63 
65 
66 
72 
64 
97 
145 
182 
153 
85 
95 
139 
158 
149 
106 
101 
97 
83 
66 
97 
111 
107 
129 
123 
140 
138 
104 
99 
106 
93 
109 
77 
62 
56 
78 
98 
99 
125 
171 
197 
223 
220 
219 
219 
218 
218 
218 
217 
217 
218 
218 
218 
218 
218 
218 
218 
218 
218 
218 
218 
218 
218 
218 
218 
218 
218 
218 
218 
219 
219 
220 
221 
222 
222 
216 
210 
207 
211 
210 
197 
179 
167 
160 
145 
151 
142 
116 
101 
94 
96 
151 
184 
147 
110 
90 
88 
67 
70 
67 
76 
79 
71 
73 
80 
76 
74 
78 
72 
77 
144 
180 
121 
67 
55 
90 
112 
132 
97 
81 
84 
78 
74 
98 
111 
124 
127 
141 
128 
109 
103 
95 
95 
110 
100 
85 
78 
72 
90 
101 
105 
159 
169 
184 
239 
223 
219 
219 
218 
218 
218 
218 
218 
218 
218 
218 
218 
218 
218 
218 
218 
218 
218 
218 
218 
218 
218 
218 
218 
218 
219 
218 
218 
218 
218 
219 
221 
222 
221 
216 
213 
214 
215 
210 
202 
197 
184 
143 
142 
157 
166 
164 
142 
134 
145 
140 
116 
89 
75 
80 
93 
89 
91 
109 
98 
71 
68 
70 
66 
72 
77 
48 
69 
155 
172 
93 
62 
62 
40 
74 
105 
76 
85 
78 
84 
105 
139 
124 
121 
127 
126 
100 
97 
100 
92 
98 
103 
84 
75 
80 
92 
127 
151 
144 
190 
192 
197 
219 
217 
219 
219 
218 
218 
218 
218 
218 
218 
218 
218 
218 
218 
218 
218 
218 
218 
218 
218 
218 
218 
218 
218 
218 
218 
219 
218 
217 
216 
217 
218 
219 
220 
221 
221 
219 
217 
218 
220 
221 
220 
210 
166 
165 
185 
199 
198 
180 
178 
165 
132 
122 
121 
114 
129 
142 
106 
91 
142 
144 
95 
69 
73 
73 
68 
63 
67 
96 
127 
145 
122 
117 
91 
64 
68 
102 
114 
92 
90 
96 
111 
140 
134 
112 
113 
125 
109 
110 
103 
85 
88 
87 
71 
69 
79 
105 
156 
177 
170 
216 
222 
228 
218 
215 
219 
219 
218 
218 
218 
218 
218 
218 
218 
218 
218 
218 
218 
218 
218 
218 
219 
219 
218 
218 
218 
218 
218 
218 
219 
218 
217 
217 
217 
217 
218 
219 
216 
219 
220 
218 
218 
221 
222 
219 
227 
209 
203 
205 
191 
168 
157 
155 
156 
132 
123 
142 
142 
174 
176 
133 
128 
169 
166 
114 
74 
74 
80 
67 
69 
58 
79 
92 
89 
112 
145 
116 
98 
97 
124 
123 
77 
85 
91 
77 
93 
126 
107 
103 
124 
109 
114 
110 
98 
87 
88 
90 
96 
110 
140 
185 
188 
191 
222 
222 
226 
219 
225 
219 
219 
218 
218 
218 
218 
218 
219 
219 
219 
219 
219 
219 
219 
219 
219 
219 
219 
219 
219 
218 
218 
218 
218 
218 
218 
218 
218 
218 
218 
217 
217 
215 
218 
219 
218 
219 
220 
218 
213 
224 
229 
214 
213 
195 
167 
158 
136 
146 
145 
137 
147 
150 
158 
150 
131 
123 
127 
104 
90 
90 
80 
74 
75 
80 
72 
63 
79 
88 
106 
138 
172 
170 
138 
117 
98 
131 
113 
101 
93 
112 
132 
108 
108 
114 
81 
86 
83 
94 
96 
113 
113 
100 
115 
161 
202 
197 
211 
225 
224 
213 
213 
226 
219 
219 
218 
218 
218 
218 
219 
219 
219 
219 
219 
219 
219 
219 
219 
219 
219 
219 
219 
219 
218 
218 
218 
218 
218 
218 
219 
219 
219 
218 
218 
217 
218 
219 
219 
219 
221 
222 
219 
216 
216 
227 
210 
213 
215 
206 
206 
180 
155 
154 
151 
152 
169 
145 
138 
139 
152 
147 
97 
85 
105 
81 
56 
62 
91 
95 
91 
92 
77 
109 
142 
166 
170 
187 
145 
77 
115 
138 
133 
114 
128 
136 
112 
103 
95 
70 
85 
76 
84 
98 
115 
113 
108 
137 
183 
207 
208 
217 
220 
232 
218 
217 
216 
219 
219 
218 
218 
218 
219 
219 
219 
219 
219 
219 
219 
219 
219 
219 
219 
219 
219 
219 
219 
219 
218 
218 
218 
218 
218 
218 
219 
219 
218 
218 
217 
220 
219 
218 
220 
221 
220 
219 
219 
220 
223 
215 
214 
218 
218 
219 
214 
200 
184 
174 
167 
175 
146 
146 
148 
185 
181 
129 
97 
93 
76 
70 
71 
105 
128 
119 
98 
88 
108 
123 
145 
172 
178 
140 
97 
104 
150 
145 
102 
91 
134 
119 
97 
109 
110 
126 
122 
123 
128 
128 
143 
177 
208 
221 
220 
222 
218 
211 
223 
217 
222 
215 
219 
219 
219 
218 
218 
219 
219 
219 
219 
219 
219 
219 
219 
219 
219 
219 
220 
219 
219 
219 
219 
218 
218 
218 
218 
218 
218 
217 
217 
218 
218 
218 
219 
217 
217 
220 
219 
215 
215 
217 
221 
217 
224 
221 
221 
218 
210 
221 
208 
205 
208 
214 
198 
182 
181 
173 
192 
178 
153 
136 
103 
90 
106 
94 
103 
121 
123 
98 
92 
122 
142 
144 
161 
150 
138 
116 
121 
151 
149 
90 
104 
158 
122 
102 
170 
181 
156 
143 
167 
184 
186 
201 
225 
221 
213 
224 
218 
220 
218 
221 
216 
223 
216 
218 
218 
218 
218 
218 
218 
219 
219 
219 
219 
219 
219 
219 
219 
219 
219 
219 
219 
219 
219 
219 
219 
218 
218 
218 
218 
218 
218 
218 
218 
218 
218 
219 
219 
218 
218 
218 
218 
217 
217 
219 
217 
218 
220 
220 
218 
221 
226 
214 
217 
223 
218 
216 
225 
222 
216 
209 
198 
200 
195 
163 
132 
127 
132 
145 
149 
144 
136 
146 
168 
173 
164 
174 
153 
145 
155 
160 
156 
149 
143 
162 
180 
131 
127 
189 
206 
196 
198 
218 
219 
220 
221 
222 
222 
221 
221 
220 
220 
219 
219 
219 
219 
218 
218 
218 
218 
218 
218 
218 
219 
219 
219 
219 
219 
219 
219 
219 
219 
219 
219 
219 
219 
219 
219 
219 
218 
218 
218 
218 
218 
218 
218 
218 
218 
218 
218 
218 
218 
218 
218 
218 
218 
218 
219 
217 
217 
218 
217 
214 
216 
221 
220 
220 
225 
219 
215 
220 
217 
212 
216 
213 
218 
219 
205 
195 
200 
204 
208 
208 
206 
202 
201 
203 
204 
203 
207 
181 
171 
184 
188 
182 
185 
194 
196 
197 
173 
188 
219 
210 
210 
225 
219 
219 
220 
221 
221 
220 
220 
219 
220 
220 
220 
219 
219 
219 
219 
218 
218 
218 
218 
218 
218 
219 
219 
219 
219 
219 
219 
219 
219 
219 
219 
219 
219 
219 
219 
219 
219 
218 
218 
218 
218 
218 
218 
218 
218 
218 
218 
217 
217 
218 
218 
218 
218 
219 
219 
218 
216 
216 
217 
215 
213 
215 
219 
220 
217 
222 
219 
216 
219 
217 
215 
214 
215 
220 
221 
217 
221 
227 
226 
222 
222 
222 
222 
219 
214 
213 
215 
219 
209 
207 
211 
212 
213 
217 
219 
222 
222 
217 
227 
224 
212 
218 
220 
219 
219 
219 
219 
219 
219 
218 
218 
220 
220 
220 
220 
219 
219 
219 
218 
218 
218 
218 
218 
218 
219 
219 
219 
219 
219 
219 
219 
219 
219 
219 
219 
219 
219 
219 
219 
219 
218 
218 
218 
218 
218 
218 
218 
218 
218 
218 
218 
218 
218 
218 
218 
218 
218 
218 
217 
216 
216 
217 
217 
216 
217 
220 
218 
213 
218 
218 
216 
219 
218 
219 
217 
220 
221 
218 
215 
216 
216 
212 
216 
218 
217 
215 
217 
220 
219 
215 
216 
219 
222 
220 
217 
221 
221 
214 
216 
221 
222 
221 
214 
219 
227 
212 
219 
219 
218 
218 
218 
218 
218 
218 
220 
220 
220 
220 
220 
219 
219 
218 
218 
218 
218 
218 
218 
219 
219 
219 
219 
219 
219 
219 
219 
219 
219 
219 
219 
219 
219 
219 
219 
218 
218 
218 
218 
218 
218 
218 
218 
218 
218 
218 
218 
218 
218 
218 
218 
218 
218 
217 
216 
216 
217 
218 
218 
219 
221 
221 
214 
219 
218 
216 
217 
216 
218 
220 
223 
223 
223 
221 
219 
217 
218 
222 
222 
221 
219 
219 
220 
219 
216 
222 
216 
217 
220 
216 
213 
215 
217 
217 
216 
214 
216 
217 
219 
222 
217 
218 
218 
217 
217 
217 
218 
219 
219 
220 
220 
220 
220 
219 
219 
219 
218 
218 
218 
218 
218 
218 
219 
219 
219 
219 
219 
219 
219 
219 
219 
219 
219 
219 
219 
219 
219 
219 
218 
218 
218 
218 
218 
218 
218 
218 
218 
218 
219 
219 
218 
218 
218 
218 
217 
217 
217 
217 
217 
217 
217 
217 
218 
218 
220 
215 
219 
218 
216 
218 
217 
218 
217 
218 
217 
217 
220 
218 
219 
225 
216 
214 
216 
221 
218 
210 
210 
217 
220 
217 
218 
218 
216 
217 
219 
216 
221 
222 
219 
219 
220 
217 
215 
218 
218 
218 
217 
218 
218 
219 
220 
221 
220 
220 
220 
219 
219 
219 
219 
218 
218 
218 
218 
218 
218 
219 
219 
219 
219 
219 
219 
219 
219 
219 
219 
219 
219 
219 
219 
219 
219 
218 
218 
218 
218 
218 
218 
218 
218 
218 
218 
218 
218 
218 
218 
218 
218 
218 
218 
217 
217 
216 
216 
216 
217 
217 
216 
218 
214 
220 
218 
216 
220 
219 
219 
219 
221 
215 
213 
217 
217 
216 
221 
215 
213 
216 
221 
220 
215 
216 
221 
213 
219 
222 
217 
215 
221 
222 
212 
212 
218 
221 
217 
217 
220 
220 
221 
218 
218 
218 
219 
219 
220 
221 
221 
219 
219 
219 
219 
218 
218 
218 
218 
218 
218 
218 
218 
218 
219 
219 
219 
219 
219 
219 
219 
219 
219 
219 
219 
219 
219 
219 
219 
219 
218 
218 
218 
218 
218 
218 
218 
218 
218 
218 
217 
217 
218 
218 
218 
218 
219 
219 
216 
217 
216 
216 
217 
218 
217 
216 
219 
217 
222 
218 
215 
220 
218 
216 
220 
225 
218 
213 
219 
220 
216 
216 
220 
221 
217 
213 
216 
221 
219 
213 
220 
215 
216 
219 
216 
213 
216 
218 
221 
215 
219 
221 
216 
215 
215 
218 
219 
219 
219 
219 
220 
220 
221 
221 
219 
219 
219 
218 
218 
218 
218 
218 
218 
218 
218 
218 
218 
218 
218 
219 
219 
219 
219 
219 
219 
219 
219 
219 
219 
219 
219 
219 
219 
219 
219 
218 
218 
218 
218 
218 
218 
218 
218 
218 
218 
218 
218 
218 
218 
218 
218 
217 
217 
217 
217 
217 
217 
217 
216 
218 
218 
218 
218 
218 
218 
218 
218 
217 
218 
220 
221 
221 
219 
217 
216 
217 
217 
217 
217 
217 
217 
217 
217 
217 
217 
217 
217 
217 
217 
217 
217 
218 
218 
218 
218 
218 
218 
218 
218 
218 
218 
219 
219 
219 
219 
219 
219 
219 
219 
219 
218 
218 
218 
218 
218 
218 
218 
218 
218 
218 
218 
218 
219 
219 
219 
219 
219 
219 
219 
219 
219 
219 
219 
219 
219 
219 
219 
219 
218 
218 
218 
218 
218 
218 
218 
218 
218 
218 
218 
218 
218 
218 
218 
218 
217 
217 
217 
217 
217 
217 
217 
217 
218 
218 
218 
218 
218 
218 
218 
218 
217 
217 
218 
218 
218 
217 
216 
215 
217 
217 
217 
217 
217 
217 
217 
217 
217 
217 
217 
217 
217 
217 
217 
217 
218 
218 
218 
218 
218 
218 
218 
218 
218 
218 
219 
219 
219 
219 
219 
219 
219 
219 
219 
218 
218 
218 
218 
218 
218 
218 
218 
218 
218 
218 
218 
219 
219 
219 
219 
219 
219 
219 
219 
219 
219 
219 
219 
219 
219 
219 
219 
218 
218 
218 
218 
218 
218 
218 
218 
218 
218 
218 
218 
218 
218 
218 
218 
217 
217 
217 
217 
217 
217 
217 
217 
218 
218 
218 
218 
218 
218 
218 
218 
217 
217 
216 
216 
215 
215 
216 
216 
217 
217 
217 
217 
217 
217 
217 
217 
216 
216 
216 
216 
217 
217 
217 
217 
218 
218 
218 
218 
218 
218 
218 
218 
218 
218 
219 
219 
219 
219 
219 
219 
219 
219 
219 
218 
218 
218 
218 
218 
218 
218 
218 
218 
218 
218 
218 
219 
219 
219 
219 
219 
219 
219 
219 
219 
219 
219 
219 
219 
219 
219 
219 
218 
218 
218 
218 
218 
218 
218 
218 
218 
218 
218 
218 
218 
218 
218 
218 
217 
217 
217 
217 
217 
217 
217 
217 
218 
218 
218 
218 
218 
218 
218 
218 
218 
218 
217 
216 
216 
216 
217 
217 
217 
217 
217 
217 
217 
217 
217 
217 
217 
217 
217 
217 
217 
217 
217 
217 
219 
219 
219 
218 
218 
218 
218 
218 
218 
218 
219 
219 
219 
219 
219 
219 
219 
219 
219 
218 
218 
218 
218 
218 
218 
218 
218 
218 
218 
218 
218 
219 
219 
219 
219 
219 
219 
219 
219 
219 
219 
219 
219 
219 
219 
219 
219 
218 
218 
218 
218 
218 
218 
218 
218 
218 
218 
218 
218 
218 
218 
218 
218 
217 
217 
217 
217 
217 
217 
217 
217 
218 
218 
218 
218 
218 
218 
218 
218 
218 
218 
218 
218 
218 
217 
217 
217 
216 
217 
217 
217 
217 
217 
217 
217 
218 
218 
218 
218 
218 
218 
218 
219 
219 
219 
219 
219 
218 
218 
218 
218 
218 
218 
219 
219 
219 
219 
219 
219 
219 
219 
219 
218 
218 
218 
218 
218 
218 
218 
218 
218 
218 
218 
218 
219 
219 
219 
219 
219 
219 
219 
219 
219 
219 
219 
219 
219 
219 
219 
219 
218 
218 
218 
218 
218 
218 
218 
218 
218 
218 
218 
218 
218 
218 
218 
218 
217 
217 
217 
217 
217 
218 
218 
218 
218 
218 
218 
218 
218 
218 
218 
218 
217 
217 
218 
218 
217 
217 
216 
216 
216 
216 
217 
217 
217 
217 
217 
217 
218 
218 
218 
219 
219 
219 
219 
219 
220 
220 
219 
219 
218 
218 
217 
217 
218 
218 
219 
219 
219 
219 
219 
219 
219 
219 
219 
218 
218 
218 
218 
218 
218 
218 
218 
218 
218 
218 
218 
219 
219 
219 
219 
219 
219 
219 
219 
219 
219 
219 
219 
219 
219 
219 
219 
218 
218 
218 
218 
218 
218 
218 
218 
218 
218 
218 
218 
218 
218 
218 
218 
217 
217 
217 
217 
218 
218 
218 
218 
218 
218 
218 
218 
218 
218 
218 
218 
218 
218 
218 
217 
217 
217 
216 
216 
216 
216 
216 
217 
217 
217 
217 
218 
218 
218 
218 
218 
219 
219 
219 
219 
220 
220 
220 
219 
218 
218 
217 
217 
218 
218 
219 
219 
219 
219 
219 
219 
219 
219 
219 
218 
218 
218 
218 
