P2
# Created by MsrVolt
47 54
255
215 
215 
215 
215 
215 
215 
215 
215 
215 
215 
215 
216 
216 
216 
216 
216 
217 
215 
214 
214 
216 
217 
216 
214 
215 
215 
216 
214 
212 
216 
219 
215 
216 
217 
217 
218 
218 
218 
218 
219 
218 
218 
218 
218 
218 
218 
218 
215 
215 
215 
215 
215 
215 
215 
215 
215 
215 
216 
216 
215 
215 
216 
217 
215 
217 
218 
218 
216 
215 
215 
217 
214 
213 
214 
216 
214 
215 
216 
215 
215 
216 
217 
218 
218 
218 
218 
218 
218 
218 
218 
218 
218 
218 
218 
215 
215 
215 
215 
215 
215 
215 
215 
215 
215 
216 
215 
215 
215 
216 
218 
214 
216 
217 
217 
216 
215 
215 
216 
216 
214 
215 
217 
217 
215 
215 
216 
216 
216 
217 
218 
218 
218 
218 
218 
218 
218 
218 
218 
218 
218 
218 
215 
215 
215 
215 
215 
215 
215 
215 
215 
215 
215 
215 
216 
216 
216 
216 
217 
215 
214 
215 
217 
218 
217 
215 
217 
218 
216 
215 
216 
216 
215 
216 
218 
217 
217 
217 
218 
218 
218 
218 
219 
218 
218 
218 
218 
218 
218 
215 
215 
215 
215 
215 
215 
215 
215 
216 
214 
213 
215 
217 
218 
216 
214 
219 
218 
216 
216 
216 
217 
218 
218 
218 
223 
219 
214 
217 
219 
219 
220 
219 
218 
217 
217 
218 
218 
218 
218 
219 
219 
218 
218 
218 
218 
218 
215 
215 
215 
215 
215 
215 
215 
215 
216 
214 
213 
214 
217 
218 
216 
214 
215 
217 
218 
216 
213 
212 
215 
218 
215 
220 
216 
212 
218 
217 
215 
219 
218 
217 
216 
217 
219 
219 
218 
217 
219 
219 
218 
218 
218 
218 
218 
215 
215 
215 
215 
215 
215 
215 
215 
215 
215 
214 
214 
214 
215 
216 
217 
212 
213 
214 
215 
215 
216 
217 
217 
220 
222 
219 
222 
228 
218 
210 
219 
213 
213 
215 
218 
221 
221 
218 
216 
219 
219 
218 
218 
218 
217 
218 
215 
215 
215 
215 
215 
215 
215 
215 
215 
216 
216 
214 
211 
212 
216 
220 
215 
211 
209 
215 
224 
228 
224 
218 
192 
191 
189 
197 
202 
183 
171 
183 
209 
210 
214 
219 
222 
222 
218 
215 
219 
219 
218 
218 
218 
217 
217 
215 
215 
215 
215 
215 
215 
215 
215 
214 
222 
214 
221 
209 
207 
220 
218 
212 
214 
216 
222 
202 
185 
163 
147 
133 
130 
123 
148 
155 
145 
148 
175 
210 
203 
204 
217 
205 
213 
215 
216 
217 
211 
215 
218 
217 
218 
218 
215 
215 
215 
215 
215 
215 
215 
215 
215 
214 
208 
213 
218 
217 
211 
212 
212 
217 
217 
174 
136 
87 
75 
80 
85 
72 
69 
101 
96 
119 
164 
209 
208 
197 
199 
202 
199 
194 
215 
218 
220 
216 
218 
220 
219 
219 
218 
215 
215 
215 
215 
215 
215 
215 
215 
212 
218 
222 
210 
220 
225 
210 
214 
222 
205 
162 
97 
73 
51 
56 
73 
82 
67 
58 
94 
93 
122 
156 
191 
187 
180 
184 
188 
188 
181 
209 
217 
214 
213 
214 
217 
218 
219 
220 
215 
215 
215 
215 
215 
215 
215 
215 
217 
213 
216 
208 
217 
222 
212 
211 
226 
173 
83 
68 
67 
74 
71 
78 
74 
87 
83 
105 
106 
107 
109 
132 
150 
154 
170 
182 
180 
189 
200 
213 
209 
212 
209 
212 
216 
217 
220 
215 
215 
215 
215 
215 
215 
215 
215 
217 
209 
216 
222 
212 
210 
218 
219 
217 
145 
45 
78 
79 
79 
78 
78 
64 
79 
80 
88 
102 
104 
109 
116 
115 
124 
157 
167 
175 
192 
192 
204 
211 
218 
210 
210 
216 
216 
220 
215 
215 
215 
215 
215 
215 
215 
215 
213 
216 
222 
224 
206 
220 
218 
192 
188 
140 
61 
75 
71 
70 
80 
64 
72 
67 
69 
72 
87 
109 
141 
139 
112 
117 
156 
153 
178 
183 
193 
202 
208 
219 
209 
209 
217 
216 
222 
215 
215 
215 
215 
215 
215 
215 
215 
216 
214 
210 
210 
206 
233 
182 
123 
100 
100 
68 
65 
74 
87 
93 
71 
63 
69 
74 
69 
59 
76 
121 
141 
134 
136 
155 
154 
176 
168 
192 
204 
201 
217 
206 
208 
218 
217 
221 
215 
215 
215 
215 
215 
215 
215 
215 
217 
213 
219 
223 
207 
210 
132 
95 
85 
99 
85 
74 
74 
81 
68 
67 
62 
80 
73 
66 
55 
60 
87 
122 
140 
144 
137 
149 
156 
142 
174 
191 
201 
220 
208 
210 
219 
216 
219 
213 
216 
214 
213 
216 
215 
214 
216 
212 
221 
214 
215 
217 
188 
96 
89 
85 
86 
90 
82 
63 
60 
65 
56 
67 
69 
69 
64 
57 
59 
66 
107 
147 
150 
137 
136 
126 
120 
157 
191 
205 
214 
209 
215 
220 
217 
221 
214 
216 
214 
213 
216 
215 
214 
216 
211 
216 
213 
216 
216 
174 
87 
95 
93 
76 
87 
76 
65 
57 
57 
57 
63 
67 
60 
57 
59 
68 
69 
89 
122 
146 
149 
138 
124 
130 
168 
199 
207 
207 
203 
206 
217 
219 
222 
214 
216 
214 
214 
216 
215 
214 
216 
217 
214 
213 
218 
208 
161 
85 
102 
91 
70 
86 
70 
68 
60 
56 
57 
56 
61 
50 
52 
54 
60 
70 
87 
112 
137 
152 
138 
134 
153 
178 
200 
214 
209 
207 
190 
204 
217 
228 
214 
216 
215 
214 
216 
215 
214 
216 
216 
212 
218 
218 
183 
139 
67 
69 
77 
71 
80 
67 
64 
64 
61 
54 
52 
57 
48 
52 
46 
46 
77 
114 
131 
148 
166 
152 
147 
163 
172 
192 
205 
207 
213 
179 
186 
206 
223 
214 
217 
215 
214 
216 
215 
214 
216 
215 
213 
217 
188 
132 
116 
75 
69 
69 
76 
67 
68 
57 
57 
58 
51 
54 
56 
47 
52 
44 
52 
97 
142 
169 
170 
179 
166 
171 
185 
171 
172 
202 
203 
218 
193 
195 
204 
216 
215 
217 
215 
214 
216 
215 
214 
216 
214 
215 
212 
145 
90 
95 
88 
85 
73 
79 
59 
72 
56 
49 
52 
53 
54 
53 
45 
45 
44 
69 
111 
148 
179 
183 
192 
180 
187 
202 
187 
181 
216 
205 
215 
209 
209 
207 
217 
215 
217 
215 
214 
216 
215 
214 
216 
210 
214 
209 
111 
83 
75 
70 
60 
73 
77 
63 
70 
60 
51 
50 
53 
51 
45 
44 
44 
42 
67 
104 
142 
173 
190 
206 
194 
182 
183 
191 
212 
218 
207 
207 
208 
201 
200 
217 
215 
217 
215 
214 
216 
215 
214 
216 
217 
212 
196 
78 
85 
70 
71 
63 
64 
70 
70 
64 
61 
59 
51 
48 
49 
42 
46 
48 
39 
52 
90 
142 
199 
195 
195 
191 
181 
172 
180 
206 
210 
214 
213 
210 
194 
198 
220 
218 
212 
219 
218 
212 
216 
216 
214 
219 
195 
161 
74 
77 
77 
80 
69 
71 
63 
71 
63 
57 
50 
50 
54 
51 
43 
43 
48 
60 
78 
73 
126 
187 
205 
198 
202 
190 
179 
180 
188 
197 
209 
211 
210 
194 
203 
217 
218 
216 
219 
216 
209 
218 
216 
211 
209 
166 
120 
78 
78 
80 
81 
73 
68 
60 
61 
54 
53 
49 
54 
53 
51 
44 
44 
42 
68 
78 
82 
101 
161 
198 
212 
206 
192 
187 
187 
189 
192 
204 
207 
209 
198 
208 
221 
215 
217 
217 
215 
208 
223 
218 
213 
193 
123 
75 
76 
69 
68 
69 
68 
67 
60 
54 
51 
51 
50 
59 
54 
45 
43 
42 
72 
73 
67 
88 
130 
152 
180 
200 
190 
188 
192 
194 
195 
208 
218 
216 
216 
204 
211 
219 
215 
218 
217 
216 
209 
222 
216 
216 
179 
89 
63 
70 
62 
56 
60 
64 
67 
63 
56 
51 
52 
52 
62 
53 
44 
48 
43 
99 
96 
97 
127 
162 
151 
158 
183 
185 
196 
197 
196 
202 
204 
213 
208 
210 
204 
211 
217 
219 
218 
218 
219 
213 
217 
211 
218 
173 
72 
77 
66 
69 
64 
67 
68 
67 
64 
62 
54 
55 
53 
58 
50 
49 
55 
69 
129 
126 
100 
146 
190 
154 
155 
185 
198 
208 
199 
193 
198 
197 
206 
201 
205 
204 
213 
217 
216 
214 
217 
215 
218 
215 
212 
220 
164 
67 
87 
65 
75 
74 
68 
65 
68 
61 
66 
56 
55 
53 
52 
49 
46 
66 
94 
148 
105 
65 
115 
198 
185 
176 
184 
190 
195 
192 
186 
181 
201 
211 
204 
209 
210 
216 
217 
212 
210 
215 
208 
222 
217 
214 
217 
143 
65 
81 
69 
72 
74 
60 
60 
73 
58 
68 
55 
54 
56 
50 
54 
64 
105 
124 
153 
100 
98 
120 
178 
208 
193 
179 
184 
182 
184 
181 
171 
188 
201 
197 
207 
213 
219 
219 
215 
212 
217 
203 
222 
216 
212 
208 
123 
65 
73 
79 
69 
72 
56 
65 
79 
57 
69 
54 
55 
61 
52 
62 
66 
94 
125 
142 
116 
107 
110 
147 
197 
192 
187 
203 
191 
182 
181 
174 
183 
198 
197 
207 
215 
220 
218 
213 
214 
214 
214 
222 
214 
203 
214 
99 
71 
84 
76 
75 
74 
58 
68 
77 
49 
64 
60 
50 
55 
72 
63 
71 
113 
131 
128 
111 
76 
127 
150 
190 
189 
195 
203 
196 
201 
200 
205 
200 
201 
184 
211 
216 
222 
222 
214 
214 
214 
214 
222 
218 
209 
221 
99 
77 
84 
78 
79 
75 
63 
73 
71 
55 
64 
55 
47 
57 
71 
67 
93 
131 
142 
132 
82 
55 
142 
177 
181 
183 
206 
192 
200 
202 
203 
186 
198 
209 
194 
212 
214 
221 
220 
215 
215 
213 
214 
219 
220 
214 
226 
94 
74 
86 
84 
85 
69 
65 
78 
64 
59 
55 
49 
49 
68 
72 
72 
122 
157 
137 
116 
107 
96 
137 
185 
179 
196 
181 
191 
192 
188 
163 
146 
187 
212 
204 
213 
215 
221 
218 
217 
216 
214 
214 
215 
219 
214 
224 
134 
68 
79 
77 
89 
71 
74 
85 
66 
62 
49 
55 
71 
85 
77 
82 
129 
153 
127 
115 
172 
183 
130 
155 
189 
221 
159 
187 
188 
186 
154 
146 
179 
208 
207 
214 
219 
222 
215 
217 
217 
214 
216 
211 
218 
213 
221 
156 
60 
84 
83 
88 
63 
72 
84 
67 
63 
51 
72 
96 
97 
85 
99 
137 
134 
119 
119 
168 
203 
161 
155 
191 
209 
176 
172 
186 
194 
197 
186 
190 
211 
211 
216 
223 
221 
213 
216 
217 
215 
218 
209 
220 
215 
221 
172 
70 
86 
87 
86 
67 
80 
86 
58 
59 
56 
83 
105 
99 
95 
111 
130 
130 
108 
110 
125 
164 
186 
183 
192 
176 
199 
189 
182 
194 
211 
211 
213 
220 
217 
218 
223 
219 
212 
215 
216 
214 
218 
207 
221 
216 
221 
216 
119 
81 
81 
87 
94 
104 
90 
67 
72 
73 
89 
107 
102 
106 
111 
124 
150 
136 
141 
144 
155 
193 
209 
198 
178 
201 
214 
187 
190 
201 
215 
222 
222 
220 
217 
220 
219 
215 
214 
216 
214 
217 
204 
220 
216 
220 
213 
159 
103 
100 
86 
92 
97 
78 
95 
99 
96 
98 
113 
110 
116 
104 
112 
138 
145 
146 
138 
137 
172 
205 
192 
198 
188 
202 
191 
185 
204 
215 
218 
217 
220 
216 
218 
220 
218 
212 
218 
212 
221 
212 
222 
214 
216 
218 
183 
160 
101 
90 
89 
93 
101 
128 
132 
103 
101 
110 
117 
128 
111 
107 
146 
149 
138 
139 
132 
168 
202 
199 
198 
198 
194 
188 
192 
204 
212 
212 
214 
217 
219 
218 
218 
218 
213 
216 
212 
220 
215 
221 
215 
215 
223 
210 
193 
131 
94 
84 
102 
126 
154 
144 
114 
108 
110 
108 
129 
126 
123 
147 
139 
130 
141 
143 
180 
211 
209 
200 
193 
195 
199 
201 
205 
210 
217 
219 
220 
220 
218 
218 
217 
215 
213 
213 
218 
219 
217 
215 
216 
217 
222 
222 
192 
136 
93 
103 
137 
162 
165 
150 
121 
102 
94 
127 
125 
110 
128 
125 
129 
153 
159 
187 
211 
205 
203 
199 
200 
202 
196 
197 
210 
220 
221 
220 
219 
218 
217 
217 
215 
211 
214 
215 
219 
212 
215 
218 
213 
222 
221 
219 
180 
146 
152 
175 
179 
178 
166 
128 
103 
87 
109 
92 
78 
100 
116 
135 
165 
168 
183 
195 
192 
202 
202 
200 
200 
193 
195 
211 
218 
218 
218 
218 
217 
217 
217 
215 
211 
216 
213 
216 
207 
215 
220 
209 
225 
214 
215 
201 
201 
200 
189 
189 
184 
178 
147 
113 
86 
114 
121 
99 
115 
131 
149 
179 
183 
191 
197 
192 
199 
194 
191 
202 
208 
207 
212 
217 
217 
217 
218 
218 
218 
217 
215 
212 
217 
212 
214 
207 
215 
219 
208 
220 
212 
218 
217 
221 
208 
186 
190 
198 
200 
164 
121 
100 
143 
173 
166 
165 
162 
162 
186 
196 
205 
210 
204 
205 
195 
188 
200 
213 
214 
213 
219 
218 
218 
219 
219 
219 
217 
215 
215 
216 
213 
214 
212 
215 
216 
216 
214 
210 
220 
223 
223 
218 
214 
208 
211 
203 
179 
158 
150 
170 
184 
208 
202 
192 
177 
188 
198 
208 
211 
212 
212 
206 
199 
200 
209 
215 
216 
221 
219 
218 
218 
219 
219 
218 
216 
216 
216 
214 
215 
216 
215 
213 
213 
215 
216 
217 
218 
220 
218 
215 
213 
208 
208 
217 
216 
205 
205 
218 
219 
222 
221 
201 
202 
205 
211 
214 
216 
213 
211 
210 
209 
213 
219 
219 
220 
219 
217 
217 
218 
219 
219 
216 
216 
216 
216 
216 
217 
217 
217 
215 
216 
216 
215 
216 
219 
219 
217 
216 
214 
212 
213 
215 
216 
217 
217 
213 
214 
216 
217 
216 
216 
215 
216 
216 
219 
220 
219 
217 
219 
220 
221 
218 
218 
218 
218 
218 
218 
218 
216 
216 
216 
217 
217 
217 
217 
217 
217 
217 
216 
214 
215 
217 
218 
217 
211 
211 
211 
213 
215 
217 
218 
218 
218 
218 
218 
217 
216 
215 
215 
215 
217 
219 
219 
218 
216 
217 
217 
217 
218 
218 
218 
218 
218 
218 
218 
217 
217 
217 
217 
217 
217 
217 
217 
218 
218 
216 
214 
215 
216 
217 
216 
218 
218 
219 
219 
219 
219 
218 
217 
216 
216 
216 
216 
215 
216 
218 
219 
217 
219 
219 
217 
216 
217 
216 
215 
218 
218 
218 
218 
218 
218 
218 
216 
216 
216 
216 
216 
216 
216 
216 
217 
217 
216 
215 
216 
216 
216 
216 
217 
218 
218 
216 
214 
213 
212 
211 
215 
215 
216 
217 
217 
218 
220 
221 
217 
218 
218 
218 
218 
220 
219 
217 
218 
218 
218 
218 
218 
218 
218 
216 
216 
216 
215 
215 
215 
215 
215 
215 
215 
216 
217 
218 
217 
216 
215 
215 
216 
215 
214 
214 
216 
216 
214 
216 
218 
219 
220 
220 
219 
219 
219 
217 
218 
218 
218 
219 
221 
220 
219 
218 
218 
218 
218 
218 
218 
218 
216 
215 
215 
215 
214 
214 
214 
214 
213 
213 
215 
218 
219 
218 
216 
215 
218 
219 
218 
216 
217 
221 
221 
218 
211 
213 
216 
218 
219 
218 
217 
217 
218 
219 
218 
217 
217 
218 
219 
218 
219 
219 
219 
218 
218 
218 
218 
