P2
# Created by MsrVolt
51 49
255
215 
215 
215 
215 
215 
215 
215 
215 
214 
213 
215 
217 
216 
213 
214 
218 
216 
217 
217 
213 
223 
217 
215 
214 
216 
216 
218 
217 
213 
213 
218 
218 
217 
215 
217 
220 
218 
216 
218 
219 
217 
217 
217 
218 
218 
218 
217 
216 
218 
218 
218 
215 
215 
215 
215 
215 
215 
215 
215 
215 
215 
215 
215 
216 
217 
216 
215 
214 
216 
218 
211 
215 
211 
217 
222 
219 
217 
219 
214 
219 
221 
218 
214 
221 
219 
218 
218 
218 
217 
218 
219 
217 
217 
217 
218 
219 
219 
219 
218 
218 
218 
218 
215 
215 
215 
215 
215 
215 
215 
215 
216 
216 
215 
214 
216 
218 
217 
214 
218 
214 
217 
214 
219 
216 
220 
215 
218 
219 
225 
211 
218 
217 
214 
220 
218 
219 
217 
216 
220 
220 
217 
217 
219 
218 
218 
218 
218 
219 
218 
218 
218 
218 
218 
215 
215 
215 
215 
215 
215 
215 
215 
216 
215 
215 
215 
214 
214 
216 
218 
216 
212 
219 
216 
214 
212 
220 
216 
216 
216 
226 
217 
226 
216 
208 
221 
210 
214 
214 
217 
224 
223 
217 
214 
221 
220 
218 
217 
217 
217 
217 
216 
219 
219 
219 
215 
215 
215 
215 
215 
215 
215 
215 
215 
214 
215 
217 
213 
208 
213 
222 
215 
207 
213 
215 
222 
222 
225 
215 
199 
188 
192 
197 
208 
189 
171 
183 
208 
210 
213 
218 
222 
221 
217 
215 
220 
219 
217 
217 
217 
217 
216 
216 
219 
219 
219 
215 
215 
215 
215 
215 
215 
215 
215 
215 
214 
215 
216 
212 
209 
213 
221 
213 
214 
222 
217 
207 
184 
167 
150 
136 
124 
122 
142 
151 
142 
148 
174 
212 
206 
208 
213 
211 
211 
216 
218 
217 
216 
216 
216 
217 
218 
218 
218 
218 
218 
218 
215 
215 
215 
215 
215 
215 
215 
215 
215 
215 
214 
213 
214 
217 
216 
213 
211 
219 
215 
176 
131 
86 
75 
77 
79 
75 
68 
101 
108 
120 
161 
206 
205 
192 
197 
204 
195 
196 
212 
219 
215 
215 
215 
217 
218 
219 
219 
219 
217 
217 
217 
215 
215 
215 
215 
215 
215 
215 
215 
215 
217 
214 
210 
216 
225 
219 
205 
222 
201 
158 
102 
70 
50 
58 
73 
80 
76 
58 
92 
93 
111 
157 
196 
193 
176 
185 
195 
183 
186 
208 
217 
216 
216 
216 
218 
219 
220 
219 
219 
218 
218 
217 
215 
215 
215 
215 
215 
215 
215 
215 
213 
220 
209 
215 
217 
217 
214 
215 
229 
177 
76 
74 
65 
64 
84 
74 
78 
81 
84 
97 
111 
107 
112 
136 
147 
156 
167 
184 
181 
192 
201 
210 
211 
207 
215 
210 
215 
217 
222 
220 
219 
219 
219 
215 
215 
215 
215 
215 
215 
215 
215 
215 
218 
217 
222 
206 
211 
216 
214 
211 
148 
50 
79 
85 
80 
79 
71 
69 
72 
82 
93 
100 
104 
107 
106 
114 
127 
161 
167 
175 
186 
194 
203 
216 
213 
211 
211 
216 
215 
219 
221 
221 
221 
220 
215 
215 
215 
215 
215 
215 
215 
215 
214 
212 
214 
224 
206 
231 
222 
192 
189 
139 
50 
68 
69 
74 
74 
74 
64 
63 
71 
73 
77 
110 
142 
145 
111 
119 
160 
153 
173 
182 
194 
204 
210 
218 
206 
210 
215 
217 
221 
221 
221 
220 
218 
215 
215 
215 
215 
215 
215 
215 
215 
218 
216 
212 
216 
202 
225 
178 
121 
98 
103 
70 
75 
77 
90 
86 
71 
70 
73 
77 
68 
58 
81 
120 
138 
134 
132 
156 
151 
174 
174 
190 
203 
200 
222 
206 
209 
214 
220 
223 
217 
221 
218 
215 
215 
215 
215 
215 
215 
215 
215 
215 
211 
219 
217 
221 
212 
213 
139 
97 
86 
98 
87 
68 
67 
76 
78 
60 
60 
69 
72 
65 
57 
59 
87 
122 
144 
142 
141 
147 
157 
146 
171 
194 
201 
222 
208 
214 
217 
217 
218 
215 
223 
220 
216 
215 
215 
215 
215 
215 
215 
215 
215 
215 
217 
214 
219 
215 
182 
93 
83 
86 
81 
91 
77 
71 
60 
63 
58 
70 
75 
67 
63 
63 
55 
69 
107 
142 
149 
134 
136 
129 
119 
157 
193 
206 
213 
206 
216 
220 
215 
217 
222 
222 
220 
217 
215 
215 
215 
215 
215 
215 
215 
215 
214 
212 
211 
215 
220 
177 
90 
100 
92 
74 
90 
80 
65 
53 
55 
58 
59 
63 
57 
58 
67 
62 
67 
92 
129 
150 
144 
132 
124 
126 
165 
201 
209 
207 
205 
205 
214 
217 
223 
224 
218 
218 
218 
215 
215 
215 
215 
215 
215 
215 
215 
215 
217 
221 
211 
207 
163 
81 
96 
94 
71 
83 
71 
58 
66 
62 
54 
60 
61 
52 
50 
54 
60 
70 
86 
106 
140 
155 
137 
140 
152 
179 
204 
212 
209 
208 
192 
202 
220 
228 
217 
215 
217 
220 
215 
213 
217 
216 
212 
216 
219 
213 
214 
215 
215 
219 
185 
137 
69 
78 
73 
72 
80 
72 
65 
57 
61 
54 
55 
56 
49 
49 
46 
45 
79 
109 
133 
153 
158 
147 
153 
165 
173 
186 
206 
205 
217 
179 
187 
209 
221 
221 
213 
218 
223 
215 
214 
217 
214 
215 
214 
217 
214 
219 
216 
213 
192 
126 
118 
74 
69 
73 
73 
71 
66 
57 
57 
57 
55 
56 
49 
45 
53 
47 
50 
94 
142 
161 
173 
185 
167 
166 
178 
171 
179 
204 
202 
215 
194 
195 
206 
215 
215 
215 
218 
220 
216 
215 
217 
212 
219 
213 
215 
216 
213 
212 
210 
148 
88 
102 
86 
78 
74 
76 
66 
64 
54 
56 
49 
50 
55 
53 
46 
52 
45 
68 
112 
151 
185 
179 
191 
181 
190 
207 
185 
180 
210 
208 
215 
213 
203 
207 
220 
222 
217 
217 
216 
216 
216 
217 
211 
221 
212 
213 
216 
214 
218 
211 
105 
85 
77 
70 
71 
70 
75 
68 
65 
60 
56 
46 
49 
48 
49 
44 
45 
39 
65 
105 
143 
175 
185 
208 
196 
178 
182 
192 
215 
214 
211 
209 
214 
195 
200 
221 
224 
218 
215 
212 
216 
217 
217 
212 
220 
213 
213 
216 
216 
213 
197 
79 
85 
66 
62 
61 
65 
69 
69 
63 
65 
54 
50 
52 
50 
44 
42 
48 
40 
55 
91 
142 
198 
195 
192 
189 
179 
175 
188 
199 
211 
213 
207 
212 
190 
198 
219 
219 
216 
214 
211 
216 
219 
216 
215 
215 
216 
214 
214 
215 
192 
162 
78 
77 
80 
82 
70 
68 
66 
67 
58 
59 
49 
52 
53 
52 
44 
43 
52 
57 
70 
84 
119 
188 
202 
203 
205 
190 
172 
182 
188 
198 
209 
209 
212 
196 
206 
222 
218 
216 
214 
212 
215 
220 
216 
218 
209 
219 
215 
212 
212 
164 
119 
82 
74 
80 
81 
73 
71 
64 
60 
55 
51 
48 
52 
53 
46 
44 
43 
49 
69 
79 
78 
103 
161 
193 
209 
208 
197 
185 
186 
192 
191 
205 
210 
209 
200 
209 
218 
215 
217 
216 
214 
215 
220 
216 
220 
205 
221 
217 
211 
192 
129 
76 
72 
76 
66 
65 
71 
67 
58 
52 
54 
49 
53 
56 
57 
49 
44 
45 
57 
75 
72 
81 
130 
154 
183 
198 
187 
189 
195 
191 
196 
206 
215 
219 
211 
205 
211 
217 
218 
218 
218 
216 
216 
219 
214 
219 
208 
222 
211 
215 
179 
90 
62 
76 
60 
62 
57 
67 
68 
64 
55 
56 
50 
57 
61 
50 
45 
43 
49 
97 
98 
94 
130 
164 
150 
154 
185 
189 
193 
198 
203 
199 
205 
213 
210 
211 
202 
210 
216 
211 
217 
215 
214 
214 
219 
219 
219 
209 
217 
212 
219 
174 
71 
72 
67 
65 
66 
66 
67 
66 
67 
61 
56 
52 
56 
54 
55 
50 
54 
67 
132 
128 
96 
145 
190 
158 
155 
182 
200 
209 
195 
188 
196 
203 
206 
201 
208 
206 
213 
216 
213 
216 
215 
214 
214 
216 
219 
215 
214 
216 
214 
220 
169 
64 
86 
70 
70 
76 
69 
66 
66 
64 
64 
53 
57 
55 
48 
54 
44 
69 
95 
147 
101 
63 
120 
199 
185 
176 
181 
189 
200 
192 
184 
188 
198 
205 
202 
209 
209 
217 
218 
212 
217 
217 
216 
216 
212 
213 
209 
221 
220 
214 
215 
145 
65 
80 
73 
64 
78 
57 
60 
73 
58 
65 
52 
57 
57 
49 
52 
74 
96 
120 
152 
107 
100 
114 
176 
207 
191 
182 
181 
185 
185 
178 
171 
186 
204 
204 
208 
210 
221 
221 
213 
218 
217 
217 
217 
211 
211 
207 
225 
219 
210 
211 
114 
69 
73 
76 
68 
77 
55 
64 
78 
55 
68 
58 
52 
58 
60 
58 
64 
98 
130 
145 
114 
108 
113 
149 
201 
187 
188 
199 
191 
185 
181 
172 
185 
198 
194 
204 
212 
222 
220 
218 
216 
216 
216 
215 
214 
215 
210 
224 
214 
206 
214 
101 
75 
80 
78 
80 
72 
62 
70 
74 
54 
67 
61 
48 
55 
69 
65 
73 
111 
128 
126 
108 
78 
124 
152 
184 
191 
197 
205 
196 
201 
207 
199 
200 
199 
187 
205 
218 
220 
215 
220 
217 
216 
216 
214 
216 
217 
213 
223 
214 
207 
221 
98 
72 
84 
79 
80 
66 
64 
70 
68 
57 
58 
56 
47 
59 
73 
69 
93 
139 
146 
125 
88 
54 
131 
185 
177 
200 
194 
193 
194 
204 
202 
193 
203 
207 
196 
209 
221 
221 
214 
218 
219 
218 
217 
214 
216 
214 
213 
224 
219 
211 
226 
102 
71 
88 
87 
78 
74 
71 
77 
68 
62 
49 
51 
50 
68 
75 
69 
122 
147 
136 
127 
101 
97 
139 
181 
177 
197 
180 
190 
202 
186 
156 
149 
186 
210 
207 
211 
217 
224 
218 
216 
218 
217 
216 
215 
215 
216 
210 
210 
223 
212 
224 
124 
69 
83 
82 
85 
69 
77 
76 
63 
64 
50 
53 
70 
87 
78 
83 
133 
155 
124 
114 
169 
182 
135 
158 
189 
222 
161 
177 
192 
191 
152 
145 
180 
206 
211 
209 
222 
222 
214 
220 
222 
219 
216 
215 
216 
218 
215 
210 
223 
211 
221 
157 
59 
85 
83 
86 
63 
73 
93 
67 
56 
50 
75 
95 
97 
86 
100 
133 
133 
116 
124 
171 
201 
168 
145 
196 
198 
184 
177 
182 
194 
200 
186 
193 
211 
214 
211 
220 
220 
213 
218 
220 
218 
215 
216 
215 
217 
220 
208 
222 
213 
221 
178 
70 
83 
85 
83 
72 
77 
84 
69 
56 
55 
87 
105 
98 
92 
112 
133 
130 
113 
109 
122 
161 
186 
186 
192 
177 
200 
187 
181 
191 
214 
210 
211 
218 
219 
218 
220 
219 
216 
218 
219 
218 
216 
216 
214 
214 
220 
204 
221 
216 
223 
210 
122 
86 
90 
84 
94 
99 
88 
67 
68 
71 
91 
106 
104 
106 
114 
124 
146 
138 
140 
147 
155 
187 
210 
193 
184 
201 
205 
192 
191 
198 
219 
221 
220 
220 
221 
220 
218 
218 
218 
219 
219 
218 
215 
213 
213 
220 
207 
218 
217 
221 
217 
155 
105 
93 
88 
94 
91 
87 
94 
100 
97 
101 
110 
113 
114 
104 
109 
145 
140 
139 
143 
137 
171 
206 
197 
194 
189 
204 
193 
190 
196 
219 
220 
215 
217 
220 
217 
217 
218 
216 
218 
218 
219 
214 
213 
214 
220 
214 
216 
214 
215 
219 
186 
161 
101 
93 
94 
90 
101 
132 
126 
108 
102 
110 
113 
124 
112 
107 
146 
153 
142 
132 
130 
172 
201 
200 
197 
188 
198 
189 
190 
208 
208 
217 
215 
217 
220 
218 
218 
219 
217 
217 
218 
219 
213 
214 
215 
216 
221 
215 
214 
213 
219 
210 
198 
123 
96 
86 
97 
125 
150 
140 
117 
104 
105 
108 
134 
131 
126 
143 
140 
131 
140 
148 
184 
208 
205 
204 
197 
204 
195 
197 
211 
206 
217 
219 
220 
220 
219 
219 
219 
218 
217 
218 
219 
214 
215 
214 
212 
224 
215 
217 
216 
216 
224 
218 
188 
140 
94 
106 
138 
166 
166 
146 
121 
105 
97 
123 
120 
110 
126 
123 
125 
156 
158 
179 
214 
203 
207 
192 
203 
195 
197 
196 
212 
217 
222 
222 
218 
218 
218 
216 
216 
218 
219 
220 
216 
212 
215 
212 
221 
208 
220 
218 
211 
226 
216 
221 
174 
144 
152 
175 
179 
177 
165 
132 
104 
83 
108 
96 
78 
101 
114 
136 
166 
165 
181 
198 
189 
203 
206 
200 
196 
197 
200 
204 
217 
217 
218 
218 
218 
218 
217 
217 
218 
218 
218 
215 
212 
216 
212 
219 
207 
218 
218 
208 
223 
212 
222 
205 
201 
196 
189 
189 
189 
179 
144 
110 
86 
115 
115 
101 
121 
130 
147 
181 
186 
194 
199 
193 
198 
196 
194 
201 
209 
210 
209 
219 
219 
219 
219 
218 
218 
217 
217 
218 
218 
218 
213 
213 
216 
213 
217 
206 
217 
217 
211 
221 
208 
218 
218 
224 
211 
187 
187 
195 
196 
165 
125 
102 
148 
174 
157 
167 
161 
158 
185 
196 
205 
206 
204 
202 
194 
190 
201 
213 
215 
213 
220 
220 
219 
219 
218 
218 
217 
217 
218 
218 
218 
214 
214 
216 
214 
217 
208 
216 
216 
211 
217 
211 
222 
220 
221 
216 
209 
215 
208 
201 
184 
161 
141 
166 
182 
208 
210 
196 
177 
187 
195 
207 
213 
212 
212 
204 
196 
200 
208 
214 
219 
220 
219 
219 
218 
217 
218 
218 
218 
218 
218 
218 
216 
216 
214 
215 
218 
212 
217 
214 
214 
217 
216 
223 
218 
217 
219 
224 
216 
208 
208 
214 
215 
205 
212 
216 
219 
219 
215 
201 
205 
204 
208 
214 
212 
217 
214 
208 
208 
212 
217 
224 
218 
218 
217 
217 
217 
218 
218 
219 
218 
218 
218 
217 
217 
214 
216 
218 
215 
218 
214 
217 
218 
216 
215 
214 
218 
216 
213 
210 
208 
211 
216 
217 
212 
214 
219 
217 
213 
218 
213 
220 
216 
212 
214 
214 
219 
219 
218 
219 
220 
219 
220 
217 
217 
217 
217 
217 
218 
218 
218 
218 
218 
218 
216 
218 
214 
217 
218 
216 
218 
215 
215 
215 
216 
214 
217 
223 
221 
217 
221 
214 
208 
209 
217 
221 
216 
215 
219 
213 
219 
213 
219 
218 
215 
216 
218 
221 
220 
219 
221 
220 
216 
216 
217 
218 
218 
218 
218 
218 
218 
218 
218 
218 
218 
214 
218 
215 
218 
216 
215 
218 
217 
217 
216 
220 
217 
215 
213 
213 
219 
213 
218 
220 
218 
219 
222 
217 
220 
217 
214 
223 
213 
215 
216 
216 
219 
218 
221 
218 
215 
215 
215 
215 
218 
218 
219 
219 
219 
219 
218 
218 
217 
219 
218 
218 
216 
216 
216 
216 
216 
216 
216 
216 
216 
216 
216 
216 
216 
216 
216 
216 
217 
217 
217 
217 
214 
211 
210 
211 
213 
212 
213 
216 
219 
219 
219 
221 
219 
217 
217 
219 
220 
219 
218 
218 
218 
218 
219 
218 
218 
217 
218 
218 
218 
218 
218 
