P2
# Created by MsrVolt
105 81
255
218 
219 
219 
219 
219 
219 
219 
219 
220 
220 
220 
220 
220 
220 
220 
220 
220 
220 
220 
220 
220 
220 
220 
220 
220 
220 
220 
220 
220 
220 
220 
220 
220 
220 
220 
220 
220 
220 
220 
220 
220 
220 
220 
220 
220 
220 
220 
220 
220 
220 
220 
220 
220 
220 
220 
220 
219 
219 
219 
219 
219 
219 
219 
219 
219 
219 
219 
219 
219 
219 
219 
219 
219 
219 
219 
219 
219 
219 
219 
219 
219 
219 
219 
219 
219 
219 
219 
219 
219 
219 
219 
219 
219 
219 
219 
219 
219 
219 
219 
219 
219 
219 
219 
219 
219 
219 
219 
219 
220 
220 
220 
219 
219 
220 
220 
220 
220 
220 
220 
220 
220 
220 
220 
220 
220 
220 
220 
220 
220 
220 
220 
220 
220 
220 
220 
220 
220 
220 
220 
220 
220 
220 
220 
220 
220 
220 
220 
220 
220 
220 
220 
220 
220 
220 
220 
220 
220 
220 
220 
220 
220 
219 
219 
219 
219 
219 
219 
219 
219 
219 
219 
219 
219 
219 
219 
219 
219 
219 
219 
219 
219 
219 
219 
219 
219 
219 
219 
219 
219 
219 
219 
219 
219 
219 
219 
219 
219 
219 
219 
219 
219 
219 
219 
219 
219 
219 
219 
219 
219 
219 
219 
219 
220 
220 
220 
220 
220 
220 
220 
220 
220 
220 
220 
220 
220 
220 
220 
220 
220 
220 
220 
220 
220 
220 
220 
220 
220 
220 
220 
220 
220 
220 
220 
220 
220 
220 
220 
220 
220 
220 
220 
220 
220 
220 
220 
220 
220 
220 
220 
220 
220 
220 
220 
220 
220 
220 
219 
219 
219 
219 
219 
219 
219 
219 
219 
219 
219 
219 
219 
219 
219 
219 
219 
219 
219 
219 
219 
219 
219 
219 
219 
219 
219 
219 
219 
219 
219 
219 
219 
219 
219 
219 
219 
219 
219 
219 
219 
219 
219 
219 
219 
219 
219 
219 
219 
219 
220 
220 
220 
221 
221 
221 
221 
220 
220 
220 
220 
220 
220 
220 
220 
220 
220 
220 
220 
220 
220 
220 
220 
220 
220 
220 
220 
220 
220 
220 
220 
220 
220 
220 
220 
220 
220 
220 
220 
220 
220 
220 
220 
220 
220 
220 
220 
220 
220 
220 
220 
220 
220 
220 
220 
219 
219 
219 
219 
219 
219 
219 
219 
219 
219 
219 
219 
219 
219 
219 
219 
219 
219 
219 
219 
219 
219 
219 
219 
219 
219 
219 
219 
219 
219 
219 
219 
219 
219 
219 
219 
219 
219 
219 
219 
219 
219 
219 
219 
219 
219 
219 
219 
219 
219 
220 
220 
221 
221 
221 
221 
221 
220 
220 
220 
220 
220 
220 
220 
220 
220 
220 
220 
220 
220 
220 
220 
220 
220 
220 
220 
220 
220 
220 
220 
220 
220 
220 
220 
220 
220 
220 
220 
220 
220 
220 
220 
220 
220 
220 
220 
220 
220 
220 
220 
220 
220 
220 
220 
220 
219 
219 
219 
219 
219 
219 
219 
219 
219 
219 
219 
219 
219 
219 
219 
219 
219 
219 
219 
219 
219 
219 
219 
219 
219 
219 
219 
219 
219 
219 
219 
219 
219 
219 
219 
219 
219 
219 
219 
219 
219 
219 
219 
219 
219 
219 
219 
219 
219 
219 
219 
220 
220 
221 
221 
221 
221 
220 
220 
220 
220 
220 
220 
220 
220 
220 
220 
220 
220 
220 
220 
220 
220 
220 
220 
220 
220 
220 
220 
220 
220 
220 
220 
220 
220 
220 
220 
220 
220 
220 
220 
220 
220 
220 
220 
220 
220 
220 
220 
220 
220 
220 
220 
220 
220 
219 
219 
219 
219 
219 
219 
219 
219 
219 
219 
219 
219 
219 
219 
219 
219 
219 
219 
219 
219 
219 
219 
219 
219 
219 
219 
219 
219 
219 
219 
219 
219 
219 
219 
219 
219 
219 
219 
219 
219 
219 
219 
219 
219 
219 
219 
219 
219 
219 
219 
219 
219 
220 
221 
221 
221 
221 
220 
220 
220 
220 
220 
220 
220 
220 
220 
220 
220 
220 
220 
220 
220 
220 
220 
220 
220 
220 
220 
220 
220 
220 
220 
220 
220 
220 
220 
220 
220 
220 
220 
220 
220 
220 
220 
220 
220 
220 
220 
220 
220 
220 
220 
220 
220 
220 
219 
219 
219 
219 
219 
219 
219 
219 
219 
219 
219 
219 
219 
219 
219 
219 
219 
219 
219 
219 
219 
219 
219 
219 
219 
219 
219 
219 
219 
219 
219 
219 
219 
219 
219 
219 
219 
219 
219 
219 
219 
219 
219 
219 
219 
219 
219 
219 
219 
218 
219 
219 
220 
220 
221 
221 
221 
220 
220 
220 
220 
220 
220 
220 
220 
220 
220 
220 
220 
220 
220 
220 
220 
220 
220 
220 
220 
220 
220 
220 
220 
220 
220 
220 
220 
220 
220 
220 
220 
220 
220 
220 
220 
220 
220 
220 
220 
220 
220 
220 
220 
220 
220 
220 
220 
219 
219 
219 
219 
219 
219 
219 
219 
219 
219 
219 
219 
219 
219 
219 
219 
219 
219 
219 
219 
219 
219 
219 
219 
219 
219 
219 
219 
219 
219 
219 
219 
219 
219 
219 
219 
219 
219 
219 
219 
219 
219 
219 
219 
219 
219 
219 
219 
219 
219 
219 
219 
220 
220 
220 
220 
220 
220 
220 
220 
221 
221 
222 
223 
223 
223 
221 
222 
220 
218 
221 
223 
219 
223 
217 
219 
223 
219 
219 
221 
218 
219 
220 
220 
220 
221 
221 
220 
219 
221 
221 
221 
220 
219 
219 
220 
220 
220 
220 
220 
220 
220 
220 
220 
220 
220 
219 
219 
219 
219 
219 
219 
219 
218 
219 
220 
220 
219 
218 
218 
218 
220 
220 
220 
219 
218 
218 
218 
219 
219 
219 
218 
218 
218 
218 
217 
217 
217 
217 
218 
218 
219 
219 
219 
220 
219 
219 
219 
219 
220 
220 
220 
220 
220 
219 
219 
220 
220 
221 
221 
221 
220 
221 
221 
221 
221 
221 
221 
221 
221 
218 
218 
220 
220 
218 
221 
222 
218 
222 
219 
220 
221 
219 
219 
221 
222 
220 
219 
219 
220 
221 
221 
221 
221 
220 
220 
220 
220 
219 
219 
220 
221 
220 
220 
220 
220 
220 
220 
220 
220 
220 
220 
219 
219 
219 
219 
219 
219 
218 
219 
220 
220 
219 
218 
218 
218 
220 
220 
220 
219 
218 
218 
218 
219 
219 
219 
218 
218 
218 
218 
218 
217 
217 
217 
218 
218 
219 
219 
219 
219 
219 
219 
219 
219 
220 
220 
220 
220 
220 
220 
220 
220 
221 
221 
221 
221 
221 
220 
220 
220 
220 
220 
220 
219 
219 
219 
217 
219 
220 
219 
222 
223 
220 
221 
222 
220 
219 
220 
218 
218 
223 
221 
218 
217 
219 
220 
219 
219 
221 
219 
219 
220 
220 
220 
220 
220 
221 
220 
220 
220 
220 
220 
220 
220 
220 
220 
220 
220 
219 
219 
219 
219 
219 
218 
219 
219 
219 
219 
219 
218 
218 
219 
220 
220 
219 
219 
218 
219 
219 
219 
219 
219 
218 
218 
218 
218 
217 
217 
218 
218 
218 
219 
219 
219 
219 
219 
219 
219 
219 
220 
220 
220 
220 
220 
220 
220 
221 
221 
221 
221 
221 
221 
220 
220 
220 
221 
221 
220 
219 
219 
221 
218 
219 
219 
218 
220 
223 
221 
222 
224 
220 
217 
221 
218 
215 
219 
223 
219 
217 
219 
219 
216 
216 
218 
219 
220 
221 
221 
220 
220 
220 
221 
220 
220 
220 
220 
220 
220 
220 
220 
220 
220 
220 
220 
219 
219 
219 
219 
218 
218 
219 
219 
220 
219 
218 
218 
219 
220 
220 
220 
219 
218 
219 
219 
219 
219 
219 
218 
218 
218 
218 
218 
218 
218 
218 
218 
219 
219 
219 
219 
219 
219 
219 
219 
220 
220 
220 
220 
220 
220 
220 
221 
221 
221 
221 
221 
221 
220 
221 
222 
223 
223 
222 
221 
221 
219 
216 
218 
220 
219 
220 
221 
219 
222 
223 
218 
217 
223 
222 
215 
215 
223 
220 
219 
221 
221 
218 
216 
218 
220 
221 
222 
221 
221 
220 
220 
220 
220 
220 
220 
220 
220 
220 
220 
220 
220 
220 
220 
220 
219 
219 
219 
219 
219 
218 
218 
219 
220 
220 
219 
218 
218 
219 
220 
220 
219 
219 
219 
219 
219 
219 
219 
219 
218 
218 
218 
218 
218 
218 
218 
218 
218 
219 
219 
219 
219 
219 
219 
219 
220 
220 
220 
220 
220 
220 
220 
221 
221 
221 
221 
220 
220 
221 
222 
223 
224 
224 
222 
221 
219 
217 
214 
217 
221 
220 
220 
221 
219 
219 
218 
215 
216 
222 
224 
218 
214 
220 
220 
220 
221 
222 
222 
221 
220 
220 
221 
222 
222 
221 
220 
219 
219 
220 
220 
220 
220 
220 
220 
220 
220 
220 
220 
220 
220 
220 
219 
219 
219 
219 
218 
218 
219 
220 
220 
219 
217 
218 
219 
220 
220 
220 
219 
219 
219 
219 
219 
219 
219 
218 
218 
218 
218 
218 
218 
218 
218 
218 
219 
219 
219 
219 
219 
219 
219 
220 
220 
220 
220 
220 
220 
220 
220 
220 
220 
220 
220 
220 
221 
221 
222 
222 
220 
217 
214 
212 
218 
213 
213 
215 
214 
216 
219 
220 
215 
212 
212 
214 
216 
220 
219 
212 
216 
218 
219 
218 
220 
224 
224 
221 
218 
219 
220 
221 
220 
219 
219 
219 
220 
220 
220 
220 
220 
220 
220 
220 
220 
220 
220 
220 
220 
220 
219 
219 
219 
218 
217 
219 
220 
221 
219 
217 
218 
219 
220 
220 
220 
219 
219 
219 
219 
219 
219 
219 
219 
218 
218 
218 
218 
218 
218 
218 
218 
219 
219 
219 
219 
219 
219 
219 
220 
220 
220 
220 
220 
220 
220 
220 
220 
220 
220 
220 
219 
219 
219 
219 
218 
215 
211 
208 
205 
220 
211 
206 
204 
202 
206 
214 
218 
212 
208 
210 
211 
210 
215 
216 
208 
213 
217 
217 
214 
216 
222 
224 
220 
217 
218 
219 
220 
219 
219 
219 
219 
220 
220 
220 
220 
220 
220 
220 
220 
220 
220 
220 
220 
220 
220 
220 
219 
219 
218 
217 
218 
220 
221 
219 
217 
218 
219 
220 
220 
220 
219 
219 
219 
219 
219 
219 
219 
219 
218 
218 
218 
218 
218 
218 
218 
218 
218 
219 
219 
219 
219 
219 
219 
220 
220 
220 
220 
220 
221 
223 
216 
217 
221 
220 
220 
217 
220 
211 
215 
198 
194 
212 
205 
196 
202 
210 
216 
198 
195 
193 
199 
206 
209 
203 
217 
214 
195 
182 
195 
197 
202 
211 
213 
207 
212 
221 
221 
221 
214 
220 
228 
215 
220 
220 
217 
218 
220 
222 
224 
224 
222 
220 
220 
221 
219 
219 
220 
220 
220 
220 
220 
220 
219 
220 
219 
218 
218 
220 
220 
219 
221 
221 
221 
221 
220 
220 
219 
219 
219 
219 
219 
219 
218 
218 
218 
218 
218 
218 
218 
218 
219 
219 
219 
219 
219 
219 
219 
219 
219 
219 
219 
219 
219 
217 
220 
220 
222 
217 
212 
221 
228 
207 
208 
216 
199 
197 
214 
201 
182 
194 
216 
209 
191 
182 
191 
207 
209 
207 
207 
206 
183 
155 
159 
184 
195 
204 
209 
210 
199 
190 
199 
215 
220 
211 
216 
219 
214 
226 
223 
220 
221 
220 
219 
217 
218 
220 
221 
221 
220 
220 
220 
220 
220 
220 
220 
220 
220 
218 
220 
220 
219 
218 
219 
219 
218 
219 
220 
220 
220 
219 
219 
219 
219 
219 
219 
219 
219 
218 
218 
218 
218 
218 
218 
218 
218 
219 
219 
219 
219 
219 
219 
219 
219 
219 
219 
219 
219 
219 
223 
216 
216 
227 
226 
219 
216 
204 
185 
192 
214 
215 
211 
207 
181 
162 
191 
207 
176 
167 
166 
187 
213 
219 
202 
201 
200 
182 
162 
169 
196 
212 
203 
210 
199 
184 
180 
185 
196 
201 
213 
217 
212 
209 
224 
217 
216 
218 
219 
221 
221 
220 
218 
217 
219 
221 
220 
220 
220 
220 
220 
220 
219 
219 
218 
220 
221 
220 
219 
220 
220 
220 
219 
219 
219 
219 
219 
219 
219 
218 
219 
219 
219 
219 
219 
218 
218 
218 
218 
218 
218 
218 
219 
219 
219 
219 
219 
219 
219 
219 
219 
219 
219 
219 
219 
219 
216 
215 
218 
217 
221 
222 
202 
179 
194 
211 
204 
196 
197 
185 
176 
193 
201 
167 
151 
162 
191 
215 
219 
205 
188 
194 
197 
195 
181 
194 
204 
195 
192 
172 
173 
191 
179 
161 
165 
196 
208 
203 
197 
209 
204 
209 
212 
217 
219 
221 
222 
222 
220 
220 
219 
218 
219 
219 
220 
219 
219 
217 
217 
218 
220 
221 
219 
218 
219 
221 
221 
220 
220 
219 
219 
219 
219 
219 
219 
219 
219 
219 
219 
219 
219 
219 
219 
218 
218 
218 
219 
219 
219 
219 
219 
219 
219 
219 
219 
219 
219 
219 
219 
219 
218 
220 
217 
215 
216 
224 
211 
169 
153 
193 
210 
185 
177 
199 
201 
187 
195 
199 
179 
153 
177 
204 
212 
208 
192 
163 
179 
197 
213 
189 
199 
202 
184 
167 
160 
171 
184 
168 
136 
128 
139 
165 
177 
171 
180 
183 
193 
198 
208 
207 
209 
213 
219 
221 
220 
217 
218 
219 
220 
221 
221 
220 
219 
218 
220 
221 
221 
218 
217 
218 
220 
221 
222 
221 
221 
220 
219 
219 
219 
219 
219 
219 
219 
219 
219 
219 
219 
219 
219 
219 
219 
219 
219 
219 
219 
219 
219 
219 
219 
219 
219 
219 
219 
219 
219 
218 
222 
218 
218 
223 
223 
189 
134 
136 
183 
209 
198 
197 
209 
204 
188 
198 
172 
150 
147 
193 
208 
203 
206 
198 
167 
183 
196 
203 
181 
190 
183 
151 
145 
164 
158 
158 
184 
169 
138 
107 
135 
165 
159 
165 
176 
184 
187 
196 
200 
204 
204 
201 
202 
209 
215 
220 
220 
220 
221 
221 
222 
222 
223 
224 
224 
222 
220 
219 
221 
222 
221 
222 
221 
220 
219 
219 
219 
219 
220 
219 
219 
219 
219 
219 
219 
219 
219 
219 
219 
219 
219 
219 
219 
219 
219 
219 
219 
219 
219 
219 
219 
219 
219 
219 
212 
219 
217 
216 
214 
208 
197 
177 
176 
197 
206 
208 
212 
209 
202 
197 
193 
158 
120 
138 
189 
200 
195 
203 
185 
153 
164 
183 
179 
176 
191 
187 
133 
131 
151 
130 
147 
205 
198 
183 
141 
150 
180 
168 
168 
184 
188 
191 
193 
199 
203 
199 
192 
190 
198 
206 
213 
212 
210 
210 
211 
214 
217 
220 
219 
219 
218 
218 
220 
223 
222 
220 
219 
219 
218 
218 
218 
218 
219 
220 
219 
219 
219 
219 
219 
219 
219 
219 
219 
219 
219 
219 
219 
219 
219 
219 
219 
219 
219 
219 
219 
219 
219 
219 
219 
220 
219 
215 
222 
224 
214 
209 
207 
208 
212 
202 
198 
204 
200 
189 
181 
181 
179 
135 
143 
175 
192 
193 
190 
189 
147 
144 
171 
158 
170 
190 
195 
167 
142 
134 
114 
152 
188 
163 
192 
182 
168 
188 
167 
163 
183 
186 
191 
199 
196 
194 
195 
198 
200 
198 
195 
201 
199 
195 
194 
196 
200 
206 
210 
209 
209 
210 
212 
217 
220 
219 
216 
217 
216 
216 
216 
216 
217 
219 
220 
219 
219 
219 
219 
219 
219 
219 
220 
219 
219 
219 
219 
219 
219 
219 
219 
219 
219 
219 
219 
219 
219 
219 
219 
219 
217 
220 
215 
220 
216 
218 
216 
174 
155 
176 
205 
206 
196 
198 
195 
176 
163 
183 
182 
176 
183 
190 
191 
197 
196 
154 
149 
193 
181 
167 
179 
187 
173 
159 
143 
137 
172 
160 
108 
133 
171 
177 
180 
181 
182 
181 
184 
191 
190 
185 
187 
198 
203 
194 
187 
191 
198 
188 
186 
185 
191 
196 
194 
197 
197 
190 
186 
191 
203 
212 
214 
212 
206 
209 
213 
213 
213 
214 
214 
213 
213 
215 
217 
218 
219 
221 
221 
221 
218 
218 
218 
218 
219 
219 
219 
218 
218 
219 
219 
220 
220 
219 
219 
218 
220 
218 
220 
216 
221 
218 
219 
215 
175 
120 
136 
186 
199 
206 
190 
166 
192 
192 
204 
214 
188 
176 
182 
189 
198 
206 
172 
163 
192 
198 
192 
177 
177 
170 
162 
162 
160 
174 
165 
139 
161 
172 
175 
175 
181 
195 
198 
185 
172 
160 
157 
171 
192 
198 
195 
194 
194 
198 
194 
195 
190 
190 
194 
193 
197 
184 
175 
173 
181 
189 
192 
192 
191 
200 
202 
204 
206 
208 
211 
214 
215 
214 
215 
216 
217 
219 
221 
221 
221 
219 
219 
220 
220 
219 
219 
220 
220 
219 
220 
220 
220 
220 
219 
219 
218 
220 
220 
219 
214 
218 
216 
218 
214 
181 
134 
144 
191 
209 
211 
178 
157 
193 
204 
195 
213 
189 
170 
165 
174 
193 
197 
178 
171 
176 
181 
179 
169 
195 
192 
176 
173 
175 
178 
177 
170 
174 
177 
173 
160 
152 
163 
174 
171 
163 
151 
144 
165 
196 
203 
198 
201 
207 
202 
200 
200 
192 
191 
198 
199 
203 
198 
191 
193 
198 
193 
185 
184 
187 
193 
194 
197 
200 
201 
204 
207 
210 
211 
210 
210 
212 
215 
218 
220 
221 
220 
220 
220 
219 
218 
218 
219 
220 
221 
221 
221 
221 
220 
220 
219 
219 
219 
216 
217 
219 
225 
221 
214 
199 
167 
112 
128 
195 
211 
195 
172 
161 
191 
187 
191 
210 
184 
165 
148 
161 
176 
186 
170 
164 
178 
194 
187 
176 
196 
187 
181 
181 
181 
168 
162 
170 
170 
183 
175 
155 
142 
150 
168 
180 
185 
179 
177 
180 
188 
194 
195 
198 
203 
202 
198 
194 
185 
189 
203 
205 
205 
202 
196 
199 
202 
195 
187 
184 
181 
187 
189 
193 
195 
192 
189 
190 
194 
200 
198 
199 
203 
208 
212 
215 
217 
219 
218 
217 
217 
217 
217 
218 
219 
222 
222 
221 
221 
220 
220 
219 
219 
219 
219 
218 
219 
224 
222 
219 
210 
190 
134 
120 
156 
177 
179 
176 
164 
197 
194 
196 
201 
192 
169 
114 
137 
182 
175 
166 
160 
176 
189 
183 
184 
185 
177 
180 
181 
185 
175 
165 
169 
165 
178 
171 
160 
160 
170 
173 
167 
161 
174 
187 
174 
155 
170 
190 
194 
194 
195 
193 
190 
180 
183 
197 
199 
199 
203 
196 
199 
204 
202 
205 
202 
189 
188 
188 
190 
189 
182 
174 
174 
180 
189 
189 
192 
199 
204 
206 
207 
208 
215 
213 
212 
214 
217 
219 
220 
220 
222 
222 
221 
221 
220 
220 
219 
219 
219 
222 
217 
216 
218 
216 
213 
207 
199 
200 
178 
115 
159 
179 
149 
159 
187 
188 
192 
197 
217 
204 
133 
136 
171 
171 
181 
176 
167 
162 
164 
191 
192 
185 
180 
179 
185 
182 
178 
179 
173 
168 
169 
169 
173 
175 
163 
143 
132 
163 
170 
160 
157 
178 
192 
192 
196 
184 
187 
189 
179 
176 
185 
188 
192 
196 
197 
206 
203 
190 
192 
199 
193 
195 
191 
188 
186 
180 
172 
174 
182 
189 
189 
194 
201 
204 
202 
202 
204 
208 
208 
209 
211 
215 
218 
220 
220 
221 
221 
220 
220 
219 
219 
219 
219 
219 
215 
216 
222 
223 
213 
193 
172 
161 
194 
203 
118 
177 
179 
133 
159 
173 
194 
202 
196 
196 
198 
184 
184 
182 
174 
185 
188 
177 
183 
190 
198 
191 
175 
171 
186 
188 
169 
165 
176 
180 
164 
177 
185 
182 
177 
168 
161 
160 
183 
169 
163 
173 
184 
186 
184 
182 
173 
175 
178 
171 
169 
177 
183 
189 
196 
198 
210 
202 
177 
174 
190 
193 
196 
188 
184 
187 
187 
183 
186 
193 
196 
193 
193 
195 
195 
195 
199 
206 
202 
205 
208 
209 
210 
211 
214 
217 
220 
219 
219 
218 
218 
218 
219 
219 
220 
219 
218 
223 
221 
211 
193 
175 
170 
189 
186 
138 
182 
181 
185 
183 
182 
185 
176 
187 
206 
207 
196 
186 
182 
159 
165 
176 
171 
194 
200 
188 
185 
167 
156 
183 
193 
171 
169 
176 
169 
164 
183 
192 
185 
178 
175 
173 
174 
182 
163 
153 
148 
149 
170 
179 
159 
164 
160 
160 
156 
161 
175 
182 
189 
192 
184 
190 
189 
170 
170 
185 
187 
190 
181 
178 
187 
194 
193 
194 
199 
199 
192 
186 
183 
181 
185 
196 
208 
199 
204 
208 
208 
204 
204 
207 
211 
219 
218 
218 
217 
217 
218 
218 
219 
220 
213 
217 
221 
221 
217 
213 
211 
210 
202 
207 
198 
186 
187 
187 
177 
169 
187 
169 
170 
195 
207 
195 
179 
174 
176 
178 
169 
162 
180 
193 
180 
170 
157 
160 
179 
194 
179 
180 
174 
171 
174 
177 
185 
173 
163 
174 
176 
167 
174 
150 
151 
159 
152 
170 
185 
158 
167 
155 
150 
150 
162 
168 
176 
148 
162 
157 
153 
174 
173 
174 
182 
183 
182 
177 
180 
186 
191 
198 
201 
194 
194 
190 
193 
190 
180 
188 
201 
201 
196 
207 
202 
207 
194 
197 
208 
213 
221 
219 
218 
217 
217 
217 
218 
220 
219 
218 
219 
220 
220 
219 
217 
215 
213 
197 
198 
197 
195 
188 
174 
168 
173 
180 
173 
170 
184 
195 
182 
168 
172 
178 
181 
181 
176 
169 
164 
173 
173 
159 
172 
183 
167 
175 
182 
190 
173 
176 
159 
159 
149 
135 
147 
164 
170 
152 
120 
119 
131 
127 
140 
160 
159 
157 
152 
152 
158 
172 
170 
141 
127 
138 
133 
121 
166 
186 
177 
179 
173 
187 
184 
185 
190 
196 
200 
199 
192 
191 
183 
182 
189 
195 
201 
197 
184 
192 
201 
194 
197 
193 
202 
213 
215 
214 
215 
217 
218 
219 
219 
219 
219 
218 
222 
220 
218 
218 
220 
220 
218 
216 
207 
193 
183 
185 
192 
197 
193 
183 
186 
184 
177 
184 
196 
181 
159 
156 
145 
146 
167 
176 
163 
142 
162 
162 
177 
191 
178 
148 
162 
161 
165 
142 
177 
155 
138 
134 
143 
152 
146 
141 
137 
101 
97 
103 
100 
101 
105 
120 
142 
159 
158 
168 
174 
170 
135 
129 
139 
150 
145 
170 
152 
138 
174 
188 
182 
183 
181 
183 
190 
194 
192 
190 
193 
180 
169 
176 
192 
198 
189 
180 
198 
202 
190 
190 
195 
206 
212 
213 
213 
215 
217 
219 
219 
219 
219 
219 
218 
222 
219 
217 
217 
219 
220 
219 
217 
215 
201 
191 
184 
179 
185 
194 
193 
197 
196 
196 
199 
201 
194 
179 
169 
144 
136 
166 
183 
187 
168 
178 
177 
187 
199 
171 
158 
159 
139 
119 
97 
165 
176 
164 
145 
152 
147 
123 
119 
119 
113 
111 
97 
108 
125 
103 
87 
87 
135 
164 
190 
184 
179 
167 
148 
139 
148 
157 
171 
128 
114 
157 
174 
175 
179 
173 
167 
170 
174 
177 
183 
192 
185 
170 
169 
178 
178 
175 
183 
194 
193 
186 
189 
198 
204 
206 
209 
216 
218 
218 
217 
216 
217 
218 
219 
218 
219 
219 
218 
218 
219 
219 
219 
219 
212 
195 
190 
188 
172 
163 
178 
197 
197 
197 
211 
212 
197 
202 
214 
206 
178 
161 
173 
167 
171 
155 
153 
157 
175 
192 
174 
169 
165 
144 
120 
91 
138 
164 
176 
156 
137 
130 
125 
133 
130 
113 
110 
120 
149 
149 
106 
92 
82 
108 
161 
185 
160 
162 
171 
151 
150 
148 
145 
148 
129 
125 
135 
151 
173 
181 
175 
162 
156 
155 
161 
171 
183 
188 
183 
178 
173 
158 
156 
176 
183 
175 
174 
179 
189 
196 
206 
220 
212 
215 
216 
214 
214 
216 
218 
218 
218 
218 
219 
220 
220 
219 
219 
219 
220 
217 
199 
186 
183 
179 
179 
189 
201 
198 
192 
209 
212 
193 
203 
217 
199 
193 
182 
184 
166 
155 
138 
140 
148 
163 
176 
176 
160 
151 
148 
151 
123 
120 
129 
168 
168 
126 
111 
125 
135 
143 
107 
97 
129 
166 
143 
97 
99 
72 
66 
131 
169 
153 
158 
156 
146 
160 
177 
143 
111 
133 
159 
142 
144 
166 
179 
181 
168 
155 
152 
157 
166 
174 
184 
187 
183 
170 
146 
144 
168 
176 
156 
152 
146 
151 
168 
199 
224 
202 
208 
212 
212 
213 
215 
217 
217 
219 
219 
219 
220 
220 
219 
219 
219 
220 
222 
223 
213 
194 
180 
177 
187 
200 
206 
194 
202 
205 
194 
200 
197 
167 
161 
164 
169 
177 
162 
148 
167 
164 
144 
139 
157 
160 
127 
132 
157 
154 
129 
122 
150 
156 
116 
89 
94 
109 
119 
116 
104 
115 
152 
157 
127 
109 
117 
95 
95 
130 
125 
128 
132 
136 
140 
170 
130 
98 
139 
185 
160 
130 
150 
166 
178 
172 
156 
153 
160 
164 
168 
176 
183 
183 
167 
144 
148 
176 
175 
153 
152 
134 
129 
150 
188 
208 
199 
206 
210 
210 
210 
214 
217 
217 
220 
219 
219 
218 
218 
218 
218 
218 
218 
215 
222 
220 
208 
185 
163 
167 
190 
209 
200 
201 
200 
193 
195 
188 
163 
145 
150 
150 
182 
165 
150 
180 
157 
117 
96 
131 
179 
121 
117 
139 
167 
150 
120 
99 
103 
113 
98 
79 
88 
106 
113 
104 
117 
151 
156 
139 
128 
147 
141 
72 
106 
110 
104 
121 
122 
132 
151 
126 
114 
129 
161 
161 
133 
138 
154 
171 
168 
152 
151 
158 
159 
161 
170 
183 
187 
171 
149 
158 
189 
185 
173 
186 
168 
156 
170 
197 
202 
204 
209 
211 
208 
207 
213 
217 
218 
220 
218 
218 
219 
219 
219 
219 
219 
219 
217 
217 
220 
218 
202 
184 
184 
197 
206 
195 
197 
208 
207 
203 
199 
193 
178 
163 
140 
164 
173 
160 
164 
145 
110 
105 
141 
179 
154 
129 
106 
146 
171 
132 
77 
79 
80 
85 
73 
72 
79 
89 
98 
113 
170 
156 
139 
156 
171 
152 
85 
99 
111 
113 
103 
128 
148 
170 
146 
125 
130 
143 
166 
171 
150 
162 
187 
169 
144 
149 
153 
159 
177 
175 
193 
196 
187 
174 
184 
186 
174 
173 
195 
190 
191 
198 
204 
204 
206 
210 
203 
205 
213 
218 
210 
222 
221 
218 
218 
219 
219 
219 
219 
219 
219 
219 
222 
224 
221 
211 
202 
202 
206 
204 
198 
197 
203 
207 
210 
212 
212 
204 
180 
172 
173 
186 
184 
182 
149 
110 
118 
153 
177 
167 
138 
86 
98 
112 
115 
88 
77 
68 
80 
72 
63 
63 
62 
71 
98 
164 
168 
154 
176 
182 
150 
100 
112 
125 
108 
106 
125 
158 
179 
176 
135 
118 
115 
172 
199 
178 
146 
163 
177 
163 
155 
155 
167 
159 
161 
180 
188 
189 
181 
184 
179 
173 
166 
176 
179 
184 
198 
205 
196 
203 
209 
207 
201 
211 
215 
215 
223 
220 
218 
218 
219 
219 
219 
219 
219 
219 
218 
222 
223 
219 
218 
219 
216 
210 
195 
203 
206 
205 
208 
211 
212 
214 
195 
158 
140 
166 
191 
192 
187 
147 
93 
108 
169 
169 
129 
115 
95 
96 
97 
101 
79 
73 
64 
73 
72 
71 
67 
60 
53 
65 
130 
169 
161 
175 
185 
150 
109 
120 
126 
104 
94 
99 
124 
160 
160 
145 
116 
107 
131 
159 
189 
179 
180 
172 
172 
179 
172 
172 
151 
135 
139 
160 
177 
172 
174 
180 
185 
175 
170 
171 
161 
175 
198 
200 
198 
209 
210 
198 
206 
208 
216 
221 
218 
218 
218 
219 
219 
219 
219 
219 
219 
218 
221 
220 
217 
220 
223 
219 
210 
198 
205 
202 
199 
209 
214 
207 
200 
177 
153 
103 
166 
194 
195 
196 
159 
96 
69 
131 
157 
130 
107 
94 
93 
119 
105 
74 
70 
63 
64 
64 
72 
68 
68 
62 
60 
95 
139 
139 
157 
174 
176 
141 
131 
112 
101 
77 
72 
108 
155 
153 
156 
136 
126 
115 
136 
188 
199 
184 
165 
174 
163 
144 
167 
189 
162 
145 
156 
174 
173 
170 
174 
189 
189 
185 
189 
169 
169 
168 
145 
169 
195 
209 
213 
216 
217 
218 
216 
218 
218 
218 
219 
219 
219 
219 
219 
219 
220 
220 
219 
220 
222 
222 
219 
214 
213 
205 
188 
185 
206 
219 
210 
197 
187 
188 
136 
169 
178 
173 
186 
172 
122 
83 
93 
107 
128 
118 
92 
83 
87 
88 
71 
64 
61 
65 
68 
69 
66 
65 
65 
64 
64 
90 
108 
151 
171 
201 
185 
156 
145 
150 
108 
71 
72 
115 
146 
147 
143 
136 
144 
150 
181 
196 
185 
173 
179 
158 
138 
161 
197 
193 
179 
172 
180 
191 
184 
172 
172 
176 
167 
160 
130 
129 
141 
135 
157 
180 
187 
207 
206 
216 
218 
222 
220 
218 
218 
219 
219 
219 
219 
219 
219 
220 
219 
219 
221 
222 
220 
219 
219 
217 
209 
197 
194 
205 
213 
210 
204 
203 
204 
183 
167 
150 
125 
145 
163 
100 
84 
84 
88 
104 
95 
79 
70 
66 
69 
59 
60 
65 
69 
74 
74 
68 
64 
60 
62 
57 
75 
89 
109 
116 
169 
184 
160 
176 
189 
157 
101 
83 
95 
125 
139 
136 
158 
174 
156 
151 
171 
188 
185 
176 
176 
175 
170 
167 
173 
175 
178 
177 
186 
183 
178 
158 
155 
164 
175 
143 
113 
129 
162 
193 
194 
178 
204 
198 
207 
208 
216 
222 
218 
218 
219 
219 
219 
219 
219 
219 
218 
218 
219 
220 
220 
219 
219 
220 
216 
214 
215 
216 
210 
205 
206 
208 
211 
200 
196 
178 
156 
128 
139 
138 
98 
76 
64 
87 
94 
64 
75 
108 
121 
97 
69 
68 
70 
60 
65 
76 
75 
73 
68 
79 
87 
98 
88 
58 
63 
107 
147 
138 
149 
177 
190 
165 
174 
148 
123 
119 
123 
165 
172 
154 
129 
121 
147 
180 
177 
172 
182 
182 
174 
164 
167 
186 
177 
170 
165 
170 
167 
148 
156 
173 
170 
138 
131 
153 
135 
123 
116 
171 
193 
204 
209 
215 
221 
218 
218 
219 
219 
219 
219 
219 
219 
217 
220 
220 
218 
218 
220 
221 
219 
223 
214 
216 
221 
215 
208 
207 
206 
211 
205 
189 
194 
181 
176 
172 
112 
89 
118 
98 
107 
126 
94 
98 
145 
170 
135 
93 
78 
69 
55 
66 
85 
104 
87 
74 
92 
105 
109 
104 
69 
59 
53 
65 
75 
82 
140 
180 
178 
185 
155 
108 
64 
95 
113 
126 
129 
140 
111 
119 
167 
189 
183 
183 
185 
193 
175 
174 
194 
184 
175 
161 
154 
145 
150 
161 
153 
171 
176 
162 
154 
117 
86 
73 
135 
175 
188 
203 
211 
219 
218 
218 
218 
218 
219 
219 
219 
219 
218 
219 
220 
221 
220 
220 
220 
221 
221 
222 
222 
220 
216 
211 
209 
207 
211 
198 
195 
189 
176 
191 
191 
143 
119 
121 
97 
111 
153 
154 
141 
142 
138 
124 
142 
123 
81 
66 
54 
92 
120 
142 
138 
103 
82 
74 
70 
83 
73 
62 
49 
49 
52 
88 
117 
113 
111 
97 
72 
46 
62 
77 
79 
108 
139 
105 
117 
165 
181 
184 
170 
167 
167 
172 
176 
181 
180 
169 
154 
150 
142 
149 
157 
158 
165 
167 
169 
144 
115 
97 
87 
101 
176 
210 
203 
217 
219 
218 
218 
218 
218 
219 
219 
219 
219 
218 
219 
220 
220 
220 
220 
220 
221 
220 
221 
221 
220 
217 
213 
211 
210 
221 
205 
190 
184 
179 
186 
193 
178 
171 
119 
78 
86 
130 
173 
178 
153 
114 
78 
144 
156 
87 
81 
73 
61 
87 
100 
98 
86 
56 
61 
55 
65 
75 
63 
47 
50 
75 
113 
65 
52 
84 
61 
55 
45 
44 
95 
103 
124 
135 
87 
119 
178 
169 
159 
173 
154 
118 
113 
111 
154 
170 
164 
176 
159 
150 
162 
164 
155 
160 
168 
170 
135 
63 
48 
98 
93 
165 
198 
207 
213 
222 
218 
218 
218 
218 
219 
219 
219 
219 
219 
219 
220 
219 
219 
219 
220 
221 
219 
220 
221 
220 
218 
216 
215 
214 
211 
211 
199 
196 
196 
189 
188 
188 
179 
149 
148 
137 
115 
126 
150 
164 
145 
114 
163 
163 
93 
82 
72 
65 
63 
54 
53 
62 
52 
68 
64 
60 
72 
60 
58 
97 
140 
173 
84 
64 
129 
81 
54 
51 
49 
124 
171 
177 
159 
120 
139 
173 
157 
134 
145 
113 
98 
94 
76 
125 
159 
162 
191 
164 
156 
169 
169 
162 
167 
174 
175 
136 
66 
62 
86 
93 
134 
150 
193 
217 
217 
218 
218 
218 
219 
219 
219 
219 
219 
219 
219 
219 
219 
218 
219 
220 
221 
219 
219 
220 
220 
220 
218 
217 
216 
213 
222 
208 
194 
192 
191 
193 
192 
167 
168 
184 
172 
163 
164 
160 
183 
184 
167 
151 
125 
89 
73 
63 
83 
83 
75 
81 
70 
63 
63 
68 
66 
56 
48 
68 
148 
183 
185 
97 
62 
125 
85 
41 
46 
57 
101 
180 
187 
172 
157 
168 
168 
143 
128 
126 
95 
110 
112 
95 
122 
160 
170 
181 
150 
140 
152 
158 
163 
170 
165 
162 
124 
59 
65 
51 
77 
119 
132 
170 
204 
212 
219 
219 
219 
219 
219 
219 
219 
219 
219 
220 
219 
219 
218 
218 
219 
220 
219 
219 
220 
220 
220 
219 
218 
217 
220 
225 
215 
200 
192 
197 
203 
195 
179 
198 
209 
186 
196 
200 
151 
135 
148 
140 
104 
97 
94 
84 
77 
80 
75 
75 
83 
69 
75 
77 
83 
84 
72 
55 
71 
138 
179 
172 
87 
52 
77 
71 
41 
48 
55 
64 
139 
194 
175 
159 
181 
172 
124 
121 
120 
114 
104 
82 
103 
136 
170 
181 
170 
140 
115 
136 
147 
157 
161 
151 
147 
106 
61 
55 
56 
68 
129 
167 
186 
207 
216 
219 
219 
219 
219 
219 
219 
219 
219 
219 
219 
219 
219 
218 
218 
218 
219 
220 
219 
219 
219 
220 
219 
218 
217 
218 
218 
218 
219 
211 
207 
209 
197 
192 
191 
196 
185 
201 
198 
129 
86 
122 
136 
116 
120 
114 
90 
70 
59 
77 
75 
71 
69 
76 
85 
74 
68 
74 
54 
59 
85 
148 
154 
69 
50 
52 
56 
43 
45 
40 
45 
81 
182 
183 
157 
157 
142 
110 
110 
106 
136 
118 
60 
102 
147 
164 
163 
145 
112 
100 
132 
141 
141 
141 
138 
143 
100 
59 
51 
53 
82 
108 
154 
186 
204 
216 
219 
219 
219 
219 
219 
219 
219 
219 
219 
219 
220 
219 
218 
218 
218 
218 
219 
218 
218 
218 
219 
219 
218 
217 
220 
219 
215 
220 
217 
212 
214 
211 
204 
194 
194 
187 
186 
169 
129 
124 
170 
195 
191 
176 
146 
111 
84 
86 
81 
78 
87 
85 
74 
75 
74 
73 
67 
63 
67 
75 
117 
120 
61 
53 
55 
52 
51 
52 
47 
48 
49 
133 
166 
150 
129 
99 
97 
113 
112 
132 
102 
71 
102 
140 
164 
160 
154 
119 
99 
128 
125 
114 
107 
110 
133 
101 
49 
56 
54 
100 
102 
135 
170 
191 
210 
219 
219 
219 
219 
219 
219 
219 
219 
218 
219 
220 
220 
219 
218 
217 
217 
218 
218 
217 
218 
219 
219 
218 
217 
215 
222 
216 
216 
220 
215 
213 
212 
211 
211 
199 
185 
188 
169 
140 
154 
165 
173 
191 
174 
131 
122 
115 
123 
92 
70 
90 
83 
76 
65 
78 
69 
69 
72 
66 
72 
68 
63 
65 
71 
65 
53 
54 
51 
53 
45 
53 
103 
140 
140 
134 
89 
79 
114 
130 
98 
92 
120 
126 
136 
169 
161 
156 
112 
114 
131 
115 
99 
86 
85 
120 
105 
65 
65 
75 
73 
107 
141 
155 
178 
205 
218 
219 
219 
219 
219 
219 
219 
219 
219 
219 
219 
219 
218 
218 
218 
218 
218 
218 
218 
218 
218 
218 
218 
218 
218 
218 
218 
218 
218 
219 
219 
220 
226 
220 
210 
198 
189 
183 
182 
183 
181 
164 
178 
175 
160 
154 
135 
124 
90 
79 
71 
69 
82 
71 
70 
78 
70 
75 
75 
65 
57 
64 
68 
60 
59 
57 
62 
66 
55 
46 
59 
76 
111 
141 
157 
107 
100 
115 
119 
87 
108 
145 
140 
138 
151 
161 
161 
125 
125 
133 
113 
87 
83 
90 
94 
91 
52 
71 
78 
70 
94 
123 
147 
189 
204 
218 
219 
219 
219 
219 
219 
219 
218 
219 
219 
219 
218 
218 
218 
218 
218 
218 
218 
218 
218 
218 
218 
218 
218 
219 
219 
219 
219 
218 
217 
217 
216 
220 
218 
216 
212 
203 
191 
188 
192 
180 
180 
175 
147 
148 
167 
137 
98 
78 
94 
90 
73 
82 
91 
90 
86 
80 
73 
77 
83 
79 
74 
71 
68 
71 
65 
71 
71 
72 
71 
64 
78 
111 
138 
144 
129 
135 
133 
132 
132 
130 
122 
111 
126 
135 
153 
174 
145 
137 
140 
106 
88 
92 
100 
102 
75 
63 
80 
93 
63 
66 
115 
153 
211 
217 
219 
219 
219 
219 
219 
219 
219 
218 
219 
219 
219 
218 
218 
218 
218 
218 
218 
218 
218 
218 
218 
218 
218 
218 
218 
218 
219 
219 
218 
217 
215 
214 
216 
215 
217 
218 
208 
195 
194 
201 
193 
190 
174 
147 
159 
182 
155 
120 
119 
136 
125 
105 
105 
111 
99 
91 
87 
76 
71 
70 
70 
73 
75 
70 
67 
67 
80 
71 
71 
84 
95 
129 
146 
134 
126 
148 
153 
131 
110 
116 
121 
97 
86 
109 
116 
128 
151 
134 
140 
142 
108 
99 
104 
111 
112 
69 
61 
58 
58 
69 
65 
114 
180 
216 
216 
219 
219 
219 
219 
219 
219 
218 
218 
218 
218 
218 
218 
218 
218 
218 
218 
218 
218 
218 
218 
218 
218 
218 
218 
217 
217 
218 
219 
219 
218 
217 
217 
219 
218 
217 
214 
205 
197 
199 
207 
195 
177 
165 
155 
162 
172 
153 
131 
111 
111 
116 
152 
174 
160 
115 
97 
79 
76 
72 
71 
73 
74 
70 
64 
71 
62 
70 
68 
70 
100 
143 
180 
146 
89 
93 
143 
161 
148 
115 
98 
94 
86 
74 
92 
110 
117 
130 
124 
136 
134 
112 
101 
99 
104 
104 
71 
60 
64 
73 
106 
99 
127 
169 
190 
226 
219 
219 
219 
219 
219 
219 
218 
218 
218 
218 
218 
218 
218 
218 
218 
218 
218 
218 
218 
218 
218 
218 
218 
218 
218 
218 
218 
218 
218 
219 
219 
219 
222 
223 
220 
214 
208 
207 
208 
209 
197 
176 
170 
159 
144 
150 
144 
119 
102 
86 
95 
154 
181 
159 
106 
82 
86 
77 
65 
67 
77 
72 
68 
79 
79 
70 
73 
76 
58 
80 
149 
181 
129 
61 
60 
85 
114 
126 
99 
82 
80 
78 
74 
95 
114 
120 
131 
133 
125 
112 
104 
94 
95 
105 
101 
85 
73 
74 
93 
93 
106 
160 
162 
196 
236 
219 
219 
219 
219 
219 
219 
218 
218 
218 
218 
218 
218 
218 
218 
218 
218 
218 
218 
218 
218 
218 
218 
218 
218 
219 
219 
218 
218 
218 
218 
219 
219 
218 
222 
223 
219 
217 
217 
214 
210 
215 
198 
198 
181 
143 
142 
162 
157 
165 
147 
140 
147 
135 
114 
92 
80 
81 
90 
81 
85 
109 
102 
73 
66 
71 
71 
75 
78 
51 
67 
143 
173 
89 
64 
58 
47 
79 
103 
83 
77 
83 
83 
105 
134 
128 
116 
126 
130 
112 
96 
96 
91 
97 
105 
87 
75 
89 
86 
129 
147 
150 
194 
193 
192 
223 
219 
219 
219 
219 
219 
218 
218 
218 
218 
218 
218 
218 
218 
218 
218 
218 
218 
218 
218 
218 
218 
218 
218 
218 
219 
219 
219 
218 
218 
218 
217 
217 
215 
218 
221 
221 
220 
219 
217 
215 
224 
215 
219 
209 
172 
164 
188 
198 
194 
180 
179 
163 
131 
115 
122 
119 
128 
141 
112 
100 
140 
143 
98 
74 
69 
66 
62 
66 
66 
92 
137 
147 
118 
125 
91 
55 
66 
104 
106 
100 
91 
95 
116 
141 
134 
113 
113 
123 
107 
105 
101 
91 
89 
86 
71 
62 
82 
103 
151 
184 
176 
199 
231 
226 
214 
219 
219 
219 
219 
219 
218 
218 
218 
218 
218 
218 
218 
218 
218 
218 
218 
218 
218 
218 
218 
218 
218 
218 
218 
217 
217 
218 
219 
219 
218 
217 
216 
218 
217 
217 
219 
218 
217 
219 
224 
222 
223 
227 
224 
208 
201 
202 
190 
181 
150 
153 
154 
139 
129 
142 
136 
175 
175 
130 
121 
171 
164 
105 
77 
74 
79 
74 
62 
64 
80 
89 
89 
108 
139 
118 
104 
94 
128 
123 
80 
87 
87 
76 
89 
117 
112 
106 
124 
103 
120 
112 
95 
85 
84 
95 
101 
104 
153 
183 
178 
201 
224 
221 
230 
220 
219 
219 
219 
219 
219 
219 
219 
219 
218 
218 
218 
218 
218 
218 
218 
218 
219 
219 
219 
219 
219 
219 
219 
219 
218 
218 
218 
218 
218 
218 
218 
218 
218 
218 
216 
216 
216 
217 
219 
220 
221 
216 
216 
222 
225 
218 
207 
200 
159 
162 
138 
143 
146 
135 
149 
155 
152 
148 
135 
126 
127 
110 
87 
92 
86 
70 
72 
81 
61 
60 
86 
84 
113 
140 
171 
177 
131 
121 
97 
126 
113 
96 
97 
118 
129 
109 
110 
114 
94 
75 
82 
97 
99 
110 
113 
94 
111 
160 
203 
201 
207 
226 
219 
209 
216 
219 
219 
219 
219 
219 
219 
219 
219 
218 
218 
218 
218 
218 
218 
219 
219 
219 
219 
219 
219 
219 
219 
219 
219 
218 
218 
218 
218 
218 
218 
218 
218 
219 
218 
217 
217 
217 
218 
219 
220 
223 
219 
217 
220 
221 
216 
211 
209 
210 
205 
176 
161 
152 
142 
155 
165 
146 
141 
143 
156 
140 
94 
80 
105 
75 
59 
62 
93 
101 
90 
89 
85 
99 
150 
153 
161 
193 
147 
78 
121 
140 
132 
125 
126 
132 
113 
100 
87 
72 
87 
83 
80 
98 
112 
111 
111 
145 
181 
203 
207 
214 
226 
231 
224 
215 
219 
219 
219 
219 
219 
219 
218 
218 
218 
218 
219 
219 
219 
219 
219 
219 
219 
219 
219 
219 
219 
219 
219 
219 
218 
218 
218 
218 
218 
218 
218 
218 
218 
218 
218 
218 
218 
219 
219 
220 
221 
219 
218 
220 
219 
216 
216 
218 
218 
220 
211 
197 
186 
175 
171 
174 
148 
139 
146 
184 
182 
131 
98 
90 
77 
76 
75 
101 
127 
118 
96 
83 
106 
133 
147 
170 
181 
140 
93 
99 
148 
144 
97 
87 
134 
118 
97 
118 
108 
121 
117 
117 
130 
131 
145 
183 
207 
223 
218 
219 
218 
213 
218 
214 
217 
219 
219 
219 
219 
218 
218 
218 
218 
219 
219 
219 
219 
219 
219 
219 
220 
219 
219 
219 
219 
219 
219 
219 
219 
218 
218 
218 
218 
218 
218 
218 
218 
218 
218 
218 
218 
219 
219 
219 
219 
216 
216 
219 
221 
220 
218 
219 
221 
214 
216 
220 
210 
207 
209 
202 
203 
181 
183 
176 
188 
182 
157 
136 
100 
93 
99 
96 
106 
125 
122 
104 
96 
116 
141 
144 
163 
147 
135 
121 
124 
152 
143 
95 
104 
162 
124 
104 
163 
181 
153 
149 
172 
183 
183 
197 
218 
217 
222 
217 
221 
223 
219 
223 
223 
220 
219 
219 
218 
218 
218 
218 
218 
218 
219 
219 
219 
219 
219 
220 
220 
220 
219 
219 
219 
219 
219 
219 
219 
219 
218 
218 
218 
218 
218 
218 
218 
218 
217 
217 
218 
218 
218 
218 
218 
218 
216 
216 
218 
220 
220 
219 
219 
219 
221 
217 
223 
214 
216 
228 
220 
217 
222 
229 
216 
207 
196 
195 
196 
164 
131 
127 
131 
143 
147 
140 
136 
143 
160 
178 
164 
169 
154 
149 
152 
162 
160 
151 
143 
162 
175 
131 
135 
188 
212 
193 
199 
215 
218 
225 
231 
221 
222 
222 
224 
219 
220 
221 
213 
217 
219 
218 
218 
218 
218 
218 
218 
218 
218 
219 
219 
219 
219 
219 
219 
219 
220 
219 
219 
219 
219 
219 
219 
219 
219 
218 
218 
218 
218 
218 
218 
218 
218 
217 
217 
218 
218 
218 
218 
217 
217 
220 
219 
217 
217 
217 
217 
217 
217 
217 
214 
223 
220 
221 
229 
220 
211 
218 
216 
211 
216 
217 
218 
220 
200 
199 
197 
207 
211 
208 
207 
203 
203 
209 
200 
204 
204 
185 
167 
185 
185 
180 
187 
191 
194 
196 
174 
188 
215 
203 
214 
223 
221 
216 
216 
219 
219 
217 
217 
224 
216 
219 
225 
216 
222 
219 
218 
218 
218 
218 
218 
218 
217 
217 
218 
219 
219 
219 
219 
219 
219 
219 
219 
219 
219 
219 
219 
219 
219 
219 
218 
218 
218 
218 
218 
218 
218 
218 
218 
218 
218 
218 
218 
218 
218 
218 
220 
220 
219 
217 
216 
216 
216 
216 
216 
213 
218 
216 
213 
220 
221 
216 
221 
217 
218 
219 
216 
215 
220 
220 
217 
223 
230 
222 
222 
227 
218 
213 
214 
213 
217 
215 
215 
199 
207 
213 
211 
224 
223 
220 
232 
222 
221 
223 
221 
223 
218 
218 
223 
220 
217 
223 
218 
221 
221 
217 
220 
222 
218 
219 
219 
218 
218 
218 
218 
218 
217 
217 
217 
218 
218 
218 
219 
219 
219 
219 
219 
219 
219 
219 
219 
219 
219 
219 
219 
218 
218 
218 
218 
218 
218 
218 
218 
219 
219 
218 
218 
218 
218 
218 
219 
216 
219 
220 
219 
217 
216 
216 
216 
214 
217 
224 
224 
215 
216 
221 
216 
218 
218 
219 
214 
215 
224 
222 
216 
215 
215 
216 
212 
219 
219 
210 
222 
226 
217 
215 
220 
214 
226 
225 
215 
223 
210 
214 
219 
218 
214 
225 
213 
218 
217 
217 
218 
217 
217 
218 
218 
216 
222 
215 
219 
223 
219 
222 
218 
219 
218 
218 
218 
218 
218 
218 
218 
218 
218 
218 
219 
219 
219 
219 
219 
219 
219 
219 
219 
219 
219 
219 
219 
219 
219 
219 
218 
218 
218 
218 
218 
218 
218 
218 
218 
218 
218 
218 
218 
218 
218 
218 
217 
216 
216 
217 
218 
218 
217 
217 
217 
218 
218 
218 
218 
218 
218 
217 
218 
220 
222 
222 
221 
219 
218 
219 
221 
222 
222 
221 
220 
219 
213 
215 
216 
218 
218 
218 
217 
216 
217 
217 
217 
217 
218 
218 
218 
218 
220 
219 
218 
217 
217 
216 
216 
217 
218 
218 
219 
219 
220 
220 
220 
220 
219 
218 
218 
218 
218 
218 
218 
218 
218 
218 
218 
219 
219 
219 
219 
219 
219 
219 
219 
219 
219 
219 
219 
219 
219 
219 
219 
218 
218 
218 
218 
218 
218 
218 
218 
218 
218 
218 
218 
218 
218 
218 
218 
217 
216 
216 
217 
218 
218 
217 
217 
217 
218 
218 
218 
218 
218 
218 
218 
218 
219 
219 
219 
217 
216 
220 
219 
218 
217 
217 
218 
219 
220 
214 
215 
216 
218 
218 
218 
217 
216 
217 
217 
217 
217 
218 
218 
218 
218 
219 
218 
218 
217 
217 
217 
218 
218 
219 
219 
220 
220 
220 
220 
220 
220 
219 
218 
218 
218 
218 
218 
218 
218 
218 
218 
218 
219 
219 
219 
219 
219 
219 
219 
219 
219 
219 
219 
219 
219 
219 
219 
219 
218 
218 
218 
218 
218 
218 
218 
218 
218 
218 
218 
218 
218 
218 
218 
218 
217 
217 
217 
217 
217 
218 
217 
217 
217 
218 
218 
218 
218 
218 
217 
218 
219 
219 
218 
217 
216 
216 
220 
219 
217 
215 
215 
216 
218 
219 
216 
216 
217 
217 
217 
217 
217 
217 
217 
217 
217 
217 
218 
218 
218 
218 
218 
218 
218 
218 
218 
219 
220 
220 
221 
221 
221 
221 
220 
220 
219 
219 
218 
218 
218 
218 
218 
218 
218 
218 
218 
218 
218 
219 
219 
219 
219 
219 
219 
219 
219 
219 
219 
219 
219 
219 
219 
219 
219 
218 
218 
218 
218 
218 
218 
218 
218 
218 
218 
218 
218 
218 
218 
218 
218 
217 
217 
217 
217 
217 
217 
217 
217 
217 
218 
218 
218 
218 
218 
217 
218 
219 
219 
218 
218 
218 
219 
218 
218 
218 
218 
218 
218 
217 
217 
217 
217 
217 
217 
217 
217 
217 
217 
217 
217 
217 
217 
218 
218 
218 
218 
217 
217 
218 
218 
219 
220 
220 
221 
221 
221 
220 
220 
220 
219 
218 
218 
218 
218 
218 
218 
218 
218 
218 
218 
218 
218 
218 
219 
219 
219 
219 
219 
219 
219 
219 
219 
219 
219 
219 
219 
219 
219 
219 
218 
218 
218 
218 
218 
218 
218 
218 
218 
218 
218 
218 
218 
218 
218 
218 
217 
217 
217 
217 
217 
217 
217 
217 
217 
218 
218 
218 
218 
218 
216 
218 
219 
219 
218 
218 
219 
220 
216 
217 
218 
219 
219 
218 
217 
217 
218 
217 
217 
217 
216 
217 
217 
217 
217 
217 
217 
217 
218 
218 
218 
218 
218 
218 
218 
219 
219 
220 
220 
220 
219 
219 
219 
219 
219 
218 
218 
218 
218 
219 
219 
218 
218 
218 
218 
217 
217 
218 
218 
219 
219 
219 
219 
219 
219 
219 
219 
219 
219 
219 
219 
219 
219 
219 
219 
218 
218 
218 
218 
218 
218 
218 
218 
218 
218 
218 
218 
218 
218 
218 
218 
218 
217 
217 
217 
217 
217 
217 
217 
217 
218 
218 
218 
218 
218 
218 
218 
218 
218 
217 
217 
217 
218 
216 
216 
216 
216 
216 
217 
218 
218 
218 
217 
217 
217 
217 
217 
217 
217 
217 
217 
217 
217 
218 
218 
218 
218 
218 
218 
218 
219 
219 
219 
219 
219 
218 
218 
218 
219 
219 
218 
218 
218 
218 
219 
219 
218 
218 
218 
218 
217 
217 
218 
218 
219 
219 
219 
219 
219 
219 
219 
219 
219 
219 
219 
219 
219 
219 
219 
219 
218 
218 
218 
218 
218 
218 
218 
218 
218 
218 
218 
218 
218 
218 
218 
218 
218 
218 
217 
217 
217 
216 
217 
217 
217 
218 
218 
218 
218 
218 
219 
218 
217 
217 
217 
217 
216 
216 
217 
217 
216 
215 
215 
216 
217 
218 
217 
217 
217 
217 
217 
217 
217 
217 
217 
217 
217 
217 
218 
218 
218 
218 
217 
217 
218 
219 
219 
219 
219 
219 
218 
219 
219 
219 
219 
218 
218 
218 
218 
219 
219 
218 
218 
218 
218 
217 
217 
218 
218 
219 
219 
219 
219 
219 
219 
219 
219 
219 
219 
219 
219 
219 
219 
219 
219 
218 
218 
218 
218 
218 
218 
218 
218 
218 
218 
218 
218 
218 
218 
218 
218 
218 
218 
217 
217 
216 
216 
217 
217 
217 
218 
218 
218 
218 
218 
219 
218 
216 
216 
218 
218 
217 
216 
217 
217 
217 
217 
217 
216 
216 
216 
216 
217 
217 
217 
218 
218 
218 
217 
217 
217 
217 
217 
218 
218 
218 
218 
216 
217 
218 
219 
219 
219 
219 
219 
219 
219 
219 
219 
219 
219 
218 
218 
219 
219 
219 
219 
218 
218 
218 
218 
218 
218 
218 
218 
219 
219 
219 
219 
219 
219 
219 
219 
219 
219 
219 
219 
219 
219 
219 
219 
219 
218 
218 
218 
218 
218 
218 
218 
218 
218 
218 
218 
218 
218 
218 
218 
218 
217 
217 
217 
217 
217 
218 
218 
218 
218 
218 
218 
218 
218 
218 
218 
218 
218 
218 
218 
217 
218 
217 
216 
216 
216 
217 
217 
217 
217 
217 
217 
217 
217 
217 
218 
218 
218 
219 
220 
220 
220 
219 
218 
218 
218 
217 
217 
217 
218 
219 
219 
219 
219 
219 
219 
219 
219 
219 
218 
218 
218 
