P2
# Created by MsrVolt
101 71
255
220 
220 
220 
220 
220 
220 
220 
220 
220 
220 
220 
220 
220 
220 
220 
220 
220 
220 
220 
221 
220 
220 
220 
220 
220 
220 
220 
220 
220 
220 
219 
219 
220 
218 
218 
220 
221 
219 
218 
218 
218 
219 
219 
219 
219 
219 
220 
221 
221 
220 
219 
220 
221 
222 
220 
219 
220 
220 
220 
220 
220 
220 
219 
218 
219 
218 
220 
222 
220 
221 
222 
219 
222 
221 
220 
220 
220 
220 
220 
220 
220 
220 
220 
220 
220 
221 
221 
221 
221 
221 
221 
221 
221 
221 
221 
221 
222 
222 
222 
222 
222 
220 
220 
220 
220 
220 
220 
220 
220 
220 
220 
220 
220 
220 
220 
220 
220 
220 
220 
220 
220 
220 
220 
220 
219 
219 
219 
219 
219 
219 
219 
219 
218 
220 
219 
219 
221 
221 
219 
218 
219 
219 
219 
219 
219 
219 
220 
220 
221 
219 
219 
219 
219 
219 
219 
219 
220 
219 
220 
220 
221 
221 
221 
219 
218 
221 
219 
221 
221 
220 
220 
221 
218 
221 
221 
221 
220 
220 
220 
220 
220 
220 
220 
220 
220 
220 
221 
221 
221 
221 
221 
221 
221 
221 
221 
221 
221 
221 
221 
221 
221 
221 
220 
220 
220 
220 
220 
220 
220 
220 
220 
220 
220 
220 
220 
220 
220 
220 
220 
220 
220 
220 
220 
220 
219 
219 
219 
218 
218 
218 
218 
218 
218 
218 
219 
219 
220 
221 
220 
219 
218 
219 
219 
219 
219 
219 
219 
220 
220 
220 
220 
221 
222 
221 
220 
220 
221 
223 
221 
220 
220 
220 
221 
221 
221 
221 
221 
220 
221 
221 
220 
220 
220 
219 
220 
220 
220 
220 
220 
220 
220 
219 
220 
220 
220 
220 
220 
221 
221 
221 
221 
221 
221 
221 
221 
221 
221 
221 
221 
221 
221 
221 
221 
220 
220 
220 
220 
220 
220 
220 
220 
220 
220 
220 
220 
220 
220 
220 
220 
220 
220 
220 
220 
220 
219 
219 
219 
218 
218 
217 
217 
216 
217 
217 
218 
217 
218 
220 
220 
219 
218 
218 
219 
219 
219 
218 
219 
219 
220 
220 
220 
220 
221 
222 
222 
221 
221 
222 
223 
221 
220 
219 
218 
218 
219 
221 
222 
220 
221 
220 
219 
220 
219 
218 
221 
219 
219 
219 
219 
220 
220 
220 
220 
220 
220 
221 
221 
221 
221 
221 
221 
221 
221 
221 
221 
221 
221 
221 
221 
221 
221 
221 
221 
221 
220 
220 
220 
220 
220 
220 
220 
220 
220 
220 
220 
220 
220 
220 
220 
220 
220 
220 
220 
220 
220 
219 
219 
218 
217 
217 
217 
216 
216 
217 
217 
218 
217 
218 
220 
220 
220 
220 
220 
220 
221 
220 
219 
219 
220 
221 
221 
220 
219 
219 
219 
220 
222 
222 
221 
220 
219 
220 
221 
220 
219 
219 
220 
222 
220 
222 
219 
219 
221 
218 
216 
221 
220 
220 
220 
220 
221 
222 
222 
222 
221 
221 
221 
221 
221 
221 
221 
221 
221 
221 
221 
221 
221 
221 
221 
221 
221 
221 
221 
221 
221 
220 
220 
220 
220 
220 
220 
220 
220 
220 
220 
220 
220 
220 
220 
220 
220 
220 
220 
220 
220 
219 
219 
218 
218 
217 
217 
217 
217 
217 
217 
218 
218 
219 
219 
220 
220 
221 
222 
221 
219 
222 
221 
219 
220 
221 
222 
221 
220 
223 
222 
221 
221 
223 
223 
221 
219 
217 
221 
225 
225 
222 
220 
221 
223 
220 
224 
221 
220 
223 
218 
214 
222 
223 
222 
222 
222 
222 
223 
223 
224 
221 
221 
221 
221 
221 
221 
221 
221 
221 
221 
221 
221 
221 
221 
221 
221 
221 
221 
221 
221 
221 
220 
220 
220 
220 
220 
220 
220 
220 
220 
220 
220 
220 
220 
220 
220 
220 
220 
220 
220 
219 
219 
218 
218 
217 
217 
217 
218 
218 
218 
218 
218 
218 
219 
219 
218 
218 
220 
222 
220 
216 
220 
219 
217 
218 
219 
220 
219 
218 
221 
220 
218 
216 
215 
214 
213 
213 
211 
216 
220 
219 
215 
214 
219 
225 
219 
224 
221 
221 
226 
220 
216 
226 
225 
224 
222 
221 
220 
221 
222 
222 
221 
221 
221 
221 
221 
221 
221 
221 
221 
221 
221 
221 
221 
221 
221 
221 
222 
222 
222 
222 
222 
220 
220 
220 
220 
220 
220 
220 
220 
220 
220 
220 
220 
220 
220 
220 
220 
220 
220 
220 
219 
219 
218 
218 
217 
217 
218 
218 
219 
219 
219 
218 
218 
219 
219 
217 
216 
218 
220 
217 
212 
218 
216 
215 
215 
217 
217 
216 
215 
211 
210 
208 
203 
200 
198 
200 
201 
204 
208 
209 
205 
200 
203 
213 
222 
217 
223 
221 
222 
229 
223 
219 
230 
225 
223 
221 
219 
217 
218 
218 
219 
221 
221 
221 
221 
221 
221 
221 
220 
221 
221 
221 
221 
221 
221 
221 
221 
222 
222 
222 
222 
222 
220 
220 
220 
220 
220 
220 
220 
220 
219 
222 
220 
219 
223 
223 
219 
218 
215 
221 
218 
220 
217 
219 
215 
219 
217 
222 
220 
218 
222 
221 
218 
221 
216 
222 
219 
215 
219 
219 
215 
216 
214 
205 
195 
188 
194 
212 
213 
214 
195 
195 
194 
187 
180 
182 
186 
186 
199 
201 
199 
195 
195 
195 
200 
211 
207 
211 
203 
202 
218 
222 
215 
216 
219 
225 
221 
223 
221 
215 
218 
222 
224 
219 
221 
222 
216 
219 
224 
220 
223 
220 
221 
222 
219 
221 
224 
223 
223 
222 
222 
221 
221 
220 
220 
220 
220 
220 
220 
220 
220 
219 
221 
219 
218 
221 
221 
219 
218 
222 
219 
217 
213 
219 
221 
219 
221 
217 
220 
220 
219 
218 
215 
215 
220 
207 
204 
212 
215 
202 
192 
196 
202 
188 
178 
171 
167 
174 
189 
194 
198 
181 
185 
184 
178 
174 
170 
167 
165 
185 
188 
189 
190 
189 
186 
187 
194 
194 
200 
194 
192 
205 
207 
201 
202 
214 
222 
220 
222 
224 
219 
221 
220 
224 
220 
224 
226 
221 
220 
223 
219 
220 
219 
224 
226 
223 
222 
222 
218 
223 
223 
222 
222 
222 
220 
220 
220 
220 
220 
220 
220 
220 
219 
220 
220 
219 
220 
221 
220 
218 
215 
213 
226 
219 
222 
216 
208 
208 
214 
209 
208 
207 
198 
191 
193 
198 
174 
171 
191 
200 
176 
164 
173 
175 
182 
171 
168 
162 
164 
171 
176 
179 
177 
177 
169 
165 
174 
170 
150 
135 
141 
152 
165 
179 
186 
182 
179 
183 
185 
192 
189 
187 
194 
196 
191 
192 
211 
219 
216 
216 
217 
214 
216 
216 
222 
219 
221 
223 
220 
220 
223 
223 
217 
216 
219 
221 
220 
221 
224 
222 
223 
223 
223 
222 
222 
220 
220 
220 
220 
220 
220 
220 
220 
220 
220 
221 
221 
220 
222 
222 
218 
223 
214 
220 
213 
208 
208 
198 
199 
202 
188 
185 
186 
176 
165 
161 
159 
122 
121 
142 
165 
172 
183 
187 
173 
175 
169 
176 
169 
167 
169 
172 
170 
162 
164 
149 
138 
150 
150 
122 
97 
99 
109 
123 
139 
150 
150 
148 
152 
171 
179 
180 
180 
187 
191 
188 
187 
194 
199 
198 
205 
210 
207 
210 
212 
213 
212 
213 
216 
216 
220 
226 
230 
228 
226 
227 
226 
221 
221 
223 
222 
222 
222 
222 
222 
222 
220 
220 
220 
220 
220 
220 
220 
220 
221 
218 
220 
221 
219 
221 
220 
214 
215 
203 
197 
202 
192 
201 
185 
183 
190 
178 
181 
189 
177 
148 
117 
95 
90 
80 
88 
119 
158 
184 
181 
160 
153 
154 
172 
165 
161 
158 
158 
148 
140 
153 
140 
119 
120 
122 
102 
82 
79 
82 
84 
90 
102 
112 
120 
128 
140 
150 
157 
163 
175 
184 
184 
180 
185 
178 
171 
186 
200 
198 
198 
199 
203 
208 
209 
207 
205 
206 
208 
212 
215 
217 
223 
227 
224 
223 
223 
220 
221 
221 
222 
222 
222 
220 
220 
220 
220 
220 
220 
220 
220 
222 
217 
219 
222 
218 
218 
216 
204 
195 
195 
191 
207 
186 
193 
185 
185 
201 
184 
177 
182 
177 
155 
125 
104 
82 
66 
65 
88 
116 
136 
139 
131 
118 
121 
151 
152 
150 
143 
144 
130 
109 
119 
109 
90 
93 
99 
88 
72 
73 
75 
71 
69 
79 
93 
101 
106 
108 
121 
136 
147 
160 
171 
172 
165 
142 
126 
110 
127 
155 
168 
177 
181 
185 
199 
203 
199 
198 
201 
203 
206 
202 
205 
213 
219 
219 
221 
225 
224 
220 
221 
221 
222 
222 
220 
220 
220 
220 
220 
220 
220 
220 
224 
217 
220 
223 
217 
216 
211 
195 
198 
199 
188 
203 
182 
186 
197 
198 
196 
187 
181 
183 
178 
148 
108 
84 
81 
64 
66 
78 
88 
113 
131 
125 
80 
81 
121 
135 
139 
130 
134 
125 
100 
98 
90 
83 
89 
96 
88 
75 
71 
78 
74 
66 
71 
79 
78 
72 
89 
105 
125 
136 
142 
148 
145 
134 
136 
123 
102 
103 
119 
132 
143 
145 
157 
176 
180 
172 
178 
193 
207 
217 
209 
210 
215 
218 
216 
218 
223 
223 
220 
221 
222 
222 
223 
220 
220 
220 
220 
220 
220 
220 
220 
227 
218 
221 
224 
218 
216 
209 
190 
192 
185 
170 
191 
185 
182 
189 
170 
157 
146 
130 
126 
129 
117 
98 
91 
86 
64 
65 
73 
82 
123 
143 
115 
72 
66 
106 
123 
125 
106 
109 
104 
96 
89 
86 
84 
82 
81 
78 
72 
65 
75 
72 
65 
71 
81 
78 
69 
82 
100 
121 
128 
126 
124 
116 
102 
101 
109 
102 
100 
107 
116 
127 
129 
143 
159 
151 
130 
131 
151 
172 
187 
192 
197 
207 
215 
216 
219 
223 
222 
221 
221 
222 
223 
224 
218 
219 
220 
220 
220 
220 
219 
217 
226 
218 
215 
224 
209 
207 
209 
199 
184 
172 
157 
165 
184 
153 
142 
115 
83 
81 
92 
105 
114 
105 
105 
94 
81 
70 
57 
53 
64 
86 
99 
96 
79 
87 
87 
86 
106 
75 
69 
81 
79 
77 
76 
72 
67 
69 
74 
75 
68 
69 
74 
75 
81 
71 
71 
73 
80 
87 
108 
116 
118 
100 
89 
77 
83 
83 
95 
101 
115 
128 
124 
128 
141 
131 
115 
123 
111 
116 
133 
141 
144 
160 
198 
208 
209 
200 
208 
219 
218 
223 
225 
226 
227 
220 
220 
218 
216 
217 
219 
220 
219 
219 
219 
204 
203 
206 
202 
201 
207 
182 
164 
133 
139 
179 
126 
114 
106 
71 
57 
68 
79 
88 
85 
87 
81 
72 
66 
64 
63 
58 
55 
54 
51 
75 
78 
73 
68 
90 
70 
66 
68 
68 
69 
67 
64 
63 
66 
70 
75 
69 
73 
73 
64 
72 
71 
72 
69 
71 
82 
95 
100 
108 
106 
98 
88 
103 
109 
106 
92 
113 
120 
117 
114 
116 
107 
99 
109 
108 
116 
117 
111 
109 
134 
185 
211 
206 
171 
171 
201 
222 
230 
223 
219 
221 
220 
219 
217 
216 
217 
221 
223 
223 
216 
206 
199 
201 
200 
197 
204 
200 
188 
158 
127 
141 
179 
155 
148 
127 
78 
48 
58 
65 
68 
68 
72 
73 
62 
57 
62 
69 
64 
55 
54 
56 
59 
67 
69 
66 
83 
72 
67 
57 
54 
64 
69 
73 
77 
72 
65 
67 
87 
98 
97 
76 
76 
77 
79 
70 
76 
83 
86 
96 
109 
117 
114 
116 
124 
126 
113 
99 
121 
108 
105 
106 
99 
91 
96 
104 
97 
101 
100 
102 
104 
113 
146 
182 
201 
174 
154 
170 
208 
228 
222 
219 
224 
219 
219 
218 
217 
219 
222 
223 
221 
222 
201 
196 
199 
193 
195 
210 
201 
188 
158 
137 
163 
186 
184 
141 
107 
88 
49 
60 
63 
59 
58 
61 
66 
66 
55 
55 
63 
63 
58 
59 
62 
64 
69 
69 
61 
67 
63 
72 
70 
62 
69 
66 
67 
76 
73 
66 
71 
90 
109 
114 
91 
82 
77 
77 
70 
73 
75 
72 
92 
102 
102 
96 
111 
129 
135 
123 
117 
124 
109 
109 
108 
97 
83 
90 
89 
77 
78 
84 
101 
105 
96 
98 
116 
156 
178 
170 
163 
186 
218 
220 
220 
226 
221 
220 
218 
216 
217 
219 
219 
216 
207 
202 
195 
204 
208 
203 
200 
196 
187 
153 
125 
136 
164 
159 
92 
89 
90 
55 
69 
69 
61 
57 
59 
65 
65 
58 
58 
62 
60 
56 
54 
53 
59 
66 
71 
71 
69 
59 
63 
59 
64 
66 
59 
60 
71 
69 
64 
70 
70 
86 
96 
82 
78 
72 
71 
67 
67 
70 
66 
81 
85 
78 
70 
87 
118 
139 
132 
122 
104 
112 
120 
107 
107 
86 
84 
76 
72 
81 
87 
94 
91 
91 
84 
72 
92 
145 
170 
168 
179 
209 
216 
218 
221 
220 
219 
217 
216 
218 
220 
219 
216 
202 
189 
191 
214 
203 
202 
198 
181 
177 
128 
107 
97 
131 
135 
95 
96 
87 
64 
75 
74 
66 
59 
60 
61 
58 
59 
65 
67 
62 
58 
60 
60 
68 
64 
58 
59 
60 
57 
63 
65 
60 
60 
58 
61 
70 
68 
65 
70 
67 
70 
74 
72 
81 
78 
77 
73 
77 
80 
73 
71 
70 
73 
76 
88 
102 
116 
114 
108 
78 
93 
104 
102 
107 
99 
98 
84 
84 
96 
101 
89 
81 
92 
92 
79 
87 
135 
164 
176 
179 
198 
215 
220 
220 
217 
218 
218 
219 
220 
218 
212 
206 
219 
184 
181 
207 
172 
187 
198 
174 
150 
104 
97 
109 
146 
144 
108 
78 
74 
62 
67 
65 
62 
56 
58 
55 
59 
60 
67 
68 
59 
55 
58 
62 
61 
62 
57 
61 
65 
61 
60 
58 
65 
61 
57 
56 
58 
61 
69 
79 
77 
72 
69 
69 
84 
84 
83 
79 
80 
79 
76 
67 
65 
67 
76 
82 
76 
81 
88 
91 
73 
77 
84 
100 
101 
104 
110 
101 
96 
93 
99 
85 
85 
97 
88 
83 
101 
137 
159 
190 
177 
182 
211 
222 
222 
216 
218 
221 
221 
218 
210 
197 
186 
215 
190 
180 
205 
173 
182 
177 
158 
137 
100 
79 
132 
184 
164 
102 
76 
62 
59 
59 
58 
61 
58 
64 
56 
60 
58 
65 
70 
63 
55 
56 
59 
65 
69 
58 
57 
59 
58 
57 
57 
56 
55 
59 
61 
56 
55 
61 
68 
74 
69 
65 
63 
77 
77 
78 
76 
74 
69 
77 
76 
73 
57 
57 
57 
51 
65 
82 
80 
81 
86 
84 
99 
109 
107 
113 
117 
110 
88 
94 
84 
105 
116 
87 
65 
77 
103 
130 
190 
178 
171 
204 
218 
220 
218 
220 
212 
219 
229 
216 
165 
143 
184 
176 
161 
203 
196 
187 
182 
152 
125 
106 
81 
120 
183 
153 
90 
75 
65 
66 
55 
54 
64 
66 
57 
55 
56 
59 
63 
64 
59 
56 
57 
63 
64 
63 
60 
57 
56 
57 
57 
57 
55 
56 
55 
60 
66 
60 
55 
61 
63 
65 
61 
57 
63 
73 
75 
70 
78 
69 
75 
79 
80 
77 
79 
56 
51 
65 
51 
61 
95 
90 
77 
89 
102 
106 
107 
109 
110 
105 
99 
100 
116 
115 
101 
81 
72 
87 
125 
163 
169 
169 
203 
223 
221 
220 
215 
217 
220 
210 
197 
136 
134 
199 
169 
131 
182 
176 
172 
176 
148 
95 
72 
77 
111 
131 
105 
84 
67 
62 
66 
62 
60 
63 
61 
57 
59 
58 
60 
63 
62 
58 
56 
58 
62 
61 
59 
57 
57 
57 
57 
57 
57 
56 
57 
56 
57 
61 
60 
58 
60 
62 
66 
67 
59 
59 
68 
69 
67 
80 
82 
89 
77 
80 
94 
80 
53 
53 
61 
48 
61 
94 
90 
73 
75 
87 
106 
113 
103 
97 
101 
107 
112 
120 
129 
113 
84 
66 
82 
125 
174 
167 
154 
183 
218 
227 
220 
213 
223 
219 
203 
199 
134 
150 
215 
172 
138 
169 
138 
127 
157 
137 
75 
51 
66 
83 
69 
63 
88 
82 
62 
58 
56 
59 
62 
60 
58 
58 
59 
61 
62 
60 
58 
58 
59 
61 
58 
56 
55 
57 
59 
58 
57 
57 
56 
56 
56 
55 
55 
59 
61 
58 
54 
61 
72 
63 
60 
68 
67 
71 
68 
84 
105 
83 
75 
91 
79 
67 
72 
78 
71 
83 
101 
90 
72 
65 
68 
104 
117 
95 
79 
86 
98 
103 
107 
127 
112 
82 
57 
65 
98 
148 
157 
148 
176 
212 
223 
217 
218 
222 
211 
211 
208 
154 
181 
204 
156 
168 
182 
127 
102 
134 
106 
61 
52 
62 
69 
64 
64 
87 
84 
64 
55 
54 
59 
60 
59 
58 
58 
59 
60 
60 
58 
58 
60 
60 
59 
56 
56 
57 
60 
61 
58 
57 
58 
57 
54 
56 
56 
54 
57 
61 
57 
53 
55 
73 
69 
63 
65 
64 
76 
59 
75 
112 
93 
69 
68 
86 
98 
87 
87 
84 
95 
104 
97 
85 
73 
73 
103 
112 
91 
81 
90 
92 
85 
76 
111 
114 
96 
66 
55 
71 
120 
157 
171 
198 
216 
217 
215 
222 
217 
205 
218 
193 
159 
198 
200 
120 
147 
171 
117 
114 
124 
93 
60 
55 
54 
60 
71 
71 
80 
73 
57 
58 
63 
64 
57 
53 
57 
60 
57 
58 
59 
59 
59 
60 
59 
57 
57 
60 
63 
63 
61 
58 
58 
60 
60 
55 
57 
63 
58 
57 
59 
59 
55 
56 
71 
72 
65 
61 
66 
86 
71 
66 
94 
78 
58 
52 
97 
103 
103 
97 
92 
102 
109 
107 
101 
88 
87 
98 
94 
82 
87 
98 
92 
79 
67 
105 
124 
121 
93 
65 
70 
116 
162 
187 
207 
215 
218 
216 
222 
216 
212 
219 
174 
160 
208 
175 
92 
130 
178 
131 
130 
93 
63 
62 
46 
47 
67 
80 
71 
72 
62 
50 
56 
60 
57 
56 
58 
58 
56 
59 
58 
58 
60 
61 
59 
58 
57 
61 
66 
69 
65 
60 
60 
62 
63 
62 
58 
62 
69 
66 
60 
59 
61 
56 
60 
69 
76 
71 
69 
89 
113 
102 
82 
81 
60 
59 
73 
113 
93 
97 
101 
107 
120 
123 
119 
115 
102 
93 
96 
89 
80 
81 
86 
89 
91 
93 
106 
114 
116 
104 
72 
68 
97 
148 
167 
178 
196 
216 
219 
218 
219 
220 
212 
180 
180 
217 
177 
123 
156 
173 
131 
117 
78 
67 
59 
46 
61 
107 
124 
83 
58 
52 
55 
66 
61 
51 
57 
67 
64 
57 
63 
59 
59 
62 
62 
57 
56 
59 
64 
71 
72 
64 
60 
64 
67 
65 
61 
64 
67 
69 
69 
63 
58 
60 
58 
72 
76 
84 
79 
78 
109 
130 
123 
113 
98 
68 
74 
111 
126 
103 
86 
91 
100 
118 
130 
129 
123 
107 
100 
100 
94 
86 
83 
82 
87 
96 
110 
98 
92 
86 
89 
63 
62 
75 
131 
153 
162 
183 
208 
221 
215 
219 
218 
200 
198 
201 
221 
184 
167 
200 
170 
140 
106 
86 
84 
77 
66 
79 
135 
162 
94 
50 
60 
74 
91 
81 
58 
58 
69 
70 
69 
66 
60 
59 
63 
62 
55 
56 
61 
65 
73 
72 
62 
60 
67 
70 
66 
59 
68 
69 
67 
69 
65 
58 
58 
66 
89 
89 
92 
81 
75 
108 
121 
111 
124 
115 
80 
78 
123 
120 
116 
120 
103 
88 
104 
129 
136 
120 
91 
101 
91 
80 
81 
90 
89 
82 
79 
99 
86 
83 
69 
73 
53 
66 
83 
133 
168 
178 
189 
205 
220 
216 
221 
220 
213 
212 
210 
213 
165 
171 
221 
167 
132 
134 
120 
114 
84 
75 
81 
131 
184 
103 
57 
74 
103 
96 
91 
83 
68 
72 
81 
63 
61 
63 
62 
58 
56 
60 
64 
66 
65 
69 
70 
67 
63 
62 
63 
64 
67 
66 
65 
63 
62 
65 
71 
75 
82 
96 
104 
91 
69 
59 
98 
116 
113 
112 
113 
87 
76 
106 
120 
113 
129 
116 
93 
104 
131 
131 
113 
100 
100 
90 
86 
96 
104 
92 
77 
75 
85 
85 
91 
98 
89 
76 
74 
70 
102 
163 
196 
204 
213 
219 
219 
221 
219 
217 
215 
216 
209 
162 
193 
200 
130 
134 
140 
169 
144 
82 
69 
100 
168 
181 
113 
73 
90 
96 
93 
85 
83 
78 
72 
72 
65 
64 
67 
65 
58 
56 
58 
61 
60 
64 
65 
66 
65 
64 
64 
62 
60 
69 
67 
64 
64 
68 
75 
82 
86 
89 
99 
96 
79 
75 
87 
109 
111 
125 
120 
107 
90 
89 
102 
113 
123 
124 
115 
103 
115 
130 
123 
114 
108 
99 
99 
102 
108 
104 
88 
79 
83 
88 
85 
105 
106 
98 
96 
83 
84 
110 
160 
192 
206 
219 
218 
221 
220 
216 
222 
216 
222 
204 
177 
215 
178 
139 
161 
145 
183 
142 
88 
78 
117 
180 
177 
85 
79 
89 
113 
108 
83 
70 
72 
65 
61 
64 
67 
71 
69 
60 
56 
59 
60 
58 
62 
64 
64 
63 
63 
65 
66 
66 
65 
63 
62 
65 
73 
81 
87 
90 
86 
83 
72 
67 
76 
92 
95 
102 
135 
138 
116 
102 
105 
107 
120 
140 
130 
128 
128 
137 
132 
117 
115 
114 
105 
99 
95 
94 
87 
74 
69 
73 
89 
77 
101 
87 
83 
98 
82 
92 
127 
164 
189 
208 
220 
217 
220 
218 
216 
224 
212 
224 
204 
203 
219 
161 
162 
170 
166 
191 
148 
85 
94 
105 
177 
165 
63 
88 
101 
135 
122 
86 
65 
63 
61 
61 
59 
67 
72 
70 
62 
58 
62 
64 
62 
66 
68 
67 
63 
59 
62 
69 
73 
61 
61 
63 
68 
75 
80 
82 
82 
80 
67 
61 
74 
80 
73 
62 
93 
131 
145 
125 
105 
102 
108 
129 
142 
143 
142 
147 
153 
141 
128 
123 
110 
112 
99 
90 
89 
83 
76 
71 
70 
79 
66 
83 
66 
69 
92 
77 
91 
141 
172 
194 
211 
221 
219 
219 
217 
218 
224 
209 
224 
210 
216 
217 
180 
181 
161 
186 
195 
142 
90 
102 
98 
183 
141 
77 
91 
114 
129 
105 
83 
77 
69 
65 
68 
59 
66 
69 
68 
63 
60 
64 
66 
66 
70 
69 
66 
61 
60 
63 
67 
69 
63 
64 
67 
71 
75 
76 
75 
73 
78 
73 
72 
82 
84 
74 
65 
105 
126 
128 
112 
95 
88 
105 
136 
139 
146 
147 
152 
156 
147 
142 
135 
109 
104 
95 
94 
97 
93 
87 
81 
75 
66 
67 
80 
74 
86 
96 
79 
88 
139 
173 
199 
218 
227 
221 
219 
219 
220 
223 
211 
222 
216 
221 
214 
212 
195 
164 
180 
170 
123 
101 
87 
124 
186 
131 
94 
89 
113 
112 
81 
74 
84 
70 
60 
70 
63 
65 
66 
66 
64 
62 
62 
64 
65 
67 
63 
58 
58 
64 
68 
66 
61 
66 
66 
68 
70 
73 
73 
71 
69 
71 
80 
71 
64 
77 
97 
112 
139 
131 
112 
102 
99 
97 
119 
150 
151 
139 
154 
164 
158 
140 
137 
141 
124 
106 
90 
86 
92 
94 
93 
85 
69 
63 
80 
87 
85 
97 
90 
74 
94 
132 
168 
199 
219 
227 
220 
219 
221 
220 
219 
217 
221 
217 
225 
216 
211 
189 
176 
172 
157 
139 
112 
92 
159 
186 
144 
106 
92 
119 
106 
83 
77 
79 
59 
53 
69 
67 
64 
63 
66 
68 
66 
61 
61 
64 
66 
63 
60 
60 
64 
67 
63 
58 
63 
63 
65 
70 
76 
77 
73 
69 
63 
74 
61 
54 
77 
106 
132 
145 
133 
112 
115 
120 
118 
132 
146 
147 
142 
157 
163 
153 
133 
132 
143 
137 
117 
95 
87 
93 
98 
100 
89 
67 
63 
86 
90 
81 
88 
74 
68 
116 
143 
173 
199 
217 
222 
218 
218 
222 
218 
215 
223 
220 
214 
221 
230 
205 
186 
191 
181 
155 
148 
136 
139 
186 
197 
156 
113 
84 
123 
105 
100 
92 
76 
54 
55 
72 
67 
63 
62 
66 
72 
70 
62 
59 
63 
72 
73 
70 
65 
60 
58 
58 
57 
59 
60 
64 
73 
83 
84 
78 
70 
64 
68 
62 
68 
92 
96 
112 
116 
124 
118 
133 
133 
126 
127 
120 
118 
153 
152 
143 
137 
135 
141 
147 
137 
112 
98 
99 
106 
103 
102 
92 
72 
57 
84 
91 
76 
82 
69 
69 
142 
164 
184 
204 
219 
221 
219 
219 
219 
220 
220 
220 
220 
220 
220 
219 
205 
200 
204 
186 
166 
167 
143 
187 
207 
162 
153 
105 
98 
98 
95 
101 
99 
75 
65 
71 
67 
67 
60 
66 
72 
74 
69 
59 
59 
67 
70 
76 
80 
72 
68 
64 
59 
66 
58 
55 
72 
84 
87 
85 
74 
73 
62 
65 
75 
85 
100 
106 
100 
102 
120 
124 
124 
120 
129 
122 
106 
120 
146 
170 
135 
130 
128 
139 
156 
130 
100 
98 
101 
111 
109 
104 
102 
87 
72 
67 
81 
92 
88 
77 
85 
123 
157 
191 
220 
217 
222 
219 
219 
219 
220 
220 
220 
220 
220 
218 
222 
217 
215 
219 
206 
183 
172 
162 
189 
187 
143 
133 
105 
100 
105 
96 
97 
97 
78 
69 
73 
65 
59 
67 
63 
60 
58 
61 
70 
70 
60 
78 
91 
98 
87 
76 
68 
62 
71 
61 
67 
86 
90 
84 
80 
70 
70 
64 
67 
74 
82 
105 
123 
117 
109 
115 
110 
125 
135 
131 
119 
110 
119 
138 
162 
152 
126 
121 
130 
139 
131 
91 
95 
99 
105 
104 
107 
113 
104 
85 
68 
75 
83 
84 
95 
108 
121 
153 
188 
218 
221 
223 
218 
219 
219 
220 
220 
220 
220 
220 
217 
222 
223 
221 
224 
220 
202 
184 
183 
195 
177 
151 
142 
131 
118 
121 
119 
111 
108 
94 
83 
83 
73 
60 
64 
63 
64 
66 
72 
84 
85 
73 
98 
94 
83 
72 
77 
80 
71 
73 
74 
78 
89 
90 
82 
72 
62 
62 
65 
72 
77 
77 
95 
113 
106 
98 
116 
108 
124 
129 
112 
113 
124 
129 
129 
137 
146 
134 
128 
124 
134 
119 
87 
100 
106 
107 
101 
103 
109 
101 
81 
73 
95 
105 
100 
120 
142 
142 
181 
210 
226 
226 
222 
218 
219 
219 
220 
220 
220 
220 
220 
222 
221 
221 
218 
217 
221 
216 
201 
189 
193 
178 
168 
165 
161 
147 
148 
136 
121 
115 
106 
94 
92 
86 
71 
59 
65 
70 
81 
94 
93 
89 
93 
106 
90 
77 
72 
83 
87 
77 
79 
84 
82 
84 
89 
87 
76 
67 
70 
65 
66 
71 
75 
87 
97 
94 
97 
125 
125 
133 
119 
99 
115 
133 
124 
117 
120 
122 
129 
115 
115 
144 
109 
93 
108 
112 
107 
102 
104 
111 
105 
79 
80 
105 
117 
110 
129 
161 
173 
208 
226 
229 
228 
220 
218 
218 
219 
220 
220 
220 
220 
220 
227 
220 
220 
220 
215 
218 
221 
215 
203 
197 
186 
174 
174 
172 
174 
178 
147 
132 
125 
122 
109 
103 
101 
91 
74 
80 
69 
71 
92 
89 
82 
100 
123 
96 
84 
93 
104 
98 
75 
64 
71 
83 
85 
81 
76 
69 
67 
71 
75 
64 
67 
78 
86 
85 
88 
108 
121 
130 
131 
119 
115 
134 
141 
119 
114 
130 
120 
116 
99 
114 
139 
117 
120 
128 
120 
109 
104 
106 
114 
112 
97 
88 
87 
99 
108 
126 
163 
194 
208 
221 
221 
223 
220 
218 
218 
219 
220 
220 
220 
220 
220 
225 
217 
221 
225 
219 
217 
220 
219 
221 
210 
200 
179 
171 
166 
179 
186 
170 
161 
154 
151 
132 
114 
112 
108 
107 
109 
79 
59 
72 
75 
79 
107 
144 
103 
87 
93 
96 
91 
71 
55 
88 
118 
118 
95 
77 
71 
74 
76 
70 
59 
66 
78 
78 
69 
82 
121 
134 
130 
118 
113 
118 
129 
134 
120 
111 
125 
122 
119 
114 
112 
96 
111 
136 
137 
124 
115 
112 
107 
108 
108 
104 
93 
82 
103 
129 
144 
175 
211 
219 
224 
220 
219 
220 
218 
218 
219 
220 
220 
220 
221 
221 
221 
217 
220 
225 
222 
218 
219 
219 
223 
216 
210 
189 
171 
164 
175 
180 
184 
184 
178 
175 
153 
126 
127 
132 
138 
124 
91 
70 
71 
71 
82 
107 
128 
104 
106 
99 
75 
73 
83 
84 
100 
121 
107 
84 
73 
69 
72 
72 
61 
54 
65 
81 
87 
83 
95 
129 
151 
138 
123 
115 
99 
96 
110 
110 
107 
115 
126 
127 
119 
98 
83 
104 
125 
124 
114 
117 
120 
110 
106 
108 
99 
94 
89 
119 
155 
174 
200 
223 
229 
229 
225 
219 
222 
218 
218 
219 
220 
220 
220 
221 
221 
222 
219 
219 
221 
221 
221 
221 
221 
223 
221 
218 
204 
182 
179 
189 
192 
185 
192 
190 
191 
172 
147 
154 
169 
155 
117 
88 
87 
88 
81 
83 
94 
105 
97 
120 
119 
90 
93 
109 
106 
97 
92 
64 
59 
71 
72 
75 
77 
86 
71 
73 
92 
113 
117 
111 
119 
129 
129 
134 
129 
94 
81 
105 
108 
117 
135 
149 
134 
101 
90 
127 
128 
127 
121 
109 
114 
118 
104 
100 
106 
103 
91 
81 
110 
154 
188 
217 
225 
215 
218 
223 
219 
225 
219 
219 
220 
220 
220 
220 
220 
220 
221 
220 
220 
220 
220 
220 
219 
218 
217 
221 
221 
217 
213 
213 
211 
208 
200 
197 
196 
194 
181 
168 
173 
188 
187 
124 
94 
88 
79 
84 
103 
118 
114 
118 
127 
130 
133 
130 
107 
84 
93 
102 
79 
93 
109 
100 
92 
97 
96 
94 
93 
105 
139 
149 
139 
108 
107 
132 
166 
163 
129 
118 
126 
121 
112 
123 
132 
121 
81 
84 
96 
95 
113 
123 
116 
107 
101 
106 
99 
114 
105 
80 
71 
93 
169 
210 
229 
224 
220 
220 
220 
220 
220 
219 
220 
220 
220 
220 
220 
220 
220 
221 
220 
220 
220 
220 
220 
219 
218 
219 
221 
222 
223 
225 
227 
226 
225 
215 
207 
204 
206 
201 
191 
190 
197 
175 
161 
155 
130 
101 
107 
131 
148 
141 
137 
158 
156 
146 
137 
106 
89 
108 
120 
107 
127 
133 
111 
98 
105 
119 
114 
109 
117 
134 
160 
154 
111 
103 
136 
156 
147 
141 
149 
143 
125 
100 
110 
105 
96 
88 
101 
99 
90 
90 
96 
107 
103 
89 
100 
116 
130 
113 
68 
66 
118 
200 
220 
223 
219 
220 
220 
220 
220 
220 
220 
220 
220 
220 
220 
220 
220 
220 
220 
220 
219 
219 
219 
219 
219 
218 
216 
215 
216 
219 
223 
223 
222 
222 
225 
217 
216 
221 
220 
212 
207 
209 
191 
196 
192 
157 
126 
133 
152 
165 
173 
173 
179 
159 
162 
170 
135 
124 
145 
141 
118 
127 
122 
98 
89 
101 
129 
131 
134 
141 
135 
163 
155 
101 
90 
132 
147 
143 
157 
167 
152 
136 
139 
135 
125 
103 
86 
115 
127 
104 
84 
98 
111 
93 
84 
100 
125 
141 
110 
79 
104 
169 
226 
220 
219 
222 
220 
220 
220 
220 
220 
220 
220 
220 
220 
220 
220 
220 
220 
220 
219 
219 
218 
219 
219 
218 
218 
220 
217 
217 
220 
221 
219 
218 
219 
221 
220 
223 
228 
225 
217 
214 
218 
212 
204 
192 
169 
155 
155 
159 
170 
170 
175 
162 
148 
175 
177 
132 
123 
145 
133 
111 
123 
129 
125 
125 
135 
140 
142 
151 
162 
157 
170 
156 
106 
92 
130 
157 
168 
171 
157 
141 
141 
158 
150 
140 
126 
123 
145 
139 
98 
88 
90 
84 
72 
100 
115 
129 
155 
148 
150 
186 
219 
231 
214 
217 
222 
220 
220 
220 
220 
220 
220 
220 
220 
220 
220 
220 
220 
220 
220 
219 
218 
218 
218 
219 
218 
218 
220 
218 
220 
223 
222 
219 
220 
223 
219 
219 
223 
226 
224 
218 
217 
221 
222 
214 
209 
203 
198 
190 
187 
200 
201 
188 
169 
178 
188 
160 
130 
128 
113 
116 
119 
145 
161 
169 
166 
163 
158 
154 
158 
171 
184 
178 
165 
136 
122 
137 
162 
177 
166 
142 
136 
145 
144 
158 
153 
153 
171 
160 
139 
142 
130 
105 
91 
101 
147 
161 
169 
192 
193 
204 
225 
226 
219 
215 
221 
219 
220 
220 
220 
220 
220 
220 
220 
220 
220 
220 
220 
220 
220 
221 
219 
218 
218 
218 
219 
219 
218 
217 
217 
219 
220 
219 
217 
219 
221 
222 
220 
220 
223 
224 
222 
221 
221 
227 
226 
228 
224 
223 
221 
217 
224 
222 
205 
200 
211 
186 
156 
156 
146 
140 
151 
166 
183 
183 
189 
180 
170 
162 
165 
172 
180 
187 
163 
158 
156 
152 
138 
137 
141 
136 
140 
155 
165 
164 
143 
127 
142 
169 
149 
132 
144 
149 
137 
144 
149 
162 
189 
209 
210 
206 
214 
223 
220 
217 
219 
223 
219 
220 
220 
220 
220 
220 
220 
220 
220 
220 
220 
220 
220 
219 
221 
220 
219 
218 
218 
219 
219 
219 
220 
221 
221 
220 
220 
220 
221 
220 
223 
220 
218 
220 
222 
223 
222 
221 
225 
222 
222 
217 
220 
226 
221 
219 
214 
218 
227 
228 
208 
195 
193 
179 
183 
187 
195 
197 
182 
188 
185 
178 
174 
185 
193 
196 
183 
157 
154 
161 
163 
141 
121 
114 
122 
145 
170 
180 
172 
145 
149 
159 
155 
137 
142 
146 
152 
173 
201 
195 
180 
212 
233 
223 
220 
224 
225 
224 
223 
221 
218 
219 
220 
220 
220 
220 
220 
220 
220 
220 
220 
220 
220 
219 
219 
221 
220 
219 
218 
218 
219 
219 
219 
218 
220 
219 
217 
219 
223 
222 
218 
219 
219 
219 
219 
218 
218 
219 
221 
222 
219 
224 
222 
223 
227 
222 
218 
218 
224 
220 
213 
224 
222 
208 
218 
214 
212 
216 
215 
198 
206 
205 
200 
206 
210 
205 
208 
189 
177 
171 
169 
166 
153 
136 
128 
135 
150 
163 
173 
169 
164 
167 
162 
164 
163 
173 
172 
176 
201 
223 
225 
213 
225 
224 
224 
224 
224 
215 
214 
220 
222 
219 
223 
220 
220 
220 
220 
220 
220 
220 
220 
220 
220 
220 
220 
220 
220 
220 
220 
219 
219 
219 
218 
218 
219 
219 
219 
219 
220 
220 
220 
220 
221 
220 
219 
219 
219 
221 
223 
224 
220 
220 
220 
220 
220 
220 
220 
220 
221 
221 
220 
220 
220 
221 
223 
224 
221 
220 
219 
221 
223 
220 
213 
207 
211 
219 
221 
214 
209 
208 
201 
191 
184 
178 
178 
188 
196 
197 
195 
193 
198 
192 
187 
187 
189 
193 
201 
209 
204 
218 
226 
222 
220 
223 
221 
213 
224 
224 
223 
223 
222 
221 
220 
220 
221 
221 
221 
221 
221 
220 
220 
220 
220 
220 
220 
220 
220 
220 
220 
220 
219 
219 
219 
219 
218 
219 
219 
219 
219 
220 
220 
220 
220 
221 
220 
219 
219 
220 
221 
222 
223 
220 
220 
220 
220 
220 
220 
220 
220 
220 
219 
219 
218 
217 
218 
219 
221 
222 
221 
221 
223 
226 
224 
219 
214 
219 
223 
222 
217 
216 
218 
218 
214 
213 
207 
204 
210 
216 
217 
215 
214 
217 
215 
212 
210 
213 
219 
224 
226 
223 
228 
227 
219 
216 
222 
226 
224 
222 
222 
222 
222 
221 
221 
221 
220 
221 
221 
221 
221 
221 
220 
220 
220 
220 
220 
220 
220 
220 
220 
220 
220 
219 
219 
219 
219 
219 
219 
219 
219 
220 
220 
220 
220 
220 
221 
220 
220 
220 
220 
220 
221 
221 
220 
220 
220 
220 
220 
220 
220 
220 
220 
220 
220 
219 
219 
220 
221 
222 
221 
220 
220 
222 
224 
224 
220 
217 
222 
222 
220 
218 
219 
223 
227 
229 
229 
222 
217 
220 
224 
224 
224 
224 
223 
224 
222 
218 
220 
225 
225 
221 
227 
227 
225 
220 
218 
221 
223 
222 
220 
220 
220 
220 
221 
221 
221 
221 
221 
221 
221 
221 
221 
220 
220 
220 
220 
220 
220 
220 
220 
220 
220 
220 
220 
219 
219 
219 
219 
219 
219 
220 
220 
220 
220 
220 
220 
220 
220 
221 
221 
220 
220 
220 
220 
220 
220 
220 
220 
220 
220 
220 
220 
220 
221 
221 
221 
221 
222 
224 
225 
221 
220 
219 
220 
221 
221 
219 
216 
220 
219 
219 
219 
219 
220 
222 
225 
226 
220 
216 
217 
219 
220 
221 
222 
223 
222 
221 
220 
222 
223 
220 
216 
221 
220 
220 
221 
221 
220 
218 
218 
220 
220 
220 
220 
220 
221 
221 
221 
221 
221 
221 
221 
221 
220 
220 
220 
220 
220 
220 
220 
220 
220 
220 
220 
220 
220 
219 
219 
219 
220 
220 
220 
220 
220 
220 
220 
220 
220 
220 
221 
221 
221 
220 
220 
219 
220 
220 
220 
220 
220 
220 
220 
220 
219 
219 
220 
220 
220 
221 
222 
223 
222 
222 
221 
221 
221 
221 
220 
219 
220 
219 
220 
221 
221 
219 
219 
221 
224 
221 
219 
220 
221 
222 
223 
224 
223 
218 
218 
224 
227 
224 
222 
223 
223 
219 
217 
219 
220 
220 
220 
222 
221 
221 
221 
221 
221 
221 
221 
221 
221 
221 
221 
221 
221 
220 
220 
220 
220 
220 
220 
220 
220 
220 
220 
220 
220 
220 
220 
220 
220 
220 
220 
220 
220 
220 
220 
220 
220 
220 
220 
220 
220 
220 
220 
220 
220 
220 
220 
220 
220 
220 
220 
220 
220 
219 
220 
220 
220 
219 
219 
220 
220 
221 
221 
221 
221 
221 
221 
221 
221 
221 
220 
220 
221 
220 
219 
220 
222 
223 
223 
223 
224 
223 
223 
223 
223 
224 
217 
216 
223 
225 
220 
220 
224 
223 
220 
219 
221 
222 
220 
221 
222 
222 
222 
221 
221 
221 
221 
221 
221 
221 
221 
221 
221 
221 
220 
220 
220 
220 
220 
220 
220 
220 
220 
220 
220 
220 
220 
220 
220 
220 
220 
220 
220 
220 
220 
220 
220 
220 
220 
220 
220 
220 
220 
220 
220 
220 
220 
220 
220 
220 
220 
220 
220 
220 
220 
221 
221 
220 
220 
219 
219 
220 
219 
220 
220 
220 
219 
219 
220 
221 
219 
220 
220 
219 
218 
220 
221 
221 
219 
220 
222 
222 
221 
220 
220 
220 
226 
222 
220 
223 
223 
220 
220 
222 
220 
220 
222 
223 
223 
221 
219 
219 
221 
221 
221 
221 
221 
221 
221 
221 
221 
221 
221 
221 
221 
220 
220 
220 
220 
220 
220 
220 
220 
220 
220 
220 
220 
220 
220 
220 
220 
220 
220 
220 
220 
220 
220 
220 
220 
220 
220 
219 
220 
220 
220 
221 
221 
220 
220 
220 
220 
220 
220 
220 
220 
219 
219 
220 
220 
219 
219 
220 
220 
220 
221 
222 
221 
220 
219 
220 
221 
218 
221 
222 
220 
219 
220 
219 
217 
217 
220 
222 
222 
221 
220 
220 
220 
221 
221 
220 
220 
220 
220 
221 
222 
222 
222 
222 
220 
220 
220 
222 
223 
221 
221 
221 
221 
221 
221 
221 
221 
221 
221 
221 
221 
221 
220 
220 
220 
220 
220 
220 
220 
220 
220 
220 
220 
220 
220 
220 
220 
220 
220 
220 
220 
220 
220 
220 
220 
220 
220 
220 
220 
220 
220 
220 
220 
220 
220 
220 
220 
220 
220 
220 
220 
220 
220 
220 
220 
220 
220 
220 
220 
220 
220 
220 
220 
220 
220 
220 
220 
220 
219 
220 
220 
220 
220 
221 
221 
221 
222 
222 
222 
222 
221 
221 
221 
221 
221 
221 
221 
221 
221 
221 
221 
221 
221 
221 
221 
221 
221 
221 
221 
221 
221 
221 
221 
221 
221 
221 
221 
221 
221 
221 
221 
221 
221 
220 
220 
220 
220 
220 
220 
220 
220 
220 
220 
220 
220 
220 
220 
220 
220 
220 
220 
220 
220 
220 
220 
220 
220 
220 
220 
220 
220 
220 
220 
220 
220 
220 
220 
220 
220 
220 
220 
220 
220 
220 
220 
220 
220 
220 
220 
220 
220 
220 
220 
220 
220 
220 
220 
220 
220 
220 
220 
220 
220 
220 
221 
221 
221 
222 
222 
222 
221 
221 
221 
221 
221 
221 
221 
221 
221 
221 
221 
221 
221 
221 
221 
221 
221 
221 
221 
221 
221 
221 
221 
221 
221 
221 
221 
221 
221 
221 
221 
221 
221 
221 
220 
220 
220 
220 
220 
220 
220 
220 
220 
220 
220 
220 
220 
220 
220 
220 
220 
220 
220 
220 
220 
220 
220 
220 
220 
220 
220 
220 
220 
220 
220 
220 
220 
220 
220 
220 
220 
220 
220 
220 
220 
220 
220 
220 
220 
220 
220 
220 
220 
220 
220 
220 
220 
220 
220 
220 
220 
220 
220 
220 
221 
221 
221 
221 
222 
222 
222 
221 
221 
221 
221 
221 
221 
221 
221 
221 
221 
221 
221 
221 
221 
221 
221 
221 
221 
221 
221 
221 
221 
221 
221 
221 
221 
221 
221 
221 
221 
221 
221 
221 
221 
220 
220 
220 
220 
220 
220 
220 
220 
220 
220 
220 
220 
220 
220 
220 
220 
220 
220 
220 
220 
220 
220 
220 
220 
220 
220 
220 
220 
220 
220 
220 
220 
220 
220 
220 
220 
220 
220 
220 
220 
220 
220 
220 
220 
220 
220 
220 
220 
220 
220 
220 
220 
220 
220 
220 
220 
220 
220 
220 
220 
221 
221 
221 
221 
221 
221 
221 
221 
221 
221 
221 
221 
221 
221 
221 
221 
221 
221 
221 
221 
221 
221 
221 
221 
221 
221 
221 
221 
221 
221 
221 
221 
221 
221 
221 
221 
221 
221 
221 
221 
221 
220 
220 
220 
220 
220 
220 
220 
220 
220 
220 
220 
220 
220 
220 
220 
220 
220 
220 
220 
220 
220 
220 
220 
220 
220 
220 
220 
220 
220 
220 
220 
220 
220 
220 
220 
220 
220 
220 
220 
220 
220 
220 
220 
220 
220 
220 
220 
220 
220 
220 
220 
220 
220 
220 
220 
220 
220 
220 
221 
221 
221 
221 
221 
221 
221 
221 
221 
221 
221 
221 
221 
221 
221 
221 
221 
221 
221 
221 
221 
221 
221 
221 
221 
221 
221 
221 
221 
221 
221 
221 
221 
221 
221 
221 
221 
221 
221 
221 
221 
221 
221 
220 
220 
220 
220 
220 
220 
220 
220 
220 
220 
220 
220 
220 
220 
220 
220 
220 
220 
220 
220 
220 
220 
220 
220 
220 
220 
220 
220 
220 
220 
220 
220 
220 
220 
220 
220 
220 
220 
220 
220 
220 
220 
220 
220 
220 
220 
220 
220 
220 
220 
220 
220 
220 
220 
220 
220 
221 
221 
221 
221 
221 
221 
221 
221 
221 
221 
221 
221 
221 
221 
221 
221 
221 
221 
221 
221 
221 
221 
221 
221 
221 
221 
221 
221 
221 
221 
221 
221 
221 
221 
221 
221 
221 
221 
221 
221 
221 
221 
221 
221 
221 
220 
220 
220 
220 
220 
220 
220 
220 
220 
220 
220 
220 
220 
220 
220 
220 
220 
220 
220 
220 
220 
220 
220 
220 
220 
220 
220 
220 
220 
220 
220 
220 
220 
220 
220 
220 
220 
220 
220 
220 
220 
220 
220 
220 
220 
220 
220 
220 
220 
220 
220 
220 
220 
220 
220 
220 
221 
221 
221 
221 
221 
221 
221 
221 
221 
221 
221 
221 
221 
221 
221 
221 
221 
221 
221 
221 
221 
221 
221 
221 
221 
221 
221 
221 
221 
221 
221 
221 
221 
221 
221 
221 
221 
221 
221 
221 
221 
221 
221 
221 
221 
