P2
# Created by MsrVolt
113 71
255
213 
213 
213 
213 
213 
213 
212 
211 
213 
213 
212 
212 
212 
211 
211 
211 
211 
211 
211 
211 
211 
211 
211 
211 
211 
211 
211 
211 
211 
211 
212 
212 
212 
212 
212 
212 
212 
213 
213 
213 
215 
215 
215 
214 
214 
213 
213 
213 
213 
213 
214 
214 
214 
214 
214 
214 
214 
214 
214 
214 
214 
213 
213 
213 
213 
213 
213 
213 
213 
213 
213 
214 
212 
212 
211 
211 
211 
212 
212 
212 
211 
212 
212 
212 
212 
212 
212 
213 
214 
214 
215 
215 
215 
214 
214 
214 
214 
214 
214 
215 
215 
215 
215 
215 
214 
213 
212 
212 
212 
212 
213 
214 
213 
214 
213 
213 
213 
213 
213 
212 
211 
213 
212 
212 
212 
212 
211 
211 
211 
211 
211 
211 
211 
211 
211 
211 
211 
211 
211 
211 
211 
211 
212 
212 
212 
212 
212 
212 
212 
212 
213 
213 
213 
214 
214 
214 
214 
214 
214 
213 
213 
213 
213 
213 
214 
214 
214 
215 
215 
214 
214 
214 
214 
214 
214 
213 
213 
213 
213 
213 
213 
213 
214 
214 
214 
212 
212 
212 
211 
211 
212 
212 
212 
211 
212 
212 
212 
212 
212 
212 
213 
214 
214 
214 
214 
214 
214 
214 
214 
214 
214 
215 
215 
215 
215 
215 
215 
214 
213 
213 
212 
212 
213 
213 
214 
213 
214 
214 
213 
213 
214 
213 
213 
212 
212 
212 
212 
212 
212 
211 
211 
211 
211 
211 
211 
211 
211 
211 
211 
211 
211 
211 
211 
211 
212 
212 
212 
212 
212 
212 
212 
212 
212 
212 
213 
213 
214 
214 
214 
214 
214 
214 
214 
213 
213 
213 
213 
214 
214 
215 
215 
215 
214 
215 
215 
215 
215 
214 
214 
214 
214 
214 
214 
214 
214 
214 
214 
214 
212 
212 
212 
212 
211 
212 
212 
212 
211 
212 
212 
212 
212 
212 
212 
213 
213 
213 
214 
214 
214 
214 
214 
213 
214 
215 
215 
215 
215 
215 
215 
215 
214 
214 
213 
213 
213 
213 
214 
214 
214 
214 
214 
213 
213 
214 
214 
213 
212 
212 
212 
212 
211 
211 
211 
211 
211 
211 
211 
211 
211 
211 
211 
211 
211 
211 
211 
211 
211 
212 
212 
212 
212 
212 
212 
212 
212 
212 
212 
213 
213 
213 
213 
214 
214 
214 
214 
214 
214 
212 
213 
213 
214 
214 
215 
215 
215 
215 
215 
215 
215 
215 
215 
215 
215 
214 
214 
214 
214 
214 
214 
214 
214 
213 
212 
212 
212 
212 
212 
212 
212 
211 
212 
212 
212 
212 
212 
212 
213 
213 
213 
213 
214 
214 
214 
213 
213 
215 
215 
215 
215 
215 
215 
215 
215 
214 
214 
214 
214 
214 
214 
214 
214 
215 
214 
214 
213 
213 
214 
213 
213 
212 
211 
211 
211 
211 
211 
211 
211 
211 
211 
211 
211 
211 
211 
211 
211 
211 
211 
211 
211 
212 
212 
212 
212 
212 
212 
212 
212 
212 
212 
212 
212 
213 
213 
213 
214 
214 
214 
214 
214 
214 
213 
213 
213 
214 
214 
215 
215 
215 
215 
215 
215 
216 
216 
215 
215 
215 
215 
215 
214 
214 
214 
214 
214 
214 
213 
213 
212 
212 
212 
212 
212 
212 
212 
212 
213 
212 
212 
211 
212 
212 
213 
213 
213 
214 
214 
214 
214 
213 
215 
215 
215 
215 
215 
215 
215 
215 
215 
215 
214 
214 
214 
214 
215 
215 
215 
214 
213 
213 
213 
213 
213 
212 
211 
211 
211 
211 
211 
211 
211 
211 
211 
211 
211 
211 
211 
211 
211 
211 
211 
211 
212 
212 
212 
212 
212 
212 
212 
212 
212 
212 
211 
212 
212 
212 
212 
214 
214 
214 
214 
214 
214 
214 
213 
213 
213 
213 
214 
214 
214 
214 
215 
215 
215 
215 
215 
216 
216 
215 
215 
215 
215 
214 
214 
214 
214 
214 
214 
213 
213 
212 
212 
212 
212 
212 
212 
212 
212 
213 
212 
212 
211 
212 
212 
213 
213 
213 
214 
214 
214 
214 
214 
215 
215 
215 
215 
215 
215 
215 
216 
215 
215 
215 
215 
215 
215 
215 
215 
215 
213 
213 
212 
212 
213 
213 
212 
211 
211 
211 
211 
211 
211 
211 
211 
211 
211 
211 
211 
211 
211 
211 
211 
211 
212 
212 
212 
212 
212 
212 
212 
212 
212 
212 
212 
211 
211 
212 
212 
212 
214 
214 
214 
214 
214 
214 
213 
213 
214 
214 
214 
214 
214 
214 
214 
214 
214 
215 
215 
215 
215 
215 
215 
215 
214 
214 
214 
214 
214 
214 
214 
214 
213 
213 
213 
212 
212 
212 
212 
212 
212 
212 
213 
212 
212 
211 
212 
212 
213 
213 
214 
214 
215 
215 
215 
214 
215 
215 
215 
215 
215 
215 
216 
216 
215 
215 
216 
216 
216 
216 
215 
215 
215 
213 
212 
212 
212 
212 
212 
211 
210 
210 
210 
210 
211 
211 
211 
211 
211 
211 
211 
211 
211 
211 
211 
211 
211 
212 
212 
212 
212 
212 
212 
212 
212 
212 
212 
212 
211 
211 
211 
212 
212 
215 
215 
215 
214 
214 
213 
213 
213 
214 
214 
214 
214 
214 
214 
213 
213 
214 
214 
215 
215 
215 
215 
215 
215 
214 
214 
214 
214 
214 
213 
213 
213 
213 
213 
213 
212 
212 
212 
212 
212 
212 
213 
213 
212 
212 
211 
211 
212 
213 
214 
214 
215 
215 
215 
215 
215 
215 
215 
215 
215 
215 
216 
216 
216 
215 
215 
216 
216 
216 
216 
215 
215 
215 
211 
211 
211 
211 
211 
211 
211 
211 
212 
210 
210 
212 
213 
211 
211 
212 
210 
211 
210 
210 
209 
209 
210 
210 
211 
209 
212 
215 
211 
215 
205 
217 
213 
212 
211 
213 
212 
210 
211 
214 
214 
213 
211 
211 
211 
212 
212 
213 
212 
214 
214 
212 
213 
215 
215 
212 
214 
215 
215 
215 
214 
214 
214 
214 
214 
214 
214 
214 
214 
214 
214 
214 
213 
213 
212 
212 
212 
212 
213 
213 
212 
212 
212 
212 
213 
212 
212 
212 
213 
213 
215 
216 
216 
216 
216 
215 
216 
216 
216 
216 
216 
216 
216 
216 
217 
217 
217 
217 
217 
217 
216 
216 
216 
211 
211 
211 
211 
211 
211 
211 
211 
212 
210 
211 
212 
212 
211 
211 
213 
212 
213 
212 
212 
212 
212 
212 
213 
214 
208 
212 
213 
207 
212 
212 
213 
210 
211 
212 
212 
213 
212 
209 
206 
212 
212 
212 
213 
212 
212 
212 
213 
213 
215 
216 
215 
214 
215 
216 
214 
215 
215 
216 
216 
215 
215 
215 
215 
214 
214 
214 
214 
214 
214 
214 
214 
214 
213 
212 
212 
212 
212 
212 
213 
212 
212 
213 
213 
212 
212 
211 
211 
212 
213 
214 
215 
216 
216 
216 
216 
216 
216 
216 
216 
216 
216 
216 
216 
217 
217 
217 
217 
217 
216 
216 
216 
216 
211 
211 
211 
211 
211 
211 
211 
211 
212 
211 
211 
212 
212 
211 
212 
213 
211 
210 
210 
210 
210 
210 
211 
211 
215 
211 
214 
214 
210 
212 
221 
208 
218 
216 
212 
210 
212 
215 
215 
212 
210 
212 
214 
214 
213 
213 
213 
214 
212 
214 
215 
214 
213 
214 
214 
214 
214 
215 
216 
216 
215 
215 
215 
215 
214 
214 
214 
214 
214 
214 
214 
214 
214 
214 
213 
212 
212 
212 
212 
212 
213 
213 
213 
212 
212 
212 
211 
211 
212 
213 
214 
215 
216 
216 
216 
216 
216 
216 
216 
216 
216 
216 
216 
216 
217 
217 
217 
216 
216 
216 
216 
216 
216 
212 
212 
212 
212 
212 
212 
212 
212 
212 
212 
212 
212 
212 
212 
212 
213 
213 
212 
212 
212 
212 
212 
212 
212 
208 
212 
211 
208 
212 
209 
218 
200 
218 
214 
210 
209 
211 
212 
214 
215 
211 
213 
213 
213 
214 
215 
214 
213 
213 
213 
213 
213 
213 
213 
213 
213 
213 
214 
214 
214 
214 
214 
214 
214 
214 
214 
214 
214 
214 
214 
214 
214 
215 
214 
213 
212 
212 
212 
212 
212 
212 
212 
212 
212 
212 
212 
211 
211 
212 
213 
214 
215 
216 
216 
216 
216 
216 
216 
216 
216 
216 
216 
216 
216 
216 
216 
216 
216 
216 
216 
216 
216 
216 
212 
212 
212 
212 
212 
212 
212 
212 
212 
213 
213 
212 
212 
213 
213 
213 
212 
211 
210 
210 
210 
210 
210 
209 
210 
218 
212 
208 
217 
212 
217 
205 
216 
213 
214 
219 
219 
213 
211 
214 
214 
214 
213 
212 
214 
216 
215 
212 
216 
214 
213 
214 
216 
216 
214 
213 
212 
213 
214 
214 
214 
213 
214 
214 
214 
214 
214 
214 
214 
214 
214 
214 
215 
214 
213 
212 
212 
212 
212 
212 
212 
212 
212 
213 
213 
213 
213 
213 
213 
213 
214 
214 
215 
216 
216 
216 
216 
216 
216 
216 
216 
216 
216 
216 
216 
216 
216 
216 
215 
215 
215 
215 
216 
212 
212 
212 
212 
212 
212 
212 
212 
212 
213 
213 
213 
213 
214 
214 
212 
212 
211 
209 
209 
210 
211 
210 
209 
218 
219 
215 
213 
218 
216 
218 
213 
217 
215 
216 
220 
218 
212 
211 
214 
214 
215 
214 
212 
213 
216 
216 
213 
215 
213 
213 
214 
215 
214 
213 
213 
213 
214 
215 
215 
214 
214 
215 
215 
214 
214 
214 
214 
214 
214 
214 
214 
215 
214 
213 
212 
212 
212 
212 
213 
212 
212 
213 
213 
214 
214 
214 
214 
214 
214 
214 
214 
215 
215 
215 
215 
216 
216 
216 
216 
216 
216 
216 
216 
216 
215 
215 
215 
215 
215 
215 
215 
216 
212 
212 
212 
212 
212 
212 
212 
212 
211 
213 
214 
214 
214 
215 
214 
212 
216 
215 
214 
214 
216 
217 
216 
215 
218 
204 
211 
220 
210 
213 
213 
209 
212 
213 
211 
208 
208 
211 
211 
210 
210 
215 
217 
215 
213 
215 
216 
215 
213 
213 
214 
215 
213 
211 
211 
214 
213 
213 
214 
215 
214 
214 
215 
215 
214 
214 
214 
214 
214 
214 
214 
214 
214 
214 
213 
212 
212 
213 
213 
213 
213 
213 
214 
214 
214 
214 
214 
214 
215 
214 
214 
214 
214 
214 
214 
215 
215 
215 
215 
215 
215 
215 
215 
215 
215 
215 
215 
215 
215 
215 
215 
215 
215 
212 
212 
212 
212 
212 
212 
212 
212 
211 
213 
215 
214 
214 
215 
214 
211 
212 
210 
209 
210 
213 
214 
214 
213 
222 
196 
216 
234 
210 
217 
217 
208 
209 
216 
217 
212 
214 
222 
220 
210 
207 
215 
220 
217 
213 
214 
216 
217 
212 
215 
218 
218 
213 
210 
212 
218 
211 
212 
213 
214 
213 
213 
214 
214 
214 
214 
214 
214 
214 
214 
214 
214 
214 
213 
213 
212 
212 
213 
213 
214 
214 
214 
214 
215 
215 
214 
214 
214 
215 
215 
214 
214 
214 
214 
214 
214 
215 
215 
215 
215 
215 
215 
215 
215 
215 
215 
215 
215 
215 
215 
214 
214 
215 
209 
214 
211 
213 
212 
211 
214 
212 
213 
210 
216 
204 
196 
215 
209 
225 
218 
146 
182 
198 
157 
176 
188 
152 
172 
192 
175 
189 
210 
211 
208 
193 
189 
204 
199 
191 
195 
200 
219 
215 
194 
216 
219 
227 
214 
216 
227 
215 
223 
222 
216 
219 
204 
212 
221 
218 
213 
221 
205 
210 
217 
215 
207 
216 
215 
211 
217 
216 
216 
211 
216 
214 
214 
212 
211 
213 
215 
215 
215 
214 
213 
216 
210 
215 
215 
212 
217 
212 
215 
213 
214 
214 
211 
211 
214 
212 
214 
214 
213 
214 
214 
214 
215 
215 
217 
216 
215 
214 
214 
215 
215 
215 
215 
213 
215 
208 
211 
211 
214 
214 
206 
212 
213 
195 
177 
179 
175 
180 
203 
173 
130 
154 
149 
95 
137 
153 
81 
86 
157 
130 
135 
203 
208 
152 
101 
88 
89 
141 
140 
139 
145 
160 
152 
126 
159 
152 
130 
162 
197 
205 
213 
219 
215 
207 
213 
223 
223 
210 
210 
225 
220 
216 
213 
207 
216 
219 
215 
215 
210 
214 
213 
214 
209 
214 
214 
216 
215 
213 
212 
213 
214 
214 
213 
214 
217 
213 
216 
215 
212 
216 
214 
216 
213 
213 
215 
214 
216 
216 
212 
213 
213 
213 
213 
213 
214 
214 
215 
217 
216 
215 
214 
214 
215 
215 
215 
215 
209 
214 
209 
216 
209 
213 
213 
208 
213 
216 
195 
178 
168 
139 
153 
160 
120 
133 
125 
86 
73 
106 
107 
57 
62 
87 
86 
86 
154 
184 
106 
73 
75 
75 
140 
190 
159 
98 
124 
148 
83 
99 
112 
103 
112 
139 
184 
199 
184 
190 
225 
231 
218 
218 
222 
222 
213 
208 
217 
220 
216 
211 
212 
211 
216 
209 
211 
213 
222 
216 
214 
209 
217 
217 
215 
212 
212 
214 
215 
213 
212 
216 
213 
215 
214 
211 
215 
214 
215 
212 
214 
215 
213 
213 
214 
211 
213 
213 
213 
213 
213 
214 
214 
214 
216 
216 
215 
214 
214 
214 
215 
215 
215 
212 
211 
207 
219 
210 
213 
212 
207 
219 
203 
193 
199 
187 
160 
142 
90 
87 
127 
115 
69 
92 
82 
58 
59 
80 
75 
72 
86 
105 
164 
85 
66 
79 
100 
111 
139 
126 
112 
128 
118 
91 
71 
84 
159 
155 
101 
135 
179 
159 
119 
127 
125 
133 
163 
196 
211 
217 
212 
211 
213 
217 
211 
224 
217 
211 
212 
217 
215 
217 
208 
211 
216 
214 
217 
216 
212 
212 
215 
216 
213 
213 
214 
213 
214 
214 
214 
215 
215 
214 
214 
217 
216 
209 
208 
212 
212 
213 
213 
212 
213 
213 
213 
214 
214 
216 
216 
216 
215 
214 
214 
215 
215 
215 
219 
209 
203 
217 
213 
214 
215 
208 
220 
200 
191 
193 
176 
167 
129 
69 
67 
88 
112 
106 
107 
82 
50 
72 
127 
100 
77 
72 
120 
82 
55 
49 
54 
67 
111 
153 
161 
155 
141 
127 
96 
76 
108 
182 
122 
65 
93 
114 
88 
64 
61 
54 
74 
87 
114 
167 
217 
216 
209 
226 
228 
198 
209 
205 
217 
215 
212 
206 
215 
211 
213 
215 
209 
213 
214 
212 
212 
214 
214 
213 
216 
214 
214 
214 
215 
216 
214 
214 
218 
216 
216 
215 
211 
211 
214 
213 
213 
213 
212 
213 
213 
213 
214 
214 
215 
216 
216 
215 
214 
214 
214 
215 
215 
214 
208 
212 
218 
212 
211 
220 
212 
193 
192 
187 
175 
153 
142 
101 
77 
61 
68 
101 
123 
102 
95 
66 
93 
151 
157 
104 
74 
76 
70 
49 
50 
60 
87 
135 
127 
105 
102 
166 
169 
124 
67 
118 
183 
97 
57 
54 
50 
49 
68 
84 
84 
98 
90 
72 
82 
145 
202 
186 
169 
184 
172 
194 
226 
209 
215 
216 
211 
224 
222 
218 
215 
207 
210 
212 
213 
212 
212 
213 
214 
216 
213 
215 
212 
212 
214 
210 
211 
219 
213 
210 
212 
213 
216 
216 
211 
213 
213 
213 
213 
213 
214 
214 
214 
215 
216 
216 
216 
214 
214 
214 
215 
215 
207 
207 
218 
214 
211 
206 
210 
183 
129 
128 
139 
152 
152 
130 
91 
75 
73 
77 
86 
92 
86 
84 
66 
86 
123 
111 
90 
72 
52 
52 
47 
53 
63 
108 
136 
111 
88 
71 
145 
124 
62 
93 
155 
158 
82 
52 
31 
37 
76 
120 
131 
111 
97 
86 
73 
80 
109 
185 
184 
144 
137 
138 
145 
180 
172 
203 
222 
214 
217 
212 
217 
224 
212 
212 
214 
217 
214 
211 
213 
217 
213 
211 
217 
212 
210 
212 
208 
213 
216 
211 
211 
212 
212 
214 
214 
210 
213 
213 
213 
213 
213 
214 
214 
215 
214 
216 
217 
216 
214 
213 
214 
215 
215 
212 
206 
212 
202 
211 
205 
189 
130 
71 
55 
82 
116 
125 
110 
112 
109 
80 
77 
77 
65 
81 
73 
78 
76 
84 
78 
51 
63 
57 
52 
59 
53 
56 
92 
108 
81 
92 
95 
111 
82 
75 
140 
189 
157 
71 
48 
61 
70 
115 
180 
170 
141 
121 
84 
77 
138 
169 
126 
150 
183 
139 
103 
116 
175 
158 
182 
194 
188 
206 
212 
215 
216 
218 
216 
217 
220 
217 
212 
214 
221 
212 
213 
221 
216 
212 
214 
212 
220 
212 
214 
218 
218 
212 
210 
213 
214 
214 
214 
213 
214 
214 
214 
215 
215 
214 
216 
217 
216 
214 
213 
214 
215 
215 
218 
212 
202 
171 
182 
193 
143 
89 
55 
71 
94 
132 
107 
140 
149 
121 
104 
104 
85 
63 
69 
74 
71 
86 
74 
66 
53 
81 
76 
58 
55 
53 
57 
66 
80 
72 
78 
76 
77 
68 
82 
128 
137 
124 
135 
105 
138 
148 
176 
167 
158 
154 
108 
130 
128 
155 
156 
113 
102 
124 
143 
132 
155 
174 
168 
178 
160 
139 
176 
188 
203 
216 
221 
211 
210 
217 
220 
215 
208 
207 
199 
214 
219 
205 
202 
214 
218 
219 
208 
197 
221 
222 
207 
215 
216 
215 
220 
209 
220 
211 
216 
218 
210 
214 
214 
213 
213 
214 
214 
212 
213 
216 
215 
210 
209 
167 
143 
161 
213 
149 
85 
103 
130 
129 
123 
156 
154 
119 
90 
92 
86 
85 
79 
67 
68 
72 
71 
68 
68 
75 
65 
66 
78 
50 
51 
64 
59 
58 
65 
58 
62 
55 
53 
56 
60 
54 
81 
121 
168 
136 
137 
126 
99 
111 
146 
129 
149 
171 
183 
149 
103 
80 
97 
137 
180 
166 
157 
132 
119 
122 
115 
163 
154 
186 
209 
188 
186 
190 
208 
210 
216 
222 
225 
215 
210 
213 
215 
215 
218 
216 
211 
208 
220 
218 
209 
210 
228 
209 
215 
206 
217 
217 
211 
214 
211 
223 
217 
215 
213 
212 
214 
214 
214 
214 
215 
215 
197 
196 
160 
99 
176 
177 
132 
94 
102 
120 
134 
120 
147 
117 
89 
72 
76 
72 
73 
71 
62 
69 
80 
70 
72 
69 
61 
51 
57 
75 
65 
60 
50 
51 
57 
61 
51 
58 
56 
55 
59 
61 
70 
62 
71 
101 
65 
78 
102 
88 
91 
106 
96 
91 
129 
163 
143 
87 
63 
82 
118 
144 
142 
197 
144 
119 
129 
135 
188 
186 
205 
202 
152 
149 
156 
172 
169 
182 
197 
204 
201 
181 
175 
187 
202 
217 
222 
214 
202 
222 
220 
206 
216 
229 
210 
212 
218 
221 
215 
215 
218 
205 
215 
214 
215 
213 
212 
214 
215 
215 
214 
214 
215 
206 
173 
110 
75 
171 
185 
136 
96 
108 
106 
132 
149 
132 
85 
77 
74 
70 
84 
75 
60 
58 
67 
80 
79 
73 
73 
48 
64 
93 
84 
80 
98 
82 
54 
55 
56 
58 
66 
63 
52 
55 
56 
67 
51 
66 
68 
63 
60 
68 
58 
57 
70 
88 
80 
75 
77 
125 
162 
111 
49 
111 
165 
157 
169 
181 
186 
162 
145 
180 
195 
180 
179 
148 
132 
158 
166 
143 
128 
139 
166 
174 
172 
157 
147 
153 
176 
205 
219 
174 
168 
187 
178 
191 
203 
219 
212 
204 
205 
219 
218 
225 
215 
206 
213 
215 
214 
214 
215 
214 
214 
214 
214 
216 
200 
171 
127 
99 
113 
170 
169 
129 
117 
111 
105 
121 
112 
69 
62 
62 
58 
70 
68 
59 
54 
58 
72 
83 
65 
70 
51 
82 
156 
147 
111 
133 
120 
65 
53 
59 
55 
50 
47 
51 
51 
61 
65 
59 
56 
56 
63 
64 
60 
50 
60 
58 
46 
54 
60 
70 
107 
151 
140 
118 
121 
142 
163 
146 
102 
120 
141 
160 
167 
181 
172 
178 
163 
133 
177 
180 
163 
134 
123 
147 
177 
189 
168 
145 
135 
130 
146 
165 
124 
94 
103 
101 
114 
135 
159 
139 
155 
182 
206 
206 
221 
225 
220 
216 
213 
214 
216 
215 
214 
214 
215 
216 
215 
203 
184 
172 
130 
122 
161 
195 
160 
147 
130 
100 
76 
76 
60 
75 
75 
77 
50 
52 
61 
58 
63 
69 
73 
70 
95 
90 
108 
143 
141 
139 
124 
102 
70 
63 
77 
62 
75 
59 
72 
63 
56 
61 
57 
55 
58 
56 
55 
53 
51 
56 
55 
51 
60 
58 
85 
130 
162 
130 
141 
137 
125 
101 
90 
90 
108 
112 
138 
192 
153 
114 
173 
164 
124 
137 
121 
143 
158 
119 
85 
111 
136 
146 
156 
141 
99 
91 
107 
86 
72 
73 
99 
127 
160 
157 
130 
150 
171 
163 
174 
202 
203 
219 
212 
212 
214 
216 
215 
215 
216 
217 
217 
215 
193 
194 
191 
175 
162 
178 
195 
186 
124 
90 
88 
74 
89 
101 
124 
133 
109 
65 
59 
64 
75 
82 
64 
62 
87 
148 
160 
137 
95 
72 
105 
85 
74 
66 
67 
84 
96 
139 
103 
81 
63 
51 
67 
62 
57 
55 
58 
60 
55 
64 
57 
53 
60 
57 
48 
72 
86 
120 
145 
166 
152 
155 
100 
55 
65 
59 
80 
110 
158 
111 
72 
105 
118 
95 
73 
49 
76 
126 
98 
51 
46 
73 
112 
152 
131 
80 
83 
106 
96 
95 
103 
142 
163 
182 
168 
150 
167 
164 
133 
143 
170 
165 
195 
208 
217 
217 
216 
215 
216 
217 
215 
212 
219 
203 
195 
202 
198 
182 
185 
195 
172 
112 
65 
83 
110 
148 
149 
119 
128 
88 
71 
66 
59 
85 
95 
60 
66 
99 
165 
186 
137 
108 
75 
53 
57 
57 
55 
66 
74 
104 
141 
103 
70 
60 
52 
52 
68 
55 
54 
57 
54 
53 
58 
54 
55 
60 
58 
57 
52 
65 
62 
120 
126 
108 
143 
129 
115 
80 
65 
104 
104 
84 
63 
57 
49 
51 
62 
53 
52 
49 
88 
110 
124 
114 
100 
111 
148 
130 
91 
98 
103 
91 
80 
99 
131 
135 
135 
151 
154 
153 
154 
140 
128 
142 
148 
177 
212 
222 
220 
216 
214 
217 
218 
213 
206 
225 
206 
202 
196 
201 
200 
176 
162 
176 
126 
119 
139 
156 
179 
109 
63 
71 
64 
53 
48 
63 
79 
90 
127 
126 
124 
156 
162 
131 
109 
87 
59 
60 
66 
60 
70 
82 
113 
122 
80 
56 
63 
55 
63 
69 
61 
57 
58 
54 
54 
57 
55 
59 
58 
54 
58 
57 
62 
54 
76 
87 
67 
91 
114 
113 
85 
100 
162 
142 
129 
100 
50 
50 
58 
52 
46 
62 
60 
87 
122 
162 
145 
136 
121 
119 
127 
123 
100 
80 
76 
86 
91 
131 
124 
115 
137 
126 
96 
95 
99 
87 
94 
124 
164 
159 
199 
209 
211 
223 
206 
219 
223 
214 
209 
212 
211 
203 
203 
204 
187 
173 
179 
141 
175 
187 
186 
185 
102 
70 
65 
65 
79 
86 
99 
103 
102 
140 
145 
133 
140 
151 
140 
118 
88 
62 
66 
72 
68 
62 
71 
134 
162 
104 
63 
52 
60 
68 
64 
55 
59 
64 
59 
54 
55 
54 
53 
53 
53 
56 
55 
50 
53 
61 
56 
52 
64 
68 
79 
69 
94 
158 
118 
147 
152 
90 
44 
59 
67 
59 
78 
91 
92 
117 
117 
122 
107 
99 
113 
130 
122 
99 
84 
104 
144 
148 
156 
146 
131 
110 
72 
49 
55 
48 
70 
48 
71 
112 
114 
146 
195 
202 
213 
217 
222 
213 
226 
218 
214 
216 
209 
206 
211 
205 
194 
193 
170 
193 
189 
184 
198 
137 
92 
56 
76 
129 
150 
159 
155 
143 
161 
146 
145 
128 
137 
146 
146 
126 
83 
60 
81 
90 
74 
68 
135 
172 
121 
90 
84 
68 
54 
55 
61 
59 
53 
52 
58 
57 
61 
57 
55 
63 
69 
74 
52 
54 
65 
45 
60 
71 
41 
61 
63 
95 
134 
128 
155 
129 
114 
97 
78 
84 
69 
75 
90 
101 
124 
123 
99 
91 
100 
131 
145 
121 
89 
76 
108 
143 
139 
138 
140 
121 
77 
51 
61 
70 
45 
62 
66 
109 
114 
96 
108 
146 
181 
221 
219 
212 
206 
214 
221 
212 
214 
210 
208 
214 
213 
207 
205 
198 
190 
192 
184 
204 
178 
131 
91 
92 
168 
182 
174 
168 
171 
190 
166 
167 
137 
137 
152 
168 
151 
93 
63 
100 
129 
136 
121 
149 
164 
134 
136 
136 
111 
85 
81 
81 
65 
63 
83 
51 
56 
69 
68 
73 
97 
111 
114 
82 
91 
83 
53 
66 
73 
51 
54 
45 
74 
87 
121 
159 
145 
141 
135 
98 
76 
58 
68 
89 
126 
117 
126 
105 
99 
99 
108 
104 
79 
59 
58 
57 
77 
92 
115 
131 
111 
62 
57 
88 
73 
76 
92 
133 
175 
165 
160 
164 
140 
149 
200 
209 
212 
221 
225 
210 
213 
212 
210 
210 
211 
208 
206 
207 
219 
200 
205 
195 
199 
194 
169 
125 
111 
187 
196 
180 
171 
177 
197 
182 
181 
155 
154 
160 
163 
129 
83 
95 
121 
147 
177 
175 
172 
162 
141 
158 
171 
122 
69 
67 
97 
104 
94 
97 
80 
90 
92 
75 
84 
128 
146 
128 
113 
145 
114 
72 
51 
65 
93 
69 
68 
46 
53 
89 
162 
177 
125 
105 
73 
61 
74 
98 
104 
113 
82 
91 
68 
69 
64 
58 
55 
52 
53 
59 
73 
70 
73 
71 
67 
68 
50 
61 
87 
107 
156 
140 
118 
140 
161 
157 
167 
140 
105 
138 
196 
219 
215 
221 
209 
213 
210 
211 
212 
210 
207 
208 
211 
220 
211 
205 
201 
197 
196 
198 
142 
135 
182 
189 
194 
193 
190 
190 
182 
190 
185 
193 
184 
177 
151 
122 
154 
167 
164 
182 
184 
183 
178 
163 
176 
180 
158 
137 
139 
141 
118 
104 
117 
149 
153 
127 
89 
92 
143 
166 
131 
146 
178 
183 
127 
89 
135 
156 
152 
134 
99 
90 
84 
108 
81 
57 
64 
57 
64 
97 
117 
102 
73 
64 
73 
63 
71 
69 
62 
63 
66 
63 
59 
59 
53 
65 
62 
44 
55 
55 
66 
116 
154 
161 
172 
161 
136 
138 
160 
163 
168 
125 
115 
166 
203 
208 
213 
217 
212 
210 
212 
213 
210 
210 
213 
214 
209 
213 
213 
214 
206 
199 
209 
178 
171 
177 
172 
186 
197 
202 
196 
198 
188 
185 
197 
183 
183 
182 
161 
179 
188 
177 
176 
163 
165 
174 
164 
172 
186 
182 
181 
180 
166 
143 
155 
194 
184 
185 
159 
137 
130 
157 
185 
155 
159 
163 
191 
157 
138 
181 
149 
175 
177 
186 
167 
129 
99 
58 
79 
94 
81 
65 
81 
89 
79 
72 
67 
68 
55 
59 
58 
58 
64 
68 
66 
64 
60 
51 
65 
68 
53 
62 
57 
55 
94 
121 
141 
156 
111 
123 
158 
137 
125 
151 
162 
163 
173 
198 
218 
214 
217 
212 
211 
212 
211 
208 
210 
213 
210 
214 
202 
210 
215 
219 
211 
202 
198 
211 
202 
187 
191 
195 
203 
198 
207 
209 
182 
189 
183 
185 
193 
178 
191 
184 
196 
200 
171 
165 
173 
158 
162 
175 
182 
185 
185 
183 
177 
175 
181 
185 
190 
185 
196 
178 
163 
184 
168 
176 
162 
149 
164 
168 
162 
104 
129 
149 
150 
149 
152 
152 
148 
135 
134 
87 
55 
68 
66 
52 
83 
61 
65 
62 
64 
66 
70 
73 
68 
63 
65 
64 
58 
59 
55 
51 
72 
58 
35 
49 
67 
73 
75 
82 
123 
141 
126 
148 
157 
181 
197 
186 
185 
208 
213 
222 
212 
212 
212 
211 
211 
211 
211 
210 
212 
213 
212 
210 
212 
216 
214 
209 
208 
206 
204 
204 
205 
206 
207 
207 
206 
193 
185 
193 
203 
204 
200 
198 
200 
200 
202 
200 
190 
182 
177 
172 
191 
193 
185 
187 
192 
191 
191 
190 
193 
198 
192 
193 
177 
166 
189 
194 
193 
189 
147 
145 
185 
176 
126 
91 
103 
116 
107 
141 
165 
159 
135 
115 
89 
93 
87 
73 
54 
73 
78 
63 
66 
77 
78 
77 
72 
64 
59 
63 
60 
61 
61 
57 
48 
60 
62 
61 
91 
104 
68 
88 
126 
138 
95 
85 
121 
126 
154 
179 
171 
205 
211 
217 
223 
212 
212 
212 
211 
211 
211 
211 
211 
211 
213 
212 
210 
212 
215 
214 
210 
213 
212 
210 
209 
209 
209 
209 
208 
206 
202 
201 
207 
212 
211 
209 
208 
206 
205 
206 
204 
197 
195 
195 
193 
197 
201 
197 
199 
201 
196 
195 
193 
197 
200 
192 
195 
187 
182 
203 
209 
196 
202 
196 
186 
183 
133 
166 
132 
127 
166 
165 
157 
159 
161 
141 
109 
99 
95 
92 
85 
69 
71 
71 
61 
60 
64 
76 
86 
72 
59 
65 
73 
71 
58 
67 
57 
74 
51 
75 
100 
134 
143 
113 
147 
151 
149 
98 
83 
80 
96 
114 
132 
148 
182 
210 
215 
212 
212 
212 
212 
211 
211 
211 
211 
211 
210 
213 
213 
211 
212 
214 
213 
211 
214 
213 
212 
211 
211 
210 
209 
208 
207 
211 
214 
215 
214 
213 
214 
215 
210 
208 
208 
207 
204 
205 
208 
208 
204 
210 
207 
209 
210 
204 
202 
201 
201 
206 
199 
204 
204 
198 
207 
210 
199 
186 
181 
217 
188 
145 
194 
186 
169 
187 
179 
155 
159 
169 
164 
149 
130 
116 
110 
105 
97 
90 
83 
69 
65 
78 
98 
101 
83 
80 
95 
87 
77 
76 
76 
57 
77 
81 
102 
105 
87 
101 
120 
131 
136 
118 
108 
97 
87 
81 
95 
100 
81 
141 
211 
214 
215 
212 
212 
211 
211 
211 
211 
211 
211 
210 
213 
214 
212 
211 
212 
213 
212 
211 
211 
211 
211 
211 
211 
210 
210 
210 
215 
216 
213 
210 
211 
214 
214 
210 
209 
210 
211 
207 
208 
210 
209 
211 
215 
209 
210 
212 
208 
209 
209 
212 
218 
211 
215 
219 
212 
212 
214 
204 
206 
198 
230 
211 
220 
209 
195 
198 
187 
178 
164 
174 
174 
173 
174 
162 
136 
115 
98 
104 
108 
110 
95 
96 
96 
109 
119 
101 
75 
86 
90 
88 
85 
81 
75 
73 
75 
95 
105 
71 
53 
87 
109 
115 
112 
87 
109 
83 
92 
121 
98 
124 
140 
215 
227 
224 
212 
211 
211 
211 
211 
211 
211 
211 
210 
212 
214 
213 
211 
211 
212 
213 
211 
212 
213 
213 
213 
213 
213 
213 
213 
215 
214 
209 
209 
213 
214 
212 
212 
211 
212 
213 
210 
210 
212 
209 
214 
215 
208 
209 
214 
212 
213 
211 
212 
216 
210 
210 
214 
212 
215 
221 
218 
216 
215 
204 
201 
218 
210 
209 
206 
199 
197 
183 
184 
181 
186 
191 
181 
160 
146 
137 
145 
145 
145 
136 
149 
165 
155 
129 
108 
83 
87 
75 
82 
87 
71 
60 
86 
83 
92 
100 
116 
119 
100 
127 
140 
80 
102 
79 
98 
141 
121 
115 
112 
123 
180 
212 
212 
211 
211 
211 
211 
211 
211 
211 
211 
210 
212 
213 
213 
212 
211 
212 
213 
212 
213 
214 
214 
213 
212 
212 
212 
211 
212 
211 
210 
212 
215 
214 
210 
213 
210 
211 
211 
209 
211 
215 
213 
213 
216 
209 
212 
217 
214 
212 
209 
206 
209 
209 
209 
210 
210 
212 
216 
215 
207 
214 
221 
218 
212 
216 
214 
211 
208 
208 
206 
204 
199 
206 
211 
201 
192 
193 
199 
198 
180 
173 
175 
175 
139 
93 
93 
128 
115 
97 
62 
84 
163 
129 
76 
66 
65 
50 
67 
83 
144 
152 
174 
157 
172 
139 
87 
101 
110 
82 
140 
160 
138 
174 
205 
210 
211 
211 
211 
211 
211 
211 
211 
211 
211 
211 
212 
212 
212 
212 
212 
212 
211 
212 
213 
213 
211 
210 
211 
211 
210 
210 
210 
211 
213 
213 
212 
210 
213 
210 
210 
211 
209 
212 
215 
213 
212 
216 
211 
214 
217 
213 
212 
209 
211 
211 
217 
218 
215 
215 
213 
212 
215 
217 
209 
213 
207 
220 
219 
207 
213 
214 
212 
227 
223 
211 
210 
206 
213 
209 
206 
211 
202 
189 
184 
195 
188 
173 
140 
126 
150 
150 
151 
106 
124 
179 
116 
84 
71 
77 
46 
64 
76 
59 
80 
146 
159 
147 
153 
150 
172 
199 
119 
93 
139 
231 
214 
226 
223 
211 
211 
211 
211 
211 
211 
211 
211 
211 
211 
211 
212 
212 
212 
212 
212 
211 
212 
213 
213 
211 
211 
212 
213 
212 
212 
213 
213 
211 
210 
211 
213 
214 
211 
213 
214 
212 
212 
213 
210 
211 
216 
211 
213 
215 
212 
213 
213 
213 
209 
214 
213 
208 
212 
214 
212 
210 
212 
213 
209 
215 
214 
206 
220 
212 
220 
208 
216 
206 
208 
219 
213 
207 
214 
214 
219 
213 
208 
195 
196 
205 
196 
184 
180 
191 
190 
209 
172 
156 
145 
78 
59 
78 
94 
91 
87 
72 
65 
86 
109 
99 
98 
129 
106 
85 
128 
145 
56 
91 
229 
211 
220 
218 
211 
211 
211 
211 
211 
211 
211 
211 
211 
211 
211 
212 
212 
212 
212 
212 
212 
212 
212 
212 
212 
212 
212 
212 
212 
212 
212 
212 
212 
212 
212 
212 
212 
212 
212 
212 
212 
212 
212 
212 
211 
211 
211 
211 
212 
212 
212 
212 
212 
212 
212 
212 
212 
212 
212 
212 
211 
212 
212 
213 
212 
212 
211 
210 
210 
211 
211 
209 
210 
214 
215 
215 
209 
211 
215 
217 
217 
215 
211 
209 
215 
209 
201 
193 
201 
207 
192 
182 
178 
162 
92 
39 
48 
49 
30 
31 
70 
58 
63 
56 
61 
85 
111 
99 
36 
44 
26 
45 
136 
209 
220 
212 
216 
211 
211 
211 
211 
211 
211 
211 
211 
211 
211 
211 
212 
212 
212 
212 
212 
212 
212 
212 
212 
212 
212 
212 
212 
212 
212 
212 
212 
212 
212 
212 
212 
212 
212 
212 
212 
212 
212 
212 
212 
211 
211 
211 
212 
212 
212 
212 
212 
212 
212 
212 
212 
212 
212 
212 
212 
212 
212 
213 
213 
213 
212 
212 
211 
211 
212 
211 
209 
210 
212 
214 
213 
212 
213 
214 
214 
215 
215 
215 
214 
213 
215 
216 
209 
208 
208 
199 
198 
192 
160 
120 
97 
77 
45 
37 
60 
71 
58 
83 
125 
169 
196 
213 
204 
145 
65 
26 
95 
192 
226 
217 
217 
216 
211 
211 
211 
211 
211 
211 
211 
211 
211 
211 
211 
212 
212 
212 
212 
212 
212 
212 
212 
212 
212 
212 
212 
212 
212 
212 
212 
212 
212 
212 
212 
212 
212 
212 
212 
212 
212 
212 
212 
212 
211 
211 
211 
212 
212 
212 
212 
212 
212 
212 
212 
212 
212 
212 
212 
212 
213 
213 
213 
213 
213 
213 
212 
212 
212 
212 
211 
210 
210 
211 
212 
211 
214 
214 
213 
213 
213 
214 
215 
215 
216 
216 
218 
214 
214 
212 
202 
204 
174 
130 
126 
157 
158 
137 
131 
136 
165 
169 
196 
216 
219 
210 
223 
236 
186 
116 
105 
171 
219 
218 
212 
217 
216 
211 
211 
211 
211 
211 
211 
211 
211 
211 
211 
211 
212 
212 
212 
212 
212 
212 
212 
212 
212 
212 
212 
212 
212 
212 
212 
212 
212 
212 
212 
212 
212 
213 
213 
212 
212 
212 
212 
212 
212 
212 
212 
212 
212 
212 
212 
212 
212 
212 
212 
212 
212 
212 
212 
212 
212 
213 
213 
213 
212 
212 
212 
213 
213 
212 
212 
211 
210 
210 
210 
211 
211 
213 
213 
214 
214 
214 
212 
211 
210 
214 
211 
213 
214 
217 
215 
208 
213 
203 
180 
186 
205 
209 
216 
224 
215 
220 
216 
215 
218 
223 
220 
218 
217 
201 
197 
213 
226 
218 
211 
215 
214 
216 
211 
211 
211 
211 
211 
211 
211 
211 
211 
211 
211 
212 
212 
212 
212 
212 
212 
212 
212 
212 
212 
212 
212 
212 
212 
212 
212 
212 
212 
212 
212 
212 
213 
213 
213 
213 
212 
212 
212 
212 
212 
212 
212 
212 
212 
212 
212 
212 
212 
212 
212 
212 
212 
212 
212 
212 
212 
212 
212 
212 
212 
212 
212 
213 
212 
211 
210 
210 
210 
210 
211 
211 
212 
213 
214 
215 
214 
213 
211 
209 
210 
211 
216 
216 
216 
216 
216 
228 
216 
219 
223 
215 
207 
216 
223 
213 
212 
218 
216 
214 
214 
215 
212 
213 
223 
223 
221 
215 
213 
218 
219 
215 
216 
211 
211 
211 
211 
211 
211 
211 
211 
211 
211 
211 
212 
212 
212 
212 
212 
212 
212 
212 
212 
212 
212 
212 
212 
212 
212 
212 
212 
212 
212 
212 
212 
213 
213 
213 
213 
212 
212 
212 
212 
212 
212 
212 
212 
212 
212 
212 
212 
212 
212 
212 
212 
212 
212 
212 
212 
212 
212 
212 
212 
212 
212 
212 
212 
212 
210 
210 
211 
211 
211 
211 
212 
213 
213 
213 
213 
214 
214 
214 
214 
216 
213 
213 
211 
214 
215 
213 
221 
207 
212 
217 
218 
219 
218 
213 
210 
216 
216 
213 
220 
221 
219 
211 
213 
218 
211 
203 
206 
214 
216 
214 
216 
216 
211 
211 
211 
211 
211 
211 
211 
211 
211 
211 
211 
212 
212 
212 
212 
212 
212 
212 
212 
212 
212 
212 
212 
212 
212 
212 
212 
212 
212 
212 
212 
212 
213 
213 
213 
213 
213 
212 
212 
212 
212 
212 
212 
212 
212 
212 
212 
212 
212 
212 
212 
212 
212 
212 
212 
212 
212 
212 
213 
213 
213 
213 
213 
212 
212 
211 
211 
212 
212 
211 
211 
212 
213 
213 
213 
213 
213 
214 
214 
215 
219 
213 
210 
207 
213 
216 
208 
209 
214 
214 
215 
216 
212 
208 
211 
220 
214 
214 
212 
219 
213 
212 
208 
213 
216 
219 
224 
224 
218 
214 
215 
217 
216 
211 
211 
211 
211 
211 
211 
211 
211 
211 
211 
211 
212 
212 
212 
212 
212 
212 
212 
212 
212 
212 
212 
212 
212 
212 
212 
212 
212 
212 
212 
212 
212 
214 
213 
213 
213 
213 
212 
212 
212 
212 
212 
212 
212 
212 
212 
212 
212 
212 
212 
212 
212 
212 
212 
212 
212 
212 
212 
213 
214 
214 
214 
213 
213 
213 
211 
211 
213 
213 
211 
210 
212 
211 
212 
213 
214 
214 
213 
212 
211 
210 
213 
217 
213 
214 
215 
212 
217 
215 
214 
214 
214 
213 
217 
217 
210 
213 
215 
212 
217 
211 
218 
213 
208 
212 
208 
212 
213 
208 
214 
221 
215 
216 
211 
211 
211 
211 
211 
211 
211 
211 
211 
211 
211 
211 
211 
212 
212 
212 
212 
212 
212 
212 
212 
212 
212 
212 
212 
212 
212 
212 
212 
212 
211 
211 
213 
213 
213 
213 
213 
212 
212 
211 
212 
212 
212 
212 
213 
213 
212 
211 
212 
212 
212 
212 
213 
212 
212 
212 
211 
212 
213 
213 
213 
213 
214 
215 
213 
213 
212 
212 
212 
212 
211 
210 
212 
212 
212 
213 
214 
215 
214 
214 
214 
214 
214 
214 
214 
214 
214 
214 
214 
214 
214 
214 
214 
214 
214 
214 
214 
214 
214 
213 
213 
213 
213 
213 
211 
215 
219 
219 
216 
214 
214 
215 
215 
211 
211 
211 
211 
211 
211 
211 
211 
211 
211 
211 
211 
211 
212 
212 
212 
212 
212 
212 
212 
212 
212 
212 
212 
212 
212 
212 
212 
212 
212 
211 
211 
213 
213 
213 
213 
213 
213 
212 
212 
213 
212 
212 
212 
213 
213 
212 
211 
212 
212 
212 
212 
212 
212 
212 
211 
212 
212 
213 
213 
213 
213 
214 
215 
214 
213 
213 
213 
213 
212 
211 
211 
212 
212 
212 
213 
214 
214 
214 
214 
214 
214 
214 
214 
214 
214 
214 
214 
214 
214 
214 
214 
214 
214 
214 
214 
214 
214 
214 
214 
214 
214 
214 
214 
213 
215 
218 
217 
215 
214 
215 
216 
215 
211 
211 
211 
211 
211 
211 
211 
211 
211 
211 
211 
211 
211 
212 
212 
212 
212 
212 
212 
212 
212 
212 
212 
212 
212 
212 
212 
212 
212 
212 
212 
212 
212 
213 
213 
213 
213 
213 
213 
213 
214 
214 
213 
213 
213 
213 
212 
211 
212 
212 
212 
212 
212 
211 
211 
211 
212 
212 
213 
213 
213 
213 
214 
214 
214 
214 
213 
213 
214 
213 
212 
211 
212 
212 
212 
212 
214 
214 
214 
214 
214 
214 
214 
214 
214 
214 
214 
214 
214 
214 
214 
214 
214 
214 
214 
214 
215 
215 
215 
215 
215 
215 
215 
215 
215 
215 
216 
215 
214 
214 
215 
216 
215 
211 
211 
211 
211 
211 
211 
211 
211 
211 
211 
211 
211 
211 
212 
212 
212 
212 
212 
212 
212 
212 
212 
212 
212 
212 
212 
212 
212 
212 
212 
212 
212 
212 
213 
213 
213 
214 
214 
214 
214 
215 
214 
214 
214 
214 
213 
212 
211 
212 
212 
212 
212 
212 
211 
211 
210 
212 
212 
213 
213 
213 
213 
213 
214 
215 
214 
214 
214 
214 
214 
213 
212 
212 
212 
211 
212 
213 
214 
214 
214 
214 
214 
214 
214 
214 
214 
214 
214 
214 
214 
214 
214 
214 
214 
214 
214 
215 
215 
215 
215 
216 
216 
216 
216 
216 
215 
214 
214 
215 
215 
215 
215 
215 
211 
211 
211 
211 
211 
211 
211 
211 
211 
211 
211 
211 
211 
212 
212 
212 
212 
212 
212 
212 
212 
212 
212 
212 
212 
212 
212 
212 
212 
212 
212 
213 
213 
213 
213 
214 
214 
214 
214 
214 
215 
215 
214 
214 
214 
214 
213 
212 
212 
212 
212 
212 
212 
211 
211 
211 
212 
212 
213 
213 
213 
213 
213 
214 
215 
214 
214 
214 
215 
214 
214 
213 
212 
212 
211 
212 
213 
214 
214 
214 
214 
214 
214 
214 
214 
214 
214 
214 
214 
214 
214 
214 
214 
214 
214 
214 
215 
215 
215 
216 
216 
216 
216 
216 
216 
215 
214 
215 
215 
216 
215 
214 
215 
211 
211 
211 
211 
211 
211 
211 
211 
211 
211 
211 
211 
211 
212 
212 
212 
212 
212 
212 
212 
212 
212 
212 
212 
213 
212 
212 
211 
212 
212 
213 
213 
214 
214 
214 
214 
214 
214 
214 
214 
215 
214 
214 
214 
214 
214 
213 
212 
212 
212 
212 
212 
212 
212 
212 
212 
212 
212 
213 
213 
212 
212 
213 
213 
215 
214 
214 
214 
215 
215 
214 
213 
212 
212 
211 
211 
212 
214 
214 
214 
214 
214 
214 
214 
214 
214 
214 
214 
214 
214 
214 
214 
214 
214 
214 
214 
215 
215 
215 
215 
215 
215 
215 
215 
215 
214 
215 
215 
216 
216 
215 
214 
215 
211 
211 
211 
211 
211 
211 
211 
211 
211 
211 
211 
211 
211 
212 
212 
212 
212 
212 
212 
212 
212 
212 
212 
212 
213 
212 
212 
211 
211 
212 
213 
214 
214 
214 
215 
215 
215 
214 
214 
214 
214 
214 
213 
214 
214 
214 
213 
212 
211 
212 
212 
213 
213 
213 
213 
213 
212 
212 
213 
213 
212 
212 
213 
213 
215 
214 
214 
214 
215 
215 
214 
213 
212 
212 
211 
211 
212 
213 
214 
214 
214 
214 
214 
214 
214 
214 
214 
214 
215 
215 
215 
215 
215 
215 
215 
215 
215 
215 
215 
215 
214 
214 
214 
214 
214 
215 
215 
215 
215 
215 
215 
215 
215 
211 
211 
211 
211 
211 
211 
211 
211 
211 
211 
211 
211 
211 
212 
212 
212 
212 
212 
212 
212 
212 
212 
212 
212 
213 
212 
212 
211 
211 
212 
213 
214 
215 
215 
215 
215 
215 
214 
214 
214 
213 
213 
213 
213 
214 
214 
213 
213 
211 
212 
212 
213 
213 
214 
214 
214 
212 
212 
213 
213 
212 
212 
212 
213 
214 
214 
214 
214 
215 
215 
214 
213 
212 
212 
211 
211 
212 
213 
214 
214 
214 
214 
214 
214 
214 
214 
214 
214 
215 
215 
215 
215 
215 
215 
215 
215 
215 
215 
214 
214 
214 
214 
213 
213 
215 
215 
215 
215 
214 
214 
215 
216 
215 
211 
211 
211 
211 
211 
211 
211 
211 
211 
211 
211 
211 
211 
211 
212 
212 
212 
212 
212 
212 
212 
212 
212 
212 
212 
212 
212 
212 
212 
213 
213 
213 
214 
214 
214 
214 
214 
214 
214 
214 
214 
214 
214 
214 
213 
213 
213 
213 
214 
214 
214 
213 
213 
213 
213 
213 
212 
212 
212 
212 
212 
212 
212 
212 
214 
214 
214 
214 
214 
214 
214 
214 
211 
211 
211 
212 
213 
213 
214 
214 
214 
214 
214 
214 
214 
214 
214 
214 
214 
214 
214 
214 
214 
213 
213 
213 
213 
213 
213 
213 
214 
214 
214 
214 
214 
214 
215 
215 
215 
215 
215 
215 
215 
211 
211 
211 
211 
211 
211 
211 
211 
211 
211 
211 
211 
211 
211 
212 
212 
212 
212 
212 
212 
212 
212 
212 
212 
212 
212 
212 
212 
212 
213 
213 
213 
214 
214 
214 
214 
214 
214 
214 
214 
214 
214 
214 
213 
213 
213 
213 
212 
214 
214 
213 
213 
213 
213 
213 
213 
212 
212 
212 
212 
212 
212 
212 
212 
214 
214 
214 
214 
214 
214 
214 
214 
212 
212 
213 
213 
213 
214 
214 
214 
214 
214 
214 
214 
214 
214 
214 
214 
214 
214 
214 
213 
213 
213 
213 
213 
213 
213 
213 
213 
214 
214 
214 
214 
214 
214 
215 
215 
215 
215 
215 
215 
215 
211 
211 
211 
211 
211 
211 
211 
211 
211 
211 
211 
211 
211 
211 
212 
212 
212 
212 
212 
212 
212 
212 
212 
212 
212 
212 
212 
212 
212 
212 
213 
213 
215 
215 
215 
215 
214 
214 
214 
214 
213 
213 
213 
213 
212 
212 
212 
212 
213 
213 
213 
213 
213 
213 
213 
213 
212 
212 
212 
212 
212 
212 
212 
212 
214 
214 
214 
214 
214 
214 
214 
214 
214 
214 
214 
214 
214 
214 
215 
215 
214 
214 
214 
214 
214 
214 
214 
214 
214 
214 
213 
213 
212 
213 
213 
213 
213 
213 
213 
214 
214 
214 
214 
214 
214 
214 
215 
215 
215 
215 
215 
215 
215 
211 
211 
211 
211 
211 
211 
211 
211 
211 
211 
211 
211 
211 
211 
212 
212 
212 
212 
212 
212 
212 
212 
212 
212 
212 
212 
212 
212 
212 
212 
213 
213 
215 
215 
214 
214 
213 
213 
213 
213 
212 
212 
212 
212 
212 
212 
212 
212 
213 
213 
213 
213 
213 
212 
212 
212 
212 
212 
212 
212 
212 
212 
212 
212 
214 
214 
214 
214 
214 
214 
214 
214 
215 
215 
215 
215 
214 
214 
214 
214 
214 
214 
214 
214 
214 
214 
214 
214 
214 
214 
213 
212 
212 
212 
213 
213 
213 
213 
214 
214 
214 
214 
214 
214 
214 
214 
215 
215 
215 
215 
215 
215 
215 
211 
211 
211 
211 
211 
211 
211 
211 
211 
211 
211 
211 
211 
211 
212 
212 
212 
212 
212 
212 
212 
212 
212 
212 
212 
212 
212 
212 
212 
212 
212 
213 
214 
213 
213 
213 
212 
212 
212 
212 
212 
212 
212 
212 
212 
212 
212 
211 
213 
212 
212 
212 
212 
212 
212 
212 
212 
212 
212 
212 
212 
212 
212 
212 
214 
214 
214 
214 
214 
214 
214 
214 
215 
215 
214 
214 
214 
214 
214 
214 
214 
214 
214 
214 
214 
214 
214 
214 
214 
214 
213 
212 
212 
213 
213 
214 
214 
214 
214 
214 
214 
214 
214 
214 
214 
214 
215 
215 
215 
215 
215 
215 
215 
211 
211 
211 
211 
211 
211 
211 
211 
211 
211 
211 
211 
211 
211 
212 
212 
212 
212 
212 
212 
212 
212 
212 
212 
212 
212 
212 
211 
212 
212 
212 
212 
212 
212 
212 
212 
212 
211 
211 
211 
212 
212 
212 
212 
212 
212 
212 
212 
212 
212 
212 
212 
212 
212 
211 
211 
211 
211 
212 
212 
212 
212 
213 
213 
214 
214 
214 
214 
214 
214 
214 
214 
214 
214 
214 
214 
214 
214 
214 
214 
214 
214 
214 
214 
214 
214 
214 
214 
214 
214 
213 
213 
213 
213 
214 
214 
214 
214 
214 
214 
214 
214 
214 
214 
214 
214 
215 
215 
215 
215 
215 
215 
215 
211 
211 
211 
211 
211 
211 
211 
211 
211 
211 
211 
211 
211 
211 
212 
212 
212 
212 
212 
212 
212 
212 
212 
212 
212 
212 
212 
211 
211 
212 
212 
212 
212 
212 
212 
212 
212 
212 
212 
212 
212 
212 
212 
212 
212 
212 
212 
212 
212 
212 
212 
212 
211 
211 
211 
211 
211 
211 
212 
212 
212 
212 
213 
213 
214 
214 
214 
214 
214 
214 
214 
214 
214 
214 
214 
214 
214 
214 
214 
214 
214 
214 
214 
214 
214 
214 
214 
214 
214 
214 
214 
214 
214 
214 
214 
214 
214 
214 
214 
214 
214 
214 
214 
214 
214 
214 
215 
215 
215 
215 
215 
215 
215 
