P2
# Created by MsrVolt
103 75
255
220 
220 
220 
220 
220 
220 
220 
220 
220 
220 
220 
219 
219 
220 
220 
220 
220 
220 
221 
221 
221 
221 
221 
221 
220 
220 
220 
220 
220 
220 
220 
220 
220 
220 
220 
221 
221 
221 
221 
221 
219 
220 
220 
220 
221 
221 
221 
221 
220 
221 
222 
223 
223 
222 
222 
221 
220 
220 
220 
220 
220 
220 
221 
222 
220 
221 
222 
222 
222 
223 
224 
224 
223 
223 
223 
224 
224 
223 
223 
223 
224 
224 
224 
224 
224 
224 
224 
224 
224 
224 
224 
224 
223 
223 
223 
223 
223 
223 
223 
223 
223 
223 
223 
220 
220 
220 
220 
220 
220 
220 
220 
221 
220 
220 
220 
220 
220 
220 
221 
220 
220 
221 
221 
221 
221 
221 
221 
221 
221 
220 
220 
220 
220 
220 
220 
220 
220 
220 
221 
221 
221 
221 
221 
221 
222 
223 
223 
223 
222 
221 
220 
221 
221 
222 
223 
223 
222 
222 
221 
220 
221 
221 
221 
220 
220 
221 
222 
221 
221 
222 
222 
222 
223 
223 
224 
223 
223 
223 
223 
223 
223 
223 
223 
224 
224 
224 
224 
224 
224 
224 
224 
224 
224 
224 
224 
223 
223 
223 
223 
223 
223 
223 
223 
223 
223 
223 
220 
220 
220 
220 
220 
220 
220 
220 
221 
221 
220 
220 
220 
220 
221 
221 
220 
220 
221 
221 
221 
221 
221 
221 
221 
221 
220 
220 
220 
220 
220 
220 
220 
220 
221 
221 
221 
221 
221 
221 
221 
221 
220 
221 
221 
220 
220 
220 
221 
221 
222 
223 
223 
222 
222 
222 
221 
221 
222 
222 
221 
221 
222 
222 
222 
222 
222 
222 
223 
223 
223 
223 
223 
223 
223 
223 
223 
223 
224 
224 
224 
224 
224 
224 
224 
224 
224 
224 
224 
224 
224 
224 
223 
223 
223 
223 
223 
223 
223 
223 
223 
223 
223 
220 
220 
220 
220 
220 
220 
220 
220 
220 
220 
220 
220 
220 
220 
220 
220 
220 
220 
221 
221 
221 
221 
221 
221 
221 
221 
221 
220 
220 
220 
220 
220 
220 
220 
221 
221 
221 
221 
221 
221 
222 
220 
218 
218 
218 
219 
221 
223 
221 
222 
222 
222 
223 
222 
222 
222 
222 
223 
223 
223 
222 
222 
222 
222 
222 
222 
222 
222 
223 
224 
224 
223 
223 
223 
223 
223 
223 
224 
224 
225 
224 
224 
224 
224 
224 
224 
224 
224 
224 
224 
224 
224 
223 
223 
223 
223 
223 
223 
223 
223 
223 
223 
223 
220 
220 
220 
220 
220 
220 
220 
220 
219 
219 
219 
219 
219 
219 
219 
219 
220 
220 
221 
221 
221 
221 
221 
221 
221 
221 
221 
220 
220 
220 
220 
219 
220 
220 
221 
221 
222 
222 
222 
221 
224 
222 
221 
222 
222 
221 
222 
224 
222 
222 
222 
222 
222 
222 
222 
222 
223 
223 
224 
224 
223 
222 
222 
222 
222 
222 
222 
222 
224 
224 
224 
224 
222 
222 
222 
223 
223 
224 
224 
225 
224 
224 
224 
224 
224 
224 
224 
224 
224 
224 
224 
224 
223 
223 
223 
223 
223 
223 
223 
223 
223 
223 
223 
220 
220 
220 
220 
220 
220 
220 
220 
219 
219 
218 
218 
218 
218 
219 
219 
220 
220 
221 
221 
221 
221 
221 
221 
221 
221 
221 
220 
220 
220 
219 
219 
220 
220 
221 
221 
222 
222 
222 
222 
223 
222 
223 
226 
226 
222 
220 
221 
222 
222 
222 
222 
222 
222 
223 
223 
223 
224 
224 
224 
223 
222 
222 
222 
224 
223 
222 
223 
224 
225 
224 
223 
221 
222 
223 
223 
224 
224 
224 
224 
224 
224 
224 
224 
224 
224 
224 
224 
224 
224 
224 
224 
223 
223 
223 
223 
223 
223 
223 
223 
223 
223 
223 
220 
220 
220 
220 
220 
220 
220 
220 
219 
219 
219 
218 
218 
219 
219 
219 
220 
220 
221 
221 
221 
221 
221 
221 
221 
221 
221 
220 
220 
220 
219 
219 
220 
221 
221 
221 
222 
222 
222 
222 
220 
218 
220 
224 
224 
220 
219 
221 
222 
222 
222 
222 
222 
223 
223 
223 
223 
224 
225 
225 
223 
222 
222 
221 
226 
224 
223 
223 
224 
224 
223 
221 
220 
221 
223 
224 
225 
225 
224 
224 
224 
224 
224 
224 
224 
224 
224 
224 
224 
224 
224 
224 
223 
223 
223 
223 
223 
223 
223 
223 
223 
223 
223 
220 
220 
220 
220 
220 
220 
220 
220 
220 
219 
219 
219 
219 
219 
219 
220 
220 
220 
221 
221 
221 
221 
221 
221 
221 
221 
221 
220 
220 
220 
219 
219 
220 
221 
221 
222 
222 
222 
222 
222 
220 
216 
216 
219 
220 
219 
221 
225 
222 
222 
222 
222 
222 
223 
223 
223 
223 
224 
225 
225 
223 
222 
221 
221 
227 
225 
223 
223 
224 
224 
222 
220 
220 
221 
223 
224 
225 
225 
224 
224 
224 
224 
224 
224 
224 
224 
224 
224 
224 
224 
224 
224 
223 
223 
223 
223 
223 
223 
223 
223 
223 
223 
223 
220 
219 
219 
219 
220 
221 
221 
221 
223 
221 
219 
219 
219 
219 
219 
218 
218 
219 
226 
215 
220 
224 
213 
226 
211 
224 
229 
219 
226 
218 
215 
225 
223 
224 
216 
229 
225 
220 
220 
222 
224 
224 
220 
219 
226 
227 
223 
227 
224 
222 
228 
224 
223 
227 
220 
221 
227 
219 
222 
222 
221 
224 
223 
225 
234 
226 
226 
224 
225 
228 
224 
225 
222 
224 
225 
224 
222 
221 
223 
226 
223 
225 
225 
223 
223 
225 
226 
224 
224 
222 
222 
224 
224 
222 
222 
224 
223 
223 
223 
223 
223 
223 
223 
220 
220 
219 
220 
221 
221 
221 
221 
220 
221 
221 
221 
219 
219 
219 
220 
225 
219 
216 
223 
217 
232 
219 
224 
215 
235 
209 
215 
222 
216 
215 
218 
210 
218 
219 
230 
226 
217 
216 
217 
222 
218 
227 
225 
218 
229 
229 
213 
220 
221 
215 
230 
218 
206 
214 
216 
213 
209 
218 
224 
222 
219 
216 
221 
218 
216 
222 
221 
220 
228 
226 
222 
226 
224 
223 
224 
225 
225 
223 
222 
226 
224 
222 
222 
224 
226 
224 
222 
224 
222 
222 
224 
224 
222 
222 
224 
223 
223 
223 
223 
223 
223 
223 
221 
220 
220 
220 
221 
222 
221 
221 
220 
222 
223 
221 
218 
217 
219 
222 
217 
215 
213 
223 
213 
231 
223 
210 
207 
227 
185 
170 
184 
194 
200 
206 
202 
206 
209 
213 
213 
201 
205 
212 
211 
192 
206 
221 
213 
207 
207 
210 
195 
185 
213 
221 
208 
212 
198 
209 
206 
202 
207 
205 
195 
188 
193 
211 
204 
203 
218 
222 
219 
228 
227 
219 
219 
222 
225 
226 
225 
224 
224 
224 
226 
225 
225 
226 
226 
224 
222 
222 
223 
222 
222 
224 
224 
222 
222 
223 
223 
223 
223 
223 
223 
223 
223 
221 
220 
220 
221 
221 
222 
221 
221 
221 
222 
222 
221 
218 
218 
220 
222 
218 
224 
226 
224 
222 
216 
195 
158 
163 
194 
184 
122 
130 
147 
165 
188 
197 
193 
196 
199 
203 
185 
191 
207 
186 
184 
187 
184 
190 
190 
179 
185 
188 
189 
202 
196 
185 
189 
196 
184 
173 
171 
176 
176 
175 
172 
170 
181 
185 
181 
203 
211 
199 
200 
209 
215 
217 
221 
224 
225 
223 
222 
221 
220 
219 
222 
226 
228 
224 
220 
220 
224 
223 
223 
223 
224 
224 
223 
223 
223 
223 
223 
223 
223 
223 
223 
223 
220 
220 
220 
221 
221 
222 
221 
220 
219 
219 
220 
221 
222 
222 
220 
219 
224 
212 
193 
193 
200 
178 
138 
103 
110 
157 
176 
114 
99 
99 
122 
156 
162 
161 
174 
186 
191 
166 
171 
201 
194 
178 
164 
148 
157 
169 
154 
153 
175 
178 
194 
166 
148 
143 
145 
124 
129 
146 
159 
150 
140 
138 
145 
164 
165 
155 
178 
194 
178 
169 
182 
201 
208 
212 
217 
220 
223 
225 
222 
218 
219 
221 
223 
224 
222 
220 
221 
223 
223 
224 
224 
224 
224 
224 
224 
223 
223 
223 
223 
223 
223 
223 
223 
220 
220 
220 
221 
221 
221 
220 
219 
216 
216 
218 
223 
226 
225 
220 
214 
201 
172 
146 
179 
194 
174 
122 
112 
100 
126 
131 
113 
92 
75 
93 
113 
121 
124 
144 
162 
169 
150 
160 
205 
192 
164 
166 
162 
164 
174 
149 
122 
129 
124 
164 
134 
117 
113 
92 
88 
98 
123 
136 
122 
111 
112 
122 
145 
142 
123 
139 
165 
167 
157 
153 
158 
167 
183 
201 
210 
213 
219 
225 
228 
228 
227 
224 
223 
225 
227 
225 
221 
223 
224 
224 
222 
222 
224 
224 
223 
223 
223 
223 
223 
223 
223 
223 
219 
219 
220 
220 
221 
221 
219 
218 
220 
218 
218 
221 
224 
223 
218 
213 
150 
125 
129 
172 
175 
155 
120 
134 
127 
104 
95 
95 
88 
73 
84 
90 
88 
87 
94 
109 
116 
111 
119 
165 
178 
169 
165 
128 
127 
172 
166 
133 
98 
99 
103 
100 
93 
95 
94 
89 
79 
86 
94 
104 
126 
133 
115 
110 
112 
96 
102 
118 
130 
133 
123 
117 
131 
151 
174 
187 
194 
200 
206 
208 
209 
216 
221 
222 
226 
230 
228 
222 
223 
224 
223 
221 
221 
223 
224 
223 
223 
223 
223 
223 
223 
223 
223 
219 
219 
219 
220 
221 
220 
219 
218 
227 
223 
219 
217 
218 
218 
216 
214 
157 
130 
146 
148 
126 
109 
119 
159 
147 
93 
102 
83 
85 
76 
86 
93 
96 
87 
78 
85 
93 
94 
88 
122 
128 
140 
140 
100 
103 
138 
131 
126 
93 
80 
80 
74 
72 
102 
73 
73 
80 
80 
83 
98 
127 
132 
110 
103 
96 
94 
93 
83 
85 
100 
111 
118 
130 
138 
149 
164 
178 
184 
174 
159 
168 
189 
209 
216 
221 
227 
228 
225 
222 
223 
222 
219 
219 
222 
223 
222 
223 
223 
223 
223 
223 
223 
223 
220 
218 
219 
222 
223 
220 
216 
215 
221 
222 
230 
229 
195 
184 
196 
202 
178 
142 
123 
118 
113 
109 
84 
171 
148 
93 
93 
74 
80 
81 
82 
87 
96 
84 
75 
77 
77 
75 
79 
89 
107 
113 
113 
104 
98 
95 
89 
82 
83 
78 
70 
76 
69 
96 
72 
74 
89 
79 
96 
107 
105 
114 
110 
94 
101 
115 
115 
104 
102 
106 
114 
126 
136 
145 
144 
137 
158 
178 
163 
143 
135 
175 
191 
195 
209 
216 
219 
221 
225 
217 
226 
223 
219 
225 
222 
220 
223 
222 
222 
223 
223 
224 
223 
219 
218 
219 
220 
220 
218 
218 
219 
215 
215 
225 
217 
180 
148 
164 
175 
147 
132 
85 
95 
89 
89 
55 
114 
108 
75 
78 
78 
85 
74 
73 
81 
87 
81 
76 
77 
78 
78 
79 
81 
112 
102 
84 
69 
67 
71 
67 
58 
67 
63 
76 
68 
75 
80 
76 
77 
89 
72 
84 
89 
94 
102 
93 
97 
89 
117 
134 
129 
118 
112 
120 
136 
125 
133 
120 
108 
130 
163 
160 
132 
154 
165 
167 
180 
196 
199 
209 
222 
230 
221 
228 
227 
223 
226 
223 
222 
223 
223 
222 
223 
223 
223 
223 
219 
219 
219 
220 
218 
218 
220 
224 
223 
208 
232 
216 
172 
133 
114 
138 
129 
121 
96 
145 
121 
93 
63 
71 
83 
82 
71 
76 
81 
67 
67 
73 
77 
75 
72 
69 
69 
69 
67 
63 
70 
82 
88 
79 
66 
62 
65 
69 
62 
58 
80 
68 
81 
74 
78 
79 
76 
61 
77 
73 
91 
110 
83 
87 
91 
106 
112 
104 
92 
90 
108 
132 
127 
118 
94 
96 
128 
159 
154 
111 
131 
145 
160 
178 
178 
170 
185 
204 
207 
203 
214 
220 
219 
223 
223 
221 
223 
223 
223 
223 
223 
223 
223 
219 
219 
220 
220 
220 
220 
221 
223 
223 
226 
216 
218 
165 
131 
139 
99 
71 
97 
110 
166 
173 
155 
118 
60 
74 
98 
64 
60 
64 
57 
60 
57 
57 
59 
59 
59 
61 
65 
68 
69 
59 
66 
70 
68 
62 
60 
60 
59 
66 
62 
71 
70 
76 
75 
71 
72 
64 
57 
79 
66 
90 
130 
95 
77 
93 
96 
99 
97 
89 
85 
99 
120 
117 
105 
87 
101 
113 
117 
121 
98 
95 
126 
155 
161 
147 
146 
170 
183 
169 
179 
203 
217 
219 
224 
226 
222 
224 
224 
223 
223 
222 
222 
223 
218 
218 
219 
220 
221 
221 
220 
218 
220 
224 
218 
208 
150 
93 
150 
160 
99 
154 
168 
194 
196 
168 
113 
83 
91 
114 
66 
57 
60 
56 
58 
53 
54 
55 
58 
59 
59 
60 
66 
73 
74 
68 
64 
65 
70 
71 
64 
58 
64 
61 
60 
65 
64 
68 
62 
65 
67 
59 
85 
68 
82 
132 
110 
82 
73 
76 
88 
99 
98 
96 
108 
122 
120 
104 
85 
97 
97 
88 
101 
96 
87 
108 
119 
110 
96 
113 
148 
158 
138 
161 
196 
220 
224 
226 
227 
219 
223 
224 
224 
223 
222 
222 
222 
218 
218 
218 
219 
221 
221 
219 
215 
223 
215 
197 
164 
194 
105 
104 
182 
155 
192 
199 
205 
166 
113 
70 
96 
132 
131 
79 
65 
62 
55 
54 
55 
56 
58 
60 
60 
56 
55 
57 
63 
57 
58 
61 
66 
68 
66 
62 
59 
59 
60 
61 
59 
60 
60 
64 
67 
70 
63 
85 
77 
78 
111 
105 
84 
87 
83 
83 
85 
88 
95 
96 
88 
107 
95 
80 
85 
89 
88 
96 
91 
96 
102 
101 
90 
74 
81 
111 
125 
118 
139 
175 
212 
223 
225 
230 
224 
223 
224 
225 
224 
222 
221 
221 
219 
221 
221 
219 
220 
222 
221 
219 
220 
238 
148 
98 
158 
77 
103 
187 
197 
199 
184 
169 
109 
79 
52 
63 
137 
122 
84 
64 
56 
51 
50 
52 
51 
52 
55 
54 
55 
60 
64 
66 
64 
59 
58 
59 
62 
63 
62 
61 
62 
66 
66 
61 
61 
61 
66 
66 
65 
66 
74 
77 
77 
89 
91 
77 
73 
76 
76 
75 
93 
123 
120 
90 
72 
85 
91 
89 
83 
79 
83 
89 
102 
109 
115 
115 
93 
76 
89 
103 
103 
104 
127 
175 
201 
211 
229 
235 
222 
224 
226 
225 
223 
221 
221 
222 
224 
224 
221 
219 
222 
225 
226 
217 
188 
104 
94 
107 
46 
99 
182 
206 
188 
153 
126 
95 
58 
48 
73 
108 
99 
85 
65 
58 
60 
52 
51 
53 
59 
58 
53 
55 
67 
72 
69 
62 
59 
58 
59 
60 
60 
60 
62 
66 
72 
64 
64 
59 
63 
60 
58 
62 
69 
59 
63 
74 
79 
84 
71 
62 
75 
74 
59 
76 
123 
133 
101 
87 
101 
114 
112 
106 
96 
88 
97 
99 
106 
115 
122 
106 
82 
84 
93 
84 
63 
70 
124 
162 
180 
211 
230 
222 
224 
226 
226 
223 
221 
221 
221 
220 
220 
218 
217 
218 
222 
226 
214 
152 
81 
131 
139 
40 
74 
149 
205 
171 
132 
107 
65 
53 
55 
99 
120 
65 
65 
68 
52 
53 
52 
51 
55 
56 
57 
54 
58 
71 
79 
74 
66 
60 
58 
59 
59 
58 
57 
61 
65 
64 
62 
60 
60 
61 
63 
65 
65 
76 
61 
63 
65 
71 
71 
66 
64 
74 
81 
76 
86 
100 
119 
116 
107 
106 
128 
131 
131 
123 
122 
116 
119 
110 
101 
110 
104 
100 
84 
78 
79 
86 
73 
77 
115 
157 
197 
225 
232 
226 
224 
224 
227 
224 
217 
218 
218 
219 
218 
216 
216 
218 
221 
213 
145 
112 
174 
143 
57 
62 
89 
193 
149 
112 
98 
61 
49 
72 
146 
155 
95 
63 
58 
55 
54 
52 
58 
56 
57 
58 
58 
61 
74 
81 
77 
68 
62 
57 
59 
60 
58 
58 
60 
60 
59 
59 
59 
60 
61 
63 
65 
67 
73 
70 
68 
62 
66 
72 
72 
75 
96 
70 
87 
88 
86 
132 
148 
123 
103 
130 
139 
149 
139 
132 
135 
139 
124 
102 
103 
102 
91 
72 
76 
86 
88 
76 
83 
101 
130 
160 
204 
228 
228 
224 
224 
226 
223 
220 
219 
220 
220 
219 
219 
219 
220 
221 
213 
166 
161 
192 
113 
57 
58 
81 
189 
171 
141 
106 
61 
52 
73 
136 
153 
113 
70 
56 
60 
55 
53 
57 
57 
57 
59 
60 
63 
73 
78 
75 
66 
62 
59 
60 
61 
59 
59 
60 
60 
60 
61 
61 
61 
62 
63 
65 
66 
68 
86 
83 
67 
60 
66 
68 
93 
123 
79 
94 
79 
75 
123 
150 
119 
96 
118 
117 
134 
145 
136 
135 
144 
135 
109 
99 
92 
71 
51 
62 
91 
92 
79 
77 
74 
96 
114 
168 
218 
230 
224 
224 
226 
221 
224 
222 
220 
219 
219 
221 
224 
223 
221 
209 
168 
194 
200 
107 
93 
89 
75 
120 
143 
140 
99 
60 
63 
70 
100 
113 
111 
88 
69 
62 
55 
54 
55 
58 
56 
58 
60 
62 
67 
70 
67 
61 
60 
60 
60 
60 
59 
58 
58 
59 
60 
61 
62 
63 
63 
64 
65 
65 
65 
101 
103 
82 
62 
60 
61 
73 
106 
103 
106 
81 
77 
88 
102 
99 
99 
114 
106 
102 
123 
131 
138 
141 
138 
123 
109 
99 
80 
58 
51 
74 
86 
87 
72 
55 
68 
79 
130 
198 
227 
224 
225 
226 
220 
226 
218 
217 
216 
217 
221 
224 
219 
212 
167 
132 
200 
202 
116 
151 
164 
103 
83 
112 
124 
94 
64 
66 
67 
84 
86 
99 
99 
84 
62 
54 
59 
59 
60 
57 
58 
62 
62 
63 
65 
63 
57 
59 
61 
61 
60 
58 
56 
56 
56 
57 
59 
61 
62 
63 
65 
65 
64 
62 
101 
112 
96 
69 
62 
68 
62 
72 
97 
106 
86 
71 
77 
98 
109 
106 
95 
102 
91 
110 
125 
134 
144 
138 
135 
129 
128 
127 
105 
69 
55 
67 
84 
70 
55 
53 
60 
97 
169 
215 
224 
225 
226 
221 
226 
215 
216 
217 
218 
222 
222 
216 
207 
172 
168 
216 
180 
118 
158 
170 
120 
88 
104 
116 
90 
69 
84 
96 
111 
79 
80 
89 
86 
66 
56 
59 
62 
62 
58 
59 
65 
64 
63 
64 
64 
57 
60 
61 
61 
61 
61 
58 
55 
60 
61 
62 
62 
62 
62 
62 
62 
61 
58 
84 
106 
102 
76 
71 
88 
72 
67 
99 
145 
143 
87 
91 
115 
133 
123 
90 
93 
82 
109 
131 
137 
135 
132 
142 
141 
143 
151 
146 
112 
79 
61 
64 
62 
59 
54 
55 
71 
137 
198 
223 
222 
224 
222 
224 
217 
220 
221 
220 
221 
223 
221 
216 
194 
214 
204 
152 
150 
183 
158 
124 
103 
109 
116 
83 
61 
82 
102 
110 
86 
74 
77 
75 
70 
65 
56 
59 
63 
57 
58 
66 
65 
62 
63 
64 
60 
60 
58 
59 
65 
70 
66 
58 
63 
63 
63 
63 
61 
60 
59 
59 
58 
61 
69 
102 
111 
86 
80 
106 
99 
79 
77 
126 
153 
98 
99 
126 
140 
135 
119 
105 
87 
103 
136 
154 
128 
127 
140 
139 
138 
139 
151 
149 
126 
94 
75 
73 
58 
57 
58 
57 
109 
182 
221 
219 
221 
224 
222 
220 
224 
223 
219 
217 
222 
227 
229 
217 
235 
192 
145 
171 
206 
167 
134 
110 
107 
118 
95 
70 
82 
102 
113 
104 
87 
77 
62 
68 
74 
56 
59 
63 
57 
58 
65 
64 
60 
60 
61 
62 
59 
56 
57 
69 
78 
74 
64 
57 
58 
59 
59 
60 
60 
60 
61 
59 
68 
68 
109 
123 
96 
86 
117 
130 
106 
81 
110 
164 
140 
123 
143 
145 
117 
118 
118 
115 
107 
123 
143 
137 
130 
134 
135 
138 
128 
143 
162 
152 
139 
120 
106 
58 
55 
60 
56 
93 
171 
220 
216 
219 
225 
220 
221 
219 
219 
221 
220 
217 
220 
225 
227 
217 
191 
150 
188 
199 
169 
149 
122 
120 
112 
87 
78 
82 
108 
123 
97 
90 
81 
66 
72 
70 
72 
67 
61 
60 
58 
60 
68 
62 
57 
66 
58 
56 
57 
65 
78 
85 
83 
76 
62 
67 
66 
66 
69 
64 
59 
62 
62 
65 
63 
87 
103 
130 
122 
115 
136 
127 
109 
111 
146 
163 
130 
134 
157 
95 
92 
137 
129 
122 
122 
115 
128 
147 
147 
116 
123 
113 
124 
139 
144 
131 
115 
75 
56 
60 
60 
79 
95 
140 
209 
226 
227 
224 
223 
216 
216 
220 
224 
223 
219 
218 
221 
220 
223 
215 
181 
196 
179 
154 
164 
161 
129 
93 
60 
90 
99 
116 
127 
87 
78 
89 
82 
69 
67 
76 
61 
63 
63 
63 
70 
77 
69 
61 
64 
62 
59 
61 
70 
82 
87 
83 
77 
78 
75 
70 
68 
66 
61 
60 
66 
69 
64 
54 
69 
90 
116 
104 
86 
103 
132 
132 
120 
109 
122 
91 
117 
162 
98 
70 
115 
114 
130 
118 
103 
128 
156 
149 
113 
98 
96 
96 
98 
90 
80 
71 
56 
56 
62 
59 
67 
97 
111 
195 
228 
222 
222 
222 
216 
217 
222 
227 
226 
222 
220 
221 
217 
212 
224 
199 
185 
174 
172 
170 
179 
155 
117 
89 
92 
115 
122 
143 
104 
82 
87 
92 
80 
69 
73 
65 
59 
61 
63 
72 
81 
76 
67 
66 
64 
64 
67 
75 
79 
77 
75 
75 
78 
71 
68 
69 
64 
61 
64 
68 
65 
67 
61 
62 
73 
88 
80 
64 
73 
128 
148 
114 
63 
63 
55 
99 
157 
114 
74 
86 
88 
125 
124 
109 
126 
143 
120 
90 
77 
98 
82 
59 
66 
58 
63 
80 
87 
72 
60 
65 
116 
116 
196 
228 
225 
226 
220 
219 
219 
221 
223 
223 
222 
222 
225 
229 
218 
231 
219 
204 
198 
200 
191 
184 
161 
135 
114 
103 
128 
134 
149 
118 
103 
91 
89 
87 
72 
64 
67 
61 
60 
61 
69 
76 
77 
72 
69 
74 
69 
70 
77 
83 
82 
79 
78 
67 
64 
69 
71 
66 
66 
67 
64 
60 
57 
58 
67 
89 
101 
90 
70 
81 
119 
146 
122 
78 
58 
66 
84 
122 
118 
98 
67 
66 
104 
128 
119 
110 
119 
96 
74 
61 
87 
77 
55 
61 
62 
68 
86 
85 
62 
56 
65 
121 
140 
202 
223 
231 
230 
220 
219 
218 
218 
218 
219 
219 
221 
224 
216 
219 
222 
222 
224 
194 
175 
192 
191 
159 
137 
100 
120 
120 
147 
173 
121 
118 
108 
97 
86 
76 
68 
68 
68 
66 
65 
68 
73 
76 
74 
68 
75 
64 
60 
69 
82 
86 
81 
74 
69 
70 
75 
74 
68 
70 
70 
61 
56 
55 
64 
81 
98 
100 
86 
70 
76 
104 
139 
146 
99 
64 
83 
84 
87 
103 
97 
62 
56 
83 
109 
108 
99 
92 
77 
67 
67 
80 
75 
57 
50 
58 
59 
62 
58 
50 
57 
69 
93 
128 
188 
220 
231 
224 
225 
219 
218 
218 
219 
220 
220 
221 
221 
218 
222 
220 
222 
225 
201 
181 
188 
191 
169 
126 
91 
117 
107 
137 
183 
134 
104 
97 
105 
83 
73 
72 
70 
67 
66 
67 
69 
71 
77 
77 
68 
64 
63 
64 
68 
72 
74 
72 
70 
75 
76 
76 
71 
67 
71 
73 
69 
62 
69 
80 
93 
88 
77 
63 
59 
71 
87 
106 
126 
79 
58 
81 
89 
92 
91 
72 
60 
52 
73 
83 
90 
81 
66 
63 
68 
83 
86 
83 
70 
57 
55 
65 
83 
85 
69 
64 
78 
72 
98 
173 
229 
230 
217 
230 
219 
220 
220 
221 
222 
222 
221 
220 
223 
219 
218 
220 
216 
215 
211 
197 
200 
177 
116 
99 
111 
121 
134 
151 
133 
94 
83 
102 
87 
74 
69 
68 
64 
64 
67 
68 
69 
77 
79 
69 
64 
74 
82 
81 
77 
75 
75 
74 
74 
73 
71 
70 
71 
70 
71 
76 
78 
82 
82 
92 
84 
80 
64 
59 
89 
79 
75 
85 
77 
79 
78 
79 
93 
81 
62 
57 
54 
68 
75 
83 
68 
70 
77 
76 
78 
75 
85 
93 
71 
62 
82 
109 
119 
101 
80 
90 
84 
100 
174 
231 
233 
219 
226 
219 
219 
219 
219 
220 
220 
220 
219 
219 
221 
217 
224 
226 
218 
216 
222 
213 
186 
142 
117 
116 
137 
162 
122 
119 
117 
107 
109 
101 
95 
76 
70 
69 
68 
71 
69 
67 
76 
80 
69 
67 
75 
82 
84 
88 
89 
82 
72 
71 
70 
69 
75 
79 
70 
66 
77 
79 
93 
91 
90 
66 
65 
57 
62 
81 
79 
90 
77 
95 
92 
72 
72 
66 
65 
68 
55 
59 
63 
81 
84 
93 
94 
88 
76 
69 
68 
76 
87 
77 
77 
92 
97 
113 
125 
108 
106 
104 
121 
182 
220 
234 
224 
217 
220 
220 
220 
220 
220 
220 
220 
220 
222 
217 
220 
226 
224 
215 
215 
224 
203 
188 
175 
175 
138 
178 
194 
132 
132 
111 
94 
99 
103 
92 
87 
85 
81 
81 
78 
72 
70 
71 
70 
67 
64 
76 
89 
86 
84 
93 
88 
76 
75 
65 
69 
73 
74 
77 
80 
87 
90 
103 
99 
87 
76 
68 
74 
80 
93 
95 
83 
80 
97 
103 
85 
71 
64 
72 
73 
68 
62 
60 
73 
91 
102 
91 
79 
73 
76 
74 
72 
87 
86 
86 
87 
101 
106 
118 
134 
117 
120 
151 
196 
210 
221 
231 
220 
220 
220 
220 
220 
220 
220 
220 
220 
222 
220 
220 
220 
219 
218 
221 
225 
206 
196 
194 
213 
191 
187 
172 
123 
124 
112 
101 
94 
92 
86 
89 
89 
89 
81 
73 
70 
70 
69 
68 
68 
65 
70 
82 
85 
77 
73 
72 
72 
75 
78 
84 
80 
83 
99 
99 
92 
92 
93 
93 
87 
94 
98 
89 
95 
99 
100 
91 
91 
109 
117 
104 
90 
77 
81 
84 
80 
66 
59 
76 
103 
89 
79 
74 
81 
80 
66 
73 
98 
111 
107 
92 
100 
117 
129 
132 
114 
117 
163 
219 
223 
216 
223 
219 
220 
220 
220 
220 
220 
220 
220 
220 
220 
222 
221 
216 
217 
223 
225 
223 
227 
220 
210 
215 
198 
168 
155 
142 
121 
124 
126 
106 
96 
92 
101 
98 
97 
94 
84 
73 
72 
75 
71 
62 
68 
67 
72 
71 
61 
62 
80 
97 
125 
127 
129 
111 
92 
91 
94 
99 
116 
103 
95 
86 
111 
131 
109 
104 
107 
108 
108 
111 
119 
121 
112 
100 
75 
78 
78 
70 
60 
61 
82 
105 
112 
93 
76 
86 
85 
70 
84 
102 
116 
108 
84 
88 
120 
136 
127 
111 
98 
148 
217 
233 
222 
222 
219 
220 
220 
220 
220 
220 
220 
220 
220 
218 
222 
221 
218 
220 
224 
224 
218 
225 
229 
221 
208 
197 
169 
162 
156 
124 
135 
146 
120 
110 
111 
117 
104 
95 
98 
96 
91 
90 
91 
86 
77 
68 
67 
63 
64 
71 
91 
120 
133 
126 
123 
126 
114 
95 
91 
103 
122 
126 
109 
98 
97 
120 
126 
107 
112 
119 
119 
127 
133 
126 
112 
102 
97 
86 
87 
79 
65 
64 
82 
98 
101 
138 
99 
70 
94 
98 
79 
94 
107 
100 
93 
81 
87 
120 
141 
132 
120 
99 
131 
195 
231 
230 
225 
219 
220 
220 
220 
220 
220 
220 
220 
220 
220 
220 
220 
221 
222 
222 
219 
216 
219 
222 
223 
212 
213 
202 
198 
180 
146 
143 
145 
119 
115 
129 
126 
102 
92 
94 
99 
101 
96 
88 
81 
79 
70 
74 
77 
92 
108 
127 
145 
143 
121 
112 
116 
121 
126 
132 
128 
126 
111 
80 
66 
101 
140 
137 
125 
130 
131 
127 
134 
144 
132 
108 
96 
96 
92 
90 
84 
74 
79 
101 
111 
103 
130 
91 
73 
103 
95 
67 
87 
108 
89 
88 
100 
112 
132 
149 
141 
134 
130 
149 
195 
225 
226 
223 
221 
220 
220 
220 
220 
220 
220 
220 
220 
223 
220 
219 
220 
221 
219 
218 
217 
223 
218 
223 
216 
216 
217 
226 
217 
191 
169 
152 
127 
122 
144 
131 
103 
92 
106 
110 
101 
95 
97 
90 
77 
85 
104 
119 
133 
128 
124 
139 
140 
130 
107 
112 
136 
148 
135 
107 
93 
116 
125 
128 
130 
117 
103 
120 
142 
136 
127 
128 
137 
134 
115 
103 
106 
98 
93 
93 
90 
86 
94 
101 
94 
95 
88 
89 
93 
70 
65 
100 
116 
86 
89 
117 
130 
141 
150 
139 
140 
144 
172 
210 
225 
219 
220 
224 
220 
220 
220 
220 
220 
220 
220 
220 
221 
220 
220 
220 
220 
219 
219 
219 
218 
217 
226 
222 
218 
219 
224 
223 
222 
200 
186 
166 
145 
162 
142 
122 
109 
123 
127 
121 
122 
130 
124 
107 
115 
143 
154 
151 
131 
125 
147 
151 
136 
107 
113 
144 
155 
135 
112 
111 
127 
137 
147 
131 
111 
114 
127 
136 
130 
131 
128 
130 
132 
122 
114 
119 
118 
113 
114 
107 
93 
93 
99 
93 
77 
80 
88 
76 
62 
91 
125 
122 
81 
85 
112 
124 
142 
151 
135 
152 
149 
181 
212 
224 
222 
221 
224 
220 
220 
220 
220 
220 
220 
220 
220 
217 
220 
222 
220 
220 
222 
222 
219 
218 
219 
222 
219 
221 
225 
220 
215 
220 
214 
218 
207 
169 
176 
154 
144 
143 
132 
133 
147 
151 
137 
125 
124 
139 
165 
162 
149 
140 
153 
177 
165 
152 
126 
123 
138 
150 
149 
140 
139 
115 
91 
105 
117 
128 
141 
130 
124 
125 
139 
138 
131 
130 
124 
121 
129 
115 
116 
120 
110 
100 
115 
127 
119 
99 
75 
75 
77 
78 
105 
117 
99 
79 
81 
99 
110 
144 
157 
141 
172 
169 
188 
205 
221 
226 
222 
221 
220 
220 
220 
221 
221 
220 
220 
220 
219 
219 
220 
220 
220 
220 
220 
220 
219 
218 
219 
220 
220 
220 
218 
216 
221 
219 
216 
210 
199 
186 
177 
174 
168 
141 
119 
130 
144 
130 
128 
152 
170 
164 
139 
135 
143 
157 
172 
155 
162 
159 
156 
154 
156 
156 
149 
140 
124 
132 
122 
117 
125 
134 
132 
118 
110 
119 
128 
135 
139 
133 
128 
129 
112 
120 
128 
123 
109 
117 
129 
113 
110 
96 
81 
92 
114 
109 
93 
92 
93 
100 
98 
119 
153 
162 
160 
172 
183 
208 
221 
226 
226 
222 
223 
220 
220 
220 
221 
221 
220 
220 
220 
219 
220 
220 
220 
220 
220 
220 
220 
220 
219 
219 
219 
220 
220 
219 
218 
225 
224 
223 
220 
213 
202 
194 
191 
179 
150 
124 
132 
150 
144 
138 
153 
169 
149 
127 
141 
149 
145 
153 
147 
172 
172 
172 
169 
163 
152 
139 
129 
149 
150 
146 
153 
155 
147 
147 
149 
123 
109 
109 
132 
150 
143 
130 
128 
120 
126 
134 
126 
112 
117 
128 
126 
118 
104 
99 
119 
129 
103 
85 
99 
100 
105 
142 
141 
162 
163 
155 
159 
192 
217 
227 
226 
223 
223 
227 
220 
220 
220 
221 
221 
220 
220 
220 
220 
220 
220 
220 
220 
220 
220 
220 
222 
220 
219 
218 
219 
220 
220 
220 
223 
222 
224 
225 
223 
216 
210 
208 
192 
174 
157 
165 
176 
156 
122 
107 
125 
124 
120 
134 
144 
148 
158 
151 
163 
163 
163 
163 
162 
154 
143 
133 
143 
143 
147 
167 
176 
166 
167 
176 
159 
129 
113 
129 
147 
146 
137 
135 
122 
117 
125 
135 
136 
131 
132 
141 
126 
119 
112 
117 
116 
91 
78 
92 
88 
94 
146 
155 
164 
157 
158 
166 
198 
222 
227 
221 
219 
223 
228 
220 
220 
220 
221 
221 
221 
220 
220 
220 
220 
220 
220 
220 
220 
220 
220 
221 
221 
219 
219 
219 
220 
221 
221 
217 
217 
219 
222 
224 
221 
218 
216 
211 
201 
189 
190 
194 
172 
130 
102 
92 
119 
137 
145 
147 
157 
167 
155 
156 
159 
160 
161 
167 
170 
160 
145 
143 
145 
145 
163 
178 
175 
169 
162 
162 
150 
142 
144 
152 
158 
159 
155 
137 
144 
140 
147 
146 
130 
125 
122 
119 
122 
122 
127 
129 
104 
81 
81 
93 
88 
104 
152 
166 
156 
170 
187 
204 
221 
223 
220 
221 
223 
228 
219 
220 
220 
220 
221 
221 
220 
220 
220 
220 
220 
220 
220 
220 
220 
220 
220 
220 
220 
220 
220 
221 
221 
221 
219 
218 
218 
221 
223 
222 
220 
220 
224 
219 
212 
209 
208 
193 
163 
139 
132 
151 
171 
178 
168 
158 
159 
156 
162 
172 
174 
168 
169 
173 
162 
142 
159 
162 
159 
170 
185 
185 
173 
157 
155 
164 
176 
177 
170 
168 
167 
161 
159 
186 
166 
148 
137 
128 
136 
122 
121 
118 
119 
134 
139 
115 
98 
109 
130 
106 
96 
146 
177 
168 
179 
200 
215 
223 
221 
224 
227 
225 
226 
219 
220 
220 
220 
221 
221 
221 
221 
220 
220 
220 
220 
220 
220 
220 
220 
218 
220 
221 
221 
221 
221 
221 
221 
223 
222 
221 
222 
223 
221 
220 
221 
219 
220 
222 
222 
219 
209 
190 
174 
195 
194 
196 
193 
182 
173 
172 
170 
169 
180 
178 
162 
157 
164 
163 
152 
164 
171 
171 
181 
191 
190 
185 
177 
176 
174 
183 
188 
176 
168 
168 
167 
159 
169 
137 
122 
122 
124 
143 
137 
131 
128 
121 
121 
123 
114 
120 
147 
147 
126 
136 
151 
182 
174 
187 
214 
224 
227 
223 
227 
229 
223 
221 
219 
219 
220 
220 
221 
221 
221 
221 
220 
220 
220 
220 
220 
220 
220 
219 
218 
219 
221 
221 
220 
220 
221 
222 
222 
221 
222 
223 
222 
220 
220 
221 
217 
215 
216 
217 
216 
217 
216 
212 
221 
217 
212 
201 
196 
202 
199 
189 
183 
182 
170 
152 
149 
162 
171 
171 
169 
181 
182 
182 
183 
181 
181 
177 
176 
157 
159 
174 
175 
175 
181 
183 
174 
161 
133 
121 
130 
138 
136 
126 
122 
130 
133 
135 
132 
117 
122 
148 
143 
136 
159 
166 
179 
176 
202 
222 
224 
229 
223 
224 
225 
221 
221 
219 
219 
220 
220 
221 
221 
221 
221 
220 
220 
220 
220 
220 
220 
219 
219 
218 
219 
220 
220 
220 
220 
221 
222 
219 
219 
222 
224 
223 
221 
222 
224 
227 
222 
223 
225 
222 
221 
222 
221 
224 
223 
226 
223 
220 
221 
208 
193 
194 
181 
161 
147 
148 
158 
163 
163 
172 
190 
188 
177 
173 
176 
177 
168 
153 
135 
142 
166 
178 
184 
184 
175 
164 
163 
154 
123 
125 
144 
114 
81 
109 
112 
127 
152 
148 
111 
105 
138 
151 
145 
147 
180 
181 
183 
216 
216 
220 
229 
224 
221 
221 
222 
226 
221 
221 
221 
221 
221 
221 
221 
221 
220 
220 
220 
220 
220 
220 
220 
220 
219 
219 
219 
220 
220 
220 
221 
221 
222 
222 
222 
222 
221 
221 
221 
221 
221 
221 
221 
221 
221 
221 
221 
221 
221 
223 
225 
228 
229 
223 
214 
207 
203 
184 
165 
162 
172 
180 
176 
169 
179 
181 
184 
185 
181 
168 
149 
135 
142 
148 
167 
189 
196 
184 
171 
167 
164 
156 
150 
155 
147 
168 
136 
94 
118 
126 
129 
168 
166 
128 
124 
166 
167 
121 
127 
185 
207 
214 
218 
223 
226 
224 
222 
221 
223 
224 
223 
221 
221 
221 
221 
221 
221 
221 
221 
220 
220 
220 
220 
220 
220 
220 
220 
219 
219 
220 
220 
220 
220 
221 
221 
222 
222 
222 
221 
221 
221 
221 
221 
221 
221 
221 
221 
221 
221 
221 
221 
221 
221 
221 
223 
225 
224 
222 
220 
218 
212 
210 
216 
221 
213 
192 
173 
172 
178 
182 
178 
168 
157 
147 
140 
151 
160 
175 
185 
183 
178 
184 
195 
195 
184 
178 
179 
166 
186 
175 
157 
157 
164 
172 
181 
166 
130 
143 
188 
177 
148 
150 
187 
205 
226 
228 
216 
227 
225 
223 
222 
223 
224 
223 
221 
221 
221 
221 
221 
221 
221 
221 
220 
220 
220 
220 
220 
220 
220 
220 
220 
220 
220 
220 
220 
221 
221 
221 
222 
222 
222 
221 
221 
221 
221 
221 
221 
221 
221 
221 
221 
221 
221 
221 
221 
221 
220 
221 
222 
224 
227 
228 
227 
223 
220 
223 
225 
220 
207 
195 
187 
196 
200 
194 
186 
181 
176 
171 
164 
171 
180 
183 
181 
183 
193 
203 
196 
196 
197 
192 
173 
194 
198 
197 
191 
184 
189 
186 
191 
169 
174 
200 
185 
157 
161 
201 
216 
227 
226 
219 
227 
225 
224 
223 
224 
224 
223 
221 
221 
221 
221 
221 
221 
221 
221 
220 
220 
220 
220 
220 
220 
220 
220 
220 
220 
220 
220 
221 
221 
221 
221 
221 
221 
221 
221 
221 
221 
221 
221 
221 
221 
221 
221 
221 
221 
221 
221 
221 
222 
223 
223 
223 
223 
224 
226 
221 
219 
218 
219 
221 
221 
217 
214 
213 
218 
219 
215 
214 
214 
207 
199 
194 
193 
193 
195 
198 
197 
186 
174 
172 
190 
203 
194 
178 
199 
204 
198 
201 
190 
190 
185 
193 
160 
151 
189 
198 
170 
178 
221 
228 
223 
217 
220 
226 
224 
223 
223 
223 
224 
223 
221 
221 
221 
221 
221 
221 
221 
221 
220 
220 
220 
220 
220 
220 
220 
220 
220 
221 
221 
221 
221 
221 
221 
221 
221 
221 
221 
221 
221 
221 
221 
221 
221 
221 
221 
221 
221 
221 
221 
221 
221 
223 
225 
225 
223 
222 
221 
222 
222 
222 
222 
222 
223 
223 
223 
222 
228 
229 
227 
224 
225 
227 
222 
214 
212 
210 
209 
213 
220 
218 
199 
178 
179 
196 
210 
205 
196 
212 
211 
203 
205 
209 
211 
197 
155 
71 
67 
167 
220 
208 
211 
230 
226 
225 
221 
218 
223 
223 
222 
222 
223 
223 
223 
221 
221 
221 
221 
221 
221 
221 
221 
221 
221 
221 
221 
221 
221 
221 
221 
221 
221 
221 
221 
221 
221 
221 
221 
221 
221 
221 
221 
221 
221 
221 
221 
221 
221 
221 
221 
221 
221 
221 
221 
220 
222 
223 
223 
222 
222 
223 
224 
224 
223 
221 
219 
218 
219 
222 
224 
226 
227 
226 
224 
223 
225 
227 
227 
215 
219 
222 
223 
225 
226 
221 
214 
214 
213 
218 
215 
210 
214 
211 
212 
213 
219 
223 
214 
151 
36 
36 
159 
231 
226 
223 
227 
219 
225 
227 
226 
222 
222 
222 
222 
223 
223 
223 
221 
221 
221 
221 
221 
221 
221 
221 
221 
221 
221 
221 
221 
221 
221 
221 
221 
221 
221 
221 
221 
221 
221 
221 
221 
221 
221 
221 
221 
221 
221 
221 
221 
221 
221 
221 
221 
221 
221 
221 
220 
221 
222 
222 
223 
223 
224 
225 
220 
222 
224 
225 
225 
223 
221 
220 
218 
218 
219 
220 
219 
220 
223 
228 
224 
228 
229 
225 
220 
220 
222 
223 
229 
221 
222 
218 
214 
213 
211 
217 
219 
217 
219 
221 
201 
116 
114 
183 
227 
220 
218 
227 
220 
222 
224 
229 
222 
222 
223 
223 
223 
223 
223 
221 
221 
221 
221 
221 
221 
221 
221 
221 
221 
221 
221 
221 
221 
221 
221 
221 
221 
221 
221 
221 
221 
221 
221 
221 
221 
221 
221 
221 
221 
221 
221 
221 
221 
221 
221 
221 
221 
221 
221 
221 
221 
223 
224 
225 
224 
223 
222 
226 
225 
222 
221 
220 
221 
222 
223 
224 
220 
221 
225 
225 
222 
221 
223 
220 
221 
222 
222 
222 
224 
224 
223 
220 
222 
227 
221 
220 
222 
221 
224 
223 
221 
222 
221 
240 
202 
208 
218 
222 
221 
222 
230 
224 
224 
218 
216 
223 
223 
224 
224 
223 
223 
223 
221 
221 
221 
221 
221 
221 
221 
221 
221 
221 
221 
221 
221 
221 
221 
221 
222 
222 
222 
221 
221 
221 
221 
221 
220 
221 
221 
221 
221 
221 
221 
222 
221 
221 
221 
221 
221 
220 
220 
220 
221 
222 
222 
222 
222 
223 
223 
223 
224 
223 
223 
222 
222 
223 
223 
224 
222 
222 
223 
224 
224 
223 
222 
222 
223 
223 
223 
223 
223 
223 
223 
223 
224 
223 
223 
223 
223 
223 
223 
223 
220 
224 
228 
226 
223 
222 
225 
229 
222 
222 
222 
222 
221 
221 
221 
221 
223 
223 
223 
223 
223 
223 
223 
221 
221 
221 
221 
221 
221 
221 
221 
221 
221 
221 
221 
221 
221 
221 
221 
222 
222 
221 
221 
221 
221 
221 
221 
221 
221 
222 
221 
221 
221 
221 
222 
221 
221 
221 
221 
221 
220 
220 
220 
221 
221 
221 
222 
222 
223 
223 
223 
223 
223 
223 
223 
223 
223 
223 
223 
222 
222 
223 
223 
223 
223 
222 
222 
223 
223 
223 
223 
223 
223 
223 
223 
224 
223 
223 
223 
223 
223 
223 
224 
226 
227 
227 
225 
222 
220 
221 
222 
224 
224 
224 
223 
223 
223 
223 
222 
223 
223 
223 
223 
223 
223 
223 
221 
221 
221 
221 
221 
221 
221 
221 
221 
221 
221 
221 
221 
221 
221 
221 
221 
221 
221 
220 
220 
220 
220 
221 
221 
221 
222 
221 
221 
221 
221 
222 
221 
221 
221 
221 
221 
221 
221 
221 
220 
220 
221 
221 
222 
223 
223 
223 
223 
223 
223 
223 
223 
223 
223 
223 
222 
222 
223 
223 
223 
223 
222 
222 
223 
223 
223 
223 
223 
223 
223 
223 
223 
223 
223 
223 
223 
223 
223 
224 
225 
224 
223 
223 
223 
223 
222 
220 
224 
224 
224 
224 
224 
223 
223 
223 
223 
223 
223 
223 
223 
223 
223 
221 
221 
221 
221 
221 
221 
221 
221 
221 
221 
221 
221 
221 
221 
221 
221 
221 
221 
220 
220 
220 
220 
220 
220 
221 
222 
222 
222 
221 
221 
221 
221 
221 
221 
221 
221 
221 
221 
221 
221 
220 
220 
221 
221 
222 
223 
223 
223 
222 
223 
223 
224 
224 
223 
223 
222 
222 
223 
223 
223 
223 
223 
223 
222 
223 
223 
223 
223 
223 
223 
223 
223 
223 
223 
223 
223 
223 
223 
224 
224 
223 
222 
221 
222 
224 
225 
224 
223 
223 
223 
223 
223 
223 
222 
222 
222 
223 
223 
223 
223 
223 
223 
223 
221 
221 
221 
221 
221 
221 
221 
221 
221 
221 
221 
221 
221 
221 
221 
221 
221 
220 
220 
220 
220 
220 
220 
220 
221 
222 
222 
222 
221 
221 
221 
221 
221 
221 
221 
221 
221 
221 
221 
221 
220 
220 
221 
221 
222 
223 
223 
223 
222 
223 
223 
224 
224 
223 
223 
222 
223 
223 
223 
223 
223 
223 
223 
223 
223 
223 
223 
223 
223 
223 
223 
223 
223 
223 
223 
223 
223 
223 
224 
224 
224 
224 
224 
224 
223 
223 
223 
222 
222 
222 
222 
222 
222 
222 
222 
222 
223 
223 
223 
223 
223 
223 
223 
221 
221 
221 
221 
221 
221 
221 
221 
221 
221 
221 
221 
221 
221 
221 
221 
221 
221 
220 
220 
220 
220 
220 
220 
222 
222 
222 
222 
221 
221 
221 
221 
221 
221 
221 
221 
221 
221 
221 
221 
221 
221 
222 
222 
222 
223 
223 
223 
223 
223 
223 
223 
223 
223 
223 
223 
223 
223 
223 
223 
223 
223 
223 
223 
223 
223 
223 
223 
223 
223 
223 
223 
223 
223 
223 
223 
223 
223 
224 
224 
224 
225 
225 
225 
223 
222 
223 
224 
223 
223 
223 
223 
223 
223 
223 
223 
223 
223 
223 
223 
223 
223 
223 
221 
221 
221 
221 
221 
221 
221 
221 
221 
221 
221 
221 
221 
221 
221 
221 
221 
221 
221 
220 
220 
220 
220 
221 
222 
222 
223 
222 
221 
221 
221 
221 
221 
221 
221 
221 
221 
222 
222 
222 
222 
222 
222 
223 
223 
223 
223 
223 
223 
223 
223 
223 
223 
223 
223 
223 
223 
223 
223 
223 
223 
223 
223 
223 
223 
223 
223 
223 
223 
223 
223 
223 
223 
223 
223 
223 
223 
224 
224 
224 
223 
224 
224 
224 
224 
224 
224 
225 
224 
224 
224 
224 
224 
224 
224 
224 
223 
223 
223 
223 
223 
223 
223 
221 
221 
221 
221 
221 
221 
221 
221 
221 
221 
221 
221 
221 
221 
221 
221 
221 
221 
221 
221 
220 
220 
221 
221 
222 
223 
223 
222 
221 
221 
221 
221 
221 
221 
221 
221 
221 
222 
222 
222 
223 
223 
223 
223 
223 
223 
223 
223 
224 
223 
223 
222 
222 
223 
223 
224 
224 
223 
223 
223 
223 
223 
223 
224 
223 
223 
223 
223 
223 
223 
223 
223 
223 
223 
223 
223 
223 
224 
224 
224 
226 
225 
224 
224 
224 
223 
222 
222 
223 
223 
223 
223 
223 
223 
223 
223 
223 
223 
223 
223 
223 
223 
223 
221 
221 
221 
221 
221 
221 
221 
221 
221 
221 
221 
221 
221 
221 
221 
221 
221 
221 
221 
221 
221 
221 
222 
222 
222 
223 
223 
223 
222 
222 
222 
222 
223 
223 
223 
223 
223 
223 
223 
223 
223 
223 
223 
223 
223 
223 
223 
223 
223 
223 
223 
223 
223 
223 
223 
223 
223 
223 
223 
223 
223 
223 
223 
223 
223 
223 
223 
223 
223 
223 
223 
223 
223 
223 
223 
223 
223 
223 
224 
224 
224 
224 
224 
224 
224 
224 
224 
223 
223 
223 
223 
223 
223 
223 
223 
223 
223 
223 
223 
223 
223 
223 
223 
221 
221 
221 
221 
221 
221 
221 
221 
221 
221 
221 
221 
221 
221 
221 
221 
221 
221 
221 
221 
221 
221 
222 
222 
222 
223 
223 
223 
223 
222 
222 
222 
223 
223 
223 
223 
223 
223 
223 
223 
223 
223 
223 
223 
223 
223 
223 
223 
223 
223 
223 
223 
223 
223 
223 
223 
223 
223 
223 
223 
223 
223 
223 
223 
223 
223 
223 
223 
223 
223 
223 
223 
223 
223 
223 
223 
223 
223 
224 
224 
224 
224 
224 
224 
224 
224 
224 
223 
223 
223 
223 
223 
223 
223 
223 
223 
223 
223 
223 
223 
223 
223 
223 
221 
221 
221 
221 
221 
221 
221 
221 
221 
221 
221 
221 
221 
221 
221 
221 
221 
221 
221 
221 
221 
221 
222 
222 
222 
223 
223 
223 
223 
222 
222 
223 
223 
223 
223 
223 
223 
223 
223 
223 
223 
223 
223 
223 
223 
223 
223 
223 
223 
223 
223 
223 
223 
223 
223 
223 
223 
223 
223 
223 
223 
223 
223 
223 
223 
223 
223 
223 
223 
223 
223 
223 
223 
223 
223 
223 
223 
223 
224 
224 
224 
224 
224 
224 
224 
224 
224 
223 
223 
223 
223 
223 
223 
223 
223 
223 
223 
223 
223 
223 
223 
223 
223 
