P2
# Created by MsrVolt
109 77
255
223 
223 
223 
223 
223 
223 
223 
223 
223 
223 
223 
223 
223 
223 
223 
223 
223 
223 
224 
224 
224 
224 
224 
224 
224 
224 
224 
224 
224 
224 
224 
224 
224 
224 
224 
224 
224 
224 
224 
224 
224 
224 
224 
224 
223 
223 
223 
223 
223 
223 
223 
223 
223 
223 
223 
223 
223 
223 
223 
223 
223 
223 
223 
223 
223 
223 
223 
223 
222 
222 
223 
224 
223 
223 
223 
223 
223 
223 
223 
223 
221 
222 
222 
223 
223 
224 
224 
224 
223 
223 
223 
223 
223 
223 
223 
223 
223 
223 
223 
223 
223 
223 
223 
223 
223 
223 
223 
223 
223 
223 
223 
223 
223 
223 
223 
223 
223 
223 
223 
223 
223 
223 
223 
223 
223 
223 
223 
224 
224 
224 
224 
224 
224 
224 
224 
224 
224 
224 
224 
224 
224 
224 
224 
224 
224 
224 
224 
224 
224 
224 
224 
224 
224 
223 
223 
223 
223 
223 
223 
223 
223 
223 
223 
223 
223 
223 
223 
223 
223 
223 
223 
223 
223 
223 
223 
223 
223 
222 
222 
223 
224 
223 
223 
223 
223 
223 
223 
222 
222 
221 
222 
222 
223 
223 
224 
224 
224 
223 
223 
223 
223 
223 
223 
223 
223 
223 
223 
223 
223 
223 
223 
223 
223 
223 
223 
223 
223 
223 
223 
223 
223 
223 
223 
223 
223 
223 
223 
223 
223 
223 
223 
223 
223 
223 
223 
223 
224 
224 
224 
224 
224 
224 
224 
224 
224 
224 
224 
224 
224 
224 
224 
224 
224 
224 
224 
224 
224 
224 
224 
224 
224 
224 
223 
223 
223 
223 
223 
223 
223 
223 
223 
223 
223 
223 
223 
223 
223 
223 
223 
223 
223 
223 
223 
223 
223 
223 
222 
222 
223 
224 
223 
223 
223 
224 
223 
223 
222 
222 
222 
222 
222 
223 
223 
224 
224 
224 
223 
223 
223 
223 
223 
223 
223 
223 
223 
223 
223 
223 
223 
223 
223 
223 
223 
223 
223 
223 
223 
223 
223 
223 
223 
223 
223 
223 
223 
223 
223 
223 
223 
223 
223 
223 
223 
223 
223 
224 
224 
224 
224 
224 
224 
224 
224 
224 
224 
224 
224 
224 
224 
224 
224 
224 
224 
224 
224 
224 
224 
224 
224 
224 
224 
223 
223 
223 
223 
223 
223 
223 
223 
223 
223 
223 
223 
223 
223 
223 
223 
223 
223 
223 
223 
223 
223 
223 
223 
222 
222 
223 
224 
222 
223 
223 
224 
224 
223 
222 
222 
222 
222 
223 
223 
223 
223 
223 
223 
223 
223 
223 
223 
223 
223 
223 
223 
223 
223 
223 
223 
223 
223 
223 
223 
223 
223 
223 
223 
224 
223 
223 
223 
223 
223 
223 
223 
223 
223 
223 
223 
223 
223 
223 
223 
223 
223 
223 
224 
224 
224 
224 
224 
224 
224 
224 
224 
224 
224 
224 
224 
224 
224 
224 
224 
224 
224 
224 
224 
224 
224 
224 
224 
224 
223 
223 
223 
223 
223 
223 
223 
223 
223 
223 
223 
223 
223 
223 
223 
223 
223 
223 
223 
223 
223 
223 
223 
223 
222 
222 
223 
224 
222 
222 
223 
223 
223 
223 
223 
223 
222 
222 
223 
223 
223 
223 
223 
223 
223 
223 
223 
223 
223 
223 
223 
223 
223 
223 
223 
223 
223 
223 
223 
223 
223 
223 
223 
224 
224 
223 
223 
223 
223 
223 
223 
223 
223 
223 
223 
223 
223 
223 
223 
223 
223 
223 
223 
224 
224 
224 
224 
224 
224 
224 
224 
224 
224 
224 
224 
224 
224 
224 
224 
224 
224 
224 
224 
224 
224 
224 
224 
224 
224 
223 
223 
223 
223 
223 
223 
223 
223 
223 
223 
223 
223 
223 
223 
223 
223 
223 
223 
223 
223 
223 
223 
223 
223 
222 
222 
223 
224 
223 
223 
223 
223 
223 
223 
223 
223 
222 
222 
223 
223 
223 
223 
223 
223 
223 
223 
223 
223 
223 
223 
223 
223 
223 
223 
223 
223 
223 
223 
223 
223 
223 
223 
223 
224 
224 
223 
223 
223 
223 
223 
223 
223 
223 
223 
223 
223 
223 
223 
223 
223 
223 
223 
223 
224 
224 
224 
224 
224 
224 
224 
224 
224 
224 
224 
224 
224 
224 
224 
224 
224 
224 
224 
224 
224 
224 
224 
224 
224 
224 
223 
223 
223 
223 
223 
223 
223 
223 
223 
223 
223 
223 
223 
223 
223 
223 
223 
223 
223 
223 
223 
223 
223 
223 
222 
222 
223 
224 
225 
225 
223 
222 
222 
222 
222 
222 
222 
222 
223 
223 
223 
223 
223 
223 
223 
223 
223 
223 
223 
223 
223 
223 
223 
223 
223 
223 
223 
223 
223 
223 
223 
223 
223 
224 
225 
223 
223 
223 
223 
223 
223 
223 
223 
223 
223 
223 
223 
223 
223 
223 
223 
223 
223 
224 
224 
224 
224 
224 
224 
224 
224 
224 
224 
224 
224 
224 
224 
224 
224 
224 
224 
224 
224 
224 
224 
224 
224 
224 
224 
223 
223 
223 
223 
223 
223 
223 
223 
223 
223 
223 
223 
223 
223 
223 
223 
223 
223 
223 
223 
223 
223 
223 
223 
222 
222 
223 
224 
227 
226 
224 
222 
221 
221 
221 
221 
222 
223 
223 
223 
223 
223 
223 
223 
223 
223 
223 
223 
223 
223 
223 
223 
223 
223 
223 
223 
223 
223 
223 
223 
223 
223 
223 
224 
225 
223 
223 
223 
223 
223 
223 
223 
223 
222 
223 
223 
224 
224 
224 
223 
223 
223 
223 
224 
224 
224 
224 
224 
224 
224 
224 
224 
224 
223 
223 
223 
223 
224 
224 
224 
224 
224 
224 
224 
224 
226 
221 
222 
223 
223 
225 
225 
220 
225 
223 
220 
220 
222 
224 
224 
222 
223 
225 
221 
223 
225 
223 
223 
219 
223 
222 
223 
225 
226 
225 
224 
224 
227 
225 
222 
222 
228 
226 
219 
224 
220 
225 
221 
220 
224 
224 
223 
221 
224 
221 
224 
221 
221 
226 
224 
223 
222 
223 
223 
224 
224 
223 
223 
222 
223 
224 
224 
225 
226 
223 
223 
223 
223 
223 
223 
223 
223 
223 
223 
223 
223 
223 
223 
223 
223 
223 
224 
224 
224 
224 
224 
224 
224 
222 
223 
223 
224 
224 
224 
223 
223 
224 
224 
224 
224 
224 
224 
224 
224 
226 
223 
223 
224 
222 
224 
225 
223 
223 
223 
222 
222 
223 
224 
223 
221 
220 
227 
222 
222 
223 
222 
226 
226 
225 
223 
224 
228 
229 
226 
222 
221 
218 
221 
220 
216 
221 
225 
222 
222 
224 
223 
220 
224 
225 
218 
220 
228 
224 
221 
224 
224 
224 
224 
221 
224 
223 
223 
223 
223 
223 
223 
223 
223 
223 
223 
224 
225 
225 
223 
223 
223 
223 
223 
223 
223 
223 
223 
223 
223 
223 
223 
223 
223 
223 
223 
224 
224 
224 
224 
224 
224 
224 
222 
222 
223 
224 
225 
225 
224 
224 
223 
224 
224 
224 
224 
224 
224 
224 
222 
220 
221 
222 
220 
222 
226 
225 
224 
225 
225 
222 
221 
223 
223 
222 
220 
228 
222 
221 
224 
220 
221 
224 
223 
220 
221 
226 
227 
224 
222 
223 
227 
230 
229 
225 
223 
224 
223 
220 
228 
228 
227 
228 
227 
220 
220 
231 
221 
223 
226 
222 
223 
225 
220 
224 
223 
223 
223 
223 
223 
223 
223 
223 
222 
223 
224 
225 
225 
223 
223 
223 
223 
223 
223 
223 
223 
223 
223 
222 
222 
222 
223 
224 
224 
224 
224 
224 
224 
224 
224 
224 
224 
224 
224 
224 
224 
224 
225 
225 
226 
223 
223 
224 
224 
225 
224 
224 
224 
225 
223 
225 
226 
224 
226 
228 
227 
225 
227 
225 
220 
218 
221 
223 
224 
223 
226 
220 
225 
232 
222 
219 
222 
223 
221 
223 
226 
224 
219 
217 
220 
223 
226 
222 
219 
218 
221 
227 
225 
220 
228 
231 
224 
223 
224 
221 
223 
220 
227 
228 
218 
220 
228 
223 
222 
224 
224 
223 
223 
222 
223 
223 
224 
223 
223 
224 
225 
225 
223 
223 
223 
223 
223 
223 
223 
223 
222 
222 
222 
222 
222 
223 
224 
224 
224 
224 
224 
224 
224 
224 
224 
224 
225 
224 
223 
223 
223 
224 
225 
225 
223 
223 
224 
225 
225 
225 
224 
224 
226 
223 
225 
225 
223 
224 
224 
222 
224 
225 
223 
218 
218 
222 
224 
223 
223 
224 
221 
230 
231 
219 
220 
228 
225 
226 
228 
225 
216 
206 
202 
204 
209 
216 
197 
177 
176 
194 
214 
215 
207 
213 
220 
215 
218 
223 
216 
217 
226 
226 
226 
220 
221 
226 
223 
224 
224 
224 
223 
223 
223 
223 
223 
224 
223 
224 
224 
225 
226 
223 
223 
223 
223 
223 
223 
223 
223 
222 
222 
222 
222 
223 
223 
223 
224 
224 
224 
224 
224 
224 
224 
224 
223 
224 
223 
222 
221 
221 
222 
223 
224 
223 
223 
224 
225 
225 
225 
224 
224 
222 
221 
224 
225 
222 
223 
225 
224 
220 
221 
218 
214 
216 
221 
220 
215 
214 
216 
217 
218 
207 
197 
206 
215 
213 
214 
212 
203 
193 
188 
188 
191 
197 
214 
175 
128 
127 
162 
198 
201 
202 
198 
206 
207 
214 
219 
212 
221 
229 
218 
223 
227 
224 
222 
221 
227 
224 
224 
224 
223 
223 
223 
223 
223 
223 
223 
224 
225 
225 
223 
223 
223 
223 
223 
223 
223 
223 
223 
223 
223 
223 
223 
222 
222 
222 
224 
224 
224 
224 
224 
224 
224 
223 
222 
222 
223 
223 
223 
224 
224 
224 
222 
223 
224 
225 
226 
225 
224 
224 
225 
225 
229 
227 
220 
219 
225 
227 
212 
209 
202 
196 
199 
205 
202 
195 
195 
198 
198 
190 
171 
168 
179 
175 
172 
181 
185 
182 
178 
179 
178 
174 
179 
203 
159 
105 
105 
142 
187 
204 
202 
194 
197 
192 
199 
208 
205 
218 
214 
207 
222 
229 
220 
221 
225 
225 
224 
224 
224 
224 
224 
223 
223 
223 
222 
222 
223 
224 
224 
223 
223 
223 
223 
223 
223 
223 
223 
224 
224 
224 
224 
223 
222 
221 
220 
224 
224 
224 
224 
224 
224 
223 
223 
221 
222 
224 
226 
226 
226 
225 
225 
222 
223 
224 
226 
226 
225 
224 
224 
222 
223 
225 
218 
204 
200 
206 
211 
203 
196 
183 
173 
176 
182 
181 
173 
176 
179 
177 
165 
148 
153 
161 
141 
131 
151 
171 
179 
183 
181 
169 
153 
173 
196 
152 
105 
101 
122 
165 
195 
198 
193 
191 
173 
177 
194 
194 
203 
194 
200 
224 
225 
212 
224 
232 
219 
224 
224 
224 
224 
224 
223 
223 
222 
221 
221 
222 
223 
223 
222 
222 
223 
223 
224 
224 
224 
224 
223 
223 
223 
224 
224 
223 
222 
221 
221 
227 
221 
220 
229 
219 
225 
225 
228 
226 
225 
226 
226 
222 
225 
227 
229 
224 
219 
230 
224 
221 
226 
213 
219 
205 
213 
202 
180 
187 
193 
192 
173 
165 
148 
131 
152 
164 
160 
142 
157 
165 
147 
139 
144 
147 
150 
145 
119 
137 
158 
165 
171 
176 
164 
150 
155 
175 
140 
107 
98 
98 
148 
172 
163 
176 
170 
166 
161 
187 
188 
171 
179 
189 
221 
218 
216 
209 
222 
219 
230 
227 
222 
227 
223 
224 
222 
226 
223 
223 
223 
223 
223 
223 
224 
224 
224 
222 
222 
223 
223 
223 
223 
223 
223 
224 
225 
226 
227 
224 
223 
219 
216 
226 
230 
231 
204 
214 
228 
234 
226 
222 
225 
214 
222 
219 
225 
221 
217 
217 
219 
213 
194 
206 
174 
182 
169 
172 
169 
176 
184 
172 
169 
138 
115 
129 
130 
140 
149 
145 
142 
133 
138 
147 
136 
133 
132 
126 
154 
159 
145 
158 
177 
161 
134 
115 
146 
148 
129 
124 
120 
145 
161 
147 
136 
161 
153 
162 
180 
166 
171 
169 
193 
218 
208 
213 
191 
199 
209 
220 
222 
222 
224 
223 
224 
223 
222 
223 
223 
223 
223 
223 
223 
224 
224 
223 
222 
222 
222 
223 
223 
224 
224 
223 
223 
223 
224 
225 
223 
220 
223 
220 
225 
229 
211 
156 
182 
227 
212 
215 
218 
210 
208 
202 
204 
209 
208 
196 
199 
204 
192 
181 
179 
150 
169 
165 
166 
150 
151 
176 
177 
158 
126 
118 
131 
129 
145 
162 
156 
131 
117 
127 
146 
130 
134 
140 
130 
167 
167 
144 
153 
164 
134 
95 
115 
137 
158 
153 
147 
131 
141 
162 
148 
134 
144 
149 
188 
187 
193 
191 
161 
183 
189 
218 
178 
171 
198 
192 
211 
217 
222 
221 
223 
225 
225 
221 
223 
223 
223 
223 
223 
222 
222 
223 
223 
224 
224 
223 
223 
223 
224 
224 
223 
221 
220 
219 
219 
224 
221 
224 
220 
223 
218 
198 
157 
158 
215 
203 
205 
210 
189 
188 
181 
192 
183 
191 
183 
183 
182 
179 
183 
166 
141 
165 
175 
163 
158 
156 
187 
162 
136 
126 
132 
141 
141 
140 
144 
175 
141 
127 
130 
149 
132 
133 
135 
125 
149 
151 
140 
140 
146 
134 
107 
120 
139 
154 
145 
135 
117 
125 
142 
141 
152 
141 
149 
200 
184 
202 
192 
176 
171 
151 
223 
190 
163 
185 
183 
207 
213 
220 
221 
224 
225 
226 
223 
223 
223 
223 
223 
223 
223 
222 
221 
223 
225 
226 
223 
220 
223 
223 
222 
222 
222 
223 
223 
224 
228 
223 
217 
211 
216 
199 
191 
199 
157 
185 
209 
186 
184 
173 
150 
169 
183 
170 
189 
185 
177 
170 
175 
181 
163 
134 
157 
173 
168 
174 
165 
168 
162 
158 
147 
121 
122 
134 
124 
138 
138 
123 
129 
130 
142 
124 
118 
109 
120 
121 
127 
133 
128 
139 
151 
131 
103 
136 
145 
137 
130 
110 
111 
107 
105 
137 
146 
159 
199 
176 
181 
186 
169 
194 
135 
212 
207 
145 
225 
129 
204 
206 
213 
222 
227 
225 
223 
223 
223 
223 
223 
223 
223 
224 
223 
222 
223 
225 
224 
221 
218 
224 
222 
220 
222 
225 
228 
228 
228 
221 
216 
211 
208 
208 
164 
148 
184 
173 
167 
185 
166 
159 
164 
152 
173 
169 
170 
191 
182 
175 
167 
174 
169 
142 
118 
136 
139 
157 
170 
178 
162 
148 
171 
145 
97 
106 
118 
97 
123 
110 
109 
124 
120 
121 
112 
111 
105 
125 
112 
112 
122 
117 
137 
159 
131 
101 
127 
135 
143 
148 
114 
103 
103 
101 
126 
137 
178 
200 
165 
183 
181 
168 
195 
150 
196 
234 
156 
175 
169 
197 
198 
201 
219 
224 
228 
220 
220 
223 
223 
223 
223 
223 
224 
224 
224 
223 
222 
222 
221 
221 
225 
222 
221 
223 
225 
222 
216 
210 
195 
188 
192 
200 
200 
143 
112 
148 
186 
170 
172 
176 
150 
164 
166 
173 
152 
167 
174 
162 
173 
166 
173 
168 
178 
164 
148 
121 
135 
148 
166 
158 
143 
165 
143 
133 
139 
123 
99 
117 
143 
131 
135 
127 
120 
120 
121 
122 
134 
119 
106 
111 
112 
135 
160 
133 
104 
114 
117 
123 
142 
114 
95 
110 
132 
120 
128 
178 
184 
147 
187 
166 
141 
185 
157 
191 
229 
169 
172 
187 
193 
194 
188 
209 
213 
231 
222 
221 
224 
224 
224 
224 
224 
222 
224 
225 
223 
220 
220 
222 
225 
226 
224 
224 
224 
222 
212 
196 
183 
169 
156 
164 
182 
193 
149 
125 
158 
180 
164 
192 
196 
137 
159 
140 
154 
143 
161 
152 
141 
172 
166 
175 
181 
189 
199 
167 
145 
157 
171 
173 
168 
166 
155 
135 
163 
146 
108 
112 
133 
157 
134 
134 
137 
136 
140 
135 
135 
136 
131 
121 
128 
129 
135 
145 
118 
95 
110 
109 
89 
117 
120 
98 
108 
141 
90 
135 
165 
156 
148 
187 
171 
101 
156 
131 
165 
232 
160 
166 
158 
193 
194 
180 
199 
202 
233 
226 
226 
225 
225 
225 
225 
225 
222 
223 
223 
222 
223 
224 
226 
227 
230 
222 
220 
230 
216 
194 
178 
178 
162 
121 
122 
170 
186 
143 
146 
164 
153 
177 
170 
144 
131 
141 
117 
138 
145 
147 
143 
144 
164 
153 
177 
196 
187 
195 
181 
174 
177 
174 
167 
155 
162 
157 
116 
142 
119 
90 
124 
117 
119 
108 
118 
111 
134 
145 
151 
136 
132 
136 
134 
125 
122 
109 
149 
114 
100 
110 
107 
91 
102 
116 
109 
107 
111 
97 
147 
163 
129 
148 
162 
159 
95 
132 
139 
138 
231 
173 
115 
126 
167 
198 
168 
178 
179 
238 
220 
224 
224 
224 
224 
224 
224 
224 
224 
224 
222 
222 
222 
224 
224 
219 
223 
219 
226 
188 
172 
165 
169 
169 
132 
135 
180 
187 
128 
132 
150 
125 
141 
148 
126 
138 
135 
130 
139 
146 
159 
161 
170 
141 
127 
178 
185 
162 
169 
184 
166 
168 
184 
157 
162 
171 
133 
106 
141 
144 
103 
108 
118 
94 
93 
114 
120 
138 
145 
138 
115 
119 
125 
135 
131 
119 
110 
153 
134 
99 
110 
119 
102 
93 
100 
119 
102 
99 
107 
167 
131 
127 
130 
149 
157 
100 
119 
146 
133 
187 
183 
124 
85 
135 
200 
167 
173 
131 
242 
220 
222 
224 
224 
224 
224 
224 
223 
222 
222 
221 
221 
220 
221 
222 
224 
229 
224 
217 
172 
160 
151 
149 
168 
143 
135 
162 
159 
107 
119 
130 
139 
158 
146 
134 
142 
146 
140 
135 
152 
160 
176 
148 
100 
96 
152 
175 
155 
158 
174 
158 
157 
179 
157 
182 
162 
127 
130 
130 
124 
99 
91 
98 
95 
103 
141 
160 
146 
120 
100 
91 
97 
96 
121 
141 
136 
135 
158 
137 
99 
104 
133 
132 
108 
107 
144 
120 
91 
93 
124 
157 
120 
141 
122 
175 
118 
112 
153 
133 
182 
187 
109 
83 
116 
191 
168 
167 
135 
214 
238 
221 
224 
224 
224 
224 
224 
222 
222 
222 
223 
222 
222 
223 
225 
227 
227 
224 
202 
176 
165 
129 
122 
151 
142 
117 
125 
117 
100 
117 
114 
122 
156 
131 
127 
140 
146 
133 
115 
151 
160 
163 
111 
102 
82 
124 
153 
141 
171 
174 
170 
168 
177 
164 
168 
142 
128 
122 
96 
115 
127 
97 
90 
103 
105 
129 
140 
109 
94 
97 
114 
86 
72 
95 
130 
138 
154 
165 
143 
103 
109 
146 
147 
121 
135 
169 
150 
102 
90 
104 
148 
105 
151 
133 
147 
146 
98 
171 
122 
204 
164 
93 
89 
107 
164 
173 
164 
154 
214 
229 
227 
224 
224 
224 
224 
224 
225 
224 
224 
226 
226 
225 
226 
228 
225 
222 
218 
189 
169 
168 
105 
115 
140 
135 
97 
101 
92 
103 
113 
103 
124 
148 
119 
109 
145 
138 
146 
136 
166 
166 
121 
108 
137 
92 
131 
144 
123 
175 
172 
165 
169 
173 
158 
132 
126 
125 
101 
90 
127 
138 
95 
102 
113 
109 
102 
87 
62 
75 
81 
84 
95 
85 
107 
134 
137 
153 
156 
136 
107 
121 
148 
133 
106 
144 
163 
162 
133 
115 
109 
108 
80 
114 
123 
92 
141 
84 
155 
134 
177 
200 
131 
113 
82 
173 
152 
182 
163 
223 
228 
221 
224 
224 
224 
224 
224 
225 
224 
224 
226 
226 
223 
224 
226 
226 
215 
192 
160 
126 
140 
84 
124 
147 
127 
85 
89 
80 
93 
96 
93 
132 
147 
114 
126 
141 
138 
153 
164 
177 
147 
105 
131 
164 
130 
133 
141 
132 
163 
165 
156 
172 
170 
144 
126 
114 
105 
105 
115 
109 
107 
90 
91 
93 
90 
87 
85 
79 
86 
75 
71 
91 
92 
109 
126 
129 
142 
142 
116 
104 
112 
132 
124 
102 
125 
125 
152 
134 
125 
101 
92 
72 
72 
82 
73 
131 
95 
121 
123 
118 
210 
131 
90 
90 
158 
180 
188 
192 
229 
220 
226 
224 
224 
224 
224 
224 
224 
222 
223 
225 
224 
221 
221 
224 
224 
191 
158 
126 
96 
106 
85 
127 
136 
106 
81 
82 
78 
80 
79 
85 
108 
134 
126 
166 
142 
149 
158 
164 
157 
125 
121 
141 
171 
160 
124 
132 
146 
159 
159 
144 
173 
170 
144 
132 
106 
86 
102 
113 
99 
106 
104 
78 
93 
86 
88 
101 
102 
90 
74 
85 
95 
102 
104 
106 
120 
144 
156 
130 
94 
99 
114 
119 
109 
109 
100 
128 
103 
110 
107 
81 
87 
67 
78 
75 
116 
102 
117 
90 
121 
207 
152 
92 
97 
142 
189 
199 
230 
214 
231 
225 
224 
224 
224 
224 
224 
225 
223 
224 
227 
226 
223 
223 
226 
226 
172 
147 
120 
114 
106 
113 
132 
104 
80 
81 
81 
86 
79 
76 
81 
93 
116 
133 
156 
120 
129 
157 
146 
147 
139 
127 
114 
153 
152 
137 
142 
148 
166 
140 
97 
133 
153 
153 
130 
101 
98 
103 
97 
115 
120 
107 
96 
88 
85 
88 
99 
107 
90 
70 
80 
89 
108 
106 
94 
103 
120 
131 
100 
87 
102 
107 
102 
107 
112 
104 
103 
98 
97 
102 
94 
98 
82 
81 
87 
103 
114 
117 
91 
113 
213 
168 
96 
85 
122 
174 
211 
220 
232 
223 
222 
224 
224 
224 
224 
224 
224 
223 
220 
228 
223 
224 
223 
231 
218 
143 
160 
142 
113 
115 
126 
106 
86 
69 
65 
79 
84 
75 
75 
87 
94 
109 
115 
123 
95 
116 
152 
143 
124 
128 
114 
75 
129 
161 
154 
162 
160 
166 
143 
93 
108 
134 
155 
141 
84 
95 
93 
101 
124 
119 
87 
69 
80 
91 
94 
91 
99 
97 
83 
86 
90 
103 
94 
95 
99 
104 
109 
89 
76 
95 
117 
114 
103 
100 
97 
97 
109 
89 
107 
87 
80 
78 
70 
97 
84 
111 
114 
112 
127 
210 
185 
87 
78 
111 
183 
215 
236 
224 
224 
224 
222 
223 
223 
224 
225 
225 
223 
222 
227 
224 
223 
223 
230 
195 
131 
164 
160 
114 
125 
116 
94 
92 
77 
68 
72 
74 
73 
80 
94 
97 
83 
91 
111 
116 
119 
133 
125 
111 
99 
96 
88 
131 
166 
176 
179 
163 
155 
163 
86 
91 
135 
134 
100 
72 
73 
73 
95 
119 
106 
79 
74 
84 
82 
83 
83 
90 
101 
101 
105 
97 
106 
96 
96 
100 
102 
106 
89 
78 
100 
114 
110 
108 
100 
86 
90 
94 
84 
99 
77 
70 
72 
66 
80 
80 
84 
112 
132 
163 
195 
179 
60 
57 
99 
194 
228 
230 
221 
219 
226 
222 
223 
223 
224 
224 
225 
221 
223 
224 
225 
220 
223 
228 
179 
125 
154 
155 
130 
138 
102 
80 
87 
77 
69 
68 
67 
67 
74 
83 
84 
79 
84 
84 
93 
116 
122 
129 
133 
95 
84 
101 
128 
159 
168 
145 
120 
119 
148 
82 
93 
123 
108 
82 
71 
61 
63 
94 
115 
94 
75 
86 
92 
77 
77 
80 
83 
92 
93 
90 
94 
98 
89 
93 
98 
98 
101 
88 
74 
92 
93 
89 
101 
95 
77 
87 
86 
80 
89 
73 
71 
76 
78 
81 
64 
101 
96 
151 
152 
200 
165 
56 
30 
97 
202 
224 
215 
231 
227 
220 
223 
223 
223 
224 
224 
224 
219 
223 
220 
224 
217 
222 
225 
176 
145 
156 
146 
153 
135 
90 
79 
83 
73 
66 
64 
62 
59 
62 
68 
66 
73 
69 
66 
83 
142 
108 
100 
109 
95 
106 
132 
118 
123 
133 
113 
87 
111 
115 
80 
99 
102 
93 
87 
76 
65 
66 
91 
102 
82 
72 
90 
84 
73 
79 
90 
100 
101 
87 
77 
77 
76 
69 
75 
80 
78 
80 
73 
69 
75 
70 
69 
88 
90 
78 
92 
83 
73 
75 
69 
73 
82 
97 
101 
65 
103 
125 
171 
154 
204 
197 
77 
91 
141 
209 
235 
224 
226 
220 
226 
223 
223 
224 
224 
224 
223 
219 
223 
220 
224 
217 
222 
224 
185 
177 
174 
158 
142 
105 
81 
84 
88 
73 
60 
57 
57 
56 
59 
67 
63 
58 
54 
62 
88 
151 
91 
79 
111 
111 
122 
144 
107 
87 
102 
109 
117 
128 
93 
72 
84 
89 
84 
79 
71 
68 
68 
76 
78 
66 
65 
80 
72 
72 
76 
89 
108 
103 
76 
69 
76 
69 
61 
63 
65 
63 
64 
62 
68 
65 
64 
70 
86 
88 
78 
86 
81 
76 
78 
69 
69 
85 
116 
124 
92 
121 
149 
168 
183 
205 
213 
147 
189 
221 
219 
226 
226 
227 
223 
224 
223 
223 
224 
224 
224 
223 
222 
223 
222 
223 
220 
224 
226 
198 
187 
170 
153 
92 
73 
77 
76 
84 
69 
57 
56 
56 
55 
58 
65 
66 
58 
67 
67 
84 
135 
86 
83 
104 
89 
84 
111 
97 
76 
85 
106 
135 
101 
67 
66 
67 
84 
73 
69 
65 
69 
69 
65 
61 
59 
63 
72 
71 
73 
71 
73 
90 
85 
62 
62 
82 
73 
66 
65 
65 
65 
66 
69 
65 
62 
66 
77 
89 
82 
67 
73 
81 
80 
88 
72 
64 
82 
119 
130 
125 
125 
146 
169 
164 
194 
217 
184 
138 
220 
230 
228 
222 
220 
225 
223 
223 
223 
224 
224 
224 
223 
223 
222 
224 
222 
223 
224 
227 
191 
171 
150 
123 
59 
65 
76 
64 
71 
65 
58 
56 
56 
56 
56 
57 
63 
61 
83 
91 
95 
140 
81 
66 
96 
90 
91 
107 
94 
69 
65 
80 
101 
65 
55 
65 
63 
75 
64 
67 
68 
72 
72 
67 
62 
62 
66 
70 
70 
72 
73 
69 
73 
74 
66 
69 
71 
67 
67 
67 
67 
67 
66 
69 
63 
65 
63 
71 
88 
80 
66 
86 
91 
75 
87 
81 
73 
80 
106 
122 
117 
126 
148 
146 
175 
168 
200 
196 
205 
234 
219 
223 
231 
222 
221 
222 
223 
224 
224 
224 
224 
221 
223 
220 
225 
220 
224 
223 
227 
166 
155 
147 
103 
63 
72 
78 
62 
66 
65 
60 
54 
53 
55 
56 
54 
60 
62 
87 
117 
96 
136 
69 
62 
78 
81 
83 
78 
65 
57 
60 
67 
67 
76 
72 
64 
62 
64 
61 
66 
72 
73 
73 
71 
67 
64 
65 
68 
73 
73 
80 
73 
62 
63 
64 
63 
63 
64 
71 
73 
73 
70 
64 
64 
66 
71 
59 
60 
87 
84 
79 
117 
115 
75 
87 
101 
100 
93 
104 
124 
121 
120 
142 
140 
173 
148 
206 
222 
211 
228 
222 
219 
222 
220 
223 
226 
224 
224 
224 
224 
223 
220 
224 
222 
222 
227 
223 
219 
227 
195 
129 
163 
133 
82 
72 
68 
55 
58 
62 
58 
55 
58 
55 
53 
56 
56 
77 
99 
120 
84 
90 
90 
57 
74 
71 
59 
57 
58 
59 
62 
63 
57 
73 
59 
55 
63 
60 
70 
65 
60 
70 
69 
70 
79 
72 
65 
75 
70 
77 
83 
77 
66 
63 
64 
61 
60 
59 
65 
67 
67 
66 
61 
64 
68 
66 
70 
60 
74 
105 
122 
145 
134 
72 
83 
86 
111 
117 
123 
146 
136 
139 
139 
142 
176 
176 
204 
229 
220 
221 
223 
223 
223 
223 
223 
224 
223 
223 
224 
224 
224 
222 
224 
220 
219 
224 
224 
225 
233 
208 
117 
114 
94 
75 
69 
66 
65 
61 
62 
56 
52 
56 
56 
54 
57 
58 
104 
98 
84 
73 
77 
70 
60 
60 
62 
58 
58 
60 
60 
66 
72 
71 
88 
87 
73 
63 
68 
57 
85 
57 
75 
80 
74 
78 
80 
76 
77 
69 
72 
80 
80 
71 
64 
62 
61 
60 
61 
70 
69 
64 
61 
60 
66 
66 
62 
66 
59 
76 
100 
103 
124 
167 
94 
56 
97 
116 
115 
152 
165 
156 
146 
137 
154 
199 
204 
216 
228 
221 
222 
224 
224 
223 
222 
222 
222 
223 
223 
224 
224 
224 
220 
223 
222 
222 
224 
223 
221 
226 
210 
113 
80 
68 
76 
72 
65 
68 
56 
57 
54 
55 
63 
66 
62 
59 
59 
102 
84 
60 
66 
64 
56 
56 
59 
60 
62 
62 
62 
65 
75 
87 
87 
125 
156 
75 
63 
104 
89 
67 
68 
83 
90 
82 
78 
81 
83 
81 
75 
73 
77 
80 
72 
65 
65 
66 
65 
65 
70 
68 
67 
68 
66 
71 
73 
68 
67 
56 
82 
105 
88 
95 
159 
106 
55 
108 
114 
130 
179 
173 
163 
150 
141 
174 
218 
225 
226 
234 
221 
223 
224 
224 
224 
223 
222 
222 
223 
223 
224 
224 
224 
220 
221 
222 
223 
224 
222 
220 
220 
226 
145 
97 
79 
81 
72 
65 
61 
53 
53 
53 
57 
68 
77 
74 
66 
67 
92 
96 
77 
64 
63 
83 
73 
62 
57 
61 
63 
68 
83 
101 
118 
91 
89 
145 
119 
89 
96 
91 
73 
75 
74 
82 
88 
81 
75 
78 
80 
86 
81 
79 
77 
70 
68 
71 
73 
68 
69 
74 
71 
70 
73 
74 
79 
76 
80 
77 
57 
79 
102 
82 
84 
135 
108 
73 
106 
109 
142 
180 
176 
170 
161 
155 
193 
224 
229 
223 
231 
222 
223 
223 
223 
223 
223 
224 
224 
223 
223 
224 
224 
224 
223 
222 
221 
221 
221 
224 
227 
227 
230 
163 
105 
84 
73 
59 
67 
63 
59 
55 
51 
51 
61 
76 
80 
73 
71 
89 
121 
110 
69 
67 
117 
115 
72 
60 
60 
60 
69 
93 
112 
127 
88 
90 
103 
142 
79 
85 
82 
92 
85 
72 
79 
92 
89 
83 
83 
84 
90 
87 
85 
79 
74 
75 
77 
74 
66 
72 
82 
78 
75 
79 
80 
85 
73 
82 
78 
61 
74 
87 
80 
96 
144 
127 
89 
103 
112 
133 
166 
186 
193 
188 
180 
212 
228 
227 
217 
221 
225 
224 
223 
222 
222 
223 
224 
224 
223 
223 
224 
224 
224 
223 
221 
223 
223 
221 
224 
226 
222 
222 
169 
100 
82 
69 
51 
65 
63 
61 
56 
52 
51 
57 
73 
78 
69 
58 
60 
93 
113 
82 
56 
99 
122 
82 
65 
64 
57 
62 
88 
103 
110 
110 
96 
106 
117 
129 
66 
88 
98 
106 
92 
87 
86 
83 
84 
87 
82 
81 
84 
88 
85 
81 
82 
80 
73 
69 
72 
81 
82 
88 
96 
92 
89 
83 
79 
64 
65 
81 
83 
85 
103 
137 
155 
116 
126 
134 
130 
169 
193 
212 
216 
213 
229 
228 
223 
220 
225 
228 
226 
224 
222 
222 
222 
223 
223 
223 
223 
224 
224 
224 
222 
220 
225 
226 
223 
224 
223 
215 
231 
202 
118 
90 
82 
58 
65 
58 
57 
55 
54 
53 
59 
76 
82 
71 
81 
68 
83 
118 
107 
70 
86 
111 
98 
81 
80 
64 
60 
85 
95 
98 
91 
104 
96 
113 
127 
102 
85 
87 
102 
95 
87 
78 
73 
76 
77 
72 
73 
75 
81 
84 
82 
83 
83 
80 
77 
78 
83 
81 
87 
97 
95 
92 
95 
87 
63 
72 
88 
85 
93 
96 
113 
166 
142 
158 
165 
163 
197 
205 
218 
229 
229 
232 
224 
222 
227 
232 
226 
225 
223 
223 
224 
224 
223 
223 
223 
223 
224 
224 
224 
225 
221 
223 
224 
221 
225 
229 
222 
227 
224 
129 
87 
89 
73 
77 
65 
57 
54 
54 
53 
58 
80 
93 
86 
95 
89 
88 
101 
89 
69 
77 
80 
135 
117 
110 
80 
62 
78 
83 
82 
100 
108 
99 
87 
88 
100 
89 
91 
78 
81 
86 
88 
86 
82 
77 
73 
70 
67 
72 
78 
78 
80 
86 
91 
79 
90 
97 
82 
69 
74 
84 
96 
93 
102 
79 
80 
82 
79 
96 
89 
117 
161 
147 
172 
188 
203 
222 
227 
225 
229 
223 
221 
222 
226 
230 
223 
222 
222 
222 
224 
226 
226 
225 
224 
223 
223 
224 
224 
224 
222 
227 
219 
223 
222 
226 
221 
227 
220 
225 
185 
101 
80 
58 
64 
69 
50 
63 
56 
53 
56 
60 
103 
112 
89 
85 
86 
79 
74 
93 
111 
107 
119 
160 
114 
118 
82 
81 
94 
96 
102 
97 
86 
93 
63 
74 
81 
81 
83 
88 
85 
90 
98 
87 
73 
77 
77 
73 
69 
68 
71 
77 
86 
93 
90 
100 
123 
108 
105 
98 
89 
99 
117 
132 
116 
104 
88 
83 
105 
104 
158 
174 
167 
194 
214 
210 
231 
232 
224 
219 
218 
222 
225 
224 
223 
223 
224 
224 
224 
224 
224 
224 
224 
224 
224 
224 
224 
224 
224 
224 
220 
227 
222 
222 
228 
215 
223 
234 
223 
224 
151 
78 
63 
60 
68 
62 
74 
59 
56 
57 
60 
71 
111 
94 
55 
91 
78 
78 
112 
139 
106 
115 
131 
121 
117 
123 
87 
104 
73 
93 
91 
106 
120 
75 
72 
87 
75 
93 
74 
76 
94 
79 
84 
87 
83 
83 
81 
76 
70 
70 
76 
82 
85 
79 
96 
121 
125 
141 
136 
125 
132 
131 
139 
136 
135 
118 
103 
112 
109 
179 
192 
192 
215 
226 
218 
226 
223 
225 
225 
225 
224 
222 
221 
223 
226 
224 
224 
224 
224 
224 
224 
224 
224 
224 
224 
224 
224 
224 
224 
219 
227 
223 
222 
223 
220 
219 
227 
214 
230 
223 
138 
87 
72 
69 
69 
52 
53 
53 
74 
64 
55 
88 
79 
57 
87 
88 
66 
89 
109 
95 
122 
145 
97 
86 
130 
118 
110 
101 
116 
121 
135 
143 
93 
69 
67 
90 
118 
90 
86 
102 
74 
77 
80 
76 
80 
78 
75 
75 
74 
74 
77 
81 
86 
91 
88 
91 
121 
131 
142 
164 
155 
145 
149 
153 
136 
125 
133 
140 
205 
206 
210 
223 
226 
223 
227 
225 
226 
228 
227 
223 
221 
222 
224 
225 
224 
224 
224 
224 
224 
224 
224 
224 
224 
224 
224 
224 
224 
223 
225 
218 
223 
224 
213 
233 
219 
225 
215 
236 
235 
179 
102 
64 
70 
65 
52 
65 
57 
76 
93 
85 
73 
83 
72 
74 
104 
88 
89 
115 
124 
95 
152 
161 
108 
94 
119 
161 
131 
127 
122 
130 
112 
120 
102 
88 
85 
85 
80 
74 
84 
81 
76 
70 
79 
82 
76 
77 
84 
82 
72 
71 
79 
89 
103 
92 
84 
93 
97 
127 
172 
165 
148 
161 
165 
150 
152 
169 
188 
221 
213 
217 
222 
221 
224 
227 
229 
226 
225 
222 
220 
222 
226 
225 
220 
224 
224 
224 
224 
224 
224 
224 
224 
224 
224 
224 
224 
224 
223 
226 
218 
224 
225 
214 
235 
221 
209 
232 
213 
222 
215 
118 
112 
68 
62 
50 
48 
79 
65 
76 
72 
91 
84 
63 
71 
88 
86 
71 
104 
121 
114 
108 
135 
143 
110 
82 
123 
157 
162 
122 
121 
102 
146 
103 
135 
106 
68 
79 
81 
81 
98 
85 
78 
89 
82 
79 
79 
80 
74 
67 
68 
74 
97 
105 
92 
84 
83 
85 
113 
152 
155 
151 
182 
193 
183 
191 
205 
222 
228 
219 
226 
227 
223 
225 
223 
223 
223 
224 
222 
221 
223 
227 
225 
219 
224 
224 
224 
224 
224 
224 
224 
224 
224 
224 
224 
224 
224 
225 
220 
228 
224 
224 
225 
223 
223 
225 
231 
230 
221 
226 
144 
131 
92 
50 
70 
58 
65 
62 
72 
72 
80 
81 
82 
91 
84 
92 
92 
75 
113 
119 
142 
135 
139 
162 
129 
103 
152 
167 
155 
118 
112 
141 
87 
121 
104 
71 
73 
81 
76 
89 
78 
79 
77 
82 
86 
84 
75 
71 
78 
90 
97 
111 
103 
92 
88 
85 
101 
129 
159 
151 
163 
200 
215 
211 
217 
223 
229 
229 
223 
226 
226 
224 
224 
222 
222 
222 
225 
226 
225 
223 
223 
223 
223 
224 
224 
224 
224 
224 
224 
224 
224 
224 
224 
224 
224 
224 
225 
221 
229 
224 
223 
230 
217 
225 
216 
224 
225 
222 
224 
161 
161 
163 
74 
61 
54 
56 
75 
57 
60 
62 
60 
79 
69 
63 
97 
122 
65 
104 
140 
140 
135 
90 
141 
157 
153 
133 
125 
155 
125 
110 
147 
142 
126 
105 
91 
81 
83 
84 
95 
93 
98 
96 
101 
102 
98 
90 
87 
97 
118 
136 
115 
117 
141 
146 
126 
143 
169 
195 
178 
188 
210 
220 
220 
223 
225 
226 
225 
225 
220 
220 
223 
222 
224 
226 
224 
224 
226 
226 
224 
222 
223 
225 
224 
224 
224 
224 
224 
224 
224 
224 
224 
224 
224 
224 
224 
223 
229 
221 
223 
223 
226 
221 
227 
226 
222 
228 
217 
244 
223 
165 
180 
120 
70 
61 
75 
76 
57 
62 
66 
92 
103 
97 
78 
103 
114 
92 
113 
99 
93 
127 
109 
75 
111 
146 
144 
105 
87 
117 
94 
144 
154 
144 
159 
141 
127 
109 
106 
114 
107 
99 
105 
121 
110 
104 
103 
96 
94 
116 
146 
128 
123 
161 
182 
168 
189 
196 
199 
211 
213 
217 
221 
223 
224 
224 
223 
221 
226 
219 
222 
227 
222 
223 
224 
227 
222 
220 
223 
226 
225 
224 
224 
224 
224 
224 
224 
224 
224 
224 
224 
224 
224 
224 
224 
224 
224 
224 
224 
224 
224 
224 
224 
224 
224 
223 
223 
226 
225 
215 
200 
187 
187 
185 
96 
100 
120 
94 
65 
64 
90 
124 
108 
88 
108 
118 
137 
130 
101 
105 
126 
132 
119 
134 
170 
140 
123 
90 
104 
99 
113 
155 
155 
135 
141 
162 
130 
114 
104 
101 
91 
107 
114 
114 
109 
120 
102 
105 
137 
150 
137 
153 
168 
178 
191 
207 
215 
214 
226 
223 
220 
219 
221 
223 
224 
224 
224 
224 
224 
223 
223 
224 
224 
224 
224 
224 
224 
224 
224 
224 
224 
224 
224 
224 
224 
224 
224 
224 
224 
224 
224 
224 
224 
224 
224 
224 
224 
224 
224 
224 
224 
224 
224 
223 
227 
225 
223 
228 
232 
222 
206 
185 
158 
125 
109 
149 
140 
138 
65 
61 
98 
98 
96 
99 
105 
147 
141 
119 
148 
136 
142 
191 
161 
150 
147 
99 
120 
127 
106 
160 
141 
141 
136 
119 
146 
126 
108 
121 
108 
75 
94 
132 
126 
135 
159 
140 
143 
163 
149 
139 
168 
197 
210 
215 
221 
225 
225 
224 
223 
221 
222 
224 
225 
225 
225 
224 
224 
224 
223 
223 
224 
224 
224 
224 
224 
224 
224 
224 
224 
224 
224 
224 
224 
224 
224 
224 
224 
224 
224 
224 
224 
224 
224 
224 
224 
224 
224 
224 
224 
224 
224 
224 
227 
224 
223 
221 
218 
218 
223 
230 
205 
165 
135 
130 
153 
130 
146 
149 
125 
141 
122 
84 
80 
107 
142 
141 
107 
127 
143 
153 
175 
170 
139 
174 
163 
149 
149 
138 
154 
151 
134 
113 
102 
117 
113 
110 
146 
137 
102 
117 
161 
158 
163 
182 
165 
167 
181 
172 
168 
196 
224 
233 
229 
226 
226 
226 
223 
222 
222 
224 
226 
226 
226 
225 
224 
224 
224 
223 
223 
224 
224 
224 
224 
224 
224 
224 
224 
224 
224 
224 
224 
224 
224 
224 
224 
224 
224 
224 
224 
224 
224 
224 
224 
224 
224 
224 
224 
224 
224 
224 
224 
223 
223 
228 
232 
225 
213 
217 
230 
228 
212 
162 
142 
131 
95 
89 
158 
175 
139 
119 
101 
135 
158 
135 
158 
128 
129 
170 
159 
137 
170 
148 
134 
147 
148 
139 
114 
133 
156 
158 
120 
114 
117 
126 
148 
165 
157 
142 
151 
164 
168 
160 
174 
183 
189 
200 
218 
211 
222 
231 
229 
224 
223 
223 
221 
223 
223 
223 
224 
225 
225 
224 
223 
224 
224 
224 
224 
224 
224 
224 
224 
224 
224 
224 
224 
224 
224 
224 
224 
224 
224 
224 
224 
224 
224 
224 
224 
224 
224 
224 
224 
224 
224 
224 
224 
224 
224 
224 
224 
224 
224 
225 
225 
222 
222 
224 
224 
221 
231 
233 
223 
184 
139 
75 
64 
120 
145 
122 
128 
124 
139 
147 
124 
157 
190 
168 
178 
172 
172 
144 
161 
158 
124 
132 
90 
150 
147 
154 
166 
138 
141 
156 
159 
191 
179 
152 
147 
161 
170 
168 
161 
186 
207 
212 
213 
230 
229 
229 
226 
222 
221 
223 
225 
224 
225 
225 
224 
224 
224 
223 
223 
222 
224 
224 
224 
224 
224 
224 
224 
224 
224 
224 
224 
224 
224 
224 
224 
224 
224 
224 
224 
224 
224 
224 
224 
224 
224 
224 
224 
224 
224 
224 
224 
224 
224 
224 
224 
224 
224 
225 
224 
222 
222 
222 
223 
224 
224 
222 
213 
226 
231 
223 
164 
121 
126 
127 
118 
125 
141 
147 
163 
150 
117 
136 
163 
186 
173 
178 
145 
138 
141 
152 
163 
116 
106 
141 
144 
167 
149 
162 
185 
167 
195 
190 
164 
157 
175 
196 
186 
195 
221 
219 
218 
218 
219 
222 
223 
224 
223 
223 
224 
225 
225 
227 
226 
225 
224 
224 
223 
223 
223 
225 
224 
224 
224 
224 
224 
224 
225 
224 
224 
224 
224 
224 
223 
223 
223 
224 
224 
224 
224 
224 
224 
224 
224 
224 
224 
224 
224 
224 
224 
224 
224 
224 
224 
224 
224 
224 
221 
223 
229 
237 
234 
225 
220 
222 
223 
225 
222 
217 
225 
223 
208 
210 
192 
170 
157 
169 
152 
162 
178 
156 
150 
158 
181 
177 
170 
165 
132 
144 
172 
157 
171 
165 
148 
166 
180 
175 
183 
196 
176 
189 
197 
191 
192 
202 
212 
207 
220 
234 
220 
221 
224 
225 
220 
221 
223 
225 
224 
223 
223 
223 
224 
224 
224 
224 
224 
224 
224 
225 
225 
224 
224 
224 
224 
224 
224 
225 
224 
224 
224 
224 
224 
223 
223 
223 
224 
224 
224 
224 
224 
224 
224 
224 
224 
224 
224 
224 
224 
224 
224 
224 
224 
224 
224 
224 
224 
225 
225 
218 
212 
216 
226 
227 
221 
226 
221 
231 
219 
224 
221 
226 
213 
208 
206 
197 
183 
162 
181 
193 
188 
157 
165 
180 
176 
181 
183 
183 
180 
186 
169 
182 
180 
174 
175 
186 
178 
204 
208 
209 
205 
197 
202 
218 
216 
221 
224 
223 
224 
222 
227 
220 
225 
227 
224 
221 
222 
224 
224 
224 
225 
220 
221 
223 
223 
224 
224 
224 
225 
225 
224 
224 
224 
224 
224 
224 
225 
224 
224 
224 
224 
223 
223 
223 
223 
224 
224 
224 
224 
224 
224 
224 
224 
224 
224 
224 
224 
224 
224 
224 
224 
224 
224 
224 
224 
224 
223 
223 
224 
224 
225 
226 
226 
226 
221 
223 
225 
223 
220 
219 
222 
226 
223 
220 
211 
198 
188 
186 
192 
200 
181 
182 
182 
184 
191 
197 
195 
188 
189 
195 
199 
199 
198 
200 
203 
204 
218 
218 
217 
218 
219 
222 
225 
227 
226 
227 
228 
227 
226 
225 
225 
226 
224 
224 
224 
224 
224 
224 
223 
223 
224 
224 
224 
224 
224 
224 
224 
224 
224 
224 
224 
224 
224 
224 
224 
224 
224 
224 
224 
223 
223 
223 
223 
222 
222 
223 
223 
223 
223 
223 
223 
223 
223 
223 
223 
223 
223 
224 
224 
224 
224 
224 
224 
224 
224 
223 
223 
224 
224 
224 
225 
225 
225 
225 
222 
221 
222 
224 
225 
223 
221 
224 
224 
220 
213 
204 
200 
202 
205 
209 
208 
204 
201 
204 
209 
209 
205 
199 
204 
209 
210 
211 
214 
217 
218 
224 
224 
224 
224 
224 
225 
225 
226 
224 
225 
225 
225 
225 
225 
226 
226 
225 
225 
225 
225 
224 
224 
224 
224 
224 
224 
224 
224 
224 
224 
224 
224 
224 
224 
224 
224 
224 
224 
224 
224 
224 
224 
224 
223 
223 
223 
223 
223 
223 
223 
223 
223 
223 
223 
223 
223 
223 
223 
223 
223 
223 
224 
224 
224 
224 
224 
224 
224 
224 
223 
223 
223 
224 
224 
224 
224 
224 
225 
222 
220 
222 
226 
227 
224 
220 
221 
223 
225 
224 
220 
218 
217 
218 
223 
224 
222 
219 
219 
221 
219 
215 
216 
219 
221 
222 
223 
225 
227 
227 
226 
226 
226 
226 
225 
224 
223 
222 
225 
224 
224 
224 
225 
225 
226 
226 
225 
225 
225 
225 
225 
224 
224 
224 
224 
224 
224 
224 
224 
224 
224 
224 
224 
224 
224 
224 
224 
224 
224 
224 
224 
224 
224 
224 
223 
223 
223 
223 
223 
223 
223 
223 
223 
223 
223 
223 
223 
223 
223 
223 
223 
224 
224 
224 
224 
224 
224 
224 
224 
224 
224 
224 
224 
224 
224 
224 
224 
223 
224 
225 
225 
224 
223 
224 
224 
221 
222 
223 
224 
224 
224 
224 
225 
221 
223 
225 
224 
224 
225 
224 
222 
223 
224 
224 
225 
226 
227 
226 
225 
223 
224 
224 
225 
224 
223 
222 
221 
228 
226 
224 
224 
225 
226 
226 
225 
224 
224 
224 
224 
224 
224 
225 
225 
224 
224 
224 
224 
224 
224 
224 
224 
224 
224 
224 
224 
224 
224 
224 
224 
224 
224 
224 
224 
223 
223 
223 
223 
223 
223 
223 
223 
223 
223 
223 
223 
223 
223 
223 
223 
223 
224 
224 
224 
224 
224 
224 
224 
224 
225 
225 
224 
224 
224 
224 
224 
224 
222 
225 
227 
225 
222 
221 
224 
227 
225 
224 
223 
222 
223 
223 
222 
222 
222 
223 
222 
220 
220 
223 
228 
230 
222 
221 
221 
223 
224 
225 
225 
224 
223 
224 
224 
224 
224 
224 
224 
224 
228 
226 
224 
224 
225 
225 
225 
224 
222 
223 
223 
223 
224 
224 
225 
225 
224 
224 
224 
224 
224 
224 
224 
224 
224 
224 
224 
224 
224 
224 
224 
224 
224 
224 
224 
224 
224 
224 
223 
223 
223 
223 
223 
223 
223 
223 
223 
223 
223 
223 
223 
223 
223 
224 
224 
224 
224 
224 
224 
224 
224 
225 
224 
224 
224 
224 
224 
224 
224 
226 
224 
223 
223 
224 
224 
225 
225 
224 
224 
224 
224 
224 
223 
222 
221 
222 
223 
224 
223 
222 
223 
226 
227 
227 
225 
225 
226 
226 
225 
225 
225 
224 
224 
224 
224 
224 
224 
224 
224 
224 
223 
223 
223 
223 
224 
225 
225 
222 
222 
223 
223 
224 
224 
224 
225 
224 
224 
224 
224 
224 
224 
224 
224 
224 
224 
224 
224 
224 
224 
224 
224 
224 
224 
224 
224 
224 
224 
224 
224 
224 
224 
224 
223 
223 
223 
223 
223 
223 
223 
223 
223 
223 
224 
224 
224 
224 
224 
224 
224 
224 
224 
224 
224 
224 
224 
224 
224 
224 
226 
224 
222 
223 
225 
226 
224 
223 
222 
222 
223 
224 
224 
224 
224 
224 
221 
223 
225 
227 
226 
224 
222 
222 
230 
228 
227 
227 
226 
224 
224 
225 
224 
224 
224 
224 
223 
223 
223 
223 
222 
223 
223 
223 
223 
223 
224 
225 
223 
223 
223 
224 
224 
224 
224 
224 
224 
224 
224 
224 
224 
224 
224 
224 
224 
224 
224 
224 
224 
224 
224 
224 
224 
224 
224 
224 
224 
224 
224 
224 
224 
224 
224 
224 
223 
223 
223 
223 
223 
223 
223 
223 
223 
224 
224 
224 
224 
224 
224 
224 
224 
223 
223 
223 
223 
223 
224 
224 
224 
222 
224 
225 
225 
224 
223 
223 
224 
224 
224 
223 
222 
222 
222 
222 
223 
225 
224 
224 
223 
223 
223 
224 
225 
222 
221 
221 
223 
222 
221 
222 
225 
224 
224 
225 
225 
226 
225 
225 
224 
224 
225 
226 
225 
224 
223 
223 
224 
225 
225 
225 
224 
224 
224 
223 
223 
224 
224 
224 
224 
224 
224 
224 
224 
224 
224 
224 
224 
224 
224 
224 
224 
224 
224 
224 
224 
224 
224 
224 
224 
224 
224 
224 
224 
223 
223 
223 
223 
223 
223 
223 
223 
223 
224 
224 
224 
224 
224 
224 
224 
223 
223 
223 
223 
223 
223 
223 
224 
224 
224 
224 
224 
224 
224 
224 
224 
224 
223 
223 
223 
223 
223 
223 
223 
223 
224 
224 
224 
224 
224 
224 
224 
224 
223 
223 
223 
223 
223 
223 
223 
223 
223 
223 
223 
224 
224 
224 
224 
224 
224 
224 
224 
224 
224 
224 
224 
224 
224 
224 
224 
224 
224 
224 
224 
224 
224 
224 
224 
224 
224 
224 
224 
224 
224 
224 
224 
224 
224 
224 
224 
223 
224 
224 
224 
224 
224 
224 
224 
224 
224 
224 
223 
223 
223 
223 
223 
223 
223 
223 
223 
224 
224 
224 
224 
224 
224 
224 
224 
224 
223 
223 
223 
223 
223 
223 
223 
224 
224 
224 
224 
224 
224 
224 
224 
224 
224 
223 
223 
223 
223 
223 
223 
223 
223 
224 
224 
224 
224 
224 
224 
224 
224 
223 
223 
223 
223 
223 
223 
223 
223 
223 
223 
223 
223 
224 
224 
224 
224 
224 
224 
224 
224 
224 
224 
224 
224 
224 
224 
224 
224 
224 
224 
224 
224 
224 
224 
224 
224 
224 
224 
224 
224 
224 
224 
224 
224 
224 
224 
224 
224 
224 
224 
224 
224 
224 
224 
224 
224 
224 
224 
223 
223 
223 
223 
223 
223 
223 
223 
223 
224 
224 
224 
224 
224 
224 
224 
224 
224 
223 
223 
223 
223 
223 
223 
223 
224 
224 
224 
224 
224 
224 
224 
224 
224 
224 
223 
223 
223 
223 
223 
223 
223 
223 
224 
224 
224 
224 
224 
224 
224 
224 
223 
223 
223 
223 
223 
223 
223 
223 
223 
223 
223 
223 
224 
224 
224 
224 
224 
224 
224 
224 
224 
224 
224 
224 
224 
224 
224 
224 
224 
224 
224 
224 
224 
224 
224 
224 
224 
224 
224 
224 
224 
224 
224 
224 
224 
224 
224 
224 
224 
224 
224 
224 
224 
224 
224 
224 
224 
224 
223 
223 
223 
223 
223 
223 
223 
223 
223 
224 
224 
224 
224 
224 
224 
224 
224 
224 
223 
223 
223 
223 
223 
223 
223 
224 
224 
224 
224 
224 
224 
224 
224 
224 
224 
223 
223 
223 
223 
223 
223 
223 
223 
224 
224 
224 
224 
224 
224 
224 
224 
223 
223 
223 
223 
223 
223 
223 
223 
223 
223 
223 
223 
223 
224 
224 
224 
224 
224 
224 
224 
224 
224 
224 
224 
224 
224 
224 
224 
224 
224 
224 
224 
224 
224 
224 
224 
224 
224 
224 
224 
224 
224 
223 
223 
224 
224 
224 
224 
224 
224 
224 
224 
224 
224 
224 
224 
224 
224 
223 
223 
223 
223 
223 
223 
223 
223 
224 
224 
224 
224 
224 
224 
224 
224 
224 
224 
223 
223 
223 
223 
223 
223 
223 
224 
224 
224 
224 
224 
224 
224 
224 
224 
224 
223 
223 
223 
223 
223 
223 
223 
223 
224 
224 
224 
224 
224 
224 
224 
224 
223 
223 
223 
223 
223 
223 
223 
223 
223 
223 
223 
223 
223 
223 
223 
224 
224 
224 
224 
224 
224 
224 
224 
224 
224 
224 
224 
224 
224 
224 
224 
224 
224 
224 
224 
224 
224 
224 
224 
224 
224 
223 
223 
223 
223 
224 
224 
224 
224 
224 
224 
224 
224 
224 
224 
224 
224 
224 
223 
223 
223 
223 
223 
223 
223 
223 
224 
224 
224 
