P2
# Created by MsrVolt
81 93
255
224 
224 
224 
224 
224 
224 
224 
224 
224 
224 
224 
224 
224 
224 
224 
224 
224 
224 
224 
224 
224 
224 
224 
224 
224 
224 
224 
223 
223 
223 
223 
222 
223 
223 
223 
224 
224 
223 
223 
223 
223 
223 
223 
223 
223 
223 
222 
222 
222 
222 
221 
221 
221 
222 
223 
224 
223 
223 
223 
224 
223 
223 
222 
222 
224 
223 
223 
223 
223 
223 
223 
223 
222 
223 
224 
224 
223 
222 
222 
222 
223 
224 
224 
224 
224 
224 
224 
224 
224 
224 
224 
224 
224 
224 
224 
224 
224 
224 
224 
224 
224 
224 
224 
224 
224 
224 
224 
224 
223 
223 
223 
223 
223 
223 
223 
223 
223 
223 
223 
223 
223 
223 
223 
223 
223 
223 
223 
223 
222 
223 
222 
222 
221 
221 
222 
223 
223 
222 
222 
223 
223 
223 
223 
223 
223 
223 
223 
223 
223 
223 
223 
223 
223 
222 
223 
224 
223 
223 
222 
222 
222 
221 
224 
224 
224 
224 
224 
224 
224 
224 
224 
224 
224 
224 
224 
224 
224 
224 
224 
224 
224 
224 
224 
224 
224 
224 
224 
224 
224 
224 
223 
223 
223 
223 
223 
223 
223 
223 
223 
223 
223 
223 
223 
223 
223 
223 
223 
223 
223 
223 
223 
223 
222 
222 
222 
222 
222 
223 
222 
222 
223 
223 
224 
224 
223 
223 
223 
223 
223 
223 
223 
223 
223 
223 
222 
223 
223 
223 
222 
222 
221 
222 
220 
224 
224 
224 
224 
224 
224 
224 
224 
224 
224 
224 
224 
224 
224 
224 
224 
224 
224 
224 
224 
224 
224 
224 
224 
224 
224 
224 
224 
223 
223 
223 
223 
224 
223 
223 
223 
223 
223 
223 
223 
223 
223 
223 
223 
223 
223 
223 
223 
224 
223 
223 
222 
222 
222 
222 
222 
223 
223 
223 
223 
223 
223 
223 
223 
222 
223 
223 
223 
223 
223 
223 
223 
223 
223 
223 
223 
222 
221 
221 
222 
221 
224 
224 
224 
224 
224 
224 
224 
224 
224 
224 
224 
224 
224 
224 
224 
224 
224 
224 
224 
224 
224 
224 
224 
224 
224 
224 
224 
224 
224 
224 
223 
223 
224 
224 
224 
223 
223 
223 
223 
224 
223 
223 
223 
223 
223 
223 
223 
223 
224 
224 
223 
223 
222 
222 
222 
222 
224 
224 
223 
223 
223 
222 
222 
222 
222 
222 
223 
223 
223 
223 
223 
223 
223 
223 
223 
222 
221 
221 
221 
221 
222 
224 
224 
224 
224 
224 
224 
224 
224 
224 
224 
224 
224 
224 
224 
224 
224 
224 
224 
224 
224 
224 
224 
224 
224 
224 
224 
224 
224 
224 
224 
224 
224 
225 
224 
223 
223 
223 
223 
223 
223 
223 
223 
223 
223 
223 
223 
223 
223 
224 
223 
223 
223 
223 
222 
222 
222 
224 
224 
223 
222 
222 
221 
221 
221 
221 
222 
223 
223 
224 
223 
223 
223 
223 
223 
223 
222 
221 
221 
221 
221 
221 
224 
224 
224 
224 
224 
224 
224 
224 
224 
224 
224 
224 
224 
224 
224 
224 
224 
224 
224 
224 
224 
224 
224 
224 
224 
224 
224 
224 
224 
224 
224 
224 
224 
223 
223 
222 
221 
222 
222 
223 
222 
223 
223 
223 
223 
223 
223 
223 
223 
223 
223 
223 
223 
223 
222 
222 
223 
223 
222 
221 
221 
221 
221 
221 
221 
222 
223 
223 
224 
223 
223 
222 
223 
223 
223 
222 
221 
220 
221 
221 
221 
224 
224 
224 
224 
224 
224 
224 
224 
224 
224 
224 
224 
224 
224 
224 
224 
224 
224 
224 
224 
224 
224 
224 
224 
224 
224 
224 
224 
224 
224 
224 
224 
223 
223 
222 
221 
220 
221 
221 
222 
222 
222 
223 
223 
223 
223 
223 
223 
223 
223 
223 
223 
223 
223 
223 
222 
222 
222 
221 
221 
221 
221 
221 
222 
221 
221 
222 
223 
224 
223 
223 
222 
224 
223 
223 
222 
220 
220 
221 
221 
222 
223 
223 
223 
223 
224 
224 
224 
224 
224 
224 
224 
224 
224 
224 
224 
224 
224 
224 
224 
224 
224 
224 
224 
224 
224 
224 
224 
224 
224 
224 
224 
224 
225 
224 
222 
220 
220 
221 
221 
220 
221 
221 
220 
220 
222 
224 
224 
223 
223 
223 
225 
226 
224 
221 
222 
225 
220 
222 
224 
218 
217 
219 
218 
224 
218 
225 
218 
229 
219 
221 
235 
230 
220 
216 
223 
220 
219 
226 
221 
219 
221 
223 
223 
224 
224 
224 
224 
224 
224 
224 
224 
224 
224 
224 
224 
224 
224 
224 
224 
224 
224 
224 
224 
224 
224 
224 
224 
224 
224 
224 
224 
224 
224 
224 
223 
222 
222 
221 
220 
220 
221 
221 
221 
221 
222 
224 
226 
228 
228 
223 
220 
219 
222 
225 
224 
221 
219 
218 
225 
225 
223 
222 
220 
219 
219 
231 
241 
214 
217 
234 
226 
221 
230 
219 
225 
235 
224 
219 
229 
226 
220 
223 
224 
224 
224 
224 
224 
224 
224 
224 
224 
224 
224 
224 
224 
224 
224 
224 
224 
224 
224 
224 
224 
224 
224 
224 
224 
224 
224 
224 
224 
224 
224 
224 
224 
222 
222 
223 
222 
219 
219 
222 
223 
224 
224 
224 
223 
222 
223 
223 
223 
222 
223 
225 
225 
224 
223 
223 
225 
220 
209 
219 
220 
205 
209 
217 
205 
209 
231 
215 
211 
223 
218 
224 
227 
220 
222 
221 
220 
223 
221 
220 
223 
224 
224 
224 
224 
224 
224 
224 
225 
224 
224 
224 
224 
224 
224 
224 
224 
224 
224 
224 
224 
224 
224 
224 
224 
225 
224 
224 
224 
224 
224 
224 
223 
225 
221 
219 
222 
223 
220 
220 
222 
219 
221 
223 
225 
224 
222 
222 
223 
227 
225 
224 
225 
224 
222 
219 
218 
215 
195 
165 
186 
214 
210 
196 
168 
164 
156 
202 
204 
192 
210 
228 
220 
229 
221 
220 
222 
220 
221 
225 
228 
222 
224 
224 
224 
224 
224 
224 
224 
224 
224 
224 
224 
224 
224 
224 
224 
224 
224 
224 
224 
224 
224 
224 
224 
224 
225 
225 
224 
224 
224 
224 
223 
223 
226 
221 
217 
220 
222 
222 
221 
221 
219 
219 
220 
221 
219 
217 
217 
219 
225 
223 
222 
222 
215 
197 
175 
161 
154 
153 
117 
113 
149 
184 
185 
143 
104 
104 
129 
168 
187 
175 
189 
196 
205 
222 
232 
224 
214 
219 
229 
226 
222 
223 
223 
223 
224 
224 
224 
224 
224 
224 
224 
224 
224 
224 
224 
224 
224 
224 
224 
224 
224 
224 
224 
224 
224 
225 
225 
225 
224 
224 
223 
223 
223 
225 
221 
218 
219 
221 
223 
222 
220 
224 
222 
223 
226 
225 
223 
222 
225 
228 
218 
201 
177 
150 
125 
110 
105 
114 
144 
141 
128 
136 
154 
157 
131 
100 
72 
95 
124 
159 
174 
161 
174 
189 
206 
222 
229 
223 
219 
223 
218 
222 
223 
223 
223 
223 
223 
223 
223 
223 
224 
224 
224 
224 
224 
224 
224 
224 
224 
224 
224 
224 
224 
224 
224 
224 
226 
225 
225 
224 
224 
223 
223 
222 
220 
222 
222 
220 
220 
223 
222 
219 
221 
221 
226 
231 
229 
221 
213 
210 
200 
176 
138 
101 
77 
71 
81 
93 
106 
113 
107 
94 
90 
89 
83 
75 
69 
72 
159 
180 
153 
173 
168 
169 
190 
190 
201 
230 
236 
223 
223 
222 
222 
222 
222 
223 
223 
223 
223 
223 
223 
224 
224 
224 
224 
224 
224 
224 
224 
224 
224 
224 
224 
224 
224 
224 
224 
226 
225 
225 
224 
224 
223 
223 
222 
215 
223 
226 
222 
220 
222 
222 
219 
221 
220 
221 
220 
207 
182 
159 
146 
124 
101 
77 
69 
76 
84 
83 
80 
79 
80 
76 
64 
63 
67 
64 
66 
76 
81 
132 
180 
151 
159 
191 
155 
180 
181 
190 
216 
224 
218 
226 
227 
225 
223 
223 
223 
223 
223 
223 
224 
224 
224 
224 
224 
224 
224 
224 
224 
224 
225 
223 
223 
225 
224 
222 
223 
226 
228 
224 
224 
224 
222 
222 
224 
224 
224 
224 
229 
226 
217 
221 
229 
226 
230 
213 
217 
221 
193 
149 
101 
60 
83 
85 
84 
86 
87 
78 
73 
80 
78 
81 
77 
78 
74 
78 
90 
81 
73 
74 
98 
144 
138 
88 
110 
135 
145 
200 
180 
206 
219 
214 
224 
231 
221 
223 
223 
223 
223 
223 
223 
224 
224 
224 
224 
224 
224 
224 
224 
224 
224 
225 
224 
224 
224 
224 
223 
224 
225 
223 
224 
226 
226 
225 
223 
223 
224 
224 
220 
217 
225 
232 
222 
208 
207 
181 
161 
157 
170 
165 
134 
104 
93 
91 
90 
90 
90 
85 
73 
71 
81 
75 
84 
86 
77 
71 
81 
87 
71 
68 
57 
75 
99 
91 
78 
85 
107 
111 
157 
222 
175 
217 
187 
234 
221 
221 
223 
223 
223 
223 
223 
223 
224 
224 
224 
224 
224 
224 
224 
224 
224 
224 
224 
224 
224 
224 
224 
225 
224 
223 
225 
226 
223 
222 
225 
224 
218 
216 
225 
227 
219 
221 
223 
187 
142 
132 
121 
99 
84 
100 
122 
115 
98 
96 
89 
85 
88 
91 
83 
74 
78 
86 
79 
74 
78 
75 
68 
73 
80 
82 
66 
70 
79 
84 
81 
105 
98 
82 
89 
122 
177 
184 
204 
209 
204 
229 
223 
223 
223 
223 
223 
223 
223 
224 
224 
224 
224 
224 
224 
224 
224 
224 
224 
223 
224 
224 
223 
224 
226 
225 
222 
220 
224 
223 
220 
224 
226 
227 
229 
217 
221 
207 
189 
175 
137 
93 
76 
87 
88 
84 
81 
85 
89 
89 
88 
84 
80 
85 
90 
85 
84 
88 
87 
77 
64 
74 
77 
71 
75 
84 
102 
68 
85 
82 
80 
74 
98 
116 
92 
123 
105 
149 
176 
183 
198 
212 
227 
228 
223 
223 
223 
223 
223 
223 
224 
224 
224 
224 
224 
224 
224 
224 
224 
224 
223 
224 
224 
224 
224 
225 
224 
222 
215 
223 
226 
220 
217 
220 
227 
231 
207 
187 
158 
131 
112 
98 
83 
70 
74 
80 
87 
81 
72 
84 
96 
91 
88 
85 
88 
90 
88 
91 
88 
76 
62 
58 
74 
74 
66 
73 
83 
98 
93 
67 
52 
64 
84 
90 
97 
78 
107 
133 
121 
154 
139 
180 
196 
224 
226 
223 
223 
223 
223 
223 
223 
224 
224 
224 
224 
224 
224 
224 
224 
224 
224 
224 
223 
224 
225 
224 
223 
223 
225 
221 
219 
221 
222 
224 
228 
221 
204 
167 
129 
98 
82 
71 
75 
80 
72 
71 
61 
66 
72 
68 
80 
93 
87 
88 
86 
85 
85 
86 
86 
77 
64 
67 
62 
78 
85 
69 
59 
70 
91 
94 
69 
75 
66 
74 
75 
73 
83 
98 
109 
106 
171 
153 
165 
181 
186 
215 
223 
223 
223 
223 
223 
223 
224 
224 
224 
224 
224 
224 
224 
224 
224 
224 
225 
223 
224 
227 
225 
220 
222 
228 
226 
215 
219 
227 
227 
221 
190 
145 
96 
83 
79 
75 
66 
71 
78 
72 
73 
68 
73 
76 
67 
62 
71 
81 
80 
79 
77 
78 
80 
74 
65 
62 
88 
83 
101 
121 
95 
58 
63 
85 
99 
90 
82 
53 
55 
76 
73 
81 
80 
78 
85 
159 
181 
153 
134 
149 
204 
223 
223 
223 
223 
223 
223 
224 
224 
224 
224 
224 
224 
224 
224 
224 
224 
225 
222 
224 
228 
225 
218 
221 
230 
228 
220 
226 
224 
199 
169 
120 
60 
57 
84 
105 
95 
74 
71 
73 
68 
66 
67 
68 
73 
76 
69 
67 
75 
76 
75 
72 
75 
76 
64 
58 
67 
83 
99 
126 
147 
115 
67 
59 
62 
83 
97 
78 
59 
57 
72 
72 
73 
67 
66 
104 
136 
178 
163 
161 
170 
202 
223 
223 
223 
223 
224 
224 
224 
224 
222 
225 
225 
223 
221 
221 
223 
225 
227 
224 
222 
224 
227 
229 
214 
217 
234 
234 
208 
181 
144 
98 
79 
77 
83 
90 
87 
79 
68 
66 
71 
64 
63 
62 
66 
72 
72 
68 
68 
73 
77 
70 
67 
77 
76 
66 
64 
60 
65 
97 
102 
120 
109 
75 
58 
61 
72 
85 
86 
63 
52 
59 
61 
60 
71 
78 
115 
133 
187 
213 
206 
190 
205 
223 
223 
223 
223 
224 
224 
224 
224 
222 
225 
224 
224 
226 
224 
221 
223 
217 
231 
225 
218 
227 
225 
222 
219 
222 
211 
164 
118 
89 
77 
85 
91 
82 
73 
62 
69 
76 
71 
66 
60 
63 
65 
67 
68 
69 
70 
71 
70 
73 
68 
66 
76 
78 
71 
70 
64 
67 
76 
75 
92 
96 
67 
59 
59 
61 
77 
77 
57 
54 
60 
56 
57 
61 
66 
98 
128 
176 
202 
209 
202 
210 
223 
223 
223 
223 
224 
224 
224 
224 
223 
226 
223 
225 
230 
225 
218 
222 
227 
229 
222 
219 
222 
218 
230 
216 
187 
150 
97 
75 
79 
80 
79 
74 
62 
74 
71 
69 
68 
64 
65 
68 
64 
68 
66 
61 
64 
72 
74 
70 
70 
66 
63 
70 
73 
72 
74 
66 
61 
71 
79 
85 
86 
63 
65 
58 
55 
70 
72 
57 
62 
69 
60 
62 
57 
57 
84 
126 
163 
182 
204 
207 
214 
223 
223 
223 
223 
224 
224 
224 
224 
224 
226 
223 
224 
229 
223 
217 
223 
228 
218 
226 
234 
225 
226 
213 
169 
118 
98 
78 
79 
83 
76 
68 
64 
65 
79 
71 
66 
71 
69 
65 
61 
65 
66 
63 
58 
62 
72 
74 
70 
67 
66 
61 
63 
63 
65 
70 
64 
57 
77 
92 
88 
80 
73 
77 
60 
55 
64 
70 
61 
63 
71 
66 
62 
55 
54 
82 
130 
162 
164 
199 
205 
211 
223 
223 
223 
223 
224 
224 
224 
224 
224 
226 
224 
224 
225 
222 
221 
228 
224 
220 
226 
230 
221 
227 
168 
115 
83 
84 
83 
75 
69 
71 
71 
69 
72 
71 
59 
66 
77 
67 
59 
60 
64 
62 
60 
62 
66 
68 
67 
65 
64 
67 
65 
65 
60 
59 
65 
60 
61 
72 
76 
78 
73 
86 
84 
63 
59 
57 
65 
62 
57 
66 
64 
57 
53 
54 
89 
133 
165 
160 
200 
207 
208 
223 
223 
223 
223 
224 
224 
224 
224 
224 
224 
225 
225 
222 
224 
228 
231 
225 
225 
220 
223 
215 
196 
108 
90 
96 
81 
75 
71 
70 
76 
72 
67 
58 
66 
64 
66 
67 
59 
61 
68 
62 
59 
60 
67 
69 
64 
59 
57 
60 
67 
71 
73 
65 
59 
63 
59 
65 
65 
65 
77 
74 
84 
76 
63 
59 
53 
61 
63 
63 
73 
72 
61 
55 
67 
97 
130 
156 
157 
194 
201 
207 
223 
223 
223 
223 
224 
224 
224 
224 
224 
222 
227 
226 
220 
225 
230 
224 
220 
225 
222 
214 
180 
141 
77 
79 
94 
75 
76 
77 
72 
69 
63 
66 
57 
65 
62 
61 
61 
63 
67 
62 
61 
57 
59 
64 
65 
60 
57 
57 
60 
66 
72 
77 
69 
60 
62 
59 
62 
64 
73 
79 
76 
73 
65 
59 
58 
57 
59 
65 
83 
93 
83 
78 
70 
89 
100 
118 
129 
147 
174 
185 
202 
223 
223 
223 
223 
224 
224 
224 
224 
225 
221 
227 
226 
217 
224 
229 
214 
228 
234 
225 
176 
108 
93 
90 
86 
84 
72 
74 
67 
62 
69 
64 
57 
63 
60 
59 
65 
61 
54 
60 
63 
61 
58 
57 
57 
59 
58 
59 
60 
63 
65 
69 
74 
67 
59 
60 
59 
59 
64 
75 
68 
72 
69 
64 
57 
59 
64 
59 
66 
98 
104 
83 
83 
82 
103 
98 
106 
104 
137 
157 
173 
193 
222 
223 
224 
224 
224 
224 
225 
225 
224 
224 
223 
225 
219 
229 
222 
222 
236 
217 
173 
118 
75 
90 
93 
71 
77 
74 
68 
65 
67 
70 
68 
64 
68 
65 
60 
58 
58 
55 
56 
63 
57 
57 
56 
56 
57 
58 
58 
58 
59 
57 
59 
66 
67 
61 
59 
60 
60 
64 
67 
68 
71 
72 
66 
59 
66 
69 
57 
66 
88 
77 
67 
82 
76 
83 
84 
81 
91 
131 
146 
160 
186 
223 
223 
224 
224 
224 
224 
224 
225 
220 
228 
220 
224 
226 
225 
225 
223 
223 
162 
115 
97 
91 
90 
84 
64 
76 
71 
65 
63 
67 
71 
69 
65 
67 
64 
60 
59 
60 
57 
56 
61 
59 
60 
60 
59 
57 
56 
56 
57 
56 
57 
61 
67 
68 
63 
59 
58 
59 
62 
66 
68 
71 
72 
69 
63 
67 
72 
59 
56 
66 
65 
66 
80 
99 
99 
93 
100 
112 
129 
149 
166 
185 
223 
224 
224 
224 
224 
224 
224 
224 
225 
225 
219 
229 
232 
225 
233 
212 
158 
111 
96 
99 
98 
78 
76 
72 
75 
69 
63 
62 
66 
70 
67 
62 
63 
61 
57 
58 
61 
58 
55 
59 
58 
60 
62 
60 
57 
55 
55 
56 
56 
57 
58 
61 
64 
64 
60 
58 
59 
63 
66 
66 
67 
68 
66 
62 
70 
71 
63 
56 
55 
59 
73 
92 
115 
143 
145 
144 
130 
115 
156 
187 
192 
223 
224 
224 
224 
224 
223 
223 
224 
227 
221 
224 
225 
223 
226 
220 
159 
105 
92 
95 
97 
93 
84 
80 
68 
71 
68 
64 
63 
65 
66 
63 
59 
59 
57 
55 
56 
60 
57 
55 
57 
56 
59 
61 
60 
56 
55 
55 
57 
54 
55 
56 
60 
67 
71 
65 
57 
58 
62 
64 
63 
63 
65 
65 
63 
65 
58 
63 
65 
59 
61 
79 
102 
133 
170 
163 
154 
143 
125 
168 
181 
200 
223 
223 
224 
224 
224 
223 
223 
224 
221 
224 
229 
217 
222 
216 
169 
96 
96 
94 
90 
89 
81 
86 
78 
65 
65 
65 
65 
66 
66 
64 
63 
62 
60 
58 
55 
56 
59 
57 
55 
57 
57 
59 
60 
59 
56 
55 
55 
57 
52 
52 
56 
64 
76 
80 
70 
56 
55 
58 
61 
62 
64 
69 
72 
71 
63 
58 
76 
83 
78 
86 
102 
117 
150 
172 
151 
141 
145 
144 
185 
184 
212 
222 
223 
224 
224 
224 
223 
224 
224 
224 
226 
225 
228 
233 
186 
114 
91 
104 
97 
90 
94 
81 
77 
70 
72 
59 
61 
64 
67 
66 
64 
64 
66 
64 
62 
58 
58 
61 
58 
55 
59 
63 
61 
59 
58 
56 
56 
55 
55 
53 
52 
53 
60 
73 
79 
73 
63 
58 
63 
66 
68 
71 
76 
77 
75 
60 
67 
95 
100 
103 
128 
140 
141 
159 
162 
143 
135 
135 
145 
189 
201 
214 
221 
222 
223 
224 
224 
224 
224 
225 
229 
228 
220 
229 
209 
140 
95 
113 
104 
91 
84 
89 
86 
77 
68 
66 
59 
60 
62 
64 
63 
60 
61 
63 
64 
63 
61 
62 
64 
61 
59 
64 
67 
62 
57 
55 
56 
57 
56 
54 
56 
53 
53 
59 
69 
75 
74 
70 
69 
73 
76 
77 
79 
80 
76 
70 
57 
71 
106 
114 
123 
154 
160 
155 
160 
145 
133 
131 
130 
152 
180 
191 
196 
221 
222 
223 
224 
224 
224 
225 
225 
222 
232 
221 
208 
148 
100 
102 
112 
85 
85 
86 
73 
72 
67 
69 
64 
62 
60 
60 
60 
59 
55 
54 
55 
60 
61 
61 
64 
66 
63 
62 
68 
68 
61 
55 
54 
55 
57 
56 
53 
53 
55 
62 
71 
77 
77 
73 
69 
74 
78 
82 
84 
85 
83 
76 
68 
67 
78 
116 
130 
142 
165 
165 
161 
150 
140 
143 
143 
134 
164 
180 
187 
182 
224 
225 
219 
226 
220 
218 
229 
224 
220 
229 
198 
155 
99 
89 
99 
89 
86 
79 
73 
68 
62 
57 
59 
64 
61 
59 
58 
58 
55 
53 
53 
56 
57 
60 
61 
60 
61 
63 
65 
64 
65 
61 
55 
55 
61 
60 
55 
55 
55 
62 
67 
67 
67 
70 
69 
66 
71 
72 
75 
87 
87 
74 
74 
78 
77 
98 
124 
151 
162 
159 
156 
149 
144 
147 
153 
133 
134 
170 
171 
197 
185 
221 
221 
220 
221 
221 
217 
217 
221 
210 
161 
115 
107 
97 
97 
101 
92 
84 
77 
71 
68 
62 
56 
54 
57 
59 
58 
57 
57 
55 
53 
53 
56 
60 
63 
62 
59 
60 
64 
66 
65 
67 
62 
55 
56 
62 
61 
55 
54 
64 
69 
72 
68 
63 
62 
65 
69 
76 
72 
71 
82 
80 
72 
81 
91 
109 
126 
143 
160 
163 
152 
146 
139 
141 
146 
151 
119 
120 
165 
180 
203 
206 
221 
221 
225 
221 
223 
221 
218 
227 
173 
101 
73 
87 
100 
99 
94 
84 
77 
70 
63 
61 
60 
56 
54 
54 
55 
55 
55 
55 
54 
53 
54 
56 
63 
66 
64 
59 
61 
68 
71 
68 
69 
63 
55 
55 
62 
62 
59 
58 
80 
85 
90 
86 
74 
64 
65 
71 
71 
73 
79 
89 
81 
73 
91 
108 
134 
151 
163 
168 
158 
136 
127 
125 
140 
139 
142 
107 
113 
160 
177 
185 
205 
223 
224 
228 
224 
223 
221 
227 
220 
124 
80 
89 
96 
96 
93 
83 
68 
74 
65 
57 
55 
57 
57 
56 
56 
52 
52 
53 
53 
53 
53 
54 
56 
63 
67 
67 
62 
65 
74 
77 
72 
71 
66 
57 
55 
61 
64 
66 
70 
85 
87 
91 
89 
78 
67 
67 
73 
71 
81 
92 
94 
77 
75 
104 
126 
146 
167 
175 
173 
154 
127 
116 
116 
119 
124 
146 
121 
122 
156 
180 
193 
214 
226 
225 
221 
225 
225 
219 
227 
184 
92 
75 
102 
94 
84 
89 
81 
63 
73 
65 
58 
55 
56 
57 
55 
54 
53 
53 
53 
53 
53 
52 
53 
54 
63 
69 
71 
69 
72 
79 
80 
75 
74 
72 
65 
62 
64 
65 
70 
77 
87 
83 
81 
80 
75 
70 
75 
85 
92 
96 
97 
89 
77 
93 
135 
157 
162 
179 
180 
174 
162 
140 
128 
126 
113 
107 
130 
133 
154 
184 
206 
219 
228 
226 
223 
215 
227 
235 
216 
207 
137 
84 
77 
101 
92 
76 
83 
80 
69 
61 
58 
55 
55 
56 
55 
53 
53 
53 
55 
56 
54 
52 
52 
53 
53 
62 
68 
74 
75 
77 
79 
78 
75 
78 
79 
75 
70 
69 
68 
71 
80 
91 
86 
81 
79 
75 
73 
80 
89 
98 
90 
86 
88 
94 
124 
163 
172 
173 
185 
175 
168 
172 
164 
152 
145 
133 
110 
117 
138 
181 
215 
222 
225 
229 
223 
224 
219 
226 
235 
194 
157 
90 
90 
85 
95 
90 
73 
77 
71 
65 
52 
52 
52 
53 
53 
53 
52 
52 
54 
56 
57 
56 
55 
55 
56 
56 
59 
65 
73 
78 
79 
77 
76 
76 
82 
82 
77 
73 
72 
72 
77 
87 
88 
87 
83 
76 
68 
66 
74 
84 
94 
81 
84 
107 
126 
150 
171 
163 
175 
189 
174 
162 
169 
168 
158 
150 
138 
139 
151 
167 
191 
215 
217 
226 
230 
220 
227 
225 
219 
221 
161 
103 
53 
99 
89 
83 
80 
68 
74 
63 
52 
53 
54 
54 
52 
50 
50 
52 
53 
53 
56 
58 
57 
57 
59 
60 
60 
55 
61 
71 
79 
79 
76 
75 
77 
83 
81 
74 
70 
72 
76 
85 
96 
90 
90 
84 
72 
60 
62 
78 
94 
112 
97 
108 
143 
162 
172 
178 
162 
176 
196 
181 
161 
161 
156 
147 
140 
137 
163 
183 
196 
206 
224 
217 
222 
224 
226 
228 
211 
225 
209 
128 
78 
66 
88 
94 
78 
71 
83 
74 
55 
56 
57 
57 
58 
58 
56 
54 
53 
54 
56 
56 
56 
58 
58 
58 
61 
65 
63 
63 
72 
82 
82 
79 
79 
79 
80 
78 
74 
72 
78 
88 
94 
93 
88 
92 
91 
76 
58 
61 
91 
122 
137 
108 
152 
167 
171 
180 
173 
175 
178 
183 
182 
165 
135 
129 
140 
132 
141 
158 
184 
210 
226 
230 
226 
221 
219 
227 
225 
217 
232 
192 
96 
86 
84 
86 
84 
77 
76 
78 
72 
60 
55 
57 
57 
56 
56 
55 
54 
56 
58 
58 
58 
56 
55 
55 
58 
63 
66 
66 
63 
67 
74 
76 
77 
79 
77 
75 
77 
74 
72 
83 
99 
103 
97 
94 
95 
95 
88 
76 
83 
119 
158 
157 
132 
181 
189 
185 
175 
191 
184 
188 
181 
163 
142 
137 
140 
146 
165 
195 
202 
212 
222 
228 
227 
222 
217 
223 
230 
221 
219 
237 
182 
83 
100 
91 
80 
69 
71 
76 
70 
69 
67 
58 
56 
56 
55 
52 
51 
52 
55 
57 
59 
61 
60 
56 
55 
57 
58 
57 
60 
58 
60 
65 
71 
78 
80 
74 
76 
81 
74 
67 
80 
101 
106 
100 
89 
97 
102 
96 
92 
109 
148 
183 
177 
184 
186 
197 
188 
171 
186 
182 
191 
171 
132 
108 
130 
140 
148 
201 
215 
216 
218 
221 
223 
225 
225 
225 
225 
224 
222 
219 
222 
161 
89 
104 
91 
82 
70 
69 
73 
66 
63 
63 
56 
51 
54 
55 
52 
51 
53 
55 
55 
59 
63 
64 
60 
58 
59 
57 
53 
59 
60 
63 
68 
73 
81 
81 
71 
74 
82 
76 
68 
78 
92 
97 
97 
83 
106 
117 
108 
109 
137 
171 
189 
193 
192 
190 
178 
179 
186 
175 
171 
159 
144 
108 
106 
144 
151 
165 
224 
225 
224 
223 
223 
224 
226 
226 
227 
225 
212 
230 
224 
192 
125 
95 
98 
95 
92 
86 
77 
73 
71 
61 
51 
47 
48 
53 
56 
54 
52 
54 
55 
53 
56 
60 
61 
58 
60 
66 
68 
65 
73 
75 
78 
78 
78 
82 
79 
69 
65 
76 
78 
78 
85 
86 
89 
100 
91 
117 
133 
130 
137 
164 
190 
198 
211 
204 
207 
191 
196 
180 
197 
137 
119 
122 
106 
143 
191 
188 
200 
231 
230 
229 
227 
226 
225 
225 
224 
224 
225 
213 
235 
224 
170 
114 
113 
93 
91 
95 
95 
81 
74 
79 
69 
51 
47 
51 
58 
60 
54 
52 
53 
54 
52 
54 
54 
53 
54 
61 
73 
82 
86 
84 
85 
86 
83 
79 
80 
78 
70 
64 
73 
75 
80 
88 
86 
92 
114 
103 
118 
136 
148 
161 
179 
195 
203 
192 
204 
207 
206 
208 
180 
178 
133 
126 
138 
132 
179 
223 
216 
221 
225 
223 
222 
221 
221 
222 
223 
224 
225 
225 
226 
226 
206 
154 
120 
125 
94 
82 
89 
86 
73 
67 
77 
77 
64 
57 
62 
67 
66 
57 
53 
59 
64 
63 
59 
59 
60 
65 
72 
81 
88 
91 
85 
84 
85 
84 
80 
80 
78 
71 
70 
76 
74 
80 
91 
88 
92 
115 
113 
125 
143 
163 
179 
188 
193 
195 
198 
199 
214 
199 
187 
172 
98 
136 
168 
184 
178 
201 
229 
223 
221 
222 
227 
225 
224 
223 
224 
224 
225 
225 
225 
233 
212 
185 
137 
115 
116 
93 
81 
85 
76 
62 
57 
68 
78 
75 
64 
68 
73 
70 
61 
61 
73 
84 
86 
70 
72 
77 
85 
89 
89 
86 
85 
85 
83 
85 
86 
83 
81 
76 
69 
71 
79 
78 
85 
98 
90 
83 
97 
125 
140 
159 
177 
192 
201 
196 
185 
195 
196 
192 
204 
194 
154 
124 
171 
195 
219 
216 
216 
232 
228 
221 
231 
224 
224 
224 
225 
226 
227 
226 
226 
225 
233 
191 
142 
125 
115 
101 
92 
79 
71 
74 
60 
52 
70 
90 
70 
67 
68 
75 
74 
63 
63 
82 
96 
94 
86 
75 
90 
85 
80 
93 
88 
84 
85 
85 
96 
92 
84 
70 
78 
83 
80 
83 
81 
92 
115 
121 
118 
122 
135 
177 
198 
186 
188 
203 
200 
195 
197 
187 
187 
205 
214 
181 
183 
209 
224 
224 
225 
227 
226 
224 
224 
226 
226 
226 
226 
226 
226 
226 
226 
226 
225 
220 
171 
105 
115 
104 
96 
77 
75 
77 
79 
65 
53 
64 
87 
74 
70 
78 
81 
77 
74 
84 
98 
95 
81 
76 
69 
85 
90 
89 
96 
93 
89 
88 
93 
101 
93 
83 
80 
86 
87 
81 
101 
110 
116 
140 
162 
161 
151 
166 
201 
202 
190 
183 
196 
195 
198 
198 
192 
185 
202 
226 
221 
222 
230 
232 
229 
226 
226 
226 
224 
223 
224 
225 
225 
225 
225 
225 
225 
225 
225 
225 
219 
173 
115 
113 
106 
72 
62 
66 
74 
76 
65 
54 
59 
87 
85 
78 
86 
95 
96 
93 
97 
99 
90 
80 
71 
66 
80 
95 
96 
95 
95 
92 
90 
93 
91 
88 
86 
96 
94 
84 
91 
129 
150 
147 
161 
185 
176 
143 
166 
200 
198 
182 
191 
193 
198 
191 
198 
209 
201 
205 
216 
225 
226 
224 
229 
225 
223 
224 
226 
225 
224 
223 
224 
224 
224 
224 
224 
224 
224 
224 
225 
224 
191 
145 
129 
122 
77 
69 
71 
81 
80 
70 
60 
58 
82 
84 
74 
81 
96 
101 
95 
89 
85 
81 
82 
78 
74 
81 
100 
101 
92 
93 
92 
91 
90 
86 
92 
90 
100 
97 
91 
123 
163 
187 
178 
177 
192 
177 
137 
165 
190 
191 
165 
199 
186 
195 
168 
196 
219 
219 
219 
216 
225 
226 
225 
222 
221 
222 
226 
228 
227 
224 
223 
224 
224 
224 
224 
224 
224 
224 
224 
223 
202 
171 
124 
126 
120 
97 
73 
78 
83 
79 
70 
68 
65 
85 
92 
83 
85 
91 
94 
91 
88 
85 
85 
86 
86 
82 
87 
103 
105 
94 
92 
92 
93 
95 
98 
107 
95 
98 
108 
123 
153 
182 
200 
193 
190 
199 
191 
168 
178 
179 
170 
158 
202 
190 
201 
178 
205 
219 
218 
228 
226 
230 
228 
226 
225 
225 
227 
229 
228 
225 
223 
223 
224 
224 
224 
224 
224 
224 
224 
224 
222 
173 
131 
104 
102 
105 
82 
64 
75 
84 
78 
71 
80 
80 
93 
104 
102 
92 
90 
95 
95 
88 
84 
87 
86 
84 
83 
90 
100 
104 
98 
91 
92 
97 
99 
107 
117 
113 
119 
138 
159 
169 
188 
201 
201 
200 
202 
201 
195 
187 
169 
155 
176 
208 
208 
212 
211 
219 
220 
218 
227 
225 
221 
221 
221 
226 
226 
225 
225 
224 
222 
223 
225 
224 
224 
224 
224 
224 
224 
224 
224 
223 
151 
113 
114 
90 
91 
67 
62 
78 
98 
93 
86 
101 
96 
91 
96 
100 
90 
85 
94 
97 
81 
75 
82 
82 
82 
82 
91 
93 
99 
102 
92 
96 
100 
106 
119 
124 
135 
151 
171 
178 
181 
196 
202 
199 
198 
195 
193 
198 
200 
182 
176 
205 
216 
218 
214 
222 
222 
222 
223 
227 
226 
220 
228 
228 
224 
222 
222 
223 
223 
223 
224 
225 
224 
224 
224 
224 
224 
224 
224 
224 
223 
124 
102 
110 
87 
72 
76 
63 
81 
102 
99 
96 
117 
108 
91 
90 
97 
95 
83 
93 
100 
85 
82 
91 
86 
86 
86 
95 
88 
95 
106 
96 
102 
101 
120 
140 
136 
147 
166 
187 
183 
182 
195 
192 
181 
180 
178 
179 
189 
207 
195 
203 
217 
221 
223 
223 
227 
226 
224 
224 
223 
227 
222 
230 
222 
226 
224 
223 
225 
227 
226 
224 
222 
224 
224 
224 
224 
224 
224 
224 
224 
223 
114 
105 
89 
74 
61 
68 
73 
98 
103 
98 
96 
113 
117 
98 
93 
102 
99 
100 
100 
91 
87 
90 
90 
88 
85 
85 
96 
87 
99 
113 
100 
126 
123 
151 
168 
167 
178 
176 
182 
187 
187 
181 
169 
145 
149 
175 
186 
193 
214 
219 
223 
222 
219 
219 
224 
228 
224 
224 
224 
224 
225 
225 
225 
226 
225 
225 
225 
225 
225 
225 
224 
224 
223 
224 
224 
224 
224 
224 
223 
223 
223 
110 
99 
96 
78 
69 
95 
95 
102 
92 
89 
93 
109 
110 
105 
107 
103 
96 
89 
95 
90 
84 
85 
90 
87 
84 
92 
96 
93 
113 
134 
132 
144 
156 
172 
201 
176 
191 
199 
172 
195 
193 
161 
124 
111 
147 
190 
203 
212 
219 
225 
226 
222 
220 
223 
225 
225 
224 
224 
224 
225 
225 
225 
225 
225 
225 
225 
225 
225 
225 
225 
224 
224 
223 
224 
224 
224 
224 
224 
223 
223 
223 
136 
98 
101 
97 
84 
100 
88 
82 
100 
89 
93 
105 
101 
103 
111 
99 
84 
79 
95 
92 
93 
97 
99 
86 
88 
94 
95 
106 
136 
158 
173 
184 
179 
180 
196 
181 
180 
171 
158 
175 
171 
135 
94 
102 
170 
219 
221 
224 
223 
228 
227 
221 
220 
226 
226 
221 
223 
224 
225 
225 
225 
225 
225 
225 
225 
225 
225 
225 
225 
225 
224 
224 
223 
223 
224 
224 
224 
224 
224 
223 
223 
173 
107 
107 
133 
116 
94 
82 
81 
106 
95 
94 
104 
101 
97 
101 
93 
82 
83 
99 
94 
110 
120 
113 
96 
101 
115 
131 
143 
167 
177 
182 
184 
168 
162 
179 
176 
145 
122 
132 
122 
111 
122 
120 
140 
197 
226 
218 
219 
224 
226 
223 
220 
221 
226 
226 
221 
223 
224 
225 
226 
226 
226 
225 
224 
225 
225 
225 
225 
225 
225 
224 
224 
223 
223 
224 
224 
224 
224 
224 
224 
224 
206 
150 
141 
170 
141 
92 
93 
95 
103 
105 
101 
106 
108 
102 
102 
101 
98 
93 
100 
100 
128 
136 
119 
116 
124 
144 
171 
169 
184 
183 
172 
173 
135 
141 
175 
165 
125 
106 
110 
95 
91 
152 
188 
199 
217 
222 
217 
221 
226 
222 
220 
222 
224 
224 
224 
223 
223 
224 
225 
226 
226 
226 
225 
224 
225 
225 
225 
225 
225 
224 
224 
224 
223 
223 
224 
224 
224 
224 
224 
224 
224 
220 
202 
183 
182 
145 
94 
102 
98 
103 
111 
103 
98 
99 
97 
105 
113 
116 
101 
109 
128 
152 
152 
127 
139 
149 
154 
177 
181 
192 
162 
140 
157 
106 
132 
144 
148 
132 
104 
125 
132 
147 
200 
229 
229 
226 
226 
228 
225 
227 
222 
221 
225 
226 
223 
222 
225 
223 
224 
225 
225 
225 
225 
225 
225 
225 
225 
225 
225 
225 
224 
224 
223 
223 
223 
223 
224 
224 
224 
224 
224 
224 
217 
222 
200 
180 
156 
110 
107 
102 
104 
102 
102 
111 
104 
96 
114 
134 
142 
124 
139 
163 
165 
170 
150 
162 
167 
165 
167 
174 
188 
133 
102 
114 
101 
134 
123 
129 
133 
123 
173 
189 
207 
221 
227 
227 
221 
223 
230 
220 
223 
223 
224 
225 
225 
223 
223 
225 
224 
224 
224 
225 
225 
225 
225 
225 
226 
226 
225 
225 
225 
224 
224 
223 
223 
223 
223 
224 
224 
224 
224 
224 
224 
229 
229 
207 
186 
176 
126 
102 
103 
107 
95 
117 
155 
145 
123 
144 
171 
176 
156 
171 
182 
161 
181 
173 
180 
180 
183 
151 
133 
154 
120 
107 
104 
110 
137 
147 
117 
121 
167 
211 
215 
230 
224 
224 
230 
217 
214 
229 
224 
218 
223 
226 
224 
222 
224 
225 
224 
224 
224 
224 
224 
225 
225 
225 
226 
226 
226 
226 
225 
225 
224 
224 
223 
222 
223 
223 
224 
224 
224 
224 
224 
224 
221 
218 
214 
198 
170 
143 
123 
109 
111 
123 
145 
181 
186 
169 
176 
188 
175 
172 
193 
189 
175 
204 
192 
198 
192 
189 
159 
98 
144 
113 
120 
123 
78 
132 
148 
157 
194 
203 
231 
221 
220 
220 
224 
226 
224 
224 
226 
224 
224 
224 
224 
224 
224 
224 
224 
224 
224 
224 
225 
225 
225 
225 
225 
225 
225 
225 
224 
224 
224 
223 
223 
224 
223 
223 
223 
223 
223 
224 
224 
224 
224 
226 
224 
221 
208 
187 
171 
159 
147 
121 
149 
170 
182 
179 
176 
185 
187 
173 
176 
201 
193 
189 
199 
200 
207 
206 
193 
164 
122 
150 
109 
99 
116 
110 
150 
159 
174 
207 
218 
230 
219 
226 
224 
226 
228 
227 
228 
228 
224 
224 
224 
224 
224 
224 
224 
224 
224 
224 
224 
225 
225 
225 
225 
225 
225 
225 
225 
224 
224 
224 
223 
224 
224 
223 
223 
223 
223 
223 
224 
224 
224 
224 
227 
226 
224 
213 
199 
191 
183 
171 
123 
157 
182 
188 
181 
178 
183 
182 
193 
190 
172 
182 
177 
197 
196 
207 
202 
204 
161 
125 
161 
130 
93 
129 
173 
195 
198 
209 
228 
234 
227 
222 
228 
224 
225 
226 
226 
227 
227 
222 
223 
224 
224 
224 
224 
224 
224 
224 
224 
224 
225 
225 
225 
225 
225 
225 
225 
225 
224 
224 
224 
224 
224 
224 
224 
223 
223 
223 
223 
223 
224 
224 
224 
226 
227 
226 
217 
206 
201 
192 
179 
150 
160 
172 
181 
177 
173 
183 
196 
211 
201 
149 
175 
178 
203 
202 
214 
192 
171 
122 
99 
144 
144 
118 
156 
209 
217 
222 
223 
231 
226 
217 
220 
227 
223 
223 
224 
223 
224 
224 
221 
223 
223 
224 
224 
225 
224 
224 
224 
224 
224 
225 
225 
225 
225 
225 
225 
225 
225 
224 
224 
224 
224 
224 
224 
224 
223 
223 
223 
223 
223 
224 
224 
224 
226 
227 
228 
223 
216 
213 
206 
194 
179 
178 
182 
186 
186 
185 
185 
188 
178 
181 
150 
183 
205 
203 
212 
217 
191 
111 
83 
91 
125 
152 
167 
182 
215 
213 
223 
217 
228 
219 
218 
225 
226 
223 
225 
225 
222 
223 
225 
224 
223 
223 
224 
225 
225 
225 
224 
224 
224 
224 
225 
225 
225 
225 
225 
225 
225 
224 
224 
224 
224 
224 
224 
224 
224 
223 
223 
223 
223 
223 
223 
223 
224 
225 
224 
225 
223 
218 
217 
214 
208 
193 
202 
207 
196 
196 
202 
183 
161 
148 
163 
145 
196 
217 
208 
211 
210 
187 
120 
111 
128 
162 
194 
216 
210 
227 
219 
226 
218 
233 
224 
227 
228 
224 
223 
225 
225 
222 
223 
226 
225 
223 
223 
224 
225 
225 
225 
224 
223 
224 
224 
225 
225 
225 
225 
225 
225 
224 
224 
224 
224 
224 
224 
224 
224 
224 
223 
223 
223 
223 
223 
223 
223 
223 
225 
222 
223 
224 
219 
216 
215 
213 
210 
212 
211 
193 
191 
200 
186 
169 
168 
175 
146 
200 
214 
214 
211 
208 
192 
181 
177 
185 
213 
231 
233 
227 
229 
225 
224 
220 
228 
223 
225 
219 
224 
222 
223 
224 
222 
223 
225 
222 
222 
223 
224 
225 
225 
225 
224 
223 
224 
224 
225 
225 
225 
225 
225 
225 
224 
224 
224 
224 
224 
224 
224 
224 
224 
223 
223 
223 
223 
223 
223 
223 
223 
226 
223 
226 
230 
226 
221 
220 
219 
213 
204 
206 
204 
201 
197 
186 
189 
194 
185 
158 
187 
211 
199 
214 
209 
214 
214 
213 
223 
221 
220 
223 
225 
217 
222 
219 
221 
220 
220 
223 
217 
227 
223 
223 
225 
224 
225 
225 
221 
222 
223 
224 
225 
225 
225 
224 
223 
224 
224 
225 
225 
225 
225 
225 
225 
224 
224 
224 
224 
224 
224 
224 
224 
224 
223 
223 
223 
222 
223 
223 
223 
223 
224 
224 
224 
224 
224 
224 
224 
224 
229 
219 
216 
217 
208 
193 
189 
196 
208 
206 
186 
193 
218 
206 
212 
216 
220 
228 
233 
231 
226 
223 
222 
222 
223 
223 
224 
225 
225 
225 
224 
224 
224 
224 
224 
224 
224 
224 
224 
224 
222 
224 
225 
226 
225 
224 
223 
223 
224 
224 
224 
224 
224 
225 
225 
226 
224 
224 
224 
224 
224 
224 
224 
224 
223 
223 
223 
223 
223 
223 
223 
223 
224 
224 
224 
224 
224 
224 
224 
224 
223 
227 
220 
213 
208 
203 
199 
203 
210 
214 
219 
200 
214 
227 
219 
215 
220 
224 
225 
223 
218 
216 
219 
223 
225 
223 
223 
224 
225 
225 
225 
224 
224 
224 
224 
224 
224 
224 
224 
224 
224 
223 
224 
225 
225 
225 
224 
223 
223 
224 
224 
224 
224 
224 
224 
225 
225 
224 
224 
224 
224 
224 
224 
224 
224 
223 
223 
223 
223 
223 
223 
223 
223 
224 
225 
224 
224 
224 
223 
223 
223 
223 
224 
225 
223 
218 
216 
219 
223 
223 
220 
226 
216 
224 
235 
222 
219 
222 
226 
225 
222 
221 
221 
224 
224 
223 
223 
223 
224 
225 
225 
225 
224 
224 
224 
224 
224 
224 
224 
224 
224 
224 
223 
224 
225 
225 
224 
223 
223 
223 
223 
223 
223 
223 
223 
224 
224 
225 
224 
224 
224 
224 
224 
224 
224 
224 
223 
223 
223 
223 
223 
223 
223 
223 
224 
225 
224 
224 
224 
223 
223 
222 
222 
219 
224 
226 
224 
224 
226 
225 
222 
224 
224 
226 
217 
237 
214 
224 
223 
225 
225 
226 
227 
228 
227 
223 
220 
223 
223 
224 
225 
225 
225 
224 
224 
224 
224 
224 
224 
224 
224 
224 
224 
224 
224 
225 
224 
224 
223 
223 
223 
223 
223 
223 
223 
223 
223 
224 
224 
224 
224 
224 
224 
224 
224 
224 
224 
224 
224 
224 
224 
224 
224 
224 
224 
224 
225 
224 
224 
224 
223 
223 
223 
223 
223 
223 
222 
222 
222 
222 
223 
224 
225 
224 
229 
216 
233 
215 
226 
226 
224 
223 
222 
222 
221 
221 
221 
222 
223 
223 
224 
225 
225 
225 
224 
224 
224 
224 
224 
224 
224 
224 
224 
224 
224 
224 
224 
224 
223 
222 
223 
224 
223 
223 
223 
223 
223 
223 
223 
224 
224 
224 
224 
224 
224 
224 
224 
224 
224 
224 
224 
224 
224 
224 
224 
224 
224 
224 
224 
224 
224 
224 
224 
224 
224 
227 
224 
223 
225 
225 
223 
224 
227 
222 
224 
225 
223 
225 
223 
223 
226 
222 
222 
223 
223 
222 
221 
222 
225 
223 
223 
224 
225 
225 
225 
224 
224 
224 
224 
224 
224 
224 
224 
224 
224 
225 
225 
224 
223 
222 
222 
223 
224 
223 
223 
223 
223 
223 
223 
223 
224 
224 
224 
224 
224 
224 
224 
224 
224 
224 
224 
224 
224 
224 
224 
224 
224 
224 
224 
224 
224 
224 
225 
225 
225 
225 
223 
222 
222 
225 
225 
223 
222 
222 
222 
224 
223 
225 
222 
226 
222 
224 
222 
223 
225 
229 
228 
225 
224 
224 
223 
223 
224 
225 
225 
225 
224 
224 
224 
224 
224 
224 
224 
224 
224 
224 
225 
225 
224 
223 
222 
222 
223 
224 
224 
224 
223 
223 
223 
223 
224 
224 
224 
224 
224 
224 
224 
224 
224 
224 
224 
224 
224 
224 
224 
224 
224 
224 
224 
224 
224 
224 
225 
225 
225 
226 
226 
227 
226 
224 
223 
223 
225 
226 
225 
227 
223 
227 
221 
226 
225 
226 
224 
225 
223 
223 
225 
225 
223 
222 
223 
223 
223 
224 
225 
225 
225 
224 
224 
224 
224 
224 
224 
224 
224 
224 
224 
225 
225 
224 
222 
221 
222 
223 
224 
224 
224 
224 
223 
223 
224 
224 
224 
224 
224 
224 
224 
224 
224 
224 
224 
224 
224 
224 
224 
224 
224 
224 
224 
224 
224 
224 
224 
224 
224 
224 
224 
224 
225 
225 
225 
224 
224 
224 
224 
224 
224 
224 
224 
224 
224 
224 
224 
224 
224 
224 
224 
224 
224 
224 
224 
224 
224 
224 
224 
224 
224 
224 
224 
224 
224 
224 
224 
224 
224 
224 
224 
224 
226 
225 
223 
222 
222 
223 
224 
225 
224 
224 
224 
224 
224 
224 
224 
224 
224 
224 
224 
224 
224 
224 
225 
225 
224 
224 
224 
224 
224 
224 
224 
224 
224 
224 
224 
224 
224 
224 
224 
224 
224 
225 
225 
225 
224 
224 
224 
224 
224 
224 
224 
224 
224 
224 
224 
224 
224 
224 
224 
224 
224 
224 
224 
224 
224 
224 
224 
224 
224 
224 
224 
224 
224 
224 
224 
224 
224 
224 
224 
224 
224 
226 
225 
223 
222 
222 
223 
224 
225 
224 
224 
224 
224 
224 
224 
224 
224 
224 
224 
224 
224 
224 
224 
225 
225 
224 
224 
224 
224 
224 
224 
224 
224 
224 
224 
224 
224 
224 
224 
224 
224 
224 
224 
224 
224 
224 
224 
224 
224 
224 
224 
224 
224 
224 
224 
224 
224 
224 
224 
224 
224 
224 
224 
224 
224 
224 
224 
224 
224 
224 
224 
224 
224 
224 
224 
224 
224 
224 
224 
224 
224 
224 
225 
224 
223 
222 
222 
223 
224 
225 
224 
224 
224 
224 
224 
224 
224 
224 
224 
224 
224 
224 
224 
224 
225 
225 
224 
224 
224 
224 
224 
224 
224 
224 
224 
224 
224 
224 
224 
224 
224 
224 
224 
224 
224 
224 
224 
224 
224 
224 
224 
224 
224 
224 
224 
224 
224 
224 
224 
224 
224 
224 
224 
224 
224 
224 
224 
224 
224 
224 
224 
224 
224 
224 
224 
224 
224 
224 
224 
224 
224 
224 
224 
225 
224 
223 
223 
223 
223 
224 
225 
224 
224 
224 
224 
224 
224 
224 
224 
224 
224 
224 
224 
224 
224 
225 
225 
225 
225 
224 
224 
224 
224 
224 
224 
224 
224 
224 
224 
224 
224 
224 
224 
224 
224 
224 
224 
224 
224 
224 
224 
224 
224 
224 
224 
224 
224 
224 
224 
224 
224 
224 
224 
224 
224 
224 
224 
224 
224 
224 
224 
224 
224 
224 
224 
224 
224 
224 
224 
224 
224 
224 
224 
224 
224 
224 
223 
223 
223 
223 
224 
225 
224 
224 
224 
224 
224 
224 
224 
224 
224 
224 
224 
224 
224 
224 
225 
225 
225 
225 
225 
225 
224 
224 
224 
224 
224 
