P2
# Created by MsrVolt
116 59
255
214 
215 
215 
215 
214 
213 
212 
212 
214 
212 
213 
214 
214 
213 
214 
216 
212 
218 
217 
214 
216 
216 
213 
212 
215 
213 
214 
215 
214 
213 
215 
215 
216 
216 
213 
214 
218 
216 
212 
215 
214 
216 
213 
218 
216 
214 
221 
214 
216 
218 
219 
216 
216 
220 
218 
212 
216 
218 
214 
218 
217 
218 
217 
217 
218 
218 
224 
214 
217 
220 
220 
217 
217 
219 
215 
213 
218 
217 
214 
216 
214 
214 
215 
216 
217 
217 
218 
218 
217 
218 
218 
218 
216 
216 
217 
219 
217 
217 
217 
217 
217 
217 
217 
217 
217 
217 
217 
217 
217 
217 
217 
217 
217 
217 
217 
217 
213 
213 
213 
213 
213 
214 
214 
214 
215 
213 
213 
215 
215 
214 
213 
214 
217 
215 
212 
213 
216 
214 
215 
222 
214 
219 
215 
211 
216 
219 
216 
214 
213 
216 
215 
214 
214 
213 
213 
216 
221 
219 
212 
214 
214 
213 
220 
216 
219 
216 
220 
221 
216 
218 
223 
220 
212 
221 
219 
219 
217 
222 
218 
220 
215 
217 
211 
222 
225 
217 
216 
218 
217 
218 
219 
218 
218 
217 
216 
215 
214 
215 
217 
218 
217 
216 
215 
216 
217 
218 
218 
218 
217 
217 
217 
217 
217 
217 
217 
217 
217 
217 
217 
217 
217 
217 
217 
217 
217 
217 
217 
217 
217 
217 
217 
217 
212 
212 
212 
212 
212 
213 
214 
215 
214 
213 
213 
215 
217 
215 
214 
213 
208 
214 
219 
218 
214 
209 
203 
200 
214 
219 
214 
211 
217 
217 
211 
211 
221 
220 
217 
216 
221 
225 
221 
215 
220 
215 
212 
220 
222 
216 
221 
225 
213 
209 
217 
221 
213 
213 
219 
219 
212 
225 
228 
217 
216 
223 
216 
219 
218 
224 
216 
229 
214 
206 
218 
217 
217 
213 
217 
220 
216 
216 
218 
216 
214 
217 
220 
220 
220 
218 
218 
217 
216 
216 
216 
217 
218 
218 
217 
216 
217 
217 
217 
217 
217 
217 
217 
217 
217 
217 
217 
217 
217 
217 
217 
217 
217 
217 
217 
217 
213 
213 
212 
212 
212 
212 
212 
212 
213 
213 
214 
215 
216 
215 
215 
215 
221 
209 
202 
208 
220 
230 
229 
221 
214 
213 
216 
220 
218 
213 
214 
218 
220 
217 
214 
213 
216 
220 
213 
199 
214 
209 
210 
222 
224 
211 
206 
211 
222 
224 
220 
213 
209 
208 
212 
219 
204 
212 
225 
202 
213 
219 
217 
220 
203 
221 
208 
207 
219 
225 
227 
215 
225 
213 
215 
221 
217 
215 
218 
217 
213 
215 
216 
218 
219 
220 
219 
217 
216 
215 
215 
216 
218 
219 
218 
218 
217 
217 
217 
217 
217 
217 
217 
217 
217 
217 
217 
217 
217 
217 
217 
217 
217 
217 
217 
217 
212 
212 
213 
212 
212 
211 
211 
210 
212 
214 
215 
214 
213 
214 
215 
216 
215 
214 
222 
224 
212 
203 
208 
214 
206 
203 
214 
218 
207 
209 
220 
219 
211 
216 
222 
221 
217 
219 
220 
213 
224 
220 
212 
207 
211 
206 
187 
176 
210 
213 
185 
151 
144 
137 
132 
143 
148 
142 
168 
140 
169 
175 
187 
195 
168 
204 
207 
184 
211 
207 
201 
210 
229 
216 
212 
219 
220 
217 
215 
216 
215 
215 
214 
214 
217 
220 
219 
215 
218 
216 
215 
215 
217 
218 
218 
217 
217 
217 
217 
217 
217 
217 
217 
217 
217 
217 
217 
217 
217 
217 
217 
217 
217 
217 
217 
217 
211 
211 
212 
213 
212 
212 
211 
211 
213 
215 
215 
213 
212 
213 
214 
215 
215 
215 
217 
212 
211 
224 
227 
212 
214 
213 
222 
220 
210 
217 
224 
211 
205 
204 
209 
207 
199 
200 
202 
195 
176 
176 
156 
130 
138 
151 
129 
105 
130 
143 
119 
92 
96 
99 
100 
116 
122 
97 
128 
101 
132 
138 
160 
180 
151 
161 
193 
173 
160 
140 
171 
202 
209 
208 
197 
197 
213 
216 
211 
214 
222 
222 
219 
217 
219 
222 
222 
218 
219 
219 
217 
217 
217 
217 
216 
216 
217 
217 
217 
217 
217 
217 
217 
217 
217 
217 
217 
217 
217 
217 
217 
217 
217 
217 
217 
217 
211 
211 
211 
212 
212 
212 
212 
212 
212 
213 
212 
212 
214 
216 
215 
212 
210 
220 
228 
216 
203 
210 
211 
191 
198 
193 
192 
199 
205 
199 
182 
167 
156 
143 
139 
134 
124 
124 
124 
115 
110 
112 
96 
71 
81 
99 
86 
75 
84 
94 
87 
74 
78 
88 
101 
116 
128 
85 
110 
87 
99 
106 
128 
162 
157 
124 
140 
149 
131 
109 
161 
199 
180 
197 
176 
160 
187 
204 
200 
206 
215 
217 
217 
214 
215 
219 
221 
219 
218 
219 
219 
219 
218 
217 
216 
216 
217 
217 
217 
217 
217 
217 
217 
217 
217 
217 
217 
217 
217 
217 
217 
217 
217 
217 
217 
217 
213 
212 
212 
211 
211 
211 
212 
213 
210 
209 
208 
210 
216 
220 
218 
212 
212 
193 
182 
168 
138 
122 
129 
134 
129 
116 
109 
134 
159 
133 
93 
86 
79 
68 
69 
69 
60 
65 
78 
79 
83 
87 
84 
72 
79 
87 
84 
98 
85 
82 
79 
69 
62 
75 
101 
117 
132 
78 
95 
76 
70 
76 
96 
139 
159 
137 
115 
133 
138 
101 
140 
204 
167 
196 
165 
131 
163 
190 
188 
196 
195 
202 
205 
203 
203 
209 
213 
214 
215 
217 
220 
221 
220 
218 
217 
217 
217 
217 
217 
217 
217 
217 
217 
217 
217 
217 
217 
217 
217 
217 
217 
217 
217 
217 
217 
217 
210 
211 
213 
213 
212 
211 
212 
212 
208 
204 
207 
221 
211 
208 
209 
217 
178 
117 
81 
72 
60 
66 
83 
83 
80 
61 
60 
82 
88 
69 
55 
58 
61 
61 
61 
65 
72 
77 
76 
72 
75 
67 
75 
83 
72 
63 
70 
78 
68 
74 
77 
72 
70 
81 
98 
108 
128 
78 
87 
82 
67 
89 
97 
101 
123 
125 
106 
136 
122 
99 
120 
169 
165 
185 
162 
149 
162 
152 
189 
181 
178 
176 
181 
183 
173 
179 
199 
195 
204 
210 
215 
224 
218 
214 
222 
213 
215 
219 
219 
216 
218 
218 
215 
216 
217 
217 
217 
217 
217 
217 
216 
216 
217 
217 
217 
217 
213 
213 
214 
213 
212 
212 
213 
214 
207 
216 
210 
215 
210 
203 
179 
127 
94 
72 
63 
66 
62 
62 
70 
75 
77 
77 
71 
63 
65 
71 
68 
59 
65 
64 
63 
66 
73 
79 
78 
73 
70 
63 
68 
75 
68 
62 
68 
74 
69 
75 
80 
76 
73 
84 
99 
103 
117 
79 
85 
80 
66 
82 
91 
95 
85 
99 
89 
108 
99 
91 
101 
128 
153 
189 
157 
168 
164 
124 
181 
185 
162 
163 
162 
157 
146 
158 
185 
189 
197 
200 
214 
221 
218 
217 
218 
218 
220 
213 
215 
219 
212 
217 
226 
216 
217 
217 
217 
217 
217 
217 
217 
217 
217 
217 
217 
217 
214 
214 
214 
213 
213 
214 
215 
217 
214 
211 
195 
225 
220 
135 
86 
76 
68 
70 
70 
70 
67 
63 
64 
71 
74 
78 
76 
67 
63 
67 
69 
66 
69 
66 
63 
65 
71 
76 
74 
70 
69 
63 
64 
69 
65 
63 
67 
69 
67 
71 
81 
80 
77 
90 
104 
99 
105 
86 
86 
80 
68 
76 
85 
87 
72 
82 
75 
78 
73 
78 
78 
94 
118 
124 
142 
143 
147 
137 
127 
160 
157 
174 
182 
172 
154 
160 
187 
195 
184 
177 
186 
196 
218 
231 
218 
218 
217 
219 
223 
229 
216 
209 
221 
215 
218 
218 
218 
218 
218 
217 
217 
217 
217 
217 
217 
217 
214 
214 
213 
213 
214 
215 
217 
218 
192 
221 
232 
201 
132 
71 
73 
58 
70 
69 
65 
61 
61 
65 
67 
68 
70 
70 
74 
77 
73 
66 
67 
74 
70 
68 
65 
65 
68 
71 
71 
69 
70 
66 
65 
67 
67 
66 
66 
65 
62 
65 
77 
80 
77 
93 
106 
96 
94 
89 
82 
77 
70 
71 
79 
80 
81 
76 
71 
70 
65 
69 
63 
80 
87 
104 
113 
114 
116 
118 
112 
139 
147 
157 
161 
160 
160 
174 
185 
173 
175 
188 
182 
174 
198 
207 
197 
212 
228 
225 
203 
207 
220 
215 
217 
219 
218 
218 
218 
218 
218 
218 
218 
218 
217 
217 
217 
217 
214 
214 
214 
214 
215 
215 
215 
215 
210 
219 
196 
130 
80 
62 
75 
72 
69 
64 
64 
63 
62 
70 
72 
61 
65 
71 
73 
70 
68 
71 
73 
73 
70 
70 
70 
69 
69 
69 
71 
74 
70 
68 
66 
67 
70 
69 
66 
64 
63 
63 
74 
76 
72 
86 
97 
85 
80 
81 
71 
68 
68 
66 
72 
73 
75 
68 
71 
71 
66 
66 
56 
69 
79 
107 
88 
101 
99 
91 
99 
100 
122 
140 
156 
164 
164 
174 
177 
154 
169 
202 
176 
154 
175 
177 
175 
196 
221 
220 
210 
219 
228 
217 
215 
218 
219 
218 
218 
218 
218 
218 
218 
218 
217 
217 
217 
217 
215 
214 
214 
215 
215 
214 
212 
210 
225 
190 
113 
66 
87 
85 
64 
71 
74 
69 
74 
74 
66 
67 
68 
59 
64 
69 
71 
68 
68 
71 
71 
67 
67 
69 
71 
71 
68 
67 
70 
75 
69 
69 
67 
69 
74 
71 
66 
68 
68 
66 
71 
70 
65 
73 
80 
71 
69 
70 
63 
62 
66 
65 
69 
72 
68 
64 
68 
64 
59 
62 
56 
58 
65 
70 
73 
80 
78 
76 
61 
67 
77 
106 
139 
145 
130 
142 
167 
160 
162 
198 
172 
153 
171 
172 
176 
191 
178 
179 
213 
238 
223 
212 
216 
215 
218 
218 
218 
218 
218 
218 
218 
218 
217 
217 
217 
217 
215 
214 
214 
214 
214 
213 
211 
210 
217 
128 
67 
79 
75 
60 
65 
66 
61 
64 
67 
66 
62 
58 
58 
63 
67 
67 
69 
71 
72 
69 
66 
64 
65 
67 
69 
69 
66 
63 
65 
69 
65 
66 
64 
66 
71 
65 
61 
68 
67 
64 
65 
64 
60 
63 
66 
63 
64 
63 
62 
63 
65 
65 
65 
72 
69 
63 
62 
58 
57 
58 
58 
58 
57 
62 
67 
69 
56 
55 
62 
76 
62 
71 
90 
94 
85 
120 
168 
170 
151 
182 
189 
175 
165 
160 
169 
184 
162 
135 
167 
203 
210 
223 
225 
218 
218 
218 
218 
218 
218 
218 
217 
217 
217 
217 
217 
217 
214 
213 
213 
213 
214 
214 
213 
212 
198 
110 
54 
79 
59 
53 
71 
56 
63 
71 
69 
68 
70 
59 
57 
70 
71 
73 
71 
66 
67 
70 
70 
66 
66 
67 
68 
68 
65 
60 
60 
63 
60 
61 
58 
60 
63 
56 
55 
62 
61 
60 
59 
59 
59 
60 
62 
64 
63 
59 
63 
64 
64 
63 
61 
70 
67 
57 
57 
60 
60 
57 
60 
62 
65 
64 
72 
69 
62 
67 
70 
69 
60 
65 
85 
87 
69 
98 
146 
145 
132 
142 
171 
171 
154 
153 
153 
156 
180 
143 
160 
189 
214 
230 
217 
216 
218 
218 
218 
218 
217 
217 
217 
217 
217 
217 
217 
217 
214 
215 
218 
208 
219 
216 
211 
223 
176 
80 
54 
64 
63 
59 
67 
57 
61 
62 
67 
72 
69 
63 
61 
64 
69 
76 
76 
72 
70 
65 
62 
68 
66 
68 
69 
67 
63 
60 
60 
60 
60 
63 
64 
60 
56 
56 
56 
56 
58 
58 
58 
60 
62 
62 
61 
60 
61 
59 
61 
64 
64 
61 
61 
64 
60 
60 
60 
59 
58 
58 
59 
59 
59 
61 
64 
63 
61 
62 
62 
62 
63 
76 
84 
83 
79 
81 
94 
110 
110 
96 
133 
138 
111 
135 
125 
102 
170 
169 
170 
174 
177 
225 
211 
220 
220 
213 
222 
218 
217 
217 
214 
221 
217 
217 
217 
217 
214 
214 
215 
213 
214 
210 
217 
209 
117 
51 
73 
60 
63 
80 
54 
59 
58 
58 
62 
67 
66 
62 
60 
61 
68 
76 
81 
79 
73 
66 
62 
64 
63 
66 
69 
69 
67 
65 
66 
67 
66 
67 
67 
66 
63 
60 
60 
60 
59 
59 
59 
60 
61 
61 
60 
59 
59 
58 
58 
62 
61 
58 
57 
60 
59 
59 
59 
58 
58 
58 
59 
60 
59 
62 
65 
64 
63 
63 
63 
63 
61 
65 
67 
69 
73 
73 
75 
82 
100 
74 
103 
88 
79 
121 
109 
61 
142 
152 
156 
139 
118 
186 
230 
212 
221 
215 
219 
215 
224 
216 
228 
211 
217 
217 
217 
217 
212 
213 
214 
216 
210 
210 
221 
180 
56 
65 
62 
65 
70 
66 
73 
57 
58 
57 
59 
64 
66 
63 
61 
62 
59 
64 
73 
73 
63 
57 
55 
54 
60 
63 
66 
68 
67 
67 
68 
69 
66 
64 
65 
67 
66 
62 
61 
62 
60 
60 
59 
59 
59 
59 
58 
58 
57 
57 
57 
60 
59 
57 
56 
58 
57 
57 
57 
57 
57 
58 
60 
61 
59 
63 
67 
67 
66 
65 
64 
62 
62 
60 
59 
65 
73 
72 
72 
76 
56 
66 
70 
68 
64 
95 
149 
101 
116 
122 
113 
121 
79 
89 
193 
225 
225 
226 
205 
224 
213 
228 
212 
216 
217 
217 
217 
217 
209 
213 
216 
214 
211 
217 
220 
164 
51 
68 
67 
64 
64 
66 
72 
59 
57 
56 
58 
62 
64 
63 
62 
62 
58 
57 
63 
64 
55 
54 
57 
55 
55 
58 
61 
62 
61 
60 
60 
61 
56 
53 
54 
60 
61 
58 
56 
58 
59 
58 
58 
57 
57 
58 
58 
58 
59 
58 
59 
61 
60 
57 
57 
58 
56 
56 
56 
56 
57 
58 
60 
62 
61 
64 
67 
68 
67 
65 
63 
61 
63 
62 
61 
67 
71 
69 
73 
84 
82 
76 
75 
66 
62 
81 
111 
95 
78 
88 
75 
85 
80 
76 
137 
209 
243 
209 
224 
218 
216 
216 
211 
221 
217 
217 
217 
217 
211 
211 
216 
213 
215 
219 
219 
184 
68 
57 
69 
64 
61 
70 
61 
56 
53 
54 
56 
58 
58 
57 
57 
59 
57 
52 
54 
54 
50 
52 
56 
53 
50 
52 
54 
54 
53 
51 
51 
51 
49 
48 
49 
53 
56 
53 
53 
54 
56 
57 
57 
57 
57 
57 
58 
58 
60 
60 
61 
62 
61 
59 
58 
58 
56 
56 
56 
56 
57 
58 
60 
62 
59 
60 
62 
64 
65 
63 
61 
60 
60 
59 
60 
62 
62 
58 
60 
72 
77 
71 
63 
68 
75 
82 
76 
78 
59 
73 
78 
61 
85 
104 
86 
168 
237 
201 
232 
221 
215 
213 
224 
217 
217 
217 
217 
217 
216 
209 
213 
215 
218 
214 
218 
205 
79 
64 
51 
68 
62 
60 
67 
54 
51 
52 
54 
55 
54 
53 
53 
54 
50 
47 
46 
47 
46 
47 
47 
46 
46 
47 
48 
48 
47 
46 
46 
46 
47 
47 
48 
52 
54 
53 
53 
54 
56 
57 
57 
57 
57 
57 
58 
59 
59 
59 
60 
60 
60 
58 
58 
58 
57 
57 
57 
56 
57 
58 
61 
63 
57 
56 
56 
59 
61 
62 
61 
61 
58 
57 
57 
59 
60 
57 
56 
59 
63 
77 
61 
73 
78 
74 
72 
75 
64 
81 
72 
64 
78 
87 
78 
135 
185 
227 
205 
226 
209 
231 
213 
216 
217 
217 
217 
217 
215 
213 
210 
217 
219 
212 
214 
178 
83 
61 
54 
66 
61 
63 
59 
58 
52 
53 
53 
53 
53 
52 
50 
49 
49 
49 
46 
45 
47 
46 
45 
45 
45 
45 
45 
45 
45 
45 
45 
45 
47 
47 
49 
51 
54 
55 
56 
56 
56 
57 
59 
59 
58 
57 
57 
58 
56 
57 
59 
58 
58 
57 
57 
56 
57 
57 
57 
56 
57 
59 
62 
64 
59 
56 
55 
57 
60 
61 
62 
63 
60 
60 
57 
60 
65 
63 
60 
61 
68 
64 
69 
62 
67 
78 
66 
72 
68 
83 
60 
66 
78 
75 
104 
123 
141 
225 
211 
209 
222 
220 
209 
217 
217 
217 
217 
217 
212 
218 
209 
217 
219 
214 
208 
130 
74 
62 
62 
70 
65 
65 
52 
54 
53 
52 
50 
50 
52 
51 
48 
46 
46 
49 
45 
44 
45 
44 
43 
46 
44 
44 
44 
44 
44 
44 
45 
45 
46 
47 
49 
50 
52 
56 
58 
57 
58 
60 
61 
60 
59 
57 
57 
57 
56 
56 
58 
57 
57 
56 
57 
56 
57 
57 
56 
56 
57 
59 
63 
65 
64 
59 
56 
57 
60 
61 
63 
65 
61 
62 
59 
58 
63 
64 
63 
66 
59 
66 
68 
70 
65 
56 
77 
68 
73 
66 
79 
89 
88 
60 
87 
142 
134 
194 
238 
209 
222 
200 
222 
217 
217 
217 
217 
217 
213 
209 
217 
216 
218 
211 
197 
82 
62 
77 
66 
68 
48 
65 
55 
55 
52 
51 
49 
49 
48 
47 
47 
46 
51 
48 
45 
44 
44 
45 
44 
43 
45 
45 
45 
45 
45 
45 
46 
46 
46 
49 
51 
52 
53 
55 
56 
55 
59 
60 
63 
64 
62 
64 
64 
58 
59 
56 
59 
61 
56 
56 
59 
56 
58 
56 
56 
57 
57 
57 
62 
69 
67 
62 
58 
58 
59 
60 
61 
63 
59 
58 
62 
64 
60 
58 
60 
61 
63 
62 
62 
64 
68 
70 
70 
69 
69 
72 
78 
107 
106 
64 
61 
130 
160 
161 
212 
215 
219 
212 
226 
214 
217 
217 
217 
217 
220 
214 
215 
219 
215 
210 
187 
65 
69 
75 
61 
58 
46 
58 
54 
57 
52 
51 
49 
47 
47 
47 
47 
47 
50 
48 
46 
45 
46 
47 
46 
46 
45 
45 
45 
45 
46 
46 
47 
47 
48 
50 
51 
51 
52 
55 
56 
56 
55 
57 
67 
72 
71 
70 
67 
59 
56 
61 
64 
61 
61 
60 
57 
60 
59 
57 
57 
57 
57 
57 
61 
68 
66 
60 
57 
60 
62 
60 
59 
61 
66 
63 
66 
67 
62 
60 
62 
62 
62 
61 
61 
62 
65 
67 
69 
69 
74 
71 
73 
79 
96 
83 
72 
82 
181 
140 
153 
226 
208 
236 
210 
217 
217 
217 
217 
217 
219 
210 
204 
218 
216 
217 
167 
49 
64 
65 
57 
56 
49 
54 
51 
52 
52 
50 
48 
47 
46 
47 
47 
47 
49 
49 
48 
48 
47 
48 
48 
48 
51 
51 
52 
52 
53 
53 
53 
54 
51 
52 
52 
52 
54 
56 
57 
56 
62 
65 
72 
77 
74 
71 
65 
57 
59 
66 
57 
53 
72 
72 
54 
66 
60 
58 
57 
58 
58 
57 
60 
65 
63 
59 
58 
63 
65 
64 
63 
65 
67 
65 
67 
66 
61 
59 
61 
61 
61 
61 
61 
61 
62 
64 
67 
69 
57 
78 
101 
76 
74 
72 
79 
73 
111 
119 
96 
188 
219 
230 
215 
222 
218 
218 
218 
218 
217 
213 
211 
222 
218 
217 
133 
49 
55 
53 
54 
58 
58 
54 
50 
49 
51 
50 
48 
47 
47 
48 
48 
47 
50 
51 
51 
50 
48 
48 
48 
49 
50 
50 
51 
51 
51 
51 
50 
50 
53 
53 
53 
54 
56 
59 
59 
59 
67 
70 
78 
84 
85 
87 
90 
89 
75 
59 
62 
56 
54 
60 
58 
60 
60 
58 
58 
58 
58 
57 
59 
63 
64 
64 
64 
63 
63 
64 
65 
66 
61 
60 
63 
63 
58 
57 
59 
58 
60 
60 
61 
60 
60 
62 
67 
71 
57 
75 
95 
74 
71 
70 
74 
80 
82 
189 
108 
147 
238 
211 
227 
214 
218 
218 
218 
218 
212 
217 
220 
218 
207 
199 
88 
54 
59 
53 
55 
58 
62 
55 
53 
52 
51 
50 
49 
49 
49 
49 
48 
47 
50 
51 
51 
51 
49 
48 
50 
51 
51 
51 
51 
50 
50 
49 
49 
50 
52 
52 
54 
57 
59 
60 
61 
61 
64 
76 
93 
100 
96 
97 
107 
114 
104 
85 
70 
57 
59 
64 
57 
62 
61 
59 
58 
57 
57 
57 
58 
60 
67 
72 
70 
60 
55 
56 
59 
58 
57 
57 
61 
62 
57 
57 
58 
56 
59 
60 
60 
60 
60 
62 
67 
71 
63 
64 
60 
61 
72 
75 
60 
88 
39 
185 
125 
154 
223 
209 
219 
219 
218 
218 
218 
218 
212 
213 
212 
208 
207 
202 
77 
63 
63 
58 
60 
65 
67 
59 
54 
53 
52 
51 
51 
51 
51 
50 
49 
47 
49 
50 
50 
50 
50 
50 
52 
54 
57 
57 
57 
56 
55 
54 
53 
52 
52 
53 
55 
59 
61 
61 
62 
64 
66 
85 
110 
119 
108 
100 
104 
110 
116 
104 
78 
64 
68 
64 
59 
65 
60 
59 
58 
57 
57 
57 
57 
58 
65 
71 
70 
58 
54 
54 
57 
56 
57 
58 
63 
63 
58 
58 
58 
55 
58 
59 
60 
59 
59 
61 
65 
69 
57 
65 
56 
62 
62 
66 
52 
114 
54 
114 
130 
175 
209 
217 
207 
219 
218 
218 
218 
218 
216 
216 
210 
213 
218 
217 
95 
70 
58 
58 
62 
71 
71 
65 
56 
53 
54 
53 
53 
52 
52 
51 
50 
49 
50 
51 
51 
51 
51 
52 
54 
55 
56 
56 
56 
56 
55 
53 
52 
51 
52 
54 
58 
61 
62 
61 
64 
68 
66 
81 
107 
125 
125 
117 
110 
105 
112 
96 
92 
90 
57 
52 
71 
59 
60 
59 
58 
57 
57 
57 
57 
57 
58 
61 
61 
58 
55 
55 
56 
57 
55 
56 
60 
60 
55 
55 
56 
54 
56 
57 
58 
58 
58 
59 
62 
63 
61 
65 
55 
66 
58 
61 
55 
135 
134 
91 
109 
140 
206 
211 
222 
218 
218 
218 
218 
218 
209 
218 
215 
220 
212 
205 
96 
60 
54 
56 
58 
69 
68 
67 
59 
59 
56 
55 
54 
53 
52 
51 
51 
50 
53 
52 
51 
51 
51 
52 
54 
55 
55 
56 
56 
56 
55 
54 
52 
52 
55 
57 
61 
63 
63 
63 
67 
73 
67 
69 
86 
111 
125 
123 
106 
88 
124 
128 
86 
82 
99 
76 
61 
58 
60 
59 
58 
57 
57 
57 
57 
56 
54 
53 
54 
57 
57 
53 
52 
53 
51 
51 
55 
54 
51 
52 
53 
52 
55 
56 
57 
57 
57 
58 
58 
59 
64 
60 
56 
70 
55 
54 
57 
146 
193 
155 
132 
130 
209 
180 
228 
217 
217 
217 
217 
217 
219 
216 
215 
219 
207 
201 
107 
65 
58 
59 
60 
67 
66 
62 
58 
61 
60 
59 
55 
53 
54 
50 
48 
50 
54 
52 
50 
50 
51 
53 
55 
57 
54 
55 
57 
58 
57 
55 
55 
56 
59 
65 
63 
66 
68 
64 
66 
65 
68 
62 
65 
87 
114 
122 
101 
75 
124 
114 
80 
87 
116 
88 
56 
63 
59 
60 
57 
57 
59 
58 
56 
57 
54 
54 
54 
54 
55 
52 
52 
53 
51 
53 
53 
51 
51 
50 
51 
54 
54 
56 
57 
58 
58 
58 
58 
58 
66 
56 
56 
58 
59 
57 
86 
152 
194 
179 
149 
126 
190 
161 
217 
220 
216 
217 
218 
217 
219 
212 
215 
219 
209 
209 
153 
81 
67 
58 
74 
73 
58 
55 
52 
60 
59 
59 
55 
52 
53 
50 
50 
54 
54 
52 
51 
51 
52 
53 
55 
56 
58 
59 
60 
60 
60 
60 
61 
62 
63 
67 
67 
71 
71 
68 
69 
64 
67 
71 
78 
91 
106 
110 
96 
77 
77 
51 
75 
110 
80 
60 
71 
58 
61 
61 
57 
56 
58 
57 
56 
56 
57 
58 
57 
54 
52 
54 
56 
55 
53 
51 
51 
51 
51 
52 
52 
52 
54 
55 
57 
58 
58 
57 
57 
57 
67 
60 
58 
57 
52 
59 
108 
177 
170 
143 
122 
129 
169 
162 
218 
214 
220 
220 
219 
217 
217 
214 
214 
216 
216 
212 
195 
120 
67 
54 
75 
69 
57 
62 
61 
60 
59 
59 
56 
54 
55 
51 
50 
52 
54 
53 
51 
51 
52 
54 
54 
54 
57 
58 
59 
60 
61 
62 
64 
65 
62 
62 
65 
72 
70 
69 
73 
65 
74 
77 
75 
71 
71 
78 
82 
82 
82 
72 
65 
73 
74 
69 
67 
59 
60 
60 
57 
56 
58 
58 
56 
58 
56 
56 
57 
53 
51 
58 
65 
61 
61 
57 
58 
56 
50 
51 
53 
51 
53 
55 
56 
57 
57 
56 
56 
56 
71 
53 
51 
63 
53 
54 
118 
194 
162 
149 
138 
144 
161 
134 
205 
225 
222 
221 
219 
216 
215 
220 
213 
212 
220 
207 
205 
159 
92 
84 
79 
71 
75 
72 
77 
56 
57 
57 
55 
56 
59 
56 
50 
49 
54 
53 
52 
51 
52 
55 
55 
53 
57 
59 
60 
59 
60 
61 
61 
61 
60 
58 
62 
69 
63 
62 
71 
65 
66 
72 
78 
78 
74 
73 
76 
80 
81 
86 
70 
62 
71 
73 
67 
59 
59 
60 
57 
57 
59 
59 
56 
57 
55 
53 
55 
55 
52 
60 
70 
66 
61 
65 
77 
74 
53 
49 
52 
52 
52 
53 
54 
55 
55 
55 
56 
57 
65 
50 
49 
64 
54 
54 
118 
178 
198 
174 
141 
165 
146 
115 
191 
215 
219 
219 
217 
214 
216 
219 
216 
214 
214 
208 
201 
167 
114 
113 
81 
76 
89 
58 
76 
58 
61 
57 
52 
54 
61 
59 
52 
50 
54 
55 
54 
52 
53 
55 
56 
55 
62 
63 
63 
61 
60 
60 
58 
55 
64 
60 
62 
66 
57 
57 
68 
65 
60 
62 
72 
85 
87 
81 
80 
84 
81 
79 
71 
70 
67 
63 
64 
59 
59 
60 
58 
58 
60 
59 
56 
56 
58 
53 
57 
62 
58 
63 
71 
68 
57 
68 
87 
85 
59 
48 
49 
49 
50 
51 
52 
52 
53 
55 
58 
59 
50 
57 
55 
53 
45 
63 
118 
152 
214 
172 
115 
184 
111 
111 
188 
202 
216 
217 
216 
215 
218 
212 
218 
218 
206 
215 
205 
158 
135 
126 
95 
92 
101 
44 
63 
69 
74 
66 
55 
53 
57 
56 
51 
50 
56 
59 
58 
55 
53 
56 
58 
58 
58 
60 
60 
59 
59 
61 
60 
56 
64 
61 
61 
64 
59 
58 
70 
71 
68 
61 
61 
70 
75 
76 
80 
87 
93 
96 
74 
63 
69 
67 
61 
58 
57 
58 
58 
59 
63 
63 
61 
62 
60 
55 
59 
66 
67 
69 
74 
72 
65 
67 
74 
71 
56 
50 
50 
49 
48 
49 
50 
51 
52 
54 
57 
59 
47 
57 
53 
46 
50 
73 
118 
155 
206 
158 
104 
166 
129 
133 
197 
210 
216 
217 
218 
217 
218 
213 
216 
217 
212 
215 
208 
166 
173 
141 
137 
124 
130 
74 
64 
75 
81 
73 
60 
54 
56 
55 
53 
55 
60 
64 
64 
58 
55 
57 
60 
61 
56 
57 
56 
54 
55 
59 
59 
56 
61 
59 
56 
61 
62 
60 
67 
69 
68 
67 
69 
74 
77 
78 
78 
79 
76 
84 
87 
79 
67 
69 
74 
59 
64 
65 
62 
62 
67 
67 
66 
67 
62 
60 
60 
63 
67 
71 
70 
67 
71 
66 
61 
57 
55 
53 
51 
49 
47 
48 
49 
50 
51 
52 
54 
55 
48 
49 
45 
51 
80 
102 
129 
177 
186 
139 
107 
129 
185 
179 
208 
212 
219 
220 
219 
218 
215 
220 
211 
213 
225 
208 
205 
188 
188 
136 
163 
141 
156 
124 
82 
80 
75 
70 
61 
56 
58 
59 
59 
64 
63 
68 
68 
61 
56 
57 
61 
63 
62 
62 
59 
54 
54 
56 
55 
54 
60 
59 
55 
57 
61 
57 
58 
59 
63 
71 
76 
76 
77 
81 
81 
77 
77 
81 
81 
84 
80 
72 
74 
74 
79 
78 
72 
68 
69 
67 
64 
65 
67 
68 
62 
57 
61 
66 
61 
55 
65 
64 
61 
61 
64 
59 
50 
46 
47 
48 
49 
50 
51 
51 
52 
51 
48 
50 
45 
55 
109 
140 
151 
192 
154 
117 
120 
125 
196 
198 
212 
213 
222 
222 
220 
217 
220 
214 
212 
216 
218 
214 
209 
206 
175 
141 
167 
150 
188 
137 
101 
117 
90 
77 
73 
78 
77 
74 
77 
82 
82 
86 
82 
74 
60 
58 
67 
62 
64 
66 
61 
64 
58 
54 
58 
55 
63 
56 
57 
63 
64 
64 
61 
56 
65 
74 
81 
81 
77 
76 
80 
83 
77 
73 
80 
84 
76 
78 
84 
80 
79 
82 
74 
64 
67 
62 
57 
75 
78 
75 
67 
59 
56 
58 
59 
57 
60 
61 
64 
66 
64 
57 
50 
49 
49 
50 
60 
60 
51 
52 
55 
51 
48 
48 
47 
62 
121 
147 
176 
171 
154 
118 
129 
140 
187 
211 
192 
215 
222 
220 
217 
215 
217 
215 
214 
215 
216 
214 
211 
210 
154 
161 
173 
162 
208 
158 
121 
155 
118 
107 
100 
102 
101 
94 
93 
99 
99 
102 
93 
79 
69 
63 
61 
60 
65 
73 
70 
64 
54 
53 
60 
56 
67 
57 
59 
71 
74 
68 
67 
71 
65 
69 
76 
81 
80 
76 
78 
82 
75 
75 
80 
82 
80 
83 
82 
72 
81 
78 
68 
58 
62 
59 
59 
81 
91 
85 
75 
65 
60 
59 
60 
60 
56 
57 
58 
61 
60 
56 
53 
53 
60 
60 
60 
61 
62 
58 
53 
52 
51 
56 
47 
71 
107 
135 
196 
156 
172 
142 
147 
194 
172 
225 
204 
214 
218 
217 
214 
213 
214 
216 
216 
215 
215 
215 
214 
213 
180 
156 
192 
208 
181 
154 
151 
130 
154 
152 
143 
136 
138 
143 
146 
150 
130 
121 
99 
90 
108 
105 
79 
70 
98 
103 
95 
81 
63 
58 
69 
76 
83 
86 
86 
85 
87 
87 
87 
89 
71 
69 
73 
81 
81 
74 
70 
71 
70 
75 
77 
74 
79 
86 
80 
66 
67 
65 
61 
60 
69 
69 
71 
94 
92 
84 
73 
65 
60 
58 
59 
60 
59 
59 
61 
63 
62 
61 
63 
65 
64 
64 
56 
57 
65 
59 
54 
58 
53 
51 
66 
102 
96 
111 
196 
175 
163 
163 
166 
169 
208 
211 
201 
221 
218 
217 
215 
215 
213 
216 
217 
215 
215 
217 
215 
211 
196 
194 
198 
210 
201 
173 
139 
141 
166 
174 
161 
137 
133 
146 
153 
152 
130 
130 
113 
109 
139 
138 
109 
113 
137 
134 
119 
98 
78 
70 
84 
103 
107 
115 
113 
106 
104 
101 
99 
103 
93 
89 
85 
80 
74 
66 
63 
65 
65 
76 
75 
65 
70 
81 
77 
65 
65 
63 
63 
64 
69 
66 
68 
89 
80 
70 
62 
60 
60 
58 
58 
60 
61 
60 
60 
60 
59 
58 
61 
64 
64 
66 
61 
56 
57 
56 
60 
71 
66 
50 
91 
120 
112 
133 
190 
194 
159 
156 
160 
164 
206 
202 
211 
220 
219 
218 
218 
218 
214 
216 
216 
215 
216 
217 
214 
208 
212 
211 
203 
208 
211 
193 
147 
170 
179 
186 
177 
154 
143 
147 
151 
150 
131 
136 
119 
123 
159 
160 
139 
150 
149 
149 
133 
105 
90 
90 
102 
118 
119 
118 
118 
124 
119 
99 
92 
105 
114 
117 
109 
88 
66 
58 
62 
68 
65 
81 
80 
66 
64 
73 
73 
64 
64 
62 
63 
61 
61 
59 
62 
82 
69 
61 
58 
60 
64 
64 
62 
61 
61 
59 
58 
58 
57 
56 
58 
60 
68 
69 
69 
61 
54 
60 
73 
75 
65 
73 
112 
119 
131 
166 
187 
190 
158 
152 
155 
177 
189 
196 
212 
213 
218 
217 
217 
217 
216 
216 
215 
215 
216 
217 
213 
209 
219 
217 
206 
202 
206 
194 
161 
194 
181 
179 
181 
177 
161 
151 
151 
150 
140 
140 
116 
126 
161 
160 
149 
156 
150 
161 
150 
117 
108 
118 
120 
124 
120 
121 
124 
127 
120 
102 
90 
91 
110 
124 
127 
106 
79 
65 
65 
68 
69 
83 
87 
74 
64 
67 
68 
61 
60 
62 
69 
68 
66 
62 
62 
75 
65 
61 
59 
62 
65 
66 
63 
61 
62 
59 
58 
59 
61 
61 
61 
62 
63 
62 
65 
60 
55 
67 
79 
73 
78 
101 
114 
131 
158 
176 
188 
186 
153 
172 
176 
179 
204 
194 
206 
220 
218 
217 
216 
216 
216 
215 
214 
216 
216 
215 
214 
214 
217 
211 
211 
210 
205 
199 
196 
211 
195 
187 
192 
192 
173 
161 
158 
149 
141 
149 
129 
140 
156 
144 
149 
156 
153 
166 
161 
135 
130 
137 
130 
133 
129 
135 
136 
127 
119 
119 
110 
94 
103 
113 
121 
118 
106 
92 
81 
73 
70 
77 
83 
75 
63 
64 
66 
59 
67 
70 
78 
76 
71 
65 
59 
59 
62 
64 
64 
62 
61 
62 
62 
61 
61 
57 
54 
56 
59 
59 
58 
58 
57 
59 
59 
56 
58 
68 
76 
76 
113 
101 
93 
147 
182 
174 
184 
184 
168 
193 
204 
210 
205 
211 
220 
222 
219 
218 
217 
217 
216 
214 
214 
216 
216 
214 
216 
220 
214 
211 
214 
216 
208 
200 
214 
207 
208 
201 
205 
198 
180 
182 
182 
161 
164 
166 
142 
162 
178 
162 
166 
159 
152 
157 
157 
143 
142 
139 
129 
141 
143 
140 
138 
132 
127 
131 
130 
118 
111 
105 
105 
114 
123 
119 
103 
88 
67 
67 
73 
71 
60 
62 
67 
60 
65 
65 
71 
68 
65 
65 
59 
59 
60 
66 
67 
61 
58 
58 
62 
63 
66 
59 
55 
56 
60 
60 
58 
57 
62 
68 
63 
58 
63 
65 
71 
84 
108 
76 
82 
148 
163 
143 
163 
183 
180 
203 
221 
212 
208 
213 
224 
213 
218 
217 
216 
216 
215 
215 
215 
215 
215 
215 
215 
215 
211 
214 
214 
211 
211 
214 
213 
210 
211 
212 
208 
202 
201 
201 
192 
181 
188 
193 
176 
191 
194 
177 
179 
160 
158 
146 
143 
152 
141 
130 
135 
127 
133 
130 
129 
132 
134 
132 
135 
144 
127 
110 
99 
102 
116 
120 
109 
108 
93 
95 
97 
79 
66 
68 
66 
73 
82 
81 
63 
57 
73 
73 
60 
61 
58 
63 
62 
61 
64 
60 
59 
67 
68 
59 
60 
58 
71 
74 
60 
74 
91 
100 
87 
72 
69 
70 
59 
81 
86 
88 
129 
162 
143 
131 
161 
189 
188 
214 
213 
202 
211 
215 
212 
219 
217 
217 
217 
217 
215 
215 
215 
215 
215 
215 
215 
215 
214 
217 
217 
215 
214 
217 
217 
214 
207 
208 
207 
207 
208 
210 
204 
197 
207 
210 
198 
207 
206 
188 
183 
165 
165 
155 
152 
161 
154 
144 
140 
124 
121 
128 
126 
125 
137 
144 
144 
148 
145 
118 
100 
99 
102 
99 
102 
122 
118 
129 
132 
106 
79 
67 
71 
95 
106 
96 
75 
72 
88 
87 
73 
72 
66 
67 
63 
65 
72 
69 
63 
65 
70 
64 
65 
70 
84 
88 
81 
85 
116 
138 
109 
93 
96 
78 
57 
81 
74 
129 
201 
203 
140 
140 
194 
202 
197 
215 
214 
205 
213 
217 
215 
219 
217 
217 
217 
217 
215 
215 
215 
215 
215 
215 
215 
215 
214 
217 
217 
215 
215 
217 
216 
214 
210 
210 
211 
212 
214 
213 
211 
209 
204 
204 
201 
210 
213 
205 
198 
189 
178 
174 
179 
194 
188 
167 
142 
113 
147 
157 
140 
124 
140 
154 
155 
162 
156 
145 
136 
118 
91 
69 
74 
105 
106 
119 
128 
128 
123 
102 
84 
96 
98 
109 
117 
124 
122 
103 
91 
98 
96 
88 
76 
76 
83 
82 
72 
67 
86 
89 
89 
92 
91 
92 
100 
100 
123 
110 
132 
121 
74 
87 
94 
78 
107 
183 
197 
190 
197 
189 
194 
209 
208 
215 
214 
211 
215 
218 
217 
217 
218 
218 
218 
218 
215 
215 
215 
215 
215 
215 
215 
215 
213 
215 
215 
214 
214 
215 
214 
213 
215 
213 
213 
215 
214 
211 
211 
214 
204 
194 
195 
201 
203 
196 
188 
190 
183 
178 
187 
205 
206 
190 
170 
152 
176 
190 
174 
157 
166 
162 
151 
159 
153 
157 
156 
140 
124 
114 
107 
114 
101 
118 
128 
136 
140 
114 
98 
120 
106 
108 
119 
138 
147 
139 
135 
141 
138 
121 
100 
92 
97 
98 
91 
84 
93 
100 
99 
105 
100 
103 
122 
116 
86 
122 
144 
84 
85 
144 
124 
143 
151 
197 
192 
194 
200 
181 
195 
220 
214 
215 
217 
218 
219 
220 
220 
218 
218 
218 
218 
218 
215 
215 
215 
215 
215 
215 
215 
215 
215 
216 
216 
215 
215 
216 
215 
214 
214 
211 
211 
213 
213 
211 
214 
220 
210 
195 
195 
199 
197 
187 
177 
185 
182 
177 
189 
207 
210 
200 
191 
190 
194 
204 
195 
188 
189 
169 
154 
168 
179 
185 
183 
163 
152 
149 
139 
136 
139 
154 
153 
158 
163 
140 
134 
164 
144 
132 
135 
151 
161 
162 
165 
169 
161 
143 
123 
115 
119 
125 
124 
119 
129 
125 
114 
123 
124 
130 
147 
128 
85 
122 
134 
73 
102 
188 
171 
182 
192 
194 
184 
192 
181 
172 
201 
204 
216 
215 
221 
225 
221 
220 
222 
220 
218 
218 
218 
218 
215 
215 
215 
215 
215 
215 
215 
215 
215 
215 
216 
215 
215 
215 
215 
214 
214 
212 
212 
213 
213 
212 
216 
221 
213 
203 
205 
211 
210 
201 
195 
201 
194 
191 
202 
211 
210 
201 
195 
204 
207 
208 
206 
207 
202 
183 
177 
191 
192 
198 
201 
185 
171 
166 
164 
175 
177 
181 
167 
174 
190 
172 
160 
175 
163 
163 
175 
178 
163 
157 
165 
171 
163 
152 
143 
142 
146 
155 
159 
154 
158 
146 
124 
122 
117 
123 
142 
129 
130 
123 
122 
128 
155 
193 
185 
181 
194 
193 
178 
187 
184 
169 
189 
208 
212 
213 
220 
224 
220 
218 
219 
218 
218 
218 
218 
218 
215 
215 
215 
215 
215 
215 
215 
215 
214 
214 
214 
215 
215 
214 
214 
214 
215 
215 
214 
214 
213 
213 
214 
216 
218 
219 
218 
217 
216 
214 
213 
210 
214 
210 
210 
205 
204 
209 
212 
226 
210 
209 
216 
222 
215 
207 
203 
200 
216 
213 
211 
204 
201 
195 
188 
193 
197 
201 
181 
179 
187 
172 
168 
182 
178 
176 
184 
181 
165 
167 
180 
178 
170 
164 
165 
167 
167 
173 
175 
166 
168 
158 
142 
137 
130 
136 
156 
155 
179 
155 
158 
195 
199 
195 
189 
182 
201 
173 
170 
194 
192 
186 
201 
207 
209 
214 
219 
220 
219 
218 
217 
216 
218 
218 
218 
218 
215 
215 
215 
215 
215 
215 
215 
215 
215 
215 
215 
216 
215 
215 
214 
214 
213 
214 
215 
214 
214 
214 
214 
213 
213 
222 
217 
211 
210 
215 
221 
212 
220 
221 
223 
211 
212 
219 
216 
222 
217 
210 
213 
213 
207 
217 
223 
211 
215 
219 
222 
214 
210 
208 
205 
213 
207 
214 
199 
200 
210 
198 
194 
201 
200 
199 
208 
203 
185 
189 
197 
187 
184 
180 
182 
182 
177 
177 
174 
162 
170 
163 
158 
161 
161 
162 
167 
163 
179 
190 
197 
194 
189 
193 
181 
184 
197 
177 
181 
196 
194 
200 
213 
212 
212 
218 
220 
219 
221 
221 
219 
218 
217 
217 
217 
217 
215 
215 
215 
215 
215 
215 
215 
215 
215 
215 
215 
215 
215 
215 
215 
215 
215 
215 
215 
215 
215 
215 
215 
215 
216 
216 
215 
213 
213 
213 
215 
216 
216 
216 
216 
216 
216 
217 
217 
217 
214 
213 
213 
213 
214 
215 
216 
217 
222 
219 
212 
213 
218 
212 
210 
221 
216 
221 
216 
220 
218 
215 
222 
220 
221 
217 
213 
212 
212 
211 
207 
203 
197 
200 
201 
197 
190 
183 
177 
174 
175 
172 
166 
167 
166 
168 
176 
173 
184 
190 
210 
181 
176 
198 
185 
197 
205 
184 
202 
199 
201 
220 
212 
215 
219 
219 
219 
219 
219 
219 
219 
219 
218 
218 
218 
218 
216 
216 
215 
215 
215 
215 
215 
215 
215 
215 
215 
215 
215 
215 
215 
215 
215 
215 
215 
215 
215 
215 
215 
215 
217 
217 
216 
216 
216 
217 
218 
220 
216 
216 
216 
216 
216 
216 
217 
217 
217 
217 
218 
218 
218 
218 
218 
218 
216 
216 
215 
218 
224 
220 
216 
223 
212 
217 
214 
216 
215 
212 
218 
217 
217 
215 
214 
215 
218 
219 
218 
216 
215 
216 
217 
214 
210 
205 
203 
203 
211 
206 
197 
195 
190 
188 
193 
188 
196 
196 
211 
196 
196 
209 
199 
212 
217 
203 
220 
218 
215 
227 
220 
220 
219 
219 
219 
219 
219 
219 
219 
219 
218 
218 
218 
218 
216 
216 
216 
216 
216 
216 
215 
215 
215 
215 
215 
215 
215 
215 
215 
215 
215 
215 
215 
215 
215 
215 
215 
215 
215 
215 
216 
216 
215 
216 
217 
218 
216 
216 
216 
216 
216 
216 
217 
217 
218 
218 
219 
219 
218 
218 
217 
216 
215 
217 
217 
219 
223 
220 
216 
218 
212 
216 
214 
217 
216 
213 
217 
216 
216 
216 
216 
217 
218 
219 
219 
219 
217 
217 
216 
214 
212 
210 
212 
214 
213 
209 
202 
203 
201 
202 
208 
204 
202 
196 
204 
205 
209 
210 
204 
220 
217 
211 
221 
221 
215 
218 
217 
215 
218 
218 
218 
218 
218 
218 
218 
218 
218 
218 
218 
218 
