P2
# Created by MsrVolt
43 55
255
221 
221 
221 
221 
221 
221 
221 
221 
222 
222 
223 
223 
222 
222 
223 
224 
223 
223 
223 
223 
223 
223 
223 
224 
223 
225 
225 
223 
223 
224 
224 
222 
224 
223 
223 
223 
224 
225 
224 
223 
223 
223 
223 
221 
221 
221 
221 
221 
221 
221 
221 
221 
222 
223 
223 
223 
222 
223 
223 
223 
224 
224 
224 
224 
224 
224 
224 
223 
223 
223 
225 
226 
226 
227 
227 
226 
224 
223 
222 
223 
224 
224 
223 
223 
223 
224 
220 
221 
221 
222 
222 
221 
221 
220 
220 
221 
223 
223 
223 
222 
222 
222 
221 
222 
222 
223 
223 
223 
223 
222 
224 
222 
222 
224 
224 
222 
220 
221 
226 
225 
223 
222 
222 
223 
223 
223 
223 
223 
224 
219 
220 
221 
222 
222 
222 
221 
220 
219 
221 
222 
223 
223 
222 
222 
222 
221 
221 
222 
223 
223 
223 
222 
221 
224 
224 
224 
222 
222 
221 
219 
217 
225 
224 
223 
223 
223 
223 
223 
223 
223 
223 
224 
219 
220 
221 
222 
222 
222 
221 
220 
219 
221 
223 
223 
223 
223 
222 
222 
223 
223 
223 
224 
225 
225 
224 
222 
223 
226 
225 
221 
221 
227 
229 
226 
222 
223 
223 
224 
224 
224 
223 
223 
223 
223 
224 
219 
220 
221 
222 
222 
222 
221 
221 
220 
221 
223 
223 
223 
223 
223 
223 
224 
223 
223 
223 
224 
224 
223 
221 
222 
225 
224 
218 
217 
223 
228 
229 
220 
222 
224 
224 
224 
224 
223 
223 
223 
223 
224 
220 
220 
221 
221 
222 
222 
221 
221 
221 
222 
223 
223 
223 
223 
224 
224 
224 
223 
221 
221 
222 
222 
221 
219 
221 
222 
225 
225 
221 
218 
220 
225 
221 
222 
224 
224 
223 
223 
223 
223 
223 
223 
224 
220 
220 
221 
221 
221 
221 
222 
222 
221 
222 
223 
223 
223 
224 
225 
225 
226 
224 
222 
222 
223 
223 
221 
220 
221 
222 
230 
239 
234 
221 
219 
226 
222 
223 
224 
223 
222 
222 
223 
224 
223 
223 
224 
220 
220 
224 
220 
220 
220 
221 
224 
224 
218 
227 
221 
223 
228 
216 
225 
217 
222 
220 
223 
227 
225 
224 
223 
223 
224 
202 
219 
222 
236 
216 
227 
228 
221 
221 
225 
225 
224 
224 
222 
224 
224 
224 
218 
219 
222 
221 
221 
222 
220 
218 
223 
225 
224 
226 
220 
218 
224 
218 
221 
221 
214 
213 
216 
218 
220 
221 
227 
224 
193 
164 
204 
238 
219 
224 
232 
223 
221 
223 
222 
222 
224 
223 
224 
224 
224 
221 
219 
219 
221 
220 
223 
225 
223 
220 
221 
222 
224 
220 
222 
227 
214 
211 
213 
213 
213 
216 
218 
216 
213 
217 
222 
208 
162 
193 
243 
223 
209 
231 
223 
221 
223 
222 
222 
224 
223 
224 
224 
224 
223 
220 
218 
227 
220 
220 
225 
225 
231 
225 
231 
219 
220 
225 
201 
192 
208 
207 
208 
201 
198 
203 
202 
200 
201 
222 
236 
202 
154 
209 
231 
230 
226 
221 
222 
226 
225 
224 
225 
222 
224 
224 
224 
221 
219 
219 
235 
222 
217 
220 
219 
217 
217 
216 
199 
204 
206 
183 
190 
198 
198 
204 
195 
188 
196 
196 
194 
203 
207 
212 
214 
151 
188 
230 
226 
225 
222 
223 
226 
224 
225 
225 
222 
224 
224 
224 
222 
220 
216 
234 
219 
220 
224 
216 
227 
231 
209 
188 
176 
161 
166 
184 
191 
187 
193 
179 
169 
181 
183 
182 
184 
202 
206 
218 
173 
158 
211 
225 
228 
224 
224 
224 
222 
223 
225 
223 
224 
224 
224 
222 
224 
213 
228 
217 
226 
223 
195 
197 
201 
201 
196 
171 
149 
162 
181 
202 
191 
194 
176 
167 
185 
189 
187 
188 
200 
189 
200 
192 
160 
207 
223 
227 
224 
225 
224 
222 
223 
225 
223 
224 
224 
224 
218 
225 
215 
230 
218 
228 
208 
159 
140 
140 
188 
201 
170 
146 
133 
143 
149 
151 
178 
181 
182 
199 
190 
178 
177 
189 
182 
198 
196 
170 
211 
223 
223 
222 
225 
226 
224 
225 
226 
223 
224 
224 
224 
222 
217 
221 
216 
222 
226 
204 
134 
101 
104 
143 
152 
140 
119 
107 
111 
111 
110 
190 
180 
190 
202 
188 
168 
168 
178 
180 
182 
201 
188 
199 
219 
222 
224 
226 
225 
225 
225 
224 
222 
224 
224 
224 
222 
217 
220 
226 
219 
227 
192 
114 
97 
91 
90 
100 
81 
81 
119 
139 
151 
170 
186 
171 
166 
174 
171 
169 
160 
176 
174 
179 
201 
185 
177 
221 
227 
227 
226 
224 
223 
224 
225 
224 
224 
224 
224 
223 
221 
224 
219 
211 
221 
189 
105 
75 
92 
89 
89 
64 
58 
95 
136 
154 
177 
172 
164 
155 
156 
157 
160 
170 
182 
168 
176 
198 
185 
150 
216 
226 
227 
226 
223 
222 
224 
225 
225 
224 
224 
224 
224 
221 
231 
216 
215 
204 
201 
158 
97 
83 
89 
90 
73 
53 
65 
120 
128 
137 
155 
155 
156 
162 
163 
161 
182 
181 
159 
172 
191 
195 
147 
211 
219 
222 
225 
224 
224 
224 
224 
224 
224 
224 
224 
224 
220 
228 
226 
220 
191 
205 
214 
161 
94 
81 
92 
97 
58 
69 
123 
136 
154 
150 
135 
136 
151 
162 
164 
177 
171 
157 
175 
183 
205 
168 
205 
217 
221 
224 
224 
224 
224 
224 
224 
224 
224 
224 
225 
227 
215 
218 
204 
195 
189 
194 
189 
162 
116 
99 
115 
57 
71 
129 
129 
180 
134 
110 
111 
130 
151 
170 
175 
172 
169 
188 
179 
202 
184 
185 
220 
223 
225 
224 
223 
223 
225 
225 
224 
224 
224 
224 
226 
210 
211 
191 
203 
187 
161 
180 
181 
131 
88 
92 
50 
60 
111 
90 
147 
117 
109 
123 
131 
147 
176 
175 
175 
174 
193 
177 
191 
190 
158 
218 
222 
225 
225 
223 
224 
225 
225 
224 
224 
224 
219 
213 
217 
224 
199 
202 
204 
183 
170 
119 
103 
87 
72 
57 
60 
74 
86 
111 
127 
131 
150 
136 
133 
160 
167 
167 
162 
184 
177 
186 
194 
144 
212 
218 
224 
226 
225 
224 
224 
223 
224 
224 
224 
215 
211 
200 
221 
209 
196 
199 
189 
168 
121 
86 
91 
82 
82 
75 
66 
90 
134 
121 
141 
178 
152 
138 
161 
169 
192 
155 
185 
185 
195 
210 
162 
203 
233 
225 
221 
227 
221 
225 
225 
224 
224 
224 
220 
220 
197 
188 
206 
191 
185 
193 
163 
148 
94 
74 
85 
71 
68 
57 
61 
132 
134 
128 
183 
167 
140 
162 
159 
200 
173 
189 
202 
201 
205 
187 
193 
224 
223 
223 
229 
222 
224 
223 
224 
224 
224 
218 
221 
214 
189 
193 
188 
195 
203 
146 
136 
105 
74 
89 
65 
70 
80 
58 
123 
144 
122 
166 
161 
136 
143 
146 
185 
188 
194 
205 
199 
197 
197 
187 
218 
222 
224 
228 
223 
224 
223 
224 
224 
224 
217 
214 
212 
206 
189 
182 
205 
211 
185 
154 
153 
96 
76 
63 
59 
65 
68 
82 
126 
129 
133 
153 
173 
151 
148 
158 
194 
201 
197 
196 
198 
187 
190 
216 
223 
223 
226 
222 
224 
225 
224 
224 
224 
223 
212 
193 
198 
201 
181 
204 
193 
204 
189 
183 
101 
61 
80 
76 
60 
60 
82 
84 
90 
115 
136 
155 
169 
167 
154 
195 
203 
199 
205 
209 
189 
194 
216 
223 
223 
224 
222 
224 
226 
224 
224 
224 
222 
216 
203 
198 
199 
191 
217 
159 
198 
215 
185 
111 
70 
70 
73 
72 
73 
79 
80 
94 
109 
137 
172 
186 
180 
171 
192 
199 
209 
216 
216 
202 
197 
213 
224 
224 
224 
224 
224 
224 
224 
224 
224 
218 
214 
202 
206 
183 
196 
218 
163 
184 
194 
175 
149 
122 
74 
61 
94 
94 
92 
103 
106 
115 
122 
142 
167 
181 
186 
192 
201 
215 
218 
219 
211 
202 
214 
224 
224 
223 
225 
223 
223 
224 
224 
224 
220 
205 
164 
200 
175 
189 
187 
200 
193 
171 
180 
189 
178 
103 
54 
89 
97 
81 
117 
123 
127 
115 
127 
161 
180 
192 
198 
214 
217 
217 
226 
212 
209 
217 
226 
223 
221 
225 
224 
224 
224 
224 
224 
220 
203 
163 
176 
154 
184 
174 
194 
173 
190 
203 
204 
198 
140 
72 
69 
73 
71 
103 
121 
131 
120 
131 
166 
200 
196 
205 
218 
214 
217 
227 
218 
217 
221 
224 
224 
224 
224 
224 
224 
224 
224 
224 
219 
224 
193 
160 
143 
146 
156 
189 
163 
188 
211 
196 
205 
158 
105 
84 
83 
85 
86 
123 
128 
116 
131 
176 
206 
198 
201 
215 
218 
220 
227 
220 
218 
222 
225 
224 
224 
224 
224 
224 
224 
224 
224 
223 
216 
202 
182 
146 
74 
109 
223 
182 
162 
196 
194 
190 
169 
134 
136 
107 
105 
116 
147 
153 
139 
144 
195 
206 
206 
207 
218 
223 
220 
224 
223 
220 
223 
225 
224 
223 
224 
225 
224 
224 
224 
224 
223 
222 
188 
171 
161 
134 
143 
200 
215 
170 
206 
210 
171 
208 
180 
194 
124 
104 
171 
174 
185 
169 
155 
198 
195 
211 
217 
223 
224 
219 
222 
226 
222 
225 
225 
224 
223 
224 
225 
224 
224 
224 
224 
218 
223 
200 
199 
192 
190 
193 
209 
203 
174 
191 
222 
183 
213 
191 
213 
136 
97 
186 
189 
192 
177 
161 
188 
189 
214 
221 
221 
222 
220 
223 
226 
224 
225 
225 
224 
223 
224 
225 
224 
224 
224 
224 
219 
225 
215 
210 
211 
221 
222 
190 
179 
184 
176 
223 
223 
207 
203 
225 
165 
129 
176 
206 
186 
178 
186 
198 
208 
225 
223 
219 
222 
222 
223 
221 
224 
225 
225 
223 
223 
225 
225 
223 
224 
224 
224 
222 
222 
219 
219 
215 
214 
217 
183 
162 
195 
185 
200 
218 
212 
218 
205 
189 
183 
185 
218 
176 
180 
213 
216 
226 
229 
222 
221 
224 
222 
222 
220 
223 
224 
224 
223 
224 
225 
224 
223 
224 
224 
224 
220 
225 
218 
227 
214 
214 
216 
192 
178 
187 
193 
197 
201 
209 
208 
185 
190 
213 
204 
214 
162 
176 
218 
219 
225 
222 
217 
223 
224 
219 
223 
225 
222 
223 
224 
223 
224 
225 
224 
222 
224 
224 
224 
221 
221 
222 
224 
225 
223 
219 
215 
203 
190 
154 
187 
194 
194 
199 
194 
201 
214 
197 
181 
147 
144 
198 
218 
225 
223 
221 
221 
222 
224 
225 
225 
224 
224 
224 
224 
224 
224 
224 
224 
224 
224 
224 
221 
222 
223 
225 
226 
224 
220 
216 
211 
195 
159 
179 
184 
193 
205 
209 
204 
204 
185 
145 
141 
133 
193 
214 
225 
223 
221 
220 
221 
221 
221 
221 
224 
224 
224 
224 
224 
224 
224 
224 
224 
224 
224 
222 
222 
224 
226 
227 
225 
222 
219 
220 
208 
184 
191 
188 
197 
202 
209 
196 
195 
182 
142 
159 
157 
201 
219 
221 
221 
220 
221 
222 
223 
223 
223 
224 
224 
224 
224 
224 
224 
224 
224 
224 
224 
224 
222 
223 
223 
225 
226 
225 
223 
221 
225 
220 
211 
210 
201 
205 
200 
204 
191 
193 
187 
172 
182 
197 
213 
224 
221 
221 
222 
223 
224 
225 
225 
225 
224 
224 
224 
224 
224 
224 
224 
224 
224 
224 
224 
223 
223 
222 
223 
223 
224 
224 
224 
224 
223 
221 
215 
207 
213 
210 
216 
213 
209 
208 
206 
201 
223 
227 
229 
225 
225 
225 
225 
224 
223 
223 
222 
224 
224 
224 
224 
224 
224 
224 
224 
224 
224 
224 
223 
223 
222 
222 
222 
223 
224 
224 
222 
223 
224 
219 
215 
220 
222 
228 
230 
221 
226 
223 
219 
228 
233 
227 
224 
224 
225 
225 
224 
223 
223 
223 
224 
224 
224 
224 
224 
224 
224 
224 
224 
224 
224 
223 
223 
223 
223 
223 
223 
223 
224 
222 
225 
225 
224 
223 
222 
226 
226 
222 
220 
222 
222 
226 
223 
226 
220 
221 
222 
223 
224 
224 
224 
225 
226 
224 
224 
224 
224 
224 
224 
224 
224 
224 
224 
224 
223 
223 
224 
224 
224 
223 
223 
223 
222 
224 
221 
222 
222 
219 
225 
223 
220 
226 
216 
221 
228 
224 
221 
224 
224 
225 
225 
225 
224 
223 
224 
225 
224 
224 
224 
224 
224 
224 
224 
224 
224 
224 
224 
223 
223 
223 
223 
223 
223 
224 
224 
225 
224 
222 
223 
224 
225 
223 
222 
221 
220 
223 
227 
226 
222 
222 
226 
225 
224 
224 
223 
224 
224 
224 
224 
224 
224 
224 
224 
224 
224 
224 
224 
224 
224 
224 
223 
223 
223 
223 
223 
223 
224 
224 
223 
222 
221 
222 
225 
226 
225 
224 
223 
222 
223 
226 
224 
221 
222 
226 
225 
224 
223 
223 
224 
224 
224 
223 
224 
224 
224 
224 
224 
224 
224 
224 
224 
224 
224 
223 
223 
223 
223 
223 
223 
223 
224 
222 
221 
221 
222 
224 
226 
225 
225 
225 
223 
223 
224 
223 
221 
222 
226 
225 
224 
223 
223 
224 
224 
224 
223 
224 
224 
224 
223 
224 
224 
224 
224 
224 
224 
224 
222 
222 
223 
223 
223 
223 
223 
223 
224 
223 
223 
223 
224 
224 
224 
223 
224 
223 
223 
224 
223 
222 
223 
226 
225 
224 
223 
223 
224 
224 
224 
223 
224 
224 
223 
223 
223 
224 
224 
224 
225 
224 
224 
222 
222 
223 
223 
223 
223 
223 
223 
224 
224 
223 
223 
223 
223 
223 
222 
223 
222 
223 
224 
224 
224 
224 
225 
225 
224 
223 
223 
223 
224 
224 
223 
223 
223 
223 
223 
223 
224 
224 
224 
225 
225 
224 
221 
222 
222 
223 
224 
224 
223 
223 
223 
223 
223 
223 
223 
223 
223 
223 
222 
222 
223 
225 
225 
225 
225 
224 
225 
224 
223 
223 
223 
224 
223 
223 
223 
223 
223 
223 
223 
224 
224 
224 
225 
225 
224 
221 
221 
222 
223 
224 
224 
223 
223 
222 
223 
223 
223 
223 
223 
223 
224 
222 
223 
224 
224 
225 
225 
224 
224 
224 
224 
223 
223 
223 
224 
223 
223 
223 
223 
223 
223 
223 
224 
224 
224 
225 
225 
224 
