P2
# Created by MsrVolt
63 69
255
224 
224 
225 
225 
224 
224 
224 
224 
223 
224 
224 
224 
224 
224 
224 
224 
226 
221 
222 
227 
227 
222 
221 
226 
226 
226 
224 
223 
223 
223 
224 
225 
224 
224 
224 
224 
224 
224 
224 
224 
224 
224 
224 
224 
224 
224 
224 
224 
224 
224 
224 
224 
224 
224 
224 
224 
224 
224 
224 
224 
224 
224 
224 
224 
225 
225 
225 
224 
224 
224 
224 
223 
224 
224 
224 
224 
224 
224 
224 
223 
224 
224 
224 
226 
229 
228 
225 
225 
225 
225 
224 
224 
224 
224 
224 
224 
224 
224 
224 
224 
224 
224 
224 
224 
224 
224 
224 
224 
224 
224 
224 
224 
224 
224 
224 
224 
224 
224 
224 
224 
224 
224 
224 
224 
224 
224 
224 
225 
225 
225 
224 
224 
224 
224 
223 
224 
224 
224 
224 
224 
224 
224 
225 
227 
226 
223 
222 
224 
223 
220 
225 
225 
225 
225 
224 
224 
224 
224 
224 
224 
224 
224 
224 
224 
224 
224 
224 
224 
224 
224 
224 
224 
224 
224 
224 
224 
224 
224 
224 
224 
224 
224 
224 
224 
224 
224 
224 
224 
224 
224 
225 
225 
225 
224 
223 
223 
224 
223 
224 
224 
224 
224 
224 
224 
224 
223 
221 
223 
227 
226 
223 
225 
232 
225 
225 
225 
224 
224 
224 
224 
224 
224 
224 
224 
224 
224 
224 
224 
224 
224 
224 
224 
224 
224 
224 
224 
224 
224 
224 
224 
224 
224 
224 
224 
224 
224 
224 
224 
224 
224 
224 
224 
224 
225 
225 
225 
224 
223 
223 
223 
223 
224 
224 
224 
224 
224 
224 
224 
224 
219 
217 
221 
223 
222 
223 
226 
225 
225 
224 
224 
224 
224 
224 
225 
224 
224 
224 
224 
224 
224 
224 
224 
224 
224 
224 
224 
224 
224 
224 
224 
224 
224 
224 
224 
224 
224 
224 
224 
224 
224 
224 
224 
224 
224 
224 
224 
225 
225 
225 
224 
223 
223 
223 
223 
224 
224 
224 
224 
224 
224 
224 
227 
223 
216 
213 
220 
228 
226 
218 
225 
224 
224 
224 
224 
224 
224 
224 
224 
224 
224 
224 
224 
224 
224 
224 
224 
224 
224 
224 
224 
224 
224 
224 
224 
224 
224 
224 
224 
224 
224 
224 
224 
224 
224 
224 
224 
224 
224 
224 
225 
225 
225 
224 
223 
223 
223 
223 
224 
224 
224 
224 
224 
224 
224 
222 
223 
219 
215 
221 
232 
235 
231 
223 
224 
225 
226 
226 
225 
224 
223 
224 
224 
224 
224 
224 
224 
224 
224 
224 
224 
224 
224 
224 
224 
224 
224 
224 
224 
224 
224 
224 
224 
224 
224 
224 
224 
224 
224 
224 
224 
224 
224 
225 
225 
225 
223 
223 
222 
223 
223 
224 
224 
224 
224 
224 
224 
224 
221 
221 
220 
216 
209 
207 
214 
223 
221 
223 
226 
227 
228 
226 
223 
221 
224 
224 
224 
224 
224 
224 
224 
224 
224 
224 
224 
224 
224 
224 
224 
224 
224 
224 
224 
224 
224 
224 
224 
224 
224 
224 
224 
224 
224 
224 
224 
224 
224 
224 
224 
224 
224 
224 
224 
224 
224 
224 
224 
224 
224 
224 
224 
222 
207 
204 
212 
201 
179 
184 
207 
231 
218 
230 
225 
217 
225 
223 
223 
226 
226 
225 
225 
224 
224 
223 
223 
224 
224 
224 
224 
224 
224 
224 
224 
224 
224 
224 
224 
224 
224 
224 
224 
224 
224 
224 
224 
224 
224 
224 
224 
224 
224 
224 
224 
224 
224 
224 
224 
224 
224 
224 
224 
224 
224 
224 
214 
208 
207 
208 
203 
193 
188 
189 
211 
220 
230 
228 
220 
224 
232 
230 
224 
224 
224 
224 
225 
225 
225 
225 
224 
224 
224 
224 
224 
224 
224 
224 
224 
224 
224 
224 
224 
224 
224 
224 
224 
224 
224 
224 
224 
224 
224 
224 
224 
224 
224 
224 
224 
224 
224 
224 
224 
224 
224 
224 
224 
224 
224 
211 
211 
209 
204 
198 
189 
179 
172 
194 
206 
211 
228 
233 
224 
230 
229 
223 
223 
224 
224 
225 
225 
226 
226 
224 
224 
224 
224 
224 
224 
224 
224 
224 
224 
224 
224 
224 
224 
224 
224 
224 
224 
224 
224 
224 
224 
224 
224 
224 
224 
224 
224 
224 
224 
224 
224 
224 
224 
224 
224 
224 
224 
224 
226 
216 
205 
194 
180 
172 
181 
196 
207 
194 
183 
214 
238 
223 
217 
223 
225 
225 
225 
225 
225 
225 
224 
224 
224 
224 
224 
224 
224 
224 
224 
224 
224 
224 
224 
224 
224 
224 
224 
224 
224 
224 
224 
224 
224 
224 
224 
224 
224 
224 
224 
224 
224 
224 
224 
224 
224 
224 
224 
224 
224 
224 
224 
214 
210 
210 
209 
193 
177 
181 
198 
213 
195 
174 
187 
220 
231 
227 
232 
226 
226 
225 
225 
225 
224 
224 
224 
224 
224 
224 
224 
224 
224 
224 
224 
224 
224 
224 
224 
224 
224 
224 
224 
224 
224 
224 
224 
224 
224 
224 
224 
224 
224 
224 
224 
224 
224 
224 
224 
224 
224 
224 
224 
224 
224 
224 
222 
214 
204 
194 
181 
172 
176 
186 
216 
215 
189 
169 
194 
227 
227 
215 
225 
225 
225 
225 
225 
225 
225 
225 
224 
224 
224 
224 
224 
224 
224 
224 
224 
224 
224 
224 
224 
224 
224 
224 
224 
224 
224 
224 
224 
224 
224 
224 
224 
224 
224 
224 
224 
224 
224 
224 
224 
224 
224 
224 
224 
224 
224 
219 
209 
198 
189 
178 
167 
161 
162 
186 
186 
153 
145 
182 
224 
241 
224 
224 
225 
225 
225 
225 
225 
226 
226 
224 
224 
224 
224 
224 
224 
224 
224 
224 
224 
224 
224 
224 
224 
224 
224 
224 
224 
224 
224 
224 
224 
224 
224 
224 
224 
224 
224 
224 
224 
224 
224 
224 
224 
224 
224 
224 
224 
224 
216 
201 
189 
186 
178 
166 
163 
169 
189 
161 
107 
124 
172 
204 
233 
223 
225 
225 
225 
225 
225 
225 
225 
225 
224 
224 
224 
224 
224 
224 
224 
224 
224 
224 
224 
224 
224 
224 
224 
224 
224 
224 
224 
224 
224 
224 
224 
224 
224 
224 
224 
224 
224 
224 
224 
224 
224 
224 
225 
225 
225 
225 
225 
225 
202 
190 
193 
187 
175 
177 
189 
176 
159 
122 
126 
167 
191 
205 
218 
223 
227 
225 
222 
226 
224 
222 
228 
224 
224 
224 
224 
224 
225 
225 
225 
224 
224 
224 
224 
224 
224 
224 
224 
224 
224 
224 
224 
224 
224 
224 
224 
224 
224 
224 
224 
224 
224 
224 
224 
224 
224 
224 
224 
224 
223 
223 
221 
213 
203 
206 
211 
197 
187 
195 
172 
181 
196 
187 
183 
178 
175 
211 
231 
223 
217 
226 
224 
223 
231 
218 
224 
224 
224 
224 
224 
224 
225 
225 
224 
224 
224 
224 
224 
224 
224 
224 
224 
224 
224 
224 
224 
224 
224 
224 
224 
224 
224 
224 
224 
224 
224 
224 
224 
224 
224 
223 
222 
222 
221 
215 
216 
204 
201 
215 
213 
206 
215 
212 
191 
207 
209 
190 
178 
177 
203 
233 
227 
218 
233 
229 
216 
229 
224 
224 
223 
223 
223 
223 
224 
224 
224 
224 
224 
224 
224 
224 
224 
224 
224 
224 
224 
224 
224 
224 
224 
224 
224 
224 
224 
224 
224 
224 
224 
224 
224 
224 
224 
224 
224 
223 
222 
221 
224 
224 
208 
191 
192 
199 
202 
206 
207 
191 
189 
210 
207 
178 
176 
188 
216 
236 
226 
220 
222 
215 
218 
226 
223 
223 
223 
223 
223 
223 
224 
224 
224 
224 
224 
224 
224 
224 
224 
224 
224 
224 
224 
224 
224 
224 
224 
224 
224 
224 
224 
224 
224 
224 
224 
223 
224 
224 
224 
224 
224 
224 
223 
220 
217 
208 
186 
171 
181 
193 
188 
177 
189 
183 
194 
208 
180 
156 
161 
176 
216 
236 
215 
215 
230 
224 
222 
223 
223 
223 
223 
223 
223 
223 
224 
224 
224 
224 
224 
224 
224 
224 
224 
224 
224 
224 
224 
224 
224 
224 
224 
224 
224 
224 
224 
224 
224 
224 
224 
224 
224 
224 
225 
225 
225 
226 
226 
221 
218 
202 
185 
199 
215 
206 
172 
170 
179 
166 
166 
176 
148 
127 
110 
146 
218 
236 
222 
229 
226 
225 
223 
223 
223 
223 
223 
223 
224 
224 
224 
224 
224 
224 
224 
224 
224 
224 
224 
224 
224 
224 
224 
224 
224 
224 
224 
224 
224 
224 
224 
224 
224 
224 
224 
224 
223 
224 
225 
226 
227 
228 
222 
215 
201 
190 
197 
202 
191 
158 
154 
169 
154 
146 
159 
131 
96 
68 
88 
171 
228 
225 
218 
219 
223 
224 
223 
223 
223 
223 
224 
224 
224 
224 
224 
224 
224 
224 
224 
224 
224 
224 
224 
224 
224 
224 
224 
224 
224 
224 
224 
224 
224 
224 
224 
224 
225 
224 
223 
223 
223 
224 
226 
227 
226 
224 
215 
205 
203 
200 
187 
174 
152 
164 
137 
135 
169 
154 
106 
80 
81 
93 
139 
196 
224 
229 
227 
221 
224 
224 
223 
223 
224 
224 
224 
224 
224 
224 
224 
224 
224 
224 
224 
224 
224 
224 
224 
224 
224 
224 
224 
224 
224 
224 
224 
224 
224 
224 
224 
224 
224 
224 
224 
223 
222 
222 
223 
226 
221 
219 
206 
212 
203 
188 
174 
154 
175 
173 
130 
177 
182 
139 
114 
119 
126 
103 
151 
230 
228 
228 
221 
224 
224 
223 
222 
223 
224 
224 
223 
223 
224 
225 
225 
223 
223 
225 
226 
225 
225 
225 
225 
225 
225 
225 
224 
224 
224 
224 
224 
224 
224 
224 
224 
224 
225 
224 
223 
223 
223 
223 
223 
222 
218 
210 
210 
214 
189 
176 
171 
191 
168 
147 
180 
173 
148 
119 
123 
118 
105 
154 
230 
225 
225 
227 
225 
226 
226 
226 
225 
225 
224 
224 
224 
223 
223 
223 
224 
225 
225 
225 
225 
225 
225 
225 
225 
225 
225 
224 
224 
224 
224 
224 
224 
224 
225 
224 
225 
225 
225 
224 
223 
224 
224 
224 
224 
216 
211 
201 
217 
181 
172 
183 
189 
169 
170 
180 
154 
131 
108 
94 
79 
90 
148 
221 
225 
222 
222 
221 
223 
225 
225 
224 
222 
222 
222 
225 
223 
222 
223 
224 
226 
225 
224 
225 
225 
225 
225 
225 
225 
225 
224 
224 
224 
224 
224 
225 
225 
225 
225 
225 
225 
225 
224 
224 
224 
225 
226 
224 
216 
211 
197 
211 
176 
176 
174 
166 
179 
177 
158 
109 
87 
94 
61 
47 
85 
150 
193 
218 
226 
230 
226 
226 
226 
226 
226 
226 
226 
226 
225 
224 
223 
223 
225 
225 
225 
225 
225 
225 
225 
225 
225 
225 
225 
224 
224 
224 
224 
225 
225 
225 
225 
225 
225 
226 
225 
225 
224 
225 
225 
225 
221 
221 
216 
205 
204 
180 
186 
176 
164 
191 
183 
151 
82 
74 
104 
72 
53 
102 
163 
158 
185 
206 
228 
229 
227 
224 
223 
224 
225 
225 
225 
224 
224 
225 
225 
224 
224 
225 
226 
225 
225 
225 
225 
225 
225 
225 
224 
224 
224 
224 
225 
225 
225 
225 
225 
225 
226 
225 
225 
224 
225 
225 
224 
223 
225 
223 
212 
196 
183 
188 
191 
177 
187 
185 
172 
102 
93 
105 
89 
65 
114 
175 
157 
174 
193 
221 
229 
227 
224 
223 
223 
224 
224 
223 
223 
224 
225 
225 
224 
223 
225 
227 
225 
225 
225 
225 
225 
225 
225 
224 
224 
224 
225 
225 
225 
225 
225 
224 
225 
225 
225 
224 
224 
225 
225 
224 
229 
224 
223 
210 
190 
185 
188 
192 
176 
172 
163 
169 
125 
94 
92 
96 
91 
136 
179 
175 
179 
190 
213 
226 
228 
230 
230 
229 
227 
228 
229 
223 
223 
223 
223 
223 
224 
224 
225 
225 
225 
225 
225 
225 
225 
225 
224 
224 
225 
225 
225 
225 
225 
225 
224 
225 
225 
225 
224 
224 
225 
225 
222 
234 
220 
220 
205 
191 
193 
193 
189 
174 
177 
143 
145 
132 
84 
98 
118 
139 
174 
172 
163 
149 
155 
176 
211 
218 
226 
228 
225 
223 
224 
227 
223 
222 
221 
222 
223 
224 
224 
223 
225 
225 
225 
225 
225 
225 
225 
225 
225 
225 
225 
225 
225 
225 
225 
225 
225 
225 
225 
225 
225 
225 
225 
227 
226 
226 
220 
207 
198 
193 
188 
182 
180 
167 
135 
115 
117 
73 
94 
148 
149 
155 
164 
168 
150 
138 
158 
205 
234 
229 
225 
231 
219 
216 
226 
224 
223 
224 
226 
224 
222 
222 
225 
224 
224 
224 
224 
224 
224 
224 
225 
225 
225 
225 
225 
225 
225 
225 
225 
225 
225 
225 
225 
225 
225 
225 
223 
223 
226 
223 
211 
199 
192 
187 
179 
168 
155 
132 
128 
122 
76 
79 
130 
140 
161 
172 
178 
160 
139 
159 
202 
232 
231 
224 
229 
229 
225 
216 
225 
222 
222 
225 
226 
224 
223 
223 
224 
224 
224 
224 
224 
224 
224 
225 
225 
225 
225 
225 
225 
225 
225 
225 
225 
225 
225 
225 
225 
225 
225 
224 
223 
226 
223 
208 
193 
183 
177 
176 
173 
168 
148 
152 
145 
122 
120 
135 
132 
166 
190 
185 
148 
116 
130 
181 
182 
179 
198 
225 
234 
232 
228 
229 
224 
221 
223 
226 
226 
224 
222 
224 
224 
224 
224 
224 
224 
224 
225 
225 
225 
225 
225 
225 
225 
225 
225 
225 
225 
225 
225 
225 
225 
225 
227 
223 
223 
219 
204 
187 
176 
168 
159 
160 
154 
142 
145 
136 
117 
104 
95 
116 
154 
165 
135 
102 
98 
112 
142 
127 
122 
164 
220 
232 
220 
219 
233 
228 
222 
221 
224 
225 
225 
224 
224 
224 
224 
224 
224 
224 
224 
225 
225 
225 
225 
225 
225 
225 
225 
225 
225 
225 
225 
225 
225 
225 
225 
225 
221 
221 
218 
205 
190 
174 
161 
143 
133 
128 
140 
140 
120 
85 
62 
93 
151 
140 
97 
94 
111 
117 
103 
79 
95 
101 
134 
204 
239 
229 
223 
228 
226 
224 
222 
223 
224 
225 
225 
224 
224 
224 
224 
224 
224 
224 
225 
225 
225 
225 
225 
225 
225 
225 
225 
225 
225 
225 
225 
225 
225 
225 
223 
221 
220 
217 
208 
193 
170 
147 
128 
120 
132 
150 
132 
104 
87 
92 
132 
178 
114 
45 
84 
126 
106 
68 
77 
107 
110 
109 
159 
211 
223 
229 
218 
221 
224 
225 
224 
224 
224 
223 
224 
224 
224 
224 
224 
224 
224 
225 
225 
225 
225 
225 
225 
225 
225 
225 
225 
225 
225 
225 
225 
225 
225 
224 
221 
218 
214 
209 
197 
169 
138 
111 
109 
130 
122 
97 
87 
111 
140 
150 
152 
109 
62 
86 
118 
98 
79 
86 
101 
106 
98 
133 
197 
231 
240 
217 
221 
225 
225 
224 
225 
224 
223 
224 
224 
224 
224 
224 
224 
224 
225 
225 
225 
225 
225 
225 
225 
225 
225 
225 
225 
225 
225 
225 
225 
225 
225 
221 
216 
211 
210 
204 
176 
142 
109 
103 
118 
89 
89 
115 
160 
177 
161 
112 
107 
88 
83 
117 
113 
100 
89 
96 
110 
108 
139 
209 
234 
217 
223 
225 
225 
223 
223 
225 
225 
224 
224 
224 
224 
224 
224 
224 
224 
225 
225 
225 
225 
225 
225 
225 
225 
225 
225 
225 
225 
225 
225 
224 
224 
223 
219 
214 
211 
209 
202 
187 
174 
147 
127 
119 
100 
104 
122 
151 
166 
134 
115 
105 
87 
76 
99 
112 
98 
113 
116 
116 
106 
147 
213 
229 
228 
229 
227 
222 
221 
225 
224 
222 
227 
224 
224 
224 
224 
224 
224 
224 
225 
225 
225 
225 
225 
225 
225 
225 
225 
225 
225 
225 
225 
225 
224 
224 
228 
223 
215 
208 
204 
202 
197 
191 
173 
169 
147 
99 
85 
101 
133 
146 
156 
123 
97 
88 
86 
100 
111 
101 
125 
114 
123 
120 
133 
178 
213 
235 
223 
222 
225 
225 
222 
225 
227 
222 
224 
224 
224 
224 
224 
224 
224 
225 
225 
225 
225 
225 
225 
225 
225 
225 
225 
225 
225 
225 
225 
224 
224 
222 
223 
220 
214 
207 
203 
200 
197 
176 
193 
177 
120 
82 
87 
127 
151 
148 
118 
82 
77 
80 
90 
113 
117 
104 
94 
118 
135 
127 
129 
167 
226 
231 
221 
224 
228 
222 
224 
228 
221 
224 
224 
224 
224 
224 
224 
224 
225 
225 
225 
225 
225 
225 
225 
225 
225 
225 
225 
225 
225 
225 
224 
224 
218 
221 
223 
219 
211 
204 
197 
193 
162 
176 
179 
147 
95 
80 
118 
144 
125 
120 
90 
76 
69 
75 
115 
137 
97 
98 
121 
141 
141 
129 
144 
193 
237 
225 
222 
226 
225 
222 
224 
225 
224 
224 
224 
224 
224 
224 
224 
225 
225 
225 
225 
225 
225 
225 
225 
225 
225 
225 
225 
225 
225 
224 
224 
223 
224 
222 
217 
211 
205 
200 
196 
175 
171 
183 
168 
107 
82 
104 
114 
111 
122 
105 
89 
65 
56 
98 
134 
112 
110 
118 
123 
129 
142 
145 
139 
206 
224 
227 
223 
226 
223 
220 
228 
224 
224 
224 
224 
224 
224 
224 
225 
225 
225 
225 
225 
225 
225 
225 
225 
225 
225 
225 
225 
225 
224 
224 
226 
225 
223 
220 
216 
211 
205 
199 
193 
187 
199 
171 
102 
88 
100 
102 
103 
108 
103 
98 
74 
52 
80 
116 
125 
109 
117 
122 
113 
134 
148 
125 
155 
210 
233 
222 
225 
226 
221 
225 
224 
224 
224 
224 
224 
224 
224 
225 
225 
225 
225 
225 
225 
225 
225 
225 
225 
225 
225 
225 
225 
224 
224 
223 
224 
225 
224 
221 
215 
206 
198 
192 
190 
194 
149 
95 
104 
107 
110 
100 
93 
92 
95 
81 
64 
73 
95 
103 
101 
107 
107 
99 
111 
132 
132 
132 
194 
230 
226 
225 
228 
225 
223 
224 
224 
224 
224 
224 
224 
224 
225 
225 
225 
225 
225 
225 
225 
225 
225 
225 
225 
225 
225 
225 
224 
224 
223 
224 
223 
221 
218 
213 
206 
200 
199 
190 
178 
132 
106 
131 
119 
120 
95 
84 
81 
77 
69 
64 
62 
67 
92 
122 
108 
85 
100 
121 
134 
146 
140 
183 
221 
229 
227 
228 
226 
222 
224 
224 
224 
224 
224 
224 
224 
225 
225 
225 
225 
225 
225 
225 
225 
225 
225 
225 
225 
225 
225 
225 
225 
224 
225 
224 
221 
220 
218 
214 
210 
188 
183 
165 
145 
141 
145 
124 
88 
66 
83 
88 
81 
79 
65 
49 
55 
76 
115 
113 
103 
128 
152 
136 
140 
143 
179 
225 
233 
223 
227 
228 
225 
225 
225 
225 
225 
225 
225 
225 
225 
225 
225 
225 
225 
225 
225 
225 
225 
225 
225 
225 
225 
225 
225 
225 
224 
225 
224 
221 
218 
216 
212 
208 
180 
178 
169 
141 
128 
150 
148 
107 
73 
82 
86 
74 
77 
73 
51 
46 
62 
100 
124 
136 
148 
152 
129 
127 
120 
164 
221 
235 
219 
217 
223 
229 
225 
225 
225 
225 
225 
225 
225 
225 
225 
225 
225 
225 
225 
225 
225 
225 
225 
225 
225 
225 
225 
225 
225 
223 
225 
225 
223 
219 
215 
211 
207 
182 
161 
151 
133 
121 
149 
153 
106 
78 
81 
81 
71 
76 
80 
60 
48 
63 
89 
115 
133 
147 
159 
139 
128 
118 
151 
205 
228 
223 
221 
222 
225 
225 
225 
225 
225 
225 
225 
225 
225 
225 
225 
225 
225 
225 
225 
225 
225 
225 
225 
225 
225 
225 
225 
225 
222 
225 
227 
225 
221 
217 
213 
210 
188 
150 
139 
142 
134 
138 
129 
93 
83 
82 
73 
75 
78 
74 
70 
59 
72 
95 
103 
106 
128 
163 
156 
144 
142 
154 
192 
221 
228 
229 
224 
223 
225 
225 
225 
225 
225 
225 
225 
225 
225 
225 
225 
225 
225 
225 
225 
225 
225 
225 
225 
225 
225 
225 
225 
222 
225 
227 
225 
222 
219 
214 
210 
187 
161 
158 
168 
154 
126 
103 
89 
90 
83 
59 
77 
83 
65 
75 
68 
73 
101 
98 
88 
110 
150 
155 
160 
164 
167 
196 
222 
226 
225 
224 
228 
225 
225 
225 
225 
225 
225 
225 
225 
225 
225 
225 
225 
225 
225 
225 
225 
225 
225 
225 
225 
225 
225 
225 
224 
226 
226 
225 
222 
219 
214 
209 
189 
182 
180 
181 
164 
127 
94 
80 
91 
80 
49 
72 
85 
67 
78 
74 
79 
90 
75 
66 
89 
127 
146 
174 
178 
175 
199 
222 
226 
223 
222 
227 
225 
225 
225 
225 
225 
225 
225 
225 
225 
225 
225 
225 
225 
225 
225 
225 
225 
225 
225 
225 
225 
225 
225 
225 
226 
225 
224 
224 
222 
216 
210 
196 
191 
184 
176 
164 
141 
109 
84 
90 
83 
60 
67 
83 
76 
77 
80 
84 
79 
67 
67 
81 
114 
144 
180 
186 
178 
197 
220 
227 
226 
222 
224 
225 
225 
225 
225 
225 
225 
225 
225 
225 
225 
225 
225 
225 
225 
225 
225 
225 
225 
225 
225 
225 
225 
225 
226 
225 
225 
225 
226 
225 
219 
213 
197 
189 
181 
173 
163 
154 
134 
107 
92 
93 
81 
69 
78 
81 
72 
80 
77 
81 
93 
99 
92 
114 
144 
176 
188 
181 
201 
221 
225 
224 
223 
228 
225 
225 
225 
225 
225 
225 
225 
225 
225 
225 
225 
225 
225 
225 
225 
225 
225 
225 
225 
225 
225 
225 
225 
224 
225 
225 
224 
226 
226 
219 
210 
196 
188 
173 
169 
156 
153 
158 
127 
97 
103 
93 
75 
83 
73 
69 
74 
76 
92 
116 
123 
108 
150 
167 
167 
168 
183 
205 
222 
227 
226 
225 
227 
225 
225 
225 
225 
225 
225 
225 
225 
225 
225 
225 
225 
225 
225 
225 
225 
225 
225 
225 
225 
225 
225 
225 
225 
226 
225 
224 
225 
227 
222 
216 
201 
193 
179 
172 
160 
163 
176 
157 
125 
112 
101 
87 
85 
74 
73 
70 
74 
96 
117 
120 
117 
170 
181 
163 
162 
190 
220 
231 
229 
226 
224 
222 
225 
225 
225 
225 
225 
225 
225 
225 
225 
225 
225 
225 
225 
225 
225 
225 
225 
225 
225 
225 
225 
225 
225 
225 
226 
225 
223 
224 
226 
225 
222 
215 
205 
191 
191 
188 
194 
201 
180 
152 
125 
114 
103 
86 
76 
81 
76 
83 
99 
120 
130 
120 
149 
161 
163 
170 
201 
226 
228 
223 
225 
227 
224 
225 
225 
225 
225 
225 
225 
225 
225 
225 
225 
225 
225 
225 
225 
225 
225 
225 
225 
225 
225 
225 
225 
225 
224 
225 
224 
222 
223 
225 
226 
225 
219 
210 
200 
202 
202 
206 
207 
186 
164 
142 
130 
116 
91 
81 
88 
88 
93 
104 
130 
155 
143 
144 
155 
176 
189 
208 
222 
221 
220 
226 
229 
225 
225 
225 
225 
225 
225 
225 
225 
225 
225 
225 
225 
225 
225 
225 
225 
225 
225 
225 
225 
225 
225 
225 
225 
224 
225 
225 
224 
224 
225 
226 
225 
220 
217 
213 
208 
200 
201 
207 
201 
185 
178 
164 
147 
126 
111 
103 
101 
109 
129 
153 
176 
178 
178 
177 
179 
202 
213 
222 
225 
226 
227 
226 
223 
225 
225 
225 
225 
225 
225 
225 
225 
225 
225 
225 
225 
225 
225 
225 
225 
225 
225 
225 
225 
225 
225 
225 
225 
225 
226 
226 
226 
226 
226 
225 
226 
224 
222 
217 
211 
209 
210 
209 
208 
208 
194 
182 
167 
144 
113 
102 
117 
143 
158 
175 
187 
193 
194 
190 
216 
221 
227 
230 
227 
223 
224 
226 
225 
225 
225 
225 
225 
225 
225 
225 
225 
225 
225 
225 
225 
225 
225 
225 
225 
225 
225 
225 
225 
225 
225 
226 
225 
225 
225 
226 
226 
226 
225 
225 
222 
223 
222 
218 
213 
205 
200 
205 
205 
198 
198 
181 
153 
113 
98 
109 
138 
154 
171 
190 
198 
211 
219 
226 
227 
228 
227 
223 
222 
225 
229 
225 
225 
225 
225 
225 
225 
225 
225 
225 
225 
225 
225 
225 
225 
225 
225 
225 
225 
225 
225 
225 
225 
225 
225 
224 
223 
224 
225 
226 
225 
224 
226 
227 
231 
226 
217 
208 
201 
202 
198 
196 
199 
209 
185 
155 
120 
107 
115 
153 
170 
183 
204 
215 
225 
226 
227 
227 
226 
225 
226 
227 
226 
223 
225 
225 
225 
225 
225 
225 
225 
225 
225 
225 
225 
225 
225 
225 
225 
225 
225 
225 
225 
225 
225 
225 
225 
225 
225 
225 
225 
225 
225 
225 
225 
224 
225 
224 
222 
219 
217 
211 
205 
199 
198 
204 
208 
192 
164 
148 
149 
164 
185 
203 
210 
216 
227 
230 
226 
221 
223 
225 
226 
226 
225 
225 
226 
225 
225 
225 
225 
225 
225 
225 
225 
225 
225 
225 
225 
225 
225 
225 
225 
225 
225 
225 
225 
225 
225 
225 
225 
225 
225 
225 
225 
225 
225 
225 
225 
225 
225 
223 
222 
220 
215 
211 
205 
199 
200 
209 
211 
203 
199 
202 
213 
217 
222 
225 
227 
230 
229 
226 
223 
225 
226 
226 
225 
225 
225 
225 
225 
225 
225 
225 
225 
225 
225 
225 
225 
225 
225 
225 
225 
225 
225 
225 
225 
225 
225 
225 
225 
225 
225 
225 
225 
225 
225 
225 
225 
225 
225 
225 
225 
225 
224 
224 
224 
221 
218 
215 
210 
211 
220 
228 
229 
227 
227 
232 
227 
225 
228 
226 
222 
221 
224 
226 
226 
227 
226 
225 
224 
224 
225 
225 
225 
225 
225 
225 
225 
225 
225 
225 
225 
225 
225 
225 
225 
225 
225 
225 
225 
225 
225 
225 
225 
225 
225 
225 
225 
225 
225 
225 
225 
225 
225 
224 
223 
224 
225 
225 
224 
223 
222 
223 
226 
228 
228 
226 
223 
222 
224 
223 
226 
230 
226 
221 
223 
230 
228 
227 
227 
226 
225 
225 
225 
225 
225 
225 
225 
225 
225 
225 
225 
225 
225 
225 
225 
225 
225 
225 
225 
225 
225 
225 
225 
225 
225 
225 
225 
225 
225 
225 
225 
225 
225 
225 
225 
225 
223 
222 
222 
224 
225 
225 
224 
225 
227 
227 
225 
223 
223 
224 
225 
222 
225 
228 
229 
227 
224 
226 
229 
228 
227 
226 
225 
225 
226 
226 
226 
225 
225 
225 
225 
225 
225 
225 
