P2
# Created by MsrVolt
87 89
255
225 
224 
224 
224 
224 
224 
224 
224 
224 
224 
224 
224 
224 
225 
225 
225 
225 
225 
225 
225 
225 
225 
225 
225 
225 
225 
225 
225 
225 
225 
225 
225 
225 
225 
225 
225 
225 
225 
225 
225 
225 
225 
225 
225 
225 
225 
225 
225 
225 
225 
225 
225 
225 
225 
225 
225 
225 
225 
225 
225 
225 
225 
225 
225 
225 
225 
225 
225 
225 
225 
225 
225 
225 
225 
225 
225 
225 
225 
225 
225 
225 
225 
226 
226 
226 
225 
225 
225 
224 
224 
224 
224 
224 
224 
224 
224 
224 
224 
224 
225 
225 
225 
225 
225 
225 
225 
225 
225 
225 
225 
225 
225 
225 
225 
225 
225 
225 
225 
225 
225 
225 
225 
225 
225 
225 
225 
225 
225 
225 
225 
225 
225 
225 
225 
225 
225 
225 
225 
225 
225 
225 
225 
225 
225 
225 
225 
225 
225 
225 
225 
225 
225 
225 
225 
225 
225 
225 
225 
225 
225 
225 
225 
225 
225 
225 
225 
225 
225 
225 
225 
225 
225 
225 
225 
224 
224 
224 
224 
223 
223 
224 
224 
224 
224 
224 
224 
225 
225 
225 
225 
225 
225 
225 
225 
225 
225 
225 
225 
225 
225 
225 
225 
225 
225 
225 
225 
225 
225 
225 
225 
225 
225 
225 
225 
225 
225 
225 
225 
225 
225 
225 
225 
225 
225 
225 
225 
225 
225 
225 
225 
225 
225 
225 
225 
225 
225 
225 
225 
225 
225 
225 
225 
225 
225 
225 
225 
225 
225 
225 
225 
225 
225 
225 
225 
225 
225 
225 
225 
225 
225 
225 
224 
224 
224 
223 
223 
223 
224 
224 
224 
224 
224 
225 
225 
225 
225 
225 
225 
225 
225 
225 
225 
225 
225 
225 
225 
225 
225 
225 
225 
225 
225 
225 
225 
225 
225 
225 
225 
225 
225 
225 
225 
225 
225 
225 
225 
225 
225 
225 
225 
225 
225 
225 
225 
225 
225 
225 
225 
225 
225 
225 
225 
225 
225 
225 
225 
225 
225 
225 
225 
225 
225 
225 
225 
225 
225 
225 
225 
225 
225 
225 
225 
225 
225 
225 
225 
225 
225 
224 
224 
224 
223 
223 
223 
223 
224 
224 
225 
225 
225 
225 
225 
225 
225 
225 
225 
225 
225 
225 
225 
225 
225 
225 
225 
225 
225 
225 
225 
225 
225 
225 
225 
225 
225 
225 
225 
225 
225 
225 
225 
225 
225 
225 
225 
225 
225 
225 
225 
225 
225 
225 
225 
225 
225 
225 
225 
225 
225 
225 
225 
225 
225 
225 
225 
225 
225 
225 
225 
225 
225 
225 
225 
225 
225 
225 
225 
225 
225 
225 
225 
225 
225 
225 
225 
226 
224 
224 
223 
223 
223 
223 
223 
223 
225 
225 
225 
225 
225 
225 
225 
225 
225 
225 
225 
225 
225 
225 
225 
225 
225 
225 
225 
225 
225 
225 
225 
225 
225 
225 
225 
225 
225 
225 
225 
225 
225 
225 
225 
225 
225 
225 
225 
225 
225 
225 
225 
225 
225 
225 
225 
225 
225 
225 
225 
225 
225 
225 
225 
225 
225 
225 
225 
225 
225 
225 
225 
225 
225 
225 
225 
225 
225 
225 
225 
225 
226 
225 
225 
225 
225 
226 
226 
224 
224 
223 
223 
223 
223 
223 
223 
225 
225 
225 
225 
225 
225 
225 
225 
225 
225 
225 
225 
225 
225 
225 
225 
225 
225 
225 
225 
225 
225 
225 
225 
225 
225 
225 
225 
225 
225 
225 
225 
225 
225 
225 
225 
225 
225 
225 
225 
225 
225 
225 
225 
225 
225 
225 
225 
225 
225 
225 
225 
225 
225 
225 
225 
225 
225 
225 
225 
225 
225 
225 
225 
225 
225 
225 
225 
225 
225 
225 
225 
226 
226 
225 
225 
226 
226 
227 
224 
224 
223 
223 
223 
223 
223 
223 
225 
225 
225 
225 
225 
225 
225 
225 
225 
225 
225 
225 
225 
225 
225 
225 
225 
225 
225 
225 
225 
225 
225 
225 
225 
225 
225 
225 
225 
225 
225 
225 
225 
225 
225 
225 
225 
225 
225 
225 
225 
225 
225 
225 
225 
225 
225 
225 
225 
225 
225 
225 
225 
225 
225 
225 
225 
225 
225 
225 
225 
225 
225 
225 
225 
225 
225 
225 
225 
225 
225 
225 
227 
226 
226 
226 
226 
227 
228 
224 
224 
223 
223 
223 
223 
224 
224 
225 
225 
225 
225 
225 
225 
225 
225 
225 
225 
225 
225 
225 
225 
225 
225 
225 
225 
225 
225 
225 
225 
225 
225 
226 
225 
225 
225 
225 
225 
225 
225 
225 
224 
224 
224 
226 
227 
226 
224 
225 
226 
225 
219 
229 
224 
224 
224 
229 
227 
226 
225 
225 
225 
224 
224 
227 
227 
230 
221 
223 
230 
223 
225 
227 
223 
227 
221 
230 
229 
224 
225 
226 
226 
226 
226 
226 
226 
226 
224 
224 
223 
223 
223 
223 
224 
224 
225 
225 
225 
225 
225 
225 
225 
225 
225 
225 
225 
225 
225 
225 
225 
225 
225 
225 
225 
225 
225 
225 
225 
225 
225 
225 
225 
225 
225 
225 
225 
226 
223 
225 
226 
224 
222 
220 
221 
222 
220 
220 
227 
224 
226 
221 
225 
223 
220 
222 
225 
225 
222 
221 
224 
226 
226 
220 
222 
225 
226 
225 
222 
226 
224 
223 
228 
226 
223 
221 
225 
228 
227 
227 
226 
226 
226 
226 
226 
224 
224 
223 
223 
223 
223 
224 
224 
225 
225 
225 
225 
225 
225 
225 
225 
225 
225 
225 
225 
225 
225 
225 
225 
225 
225 
225 
225 
225 
225 
225 
225 
225 
225 
225 
225 
225 
226 
226 
226 
226 
226 
226 
225 
223 
223 
224 
225 
228 
221 
227 
227 
227 
226 
228 
220 
224 
223 
224 
223 
221 
223 
228 
229 
234 
228 
223 
228 
226 
222 
226 
226 
227 
225 
223 
227 
225 
225 
228 
225 
227 
227 
227 
226 
226 
226 
226 
224 
224 
223 
223 
223 
224 
224 
225 
225 
225 
225 
225 
225 
225 
225 
225 
225 
225 
225 
225 
225 
225 
225 
225 
225 
225 
225 
225 
225 
225 
225 
225 
225 
225 
225 
225 
225 
226 
226 
226 
228 
225 
222 
223 
225 
225 
224 
224 
224 
221 
220 
220 
222 
223 
224 
221 
228 
223 
223 
225 
224 
229 
230 
223 
218 
223 
219 
222 
220 
223 
232 
223 
222 
228 
221 
225 
228 
230 
229 
224 
226 
226 
226 
226 
226 
226 
226 
224 
224 
223 
223 
223 
224 
224 
225 
225 
225 
225 
225 
225 
225 
225 
225 
225 
225 
225 
225 
225 
225 
225 
225 
225 
225 
225 
225 
225 
225 
225 
225 
225 
225 
225 
225 
225 
225 
226 
226 
226 
223 
221 
222 
222 
220 
220 
220 
220 
226 
224 
222 
225 
225 
225 
233 
225 
220 
225 
227 
224 
228 
231 
222 
222 
231 
228 
231 
231 
230 
235 
226 
215 
231 
229 
222 
224 
225 
226 
229 
225 
225 
225 
225 
226 
226 
226 
224 
223 
223 
223 
223 
224 
224 
225 
225 
225 
225 
225 
225 
225 
225 
225 
225 
225 
225 
225 
225 
225 
225 
225 
225 
225 
225 
225 
225 
225 
225 
225 
225 
225 
224 
224 
224 
224 
225 
225 
220 
221 
225 
227 
224 
220 
222 
227 
223 
226 
220 
223 
225 
226 
219 
221 
224 
222 
227 
223 
211 
218 
232 
232 
225 
222 
211 
213 
219 
217 
222 
229 
225 
224 
232 
221 
224 
223 
224 
224 
225 
225 
225 
226 
226 
226 
226 
224 
223 
223 
223 
223 
224 
225 
225 
225 
225 
225 
225 
225 
225 
225 
225 
225 
225 
225 
225 
225 
225 
225 
225 
225 
225 
225 
225 
225 
225 
225 
225 
225 
225 
224 
224 
224 
223 
224 
224 
221 
220 
223 
228 
228 
225 
223 
226 
225 
220 
221 
226 
211 
215 
215 
210 
216 
214 
220 
213 
195 
201 
218 
218 
213 
202 
185 
181 
201 
213 
218 
237 
222 
193 
226 
226 
227 
225 
230 
222 
228 
227 
227 
227 
226 
226 
226 
223 
223 
223 
223 
223 
224 
225 
225 
225 
225 
225 
225 
225 
225 
225 
225 
225 
225 
225 
225 
225 
225 
225 
225 
225 
225 
225 
225 
225 
225 
225 
225 
225 
225 
224 
223 
223 
223 
223 
223 
226 
218 
216 
222 
227 
223 
215 
209 
185 
185 
203 
205 
164 
168 
189 
191 
196 
197 
209 
206 
187 
185 
191 
181 
196 
189 
170 
156 
181 
200 
196 
209 
198 
156 
220 
234 
226 
223 
239 
231 
230 
229 
229 
228 
227 
226 
226 
223 
223 
223 
223 
224 
224 
224 
224 
225 
225 
225 
225 
225 
225 
225 
225 
226 
226 
225 
225 
225 
225 
225 
225 
226 
225 
225 
227 
227 
225 
225 
227 
228 
222 
224 
222 
220 
229 
219 
230 
229 
219 
221 
216 
222 
216 
206 
187 
145 
131 
164 
185 
145 
140 
189 
184 
195 
193 
200 
202 
205 
181 
150 
161 
191 
190 
154 
142 
149 
168 
149 
140 
163 
164 
213 
197 
230 
222 
215 
221 
227 
221 
235 
226 
229 
227 
220 
223 
223 
224 
224 
224 
224 
225 
225 
225 
225 
225 
225 
225 
225 
225 
225 
226 
225 
225 
225 
225 
225 
225 
225 
223 
224 
225 
225 
224 
223 
224 
224 
222 
223 
222 
228 
227 
228 
219 
218 
218 
218 
210 
210 
211 
201 
210 
192 
148 
123 
150 
185 
147 
115 
182 
209 
199 
200 
201 
172 
214 
180 
130 
161 
206 
182 
157 
131 
127 
140 
120 
89 
136 
182 
213 
181 
191 
203 
222 
240 
237 
230 
229 
227 
223 
230 
230 
224 
224 
224 
224 
225 
225 
225 
225 
225 
225 
225 
225 
225 
225 
225 
225 
225 
225 
225 
225 
225 
225 
225 
225 
225 
227 
227 
224 
222 
222 
223 
223 
220 
228 
225 
231 
225 
223 
220 
216 
217 
190 
156 
163 
159 
155 
206 
210 
164 
119 
126 
161 
146 
110 
180 
220 
198 
197 
206 
218 
205 
198 
198 
148 
187 
166 
177 
171 
119 
134 
101 
88 
135 
164 
195 
182 
118 
128 
190 
197 
205 
233 
232 
227 
222 
231 
232 
225 
225 
225 
225 
225 
225 
225 
226 
225 
225 
225 
225 
225 
225 
225 
225 
224 
225 
225 
225 
225 
225 
225 
225 
228 
227 
226 
225 
223 
221 
222 
225 
224 
225 
222 
222 
216 
216 
205 
203 
201 
164 
133 
138 
113 
120 
192 
197 
170 
111 
121 
158 
164 
123 
169 
216 
221 
215 
198 
204 
194 
177 
162 
175 
168 
166 
158 
197 
137 
113 
106 
86 
144 
146 
162 
177 
97 
73 
118 
109 
130 
201 
237 
229 
227 
227 
225 
225 
225 
225 
225 
225 
226 
226 
226 
225 
225 
225 
225 
225 
225 
225 
225 
224 
225 
225 
226 
226 
225 
225 
225 
227 
223 
222 
226 
225 
222 
223 
229 
229 
218 
215 
205 
203 
204 
172 
175 
206 
178 
156 
141 
95 
123 
203 
195 
161 
87 
109 
154 
181 
138 
137 
179 
195 
200 
199 
200 
205 
168 
166 
190 
168 
155 
177 
170 
137 
112 
112 
136 
173 
151 
158 
160 
90 
101 
150 
99 
77 
138 
222 
231 
230 
221 
225 
225 
225 
225 
225 
225 
225 
225 
225 
225 
225 
225 
225 
225 
225 
225 
225 
225 
225 
226 
226 
226 
225 
225 
224 
225 
221 
221 
227 
229 
226 
224 
226 
226 
217 
214 
193 
185 
182 
147 
170 
205 
175 
159 
172 
138 
152 
206 
192 
144 
85 
108 
124 
150 
136 
123 
155 
149 
188 
174 
180 
179 
147 
141 
139 
168 
152 
146 
131 
137 
145 
136 
162 
191 
179 
196 
145 
60 
124 
192 
132 
88 
99 
198 
233 
229 
218 
234 
225 
225 
225 
225 
225 
225 
225 
225 
225 
225 
225 
225 
225 
225 
225 
225 
225 
226 
226 
226 
226 
225 
224 
223 
225 
225 
225 
225 
226 
224 
216 
208 
198 
203 
200 
184 
181 
168 
137 
171 
204 
161 
119 
164 
154 
138 
187 
195 
139 
124 
150 
137 
150 
171 
174 
195 
179 
165 
143 
147 
139 
143 
118 
145 
146 
139 
144 
117 
107 
143 
101 
158 
170 
189 
204 
139 
61 
95 
127 
145 
131 
128 
200 
235 
229 
220 
238 
225 
225 
225 
225 
225 
225 
225 
225 
225 
225 
225 
225 
225 
225 
225 
225 
226 
226 
226 
226 
226 
225 
223 
223 
224 
229 
228 
221 
218 
217 
204 
186 
164 
177 
171 
177 
192 
172 
133 
155 
179 
155 
102 
156 
149 
103 
148 
174 
116 
105 
128 
135 
172 
206 
197 
190 
196 
184 
153 
155 
176 
168 
151 
146 
141 
148 
146 
124 
115 
121 
98 
148 
166 
144 
176 
149 
69 
72 
95 
180 
162 
181 
218 
236 
233 
222 
234 
225 
225 
225 
225 
225 
225 
225 
225 
226 
225 
225 
226 
226 
226 
225 
224 
223 
224 
224 
223 
221 
222 
224 
226 
218 
230 
227 
216 
198 
203 
206 
160 
160 
163 
177 
193 
191 
183 
141 
149 
151 
139 
95 
121 
127 
104 
133 
127 
101 
110 
148 
146 
179 
197 
208 
173 
182 
197 
182 
194 
195 
176 
161 
155 
141 
134 
118 
130 
149 
146 
122 
120 
113 
103 
161 
124 
64 
98 
118 
163 
180 
183 
213 
235 
227 
225 
232 
225 
225 
225 
225 
225 
225 
225 
225 
226 
225 
224 
224 
225 
225 
225 
225 
223 
221 
221 
223 
224 
223 
222 
221 
226 
229 
222 
212 
193 
193 
196 
159 
174 
185 
194 
192 
205 
176 
156 
161 
142 
103 
85 
109 
130 
126 
94 
81 
125 
148 
184 
188 
194 
192 
184 
180 
195 
175 
182 
205 
173 
197 
185 
170 
137 
135 
119 
123 
133 
115 
92 
91 
89 
103 
118 
95 
136 
152 
128 
159 
192 
185 
202 
227 
228 
223 
226 
225 
225 
225 
225 
225 
225 
225 
225 
226 
225 
224 
224 
225 
226 
226 
226 
223 
222 
223 
225 
226 
224 
222 
223 
228 
216 
203 
200 
189 
187 
187 
157 
161 
200 
197 
189 
190 
171 
152 
147 
128 
88 
93 
137 
149 
132 
107 
115 
138 
146 
192 
209 
206 
205 
197 
201 
198 
168 
165 
167 
153 
174 
175 
170 
144 
174 
127 
109 
74 
95 
90 
108 
121 
73 
131 
132 
136 
169 
145 
152 
182 
183 
199 
221 
229 
224 
221 
225 
225 
225 
225 
225 
225 
225 
225 
225 
225 
224 
225 
226 
227 
227 
227 
223 
225 
228 
229 
226 
223 
225 
229 
227 
202 
187 
196 
200 
199 
193 
166 
156 
192 
187 
167 
148 
147 
145 
151 
142 
100 
100 
134 
170 
187 
167 
125 
157 
130 
181 
197 
186 
189 
203 
195 
200 
163 
117 
107 
130 
148 
167 
171 
166 
174 
101 
94 
70 
109 
115 
151 
137 
85 
137 
123 
84 
188 
184 
172 
162 
176 
191 
206 
220 
226 
224 
225 
225 
225 
225 
225 
225 
225 
225 
225 
225 
225 
226 
226 
225 
224 
222 
222 
226 
228 
227 
225 
224 
224 
224 
215 
192 
183 
196 
203 
201 
190 
168 
168 
148 
144 
105 
106 
131 
151 
160 
134 
99 
135 
142 
167 
197 
181 
142 
167 
168 
198 
170 
142 
181 
205 
175 
202 
141 
82 
88 
99 
150 
172 
165 
182 
197 
149 
116 
129 
161 
163 
159 
160 
128 
98 
81 
69 
175 
184 
168 
160 
158 
162 
180 
207 
227 
233 
225 
225 
225 
225 
225 
225 
225 
225 
226 
225 
225 
225 
225 
223 
220 
218 
219 
224 
225 
222 
221 
221 
216 
207 
201 
191 
189 
194 
191 
186 
175 
160 
149 
135 
141 
100 
94 
161 
172 
173 
120 
110 
149 
165 
180 
189 
194 
179 
178 
198 
188 
157 
132 
180 
192 
181 
202 
148 
131 
109 
100 
144 
153 
145 
165 
172 
142 
121 
131 
131 
117 
129 
160 
139 
96 
77 
91 
133 
133 
149 
160 
132 
131 
165 
200 
226 
236 
225 
225 
225 
225 
225 
225 
225 
225 
225 
225 
225 
225 
224 
223 
221 
220 
219 
228 
228 
216 
210 
212 
208 
198 
201 
201 
202 
194 
183 
178 
167 
154 
138 
132 
128 
109 
108 
192 
155 
125 
110 
159 
181 
175 
175 
188 
194 
193 
199 
190 
155 
159 
144 
161 
171 
190 
199 
191 
194 
131 
115 
133 
141 
141 
146 
155 
124 
91 
93 
108 
90 
112 
104 
133 
102 
75 
126 
126 
107 
143 
132 
104 
119 
159 
182 
208 
229 
225 
225 
225 
225 
225 
225 
225 
225 
225 
225 
224 
225 
226 
226 
225 
225 
220 
235 
235 
215 
199 
201 
204 
200 
201 
203 
202 
187 
175 
174 
163 
148 
133 
143 
160 
131 
109 
142 
114 
115 
137 
184 
205 
176 
167 
181 
138 
167 
191 
199 
171 
147 
134 
172 
201 
183 
187 
207 
189 
132 
101 
134 
155 
154 
139 
144 
130 
74 
67 
56 
62 
114 
112 
122 
68 
89 
148 
117 
112 
113 
97 
86 
119 
151 
152 
181 
220 
225 
224 
223 
224 
224 
225 
226 
225 
220 
233 
222 
225 
223 
225 
235 
228 
228 
221 
223 
205 
177 
194 
197 
201 
193 
201 
204 
188 
167 
185 
194 
155 
113 
109 
149 
163 
150 
162 
155 
123 
138 
184 
192 
181 
184 
169 
110 
134 
179 
171 
187 
136 
122 
175 
181 
186 
202 
172 
171 
155 
120 
121 
127 
157 
121 
95 
99 
64 
72 
72 
74 
114 
122 
97 
69 
66 
101 
92 
91 
90 
71 
80 
118 
159 
141 
129 
213 
226 
225 
224 
224 
225 
225 
225 
224 
227 
221 
230 
222 
227 
225 
221 
220 
218 
209 
209 
193 
177 
180 
182 
202 
184 
191 
162 
182 
155 
149 
168 
122 
111 
119 
152 
155 
177 
196 
183 
154 
116 
143 
187 
186 
165 
141 
108 
142 
161 
190 
210 
173 
147 
143 
125 
141 
156 
144 
150 
175 
161 
106 
81 
134 
130 
100 
83 
68 
118 
147 
148 
154 
134 
118 
93 
67 
75 
70 
71 
74 
72 
80 
106 
146 
146 
144 
204 
226 
226 
225 
225 
226 
225 
225 
224 
227 
221 
226 
225 
223 
232 
217 
214 
193 
205 
189 
185 
191 
187 
193 
192 
196 
181 
140 
181 
154 
125 
116 
87 
91 
133 
159 
142 
175 
190 
178 
160 
108 
115 
178 
180 
142 
115 
118 
164 
136 
175 
199 
200 
188 
151 
112 
104 
126 
129 
116 
126 
105 
66 
82 
146 
159 
126 
97 
84 
118 
136 
147 
151 
155 
111 
79 
76 
86 
79 
73 
79 
87 
95 
111 
162 
185 
187 
217 
226 
226 
226 
227 
227 
227 
226 
225 
223 
228 
221 
226 
221 
229 
223 
203 
168 
178 
171 
180 
197 
205 
190 
174 
189 
173 
128 
174 
173 
129 
100 
80 
102 
123 
110 
128 
188 
187 
157 
125 
100 
128 
183 
191 
171 
132 
132 
157 
116 
123 
126 
163 
196 
189 
157 
104 
145 
161 
116 
98 
95 
94 
118 
145 
165 
140 
130 
109 
104 
110 
119 
111 
103 
89 
74 
83 
95 
109 
125 
122 
91 
95 
102 
173 
201 
196 
213 
226 
226 
226 
227 
228 
228 
227 
226 
227 
226 
226 
227 
218 
214 
202 
178 
155 
144 
167 
184 
193 
212 
179 
185 
186 
200 
135 
165 
193 
142 
125 
85 
94 
125 
110 
163 
181 
125 
95 
82 
106 
162 
175 
180 
188 
148 
128 
116 
92 
98 
86 
128 
189 
207 
179 
102 
151 
199 
169 
154 
164 
148 
139 
158 
171 
135 
132 
107 
105 
142 
138 
92 
67 
81 
80 
101 
113 
130 
165 
158 
88 
87 
92 
174 
193 
180 
201 
226 
226 
226 
226 
227 
228 
227 
227 
232 
223 
223 
234 
191 
204 
157 
154 
139 
146 
163 
183 
189 
202 
202 
206 
196 
208 
154 
135 
175 
148 
127 
83 
71 
143 
146 
190 
179 
113 
85 
64 
141 
188 
154 
151 
157 
140 
128 
90 
92 
127 
114 
125 
172 
189 
157 
95 
133 
191 
195 
184 
159 
135 
133 
159 
158 
111 
105 
95 
107 
153 
140 
86 
89 
95 
91 
110 
124 
127 
145 
124 
83 
89 
108 
182 
195 
186 
207 
226 
225 
225 
225 
226 
226 
226 
225 
229 
224 
214 
219 
160 
191 
146 
148 
150 
162 
164 
164 
187 
191 
198 
192 
176 
156 
125 
88 
123 
121 
98 
77 
79 
175 
174 
159 
125 
85 
75 
58 
162 
175 
143 
157 
130 
146 
162 
109 
132 
166 
156 
137 
154 
175 
156 
113 
125 
139 
152 
141 
121 
133 
132 
130 
132 
98 
91 
103 
123 
145 
127 
88 
113 
138 
149 
129 
136 
149 
145 
104 
99 
115 
145 
182 
192 
199 
209 
226 
225 
224 
224 
224 
224 
224 
224 
223 
223 
214 
183 
153 
170 
173 
153 
202 
167 
185 
152 
194 
196 
152 
167 
155 
116 
79 
66 
89 
76 
78 
65 
114 
184 
164 
102 
69 
55 
76 
92 
160 
139 
128 
164 
108 
155 
202 
150 
166 
182 
191 
176 
177 
203 
186 
131 
116 
98 
91 
91 
125 
174 
162 
156 
155 
132 
97 
102 
132 
153 
141 
107 
113 
128 
157 
138 
155 
167 
146 
112 
148 
166 
190 
182 
189 
211 
210 
227 
225 
226 
229 
228 
224 
223 
225 
220 
213 
203 
194 
156 
151 
174 
196 
215 
175 
160 
162 
184 
170 
139 
143 
157 
101 
90 
73 
71 
63 
88 
74 
142 
189 
114 
64 
54 
67 
75 
104 
152 
149 
143 
157 
125 
168 
185 
181 
192 
205 
200 
195 
194 
207 
182 
150 
122 
108 
77 
83 
120 
163 
181 
184 
198 
164 
112 
115 
126 
151 
131 
109 
102 
119 
155 
151 
147 
174 
152 
138 
172 
182 
191 
223 
196 
217 
215 
228 
227 
228 
230 
230 
228 
228 
228 
217 
206 
203 
203 
187 
184 
188 
186 
201 
174 
131 
156 
170 
159 
142 
152 
154 
115 
103 
78 
65 
60 
89 
90 
132 
153 
81 
72 
56 
62 
94 
83 
184 
178 
144 
178 
177 
167 
159 
159 
191 
193 
201 
184 
155 
181 
200 
195 
150 
122 
99 
87 
96 
104 
134 
155 
176 
140 
114 
108 
110 
118 
110 
119 
105 
121 
134 
141 
164 
178 
145 
147 
162 
166 
185 
219 
210 
220 
220 
224 
225 
225 
226 
227 
229 
227 
225 
213 
197 
196 
198 
200 
203 
202 
187 
205 
173 
117 
127 
147 
133 
152 
148 
105 
94 
92 
74 
61 
59 
80 
85 
104 
101 
56 
67 
68 
91 
130 
85 
154 
178 
153 
168 
158 
136 
163 
179 
160 
188 
214 
192 
168 
197 
193 
154 
140 
134 
126 
103 
104 
92 
100 
107 
116 
100 
103 
97 
109 
108 
91 
101 
91 
117 
125 
137 
161 
164 
136 
143 
143 
147 
181 
214 
221 
220 
224 
222 
224 
225 
224 
225 
226 
222 
215 
203 
189 
195 
190 
191 
194 
202 
195 
177 
146 
102 
88 
113 
112 
133 
114 
76 
81 
81 
74 
70 
70 
70 
67 
71 
74 
71 
76 
92 
115 
134 
104 
96 
142 
180 
161 
104 
107 
175 
197 
165 
168 
177 
195 
196 
174 
143 
118 
160 
132 
124 
130 
119 
107 
95 
90 
71 
94 
113 
107 
116 
116 
96 
87 
77 
102 
121 
139 
131 
120 
121 
140 
148 
159 
195 
220 
225 
219 
225 
226 
228 
228 
226 
224 
221 
212 
204 
191 
184 
202 
196 
188 
184 
189 
186 
153 
140 
103 
80 
98 
108 
86 
88 
73 
80 
74 
72 
77 
83 
76 
73 
70 
75 
89 
91 
98 
106 
144 
156 
108 
122 
185 
158 
100 
132 
183 
203 
189 
168 
157 
182 
170 
119 
117 
129 
159 
135 
128 
143 
115 
141 
119 
87 
99 
121 
112 
113 
132 
143 
123 
92 
81 
92 
104 
121 
105 
96 
127 
171 
189 
199 
218 
230 
225 
225 
225 
225 
227 
227 
224 
219 
210 
199 
191 
189 
184 
203 
198 
187 
184 
172 
158 
131 
149 
150 
125 
144 
116 
65 
76 
69 
75 
71 
70 
79 
83 
80 
83 
81 
84 
86 
87 
86 
94 
156 
159 
107 
96 
130 
110 
111 
177 
181 
197 
197 
185 
179 
170 
131 
104 
129 
124 
128 
165 
153 
142 
129 
170 
127 
102 
169 
155 
113 
121 
143 
144 
123 
85 
75 
83 
76 
82 
91 
120 
163 
205 
222 
224 
223 
227 
222 
229 
225 
222 
223 
224 
223 
216 
205 
194 
189 
192 
186 
197 
191 
184 
190 
157 
122 
104 
144 
192 
179 
169 
105 
79 
62 
77 
79 
79 
78 
83 
77 
75 
81 
82 
89 
89 
85 
86 
89 
121 
102 
104 
102 
86 
78 
124 
200 
184 
204 
191 
157 
156 
152 
139 
134 
149 
146 
152 
187 
176 
159 
166 
167 
127 
147 
195 
173 
146 
143 
141 
115 
110 
104 
76 
73 
76 
91 
111 
160 
198 
215 
227 
224 
219 
223 
223 
227 
224 
224 
223 
226 
227 
221 
209 
201 
198 
190 
187 
194 
188 
184 
196 
147 
96 
130 
164 
200 
191 
115 
71 
96 
59 
77 
74 
76 
77 
86 
78 
79 
86 
95 
93 
98 
86 
92 
90 
94 
104 
138 
127 
59 
51 
99 
171 
168 
209 
163 
117 
120 
138 
178 
193 
183 
190 
171 
179 
200 
188 
190 
181 
168 
173 
183 
156 
156 
153 
152 
125 
138 
156 
110 
76 
108 
157 
160 
191 
221 
225 
222 
220 
223 
227 
229 
224 
223 
232 
229 
224 
218 
196 
183 
183 
197 
195 
180 
188 
186 
185 
202 
160 
126 
156 
175 
189 
188 
160 
94 
88 
60 
67 
75 
74 
77 
78 
77 
86 
92 
102 
92 
104 
82 
86 
76 
98 
156 
157 
116 
73 
47 
97 
135 
168 
193 
173 
142 
122 
141 
180 
198 
197 
197 
185 
153 
182 
185 
195 
194 
209 
194 
190 
154 
155 
156 
157 
177 
186 
193 
144 
134 
179 
212 
212 
218 
220 
225 
222 
224 
225 
224 
224 
225 
225 
226 
226 
217 
202 
180 
164 
169 
180 
187 
182 
191 
190 
186 
198 
167 
145 
151 
171 
188 
190 
140 
81 
73 
65 
65 
69 
70 
75 
76 
77 
88 
92 
97 
84 
95 
76 
76 
54 
114 
184 
139 
127 
142 
155 
163 
151 
179 
196 
198 
166 
133 
139 
169 
190 
199 
197 
184 
159 
182 
184 
189 
189 
208 
206 
201 
171 
165 
172 
192 
204 
189 
186 
186 
179 
211 
227 
221 
225 
222 
222 
224 
226 
227 
225 
225 
226 
226 
220 
228 
216 
207 
189 
176 
183 
189 
175 
194 
201 
187 
182 
196 
175 
148 
139 
155 
177 
192 
121 
74 
61 
73 
67 
68 
75 
88 
82 
73 
85 
96 
95 
85 
81 
70 
73 
70 
132 
180 
145 
149 
174 
189 
192 
195 
214 
194 
189 
172 
141 
140 
162 
185 
200 
192 
192 
177 
189 
191 
192 
192 
205 
211 
203 
192 
187 
192 
215 
215 
191 
194 
213 
209 
225 
224 
217 
223 
221 
219 
224 
226 
226 
224 
224 
225 
225 
222 
230 
211 
218 
202 
192 
185 
188 
179 
202 
206 
190 
187 
195 
179 
154 
142 
140 
159 
181 
112 
74 
59 
75 
75 
80 
91 
104 
103 
94 
91 
81 
91 
86 
77 
91 
100 
125 
148 
158 
147 
124 
115 
119 
143 
163 
176 
158 
155 
163 
154 
154 
167 
186 
199 
183 
197 
197 
201 
203 
206 
209 
209 
210 
205 
203 
201 
201 
214 
213 
202 
212 
224 
222 
226 
219 
216 
224 
226 
228 
224 
226 
226 
224 
223 
224 
225 
221 
221 
191 
214 
201 
199 
175 
181 
195 
200 
205 
202 
199 
189 
183 
183 
169 
139 
142 
148 
101 
72 
63 
72 
73 
92 
107 
128 
151 
157 
131 
88 
126 
119 
121 
136 
132 
140 
125 
115 
104 
91 
82 
76 
109 
120 
102 
108 
152 
173 
178 
172 
170 
184 
196 
179 
192 
208 
210 
211 
214 
218 
213 
209 
211 
203 
201 
204 
213 
219 
218 
220 
229 
227 
226 
221 
221 
224 
225 
230 
226 
227 
228 
226 
225 
226 
227 
219 
209 
178 
202 
196 
200 
164 
172 
199 
199 
208 
197 
188 
183 
187 
197 
188 
146 
136 
123 
95 
70 
72 
73 
83 
104 
129 
163 
182 
172 
139 
109 
137 
140 
161 
164 
175 
183 
173 
151 
102 
88 
77 
76 
123 
140 
118 
145 
177 
192 
198 
179 
166 
184 
196 
186 
192 
214 
216 
210 
210 
210 
210 
208 
210 
202 
205 
212 
215 
222 
226 
220 
225 
223 
223 
225 
224 
222 
221 
222 
224 
226 
227 
226 
226 
227 
227 
218 
205 
186 
196 
197 
194 
147 
149 
190 
190 
203 
176 
168 
181 
186 
185 
181 
159 
157 
136 
114 
82 
87 
80 
110 
137 
160 
182 
177 
135 
109 
114 
132 
144 
156 
159 
185 
202 
209 
182 
127 
92 
97 
143 
189 
181 
154 
179 
199 
202 
211 
188 
175 
199 
205 
199 
203 
218 
215 
208 
207 
201 
207 
208 
209 
210 
215 
220 
219 
221 
226 
223 
225 
224 
226 
229 
227 
226 
227 
222 
222 
225 
226 
226 
226 
226 
226 
207 
199 
199 
201 
211 
202 
151 
147 
184 
172 
189 
165 
162 
179 
179 
176 
169 
174 
188 
171 
144 
100 
98 
84 
125 
168 
184 
183 
167 
133 
120 
133 
161 
166 
154 
174 
190 
197 
209 
196 
177 
149 
155 
190 
205 
201 
192 
195 
209 
207 
222 
203 
196 
220 
217 
208 
213 
217 
210 
207 
212 
203 
211 
210 
218 
222 
219 
221 
225 
226 
227 
226 
226 
226 
226 
227 
224 
226 
230 
221 
222 
225 
228 
228 
228 
228 
228 
198 
187 
196 
203 
214 
202 
168 
180 
183 
154 
175 
154 
155 
174 
178 
183 
170 
178 
170 
163 
170 
118 
98 
85 
102 
157 
192 
194 
185 
164 
146 
149 
185 
175 
162 
185 
199 
194 
205 
206 
201 
198 
200 
205 
204 
199 
199 
204 
206 
207 
206 
211 
219 
218 
211 
208 
209 
211 
213 
213 
212 
213 
217 
220 
226 
227 
227 
228 
228 
227 
226 
225 
226 
226 
226 
226 
226 
226 
226 
226 
226 
226 
226 
226 
226 
226 
226 
196 
191 
198 
201 
209 
202 
184 
196 
173 
159 
179 
142 
152 
182 
186 
184 
172 
157 
156 
156 
152 
130 
99 
111 
125 
160 
184 
196 
200 
182 
159 
156 
187 
174 
157 
174 
190 
191 
203 
204 
211 
210 
205 
198 
195 
198 
205 
210 
207 
210 
208 
207 
209 
209 
210 
214 
210 
213 
216 
218 
219 
221 
225 
228 
226 
226 
227 
227 
227 
226 
226 
225 
226 
226 
226 
226 
226 
226 
226 
226 
226 
226 
226 
226 
226 
226 
226 
213 
205 
196 
198 
208 
205 
188 
178 
163 
176 
188 
136 
139 
186 
184 
184 
157 
161 
168 
146 
135 
157 
104 
132 
157 
173 
186 
196 
200 
179 
156 
155 
186 
178 
165 
176 
187 
189 
201 
202 
212 
217 
215 
204 
198 
202 
204 
202 
207 
212 
210 
203 
200 
199 
205 
215 
217 
220 
223 
224 
224 
225 
226 
228 
225 
226 
226 
226 
226 
226 
225 
225 
226 
226 
226 
226 
226 
226 
226 
226 
226 
226 
226 
226 
226 
226 
226 
213 
219 
212 
209 
203 
192 
181 
161 
168 
194 
183 
125 
124 
177 
167 
170 
157 
180 
185 
146 
144 
189 
126 
157 
190 
194 
195 
199 
200 
184 
167 
169 
188 
192 
190 
196 
198 
196 
205 
208 
209 
217 
219 
212 
206 
205 
199 
190 
202 
208 
207 
202 
200 
200 
206 
216 
222 
225 
227 
227 
226 
224 
224 
224 
225 
225 
225 
226 
226 
225 
225 
225 
226 
226 
226 
226 
226 
226 
226 
226 
226 
226 
226 
226 
226 
226 
226 
210 
218 
216 
216 
206 
196 
189 
161 
177 
195 
168 
105 
118 
154 
150 
155 
171 
169 
174 
159 
159 
188 
154 
181 
203 
199 
192 
193 
202 
202 
194 
193 
199 
205 
207 
210 
208 
205 
211 
214 
214 
215 
213 
209 
206 
204 
198 
192 
199 
204 
204 
203 
207 
212 
217 
223 
222 
224 
226 
227 
226 
225 
225 
225 
225 
225 
225 
225 
225 
225 
225 
225 
226 
226 
226 
226 
226 
226 
226 
226 
226 
226 
226 
226 
226 
226 
226 
218 
212 
207 
214 
212 
207 
194 
156 
165 
179 
159 
98 
128 
127 
151 
165 
173 
158 
180 
189 
168 
171 
180 
193 
200 
199 
193 
192 
198 
204 
206 
207 
208 
206 
204 
204 
204 
206 
209 
211 
217 
212 
207 
206 
206 
205 
202 
200 
209 
212 
209 
208 
215 
222 
224 
226 
224 
225 
226 
226 
226 
225 
224 
224 
225 
225 
225 
225 
225 
225 
225 
225 
226 
226 
226 
226 
226 
226 
226 
226 
226 
226 
226 
226 
226 
226 
226 
212 
200 
204 
214 
208 
199 
178 
138 
133 
155 
144 
112 
149 
128 
161 
181 
176 
176 
199 
211 
185 
171 
195 
203 
205 
206 
204 
202 
203 
204 
207 
209 
205 
200 
199 
198 
199 
201 
202 
207 
213 
210 
208 
208 
210 
211 
209 
208 
218 
222 
220 
217 
222 
225 
225 
225 
227 
227 
226 
225 
224 
224 
223 
223 
225 
225 
225 
225 
225 
225 
226 
226 
226 
226 
226 
226 
226 
226 
226 
226 
226 
226 
226 
226 
226 
226 
226 
206 
181 
185 
206 
212 
204 
164 
110 
110 
136 
117 
126 
167 
151 
169 
182 
184 
187 
186 
200 
197 
175 
189 
208 
209 
202 
198 
204 
211 
211 
205 
200 
199 
198 
203 
204 
201 
199 
199 
207 
211 
211 
210 
209 
211 
215 
216 
216 
216 
224 
226 
224 
226 
228 
226 
225 
225 
225 
224 
224 
224 
224 
225 
225 
225 
225 
225 
225 
225 
225 
226 
226 
226 
226 
226 
226 
226 
226 
226 
226 
226 
226 
226 
226 
226 
226 
226 
203 
179 
164 
182 
214 
212 
165 
117 
115 
140 
118 
130 
145 
152 
196 
200 
188 
203 
182 
193 
193 
180 
193 
210 
209 
201 
190 
206 
218 
205 
199 
199 
202 
202 
205 
207 
206 
205 
206 
207 
210 
206 
208 
215 
221 
223 
223 
225 
224 
225 
226 
227 
227 
226 
225 
225 
225 
225 
226 
226 
226 
226 
225 
225 
225 
225 
225 
225 
225 
225 
226 
226 
226 
226 
226 
226 
226 
226 
225 
225 
225 
225 
225 
225 
225 
225 
226 
205 
201 
198 
197 
209 
223 
200 
151 
125 
133 
127 
130 
141 
153 
201 
203 
202 
207 
173 
177 
180 
157 
173 
204 
208 
204 
197 
200 
208 
208 
203 
199 
201 
206 
210 
209 
208 
208 
207 
206 
209 
209 
212 
218 
223 
224 
224 
224 
224 
225 
226 
227 
226 
226 
226 
225 
225 
225 
226 
226 
226 
226 
225 
225 
225 
225 
225 
225 
225 
225 
226 
226 
226 
226 
226 
226 
226 
226 
225 
225 
225 
225 
225 
225 
225 
225 
226 
212 
209 
215 
214 
207 
213 
202 
169 
128 
129 
156 
168 
162 
153 
191 
197 
193 
200 
171 
171 
174 
143 
162 
206 
203 
201 
207 
200 
202 
214 
205 
196 
202 
209 
210 
206 
204 
207 
208 
204 
213 
216 
220 
223 
225 
227 
226 
224 
225 
225 
225 
226 
226 
226 
226 
226 
225 
226 
226 
226 
226 
226 
226 
225 
225 
225 
225 
225 
225 
225 
226 
226 
226 
226 
226 
226 
226 
226 
225 
225 
225 
225 
225 
225 
225 
225 
226 
214 
209 
212 
215 
212 
207 
193 
172 
138 
160 
194 
206 
180 
156 
183 
192 
192 
206 
193 
179 
165 
140 
162 
199 
197 
192 
212 
209 
208 
218 
199 
189 
210 
210 
206 
202 
202 
207 
210 
210 
219 
225 
228 
227 
226 
227 
226 
224 
225 
225 
224 
224 
225 
225 
226 
226 
225 
226 
226 
226 
226 
226 
226 
225 
226 
225 
225 
225 
225 
225 
226 
226 
226 
226 
226 
226 
226 
226 
225 
225 
225 
225 
225 
225 
225 
225 
226 
210 
220 
210 
197 
209 
221 
207 
187 
167 
207 
209 
208 
175 
159 
186 
201 
199 
212 
211 
180 
154 
161 
184 
202 
196 
185 
212 
218 
216 
214 
188 
186 
217 
210 
205 
207 
211 
214 
218 
222 
223 
228 
230 
227 
225 
227 
226 
224 
225 
224 
223 
223 
224 
225 
225 
225 
226 
226 
226 
226 
226 
226 
226 
226 
226 
226 
225 
225 
225 
225 
226 
226 
225 
226 
226 
226 
226 
225 
225 
225 
225 
225 
225 
225 
225 
225 
226 
215 
227 
207 
184 
197 
212 
205 
198 
196 
219 
197 
207 
185 
165 
182 
209 
198 
207 
217 
179 
156 
202 
212 
213 
200 
188 
212 
220 
217 
208 
185 
192 
219 
211 
209 
216 
221 
222 
224 
229 
223 
226 
227 
225 
224 
225 
226 
226 
225 
223 
222 
223 
224 
226 
226 
225 
226 
226 
226 
226 
226 
226 
226 
226 
226 
226 
226 
225 
225 
225 
226 
226 
225 
225 
226 
226 
226 
225 
225 
225 
225 
225 
225 
225 
225 
225 
226 
221 
220 
207 
198 
199 
195 
190 
195 
203 
206 
190 
204 
197 
179 
183 
208 
202 
208 
220 
178 
158 
222 
208 
209 
203 
200 
217 
219 
216 
208 
194 
206 
220 
217 
218 
222 
225 
225 
225 
228 
224 
224 
224 
226 
226 
224 
225 
226 
225 
224 
223 
224 
226 
227 
226 
225 
226 
226 
226 
226 
226 
226 
226 
226 
226 
226 
226 
226 
225 
225 
226 
226 
225 
225 
226 
226 
225 
225 
225 
225 
225 
225 
225 
225 
225 
225 
226 
218 
214 
216 
221 
215 
201 
193 
193 
201 
203 
197 
186 
186 
194 
198 
206 
200 
205 
215 
168 
151 
221 
196 
211 
202 
210 
223 
219 
216 
212 
205 
218 
224 
226 
227 
225 
224 
224 
226 
226 
227 
224 
225 
228 
228 
225 
224 
226 
226 
224 
224 
225 
227 
228 
227 
226 
226 
226 
226 
227 
227 
226 
226 
226 
227 
226 
226 
226 
225 
225 
226 
226 
225 
225 
225 
226 
225 
225 
225 
224 
225 
225 
225 
225 
225 
225 
226 
217 
211 
212 
213 
215 
211 
202 
204 
210 
209 
206 
200 
199 
204 
211 
215 
217 
213 
202 
158 
161 
207 
214 
213 
212 
220 
225 
221 
217 
219 
223 
225 
225 
225 
225 
224 
224 
224 
226 
227 
226 
226 
226 
226 
226 
226 
226 
226 
226 
226 
226 
226 
226 
226 
226 
226 
226 
226 
226 
225 
226 
226 
226 
226 
226 
226 
226 
226 
225 
225 
225 
225 
224 
225 
225 
225 
225 
226 
226 
226 
226 
226 
226 
226 
226 
226 
226 
222 
218 
218 
211 
207 
209 
209 
213 
217 
218 
216 
212 
210 
212 
216 
217 
212 
213 
210 
174 
175 
213 
217 
215 
221 
223 
225 
223 
222 
223 
224 
225 
226 
225 
224 
224 
224 
225 
226 
227 
226 
226 
226 
226 
226 
226 
226 
226 
226 
226 
226 
226 
226 
226 
226 
226 
226 
226 
226 
225 
225 
226 
226 
226 
226 
226 
226 
226 
225 
225 
225 
225 
225 
225 
225 
225 
225 
226 
226 
226 
226 
226 
226 
226 
226 
226 
226 
223 
213 
219 
222 
217 
217 
216 
218 
213 
216 
218 
218 
219 
221 
222 
223 
214 
214 
217 
197 
201 
227 
223 
220 
229 
226 
224 
225 
227 
226 
225 
224 
227 
225 
223 
223 
224 
226 
226 
226 
226 
226 
226 
226 
226 
226 
226 
226 
226 
226 
226 
226 
226 
226 
226 
226 
226 
226 
226 
225 
225 
226 
226 
226 
226 
226 
226 
226 
225 
225 
225 
225 
225 
225 
225 
225 
225 
226 
226 
226 
226 
226 
226 
226 
226 
226 
226 
222 
197 
206 
228 
231 
224 
217 
218 
210 
213 
217 
220 
222 
224 
225 
225 
222 
213 
218 
215 
223 
235 
225 
224 
232 
226 
222 
225 
227 
226 
224 
224 
228 
225 
223 
222 
224 
226 
226 
226 
226 
226 
226 
226 
226 
226 
226 
226 
226 
226 
226 
226 
226 
226 
226 
226 
226 
226 
226 
225 
225 
225 
225 
226 
226 
226 
226 
226 
225 
225 
225 
225 
225 
225 
225 
225 
226 
226 
226 
226 
226 
226 
226 
226 
226 
226 
226 
222 
195 
201 
222 
227 
223 
218 
220 
222 
222 
223 
224 
224 
223 
224 
224 
225 
212 
218 
224 
230 
229 
221 
229 
230 
225 
222 
225 
226 
224 
224 
225 
228 
225 
223 
223 
225 
226 
226 
226 
226 
226 
226 
226 
226 
226 
226 
226 
226 
226 
226 
226 
226 
226 
226 
226 
226 
226 
226 
225 
225 
225 
225 
225 
226 
226 
226 
226 
225 
225 
225 
225 
225 
225 
225 
225 
226 
226 
226 
226 
226 
226 
226 
226 
226 
226 
226 
224 
213 
220 
225 
225 
226 
224 
224 
232 
230 
228 
227 
225 
224 
223 
224 
225 
217 
224 
230 
228 
221 
220 
234 
226 
225 
224 
225 
225 
224 
225 
226 
226 
225 
224 
224 
225 
226 
226 
225 
226 
226 
226 
226 
226 
226 
226 
226 
226 
226 
226 
226 
226 
226 
226 
226 
226 
226 
226 
225 
225 
225 
225 
225 
226 
226 
226 
226 
225 
225 
225 
225 
225 
225 
225 
226 
226 
226 
226 
226 
226 
226 
226 
226 
226 
226 
226 
226 
227 
234 
231 
227 
228 
226 
228 
229 
227 
226 
226 
226 
224 
223 
224 
224 
224 
230 
230 
227 
224 
223 
230 
224 
226 
226 
225 
224 
226 
226 
225 
225 
225 
225 
225 
225 
225 
225 
226 
226 
226 
226 
226 
226 
226 
226 
226 
226 
226 
226 
226 
226 
226 
226 
226 
226 
226 
226 
225 
225 
225 
225 
225 
225 
225 
225 
225 
226 
226 
226 
226 
225 
225 
225 
226 
226 
226 
226 
226 
226 
226 
226 
226 
226 
226 
226 
229 
226 
228 
225 
224 
222 
221 
231 
226 
224 
224 
226 
226 
223 
222 
222 
223 
226 
228 
226 
227 
230 
225 
220 
223 
226 
226 
224 
224 
226 
226 
223 
224 
225 
226 
226 
225 
225 
225 
226 
226 
226 
226 
226 
226 
226 
226 
226 
226 
226 
226 
226 
226 
226 
226 
226 
226 
226 
225 
225 
225 
225 
225 
225 
225 
225 
225 
225 
226 
226 
226 
226 
225 
225 
225 
226 
226 
226 
226 
227 
226 
226 
226 
226 
226 
226 
226 
222 
224 
225 
223 
221 
222 
226 
230 
225 
225 
225 
225 
225 
225 
225 
225 
224 
224 
225 
226 
227 
226 
224 
222 
225 
225 
225 
225 
225 
225 
225 
224 
225 
225 
225 
225 
225 
225 
225 
225 
226 
226 
226 
226 
226 
226 
226 
226 
226 
226 
226 
226 
226 
226 
226 
226 
226 
226 
226 
226 
225 
225 
225 
225 
225 
225 
225 
225 
226 
226 
226 
226 
226 
226 
226 
226 
226 
226 
226 
226 
226 
226 
226 
226 
226 
226 
226 
226 
227 
228 
226 
224 
223 
225 
227 
225 
225 
225 
225 
225 
225 
225 
225 
225 
225 
225 
226 
226 
226 
224 
223 
225 
225 
225 
225 
225 
225 
225 
225 
225 
225 
225 
225 
225 
225 
225 
225 
226 
226 
226 
226 
226 
226 
226 
226 
226 
226 
226 
226 
226 
226 
226 
226 
226 
226 
226 
225 
225 
225 
225 
225 
225 
225 
225 
226 
226 
226 
226 
226 
226 
226 
226 
226 
226 
226 
226 
226 
226 
226 
226 
226 
226 
226 
226 
227 
228 
228 
228 
226 
225 
224 
224 
225 
225 
225 
225 
225 
225 
225 
225 
225 
225 
225 
225 
226 
226 
225 
224 
225 
225 
225 
225 
225 
225 
225 
225 
225 
225 
225 
225 
225 
225 
225 
225 
226 
226 
226 
226 
226 
226 
226 
226 
226 
226 
226 
226 
226 
226 
226 
226 
226 
226 
225 
225 
225 
225 
225 
225 
225 
225 
226 
226 
226 
226 
226 
226 
226 
226 
226 
226 
226 
226 
226 
226 
226 
226 
226 
226 
226 
226 
226 
225 
225 
226 
226 
226 
226 
224 
223 
225 
225 
225 
225 
225 
225 
225 
225 
225 
225 
225 
225 
225 
225 
225 
225 
226 
226 
226 
225 
225 
225 
225 
225 
225 
225 
225 
225 
225 
225 
225 
225 
226 
226 
226 
226 
226 
226 
226 
226 
227 
227 
227 
227 
227 
227 
227 
227 
226 
226 
226 
226 
226 
226 
225 
225 
226 
226 
226 
226 
226 
226 
226 
226 
226 
226 
226 
226 
226 
226 
226 
226 
226 
226 
226 
226 
226 
226 
226 
225 
224 
224 
225 
226 
226 
225 
224 
225 
225 
225 
225 
225 
225 
225 
225 
225 
225 
225 
225 
225 
225 
225 
226 
226 
226 
226 
226 
226 
225 
225 
225 
225 
225 
225 
225 
225 
225 
225 
225 
226 
226 
226 
226 
226 
226 
226 
226 
227 
227 
227 
227 
227 
227 
227 
227 
227 
227 
227 
227 
227 
227 
227 
226 
226 
226 
226 
226 
226 
226 
226 
226 
226 
226 
226 
226 
226 
226 
226 
226 
226 
226 
226 
226 
226 
226 
226 
227 
226 
225 
225 
226 
226 
225 
225 
225 
225 
225 
225 
225 
225 
225 
225 
225 
225 
226 
225 
225 
225 
226 
226 
226 
226 
226 
226 
226 
226 
226 
226 
225 
225 
225 
225 
225 
225 
225 
225 
226 
226 
226 
226 
226 
226 
226 
226 
227 
227 
227 
227 
227 
227 
227 
227 
227 
227 
227 
227 
227 
227 
227 
227 
226 
226 
226 
226 
226 
226 
226 
226 
226 
226 
226 
226 
226 
226 
226 
226 
226 
226 
226 
226 
226 
226 
226 
227 
227 
227 
227 
226 
226 
226 
226 
225 
225 
225 
225 
225 
225 
225 
225 
224 
225 
226 
226 
225 
225 
226 
226 
226 
226 
226 
226 
226 
226 
226 
226 
226 
226 
226 
226 
226 
226 
226 
226 
226 
226 
226 
226 
226 
226 
226 
226 
227 
227 
227 
227 
227 
227 
227 
227 
227 
227 
227 
227 
227 
227 
227 
227 
227 
226 
226 
226 
226 
226 
226 
226 
226 
226 
226 
226 
226 
226 
226 
226 
226 
226 
226 
226 
226 
226 
226 
224 
225 
227 
227 
226 
226 
226 
226 
225 
225 
225 
225 
225 
225 
225 
225 
224 
225 
226 
226 
225 
225 
226 
226 
227 
226 
226 
226 
226 
226 
226 
226 
226 
226 
226 
226 
226 
226 
226 
226 
226 
226 
226 
226 
226 
226 
226 
226 
227 
227 
227 
227 
227 
227 
227 
227 
227 
227 
227 
227 
227 
227 
227 
227 
227 
227 
226 
226 
226 
226 
226 
226 
226 
226 
226 
226 
226 
226 
226 
226 
226 
226 
226 
226 
226 
226 
226 
226 
226 
226 
226 
226 
226 
225 
225 
225 
225 
225 
225 
225 
225 
227 
228 
226 
226 
225 
225 
225 
225 
226 
226 
226 
226 
226 
226 
226 
226 
226 
226 
226 
226 
226 
226 
226 
226 
226 
226 
226 
226 
226 
226 
226 
226 
227 
227 
226 
227 
227 
227 
227 
227 
227 
227 
227 
227 
227 
227 
227 
227 
227 
227 
226 
226 
226 
226 
226 
226 
226 
226 
226 
226 
226 
226 
226 
226 
226 
226 
226 
226 
226 
226 
226 
226 
226 
