P2
# Created by MsrVolt
132 66
255
214 
214 
214 
214 
214 
214 
213 
213 
213 
213 
213 
214 
214 
215 
215 
215 
216 
215 
215 
214 
214 
214 
214 
215 
215 
215 
215 
215 
215 
215 
215 
215 
215 
215 
215 
215 
215 
215 
216 
216 
217 
215 
216 
218 
218 
215 
215 
216 
218 
215 
216 
217 
216 
217 
217 
214 
215 
214 
214 
215 
216 
216 
216 
216 
213 
218 
215 
216 
216 
215 
220 
216 
218 
217 
216 
216 
217 
218 
217 
216 
219 
217 
215 
214 
216 
216 
215 
213 
215 
215 
215 
215 
216 
216 
216 
216 
217 
217 
217 
217 
217 
217 
217 
217 
217 
217 
217 
217 
217 
217 
217 
217 
217 
217 
217 
217 
217 
217 
218 
218 
220 
219 
219 
219 
219 
219 
219 
219 
219 
219 
219 
219 
213 
214 
214 
215 
214 
214 
213 
213 
213 
213 
213 
214 
214 
214 
214 
215 
214 
214 
214 
214 
215 
215 
215 
214 
215 
215 
215 
215 
215 
215 
215 
215 
215 
214 
214 
214 
215 
215 
215 
215 
216 
215 
215 
216 
216 
216 
216 
217 
218 
216 
217 
218 
215 
215 
216 
213 
213 
215 
216 
214 
214 
216 
216 
216 
217 
217 
214 
214 
217 
219 
219 
215 
218 
217 
217 
217 
217 
217 
217 
217 
217 
217 
217 
216 
216 
215 
215 
215 
215 
215 
215 
215 
216 
216 
216 
216 
217 
217 
217 
217 
217 
217 
217 
217 
217 
217 
217 
217 
217 
217 
217 
217 
217 
217 
217 
217 
217 
217 
218 
218 
219 
219 
219 
219 
219 
219 
219 
219 
219 
219 
219 
219 
213 
213 
214 
215 
215 
214 
213 
213 
213 
213 
214 
214 
214 
214 
214 
214 
215 
215 
216 
216 
216 
216 
215 
215 
215 
215 
215 
215 
215 
215 
215 
215 
216 
214 
214 
214 
215 
216 
215 
215 
215 
216 
215 
215 
215 
217 
218 
217 
217 
215 
218 
219 
215 
215 
216 
214 
212 
215 
216 
213 
213 
216 
217 
216 
218 
216 
217 
215 
217 
220 
217 
216 
217 
217 
217 
217 
217 
216 
217 
217 
215 
216 
218 
217 
216 
215 
215 
216 
215 
215 
216 
216 
216 
216 
216 
216 
217 
217 
217 
217 
217 
217 
217 
217 
217 
217 
217 
217 
217 
217 
217 
217 
217 
217 
217 
217 
217 
217 
218 
218 
219 
219 
219 
219 
219 
219 
219 
219 
219 
219 
219 
219 
213 
214 
214 
215 
215 
214 
213 
212 
213 
213 
213 
214 
214 
214 
215 
215 
216 
216 
216 
216 
216 
215 
215 
215 
215 
215 
215 
215 
215 
215 
215 
215 
216 
215 
215 
215 
215 
216 
216 
216 
215 
217 
217 
215 
216 
218 
218 
217 
217 
215 
217 
219 
217 
218 
218 
214 
214 
214 
214 
214 
215 
216 
216 
216 
216 
215 
221 
218 
216 
218 
216 
220 
217 
217 
217 
217 
217 
217 
217 
216 
214 
216 
217 
216 
215 
215 
216 
217 
216 
216 
216 
216 
216 
216 
216 
216 
217 
217 
217 
217 
217 
217 
217 
217 
217 
217 
217 
217 
217 
217 
217 
217 
217 
217 
217 
217 
217 
217 
218 
218 
219 
219 
219 
219 
219 
219 
219 
219 
219 
219 
219 
219 
214 
214 
215 
215 
214 
213 
212 
211 
212 
212 
213 
214 
214 
215 
215 
216 
215 
215 
214 
214 
214 
214 
215 
215 
215 
214 
214 
214 
216 
216 
216 
215 
214 
215 
216 
216 
214 
214 
215 
217 
215 
216 
217 
216 
216 
217 
217 
216 
220 
216 
217 
219 
218 
219 
219 
214 
218 
213 
213 
216 
218 
216 
216 
218 
216 
216 
219 
218 
218 
219 
218 
220 
218 
217 
215 
216 
218 
219 
217 
215 
215 
215 
215 
215 
215 
216 
217 
217 
216 
216 
216 
216 
216 
216 
217 
217 
217 
217 
217 
217 
217 
217 
217 
217 
217 
217 
217 
217 
217 
217 
217 
217 
217 
217 
217 
217 
217 
217 
218 
218 
219 
219 
219 
219 
219 
219 
219 
219 
219 
219 
219 
219 
214 
214 
214 
214 
213 
213 
212 
212 
212 
213 
213 
214 
214 
215 
215 
215 
215 
215 
215 
215 
215 
216 
217 
217 
216 
214 
214 
214 
216 
216 
216 
214 
214 
215 
215 
215 
214 
214 
215 
216 
216 
215 
215 
216 
216 
215 
215 
217 
221 
218 
218 
219 
218 
218 
218 
214 
218 
215 
215 
218 
220 
218 
217 
218 
218 
218 
213 
218 
221 
218 
220 
216 
218 
217 
216 
217 
218 
218 
217 
215 
216 
215 
215 
215 
216 
216 
217 
217 
216 
216 
216 
216 
217 
217 
217 
217 
217 
217 
217 
217 
217 
217 
217 
217 
217 
217 
217 
217 
217 
217 
217 
217 
217 
217 
217 
217 
217 
217 
218 
218 
218 
218 
218 
219 
219 
219 
219 
219 
219 
219 
219 
219 
214 
213 
213 
213 
213 
213 
214 
214 
214 
214 
214 
214 
214 
214 
214 
214 
214 
215 
216 
216 
216 
215 
215 
214 
217 
216 
214 
214 
216 
216 
214 
213 
217 
215 
214 
214 
216 
217 
216 
215 
220 
215 
213 
217 
217 
215 
216 
221 
218 
216 
218 
219 
215 
216 
219 
218 
214 
219 
222 
219 
218 
220 
221 
219 
216 
222 
213 
222 
221 
211 
221 
215 
215 
217 
218 
218 
217 
216 
216 
216 
214 
216 
218 
218 
217 
216 
217 
217 
216 
216 
217 
217 
217 
217 
217 
217 
217 
217 
217 
217 
217 
217 
217 
217 
217 
217 
217 
217 
217 
217 
217 
217 
217 
217 
217 
217 
217 
217 
218 
218 
218 
218 
218 
218 
219 
219 
219 
219 
219 
219 
219 
219 
213 
212 
212 
212 
212 
214 
215 
216 
215 
215 
214 
214 
214 
213 
213 
213 
212 
213 
214 
215 
213 
211 
208 
206 
218 
217 
215 
215 
215 
215 
213 
212 
221 
217 
213 
215 
219 
221 
219 
215 
223 
216 
213 
218 
218 
215 
219 
227 
213 
214 
218 
218 
213 
214 
220 
222 
210 
223 
228 
219 
215 
222 
224 
218 
210 
226 
217 
227 
218 
202 
221 
218 
213 
217 
221 
220 
216 
214 
215 
218 
213 
217 
221 
222 
219 
216 
216 
218 
216 
217 
217 
217 
217 
217 
217 
217 
217 
217 
217 
217 
217 
217 
217 
217 
217 
217 
217 
217 
217 
217 
217 
217 
217 
217 
217 
217 
217 
217 
218 
218 
218 
218 
218 
218 
219 
219 
219 
219 
219 
219 
219 
219 
212 
212 
213 
213 
213 
212 
212 
211 
213 
209 
218 
215 
218 
220 
210 
222 
216 
211 
205 
208 
220 
225 
222 
219 
216 
208 
216 
223 
213 
214 
219 
211 
219 
219 
220 
219 
218 
217 
211 
202 
210 
212 
213 
217 
222 
217 
208 
206 
218 
225 
219 
211 
211 
209 
209 
219 
201 
218 
223 
202 
218 
215 
216 
218 
206 
221 
209 
204 
220 
235 
218 
219 
227 
213 
213 
221 
214 
214 
218 
214 
214 
212 
217 
221 
219 
219 
219 
216 
216 
216 
216 
216 
215 
216 
217 
218 
216 
217 
218 
217 
217 
216 
217 
218 
217 
217 
217 
217 
217 
217 
217 
217 
217 
217 
217 
217 
217 
217 
217 
217 
216 
217 
217 
218 
218 
219 
219 
219 
219 
219 
219 
219 
211 
212 
212 
212 
212 
212 
211 
211 
212 
216 
214 
209 
211 
215 
214 
211 
212 
217 
224 
225 
217 
209 
210 
214 
206 
206 
215 
216 
208 
210 
220 
219 
217 
211 
216 
218 
214 
220 
225 
213 
223 
220 
210 
207 
214 
208 
190 
179 
208 
212 
183 
150 
145 
138 
132 
144 
152 
143 
163 
142 
166 
171 
189 
195 
170 
200 
209 
190 
204 
205 
197 
213 
229 
213 
205 
221 
225 
214 
223 
216 
216 
215 
209 
211 
220 
221 
217 
217 
219 
217 
216 
218 
221 
222 
220 
217 
216 
216 
217 
217 
216 
216 
216 
217 
217 
217 
217 
217 
217 
217 
217 
217 
217 
217 
217 
217 
217 
217 
217 
217 
217 
217 
218 
218 
219 
219 
219 
219 
219 
219 
219 
219 
212 
212 
212 
212 
212 
212 
211 
211 
209 
220 
210 
215 
218 
207 
213 
220 
220 
214 
212 
212 
211 
218 
222 
217 
211 
220 
222 
214 
211 
218 
220 
212 
213 
203 
209 
210 
196 
200 
205 
188 
178 
176 
151 
132 
141 
143 
122 
102 
136 
147 
120 
90 
95 
99 
99 
115 
120 
94 
130 
105 
136 
139 
156 
179 
155 
158 
187 
171 
160 
146 
173 
198 
207 
211 
198 
193 
218 
208 
208 
216 
223 
225 
215 
212 
224 
224 
217 
220 
217 
217 
218 
217 
216 
215 
215 
215 
217 
217 
216 
216 
217 
217 
217 
216 
217 
217 
217 
217 
217 
217 
217 
217 
217 
217 
217 
217 
217 
217 
217 
217 
217 
217 
218 
219 
219 
219 
219 
219 
219 
219 
219 
219 
212 
213 
213 
213 
213 
213 
212 
212 
215 
208 
210 
218 
209 
218 
231 
201 
211 
218 
228 
221 
207 
208 
207 
192 
198 
194 
191 
200 
210 
200 
178 
165 
150 
142 
141 
136 
124 
125 
127 
115 
109 
116 
94 
70 
83 
100 
92 
79 
83 
94 
84 
69 
77 
90 
102 
118 
129 
89 
113 
77 
100 
105 
121 
169 
156 
131 
141 
148 
132 
106 
159 
206 
178 
204 
185 
147 
197 
205 
192 
212 
215 
219 
218 
216 
218 
218 
217 
220 
220 
220 
220 
219 
217 
216 
217 
218 
218 
217 
217 
217 
218 
218 
217 
216 
217 
217 
217 
217 
217 
217 
217 
217 
217 
217 
217 
217 
217 
217 
217 
217 
217 
218 
218 
219 
219 
219 
219 
219 
219 
219 
219 
219 
212 
212 
212 
212 
212 
212 
212 
212 
209 
208 
210 
213 
213 
213 
215 
216 
209 
196 
183 
161 
134 
129 
135 
131 
130 
109 
107 
140 
159 
128 
93 
89 
75 
75 
67 
61 
65 
71 
74 
76 
81 
88 
81 
71 
77 
84 
87 
92 
82 
80 
79 
71 
65 
78 
101 
113 
135 
80 
97 
72 
69 
84 
95 
135 
151 
142 
114 
136 
138 
98 
138 
204 
165 
193 
163 
128 
172 
183 
190 
195 
198 
197 
206 
208 
199 
206 
217 
215 
216 
216 
216 
218 
220 
220 
218 
216 
218 
217 
217 
217 
217 
217 
217 
216 
217 
217 
217 
217 
217 
217 
217 
217 
217 
217 
217 
217 
217 
217 
217 
217 
217 
217 
218 
219 
219 
219 
219 
219 
219 
219 
219 
219 
212 
211 
211 
211 
211 
212 
212 
212 
204 
211 
210 
213 
221 
213 
204 
218 
171 
124 
83 
68 
63 
66 
77 
85 
78 
65 
59 
75 
89 
74 
54 
51 
58 
66 
60 
58 
71 
76 
73 
77 
73 
71 
76 
83 
76 
62 
64 
80 
77 
71 
78 
77 
65 
77 
102 
107 
130 
69 
87 
88 
64 
87 
96 
102 
122 
132 
104 
131 
128 
98 
120 
167 
167 
190 
162 
155 
159 
148 
191 
185 
180 
172 
181 
182 
170 
182 
201 
197 
203 
211 
220 
223 
220 
215 
214 
215 
216 
217 
217 
217 
216 
215 
216 
216 
217 
217 
217 
217 
217 
217 
217 
217 
217 
217 
217 
217 
217 
217 
217 
217 
217 
217 
218 
218 
219 
219 
219 
219 
219 
219 
219 
219 
213 
212 
212 
212 
212 
213 
213 
214 
216 
205 
207 
217 
207 
202 
185 
128 
92 
72 
62 
67 
69 
64 
66 
73 
76 
79 
71 
60 
63 
69 
67 
62 
64 
69 
68 
69 
78 
80 
74 
70 
68 
60 
68 
79 
72 
60 
64 
74 
68 
70 
79 
80 
73 
85 
101 
101 
121 
79 
80 
82 
62 
83 
94 
95 
85 
92 
86 
107 
97 
91 
104 
127 
153 
174 
163 
171 
157 
135 
171 
180 
162 
161 
167 
161 
148 
159 
180 
185 
194 
203 
214 
221 
221 
219 
219 
220 
217 
218 
220 
219 
216 
215 
216 
218 
218 
218 
218 
218 
218 
218 
218 
218 
217 
217 
217 
217 
217 
217 
217 
217 
216 
216 
217 
218 
218 
218 
218 
218 
218 
218 
218 
218 
215 
214 
214 
214 
214 
214 
215 
216 
215 
215 
195 
225 
215 
133 
83 
70 
72 
72 
69 
65 
63 
62 
65 
73 
75 
76 
75 
71 
67 
65 
66 
68 
67 
62 
61 
63 
66 
75 
77 
69 
72 
64 
66 
67 
60 
65 
71 
66 
67 
75 
80 
76 
77 
91 
102 
102 
101 
95 
83 
78 
74 
76 
77 
87 
80 
83 
73 
74 
76 
76 
71 
99 
117 
133 
136 
140 
149 
138 
132 
160 
160 
172 
178 
167 
154 
161 
183 
200 
184 
180 
182 
198 
218 
229 
224 
214 
218 
221 
222 
221 
218 
216 
218 
221 
218 
218 
218 
218 
218 
218 
218 
218 
217 
217 
217 
217 
217 
217 
217 
217 
216 
216 
217 
217 
218 
218 
218 
218 
218 
218 
218 
218 
213 
215 
212 
213 
217 
213 
212 
220 
191 
222 
232 
204 
135 
70 
73 
64 
68 
67 
65 
62 
61 
63 
66 
69 
71 
72 
73 
72 
67 
65 
68 
73 
73 
69 
65 
67 
69 
71 
71 
71 
66 
68 
67 
64 
65 
68 
68 
64 
62 
66 
77 
79 
77 
93 
104 
94 
91 
89 
82 
72 
69 
74 
79 
80 
78 
74 
72 
73 
69 
65 
70 
79 
89 
106 
110 
113 
118 
108 
111 
141 
148 
158 
163 
165 
156 
169 
194 
172 
176 
189 
184 
177 
190 
209 
197 
213 
226 
229 
201 
213 
217 
209 
216 
220 
218 
218 
218 
217 
218 
217 
218 
217 
217 
217 
217 
217 
217 
217 
217 
217 
217 
217 
217 
217 
217 
217 
218 
218 
218 
218 
218 
218 
215 
214 
214 
214 
214 
216 
217 
216 
215 
215 
190 
132 
78 
65 
80 
69 
68 
67 
64 
63 
66 
68 
66 
61 
66 
70 
74 
74 
73 
72 
73 
74 
70 
68 
67 
68 
68 
69 
71 
73 
70 
67 
66 
69 
70 
68 
66 
66 
63 
66 
75 
77 
75 
86 
94 
85 
80 
78 
73 
66 
64 
68 
72 
74 
72 
69 
69 
70 
67 
61 
61 
67 
83 
99 
100 
98 
102 
97 
93 
102 
115 
143 
153 
161 
166 
170 
173 
152 
171 
198 
174 
159 
176 
174 
180 
193 
215 
215 
219 
224 
223 
224 
220 
213 
219 
219 
216 
219 
217 
220 
217 
216 
217 
217 
217 
217 
217 
217 
217 
217 
217 
217 
217 
217 
217 
217 
218 
218 
218 
218 
218 
218 
216 
213 
216 
216 
212 
215 
217 
209 
227 
193 
106 
72 
86 
81 
67 
70 
70 
70 
69 
68 
69 
70 
67 
61 
62 
67 
70 
69 
69 
70 
69 
66 
68 
69 
70 
70 
68 
67 
70 
75 
73 
65 
65 
73 
75 
68 
65 
70 
66 
65 
70 
71 
67 
73 
79 
73 
71 
68 
65 
64 
64 
64 
68 
72 
68 
65 
64 
65 
62 
57 
57 
58 
63 
72 
75 
74 
74 
70 
67 
69 
75 
112 
135 
140 
135 
144 
167 
164 
163 
200 
171 
155 
176 
161 
182 
190 
186 
177 
210 
235 
221 
210 
212 
223 
219 
220 
215 
221 
217 
221 
216 
216 
217 
217 
217 
217 
217 
217 
217 
217 
217 
217 
217 
217 
217 
217 
218 
218 
218 
218 
218 
218 
214 
214 
215 
216 
214 
212 
210 
208 
210 
135 
63 
81 
79 
60 
65 
63 
64 
67 
69 
68 
62 
57 
59 
65 
68 
71 
71 
67 
67 
70 
69 
64 
67 
68 
70 
69 
66 
63 
66 
70 
67 
61 
62 
70 
70 
63 
62 
69 
68 
63 
63 
63 
60 
61 
66 
65 
66 
62 
62 
65 
66 
64 
66 
71 
68 
62 
59 
60 
59 
57 
57 
60 
59 
60 
66 
69 
63 
56 
62 
72 
61 
72 
92 
97 
86 
119 
168 
166 
150 
185 
181 
170 
170 
157 
173 
183 
156 
141 
161 
206 
211 
221 
220 
217 
218 
218 
217 
219 
218 
219 
217 
216 
217 
217 
217 
217 
217 
217 
217 
217 
217 
217 
217 
217 
217 
217 
218 
218 
218 
218 
218 
218 
213 
216 
214 
214 
217 
212 
209 
218 
199 
103 
60 
77 
55 
54 
63 
62 
64 
65 
70 
73 
65 
55 
58 
69 
68 
72 
71 
67 
66 
70 
69 
65 
66 
66 
67 
66 
63 
60 
60 
62 
59 
59 
60 
62 
60 
56 
57 
62 
64 
59 
59 
61 
59 
59 
61 
62 
62 
59 
60 
65 
66 
62 
63 
68 
67 
62 
58 
58 
58 
58 
59 
61 
65 
63 
69 
71 
62 
58 
66 
76 
60 
65 
81 
83 
71 
100 
143 
146 
131 
144 
176 
173 
149 
154 
150 
156 
176 
149 
155 
196 
209 
238 
219 
219 
216 
216 
219 
217 
219 
216 
218 
217 
217 
217 
217 
217 
217 
217 
217 
217 
217 
217 
217 
217 
217 
217 
218 
218 
218 
218 
218 
218 
214 
216 
213 
212 
216 
215 
216 
223 
179 
81 
59 
59 
59 
74 
56 
58 
65 
63 
67 
75 
73 
62 
60 
66 
69 
74 
77 
74 
70 
68 
65 
62 
67 
66 
67 
67 
65 
62 
60 
61 
61 
62 
63 
61 
57 
56 
56 
58 
58 
58 
58 
62 
64 
62 
61 
62 
61 
59 
60 
65 
65 
61 
61 
65 
62 
60 
58 
59 
59 
58 
58 
59 
59 
62 
66 
64 
60 
63 
66 
63 
60 
79 
87 
82 
77 
82 
96 
112 
115 
98 
135 
137 
113 
142 
123 
100 
175 
160 
172 
174 
172 
224 
210 
215 
217 
217 
218 
217 
218 
217 
218 
218 
217 
217 
217 
217 
217 
217 
217 
217 
217 
217 
217 
217 
217 
217 
218 
218 
218 
218 
218 
218 
214 
211 
216 
215 
210 
216 
218 
205 
115 
50 
64 
67 
61 
71 
62 
54 
57 
57 
60 
66 
67 
63 
59 
58 
70 
76 
82 
80 
73 
66 
63 
63 
64 
65 
68 
69 
68 
65 
65 
66 
66 
66 
66 
65 
63 
60 
59 
60 
58 
59 
58 
60 
63 
62 
59 
60 
59 
59 
60 
62 
62 
59 
59 
61 
58 
58 
58 
59 
59 
57 
57 
58 
57 
62 
65 
64 
64 
67 
65 
61 
64 
69 
64 
64 
76 
76 
69 
76 
94 
73 
92 
88 
75 
113 
113 
65 
143 
154 
161 
135 
122 
189 
231 
218 
221 
222 
213 
221 
214 
223 
215 
217 
217 
217 
217 
217 
217 
217 
217 
217 
217 
217 
217 
217 
217 
217 
218 
218 
218 
218 
218 
218 
212 
206 
220 
219 
203 
215 
215 
179 
55 
68 
66 
61 
73 
70 
68 
65 
56 
61 
64 
63 
64 
66 
65 
62 
58 
64 
71 
71 
63 
56 
55 
59 
59 
61 
66 
68 
67 
65 
66 
69 
68 
64 
63 
67 
67 
64 
61 
61 
61 
62 
58 
57 
58 
58 
57 
58 
57 
57 
58 
58 
58 
57 
57 
58 
58 
58 
57 
58 
57 
57 
59 
61 
60 
62 
65 
69 
68 
62 
61 
64 
61 
59 
60 
66 
70 
73 
76 
80 
60 
65 
80 
70 
61 
102 
145 
99 
117 
117 
115 
118 
76 
80 
197 
224 
225 
227 
208 
226 
210 
230 
213 
216 
217 
217 
217 
217 
217 
217 
217 
217 
217 
217 
217 
217 
217 
217 
218 
218 
218 
218 
218 
218 
209 
211 
215 
218 
211 
215 
222 
167 
56 
64 
65 
69 
66 
62 
69 
58 
56 
56 
59 
61 
62 
61 
61 
63 
59 
57 
62 
64 
56 
55 
58 
54 
56 
58 
62 
63 
62 
60 
59 
58 
56 
55 
56 
59 
60 
58 
57 
57 
57 
57 
57 
59 
59 
57 
57 
59 
59 
57 
61 
63 
57 
58 
60 
57 
58 
59 
58 
57 
56 
59 
61 
61 
60 
63 
66 
69 
69 
67 
64 
62 
63 
60 
62 
67 
68 
67 
74 
83 
78 
72 
75 
68 
60 
85 
107 
95 
82 
83 
81 
79 
82 
88 
133 
207 
243 
200 
222 
228 
206 
214 
221 
215 
217 
217 
217 
217 
217 
217 
217 
216 
216 
216 
216 
217 
217 
217 
218 
218 
218 
218 
218 
218 
215 
210 
217 
212 
217 
213 
217 
185 
62 
60 
63 
63 
65 
64 
68 
53 
53 
53 
55 
58 
59 
58 
57 
58 
56 
52 
55 
55 
49 
50 
54 
51 
50 
52 
54 
54 
53 
52 
51 
51 
49 
49 
50 
53 
55 
54 
53 
53 
57 
57 
57 
59 
59 
57 
57 
58 
62 
58 
61 
63 
59 
60 
61 
57 
58 
58 
58 
56 
57 
59 
62 
62 
59 
61 
62 
64 
65 
64 
62 
59 
62 
59 
60 
63 
63 
59 
62 
69 
75 
75 
64 
63 
78 
79 
75 
83 
61 
65 
78 
73 
85 
96 
87 
172 
237 
209 
230 
224 
216 
213 
220 
219 
217 
217 
217 
217 
217 
217 
216 
216 
216 
216 
216 
217 
217 
218 
218 
218 
218 
218 
218 
218 
215 
211 
214 
213 
220 
219 
215 
202 
81 
60 
60 
61 
61 
63 
62 
54 
52 
50 
51 
54 
55 
54 
53 
52 
51 
48 
48 
47 
46 
46 
49 
47 
46 
46 
47 
47 
46 
46 
46 
46 
46 
47 
48 
51 
53 
53 
53 
53 
56 
56 
56 
58 
59 
58 
58 
59 
60 
57 
59 
61 
59 
59 
60 
57 
58 
58 
58 
57 
57 
59 
61 
62 
57 
56 
56 
58 
60 
61 
60 
59 
58 
56 
56 
59 
58 
55 
55 
57 
68 
72 
61 
64 
83 
75 
63 
75 
62 
84 
78 
63 
76 
88 
83 
130 
187 
221 
206 
222 
213 
229 
213 
220 
216 
217 
217 
217 
217 
216 
216 
216 
216 
216 
216 
217 
217 
218 
218 
218 
218 
218 
218 
218 
211 
213 
209 
218 
214 
222 
212 
182 
87 
58 
57 
69 
60 
62 
55 
58 
53 
51 
50 
52 
54 
52 
50 
48 
47 
47 
46 
46 
46 
46 
45 
44 
45 
45 
45 
45 
45 
45 
46 
46 
47 
47 
49 
52 
55 
56 
56 
56 
57 
57 
57 
58 
58 
57 
57 
57 
57 
56 
57 
58 
57 
58 
58 
57 
58 
58 
58 
57 
57 
58 
61 
63 
59 
55 
55 
56 
60 
62 
63 
63 
61 
59 
60 
63 
64 
61 
61 
63 
62 
65 
70 
70 
67 
71 
75 
71 
72 
79 
65 
59 
71 
79 
106 
122 
139 
226 
213 
215 
218 
224 
210 
214 
216 
216 
217 
217 
217 
216 
216 
216 
216 
216 
217 
217 
217 
218 
218 
218 
218 
218 
218 
218 
211 
215 
212 
218 
211 
213 
207 
129 
71 
60 
59 
76 
57 
67 
54 
57 
55 
52 
50 
51 
52 
50 
47 
46 
48 
46 
44 
44 
45 
45 
44 
44 
45 
45 
45 
44 
44 
45 
46 
46 
46 
47 
49 
51 
54 
56 
56 
56 
60 
61 
60 
60 
58 
57 
56 
56 
56 
58 
59 
58 
58 
57 
57 
59 
58 
57 
57 
56 
56 
58 
62 
66 
65 
60 
57 
58 
62 
63 
63 
64 
61 
59 
60 
63 
64 
63 
63 
65 
61 
62 
73 
70 
57 
67 
77 
65 
73 
65 
74 
95 
85 
63 
85 
143 
133 
192 
240 
204 
225 
203 
220 
217 
216 
217 
217 
217 
217 
216 
216 
216 
216 
216 
217 
217 
218 
218 
218 
218 
218 
218 
218 
218 
214 
212 
217 
215 
217 
207 
203 
82 
66 
74 
65 
68 
48 
67 
55 
56 
54 
51 
49 
49 
49 
47 
45 
45 
50 
49 
44 
43 
45 
45 
44 
45 
44 
44 
43 
44 
44 
45 
46 
46 
47 
48 
49 
51 
53 
56 
56 
55 
56 
59 
62 
63 
64 
64 
62 
59 
57 
61 
60 
58 
59 
57 
56 
57 
57 
56 
56 
56 
56 
58 
64 
69 
67 
62 
58 
59 
60 
59 
59 
60 
60 
59 
60 
61 
60 
58 
58 
60 
61 
61 
63 
65 
66 
68 
69 
69 
70 
79 
71 
113 
104 
62 
63 
126 
166 
159 
214 
217 
211 
221 
216 
221 
217 
217 
217 
217 
217 
217 
216 
216 
216 
217 
217 
217 
218 
218 
218 
218 
218 
218 
218 
218 
219 
210 
214 
217 
218 
212 
189 
61 
67 
80 
63 
55 
46 
57 
55 
56 
52 
50 
48 
48 
47 
45 
45 
47 
49 
51 
45 
43 
47 
47 
45 
48 
46 
45 
45 
46 
48 
48 
47 
46 
49 
51 
52 
52 
54 
57 
57 
55 
55 
60 
66 
69 
71 
70 
66 
62 
59 
61 
58 
58 
63 
61 
56 
57 
58 
57 
57 
57 
57 
57 
63 
68 
63 
59 
58 
60 
61 
59 
59 
61 
65 
66 
67 
67 
64 
61 
61 
63 
61 
61 
58 
61 
70 
69 
65 
72 
65 
78 
62 
81 
101 
79 
74 
82 
172 
149 
148 
221 
210 
240 
208 
215 
217 
218 
218 
218 
218 
217 
217 
217 
216 
217 
217 
217 
218 
218 
218 
219 
218 
218 
218 
218 
223 
211 
204 
221 
210 
217 
167 
51 
57 
66 
53 
51 
56 
49 
52 
53 
51 
49 
48 
47 
46 
45 
46 
49 
47 
52 
48 
47 
52 
50 
46 
49 
50 
50 
50 
52 
53 
53 
51 
49 
51 
53 
53 
53 
54 
57 
57 
56 
59 
66 
73 
76 
75 
71 
64 
57 
61 
63 
58 
59 
69 
68 
61 
61 
59 
59 
59 
59 
57 
57 
60 
65 
60 
58 
59 
64 
66 
64 
66 
70 
62 
64 
66 
66 
63 
60 
59 
61 
63 
61 
60 
60 
60 
63 
67 
68 
64 
70 
113 
70 
78 
72 
74 
75 
116 
120 
95 
181 
232 
220 
219 
216 
218 
218 
218 
218 
218 
218 
217 
217 
217 
217 
217 
217 
218 
218 
218 
219 
218 
218 
218 
218 
217 
210 
218 
220 
216 
217 
128 
52 
56 
58 
52 
55 
60 
53 
49 
50 
50 
50 
49 
48 
48 
47 
47 
47 
49 
50 
50 
49 
49 
49 
49 
47 
48 
49 
49 
50 
50 
50 
50 
50 
55 
50 
52 
55 
55 
59 
63 
59 
65 
70 
77 
84 
88 
91 
90 
89 
74 
61 
63 
55 
55 
58 
55 
65 
59 
60 
60 
58 
57 
57 
59 
63 
66 
66 
65 
63 
62 
61 
62 
63 
60 
60 
64 
63 
57 
57 
60 
60 
60 
61 
61 
60 
60 
63 
68 
71 
63 
67 
84 
73 
75 
73 
73 
80 
79 
189 
103 
152 
226 
209 
233 
217 
218 
218 
218 
219 
218 
218 
218 
217 
218 
218 
218 
218 
218 
218 
219 
219 
219 
219 
219 
219 
213 
216 
216 
223 
206 
199 
89 
50 
57 
56 
56 
56 
61 
58 
48 
53 
50 
50 
50 
50 
49 
49 
48 
48 
49 
50 
51 
50 
50 
50 
51 
50 
51 
51 
52 
51 
51 
50 
49 
50 
53 
52 
55 
58 
58 
60 
60 
58 
66 
79 
93 
97 
94 
93 
102 
111 
107 
81 
68 
61 
58 
62 
61 
62 
59 
60 
59 
58 
57 
57 
58 
61 
68 
72 
70 
62 
57 
59 
61 
60 
57 
58 
63 
63 
58 
57 
59 
58 
58 
59 
59 
59 
60 
63 
68 
71 
60 
65 
68 
64 
62 
74 
64 
85 
38 
186 
125 
162 
223 
217 
220 
217 
217 
217 
217 
218 
218 
218 
219 
219 
218 
218 
218 
218 
218 
218 
219 
219 
219 
219 
219 
219 
215 
219 
210 
211 
206 
202 
78 
63 
61 
58 
62 
62 
66 
63 
50 
53 
50 
51 
51 
51 
51 
50 
49 
48 
49 
50 
51 
50 
50 
51 
53 
53 
56 
56 
56 
55 
54 
53 
52 
51 
51 
55 
56 
58 
62 
61 
61 
62 
61 
83 
109 
118 
109 
100 
105 
117 
116 
104 
79 
66 
65 
62 
61 
58 
60 
59 
58 
57 
57 
57 
57 
58 
64 
70 
69 
58 
54 
55 
58 
56 
54 
56 
62 
63 
58 
56 
57 
55 
57 
58 
58 
59 
59 
62 
65 
68 
58 
62 
55 
62 
56 
72 
57 
109 
53 
117 
130 
165 
207 
216 
207 
218 
218 
218 
218 
217 
218 
218 
219 
219 
218 
218 
218 
218 
218 
218 
219 
219 
219 
219 
219 
219 
208 
213 
217 
210 
222 
216 
91 
66 
57 
58 
63 
70 
72 
65 
56 
53 
53 
53 
53 
52 
52 
51 
50 
49 
49 
51 
52 
50 
50 
51 
54 
56 
57 
57 
57 
57 
56 
55 
54 
53 
51 
57 
57 
58 
63 
64 
64 
71 
66 
83 
108 
127 
127 
115 
107 
105 
105 
101 
91 
84 
58 
55 
73 
61 
60 
59 
57 
57 
58 
57 
56 
56 
57 
61 
61 
55 
53 
54 
55 
54 
54 
55 
60 
61 
56 
54 
55 
53 
57 
58 
58 
58 
58 
60 
62 
63 
62 
62 
55 
68 
57 
62 
52 
136 
137 
83 
111 
146 
208 
210 
223 
218 
219 
219 
218 
218 
218 
218 
218 
218 
218 
218 
218 
218 
218 
218 
218 
219 
219 
219 
219 
219 
214 
212 
220 
214 
212 
206 
99 
63 
51 
56 
57 
70 
71 
62 
63 
56 
58 
56 
55 
53 
51 
51 
50 
50 
51 
53 
52 
50 
50 
52 
55 
56 
54 
55 
55 
55 
55 
54 
53 
53 
53 
60 
61 
61 
66 
65 
65 
72 
68 
70 
84 
108 
126 
123 
104 
87 
130 
124 
86 
87 
97 
73 
61 
59 
60 
59 
57 
57 
58 
58 
56 
55 
56 
55 
55 
56 
56 
54 
54 
53 
52 
52 
54 
55 
52 
52 
52 
53 
56 
57 
57 
57 
58 
58 
59 
60 
65 
63 
59 
64 
58 
54 
59 
145 
194 
157 
130 
134 
207 
176 
233 
217 
217 
218 
218 
219 
219 
218 
218 
217 
218 
218 
218 
218 
218 
218 
218 
219 
219 
219 
219 
219 
226 
212 
209 
221 
202 
199 
112 
61 
59 
59 
61 
68 
64 
58 
62 
59 
60 
58 
56 
53 
51 
51 
51 
51 
53 
53 
52 
50 
51 
53 
55 
55 
55 
56 
56 
56 
56 
56 
55 
55 
58 
63 
67 
68 
69 
66 
64 
65 
66 
61 
67 
91 
118 
122 
101 
77 
124 
112 
75 
95 
122 
82 
55 
58 
60 
59 
57 
57 
58 
58 
56 
56 
56 
54 
53 
56 
56 
53 
52 
52 
51 
51 
51 
51 
50 
50 
52 
52 
54 
55 
56 
57 
58 
58 
58 
58 
63 
61 
59 
55 
59 
58 
85 
154 
192 
185 
142 
129 
188 
160 
223 
218 
217 
217 
218 
218 
219 
219 
219 
218 
218 
218 
217 
217 
218 
218 
218 
218 
219 
219 
219 
219 
217 
210 
208 
229 
216 
212 
150 
77 
68 
59 
73 
69 
59 
61 
55 
61 
60 
59 
56 
54 
52 
51 
51 
51 
54 
53 
51 
50 
52 
55 
55 
54 
57 
57 
59 
60 
60 
61 
60 
60 
62 
64 
69 
71 
69 
68 
67 
64 
71 
71 
74 
86 
102 
108 
96 
79 
77 
56 
72 
103 
82 
61 
72 
62 
60 
59 
58 
57 
57 
57 
57 
57 
56 
54 
54 
54 
53 
53 
54 
56 
54 
51 
51 
50 
50 
50 
52 
52 
54 
55 
56 
57 
58 
58 
57 
56 
65 
57 
55 
54 
60 
58 
110 
176 
172 
143 
121 
126 
175 
163 
218 
219 
220 
219 
218 
217 
217 
217 
218 
218 
218 
218 
217 
217 
217 
218 
218 
218 
218 
218 
218 
218 
217 
219 
216 
213 
210 
212 
198 
123 
66 
50 
80 
68 
57 
67 
50 
63 
59 
58 
57 
55 
53 
52 
51 
51 
54 
52 
50 
50 
53 
56 
56 
53 
55 
56 
58 
60 
62 
63 
64 
64 
64 
62 
67 
71 
67 
69 
72 
68 
74 
77 
75 
70 
71 
78 
81 
78 
79 
71 
65 
71 
74 
71 
66 
58 
59 
59 
58 
58 
57 
57 
58 
58 
56 
57 
56 
53 
53 
57 
63 
65 
60 
56 
56 
54 
50 
50 
53 
52 
55 
56 
56 
57 
58 
57 
56 
55 
72 
54 
52 
61 
59 
48 
117 
193 
162 
150 
137 
145 
165 
125 
206 
222 
224 
222 
219 
216 
215 
215 
216 
217 
218 
217 
217 
217 
217 
218 
218 
218 
218 
218 
218 
218 
215 
218 
213 
219 
214 
207 
199 
160 
94 
84 
78 
75 
77 
74 
70 
62 
59 
53 
54 
59 
57 
55 
53 
50 
56 
54 
53 
53 
52 
51 
52 
57 
59 
62 
62 
60 
60 
63 
62 
59 
61 
60 
64 
68 
62 
64 
73 
61 
65 
73 
78 
80 
79 
74 
76 
86 
87 
75 
68 
69 
70 
69 
66 
60 
60 
57 
59 
60 
59 
57 
55 
58 
56 
54 
55 
55 
53 
60 
67 
64 
60 
62 
79 
78 
53 
49 
54 
49 
52 
52 
53 
54 
55 
56 
56 
56 
62 
56 
51 
61 
54 
49 
124 
177 
200 
169 
139 
170 
141 
117 
196 
215 
218 
220 
217 
214 
217 
217 
216 
217 
215 
215 
216 
216 
217 
218 
218 
218 
218 
218 
218 
218 
216 
219 
213 
215 
213 
212 
203 
162 
116 
110 
82 
74 
83 
60 
77 
56 
61 
56 
51 
56 
63 
56 
50 
52 
53 
55 
50 
50 
56 
56 
52 
56 
60 
63 
63 
59 
57 
59 
58 
55 
66 
60 
61 
67 
59 
58 
67 
65 
62 
65 
71 
80 
84 
79 
78 
84 
88 
81 
73 
67 
64 
66 
65 
58 
61 
57 
58 
58 
59 
60 
57 
60 
56 
54 
56 
59 
59 
66 
73 
69 
61 
68 
85 
81 
56 
49 
54 
50 
50 
51 
53 
53 
53 
54 
56 
59 
52 
57 
57 
51 
47 
59 
119 
154 
218 
175 
122 
173 
116 
112 
184 
208 
215 
218 
216 
215 
218 
218 
216 
217 
216 
216 
216 
217 
217 
218 
218 
218 
218 
218 
218 
218 
216 
220 
213 
213 
213 
215 
204 
164 
135 
130 
97 
90 
102 
52 
58 
70 
69 
68 
54 
51 
62 
56 
48 
51 
54 
64 
58 
52 
58 
57 
54 
60 
55 
59 
61 
60 
60 
62 
61 
58 
66 
62 
61 
65 
59 
59 
71 
71 
66 
63 
63 
72 
81 
80 
79 
86 
86 
85 
80 
70 
62 
65 
65 
58 
60 
57 
58 
57 
63 
66 
60 
61 
57 
56 
59 
63 
66 
72 
75 
71 
62 
68 
77 
72 
55 
50 
50 
50 
50 
51 
52 
52 
53 
54 
56 
59 
50 
52 
54 
45 
55 
78 
117 
149 
206 
158 
106 
159 
132 
137 
192 
208 
215 
218 
217 
216 
219 
219 
216 
216 
216 
216 
217 
217 
218 
218 
218 
219 
218 
218 
218 
218 
215 
218 
213 
215 
216 
215 
202 
171 
169 
139 
137 
128 
128 
83 
55 
80 
79 
79 
63 
52 
58 
60 
55 
57 
57 
65 
64 
56 
53 
56 
58 
59 
56 
57 
56 
54 
55 
57 
58 
56 
59 
60 
58 
59 
57 
60 
69 
65 
68 
67 
66 
70 
76 
78 
78 
83 
80 
84 
85 
78 
69 
69 
69 
62 
64 
64 
64 
62 
69 
71 
63 
65 
62 
61 
60 
62 
65 
69 
69 
65 
66 
66 
63 
60 
57 
53 
50 
49 
49 
49 
50 
51 
52 
54 
54 
53 
50 
48 
48 
47 
81 
101 
129 
179 
180 
139 
115 
134 
182 
180 
208 
211 
219 
222 
220 
218 
220 
220 
216 
216 
216 
216 
217 
217 
218 
218 
218 
219 
218 
218 
218 
218 
216 
216 
214 
216 
217 
213 
204 
188 
189 
140 
166 
145 
151 
123 
85 
77 
76 
67 
60 
56 
54 
56 
60 
61 
68 
68 
70 
63 
54 
61 
68 
60 
68 
64 
58 
53 
54 
54 
55 
54 
61 
58 
56 
61 
62 
58 
60 
57 
61 
71 
76 
77 
80 
79 
77 
78 
77 
79 
84 
83 
77 
75 
76 
73 
77 
77 
74 
66 
70 
69 
62 
70 
69 
67 
61 
58 
60 
61 
60 
58 
67 
65 
60 
59 
63 
59 
50 
49 
48 
49 
50 
51 
51 
52 
51 
51 
47 
49 
48 
56 
106 
131 
153 
195 
159 
116 
117 
123 
194 
203 
210 
216 
221 
223 
220 
217 
219 
218 
216 
216 
216 
216 
217 
217 
217 
218 
218 
218 
218 
218 
218 
218 
218 
216 
214 
215 
217 
213 
209 
207 
170 
143 
167 
145 
186 
137 
111 
113 
93 
75 
73 
80 
75 
68 
74 
80 
80 
82 
86 
74 
56 
57 
65 
61 
62 
63 
64 
62 
59 
56 
55 
54 
61 
55 
54 
65 
69 
57 
57 
58 
61 
73 
80 
80 
81 
80 
79 
82 
76 
76 
80 
82 
80 
80 
81 
79 
83 
82 
74 
62 
64 
61 
58 
74 
79 
77 
67 
59 
60 
60 
58 
59 
59 
61 
62 
63 
63 
57 
51 
49 
49 
53 
57 
57 
53 
51 
52 
53 
47 
50 
46 
59 
115 
154 
176 
170 
154 
114 
123 
151 
179 
209 
198 
216 
219 
221 
217 
214 
216 
217 
216 
216 
216 
216 
216 
217 
217 
217 
218 
218 
218 
218 
218 
218 
217 
217 
216 
214 
216 
216 
212 
214 
161 
155 
174 
171 
205 
147 
128 
151 
117 
106 
98 
100 
101 
96 
96 
105 
98 
101 
94 
80 
72 
66 
61 
61 
66 
70 
73 
69 
61 
55 
56 
60 
63 
62 
58 
67 
74 
68 
68 
69 
68 
72 
76 
79 
80 
76 
75 
82 
73 
75 
78 
79 
80 
83 
82 
73 
77 
75 
66 
59 
64 
61 
60 
83 
88 
86 
73 
62 
61 
60 
58 
61 
56 
56 
61 
63 
60 
55 
53 
55 
58 
60 
61 
61 
59 
57 
55 
54 
51 
48 
48 
77 
105 
141 
191 
158 
169 
149 
149 
183 
185 
215 
196 
214 
217 
219 
216 
213 
215 
217 
215 
217 
216 
216 
216 
216 
217 
217 
217 
217 
218 
218 
218 
218 
214 
217 
218 
213 
216 
218 
211 
210 
176 
157 
190 
204 
186 
159 
138 
134 
153 
156 
141 
130 
141 
146 
144 
149 
128 
123 
97 
89 
108 
103 
77 
70 
104 
102 
95 
78 
61 
57 
66 
78 
81 
92 
87 
81 
86 
93 
95 
86 
70 
68 
72 
83 
85 
73 
66 
73 
70 
75 
79 
78 
79 
86 
80 
63 
68 
67 
61 
61 
71 
70 
69 
95 
89 
89 
75 
61 
59 
57 
56 
60 
59 
57 
60 
63 
61 
61 
65 
67 
67 
61 
57 
58 
62 
62 
56 
51 
58 
48 
65 
107 
91 
107 
196 
179 
162 
166 
157 
176 
199 
220 
207 
221 
217 
219 
216 
214 
216 
217 
215 
216 
215 
216 
216 
216 
216 
216 
217 
217 
218 
218 
218 
218 
215 
214 
214 
215 
217 
216 
213 
211 
199 
185 
201 
213 
201 
176 
147 
137 
165 
173 
162 
139 
134 
146 
153 
150 
133 
133 
111 
106 
141 
135 
116 
114 
134 
132 
120 
99 
79 
73 
88 
105 
102 
111 
111 
108 
108 
99 
93 
102 
94 
94 
86 
81 
71 
65 
71 
62 
61 
74 
77 
64 
68 
83 
77 
68 
67 
66 
65 
62 
66 
70 
71 
86 
79 
70 
62 
59 
60 
60 
61 
61 
60 
63 
60 
56 
58 
59 
59 
61 
67 
67 
61 
56 
57 
57 
61 
72 
62 
60 
84 
121 
112 
135 
196 
184 
158 
161 
156 
169 
203 
204 
209 
220 
218 
218 
217 
216 
216 
216 
216 
216 
215 
216 
217 
216 
216 
215 
215 
215 
217 
217 
217 
217 
216 
215 
214 
215 
215 
214 
211 
209 
213 
211 
205 
205 
210 
182 
150 
167 
178 
184 
176 
152 
141 
149 
155 
150 
130 
131 
122 
123 
161 
159 
140 
143 
148 
151 
136 
104 
87 
92 
103 
114 
121 
123 
123 
124 
117 
98 
93 
106 
112 
117 
106 
90 
67 
56 
65 
65 
71 
80 
79 
62 
64 
76 
71 
65 
62 
61 
64 
60 
59 
59 
65 
85 
71 
64 
58 
59 
63 
64 
61 
59 
57 
60 
59 
57 
58 
57 
57 
62 
62 
70 
67 
57 
56 
59 
67 
80 
57 
83 
105 
118 
136 
160 
181 
194 
153 
153 
156 
170 
193 
195 
208 
216 
218 
218 
217 
216 
216 
216 
216 
216 
216 
216 
217 
217 
216 
216 
216 
216 
217 
217 
217 
217 
217 
215 
214 
214 
215 
214 
212 
211 
215 
218 
204 
198 
210 
188 
167 
194 
186 
179 
180 
178 
161 
149 
149 
150 
141 
136 
125 
127 
160 
159 
149 
156 
153 
162 
153 
117 
107 
120 
120 
125 
119 
118 
121 
126 
118 
99 
90 
92 
116 
128 
125 
107 
79 
62 
65 
67 
65 
81 
90 
76 
69 
72 
65 
62 
63 
63 
72 
74 
69 
62 
60 
70 
66 
61 
59 
62 
67 
68 
65 
63 
62 
59 
56 
59 
65 
64 
61 
62 
66 
66 
65 
59 
56 
67 
76 
73 
83 
103 
117 
131 
161 
185 
189 
186 
159 
164 
177 
187 
196 
197 
214 
217 
218 
218 
217 
217 
216 
216 
216 
216 
216 
217 
218 
218 
217 
216 
216 
217 
217 
217 
217 
217 
216 
215 
215 
215 
216 
216 
216 
216 
216 
212 
211 
210 
206 
200 
200 
208 
194 
183 
189 
195 
177 
159 
155 
153 
151 
147 
127 
133 
157 
149 
153 
155 
152 
162 
162 
136 
132 
139 
130 
133 
133 
132 
132 
130 
125 
120 
110 
96 
99 
112 
119 
119 
110 
95 
83 
76 
69 
80 
85 
71 
65 
66 
60 
60 
67 
66 
74 
73 
67 
63 
60 
63 
64 
62 
61 
62 
62 
61 
61 
62 
63 
57 
54 
56 
62 
59 
55 
57 
61 
55 
57 
59 
57 
70 
80 
72 
110 
99 
98 
149 
174 
169 
187 
183 
171 
191 
206 
205 
209 
207 
219 
219 
218 
218 
217 
217 
216 
216 
216 
216 
217 
218 
218 
218 
217 
217 
217 
217 
217 
217 
217 
217 
215 
214 
214 
215 
216 
217 
217 
217 
214 
211 
217 
217 
204 
206 
215 
206 
207 
207 
207 
196 
182 
184 
181 
162 
160 
166 
146 
163 
181 
160 
170 
158 
156 
156 
156 
145 
142 
139 
131 
138 
143 
141 
137 
129 
126 
129 
126 
116 
110 
107 
106 
114 
125 
118 
97 
86 
68 
71 
72 
65 
66 
69 
63 
62 
65 
69 
73 
68 
66 
66 
60 
60 
64 
65 
67 
66 
61 
58 
59 
63 
64 
61 
57 
58 
60 
56 
56 
60 
58 
67 
63 
58 
64 
64 
68 
85 
110 
78 
76 
147 
172 
145 
163 
181 
176 
210 
218 
206 
213 
211 
216 
217 
218 
218 
217 
217 
216 
216 
217 
217 
218 
218 
219 
219 
218 
217 
217 
218 
217 
217 
217 
217 
214 
214 
214 
214 
214 
215 
215 
215 
208 
216 
214 
211 
208 
210 
215 
209 
210 
211 
211 
203 
196 
200 
196 
180 
188 
195 
176 
191 
199 
172 
180 
158 
158 
147 
141 
144 
141 
133 
132 
135 
130 
132 
133 
133 
134 
135 
139 
144 
132 
113 
97 
99 
116 
119 
107 
110 
90 
95 
95 
80 
68 
64 
65 
77 
83 
78 
67 
59 
71 
74 
60 
58 
58 
60 
64 
66 
64 
61 
62 
65 
67 
61 
55 
59 
71 
73 
70 
70 
90 
109 
86 
68 
81 
66 
54 
85 
85 
88 
132 
162 
142 
134 
163 
186 
183 
215 
216 
201 
212 
212 
216 
218 
218 
218 
217 
217 
217 
217 
217 
217 
218 
218 
219 
219 
218 
217 
217 
218 
217 
217 
217 
217 
214 
215 
215 
214 
214 
214 
214 
214 
213 
221 
214 
214 
218 
216 
218 
217 
208 
204 
206 
212 
213 
206 
201 
199 
210 
208 
197 
202 
205 
186 
186 
166 
164 
155 
149 
163 
158 
144 
140 
121 
119 
125 
125 
125 
134 
139 
142 
149 
138 
120 
105 
98 
102 
100 
102 
128 
124 
130 
129 
105 
78 
66 
71 
92 
106 
96 
75 
68 
85 
85 
69 
77 
67 
63 
61 
64 
68 
68 
65 
63 
71 
67 
62 
67 
81 
88 
85 
82 
122 
128 
113 
95 
90 
76 
66 
76 
74 
138 
203 
195 
142 
143 
185 
205 
199 
215 
214 
206 
216 
214 
220 
220 
218 
218 
217 
217 
217 
217 
217 
217 
218 
218 
219 
219 
218 
217 
217 
218 
218 
218 
218 
218 
214 
215 
216 
216 
215 
215 
215 
215 
218 
215 
211 
219 
216 
211 
216 
210 
212 
212 
211 
212 
214 
212 
209 
211 
205 
199 
205 
208 
214 
208 
201 
186 
178 
178 
177 
195 
187 
165 
150 
107 
153 
157 
142 
128 
140 
156 
158 
157 
154 
145 
134 
113 
91 
69 
68 
106 
99 
114 
133 
132 
119 
101 
88 
95 
98 
111 
117 
123 
131 
107 
83 
100 
102 
89 
77 
77 
81 
81 
74 
67 
82 
91 
95 
92 
91 
92 
96 
102 
118 
112 
129 
122 
83 
82 
96 
79 
105 
178 
192 
196 
200 
185 
197 
209 
211 
211 
213 
214 
218 
213 
221 
216 
218 
218 
217 
217 
217 
217 
217 
217 
217 
218 
219 
219 
218 
217 
217 
218 
218 
218 
218 
218 
215 
215 
215 
215 
215 
215 
215 
215 
215 
215 
215 
215 
215 
214 
214 
214 
212 
212 
213 
213 
211 
210 
211 
215 
203 
196 
196 
203 
201 
191 
186 
189 
179 
180 
188 
200 
203 
190 
169 
154 
177 
186 
170 
157 
164 
161 
152 
158 
160 
154 
154 
144 
122 
114 
114 
108 
106 
123 
126 
136 
137 
111 
102 
118 
110 
107 
116 
138 
148 
138 
134 
143 
136 
119 
99 
94 
99 
96 
88 
84 
92 
96 
99 
102 
101 
109 
121 
114 
87 
127 
141 
81 
85 
147 
131 
138 
158 
193 
196 
192 
193 
187 
197 
214 
215 
215 
217 
219 
221 
220 
219 
217 
218 
218 
218 
218 
218 
218 
218 
218 
218 
218 
218 
218 
218 
218 
218 
218 
218 
218 
218 
218 
215 
215 
215 
215 
215 
215 
215 
215 
215 
215 
215 
215 
215 
214 
214 
214 
213 
213 
213 
214 
213 
213 
215 
219 
207 
195 
194 
204 
201 
184 
178 
186 
184 
180 
190 
210 
214 
199 
187 
188 
199 
202 
196 
192 
189 
168 
158 
173 
174 
179 
182 
171 
152 
144 
141 
135 
139 
152 
149 
158 
165 
145 
138 
155 
139 
134 
139 
154 
160 
158 
161 
170 
158 
140 
122 
117 
120 
124 
123 
119 
132 
125 
117 
120 
123 
133 
141 
129 
88 
115 
141 
75 
100 
190 
160 
181 
185 
199 
187 
188 
184 
173 
196 
213 
214 
216 
219 
222 
223 
222 
220 
219 
218 
218 
218 
218 
218 
218 
218 
218 
218 
218 
218 
218 
218 
218 
218 
218 
218 
218 
218 
218 
215 
215 
215 
215 
215 
215 
215 
215 
215 
215 
215 
215 
215 
215 
214 
214 
214 
213 
213 
213 
213 
214 
217 
221 
213 
205 
204 
211 
209 
198 
194 
199 
194 
189 
194 
209 
210 
199 
199 
210 
206 
206 
208 
212 
204 
183 
176 
188 
196 
204 
200 
182 
168 
166 
169 
172 
176 
185 
171 
174 
186 
170 
162 
178 
164 
163 
171 
174 
165 
161 
167 
170 
168 
153 
143 
141 
144 
155 
160 
153 
159 
144 
129 
123 
119 
125 
138 
135 
132 
118 
129 
131 
151 
199 
191 
184 
197 
189 
174 
190 
183 
166 
193 
203 
210 
214 
219 
222 
221 
220 
218 
217 
218 
218 
218 
218 
218 
218 
218 
218 
218 
218 
218 
218 
218 
218 
218 
218 
218 
218 
218 
218 
215 
215 
215 
215 
215 
215 
215 
215 
215 
215 
215 
215 
215 
215 
214 
214 
215 
213 
213 
213 
213 
212 
214 
217 
216 
218 
218 
215 
214 
216 
216 
213 
212 
213 
212 
208 
205 
208 
214 
219 
210 
211 
212 
213 
211 
208 
206 
204 
207 
218 
215 
203 
198 
191 
188 
195 
194 
201 
182 
179 
191 
176 
167 
181 
174 
179 
190 
185 
167 
166 
176 
176 
172 
163 
164 
166 
166 
174 
177 
165 
170 
157 
144 
140 
133 
135 
150 
152 
181 
156 
150 
198 
200 
189 
191 
175 
199 
176 
173 
197 
192 
183 
202 
206 
209 
213 
218 
220 
219 
217 
216 
216 
218 
218 
218 
218 
218 
218 
218 
218 
218 
218 
218 
218 
218 
218 
218 
218 
218 
218 
218 
218 
215 
215 
215 
215 
215 
215 
215 
215 
215 
215 
215 
215 
215 
215 
215 
214 
215 
214 
214 
215 
214 
212 
213 
214 
216 
220 
218 
211 
210 
215 
217 
213 
219 
224 
220 
210 
208 
217 
223 
222 
215 
215 
215 
212 
211 
219 
220 
212 
217 
222 
217 
213 
216 
207 
202 
213 
206 
216 
200 
197 
208 
197 
191 
203 
201 
201 
205 
198 
183 
187 
196 
193 
182 
178 
184 
185 
177 
178 
174 
159 
170 
159 
153 
160 
161 
162 
170 
165 
182 
187 
196 
192 
192 
193 
171 
192 
201 
170 
182 
196 
194 
202 
210 
215 
214 
217 
220 
221 
219 
217 
217 
218 
218 
218 
218 
218 
218 
218 
218 
218 
218 
218 
218 
218 
218 
218 
218 
218 
218 
218 
218 
218 
215 
215 
215 
215 
215 
215 
215 
215 
215 
215 
215 
216 
215 
215 
215 
215 
214 
214 
214 
216 
216 
215 
214 
215 
218 
215 
214 
214 
213 
212 
214 
218 
216 
216 
216 
215 
214 
216 
217 
218 
214 
213 
214 
215 
212 
213 
216 
216 
222 
220 
211 
211 
218 
213 
211 
225 
214 
224 
216 
215 
223 
216 
215 
222 
222 
216 
214 
212 
208 
210 
210 
201 
199 
197 
201 
199 
190 
186 
182 
172 
181 
173 
168 
172 
168 
168 
176 
172 
180 
194 
212 
181 
174 
201 
181 
200 
206 
182 
200 
202 
202 
217 
212 
216 
218 
219 
221 
220 
219 
218 
218 
219 
218 
218 
218 
218 
218 
218 
218 
218 
218 
218 
218 
218 
218 
218 
218 
218 
218 
218 
218 
218 
215 
215 
215 
215 
215 
215 
215 
215 
215 
215 
215 
216 
216 
215 
215 
215 
215 
214 
214 
216 
217 
216 
216 
217 
217 
215 
215 
218 
218 
216 
218 
222 
218 
216 
217 
221 
220 
216 
216 
219 
216 
216 
218 
220 
218 
215 
217 
221 
216 
217 
216 
221 
228 
222 
215 
219 
210 
218 
214 
214 
217 
213 
215 
217 
213 
210 
212 
218 
222 
221 
217 
214 
216 
215 
216 
214 
208 
204 
203 
204 
209 
203 
196 
193 
184 
183 
194 
192 
200 
198 
205 
204 
192 
206 
208 
205 
215 
205 
220 
217 
217 
227 
216 
218 
218 
218 
218 
218 
218 
218 
217 
217 
218 
218 
218 
218 
218 
218 
218 
218 
218 
218 
218 
218 
218 
218 
218 
218 
218 
218 
218 
218 
215 
215 
215 
215 
215 
215 
215 
215 
215 
215 
215 
216 
216 
216 
215 
215 
217 
215 
214 
215 
215 
215 
215 
216 
213 
217 
218 
215 
214 
217 
217 
214 
215 
215 
216 
217 
216 
215 
217 
219 
217 
219 
217 
215 
217 
217 
216 
216 
216 
217 
214 
214 
218 
217 
215 
217 
213 
218 
215 
216 
216 
215 
219 
216 
218 
216 
216 
219 
219 
214 
214 
222 
217 
217 
215 
214 
212 
208 
209 
217 
216 
208 
201 
204 
204 
207 
210 
198 
201 
197 
197 
209 
207 
207 
205 
217 
216 
215 
219 
214 
216 
221 
215 
218 
218 
217 
218 
218 
219 
219 
218 
217 
218 
218 
218 
218 
218 
218 
218 
218 
218 
218 
218 
218 
218 
218 
218 
218 
218 
218 
218 
218 
216 
216 
216 
216 
216 
216 
215 
215 
215 
215 
215 
215 
215 
215 
215 
215 
215 
215 
215 
215 
215 
215 
215 
215 
215 
215 
215 
215 
215 
215 
215 
216 
216 
216 
216 
216 
216 
216 
217 
217 
217 
217 
217 
217 
217 
217 
217 
217 
217 
217 
217 
217 
217 
217 
217 
216 
215 
215 
216 
216 
216 
217 
217 
217 
217 
217 
217 
217 
217 
217 
217 
217 
216 
217 
216 
216 
215 
212 
212 
220 
218 
216 
213 
212 
212 
214 
215 
216 
212 
210 
212 
217 
218 
216 
214 
216 
217 
217 
217 
217 
217 
217 
218 
218 
218 
218 
218 
218 
218 
218 
218 
218 
218 
218 
218 
218 
218 
218 
218 
219 
219 
219 
219 
219 
219 
219 
219 
219 
219 
219 
219 
219 
216 
216 
216 
216 
216 
216 
215 
215 
215 
215 
215 
215 
215 
215 
215 
215 
215 
215 
215 
215 
215 
215 
215 
215 
215 
215 
215 
215 
215 
215 
215 
216 
216 
216 
216 
216 
216 
216 
217 
217 
217 
217 
217 
217 
217 
217 
217 
217 
217 
217 
217 
217 
217 
217 
217 
216 
215 
215 
216 
216 
216 
217 
217 
217 
217 
217 
217 
217 
217 
217 
217 
217 
217 
218 
217 
217 
216 
212 
213 
221 
222 
220 
218 
216 
217 
218 
219 
220 
215 
213 
214 
219 
220 
217 
216 
217 
217 
217 
217 
217 
217 
217 
218 
218 
218 
218 
218 
218 
218 
218 
218 
218 
218 
218 
218 
218 
218 
218 
218 
219 
219 
219 
219 
219 
219 
219 
219 
219 
219 
219 
219 
219 
