P2
# Created by MsrVolt
116 51
255
214 
214 
214 
214 
214 
214 
214 
214 
214 
214 
214 
214 
214 
214 
214 
214 
214 
213 
213 
212 
212 
213 
213 
214 
215 
215 
214 
214 
214 
214 
214 
214 
215 
217 
215 
212 
214 
215 
214 
214 
215 
213 
217 
215 
212 
216 
216 
214 
213 
216 
215 
217 
214 
212 
217 
213 
216 
215 
214 
214 
216 
216 
216 
215 
213 
212 
218 
220 
216 
216 
218 
215 
217 
214 
216 
218 
216 
217 
216 
214 
218 
215 
216 
215 
216 
220 
218 
211 
216 
214 
214 
216 
216 
213 
213 
215 
216 
218 
218 
216 
215 
217 
218 
217 
217 
217 
217 
217 
217 
217 
217 
217 
217 
217 
217 
217 
215 
215 
215 
215 
215 
215 
215 
215 
214 
214 
214 
214 
214 
214 
214 
214 
215 
215 
214 
214 
214 
214 
214 
214 
213 
213 
213 
213 
213 
213 
214 
214 
212 
215 
216 
214 
213 
214 
216 
216 
214 
211 
214 
214 
212 
214 
214 
215 
216 
217 
213 
215 
216 
215 
219 
217 
215 
215 
214 
214 
214 
215 
215 
215 
216 
214 
215 
215 
214 
216 
219 
218 
218 
212 
215 
217 
215 
215 
215 
216 
214 
218 
219 
219 
214 
213 
218 
216 
215 
213 
213 
214 
216 
216 
216 
217 
213 
216 
217 
217 
217 
218 
218 
216 
217 
217 
217 
217 
217 
217 
217 
216 
217 
217 
217 
217 
216 
216 
216 
216 
216 
216 
215 
215 
214 
214 
214 
214 
214 
214 
214 
214 
214 
214 
214 
214 
213 
213 
213 
212 
214 
214 
214 
214 
214 
214 
214 
214 
215 
213 
213 
214 
214 
216 
216 
211 
215 
213 
214 
215 
214 
213 
215 
216 
213 
217 
212 
214 
216 
212 
214 
214 
216 
216 
216 
216 
215 
215 
216 
216 
215 
217 
215 
215 
217 
217 
214 
215 
218 
212 
218 
217 
215 
216 
215 
218 
215 
218 
212 
217 
217 
212 
218 
215 
218 
217 
215 
215 
216 
218 
217 
215 
215 
217 
218 
218 
218 
219 
219 
217 
217 
217 
217 
217 
217 
217 
217 
216 
217 
217 
217 
217 
216 
216 
216 
216 
216 
216 
215 
215 
215 
215 
215 
215 
215 
215 
215 
215 
215 
214 
214 
214 
213 
213 
213 
212 
214 
214 
214 
214 
214 
214 
213 
213 
213 
212 
215 
216 
213 
214 
216 
214 
212 
218 
215 
214 
215 
214 
216 
215 
212 
218 
216 
218 
219 
213 
214 
216 
214 
216 
217 
217 
215 
214 
215 
216 
214 
218 
216 
214 
218 
217 
215 
220 
214 
212 
220 
215 
212 
219 
216 
216 
216 
220 
213 
219 
221 
214 
219 
216 
214 
216 
217 
216 
216 
217 
216 
214 
218 
218 
217 
216 
216 
217 
217 
217 
217 
217 
217 
217 
217 
217 
217 
217 
217 
217 
217 
217 
216 
215 
215 
215 
215 
215 
215 
215 
215 
215 
215 
215 
215 
215 
215 
215 
216 
215 
215 
214 
214 
214 
214 
214 
212 
212 
212 
213 
213 
213 
214 
214 
207 
212 
219 
219 
213 
211 
216 
222 
207 
220 
216 
212 
214 
214 
216 
211 
215 
216 
212 
217 
219 
216 
217 
215 
213 
215 
216 
217 
215 
214 
213 
214 
217 
220 
216 
213 
216 
217 
219 
227 
211 
213 
224 
213 
211 
223 
216 
211 
209 
222 
221 
222 
219 
209 
215 
221 
199 
205 
210 
212 
212 
212 
213 
214 
215 
215 
215 
217 
218 
217 
216 
215 
216 
216 
216 
217 
217 
217 
218 
218 
217 
217 
217 
217 
215 
215 
215 
215 
215 
214 
214 
214 
215 
215 
215 
215 
215 
215 
215 
215 
214 
213 
213 
212 
212 
212 
213 
213 
212 
212 
212 
213 
214 
215 
215 
215 
216 
217 
213 
212 
216 
213 
209 
211 
202 
220 
213 
210 
214 
212 
215 
211 
228 
218 
211 
217 
218 
218 
221 
213 
215 
216 
217 
217 
216 
215 
215 
215 
218 
221 
221 
219 
218 
216 
215 
217 
215 
215 
227 
212 
208 
221 
208 
201 
196 
204 
205 
203 
207 
205 
202 
207 
187 
192 
199 
202 
201 
199 
202 
207 
209 
210 
214 
219 
223 
222 
219 
217 
216 
216 
216 
217 
217 
217 
218 
218 
217 
217 
217 
217 
215 
215 
215 
215 
215 
214 
214 
214 
215 
215 
215 
215 
215 
215 
215 
215 
213 
212 
211 
210 
211 
212 
213 
214 
213 
213 
213 
213 
212 
212 
212 
212 
221 
219 
205 
203 
214 
209 
196 
197 
198 
213 
203 
205 
211 
205 
210 
212 
223 
214 
216 
223 
215 
214 
224 
218 
218 
217 
215 
215 
215 
216 
216 
216 
216 
214 
216 
218 
216 
214 
211 
206 
215 
207 
215 
198 
189 
195 
176 
170 
170 
170 
171 
167 
185 
197 
183 
185 
183 
183 
186 
190 
189 
187 
192 
200 
202 
203 
207 
215 
220 
221 
219 
218 
217 
217 
217 
217 
217 
217 
217 
217 
217 
217 
217 
217 
215 
215 
215 
215 
215 
215 
215 
215 
215 
215 
215 
215 
215 
215 
215 
215 
216 
215 
214 
213 
213 
215 
216 
218 
213 
212 
211 
209 
207 
206 
204 
204 
208 
217 
207 
200 
206 
196 
188 
201 
192 
203 
191 
199 
206 
195 
202 
211 
191 
191 
206 
217 
200 
198 
217 
216 
218 
214 
211 
209 
210 
212 
214 
214 
215 
205 
203 
205 
206 
212 
216 
211 
206 
190 
193 
175 
162 
160 
137 
134 
143 
144 
151 
143 
164 
185 
170 
177 
180 
175 
176 
181 
183 
182 
189 
200 
197 
196 
198 
205 
211 
213 
215 
216 
218 
218 
218 
217 
217 
216 
216 
216 
217 
217 
217 
217 
217 
216 
215 
215 
215 
216 
216 
215 
212 
217 
218 
214 
212 
215 
217 
216 
215 
219 
220 
218 
217 
210 
211 
215 
213 
205 
200 
216 
208 
203 
202 
201 
200 
200 
203 
203 
191 
179 
183 
193 
187 
185 
180 
197 
204 
183 
199 
189 
180 
166 
179 
196 
193 
184 
185 
187 
202 
199 
201 
202 
205 
203 
197 
217 
200 
177 
194 
202 
186 
189 
183 
163 
152 
135 
156 
164 
138 
141 
141 
145 
152 
145 
148 
140 
148 
182 
168 
162 
174 
173 
168 
184 
184 
174 
171 
188 
185 
185 
187 
191 
208 
211 
221 
218 
216 
222 
214 
213 
218 
217 
214 
215 
216 
216 
216 
216 
214 
214 
214 
214 
215 
215 
215 
214 
215 
215 
214 
214 
215 
216 
215 
212 
213 
217 
217 
216 
213 
209 
205 
196 
192 
206 
203 
206 
213 
205 
194 
208 
190 
198 
202 
191 
176 
167 
172 
192 
191 
184 
169 
188 
199 
182 
195 
180 
190 
176 
164 
181 
192 
173 
159 
155 
169 
187 
190 
190 
191 
189 
187 
212 
186 
140 
182 
198 
162 
147 
122 
93 
101 
90 
116 
149 
145 
149 
152 
161 
154 
140 
140 
120 
128 
168 
136 
136 
163 
160 
152 
173 
172 
153 
156 
187 
184 
174 
181 
189 
203 
222 
229 
214 
214 
220 
215 
219 
218 
218 
214 
219 
217 
217 
217 
217 
215 
215 
215 
216 
216 
216 
215 
215 
216 
214 
213 
215 
216 
216 
213 
210 
206 
213 
212 
209 
200 
198 
191 
169 
176 
193 
202 
191 
192 
197 
199 
198 
197 
196 
196 
187 
179 
165 
157 
181 
187 
186 
172 
186 
187 
171 
191 
185 
190 
185 
174 
184 
179 
161 
156 
151 
168 
188 
179 
177 
183 
180 
178 
194 
165 
124 
183 
179 
112 
107 
98 
88 
112 
112 
117 
140 
145 
151 
152 
148 
128 
118 
147 
128 
126 
159 
108 
137 
154 
136 
121 
156 
166 
144 
140 
162 
167 
163 
168 
169 
175 
195 
204 
218 
218 
218 
216 
219 
217 
218 
216 
219 
217 
217 
217 
217 
217 
216 
216 
215 
216 
216 
215 
214 
212 
216 
217 
215 
215 
215 
214 
211 
211 
209 
197 
199 
195 
201 
189 
151 
173 
192 
194 
174 
172 
181 
198 
182 
196 
195 
194 
183 
182 
171 
152 
165 
183 
187 
179 
189 
182 
167 
192 
197 
176 
173 
188 
187 
149 
146 
161 
161 
180 
188 
182 
179 
183 
162 
164 
168 
149 
132 
172 
151 
69 
72 
92 
128 
177 
173 
149 
159 
159 
150 
139 
126 
112 
101 
168 
157 
145 
163 
86 
141 
151 
113 
91 
128 
146 
145 
148 
155 
153 
157 
148 
139 
144 
151 
155 
216 
217 
213 
222 
215 
216 
216 
220 
216 
217 
217 
217 
217 
214 
214 
213 
212 
213 
214 
214 
214 
210 
216 
216 
212 
213 
219 
216 
209 
179 
197 
197 
198 
175 
177 
186 
173 
174 
202 
186 
175 
183 
170 
186 
185 
185 
194 
196 
180 
173 
172 
161 
163 
191 
182 
173 
184 
180 
172 
182 
187 
181 
165 
187 
175 
126 
127 
130 
146 
156 
160 
183 
189 
186 
145 
164 
176 
167 
166 
173 
167 
101 
79 
94 
158 
185 
170 
138 
161 
163 
130 
111 
108 
126 
147 
149 
177 
165 
136 
115 
112 
135 
106 
98 
118 
114 
115 
113 
105 
128 
129 
116 
105 
109 
111 
108 
162 
187 
194 
229 
217 
221 
215 
225 
214 
216 
216 
216 
216 
213 
212 
212 
213 
214 
216 
216 
216 
211 
213 
212 
209 
213 
217 
211 
200 
171 
178 
168 
186 
180 
186 
192 
181 
175 
182 
176 
193 
191 
166 
180 
182 
198 
188 
188 
190 
177 
166 
172 
178 
196 
173 
168 
176 
169 
161 
151 
160 
186 
169 
178 
160 
132 
140 
125 
163 
142 
135 
165 
178 
176 
128 
149 
176 
155 
171 
169 
175 
138 
98 
102 
149 
177 
159 
126 
145 
150 
123 
106 
107 
126 
132 
128 
132 
123 
121 
118 
97 
117 
91 
83 
79 
70 
92 
103 
114 
113 
113 
117 
108 
96 
100 
99 
111 
138 
159 
224 
223 
223 
215 
226 
216 
216 
216 
216 
216 
214 
214 
215 
216 
218 
218 
217 
216 
213 
213 
213 
213 
209 
201 
194 
190 
175 
179 
165 
195 
194 
192 
196 
195 
203 
178 
183 
208 
196 
187 
185 
171 
191 
172 
177 
199 
176 
156 
178 
183 
188 
161 
169 
175 
162 
153 
132 
152 
177 
165 
158 
137 
137 
179 
172 
198 
162 
143 
152 
167 
169 
117 
108 
142 
145 
148 
159 
165 
153 
109 
117 
131 
156 
140 
104 
107 
110 
100 
91 
94 
110 
113 
107 
103 
97 
115 
144 
111 
102 
87 
86 
73 
72 
90 
83 
115 
103 
106 
118 
106 
86 
82 
89 
83 
100 
122 
196 
218 
216 
215 
222 
217 
216 
216 
216 
216 
214 
215 
216 
218 
218 
217 
214 
212 
213 
214 
219 
219 
203 
183 
177 
183 
182 
180 
161 
197 
200 
191 
188 
188 
203 
173 
164 
169 
172 
179 
145 
126 
146 
154 
176 
192 
155 
145 
183 
175 
179 
148 
167 
178 
169 
166 
138 
164 
188 
168 
141 
111 
118 
193 
197 
181 
172 
159 
160 
182 
189 
137 
100 
140 
162 
123 
142 
155 
159 
104 
115 
109 
132 
108 
76 
83 
86 
77 
73 
89 
94 
89 
84 
87 
85 
104 
147 
104 
77 
77 
86 
72 
77 
83 
62 
116 
111 
113 
110 
97 
88 
74 
80 
79 
87 
99 
166 
206 
205 
215 
217 
216 
217 
217 
217 
217 
214 
216 
217 
217 
220 
213 
217 
209 
215 
209 
215 
216 
195 
174 
165 
183 
167 
187 
161 
179 
199 
188 
180 
177 
196 
182 
159 
115 
145 
180 
120 
86 
87 
126 
160 
158 
145 
157 
172 
168 
164 
152 
166 
167 
168 
174 
165 
171 
185 
168 
156 
105 
106 
176 
177 
172 
167 
178 
170 
185 
190 
146 
108 
130 
157 
100 
126 
140 
124 
120 
93 
78 
92 
84 
71 
67 
74 
79 
81 
83 
82 
66 
65 
73 
67 
76 
90 
73 
59 
76 
77 
54 
60 
68 
64 
94 
104 
104 
88 
74 
74 
72 
72 
83 
87 
97 
121 
164 
186 
215 
212 
217 
218 
218 
217 
216 
215 
216 
218 
216 
217 
211 
215 
202 
211 
198 
196 
205 
189 
174 
192 
180 
174 
181 
170 
176 
185 
197 
187 
163 
182 
180 
139 
94 
137 
166 
112 
93 
84 
121 
146 
132 
118 
140 
160 
153 
145 
137 
146 
145 
152 
174 
174 
165 
168 
160 
172 
131 
121 
173 
162 
169 
148 
178 
178 
177 
167 
148 
128 
126 
154 
108 
140 
148 
128 
127 
95 
74 
84 
83 
73 
64 
69 
76 
74 
69 
65 
56 
57 
68 
62 
55 
67 
73 
60 
76 
65 
61 
75 
70 
64 
76 
88 
86 
68 
53 
63 
77 
76 
69 
81 
79 
89 
134 
161 
218 
221 
215 
217 
217 
217 
217 
215 
214 
219 
216 
213 
209 
212 
191 
208 
190 
183 
203 
185 
165 
206 
172 
150 
181 
185 
161 
159 
184 
167 
146 
174 
167 
112 
74 
90 
107 
102 
92 
97 
108 
122 
116 
98 
99 
117 
127 
118 
106 
121 
124 
129 
169 
183 
159 
160 
155 
167 
122 
122 
180 
150 
134 
119 
171 
184 
181 
160 
163 
165 
144 
129 
165 
165 
164 
159 
140 
120 
83 
80 
83 
73 
61 
65 
73 
69 
61 
69 
61 
54 
67 
75 
67 
67 
71 
67 
80 
53 
58 
72 
56 
58 
59 
67 
66 
58 
48 
51 
65 
70 
63 
68 
75 
83 
115 
124 
194 
216 
220 
217 
217 
218 
218 
216 
213 
218 
215 
212 
210 
210 
180 
193 
191 
189 
205 
185 
174 
205 
153 
127 
182 
176 
136 
131 
134 
120 
151 
177 
166 
90 
94 
86 
48 
79 
72 
94 
86 
96 
104 
82 
61 
73 
96 
77 
77 
95 
95 
126 
176 
178 
171 
156 
139 
123 
90 
111 
174 
149 
119 
127 
173 
179 
186 
167 
167 
160 
126 
90 
165 
159 
159 
155 
120 
109 
77 
81 
78 
66 
59 
64 
69 
66 
63 
70 
66 
56 
63 
78 
83 
76 
60 
101 
114 
84 
80 
82 
63 
67 
68 
55 
49 
49 
53 
45 
46 
54 
58 
58 
75 
84 
104 
117 
179 
205 
222 
219 
219 
218 
218 
216 
212 
216 
214 
213 
212 
209 
175 
171 
183 
187 
182 
171 
179 
187 
141 
121 
149 
123 
101 
105 
90 
92 
162 
184 
181 
130 
61 
68 
93 
76 
80 
85 
85 
95 
95 
76 
67 
78 
89 
73 
88 
96 
77 
133 
189 
160 
162 
140 
107 
75 
78 
101 
129 
129 
130 
139 
171 
158 
170 
164 
156 
127 
86 
84 
105 
134 
143 
120 
91 
75 
69 
81 
69 
58 
61 
67 
64 
60 
64 
62 
64 
64 
66 
68 
77 
78 
58 
78 
96 
87 
85 
94 
92 
96 
101 
72 
50 
48 
59 
54 
49 
54 
56 
58 
66 
69 
93 
144 
194 
204 
216 
220 
220 
219 
218 
215 
212 
215 
213 
215 
214 
210 
180 
170 
159 
164 
142 
132 
130 
143 
155 
138 
127 
97 
85 
87 
87 
91 
129 
132 
141 
96 
60 
71 
89 
97 
88 
85 
82 
82 
72 
57 
61 
77 
84 
55 
52 
73 
63 
108 
187 
174 
144 
144 
118 
87 
109 
116 
106 
108 
122 
121 
161 
150 
155 
142 
135 
106 
79 
87 
88 
101 
109 
97 
76 
64 
65 
74 
65 
60 
67 
72 
63 
57 
63 
62 
61 
64 
70 
65 
66 
72 
62 
79 
89 
87 
83 
96 
106 
106 
111 
92 
73 
67 
69 
60 
56 
59 
56 
60 
67 
69 
96 
159 
194 
196 
214 
220 
219 
218 
218 
214 
214 
215 
212 
216 
213 
212 
191 
190 
143 
147 
114 
110 
83 
109 
156 
154 
124 
112 
93 
77 
89 
79 
85 
102 
107 
81 
51 
62 
111 
144 
136 
116 
95 
78 
68 
60 
70 
94 
108 
83 
56 
75 
75 
83 
149 
164 
115 
133 
130 
118 
135 
135 
115 
97 
93 
107 
153 
157 
150 
111 
101 
82 
76 
71 
85 
67 
66 
74 
63 
61 
59 
61 
65 
66 
67 
69 
64 
60 
60 
62 
60 
57 
63 
64 
58 
60 
61 
72 
73 
67 
66 
82 
95 
100 
108 
91 
85 
84 
77 
59 
52 
57 
59 
61 
70 
74 
99 
143 
174 
183 
211 
217 
217 
218 
219 
212 
216 
215 
211 
215 
212 
214 
201 
205 
145 
150 
106 
121 
89 
109 
133 
129 
92 
102 
89 
64 
71 
59 
85 
94 
96 
70 
46 
83 
135 
153 
166 
137 
107 
82 
69 
70 
92 
123 
139 
100 
78 
69 
67 
66 
93 
111 
86 
121 
136 
148 
167 
168 
150 
119 
109 
101 
138 
149 
143 
90 
78 
61 
62 
73 
62 
62 
56 
58 
66 
62 
67 
51 
64 
69 
62 
60 
64 
62 
58 
58 
69 
61 
59 
64 
56 
55 
65 
67 
67 
56 
58 
69 
73 
82 
89 
90 
88 
92 
88 
71 
59 
63 
70 
62 
61 
58 
88 
126 
168 
179 
202 
214 
215 
218 
220 
215 
215 
214 
213 
213 
212 
208 
204 
209 
143 
125 
97 
120 
110 
146 
144 
129 
75 
70 
81 
59 
80 
80 
104 
107 
96 
60 
89 
130 
145 
134 
116 
101 
91 
94 
98 
99 
121 
152 
165 
133 
83 
68 
79 
78 
78 
69 
90 
124 
148 
169 
181 
183 
179 
163 
135 
119 
136 
149 
136 
85 
70 
54 
64 
70 
68 
59 
54 
59 
59 
56 
58 
52 
67 
70 
64 
68 
67 
58 
57 
59 
61 
62 
62 
61 
59 
59 
59 
60 
58 
58 
62 
71 
81 
84 
77 
79 
84 
99 
101 
79 
65 
65 
61 
54 
62 
73 
85 
130 
167 
176 
204 
212 
217 
218 
219 
213 
214 
214 
214 
214 
215 
213 
210 
206 
131 
95 
89 
117 
115 
163 
167 
152 
95 
94 
112 
98 
82 
98 
113 
145 
143 
111 
126 
141 
127 
104 
90 
86 
101 
133 
148 
143 
151 
156 
143 
141 
113 
89 
79 
74 
103 
119 
120 
148 
161 
175 
187 
185 
181 
183 
175 
141 
147 
150 
138 
94 
82 
60 
57 
58 
59 
57 
55 
57 
57 
57 
60 
56 
67 
71 
69 
71 
68 
61 
60 
59 
60 
61 
60 
60 
59 
60 
61 
57 
58 
65 
67 
68 
71 
72 
76 
73 
77 
91 
91 
75 
62 
52 
49 
53 
75 
101 
108 
137 
174 
186 
204 
213 
219 
220 
218 
214 
214 
213 
213 
213 
214 
212 
209 
203 
117 
62 
79 
100 
100 
138 
145 
121 
117 
114 
142 
120 
71 
80 
113 
166 
180 
160 
160 
151 
127 
114 
106 
85 
92 
141 
182 
179 
156 
134 
112 
131 
138 
119 
82 
66 
131 
172 
143 
146 
158 
177 
192 
181 
168 
182 
197 
167 
163 
158 
145 
108 
101 
85 
76 
79 
80 
77 
66 
55 
57 
64 
66 
76 
68 
64 
67 
68 
65 
60 
56 
59 
59 
59 
59 
58 
59 
60 
61 
58 
55 
64 
68 
74 
77 
71 
80 
73 
78 
90 
79 
63 
56 
52 
57 
62 
88 
117 
118 
130 
161 
182 
205 
214 
222 
221 
216 
215 
215 
214 
212 
212 
213 
211 
208 
195 
110 
58 
82 
83 
77 
85 
86 
84 
97 
122 
160 
143 
90 
95 
100 
143 
167 
176 
178 
157 
148 
142 
100 
75 
71 
118 
171 
166 
140 
129 
123 
132 
147 
152 
130 
115 
176 
201 
155 
150 
157 
174 
193 
182 
163 
175 
193 
170 
165 
161 
152 
122 
123 
124 
120 
124 
124 
112 
83 
62 
72 
88 
88 
100 
69 
53 
56 
59 
64 
68 
65 
59 
59 
59 
58 
57 
58 
58 
59 
57 
55 
63 
65 
75 
82 
75 
86 
79 
79 
84 
70 
61 
63 
60 
74 
82 
100 
114 
111 
120 
141 
167 
203 
213 
222 
222 
216 
214 
215 
214 
213 
214 
216 
214 
212 
194 
105 
60 
76 
69 
74 
60 
55 
65 
71 
96 
119 
178 
121 
103 
95 
120 
185 
168 
144 
170 
158 
119 
87 
63 
74 
108 
125 
112 
114 
133 
140 
168 
148 
159 
159 
151 
193 
198 
168 
174 
166 
168 
183 
179 
166 
171 
178 
166 
167 
168 
168 
152 
154 
161 
161 
148 
152 
139 
105 
88 
110 
132 
129 
92 
70 
72 
87 
86 
77 
70 
58 
58 
58 
58 
58 
57 
57 
57 
56 
54 
57 
66 
62 
62 
71 
73 
83 
78 
69 
67 
64 
71 
77 
69 
72 
99 
114 
112 
104 
122 
142 
165 
202 
212 
221 
221 
216 
215 
215 
214 
213 
213 
214 
212 
209 
211 
107 
54 
53 
55 
79 
65 
53 
61 
46 
65 
90 
136 
97 
86 
78 
109 
160 
163 
139 
130 
120 
107 
67 
61 
72 
86 
81 
69 
82 
109 
120 
182 
162 
170 
161 
148 
186 
188 
174 
182 
174 
171 
179 
171 
155 
158 
162 
164 
165 
165 
174 
171 
164 
163 
160 
152 
160 
150 
125 
121 
148 
165 
160 
121 
102 
97 
95 
80 
70 
73 
73 
57 
57 
56 
56 
57 
57 
56 
56 
54 
55 
59 
60 
59 
67 
74 
70 
72 
63 
58 
66 
74 
77 
79 
79 
106 
121 
110 
99 
123 
156 
183 
208 
213 
219 
219 
217 
215 
215 
214 
213 
212 
211 
208 
205 
218 
137 
98 
84 
66 
70 
68 
54 
51 
62 
50 
64 
81 
63 
51 
77 
86 
137 
173 
170 
135 
95 
95 
76 
58 
54 
55 
61 
61 
63 
77 
93 
147 
159 
174 
168 
161 
193 
195 
178 
176 
170 
170 
178 
166 
143 
139 
139 
173 
170 
163 
175 
181 
167 
161 
160 
151 
153 
139 
123 
128 
147 
154 
150 
128 
116 
109 
97 
76 
65 
67 
69 
58 
57 
55 
55 
55 
56 
55 
55 
57 
54 
54 
67 
66 
68 
76 
57 
71 
64 
58 
73 
74 
74 
94 
98 
105 
113 
112 
112 
131 
169 
204 
218 
217 
218 
216 
217 
213 
214 
214 
213 
214 
214 
212 
208 
204 
177 
180 
161 
99 
58 
64 
57 
50 
64 
46 
47 
59 
55 
62 
70 
73 
109 
153 
168 
126 
67 
72 
71 
64 
59 
59 
67 
66 
54 
57 
74 
112 
121 
126 
144 
160 
187 
197 
187 
171 
154 
147 
161 
158 
135 
120 
109 
156 
152 
139 
150 
162 
148 
147 
154 
148 
140 
119 
104 
112 
123 
123 
122 
111 
104 
98 
89 
74 
68 
68 
66 
61 
59 
55 
54 
54 
54 
54 
54 
57 
55 
58 
79 
69 
59 
72 
51 
74 
64 
56 
79 
83 
80 
106 
105 
100 
101 
119 
139 
149 
180 
217 
223 
219 
217 
214 
217 
215 
215 
215 
214 
212 
212 
213 
213 
205 
193 
220 
204 
135 
83 
59 
59 
51 
42 
55 
43 
96 
78 
62 
85 
73 
92 
125 
135 
97 
51 
59 
62 
72 
77 
73 
65 
63 
62 
67 
79 
90 
85 
111 
123 
115 
132 
164 
184 
156 
118 
118 
139 
140 
120 
103 
113 
149 
160 
126 
121 
135 
128 
131 
127 
118 
102 
91 
79 
87 
92 
82 
98 
83 
84 
85 
83 
75 
65 
61 
63 
56 
57 
55 
57 
54 
53 
57 
55 
53 
56 
58 
68 
63 
66 
74 
96 
118 
111 
105 
118 
119 
113 
126 
131 
112 
109 
128 
154 
168 
189 
215 
226 
220 
217 
216 
218 
214 
214 
213 
212 
212 
213 
215 
216 
217 
208 
207 
198 
178 
135 
97 
114 
87 
69 
90 
91 
157 
111 
68 
66 
62 
91 
86 
74 
61 
56 
76 
70 
76 
72 
65 
63 
67 
69 
68 
70 
78 
97 
117 
105 
81 
93 
135 
169 
139 
104 
105 
122 
118 
106 
103 
109 
152 
172 
165 
149 
146 
131 
111 
106 
95 
84 
85 
69 
61 
69 
69 
78 
71 
70 
67 
62 
59 
56 
52 
50 
50 
53 
55 
56 
53 
54 
58 
53 
52 
53 
57 
58 
69 
89 
97 
143 
162 
156 
149 
154 
153 
145 
147 
152 
135 
139 
149 
154 
166 
201 
225 
221 
220 
217 
216 
218 
214 
213 
213 
212 
212 
213 
216 
218 
211 
215 
209 
202 
209 
186 
158 
183 
157 
143 
151 
151 
204 
148 
75 
59 
58 
69 
66 
49 
63 
72 
61 
79 
56 
56 
58 
62 
64 
61 
60 
60 
78 
97 
107 
99 
75 
66 
99 
138 
120 
99 
99 
113 
104 
99 
110 
109 
118 
158 
182 
150 
130 
126 
110 
118 
100 
86 
89 
78 
70 
80 
78 
71 
63 
59 
56 
56 
56 
56 
55 
55 
52 
57 
54 
53 
56 
66 
77 
70 
51 
71 
86 
66 
90 
128 
117 
153 
162 
160 
159 
156 
154 
147 
143 
157 
154 
152 
164 
181 
193 
210 
221 
220 
220 
217 
216 
218 
215 
215 
214 
213 
212 
213 
214 
215 
202 
213 
220 
212 
211 
212 
206 
211 
192 
216 
201 
195 
228 
186 
98 
100 
90 
107 
92 
70 
107 
98 
62 
62 
71 
67 
64 
61 
56 
54 
58 
63 
67 
81 
90 
90 
68 
49 
69 
100 
95 
93 
90 
98 
93 
88 
98 
92 
69 
97 
116 
96 
102 
123 
103 
89 
69 
72 
83 
74 
61 
64 
65 
66 
65 
59 
58 
60 
56 
53 
55 
62 
52 
53 
52 
56 
64 
75 
85 
78 
56 
95 
128 
104 
117 
151 
143 
167 
160 
164 
173 
172 
169 
156 
149 
174 
167 
161 
180 
213 
223 
216 
214 
219 
219 
217 
217 
217 
215 
215 
215 
214 
213 
213 
213 
213 
211 
213 
219 
214 
210 
219 
218 
208 
214 
202 
207 
211 
200 
204 
192 
187 
140 
142 
80 
94 
141 
71 
64 
60 
64 
62 
58 
56 
57 
56 
54 
54 
72 
68 
61 
61 
65 
67 
64 
55 
70 
83 
78 
79 
81 
76 
77 
73 
71 
66 
53 
48 
60 
86 
84 
69 
65 
62 
59 
59 
68 
69 
57 
56 
57 
56 
56 
56 
56 
56 
61 
67 
80 
70 
57 
55 
57 
69 
93 
102 
111 
111 
124 
126 
144 
161 
151 
146 
161 
160 
171 
177 
178 
162 
152 
177 
182 
186 
201 
219 
225 
221 
218 
216 
218 
218 
217 
217 
213 
214 
215 
215 
214 
214 
214 
214 
217 
217 
214 
213 
217 
215 
212 
216 
217 
213 
220 
216 
220 
203 
195 
200 
175 
188 
127 
108 
130 
71 
73 
69 
54 
64 
64 
61 
64 
61 
56 
60 
54 
64 
73 
70 
68 
63 
54 
60 
56 
69 
68 
66 
69 
69 
70 
69 
57 
61 
64 
71 
62 
51 
56 
53 
57 
67 
66 
62 
62 
55 
51 
62 
60 
63 
58 
51 
54 
67 
69 
61 
73 
75 
77 
81 
74 
70 
82 
88 
101 
112 
141 
157 
161 
167 
178 
166 
170 
158 
157 
168 
177 
172 
172 
193 
194 
202 
212 
219 
222 
220 
218 
218 
217 
218 
218 
216 
213 
214 
214 
214 
214 
214 
214 
215 
214 
218 
213 
214 
218 
212 
212 
223 
215 
208 
216 
213 
219 
208 
207 
208 
208 
201 
181 
157 
141 
85 
50 
74 
59 
79 
73 
58 
59 
57 
55 
66 
55 
64 
70 
73 
100 
94 
53 
63 
60 
61 
69 
65 
56 
61 
66 
64 
58 
56 
60 
66 
55 
48 
53 
47 
48 
56 
59 
60 
59 
57 
56 
55 
54 
58 
59 
61 
75 
96 
106 
105 
111 
115 
118 
124 
121 
120 
129 
130 
134 
146 
173 
182 
182 
183 
190 
168 
180 
169 
161 
172 
182 
186 
199 
210 
205 
208 
214 
223 
225 
217 
214 
220 
217 
218 
218 
216 
215 
215 
214 
214 
213 
213 
214 
215 
216 
216 
214 
216 
214 
216 
219 
213 
213 
213 
214 
214 
208 
215 
212 
202 
213 
213 
206 
203 
179 
132 
77 
83 
57 
84 
85 
80 
94 
90 
72 
72 
69 
81 
74 
69 
130 
141 
75 
71 
83 
70 
87 
79 
53 
58 
64 
57 
56 
53 
54 
48 
45 
57 
61 
43 
56 
76 
97 
101 
90 
93 
105 
99 
98 
93 
94 
101 
107 
112 
124 
136 
152 
153 
154 
163 
172 
182 
189 
181 
175 
170 
184 
183 
177 
170 
180 
180 
191 
192 
189 
198 
200 
199 
212 
212 
217 
220 
220 
222 
224 
219 
215 
219 
216 
218 
218 
216 
214 
214 
214 
214 
214 
214 
214 
214 
215 
215 
215 
215 
215 
215 
215 
214 
212 
211 
210 
211 
213 
215 
215 
214 
217 
204 
207 
213 
209 
208 
181 
131 
120 
134 
130 
105 
133 
124 
70 
98 
107 
119 
86 
68 
149 
168 
94 
96 
119 
120 
106 
99 
79 
94 
86 
70 
85 
79 
68 
65 
69 
69 
72 
83 
113 
149 
176 
179 
168 
153 
162 
190 
180 
161 
150 
153 
149 
136 
132 
139 
158 
169 
178 
185 
177 
175 
188 
183 
176 
171 
174 
173 
167 
162 
171 
195 
210 
211 
211 
219 
221 
217 
221 
222 
220 
220 
221 
221 
221 
220 
219 
219 
218 
217 
217 
217 
214 
214 
214 
214 
214 
214 
214 
214 
215 
215 
215 
215 
215 
215 
215 
215 
214 
214 
213 
213 
214 
214 
214 
213 
219 
213 
216 
216 
210 
217 
215 
195 
190 
194 
177 
166 
179 
151 
116 
143 
165 
154 
84 
46 
136 
189 
130 
97 
131 
110 
101 
90 
73 
99 
90 
89 
110 
129 
100 
57 
56 
78 
108 
145 
171 
188 
192 
190 
197 
202 
208 
221 
205 
194 
191 
199 
198 
184 
175 
175 
184 
175 
165 
167 
164 
165 
176 
172 
168 
171 
171 
168 
169 
164 
169 
197 
216 
216 
214 
220 
222 
218 
223 
224 
220 
220 
220 
219 
219 
219 
219 
220 
217 
217 
217 
217 
214 
214 
214 
214 
214 
214 
214 
214 
215 
215 
215 
215 
215 
215 
215 
215 
215 
216 
216 
215 
214 
214 
214 
215 
220 
221 
223 
216 
205 
204 
209 
207 
202 
207 
194 
206 
217 
196 
194 
212 
196 
179 
105 
66 
144 
206 
166 
112 
125 
96 
106 
98 
84 
112 
98 
109 
140 
153 
134 
80 
57 
98 
160 
195 
202 
200 
183 
175 
193 
210 
211 
208 
203 
199 
201 
211 
217 
214 
210 
210 
204 
187 
174 
180 
181 
176 
178 
174 
181 
184 
176 
174 
192 
194 
188 
207 
217 
216 
212 
217 
217 
214 
219 
219 
221 
220 
218 
217 
217 
218 
219 
221 
218 
218 
217 
217 
214 
214 
214 
214 
214 
214 
214 
214 
215 
215 
215 
215 
215 
215 
215 
215 
214 
215 
216 
215 
214 
214 
216 
217 
202 
207 
211 
214 
215 
214 
215 
219 
214 
221 
212 
218 
216 
204 
210 
206 
209 
200 
153 
128 
165 
203 
194 
168 
172 
153 
176 
172 
154 
174 
164 
175 
160 
172 
189 
178 
154 
168 
195 
198 
221 
217 
201 
191 
202 
215 
213 
207 
210 
208 
208 
210 
213 
214 
215 
216 
204 
193 
193 
204 
203 
189 
183 
184 
195 
192 
185 
186 
206 
215 
207 
213 
220 
220 
216 
219 
219 
216 
220 
220 
220 
219 
218 
217 
217 
218 
219 
220 
219 
218 
218 
218 
214 
214 
214 
214 
214 
214 
214 
214 
214 
214 
215 
215 
215 
215 
215 
215 
213 
214 
215 
215 
214 
215 
216 
218 
217 
216 
213 
214 
218 
215 
213 
216 
213 
215 
217 
217 
213 
215 
220 
210 
206 
212 
207 
207 
209 
207 
206 
198 
213 
205 
216 
211 
194 
206 
207 
210 
209 
212 
211 
209 
209 
209 
212 
220 
217 
218 
213 
210 
213 
215 
214 
213 
217 
220 
222 
220 
218 
217 
216 
215 
210 
204 
208 
216 
214 
201 
194 
202 
204 
199 
204 
205 
207 
216 
218 
218 
219 
221 
217 
220 
220 
217 
220 
219 
219 
218 
218 
217 
217 
218 
219 
219 
220 
219 
219 
219 
214 
214 
214 
214 
214 
214 
214 
214 
214 
214 
214 
214 
214 
215 
215 
215 
215 
215 
215 
215 
214 
214 
215 
216 
214 
213 
211 
211 
215 
214 
214 
218 
219 
212 
217 
218 
215 
219 
220 
217 
221 
220 
217 
218 
216 
213 
217 
218 
221 
220 
216 
212 
207 
213 
218 
212 
217 
213 
213 
214 
214 
216 
216 
211 
214 
214 
216 
219 
218 
215 
215 
217 
212 
217 
220 
220 
218 
219 
220 
220 
218 
214 
217 
221 
224 
218 
210 
219 
220 
211 
218 
219 
213 
221 
224 
219 
215 
218 
215 
218 
218 
215 
218 
216 
218 
218 
218 
218 
218 
218 
218 
218 
220 
220 
219 
219 
214 
214 
214 
214 
214 
214 
214 
214 
214 
214 
214 
214 
214 
215 
215 
215 
217 
216 
215 
215 
215 
215 
215 
215 
215 
215 
215 
216 
215 
214 
214 
215 
219 
215 
214 
218 
216 
214 
215 
215 
212 
213 
215 
215 
219 
220 
215 
211 
215 
218 
215 
214 
218 
219 
220 
214 
217 
210 
219 
222 
213 
220 
226 
211 
215 
212 
214 
217 
215 
213 
214 
215 
219 
220 
220 
218 
217 
217 
218 
217 
213 
213 
216 
215 
222 
222 
214 
221 
224 
214 
217 
217 
217 
221 
218 
215 
218 
221 
218 
221 
221 
218 
221 
219 
218 
218 
218 
218 
218 
219 
219 
219 
219 
219 
219 
219 
214 
214 
214 
214 
214 
214 
214 
214 
214 
214 
214 
214 
214 
215 
215 
215 
217 
216 
214 
215 
216 
217 
216 
215 
216 
213 
213 
213 
213 
216 
218 
216 
211 
219 
214 
218 
218 
214 
218 
212 
212 
214 
216 
211 
214 
217 
212 
216 
209 
214 
215 
211 
216 
214 
211 
216 
213 
218 
215 
211 
215 
215 
214 
218 
217 
215 
216 
217 
214 
216 
219 
218 
217 
217 
218 
221 
222 
221 
218 
215 
214 
216 
217 
208 
212 
217 
211 
221 
216 
217 
220 
216 
216 
215 
211 
222 
217 
219 
216 
218 
217 
216 
219 
216 
219 
218 
218 
218 
218 
218 
219 
220 
219 
219 
218 
218 
214 
214 
214 
214 
214 
214 
214 
214 
214 
214 
214 
214 
214 
214 
215 
215 
215 
215 
215 
215 
215 
215 
215 
216 
215 
214 
214 
214 
214 
215 
215 
216 
216 
216 
216 
216 
216 
216 
215 
215 
215 
216 
216 
217 
218 
218 
218 
218 
213 
215 
216 
218 
219 
218 
216 
214 
213 
213 
214 
215 
215 
215 
215 
215 
216 
216 
216 
216 
215 
216 
216 
217 
218 
216 
217 
218 
217 
219 
220 
215 
219 
218 
215 
214 
216 
220 
220 
218 
220 
220 
221 
222 
222 
221 
219 
219 
218 
218 
218 
218 
218 
218 
218 
218 
218 
218 
218 
218 
218 
218 
218 
218 
218 
218 
218 
217 
214 
214 
214 
214 
214 
214 
214 
214 
214 
214 
214 
214 
214 
214 
215 
215 
215 
215 
215 
215 
215 
215 
215 
216 
215 
214 
214 
214 
214 
215 
215 
216 
216 
216 
216 
216 
216 
216 
215 
215 
215 
215 
215 
216 
216 
216 
216 
216 
214 
214 
215 
216 
216 
216 
215 
215 
214 
214 
215 
216 
216 
216 
216 
216 
216 
216 
217 
216 
216 
216 
217 
217 
218 
216 
217 
218 
217 
220 
220 
215 
216 
216 
215 
215 
218 
220 
220 
217 
218 
219 
219 
220 
220 
219 
219 
218 
218 
218 
218 
218 
218 
218 
218 
218 
218 
218 
218 
218 
218 
218 
218 
218 
218 
218 
218 
217 
214 
214 
214 
214 
214 
214 
214 
214 
214 
214 
214 
214 
214 
214 
215 
215 
215 
215 
215 
215 
215 
215 
215 
216 
215 
214 
214 
214 
214 
215 
215 
216 
216 
216 
216 
216 
216 
216 
215 
215 
214 
214 
214 
214 
214 
214 
214 
214 
214 
213 
213 
212 
213 
213 
214 
215 
215 
215 
216 
217 
217 
217 
217 
217 
216 
217 
217 
217 
216 
216 
217 
218 
218 
216 
217 
218 
217 
220 
220 
215 
214 
214 
215 
216 
219 
221 
219 
216 
217 
217 
217 
217 
218 
218 
218 
218 
218 
218 
218 
218 
218 
218 
218 
218 
218 
218 
218 
218 
218 
218 
218 
218 
218 
218 
217 
217 
