P2
# Created by MsrVolt
160 61
255
214 
214 
214 
213 
213 
213 
213 
213 
214 
214 
214 
213 
213 
212 
211 
211 
212 
212 
212 
212 
212 
213 
213 
213 
212 
212 
212 
212 
212 
212 
212 
212 
213 
212 
211 
211 
212 
213 
214 
214 
217 
212 
218 
210 
218 
215 
212 
217 
214 
210 
211 
216 
215 
215 
214 
211 
213 
215 
216 
217 
216 
210 
209 
214 
212 
214 
213 
212 
213 
213 
213 
215 
216 
210 
213 
212 
218 
211 
213 
213 
216 
211 
220 
214 
210 
218 
215 
213 
215 
212 
210 
212 
213 
211 
211 
213 
213 
210 
213 
212 
208 
213 
219 
214 
210 
222 
213 
212 
215 
222 
212 
214 
216 
214 
215 
217 
214 
214 
216 
214 
216 
213 
216 
214 
219 
214 
220 
212 
217 
216 
210 
214 
215 
211 
217 
217 
213 
214 
215 
215 
214 
213 
214 
215 
216 
216 
215 
215 
215 
215 
215 
215 
214 
214 
214 
214 
214 
214 
214 
214 
215 
215 
214 
214 
214 
214 
214 
214 
214 
214 
214 
214 
213 
212 
211 
211 
212 
212 
212 
213 
213 
213 
213 
213 
213 
213 
213 
213 
213 
213 
213 
213 
212 
212 
213 
214 
216 
217 
216 
216 
210 
210 
214 
214 
217 
221 
210 
210 
215 
213 
213 
217 
212 
214 
214 
216 
210 
209 
212 
211 
207 
210 
216 
216 
206 
214 
213 
210 
214 
214 
211 
215 
213 
211 
213 
213 
216 
210 
208 
205 
202 
203 
218 
220 
216 
209 
211 
218 
213 
213 
213 
213 
214 
214 
215 
215 
215 
212 
217 
220 
213 
210 
214 
214 
212 
212 
208 
214 
212 
217 
204 
216 
214 
209 
211 
216 
215 
211 
212 
214 
215 
211 
213 
212 
217 
213 
216 
207 
219 
220 
214 
212 
212 
211 
214 
211 
215 
214 
213 
213 
213 
213 
213 
213 
215 
215 
215 
214 
214 
214 
214 
214 
214 
214 
214 
214 
214 
214 
214 
214 
216 
215 
215 
215 
215 
215 
215 
215 
214 
214 
214 
214 
213 
213 
212 
212 
212 
212 
212 
213 
213 
213 
214 
214 
214 
214 
214 
214 
214 
214 
214 
214 
213 
213 
214 
215 
216 
215 
212 
210 
211 
218 
219 
217 
207 
215 
210 
216 
217 
217 
212 
214 
205 
209 
208 
214 
214 
214 
218 
216 
209 
214 
219 
213 
207 
216 
214 
210 
214 
212 
208 
211 
209 
211 
210 
212 
210 
210 
203 
198 
205 
209 
209 
202 
211 
210 
215 
209 
211 
217 
219 
215 
210 
210 
215 
219 
211 
210 
215 
217 
214 
213 
214 
212 
218 
213 
212 
218 
211 
217 
207 
217 
222 
218 
217 
218 
215 
210 
212 
218 
216 
211 
212 
211 
217 
214 
213 
207 
217 
217 
217 
216 
214 
213 
212 
213 
216 
214 
212 
212 
214 
216 
216 
216 
214 
214 
214 
214 
213 
213 
213 
213 
214 
214 
214 
214 
214 
214 
214 
214 
216 
216 
216 
215 
215 
215 
215 
215 
214 
214 
214 
214 
214 
213 
213 
212 
212 
212 
213 
213 
214 
214 
214 
214 
214 
214 
214 
214 
214 
214 
214 
214 
213 
213 
213 
214 
214 
213 
211 
209 
215 
218 
218 
217 
207 
212 
214 
219 
217 
219 
212 
216 
209 
214 
209 
214 
219 
221 
220 
217 
214 
214 
214 
214 
211 
208 
209 
210 
207 
205 
206 
207 
207 
211 
207 
208 
203 
210 
203 
198 
216 
216 
200 
191 
208 
209 
217 
207 
212 
210 
209 
209 
210 
211 
214 
217 
211 
212 
212 
211 
215 
222 
222 
216 
217 
218 
216 
214 
211 
211 
215 
211 
207 
215 
217 
212 
211 
213 
216 
218 
215 
212 
213 
211 
215 
214 
210 
212 
212 
210 
218 
218 
216 
214 
211 
220 
216 
214 
213 
213 
214 
215 
215 
215 
214 
214 
214 
213 
213 
213 
213 
213 
214 
214 
214 
214 
214 
213 
213 
213 
215 
215 
215 
215 
215 
215 
215 
215 
214 
214 
214 
214 
214 
213 
213 
213 
213 
213 
213 
214 
214 
214 
214 
215 
214 
214 
214 
214 
214 
214 
213 
213 
213 
212 
212 
213 
215 
216 
217 
217 
214 
209 
214 
219 
224 
220 
221 
211 
207 
212 
209 
215 
218 
220 
211 
212 
213 
216 
208 
206 
213 
208 
206 
220 
213 
195 
202 
212 
202 
201 
210 
206 
210 
213 
205 
203 
197 
207 
204 
202 
209 
206 
197 
200 
207 
192 
202 
213 
210 
198 
193 
202 
213 
215 
211 
209 
205 
203 
202 
205 
209 
210 
210 
212 
209 
210 
207 
205 
211 
196 
213 
201 
200 
219 
220 
206 
206 
215 
214 
207 
212 
212 
213 
210 
211 
212 
206 
216 
207 
210 
221 
206 
201 
212 
209 
216 
215 
216 
216 
215 
213 
211 
210 
210 
214 
214 
214 
214 
214 
214 
214 
214 
214 
214 
214 
214 
214 
214 
214 
213 
215 
215 
215 
215 
214 
214 
214 
214 
214 
214 
214 
214 
214 
214 
214 
213 
214 
214 
214 
214 
214 
214 
214 
214 
214 
214 
214 
213 
213 
213 
213 
213 
216 
214 
213 
213 
214 
216 
217 
217 
219 
215 
217 
213 
210 
205 
220 
216 
207 
214 
213 
212 
219 
215 
209 
209 
205 
208 
202 
204 
213 
204 
198 
213 
217 
195 
203 
216 
205 
205 
213 
205 
208 
209 
203 
197 
192 
199 
202 
202 
196 
197 
190 
190 
185 
181 
188 
198 
201 
197 
197 
203 
205 
202 
199 
201 
197 
191 
192 
201 
201 
188 
188 
205 
205 
199 
197 
201 
212 
184 
197 
191 
203 
217 
208 
190 
197 
213 
214 
207 
210 
212 
214 
210 
209 
211 
202 
219 
205 
215 
222 
184 
177 
209 
207 
205 
212 
214 
216 
217 
215 
214 
214 
215 
214 
214 
214 
215 
215 
215 
215 
215 
215 
215 
215 
215 
214 
214 
214 
214 
215 
215 
215 
215 
215 
214 
214 
214 
214 
214 
214 
214 
214 
214 
214 
214 
215 
215 
215 
214 
214 
214 
214 
214 
214 
214 
214 
214 
213 
213 
213 
213 
216 
215 
214 
213 
213 
212 
211 
210 
219 
219 
205 
177 
150 
160 
203 
219 
218 
222 
217 
198 
203 
195 
202 
212 
204 
200 
200 
202 
199 
194 
193 
195 
201 
191 
196 
206 
206 
207 
206 
197 
197 
197 
197 
189 
188 
189 
195 
196 
189 
189 
178 
169 
163 
185 
184 
179 
188 
196 
200 
192 
183 
180 
185 
190 
191 
187 
185 
193 
197 
187 
187 
203 
202 
194 
195 
198 
203 
181 
168 
172 
183 
185 
174 
173 
195 
212 
213 
214 
209 
211 
213 
210 
209 
212 
198 
217 
203 
208 
214 
171 
169 
211 
208 
206 
209 
211 
213 
215 
216 
218 
218 
219 
214 
214 
214 
214 
215 
215 
215 
215 
216 
216 
215 
215 
215 
215 
214 
214 
215 
215 
215 
215 
215 
215 
215 
215 
214 
214 
214 
214 
215 
214 
214 
214 
215 
215 
215 
215 
214 
214 
214 
214 
215 
215 
214 
214 
214 
213 
213 
213 
214 
214 
214 
215 
214 
213 
210 
208 
208 
207 
175 
132 
93 
123 
181 
207 
212 
213 
203 
169 
172 
165 
187 
208 
208 
192 
191 
187 
174 
180 
192 
187 
170 
175 
178 
185 
198 
202 
194 
187 
184 
185 
190 
183 
185 
181 
188 
190 
185 
177 
170 
170 
162 
190 
182 
180 
180 
186 
183 
169 
165 
172 
177 
175 
180 
179 
172 
172 
186 
192 
192 
196 
197 
192 
196 
190 
185 
179 
141 
147 
174 
168 
162 
180 
209 
213 
202 
202 
206 
208 
210 
208 
207 
210 
193 
211 
199 
195 
203 
171 
176 
216 
212 
218 
210 
209 
209 
210 
213 
214 
214 
213 
214 
214 
214 
214 
214 
215 
215 
215 
216 
216 
216 
216 
215 
215 
215 
215 
215 
215 
216 
215 
215 
215 
214 
214 
215 
215 
215 
215 
215 
215 
215 
215 
214 
215 
216 
217 
214 
212 
213 
216 
214 
216 
213 
213 
216 
211 
209 
219 
218 
208 
217 
217 
210 
206 
206 
221 
206 
175 
134 
98 
66 
122 
186 
211 
201 
200 
166 
126 
128 
124 
171 
198 
191 
179 
166 
154 
142 
175 
197 
175 
152 
154 
152 
162 
178 
198 
185 
178 
174 
179 
182 
179 
181 
193 
171 
170 
173 
160 
155 
172 
183 
175 
183 
194 
184 
158 
155 
152 
154 
169 
178 
173 
180 
166 
163 
162 
173 
164 
164 
166 
179 
185 
192 
196 
179 
150 
125 
153 
211 
192 
175 
191 
218 
204 
201 
197 
200 
203 
202 
200 
200 
206 
196 
209 
192 
188 
187 
170 
202 
199 
212 
214 
207 
190 
184 
196 
204 
201 
201 
206 
205 
214 
214 
219 
214 
218 
213 
217 
217 
214 
215 
215 
215 
216 
216 
213 
215 
216 
216 
216 
215 
215 
214 
214 
215 
215 
215 
215 
215 
215 
215 
215 
215 
214 
215 
216 
215 
213 
213 
214 
217 
220 
217 
215 
218 
215 
209 
211 
204 
210 
215 
209 
211 
211 
209 
190 
198 
153 
85 
84 
122 
166 
192 
160 
155 
159 
129 
105 
132 
150 
183 
167 
171 
166 
137 
128 
140 
173 
181 
158 
159 
149 
141 
161 
173 
173 
162 
163 
176 
181 
163 
173 
185 
177 
175 
149 
134 
150 
158 
155 
162 
198 
175 
164 
158 
162 
158 
154 
165 
174 
174 
177 
175 
177 
165 
161 
167 
178 
174 
137 
155 
181 
181 
159 
127 
124 
131 
162 
179 
198 
208 
203 
194 
188 
188 
199 
210 
201 
202 
206 
199 
203 
203 
207 
195 
197 
197 
180 
202 
201 
210 
211 
191 
175 
169 
182 
193 
193 
193 
198 
207 
217 
215 
216 
213 
220 
216 
216 
215 
216 
216 
216 
216 
216 
215 
215 
216 
216 
216 
216 
215 
215 
214 
214 
215 
215 
215 
215 
215 
215 
215 
215 
216 
214 
213 
215 
216 
214 
213 
213 
210 
214 
211 
209 
213 
211 
203 
198 
220 
221 
197 
188 
202 
191 
187 
177 
193 
166 
126 
141 
161 
195 
156 
137 
148 
148 
131 
124 
131 
138 
160 
140 
149 
151 
105 
105 
142 
172 
164 
141 
149 
145 
140 
165 
169 
155 
155 
164 
163 
170 
159 
171 
182 
165 
174 
142 
127 
148 
158 
155 
160 
189 
159 
148 
170 
167 
145 
145 
172 
190 
181 
165 
163 
188 
171 
150 
150 
142 
139 
112 
137 
164 
160 
145 
106 
110 
132 
162 
184 
193 
195 
183 
173 
189 
184 
196 
208 
185 
188 
202 
200 
199 
208 
197 
192 
202 
204 
192 
203 
203 
207 
206 
199 
187 
182 
191 
199 
198 
197 
200 
203 
212 
209 
208 
210 
219 
216 
214 
213 
218 
217 
215 
219 
217 
214 
217 
216 
216 
216 
216 
216 
215 
215 
214 
215 
215 
215 
215 
215 
215 
215 
215 
216 
214 
214 
215 
215 
214 
213 
213 
211 
213 
213 
213 
213 
211 
206 
202 
198 
203 
198 
194 
175 
162 
172 
187 
176 
149 
146 
180 
175 
177 
126 
146 
157 
129 
118 
138 
124 
112 
107 
105 
130 
133 
92 
110 
151 
174 
161 
142 
150 
157 
149 
164 
165 
150 
152 
149 
142 
149 
167 
164 
158 
156 
158 
151 
145 
156 
156 
161 
167 
158 
157 
159 
162 
158 
151 
160 
167 
182 
180 
157 
162 
189 
154 
98 
104 
78 
79 
98 
140 
151 
144 
152 
126 
129 
142 
154 
161 
161 
169 
179 
179 
182 
175 
185 
185 
162 
163 
186 
200 
194 
202 
185 
189 
203 
206 
201 
204 
205 
202 
199 
199 
196 
196 
200 
200 
196 
195 
198 
197 
202 
202 
203 
208 
212 
211 
212 
215 
221 
216 
214 
221 
218 
213 
218 
216 
216 
216 
216 
216 
215 
215 
214 
215 
215 
215 
215 
215 
215 
215 
215 
214 
215 
216 
216 
214 
212 
212 
214 
217 
216 
217 
217 
213 
209 
206 
205 
188 
188 
197 
192 
160 
180 
185 
177 
178 
138 
136 
170 
162 
117 
117 
139 
132 
113 
113 
127 
90 
87 
66 
77 
114 
116 
100 
138 
162 
172 
159 
148 
156 
160 
147 
154 
163 
154 
149 
130 
135 
134 
152 
140 
126 
144 
142 
153 
150 
160 
156 
153 
156 
155 
162 
164 
153 
151 
146 
158 
161 
175 
177 
172 
185 
177 
115 
55 
65 
71 
70 
111 
149 
149 
138 
149 
133 
139 
148 
147 
138 
139 
153 
178 
187 
171 
175 
177 
164 
157 
157 
177 
199 
191 
195 
188 
195 
202 
203 
204 
201 
199 
189 
184 
179 
186 
195 
197 
192 
187 
190 
195 
200 
199 
200 
203 
205 
198 
198 
204 
217 
221 
214 
212 
220 
219 
213 
217 
216 
216 
216 
216 
216 
215 
215 
215 
215 
215 
215 
215 
215 
215 
215 
215 
214 
215 
216 
216 
214 
211 
212 
215 
218 
215 
214 
211 
204 
201 
197 
189 
203 
198 
181 
170 
171 
181 
140 
120 
137 
119 
122 
122 
89 
71 
79 
91 
99 
121 
127 
99 
51 
71 
68 
83 
111 
111 
118 
162 
160 
158 
142 
140 
154 
160 
153 
151 
154 
145 
146 
137 
140 
126 
113 
114 
115 
137 
144 
154 
157 
157 
156 
148 
138 
164 
151 
154 
167 
157 
134 
143 
169 
188 
171 
183 
189 
134 
80 
75 
79 
107 
101 
140 
165 
155 
150 
157 
142 
135 
146 
159 
162 
158 
159 
172 
186 
177 
186 
174 
161 
173 
176 
184 
199 
193 
195 
204 
200 
194 
192 
196 
192 
183 
173 
169 
172 
185 
196 
195 
188 
186 
191 
197 
204 
200 
202 
200 
196 
180 
182 
195 
216 
218 
214 
213 
219 
218 
214 
216 
216 
216 
216 
216 
216 
215 
215 
215 
215 
215 
215 
215 
215 
215 
215 
215 
215 
215 
215 
216 
214 
212 
212 
214 
215 
212 
208 
201 
197 
200 
190 
167 
155 
169 
169 
164 
163 
121 
75 
73 
88 
91 
92 
90 
60 
90 
81 
81 
89 
106 
96 
71 
65 
85 
98 
103 
115 
114 
129 
164 
146 
141 
121 
131 
149 
165 
170 
147 
133 
124 
138 
148 
140 
114 
93 
107 
129 
140 
147 
158 
165 
149 
150 
151 
136 
154 
144 
152 
154 
155 
151 
159 
173 
181 
147 
163 
157 
94 
70 
113 
127 
139 
131 
156 
166 
153 
161 
165 
156 
143 
156 
180 
175 
179 
184 
186 
185 
187 
185 
169 
161 
182 
192 
192 
195 
197 
193 
206 
195 
178 
175 
184 
185 
172 
169 
172 
183 
193 
198 
193 
186 
187 
191 
193 
201 
201 
202 
193 
185 
168 
178 
196 
211 
214 
216 
216 
216 
215 
215 
216 
216 
216 
216 
216 
216 
215 
215 
215 
215 
215 
215 
215 
215 
215 
215 
215 
216 
214 
214 
215 
215 
213 
212 
212 
204 
202 
197 
188 
188 
198 
183 
147 
104 
112 
148 
158 
131 
83 
91 
82 
91 
95 
76 
94 
85 
88 
100 
95 
96 
87 
67 
73 
106 
95 
111 
115 
117 
115 
129 
154 
133 
133 
113 
133 
131 
156 
168 
132 
116 
120 
142 
157 
137 
102 
98 
113 
144 
142 
140 
160 
157 
142 
142 
149 
139 
137 
158 
162 
145 
142 
156 
162 
153 
163 
130 
139 
136 
94 
87 
128 
172 
166 
160 
162 
135 
134 
150 
140 
145 
153 
168 
182 
183 
177 
180 
182 
182 
200 
182 
164 
155 
176 
192 
191 
187 
197 
187 
193 
188 
164 
164 
177 
184 
172 
178 
188 
196 
201 
200 
191 
187 
190 
192 
191 
197 
200 
203 
188 
180 
168 
185 
205 
207 
211 
218 
219 
215 
213 
216 
217 
216 
216 
216 
216 
216 
215 
215 
215 
215 
214 
214 
215 
215 
215 
215 
214 
214 
214 
217 
217 
214 
214 
212 
207 
200 
198 
188 
197 
194 
175 
154 
109 
107 
115 
127 
113 
85 
82 
89 
80 
77 
83 
85 
82 
81 
84 
87 
86 
79 
72 
84 
103 
106 
107 
112 
113 
116 
116 
129 
143 
132 
109 
113 
136 
124 
135 
142 
112 
103 
125 
153 
147 
121 
105 
117 
136 
128 
140 
143 
142 
144 
122 
132 
149 
133 
152 
148 
153 
164 
157 
139 
143 
153 
141 
135 
131 
131 
125 
118 
137 
168 
147 
148 
138 
109 
118 
148 
144 
155 
156 
172 
184 
189 
182 
181 
180 
170 
193 
187 
159 
149 
177 
189 
182 
181 
210 
193 
194 
184 
166 
165 
191 
194 
190 
200 
194 
200 
198 
192 
186 
187 
191 
190 
182 
192 
197 
202 
190 
184 
167 
196 
207 
204 
209 
220 
220 
219 
212 
221 
215 
216 
216 
216 
216 
216 
215 
215 
215 
215 
215 
214 
215 
215 
215 
215 
214 
216 
214 
212 
211 
210 
214 
213 
204 
203 
199 
215 
183 
169 
113 
129 
119 
92 
99 
105 
95 
78 
80 
85 
76 
89 
86 
86 
89 
91 
88 
79 
71 
89 
96 
99 
98 
106 
114 
112 
106 
129 
137 
140 
127 
106 
90 
85 
86 
99 
101 
108 
108 
115 
127 
149 
148 
115 
108 
118 
121 
130 
149 
146 
125 
112 
122 
160 
160 
148 
161 
167 
162 
163 
169 
139 
117 
121 
136 
165 
179 
153 
132 
147 
161 
150 
132 
140 
120 
82 
112 
148 
169 
180 
175 
170 
195 
189 
187 
178 
122 
129 
178 
185 
184 
158 
151 
180 
179 
194 
180 
206 
208 
183 
159 
202 
202 
189 
190 
195 
188 
208 
196 
198 
185 
186 
185 
179 
162 
111 
157 
193 
187 
169 
178 
204 
206 
200 
217 
222 
220 
219 
214 
221 
215 
216 
216 
216 
216 
216 
215 
215 
215 
215 
215 
214 
214 
215 
215 
215 
214 
211 
210 
209 
209 
210 
212 
205 
192 
171 
196 
184 
154 
126 
153 
151 
130 
106 
106 
100 
88 
83 
86 
87 
80 
88 
84 
84 
89 
90 
86 
84 
86 
94 
93 
88 
99 
119 
122 
115 
120 
115 
121 
113 
94 
84 
87 
85 
76 
80 
90 
95 
106 
127 
138 
149 
138 
111 
107 
123 
125 
136 
130 
119 
107 
107 
130 
171 
169 
152 
158 
167 
170 
172 
169 
125 
108 
131 
169 
194 
184 
152 
133 
154 
173 
174 
164 
138 
110 
118 
156 
180 
179 
173 
156 
156 
197 
190 
169 
151 
99 
138 
184 
182 
160 
146 
171 
179 
183 
173 
191 
193 
216 
163 
174 
214 
172 
196 
181 
179 
189 
206 
191 
199 
187 
192 
180 
164 
141 
109 
168 
199 
176 
142 
180 
204 
207 
192 
222 
217 
216 
215 
214 
218 
213 
216 
216 
216 
216 
216 
215 
215 
215 
216 
215 
214 
214 
215 
214 
214 
213 
212 
207 
205 
202 
196 
190 
182 
171 
178 
194 
190 
168 
155 
167 
145 
116 
111 
108 
92 
78 
80 
85 
84 
82 
78 
78 
82 
86 
86 
86 
90 
97 
97 
90 
90 
104 
112 
102 
99 
114 
104 
94 
83 
79 
84 
89 
87 
81 
79 
102 
108 
120 
136 
139 
136 
114 
107 
112 
130 
140 
145 
122 
102 
105 
116 
132 
144 
141 
121 
145 
154 
165 
172 
163 
131 
130 
151 
194 
206 
172 
126 
138 
169 
175 
179 
180 
156 
151 
167 
178 
193 
184 
181 
141 
143 
172 
168 
148 
129 
99 
123 
153 
175 
139 
149 
169 
172 
191 
186 
171 
176 
188 
137 
190 
182 
161 
200 
189 
177 
197 
197 
191 
184 
186 
198 
179 
165 
158 
145 
186 
198 
172 
151 
184 
191 
199 
190 
221 
208 
212 
215 
214 
216 
215 
216 
216 
216 
216 
216 
215 
215 
215 
215 
215 
215 
214 
214 
213 
212 
211 
212 
203 
197 
194 
186 
180 
180 
182 
191 
181 
177 
145 
137 
113 
103 
91 
93 
92 
78 
67 
73 
79 
79 
83 
73 
77 
83 
88 
90 
89 
86 
83 
85 
95 
106 
102 
86 
84 
91 
93 
96 
84 
78 
85 
89 
83 
77 
75 
87 
109 
118 
128 
126 
114 
104 
90 
95 
120 
130 
130 
135 
136 
113 
108 
123 
137 
125 
107 
100 
144 
161 
167 
163 
147 
131 
139 
151 
196 
192 
134 
86 
128 
176 
178 
172 
182 
176 
177 
192 
166 
172 
184 
185 
142 
135 
138 
128 
136 
128 
101 
101 
126 
157 
141 
154 
163 
169 
183 
175 
149 
179 
130 
130 
164 
145 
192 
181 
197 
181 
196 
193 
198 
165 
178 
193 
176 
176 
202 
180 
191 
186 
174 
182 
189 
181 
200 
198 
216 
204 
214 
219 
216 
216 
218 
216 
216 
216 
216 
216 
215 
215 
215 
215 
215 
215 
215 
214 
212 
209 
207 
205 
196 
191 
189 
182 
178 
180 
182 
171 
166 
126 
86 
63 
74 
82 
88 
83 
85 
77 
70 
74 
76 
75 
79 
69 
78 
87 
90 
89 
88 
86 
85 
83 
90 
99 
95 
85 
93 
99 
87 
85 
83 
83 
82 
78 
73 
74 
79 
100 
116 
118 
102 
83 
87 
86 
82 
101 
133 
135 
120 
118 
130 
115 
116 
136 
140 
126 
105 
111 
136 
159 
170 
150 
133 
136 
156 
167 
195 
149 
73 
80 
140 
162 
155 
172 
172 
161 
159 
174 
169 
176 
178 
146 
125 
124 
115 
96 
115 
126 
110 
113 
122 
127 
154 
158 
188 
188 
143 
115 
161 
156 
122 
151 
131 
154 
199 
176 
179 
172 
190 
184 
195 
157 
172 
182 
165 
169 
215 
202 
191 
177 
178 
201 
188 
181 
207 
204 
205 
204 
216 
219 
216 
216 
218 
216 
216 
216 
216 
216 
215 
215 
215 
215 
215 
215 
215 
214 
211 
207 
204 
200 
193 
187 
180 
174 
172 
166 
156 
169 
162 
125 
78 
61 
52 
80 
94 
80 
83 
79 
73 
72 
71 
70 
73 
74 
80 
88 
91 
87 
85 
92 
101 
100 
91 
85 
89 
95 
97 
92 
85 
88 
90 
87 
76 
67 
69 
79 
88 
105 
111 
107 
73 
50 
80 
91 
96 
122 
143 
143 
125 
120 
117 
107 
115 
129 
128 
117 
111 
116 
117 
131 
152 
140 
133 
154 
177 
173 
167 
103 
70 
134 
186 
157 
124 
149 
138 
144 
154 
138 
161 
178 
164 
117 
103 
114 
101 
88 
104 
117 
112 
108 
104 
126 
184 
181 
184 
182 
109 
104 
136 
117 
161 
159 
123 
182 
181 
185 
163 
164 
175 
166 
171 
159 
165 
166 
155 
156 
204 
189 
180 
175 
189 
207 
191 
187 
194 
200 
188 
205 
215 
215 
215 
216 
214 
216 
216 
216 
216 
216 
215 
215 
215 
214 
215 
215 
215 
213 
210 
205 
202 
195 
189 
180 
173 
176 
185 
181 
164 
165 
157 
114 
69 
70 
65 
93 
89 
77 
78 
77 
73 
72 
72 
75 
79 
89 
84 
85 
92 
94 
89 
91 
97 
99 
95 
84 
83 
92 
89 
83 
87 
90 
90 
87 
80 
75 
79 
89 
98 
100 
89 
91 
72 
53 
85 
99 
118 
124 
133 
134 
116 
123 
114 
99 
95 
108 
122 
107 
111 
108 
117 
118 
136 
147 
127 
136 
154 
146 
126 
75 
102 
179 
198 
151 
122 
141 
136 
168 
158 
149 
144 
149 
134 
113 
87 
102 
93 
101 
112 
112 
111 
104 
107 
162 
194 
189 
166 
135 
111 
115 
106 
111 
168 
133 
114 
180 
173 
172 
160 
157 
145 
151 
147 
160 
154 
152 
152 
156 
202 
195 
189 
183 
196 
201 
195 
196 
184 
195 
178 
208 
215 
212 
216 
220 
214 
216 
216 
216 
215 
215 
216 
216 
216 
215 
216 
216 
215 
214 
211 
205 
200 
189 
185 
179 
173 
169 
179 
167 
172 
163 
124 
79 
59 
81 
86 
86 
85 
76 
76 
78 
79 
79 
78 
78 
78 
93 
88 
85 
88 
95 
97 
91 
84 
101 
96 
90 
83 
78 
78 
85 
93 
91 
88 
81 
75 
76 
83 
90 
93 
90 
79 
74 
70 
73 
78 
105 
112 
113 
107 
110 
108 
110 
105 
87 
87 
93 
108 
117 
120 
116 
80 
73 
98 
129 
123 
129 
135 
143 
99 
100 
124 
150 
160 
153 
150 
148 
178 
191 
164 
139 
150 
138 
117 
114 
110 
96 
94 
126 
145 
125 
113 
111 
153 
193 
183 
173 
146 
113 
126 
105 
104 
149 
175 
113 
121 
144 
169 
146 
136 
134 
125 
133 
136 
166 
159 
157 
147 
163 
214 
206 
190 
176 
196 
196 
201 
198 
167 
184 
168 
221 
224 
211 
221 
217 
215 
216 
216 
216 
216 
216 
216 
216 
216 
218 
217 
216 
214 
211 
207 
200 
192 
196 
192 
191 
184 
164 
153 
150 
161 
155 
95 
56 
65 
77 
79 
77 
77 
80 
77 
75 
75 
75 
75 
77 
80 
83 
84 
85 
87 
89 
93 
96 
97 
96 
93 
92 
93 
92 
89 
87 
86 
87 
86 
82 
81 
84 
88 
89 
87 
85 
78 
74 
81 
94 
101 
113 
110 
86 
98 
120 
126 
107 
78 
64 
76 
99 
106 
113 
114 
91 
77 
91 
112 
121 
126 
136 
126 
118 
96 
109 
134 
153 
163 
164 
164 
164 
157 
146 
119 
119 
135 
118 
111 
139 
132 
135 
126 
149 
157 
142 
119 
126 
148 
197 
190 
136 
122 
119 
106 
103 
175 
178 
123 
98 
115 
124 
167 
140 
140 
121 
105 
117 
127 
165 
160 
170 
147 
171 
184 
173 
208 
176 
194 
207 
206 
185 
189 
187 
192 
230 
217 
209 
219 
215 
216 
216 
216 
216 
216 
216 
216 
217 
217 
218 
217 
215 
213 
212 
209 
201 
194 
185 
177 
168 
155 
139 
137 
160 
172 
156 
91 
60 
82 
78 
82 
83 
83 
78 
73 
71 
74 
74 
73 
76 
81 
81 
83 
85 
85 
86 
88 
93 
97 
95 
92 
91 
91 
91 
89 
87 
87 
87 
87 
86 
86 
87 
86 
81 
75 
83 
82 
74 
87 
105 
115 
112 
104 
89 
97 
106 
115 
104 
85 
88 
99 
117 
114 
112 
114 
99 
118 
136 
124 
106 
109 
111 
90 
79 
85 
95 
115 
137 
153 
163 
161 
158 
132 
113 
94 
100 
120 
104 
105 
153 
164 
147 
133 
131 
142 
122 
132 
139 
152 
178 
153 
120 
145 
118 
107 
182 
193 
156 
98 
94 
95 
123 
148 
145 
128 
109 
100 
100 
114 
149 
154 
186 
160 
195 
162 
172 
190 
154 
192 
187 
202 
186 
200 
199 
212 
228 
211 
212 
215 
212 
218 
216 
216 
216 
216 
217 
217 
217 
217 
216 
216 
215 
213 
212 
210 
205 
200 
184 
176 
164 
152 
151 
157 
173 
154 
115 
79 
68 
79 
69 
74 
81 
75 
72 
69 
70 
76 
78 
76 
76 
81 
83 
82 
81 
83 
86 
88 
87 
85 
90 
89 
87 
84 
80 
78 
82 
88 
86 
85 
84 
83 
82 
79 
75 
71 
82 
88 
80 
96 
110 
117 
106 
97 
98 
102 
101 
117 
128 
130 
134 
122 
123 
112 
98 
110 
129 
142 
138 
109 
97 
96 
86 
64 
58 
72 
72 
100 
130 
144 
151 
140 
120 
108 
105 
98 
97 
112 
98 
97 
142 
179 
122 
111 
125 
129 
142 
149 
134 
142 
133 
135 
133 
98 
127 
182 
180 
189 
131 
90 
100 
90 
135 
137 
152 
142 
126 
125 
111 
123 
136 
152 
191 
167 
199 
139 
186 
153 
139 
194 
160 
189 
180 
201 
216 
213 
214 
211 
221 
213 
210 
217 
216 
216 
217 
217 
217 
217 
217 
216 
215 
216 
215 
212 
210 
207 
203 
200 
187 
175 
163 
159 
171 
173 
164 
119 
72 
68 
76 
75 
75 
75 
80 
73 
74 
71 
73 
79 
81 
78 
77 
79 
80 
77 
76 
79 
84 
86 
85 
83 
81 
81 
81 
81 
78 
76 
77 
80 
79 
78 
76 
74 
73 
74 
78 
82 
83 
91 
86 
105 
120 
125 
113 
104 
103 
108 
114 
136 
150 
155 
156 
138 
131 
120 
99 
110 
151 
124 
104 
90 
90 
93 
78 
60 
54 
58 
58 
109 
142 
134 
130 
124 
87 
96 
103 
103 
104 
110 
96 
102 
143 
169 
107 
97 
116 
112 
122 
140 
134 
102 
123 
130 
116 
119 
143 
185 
191 
167 
87 
92 
97 
105 
121 
154 
164 
188 
166 
155 
108 
132 
130 
161 
186 
172 
182 
133 
178 
144 
162 
197 
160 
183 
159 
205 
224 
209 
208 
215 
223 
213 
214 
215 
217 
217 
218 
218 
217 
217 
216 
216 
213 
214 
215 
213 
211 
209 
204 
199 
187 
170 
158 
162 
176 
177 
155 
114 
82 
80 
85 
80 
86 
78 
82 
82 
81 
78 
77 
79 
80 
79 
78 
78 
76 
77 
78 
78 
78 
80 
83 
86 
81 
75 
72 
76 
81 
82 
79 
76 
76 
74 
72 
70 
69 
73 
81 
89 
87 
86 
81 
98 
117 
127 
126 
122 
107 
106 
121 
149 
160 
161 
160 
150 
145 
152 
127 
120 
162 
124 
101 
87 
88 
89 
72 
61 
64 
67 
69 
117 
131 
98 
90 
110 
87 
108 
109 
105 
108 
111 
107 
134 
174 
153 
115 
93 
77 
81 
95 
142 
137 
97 
116 
125 
134 
139 
156 
173 
188 
127 
86 
80 
96 
100 
94 
172 
191 
195 
187 
164 
89 
136 
132 
171 
178 
178 
160 
149 
175 
149 
194 
188 
168 
192 
163 
205 
221 
211 
216 
216 
217 
214 
218 
213 
218 
218 
218 
218 
218 
217 
216 
215 
212 
213 
213 
213 
214 
210 
201 
192 
194 
187 
181 
182 
187 
184 
143 
104 
87 
77 
75 
75 
73 
68 
72 
76 
79 
78 
77 
76 
77 
80 
79 
77 
77 
79 
81 
79 
76 
76 
80 
84 
82 
74 
69 
72 
80 
83 
80 
77 
74 
73 
72 
72 
71 
73 
80 
87 
86 
78 
77 
89 
102 
108 
122 
124 
101 
102 
129 
158 
168 
167 
153 
137 
141 
155 
142 
139 
161 
128 
112 
87 
92 
89 
72 
69 
85 
103 
106 
115 
97 
60 
56 
91 
102 
130 
120 
107 
104 
110 
124 
160 
187 
147 
119 
89 
76 
97 
154 
160 
120 
119 
108 
147 
151 
114 
155 
174 
128 
134 
116 
97 
107 
96 
115 
173 
199 
159 
174 
151 
106 
164 
150 
172 
164 
179 
134 
162 
184 
154 
210 
170 
175 
201 
189 
206 
218 
214 
221 
211 
214 
216 
216 
215 
218 
218 
219 
219 
218 
216 
215 
214 
215 
213 
211 
212 
213 
207 
192 
179 
193 
197 
189 
175 
171 
175 
125 
84 
71 
64 
67 
79 
67 
69 
72 
74 
70 
73 
74 
73 
76 
81 
81 
76 
77 
78 
80 
81 
80 
79 
79 
79 
76 
73 
72 
77 
81 
80 
77 
74 
69 
69 
71 
74 
76 
76 
79 
83 
76 
73 
84 
92 
94 
87 
104 
108 
108 
111 
141 
154 
157 
163 
145 
124 
126 
131 
140 
164 
158 
112 
106 
91 
87 
88 
78 
76 
95 
126 
133 
107 
78 
50 
48 
76 
109 
142 
125 
102 
98 
105 
131 
159 
166 
147 
113 
89 
100 
152 
171 
142 
104 
100 
151 
158 
127 
154 
153 
135 
120 
144 
147 
131 
119 
114 
166 
170 
180 
138 
154 
137 
135 
191 
161 
165 
153 
183 
124 
177 
184 
162 
217 
157 
188 
203 
201 
217 
219 
213 
217 
205 
216 
217 
211 
218 
219 
218 
218 
218 
218 
217 
215 
213 
210 
215 
212 
211 
213 
201 
179 
168 
182 
188 
168 
150 
131 
100 
83 
91 
86 
62 
63 
82 
71 
75 
80 
76 
75 
75 
79 
85 
86 
82 
79 
78 
74 
79 
82 
81 
80 
80 
78 
74 
73 
75 
78 
80 
78 
75 
71 
69 
64 
66 
69 
76 
78 
84 
75 
81 
79 
77 
93 
87 
92 
86 
103 
101 
110 
127 
134 
143 
135 
143 
123 
122 
132 
127 
140 
157 
133 
97 
97 
95 
90 
88 
71 
70 
88 
106 
114 
107 
81 
68 
68 
88 
107 
137 
108 
98 
107 
112 
136 
154 
144 
155 
117 
96 
130 
145 
117 
97 
104 
110 
107 
137 
172 
169 
165 
153 
134 
137 
137 
162 
101 
136 
184 
145 
143 
153 
156 
126 
135 
186 
148 
147 
168 
170 
129 
182 
190 
170 
208 
161 
205 
187 
210 
220 
212 
214 
214 
212 
212 
214 
215 
216 
214 
215 
215 
217 
217 
217 
215 
214 
210 
207 
205 
211 
208 
188 
176 
183 
178 
167 
164 
143 
123 
66 
84 
87 
74 
73 
73 
74 
73 
81 
81 
75 
70 
73 
76 
79 
77 
73 
71 
71 
75 
75 
76 
79 
80 
78 
77 
76 
82 
83 
82 
78 
74 
70 
64 
57 
62 
73 
76 
75 
74 
83 
71 
68 
82 
85 
85 
90 
79 
94 
102 
105 
107 
108 
129 
132 
131 
110 
118 
143 
136 
146 
158 
153 
120 
99 
104 
95 
81 
85 
73 
70 
87 
108 
116 
105 
81 
59 
55 
93 
139 
145 
108 
106 
86 
79 
130 
156 
164 
148 
121 
100 
110 
133 
121 
111 
109 
91 
106 
141 
145 
153 
168 
150 
115 
129 
135 
133 
155 
165 
156 
130 
148 
167 
138 
133 
134 
153 
127 
138 
182 
175 
108 
171 
182 
185 
213 
167 
205 
179 
202 
214 
218 
218 
216 
214 
215 
217 
217 
216 
214 
215 
216 
218 
219 
219 
217 
216 
209 
213 
210 
207 
210 
203 
182 
165 
171 
180 
187 
171 
115 
67 
91 
82 
71 
85 
83 
71 
79 
83 
81 
78 
70 
74 
76 
75 
72 
72 
74 
76 
76 
72 
72 
77 
79 
77 
76 
77 
79 
79 
75 
70 
66 
63 
56 
49 
60 
74 
82 
82 
80 
87 
76 
73 
81 
74 
77 
83 
82 
90 
103 
108 
102 
105 
132 
129 
126 
99 
116 
148 
154 
154 
152 
139 
102 
82 
83 
76 
76 
87 
83 
80 
88 
101 
100 
82 
72 
70 
72 
106 
160 
139 
99 
97 
86 
71 
129 
148 
139 
111 
113 
121 
137 
134 
97 
76 
92 
102 
144 
164 
155 
168 
170 
136 
121 
157 
159 
141 
133 
156 
154 
148 
164 
110 
102 
108 
138 
139 
124 
124 
154 
173 
127 
192 
171 
200 
200 
174 
210 
195 
208 
218 
218 
217 
215 
213 
215 
217 
217 
215 
216 
217 
218 
219 
219 
218 
216 
215 
213 
210 
207 
205 
197 
185 
182 
186 
201 
192 
165 
139 
88 
82 
99 
86 
82 
87 
86 
77 
86 
80 
81 
84 
75 
77 
76 
72 
71 
75 
79 
81 
75 
74 
75 
76 
77 
76 
75 
76 
72 
71 
68 
65 
61 
56 
52 
50 
58 
67 
75 
82 
79 
80 
72 
80 
75 
63 
64 
71 
84 
92 
92 
78 
73 
112 
139 
124 
93 
92 
116 
153 
166 
147 
124 
112 
90 
82 
74 
64 
70 
82 
85 
84 
84 
86 
84 
68 
77 
92 
109 
135 
176 
130 
94 
89 
80 
95 
144 
146 
120 
132 
130 
118 
112 
111 
111 
125 
142 
139 
151 
156 
152 
179 
161 
121 
143 
172 
150 
138 
114 
149 
157 
165 
159 
81 
110 
93 
142 
144 
141 
143 
140 
170 
172 
196 
162 
206 
174 
177 
215 
219 
217 
221 
214 
214 
214 
213 
214 
216 
216 
215 
216 
216 
217 
217 
217 
216 
214 
213 
221 
218 
216 
209 
200 
197 
205 
213 
210 
187 
162 
123 
96 
86 
88 
87 
87 
80 
86 
86 
90 
83 
86 
84 
77 
75 
71 
69 
70 
72 
73 
72 
73 
79 
81 
77 
74 
76 
76 
73 
76 
72 
70 
68 
60 
51 
49 
55 
69 
74 
77 
79 
74 
75 
67 
75 
72 
71 
62 
81 
84 
109 
83 
53 
79 
112 
122 
108 
84 
108 
130 
162 
176 
153 
111 
86 
79 
90 
75 
62 
68 
73 
80 
89 
86 
86 
93 
90 
94 
103 
129 
154 
171 
115 
87 
87 
85 
118 
168 
170 
130 
140 
132 
130 
119 
118 
131 
144 
153 
168 
163 
164 
164 
195 
181 
149 
172 
171 
129 
126 
128 
156 
161 
160 
124 
114 
104 
103 
133 
136 
118 
136 
153 
165 
208 
180 
161 
206 
176 
182 
218 
218 
216 
214 
212 
216 
218 
217 
216 
216 
217 
217 
217 
216 
217 
217 
217 
217 
215 
214 
226 
226 
217 
199 
196 
211 
215 
201 
197 
200 
185 
142 
109 
92 
70 
78 
81 
76 
86 
91 
89 
91 
94 
82 
77 
72 
68 
70 
74 
73 
70 
67 
72 
81 
83 
76 
72 
75 
76 
72 
75 
71 
68 
65 
57 
49 
53 
62 
80 
86 
83 
79 
78 
88 
77 
73 
75 
76 
92 
119 
120 
117 
102 
90 
114 
109 
105 
102 
111 
126 
136 
151 
170 
149 
101 
77 
75 
87 
72 
80 
92 
88 
94 
109 
103 
96 
105 
107 
103 
129 
156 
151 
133 
97 
81 
83 
98 
135 
184 
174 
138 
127 
127 
147 
130 
117 
134 
158 
170 
183 
156 
153 
159 
153 
144 
131 
150 
157 
142 
142 
161 
159 
180 
158 
127 
139 
68 
126 
139 
149 
97 
112 
162 
161 
223 
164 
172 
207 
206 
199 
224 
207 
217 
214 
213 
217 
220 
219 
216 
215 
216 
216 
219 
218 
217 
217 
218 
217 
217 
216 
222 
206 
189 
174 
168 
181 
196 
198 
199 
198 
168 
133 
115 
103 
79 
78 
82 
81 
87 
93 
88 
93 
93 
85 
82 
73 
68 
72 
76 
74 
71 
71 
73 
78 
79 
74 
72 
74 
75 
73 
70 
69 
65 
59 
56 
59 
69 
76 
82 
83 
78 
82 
93 
109 
93 
82 
82 
81 
123 
152 
163 
131 
128 
125 
111 
112 
119 
110 
110 
106 
112 
126 
138 
134 
100 
87 
95 
106 
95 
127 
136 
118 
112 
117 
104 
90 
94 
93 
106 
156 
174 
138 
100 
95 
82 
87 
89 
131 
162 
132 
129 
134 
116 
109 
106 
93 
135 
190 
196 
160 
134 
152 
130 
86 
80 
90 
126 
160 
174 
170 
196 
177 
184 
159 
166 
134 
86 
158 
168 
175 
104 
138 
168 
171 
215 
156 
191 
207 
222 
215 
222 
210 
221 
219 
213 
216 
218 
216 
214 
214 
215 
215 
219 
218 
216 
216 
216 
215 
215 
214 
213 
200 
180 
163 
174 
206 
214 
191 
175 
169 
174 
162 
176 
120 
103 
89 
91 
89 
86 
94 
89 
90 
87 
91 
90 
77 
67 
69 
70 
67 
67 
70 
74 
74 
73 
72 
72 
72 
74 
74 
72 
74 
69 
59 
60 
74 
87 
91 
89 
80 
76 
95 
117 
131 
110 
100 
89 
99 
129 
160 
170 
161 
135 
107 
104 
122 
129 
109 
95 
98 
97 
101 
120 
144 
123 
106 
119 
142 
129 
158 
166 
134 
109 
101 
82 
69 
76 
75 
101 
147 
155 
119 
88 
98 
77 
91 
90 
106 
111 
92 
94 
88 
60 
73 
92 
103 
133 
155 
163 
150 
156 
165 
120 
74 
75 
96 
136 
166 
169 
153 
167 
191 
173 
165 
172 
102 
124 
171 
185 
160 
82 
164 
159 
179 
210 
178 
207 
204 
214 
220 
212 
219 
218 
217 
214 
215 
215 
213 
214 
216 
217 
217 
218 
217 
216 
217 
218 
218 
217 
216 
220 
201 
186 
184 
190 
198 
187 
162 
160 
198 
207 
189 
180 
119 
76 
83 
87 
88 
93 
98 
97 
90 
87 
89 
92 
87 
69 
67 
65 
54 
65 
73 
73 
70 
68 
77 
82 
73 
71 
73 
78 
74 
78 
70 
68 
77 
79 
85 
80 
75 
86 
120 
157 
129 
124 
113 
105 
98 
126 
148 
148 
165 
132 
100 
120 
120 
101 
103 
105 
109 
104 
99 
126 
160 
148 
138 
147 
156 
131 
163 
165 
124 
96 
83 
62 
68 
68 
82 
108 
130 
110 
90 
72 
93 
85 
82 
84 
89 
75 
62 
75 
71 
65 
88 
108 
95 
105 
139 
155 
156 
186 
167 
109 
88 
92 
92 
145 
162 
136 
120 
127 
198 
171 
151 
164 
103 
186 
185 
193 
137 
89 
204 
156 
207 
207 
209 
225 
209 
212 
224 
208 
212 
218 
217 
213 
214 
217 
219 
219 
218 
216 
214 
220 
219 
218 
218 
219 
219 
218 
217 
209 
194 
185 
190 
198 
198 
185 
170 
192 
202 
200 
162 
131 
103 
93 
83 
90 
91 
104 
105 
91 
98 
109 
100 
93 
86 
74 
68 
77 
72 
66 
72 
84 
68 
79 
92 
84 
76 
80 
89 
85 
90 
86 
68 
64 
67 
71 
91 
108 
98 
93 
109 
111 
86 
117 
135 
122 
135 
150 
148 
120 
98 
74 
130 
111 
111 
105 
103 
107 
135 
79 
119 
122 
145 
157 
169 
137 
135 
144 
163 
108 
64 
63 
47 
75 
67 
63 
78 
69 
67 
63 
72 
84 
85 
83 
90 
69 
78 
79 
72 
56 
63 
70 
91 
94 
88 
115 
130 
151 
160 
180 
164 
117 
87 
83 
101 
132 
123 
98 
106 
171 
165 
131 
131 
107 
137 
203 
173 
190 
135 
138 
189 
191 
211 
222 
214 
222 
211 
214 
222 
211 
213 
218 
215 
214 
215 
216 
217 
218 
217 
216 
215 
219 
218 
217 
216 
217 
217 
216 
216 
216 
208 
201 
199 
193 
176 
163 
163 
166 
181 
175 
162 
143 
164 
147 
111 
94 
101 
101 
103 
113 
116 
109 
105 
107 
92 
79 
81 
107 
85 
84 
89 
87 
74 
95 
102 
84 
91 
101 
103 
104 
97 
74 
57 
65 
74 
92 
134 
154 
147 
128 
119 
99 
99 
142 
150 
171 
144 
148 
102 
79 
62 
73 
111 
106 
89 
99 
124 
94 
103 
107 
98 
114 
127 
186 
150 
98 
80 
97 
119 
71 
52 
74 
58 
57 
75 
67 
67 
65 
66 
70 
60 
71 
60 
67 
75 
81 
74 
77 
83 
59 
85 
100 
107 
106 
105 
96 
105 
122 
191 
163 
126 
94 
82 
80 
106 
124 
117 
119 
149 
137 
109 
106 
113 
94 
161 
165 
170 
178 
136 
184 
204 
203 
212 
220 
219 
218 
213 
217 
218 
216 
214 
217 
214 
216 
216 
216 
216 
216 
216 
216 
217 
218 
217 
216 
216 
215 
215 
215 
215 
215 
216 
207 
188 
159 
128 
115 
125 
162 
189 
183 
176 
171 
163 
111 
76 
82 
139 
169 
157 
138 
121 
124 
149 
148 
99 
59 
95 
158 
117 
105 
101 
99 
85 
95 
110 
97 
101 
107 
101 
92 
79 
61 
59 
73 
88 
126 
180 
202 
184 
156 
127 
100 
135 
179 
183 
206 
144 
128 
70 
56 
63 
96 
83 
133 
130 
95 
119 
102 
87 
122 
99 
101 
130 
171 
105 
75 
63 
62 
84 
53 
56 
73 
70 
62 
89 
72 
63 
62 
66 
69 
53 
78 
83 
94 
89 
64 
65 
101 
135 
117 
118 
96 
69 
62 
76 
118 
157 
182 
187 
122 
73 
72 
87 
87 
101 
127 
137 
147 
153 
100 
86 
108 
89 
118 
163 
135 
188 
183 
150 
204 
229 
204 
214 
214 
217 
216 
216 
219 
214 
219 
215 
217 
214 
217 
217 
216 
216 
216 
216 
217 
217 
219 
219 
218 
217 
216 
216 
217 
218 
204 
213 
207 
182 
149 
116 
100 
104 
152 
186 
194 
160 
148 
119 
122 
146 
167 
178 
172 
143 
126 
145 
172 
179 
134 
126 
152 
161 
119 
122 
140 
116 
84 
117 
123 
112 
89 
105 
116 
96 
61 
79 
97 
108 
111 
125 
161 
194 
207 
189 
180 
151 
117 
157 
193 
214 
180 
115 
57 
45 
54 
64 
73 
80 
138 
136 
101 
96 
106 
131 
107 
129 
105 
133 
95 
82 
73 
76 
61 
69 
59 
52 
52 
61 
116 
87 
59 
58 
64 
64 
65 
60 
77 
75 
82 
88 
81 
82 
109 
118 
93 
77 
67 
59 
61 
76 
104 
121 
128 
113 
89 
72 
72 
90 
96 
110 
155 
157 
144 
108 
91 
129 
116 
82 
163 
151 
137 
226 
205 
187 
213 
223 
222 
219 
217 
213 
215 
218 
219 
211 
219 
215 
217 
216 
216 
216 
217 
217 
217 
217 
217 
216 
218 
218 
218 
217 
216 
216 
217 
218 
207 
216 
216 
201 
182 
160 
139 
127 
148 
174 
171 
149 
132 
157 
181 
200 
195 
170 
146 
142 
154 
159 
149 
134 
151 
155 
177 
170 
123 
161 
122 
93 
111 
151 
152 
121 
83 
99 
99 
71 
66 
116 
155 
163 
163 
180 
196 
188 
178 
188 
203 
178 
149 
179 
194 
204 
171 
96 
29 
30 
63 
59 
64 
95 
116 
112 
145 
122 
133 
159 
111 
130 
122 
95 
56 
69 
69 
68 
56 
64 
71 
60 
66 
79 
122 
65 
46 
49 
52 
57 
62 
61 
67 
65 
83 
107 
107 
109 
120 
104 
71 
50 
50 
60 
75 
91 
77 
65 
50 
62 
72 
69 
72 
84 
101 
126 
169 
151 
131 
104 
115 
126 
85 
119 
189 
152 
179 
234 
208 
229 
215 
211 
223 
219 
214 
217 
215 
217 
217 
213 
217 
215 
216 
216 
215 
216 
217 
217 
218 
217 
217 
216 
217 
217 
217 
216 
215 
215 
217 
219 
213 
215 
216 
213 
207 
198 
181 
163 
158 
161 
152 
164 
163 
192 
179 
159 
162 
178 
183 
172 
152 
128 
130 
155 
178 
167 
134 
143 
175 
167 
93 
114 
166 
148 
151 
138 
84 
72 
52 
51 
104 
162 
187 
181 
185 
203 
206 
183 
175 
199 
201 
178 
166 
187 
192 
180 
180 
107 
71 
36 
53 
46 
63 
100 
128 
162 
190 
160 
184 
155 
124 
129 
125 
62 
72 
63 
65 
62 
64 
70 
59 
63 
80 
90 
73 
52 
48 
57 
60 
61 
63 
60 
75 
79 
99 
120 
126 
126 
125 
107 
74 
65 
60 
62 
72 
76 
90 
79 
77 
57 
77 
79 
72 
89 
108 
124 
138 
116 
111 
119 
147 
77 
71 
172 
179 
184 
234 
211 
201 
237 
213 
216 
211 
213 
212 
219 
216 
215 
214 
216 
214 
216 
214 
216 
215 
215 
216 
217 
218 
218 
218 
218 
218 
218 
218 
217 
216 
217 
219 
221 
216 
209 
210 
212 
210 
209 
202 
188 
181 
172 
192 
187 
180 
135 
155 
184 
203 
195 
179 
146 
126 
152 
185 
186 
161 
165 
184 
173 
143 
126 
170 
170 
128 
129 
172 
140 
49 
46 
46 
75 
138 
196 
205 
186 
187 
196 
200 
190 
189 
210 
196 
188 
187 
185 
188 
171 
189 
130 
102 
61 
68 
79 
73 
118 
153 
194 
172 
162 
178 
146 
144 
139 
120 
76 
84 
69 
60 
63 
76 
59 
59 
66 
74 
69 
53 
56 
50 
71 
58 
61 
74 
70 
76 
60 
84 
115 
135 
123 
101 
75 
40 
58 
64 
67 
79 
80 
78 
74 
65 
76 
79 
74 
77 
101 
115 
114 
107 
98 
103 
126 
113 
89 
128 
204 
190 
215 
225 
213 
208 
218 
213 
226 
215 
210 
222 
213 
215 
214 
212 
220 
213 
216 
213 
216 
215 
215 
216 
216 
217 
218 
218 
219 
219 
218 
218 
217 
216 
216 
216 
216 
221 
218 
215 
215 
217 
218 
215 
212 
202 
204 
196 
169 
139 
127 
166 
186 
189 
165 
150 
164 
185 
194 
175 
154 
156 
177 
160 
127 
119 
160 
195 
127 
103 
194 
179 
67 
45 
45 
77 
126 
175 
212 
219 
207 
193 
187 
198 
200 
206 
224 
214 
199 
209 
212 
208 
214 
200 
172 
136 
123 
125 
139 
157 
160 
146 
185 
174 
192 
168 
133 
156 
168 
116 
112 
68 
62 
74 
74 
73 
56 
67 
66 
61 
64 
59 
63 
63 
69 
59 
59 
72 
73 
66 
73 
82 
88 
91 
68 
55 
51 
59 
63 
59 
71 
80 
72 
81 
79 
79 
70 
73 
80 
88 
114 
114 
100 
89 
91 
103 
98 
61 
139 
213 
212 
224 
217 
215 
225 
214 
212 
213 
217 
218 
214 
213 
215 
215 
215 
215 
214 
215 
215 
215 
216 
216 
216 
217 
217 
217 
217 
217 
217 
219 
218 
218 
217 
216 
216 
216 
216 
218 
216 
214 
215 
216 
217 
215 
213 
212 
202 
191 
184 
183 
182 
189 
186 
177 
177 
189 
187 
182 
189 
143 
159 
189 
175 
115 
132 
184 
208 
146 
147 
192 
194 
140 
80 
54 
55 
109 
170 
201 
215 
216 
209 
203 
201 
207 
208 
210 
221 
217 
211 
218 
217 
212 
219 
214 
205 
196 
201 
206 
205 
204 
194 
193 
202 
202 
185 
166 
145 
167 
129 
151 
138 
68 
60 
70 
69 
67 
58 
67 
72 
72 
74 
63 
61 
60 
67 
70 
60 
68 
75 
77 
80 
75 
68 
59 
55 
62 
60 
56 
61 
71 
91 
85 
77 
78 
82 
73 
84 
85 
88 
103 
104 
89 
77 
80 
100 
102 
68 
116 
192 
229 
208 
221 
216 
216 
215 
215 
213 
214 
218 
218 
215 
214 
216 
216 
216 
215 
215 
215 
216 
216 
216 
216 
217 
217 
217 
217 
217 
217 
217 
219 
218 
218 
217 
216 
216 
216 
216 
216 
215 
215 
215 
216 
217 
216 
216 
210 
212 
215 
216 
210 
196 
169 
158 
185 
203 
211 
179 
153 
155 
192 
205 
175 
141 
157 
184 
201 
144 
156 
184 
190 
170 
145 
133 
113 
143 
180 
208 
217 
213 
216 
215 
212 
213 
213 
215 
214 
215 
215 
218 
221 
215 
213 
221 
215 
210 
206 
213 
216 
214 
213 
203 
213 
202 
217 
195 
182 
163 
173 
147 
162 
116 
49 
66 
75 
75 
78 
67 
63 
64 
62 
68 
65 
66 
60 
61 
65 
58 
70 
76 
73 
71 
65 
60 
57 
54 
65 
66 
62 
70 
80 
87 
97 
87 
85 
81 
60 
70 
83 
101 
99 
93 
103 
125 
142 
161 
165 
137 
160 
219 
222 
198 
218 
214 
218 
216 
216 
214 
215 
218 
218 
216 
215 
218 
217 
216 
216 
216 
216 
217 
217 
217 
217 
217 
217 
217 
217 
217 
217 
217 
218 
218 
218 
217 
217 
217 
217 
217 
216 
217 
217 
217 
217 
217 
218 
218 
220 
219 
217 
217 
216 
217 
194 
195 
213 
210 
176 
148 
137 
193 
188 
164 
150 
176 
204 
192 
166 
159 
196 
196 
171 
182 
194 
174 
158 
211 
221 
216 
214 
208 
221 
223 
216 
217 
214 
218 
218 
213 
213 
217 
215 
212 
215 
220 
222 
219 
216 
222 
222 
219 
221 
214 
216 
213 
220 
212 
203 
182 
160 
184 
165 
72 
32 
69 
78 
79 
84 
58 
61 
57 
56 
71 
77 
80 
69 
65 
69 
72 
86 
85 
73 
72 
73 
74 
65 
57 
60 
61 
62 
79 
90 
87 
99 
112 
115 
83 
77 
84 
90 
87 
91 
120 
169 
209 
214 
208 
206 
200 
204 
225 
217 
205 
222 
215 
215 
218 
217 
215 
215 
217 
217 
216 
216 
218 
217 
217 
217 
216 
217 
217 
217 
218 
217 
217 
217 
217 
217 
217 
217 
217 
218 
218 
217 
217 
217 
217 
217 
217 
217 
218 
218 
218 
217 
217 
217 
218 
215 
214 
209 
205 
204 
215 
207 
220 
221 
211 
166 
174 
195 
176 
150 
157 
187 
199 
192 
170 
163 
225 
210 
190 
190 
211 
213 
192 
188 
210 
215 
213 
214 
211 
224 
222 
215 
219 
217 
219 
220 
215 
216 
217 
214 
215 
220 
220 
218 
216 
214 
219 
217 
215 
220 
216 
216 
224 
219 
212 
211 
208 
168 
200 
166 
63 
45 
69 
96 
102 
103 
69 
65 
57 
54 
73 
79 
79 
68 
68 
83 
83 
91 
82 
71 
75 
74 
69 
66 
71 
78 
72 
61 
72 
92 
94 
101 
117 
113 
81 
79 
74 
82 
105 
138 
180 
214 
220 
216 
209 
206 
214 
226 
215 
216 
213 
220 
219 
214 
217 
217 
216 
215 
216 
216 
216 
216 
217 
216 
216 
216 
216 
216 
216 
217 
217 
217 
217 
217 
217 
217 
217 
217 
217 
218 
218 
217 
217 
217 
217 
217 
218 
217 
218 
218 
217 
217 
216 
216 
217 
218 
222 
225 
223 
218 
215 
205 
208 
211 
215 
207 
212 
221 
135 
176 
210 
215 
193 
193 
196 
199 
210 
215 
201 
191 
212 
201 
210 
226 
207 
218 
218 
220 
217 
218 
214 
212 
217 
218 
217 
217 
216 
218 
219 
217 
220 
222 
219 
219 
216 
211 
212 
209 
209 
218 
218 
213 
212 
217 
211 
213 
217 
197 
215 
166 
107 
100 
102 
151 
159 
153 
124 
103 
72 
50 
66 
79 
82 
75 
77 
88 
87 
92 
81 
68 
71 
69 
63 
73 
99 
121 
120 
99 
94 
106 
107 
103 
109 
92 
84 
93 
109 
123 
167 
200 
213 
213 
204 
214 
217 
212 
225 
221 
206 
213 
211 
211 
220 
217 
215 
216 
216 
215 
215 
215 
215 
216 
216 
216 
216 
216 
216 
216 
216 
216 
217 
217 
217 
217 
217 
217 
217 
217 
217 
218 
218 
217 
217 
217 
217 
218 
218 
218 
218 
217 
217 
217 
217 
217 
217 
220 
215 
211 
215 
221 
220 
220 
210 
211 
208 
224 
209 
192 
196 
200 
203 
205 
223 
203 
218 
226 
209 
217 
213 
199 
208 
207 
218 
227 
214 
223 
222 
220 
220 
212 
212 
216 
215 
216 
215 
216 
216 
217 
218 
219 
219 
219 
218 
218 
218 
218 
222 
218 
213 
217 
214 
216 
211 
217 
217 
214 
212 
209 
219 
188 
175 
171 
167 
205 
199 
199 
176 
147 
94 
54 
69 
87 
91 
79 
80 
79 
77 
86 
82 
70 
71 
76 
80 
106 
140 
167 
177 
167 
154 
153 
146 
128 
136 
129 
134 
166 
208 
204 
198 
215 
216 
217 
215 
223 
224 
211 
214 
221 
218 
219 
217 
213 
217 
217 
214 
216 
216 
216 
216 
216 
216 
216 
216 
216 
216 
216 
216 
216 
216 
217 
217 
217 
217 
217 
217 
217 
217 
217 
216 
218 
218 
217 
217 
217 
218 
218 
218 
219 
218 
218 
218 
219 
219 
219 
218 
216 
218 
220 
215 
208 
199 
218 
216 
217 
210 
216 
221 
215 
214 
216 
223 
219 
211 
202 
209 
228 
219 
215 
212 
211 
202 
229 
222 
207 
214 
210 
217 
215 
221 
213 
220 
225 
215 
215 
215 
219 
218 
216 
217 
219 
217 
216 
219 
219 
218 
216 
219 
216 
214 
221 
220 
211 
219 
212 
216 
216 
221 
214 
215 
208 
210 
208 
214 
224 
206 
226 
207 
194 
142 
103 
118 
129 
121 
103 
102 
104 
95 
105 
112 
109 
114 
124 
135 
159 
188 
204 
212 
206 
192 
188 
180 
188 
175 
190 
203 
214 
206 
201 
200 
213 
223 
230 
210 
202 
215 
216 
214 
211 
219 
213 
220 
220 
211 
215 
219 
216 
216 
217 
216 
216 
216 
216 
215 
216 
216 
216 
216 
216 
216 
217 
217 
217 
217 
217 
217 
217 
217 
216 
216 
218 
218 
218 
218 
218 
218 
218 
218 
218 
218 
218 
218 
218 
218 
218 
218 
220 
220 
220 
220 
219 
218 
217 
217 
215 
216 
216 
216 
216 
215 
215 
215 
219 
218 
216 
214 
212 
211 
210 
210 
219 
216 
214 
215 
218 
219 
217 
215 
219 
219 
218 
217 
216 
216 
215 
215 
216 
216 
216 
216 
216 
216 
216 
217 
215 
216 
216 
215 
216 
218 
219 
217 
212 
213 
215 
216 
216 
214 
213 
211 
220 
213 
218 
218 
209 
213 
219 
208 
212 
193 
177 
176 
179 
179 
179 
182 
184 
176 
178 
186 
183 
175 
181 
198 
212 
215 
216 
214 
212 
208 
203 
198 
212 
215 
218 
216 
212 
213 
218 
224 
201 
205 
211 
216 
219 
219 
218 
217 
212 
213 
213 
214 
215 
216 
216 
216 
215 
216 
216 
216 
216 
216 
216 
216 
216 
216 
216 
216 
216 
217 
217 
218 
217 
217 
217 
217 
217 
217 
217 
217 
218 
218 
218 
218 
218 
218 
218 
218 
218 
218 
218 
218 
218 
218 
218 
218 
219 
219 
219 
219 
218 
217 
217 
216 
216 
216 
216 
216 
216 
215 
215 
215 
215 
215 
214 
214 
213 
214 
214 
214 
218 
216 
214 
215 
217 
218 
217 
216 
218 
218 
217 
217 
216 
216 
216 
216 
216 
216 
216 
216 
216 
216 
217 
217 
217 
217 
216 
215 
216 
218 
218 
216 
214 
215 
215 
215 
215 
215 
214 
214 
216 
212 
216 
217 
212 
216 
220 
213 
217 
208 
202 
205 
208 
208 
209 
211 
211 
208 
209 
213 
213 
211 
214 
222 
215 
217 
218 
217 
216 
215 
212 
209 
212 
213 
213 
212 
211 
212 
215 
217 
214 
214 
215 
215 
216 
216 
216 
216 
216 
216 
216 
216 
216 
215 
215 
215 
215 
215 
215 
215 
215 
216 
216 
216 
216 
216 
216 
216 
216 
217 
217 
218 
217 
217 
217 
217 
217 
217 
217 
217 
218 
218 
218 
218 
218 
218 
218 
218 
218 
218 
218 
218 
218 
218 
218 
218 
218 
218 
218 
218 
217 
216 
216 
215 
216 
216 
216 
216 
216 
216 
215 
215 
213 
213 
213 
214 
215 
216 
217 
218 
217 
216 
216 
216 
217 
217 
217 
217 
217 
217 
217 
216 
217 
217 
217 
218 
217 
217 
217 
216 
217 
217 
217 
218 
218 
218 
217 
216 
216 
217 
217 
215 
217 
216 
215 
215 
215 
215 
216 
216 
213 
214 
215 
215 
215 
217 
218 
216 
215 
214 
216 
218 
219 
218 
218 
219 
217 
217 
216 
215 
216 
218 
217 
215 
217 
218 
218 
217 
217 
218 
218 
217 
216 
214 
213 
213 
214 
215 
215 
214 
218 
217 
215 
214 
215 
216 
218 
219 
218 
218 
218 
217 
216 
216 
215 
214 
215 
215 
215 
215 
215 
215 
215 
215 
216 
216 
216 
216 
216 
217 
217 
218 
217 
217 
217 
217 
217 
217 
217 
217 
219 
219 
218 
218 
218 
218 
218 
218 
218 
218 
218 
218 
218 
218 
218 
218 
218 
218 
218 
217 
217 
216 
216 
215 
216 
216 
216 
216 
216 
216 
216 
215 
215 
215 
214 
214 
215 
216 
217 
217 
216 
216 
217 
216 
216 
216 
217 
218 
217 
216 
216 
216 
217 
217 
218 
218 
217 
217 
217 
217 
217 
217 
218 
218 
219 
219 
218 
216 
216 
217 
217 
215 
217 
216 
215 
215 
215 
215 
216 
216 
213 
217 
215 
213 
216 
215 
213 
215 
215 
218 
219 
218 
215 
215 
216 
217 
220 
221 
219 
217 
217 
220 
218 
214 
218 
217 
217 
216 
215 
216 
217 
217 
218 
216 
215 
215 
217 
217 
216 
215 
214 
214 
215 
215 
216 
217 
218 
218 
217 
217 
217 
217 
217 
217 
216 
216 
215 
215 
215 
215 
215 
216 
216 
216 
216 
216 
216 
216 
216 
217 
217 
218 
217 
217 
217 
217 
217 
217 
217 
217 
219 
219 
219 
219 
218 
218 
218 
218 
218 
218 
218 
218 
218 
218 
218 
218 
218 
218 
218 
218 
218 
217 
216 
216 
216 
216 
217 
217 
217 
216 
216 
216 
216 
216 
215 
215 
215 
215 
216 
216 
216 
217 
217 
217 
216 
216 
217 
218 
217 
217 
217 
217 
217 
217 
217 
217 
217 
217 
217 
217 
217 
217 
218 
218 
219 
219 
218 
216 
216 
218 
217 
215 
216 
216 
215 
215 
215 
215 
215 
215 
214 
219 
215 
213 
216 
212 
208 
213 
212 
215 
216 
214 
213 
215 
216 
216 
212 
212 
213 
213 
214 
215 
217 
217 
219 
218 
217 
217 
217 
216 
216 
217 
216 
216 
216 
216 
216 
216 
215 
215 
215 
215 
216 
216 
216 
216 
215 
215 
216 
216 
217 
217 
217 
217 
216 
216 
216 
216 
216 
216 
216 
216 
216 
216 
216 
216 
216 
216 
216 
217 
217 
218 
217 
217 
217 
217 
217 
217 
217 
217 
