P2
# Created by MsrVolt
54 66
255
208 
208 
208 
208 
208 
208 
208 
208 
208 
209 
209 
209 
209 
209 
209 
209 
208 
208 
208 
208 
208 
208 
208 
207 
208 
209 
210 
209 
208 
208 
209 
211 
210 
211 
212 
212 
212 
211 
209 
208 
208 
209 
210 
210 
211 
210 
210 
210 
210 
209 
209 
209 
210 
210 
208 
208 
208 
208 
208 
208 
208 
208 
208 
209 
209 
209 
209 
209 
209 
209 
209 
208 
208 
208 
208 
208 
208 
208 
208 
209 
210 
210 
210 
210 
212 
213 
210 
210 
210 
210 
210 
210 
210 
210 
211 
210 
210 
210 
210 
210 
210 
210 
210 
209 
209 
209 
210 
210 
208 
208 
208 
208 
208 
208 
208 
208 
208 
209 
209 
209 
209 
209 
209 
209 
209 
209 
209 
208 
208 
208 
208 
208 
208 
209 
210 
210 
210 
210 
211 
212 
210 
209 
209 
208 
209 
210 
211 
212 
212 
212 
211 
210 
210 
210 
210 
211 
210 
209 
209 
209 
210 
210 
208 
208 
208 
208 
208 
208 
208 
208 
208 
209 
209 
209 
209 
209 
209 
209 
209 
209 
209 
209 
209 
209 
209 
209 
208 
208 
209 
209 
209 
209 
208 
208 
210 
209 
209 
208 
209 
210 
211 
212 
211 
211 
210 
210 
210 
210 
210 
211 
210 
209 
209 
209 
210 
210 
208 
208 
208 
208 
208 
208 
208 
208 
208 
209 
209 
209 
209 
209 
209 
209 
209 
209 
209 
209 
209 
209 
209 
209 
209 
209 
209 
209 
210 
210 
209 
209 
212 
211 
211 
211 
210 
210 
210 
209 
209 
209 
210 
210 
210 
210 
210 
210 
210 
209 
209 
209 
210 
210 
208 
208 
208 
208 
208 
208 
208 
208 
208 
209 
209 
209 
209 
209 
209 
209 
209 
209 
209 
210 
210 
210 
210 
210 
211 
210 
209 
210 
211 
212 
212 
212 
213 
213 
213 
212 
211 
209 
208 
207 
208 
209 
210 
210 
211 
210 
210 
209 
210 
209 
209 
209 
210 
210 
208 
208 
208 
208 
208 
208 
208 
208 
208 
209 
209 
209 
209 
209 
209 
209 
209 
210 
210 
210 
210 
210 
210 
210 
210 
208 
207 
207 
208 
210 
210 
210 
210 
210 
211 
211 
211 
210 
210 
209 
210 
210 
210 
210 
210 
210 
210 
210 
210 
209 
209 
209 
210 
210 
208 
208 
208 
208 
208 
208 
208 
208 
208 
209 
209 
209 
209 
209 
209 
209 
210 
210 
210 
210 
210 
210 
210 
211 
208 
206 
204 
203 
204 
205 
206 
205 
206 
207 
208 
209 
210 
212 
213 
213 
212 
211 
211 
210 
210 
210 
210 
211 
210 
209 
209 
209 
210 
210 
209 
209 
208 
208 
208 
208 
208 
208 
208 
205 
207 
208 
207 
210 
214 
211 
213 
208 
218 
210 
213 
213 
207 
211 
206 
197 
208 
162 
194 
196 
201 
200 
149 
133 
214 
159 
127 
180 
220 
233 
204 
217 
206 
212 
213 
199 
209 
218 
203 
208 
212 
213 
210 
209 
209 
209 
208 
208 
208 
208 
208 
208 
212 
210 
202 
206 
218 
214 
203 
204 
214 
208 
216 
209 
214 
203 
170 
193 
194 
173 
159 
134 
184 
166 
167 
177 
131 
134 
167 
86 
62 
119 
177 
219 
205 
212 
209 
208 
212 
210 
210 
213 
209 
210 
211 
211 
211 
210 
209 
209 
208 
208 
208 
208 
208 
208 
208 
205 
203 
207 
212 
209 
206 
209 
219 
211 
211 
199 
203 
186 
131 
179 
176 
152 
157 
149 
160 
124 
158 
180 
98 
133 
138 
71 
52 
74 
127 
203 
225 
211 
207 
209 
215 
215 
206 
207 
214 
212 
210 
210 
211 
212 
209 
209 
208 
208 
208 
208 
208 
208 
205 
201 
213 
214 
197 
204 
219 
213 
188 
174 
167 
147 
151 
153 
114 
179 
171 
152 
171 
157 
139 
103 
140 
152 
80 
129 
119 
87 
82 
75 
103 
170 
193 
203 
215 
215 
210 
209 
207 
203 
214 
212 
210 
210 
211 
212 
209 
209 
208 
208 
208 
208 
208 
208 
208 
208 
215 
213 
205 
207 
196 
167 
129 
117 
112 
98 
109 
130 
131 
187 
155 
141 
145 
115 
120 
99 
96 
79 
86 
116 
86 
72 
85 
84 
93 
115 
109 
181 
224 
221 
201 
203 
219 
205 
211 
211 
211 
211 
211 
211 
209 
209 
208 
208 
208 
208 
208 
208 
208 
214 
200 
202 
222 
194 
124 
80 
72 
68 
73 
83 
106 
109 
132 
151 
108 
103 
120 
93 
92 
86 
86 
57 
87 
93 
76 
82 
91 
81 
78 
75 
81 
154 
201 
217 
209 
205 
221 
213 
208 
210 
212 
212 
211 
210 
209 
209 
208 
208 
208 
208 
208 
208 
207 
211 
194 
202 
219 
154 
57 
23 
41 
41 
43 
79 
118 
81 
111 
95 
82 
77 
105 
99 
84 
71 
96 
74 
74 
72 
86 
103 
98 
77 
74 
74 
103 
122 
151 
199 
225 
213 
209 
215 
209 
211 
212 
212 
211 
210 
209 
209 
208 
208 
208 
208 
208 
208 
208 
208 
204 
216 
205 
117 
32 
20 
55 
48 
35 
85 
140 
79 
119 
92 
100 
84 
77 
88 
101 
71 
81 
64 
66 
64 
86 
88 
80 
77 
87 
88 
105 
94 
116 
178 
228 
222 
200 
209 
211 
211 
212 
212 
211 
211 
209 
208 
207 
208 
209 
208 
206 
205 
207 
204 
212 
199 
161 
104 
54 
52 
92 
68 
63 
93 
99 
86 
93 
95 
83 
89 
89 
82 
76 
73 
66 
58 
54 
61 
70 
77 
82 
84 
84 
82 
83 
90 
100 
164 
226 
224 
208 
210 
212 
211 
209 
209 
209 
210 
209 
208 
207 
208 
208 
208 
207 
207 
204 
206 
200 
183 
158 
111 
64 
55 
58 
56 
60 
78 
86 
79 
79 
84 
84 
85 
89 
91 
88 
80 
70 
65 
61 
61 
64 
72 
81 
86 
88 
87 
87 
90 
87 
101 
154 
208 
219 
212 
213 
213 
212 
212 
212 
211 
209 
209 
208 
207 
207 
208 
209 
209 
211 
208 
196 
183 
165 
117 
64 
46 
37 
57 
71 
74 
82 
82 
74 
82 
87 
83 
84 
87 
81 
67 
61 
63 
69 
61 
57 
63 
74 
83 
87 
89 
82 
84 
81 
68 
113 
201 
227 
209 
210 
211 
211 
212 
212 
212 
209 
209 
208 
206 
206 
208 
209 
210 
214 
195 
191 
175 
153 
116 
61 
40 
51 
71 
89 
81 
81 
85 
75 
77 
89 
82 
77 
73 
63 
52 
53 
62 
69 
60 
54 
58 
66 
73 
79 
84 
79 
85 
91 
84 
110 
173 
209 
212 
211 
211 
211 
211 
211 
212 
208 
209 
208 
205 
206 
208 
210 
209 
204 
181 
182 
140 
112 
117 
78 
46 
74 
77 
90 
81 
72 
77 
70 
65 
82 
76 
70 
65 
61 
59 
62 
66 
62 
61 
62 
65 
67 
68 
73 
79 
87 
97 
99 
103 
107 
131 
185 
224 
213 
214 
214 
214 
213 
212 
208 
209 
207 
205 
206 
209 
209 
206 
200 
183 
174 
110 
83 
117 
94 
53 
79 
70 
76 
74 
66 
71 
72 
64 
70 
67 
64 
64 
68 
70 
66 
61 
57 
64 
73 
76 
74 
72 
74 
77 
87 
94 
95 
109 
116 
135 
190 
227 
206 
209 
213 
215 
215 
213 
208 
208 
206 
204 
207 
210 
208 
203 
199 
172 
138 
95 
81 
95 
86 
66 
73 
69 
64 
67 
70 
71 
76 
73 
61 
63 
65 
66 
66 
63 
60 
57 
62 
71 
78 
78 
76 
78 
79 
80 
81 
79 
89 
103 
116 
157 
203 
216 
205 
208 
212 
214 
213 
213 
208 
208 
206 
204 
207 
211 
207 
200 
192 
141 
83 
78 
82 
63 
67 
86 
70 
75 
61 
64 
73 
69 
73 
75 
58 
65 
71 
69 
59 
52 
56 
63 
71 
76 
77 
72 
72 
79 
83 
82 
82 
70 
89 
87 
90 
149 
199 
206 
217 
217 
217 
214 
212 
211 
209 
207 
206 
210 
207 
205 
201 
182 
166 
109 
80 
70 
70 
72 
61 
66 
64 
68 
69 
72 
76 
72 
63 
58 
60 
61 
64 
69 
68 
57 
55 
65 
74 
72 
73 
78 
82 
82 
82 
83 
81 
82 
85 
92 
128 
183 
177 
218 
214 
214 
215 
214 
213 
212 
209 
206 
204 
211 
211 
208 
198 
172 
152 
103 
76 
67 
68 
69 
58 
66 
65 
70 
69 
68 
71 
71 
68 
69 
71 
67 
59 
59 
63 
62 
60 
63 
74 
74 
75 
76 
75 
73 
73 
76 
78 
83 
77 
116 
158 
161 
189 
209 
214 
214 
215 
214 
213 
213 
208 
206 
205 
210 
210 
208 
199 
174 
152 
106 
74 
64 
71 
71 
57 
63 
67 
70 
67 
66 
71 
73 
72 
72 
74 
69 
58 
53 
58 
63 
63 
64 
69 
70 
74 
78 
80 
80 
80 
82 
84 
92 
76 
135 
178 
142 
201 
208 
214 
214 
215 
214 
213 
213 
207 
209 
207 
208 
204 
204 
201 
180 
160 
114 
74 
63 
76 
76 
59 
61 
70 
71 
67 
67 
74 
77 
71 
66 
68 
68 
64 
60 
61 
62 
63 
66 
67 
68 
72 
79 
85 
88 
87 
85 
83 
92 
80 
127 
169 
152 
194 
212 
214 
214 
215 
214 
213 
213 
207 
210 
209 
207 
202 
199 
191 
165 
142 
105 
70 
63 
76 
75 
63 
64 
76 
77 
72 
67 
72 
75 
71 
68 
72 
72 
70 
70 
69 
63 
61 
66 
71 
73 
75 
76 
77 
78 
78 
78 
80 
82 
81 
100 
141 
178 
175 
210 
213 
214 
214 
214 
213 
213 
208 
210 
208 
208 
204 
196 
174 
135 
105 
83 
65 
64 
71 
70 
67 
72 
78 
82 
76 
67 
66 
71 
76 
79 
84 
78 
72 
72 
73 
66 
61 
64 
70 
76 
80 
76 
71 
71 
78 
84 
93 
82 
79 
83 
120 
182 
168 
209 
213 
214 
214 
214 
213 
213 
208 
210 
208 
208 
204 
195 
168 
125 
90 
76 
68 
71 
70 
67 
72 
76 
72 
77 
73 
66 
69 
76 
80 
82 
84 
78 
68 
63 
66 
65 
62 
62 
65 
73 
79 
78 
75 
78 
85 
90 
98 
86 
80 
102 
128 
153 
183 
215 
213 
214 
214 
214 
213 
213 
207 
211 
209 
206 
200 
194 
173 
135 
100 
84 
75 
78 
73 
69 
75 
75 
64 
68 
66 
67 
78 
86 
82 
75 
73 
73 
64 
55 
57 
61 
62 
62 
63 
68 
74 
77 
81 
83 
83 
80 
80 
82 
82 
137 
153 
124 
202 
220 
213 
214 
214 
214 
213 
213 
208 
207 
201 
215 
200 
196 
177 
121 
73 
68 
90 
76 
68 
70 
72 
77 
66 
68 
70 
73 
79 
83 
79 
72 
69 
61 
53 
56 
65 
68 
68 
71 
78 
76 
84 
82 
77 
81 
81 
79 
96 
106 
113 
158 
158 
179 
203 
194 
225 
216 
210 
212 
213 
212 
207 
209 
203 
214 
199 
188 
164 
108 
74 
98 
132 
112 
79 
71 
73 
72 
70 
71 
73 
77 
81 
82 
79 
75 
68 
63 
58 
62 
70 
69 
66 
68 
71 
66 
84 
85 
69 
71 
82 
85 
95 
106 
165 
144 
156 
187 
184 
215 
206 
212 
217 
217 
213 
211 
209 
212 
201 
211 
200 
191 
168 
118 
94 
117 
140 
128 
87 
70 
71 
73 
73 
73 
75 
77 
76 
73 
70 
68 
69 
67 
65 
70 
77 
75 
70 
72 
73 
68 
75 
76 
77 
85 
83 
77 
80 
123 
154 
119 
179 
185 
153 
217 
209 
214 
216 
213 
212 
214 
208 
213 
200 
211 
205 
196 
173 
126 
110 
126 
120 
108 
84 
73 
68 
70 
73 
73 
74 
75 
72 
67 
65 
66 
71 
70 
68 
70 
75 
73 
70 
72 
75 
74 
74 
73 
82 
82 
72 
78 
108 
128 
98 
136 
181 
157 
166 
211 
215 
214 
212 
209 
211 
214 
207 
213 
203 
215 
206 
193 
166 
118 
109 
131 
105 
79 
75 
83 
70 
60 
71 
72 
74 
75 
73 
72 
72 
74 
73 
70 
65 
63 
66 
66 
66 
70 
75 
75 
88 
87 
71 
64 
79 
107 
146 
106 
104 
169 
145 
148 
206 
211 
210 
211 
213 
215 
213 
210 
208 
212 
203 
214 
202 
193 
178 
137 
125 
122 
91 
68 
75 
86 
71 
59 
72 
72 
72 
70 
71 
73 
74 
74 
70 
69 
63 
61 
67 
70 
71 
74 
80 
76 
98 
92 
70 
97 
130 
128 
108 
100 
148 
145 
140 
183 
193 
205 
221 
215 
213 
215 
214 
211 
210 
211 
203 
212 
197 
200 
206 
178 
159 
126 
110 
93 
86 
83 
74 
69 
75 
75 
71 
66 
68 
74 
75 
70 
66 
66 
63 
64 
70 
72 
69 
69 
73 
77 
91 
84 
89 
133 
148 
120 
76 
117 
139 
119 
167 
184 
161 
211 
224 
217 
211 
210 
213 
214 
208 
210 
207 
216 
196 
202 
218 
195 
180 
150 
161 
133 
94 
82 
82 
74 
78 
78 
73 
67 
72 
81 
82 
75 
63 
65 
63 
63 
67 
64 
55 
51 
52 
71 
81 
82 
105 
120 
110 
107 
113 
127 
96 
144 
176 
134 
168 
237 
201 
209 
215 
213 
211 
212 
210 
210 
209 
207 
209 
210 
204 
195 
186 
167 
190 
124 
97 
126 
92 
65 
86 
80 
67 
56 
67 
81 
75 
74 
83 
88 
79 
63 
57 
51 
45 
47 
57 
60 
80 
102 
110 
101 
103 
119 
127 
87 
110 
138 
115 
133 
195 
214 
211 
211 
212 
212 
212 
212 
210 
210 
208 
207 
209 
211 
205 
197 
185 
172 
163 
125 
126 
135 
107 
83 
68 
74 
81 
69 
65 
81 
95 
104 
116 
114 
96 
76 
67 
60 
55 
57 
58 
53 
62 
74 
85 
111 
133 
130 
92 
89 
133 
104 
127 
202 
212 
215 
212 
212 
212 
212 
212 
212 
209 
209 
208 
207 
209 
211 
207 
200 
194 
189 
151 
132 
138 
109 
99 
104 
81 
87 
100 
89 
71 
75 
91 
103 
112 
104 
86 
70 
66 
62 
55 
51 
48 
44 
39 
60 
103 
123 
120 
110 
98 
141 
154 
122 
158 
223 
215 
211 
213 
213 
212 
212 
212 
212 
208 
208 
207 
207 
209 
211 
208 
203 
202 
198 
167 
157 
155 
102 
85 
106 
103 
100 
102 
92 
79 
74 
71 
75 
80 
74 
65 
61 
64 
63 
54 
45 
40 
42 
42 
99 
138 
114 
89 
93 
129 
187 
150 
187 
206 
200 
215 
210 
214 
213 
213 
212 
212 
212 
207 
208 
208 
208 
210 
210 
208 
205 
200 
190 
186 
178 
186 
150 
101 
98 
98 
100 
92 
75 
77 
80 
69 
65 
75 
74 
72 
69 
65 
63 
60 
57 
52 
55 
75 
136 
126 
88 
90 
100 
127 
165 
152 
208 
225 
206 
220 
215 
214 
213 
213 
212 
212 
212 
207 
208 
209 
210 
210 
210 
208 
206 
204 
189 
191 
170 
185 
183 
132 
112 
98 
105 
95 
68 
68 
83 
79 
71 
85 
85 
82 
70 
53 
50 
60 
68 
72 
79 
79 
117 
98 
79 
99 
100 
121 
142 
187 
180 
198 
221 
211 
216 
212 
212 
212 
212 
212 
212 
208 
209 
210 
211 
211 
209 
207 
206 
209 
200 
193 
173 
182 
178 
155 
147 
122 
107 
97 
80 
69 
82 
86 
77 
82 
76 
70 
57 
43 
48 
68 
81 
86 
95 
81 
111 
89 
82 
114 
117 
142 
175 
197 
183 
193 
216 
201 
214 
211 
211 
212 
212 
212 
212 
208 
209 
211 
212 
211 
208 
206 
205 
206 
207 
198 
201 
208 
177 
168 
175 
141 
93 
86 
92 
79 
84 
91 
83 
73 
61 
54 
51 
50 
67 
90 
99 
92 
98 
112 
151 
89 
77 
146 
163 
163 
218 
166 
219 
230 
209 
210 
216 
210 
210 
211 
212 
212 
212 
208 
208 
208 
208 
208 
208 
208 
208 
207 
210 
206 
200 
198 
194 
173 
148 
133 
135 
128 
106 
103 
115 
96 
64 
49 
57 
46 
69 
82 
108 
124 
93 
91 
101 
118 
108 
123 
172 
196 
187 
192 
201 
203 
210 
215 
211 
211 
210 
215 
215 
213 
212 
212 
212 
208 
208 
208 
208 
208 
208 
208 
208 
209 
210 
207 
202 
203 
206 
199 
187 
170 
158 
130 
124 
133 
107 
62 
42 
55 
54 
64 
94 
109 
121 
104 
74 
118 
97 
97 
134 
159 
157 
182 
190 
173 
200 
213 
214 
215 
215 
216 
209 
213 
212 
211 
211 
211 
211 
208 
208 
208 
208 
208 
208 
208 
208 
209 
210 
210 
206 
205 
205 
203 
199 
192 
179 
159 
156 
135 
95 
76 
68 
56 
60 
73 
111 
112 
108 
120 
115 
112 
109 
94 
171 
155 
167 
204 
143 
199 
212 
216 
219 
218 
210 
208 
205 
212 
212 
211 
211 
211 
211 
208 
208 
208 
208 
208 
208 
208 
208 
209 
209 
209 
208 
204 
199 
197 
197 
199 
193 
185 
185 
147 
104 
110 
117 
68 
97 
148 
119 
95 
149 
150 
106 
97 
107 
170 
150 
171 
192 
163 
171 
202 
208 
207 
213 
216 
210 
212 
215 
214 
214 
213 
212 
212 
212 
208 
208 
208 
208 
208 
208 
208 
208 
210 
208 
207 
208 
207 
205 
205 
208 
207 
205 
187 
198 
188 
139 
130 
147 
151 
165 
146 
142 
162 
139 
113 
124 
137 
126 
153 
166 
200 
175 
150 
188 
179 
202 
209 
208 
208 
210 
216 
214 
214 
213 
213 
212 
212 
212 
208 
208 
208 
208 
208 
208 
208 
208 
209 
207 
208 
212 
213 
211 
208 
208 
208 
207 
194 
196 
191 
172 
175 
185 
167 
169 
180 
158 
163 
161 
131 
130 
150 
114 
93 
191 
183 
180 
206 
150 
197 
211 
212 
211 
210 
207 
209 
206 
211 
211 
211 
211 
211 
212 
208 
208 
208 
208 
208 
208 
208 
208 
207 
207 
209 
211 
212 
209 
204 
201 
202 
206 
209 
198 
184 
193 
210 
209 
188 
177 
170 
176 
177 
147 
155 
182 
112 
71 
137 
169 
183 
222 
212 
181 
215 
214 
207 
212 
216 
211 
212 
213 
210 
210 
211 
211 
212 
212 
208 
208 
208 
208 
208 
208 
208 
208 
208 
207 
205 
204 
205 
208 
210 
210 
205 
211 
209 
204 
212 
209 
194 
195 
216 
208 
202 
195 
202 
177 
160 
163 
113 
102 
146 
199 
219 
213 
209 
217 
205 
218 
214 
209 
209 
211 
214 
211 
212 
212 
213 
213 
212 
212 
208 
208 
208 
208 
208 
208 
208 
208 
208 
208 
208 
208 
208 
208 
208 
208 
208 
209 
209 
209 
209 
209 
209 
209 
206 
204 
202 
200 
197 
190 
180 
173 
166 
167 
185 
211 
222 
214 
206 
207 
212 
211 
211 
210 
210 
211 
212 
212 
211 
211 
212 
212 
212 
212 
208 
208 
208 
208 
208 
208 
208 
208 
208 
208 
208 
208 
208 
208 
208 
208 
208 
209 
209 
209 
209 
209 
209 
209 
209 
209 
208 
207 
205 
202 
199 
197 
196 
199 
207 
215 
215 
209 
207 
210 
212 
212 
212 
212 
212 
211 
211 
211 
212 
212 
212 
212 
212 
212 
208 
208 
208 
208 
208 
208 
208 
208 
208 
208 
208 
208 
208 
208 
208 
208 
208 
209 
209 
209 
209 
209 
209 
209 
208 
209 
210 
208 
207 
207 
211 
214 
219 
222 
220 
214 
209 
210 
212 
212 
210 
211 
212 
212 
212 
212 
211 
210 
212 
212 
212 
212 
212 
212 
208 
208 
208 
208 
208 
208 
208 
208 
208 
208 
208 
208 
208 
208 
208 
208 
208 
209 
209 
209 
209 
209 
209 
209 
209 
209 
209 
207 
206 
207 
211 
215 
216 
216 
212 
208 
210 
215 
215 
211 
209 
209 
210 
211 
211 
211 
211 
211 
212 
212 
212 
212 
212 
212 
208 
208 
208 
208 
208 
208 
208 
208 
208 
208 
208 
208 
208 
208 
208 
208 
208 
209 
209 
209 
209 
209 
209 
209 
212 
211 
211 
210 
210 
210 
211 
212 
207 
205 
205 
207 
211 
213 
212 
211 
211 
211 
211 
210 
211 
211 
212 
212 
212 
212 
212 
212 
212 
211 
208 
208 
208 
208 
208 
208 
208 
208 
208 
208 
208 
208 
208 
208 
208 
208 
208 
209 
209 
209 
209 
209 
209 
209 
209 
209 
209 
210 
212 
212 
211 
209 
208 
208 
210 
213 
210 
207 
208 
212 
215 
214 
213 
212 
211 
211 
211 
212 
211 
211 
211 
211 
211 
211 
208 
208 
208 
208 
208 
208 
208 
208 
208 
208 
208 
208 
208 
208 
208 
208 
208 
209 
209 
209 
209 
209 
209 
209 
207 
207 
207 
209 
210 
210 
209 
208 
212 
213 
214 
214 
212 
209 
209 
213 
213 
213 
212 
212 
212 
211 
211 
211 
211 
210 
210 
210 
210 
210 
208 
208 
208 
208 
208 
208 
208 
208 
208 
208 
208 
208 
208 
208 
208 
208 
208 
209 
209 
209 
209 
209 
209 
209 
210 
211 
211 
210 
210 
210 
210 
210 
211 
211 
211 
212 
215 
216 
215 
212 
208 
209 
210 
211 
211 
211 
211 
211 
210 
210 
210 
210 
210 
209 
208 
208 
208 
208 
208 
208 
208 
208 
209 
209 
210 
210 
210 
210 
210 
210 
210 
210 
210 
210 
210 
210 
210 
210 
210 
210 
210 
210 
210 
210 
211 
211 
211 
210 
210 
210 
211 
211 
212 
212 
212 
212 
212 
212 
212 
212 
212 
212 
212 
212 
212 
212 
212 
212 
208 
208 
208 
208 
208 
208 
208 
208 
209 
209 
210 
210 
210 
210 
210 
210 
210 
210 
210 
210 
210 
210 
210 
210 
210 
210 
210 
210 
210 
210 
211 
211 
211 
210 
210 
210 
211 
211 
212 
212 
212 
212 
212 
212 
212 
212 
212 
212 
212 
212 
212 
212 
212 
212 
