P2
# Created by MsrVolt
106 71
255
211 
211 
211 
211 
211 
211 
210 
210 
212 
209 
209 
209 
209 
214 
213 
206 
209 
211 
210 
202 
206 
207 
206 
211 
207 
215 
207 
202 
215 
217 
210 
212 
208 
211 
217 
212 
203 
205 
207 
218 
214 
205 
208 
212 
216 
204 
212 
206 
211 
209 
212 
213 
208 
211 
215 
208 
210 
211 
211 
210 
210 
211 
211 
211 
212 
212 
212 
212 
212 
212 
212 
212 
213 
214 
214 
214 
214 
214 
214 
214 
214 
214 
214 
214 
214 
214 
214 
214 
214 
214 
214 
214 
214 
214 
214 
214 
214 
214 
214 
214 
214 
214 
214 
214 
213 
212 
211 
211 
211 
211 
211 
210 
210 
210 
207 
212 
210 
212 
206 
204 
214 
211 
215 
208 
209 
218 
215 
208 
211 
208 
201 
212 
215 
208 
206 
212 
216 
214 
203 
209 
203 
216 
211 
205 
222 
211 
208 
217 
209 
202 
208 
206 
213 
222 
200 
210 
214 
205 
214 
219 
207 
216 
211 
212 
211 
211 
211 
211 
211 
210 
212 
212 
212 
212 
212 
212 
212 
212 
213 
214 
214 
214 
214 
214 
214 
214 
214 
214 
214 
214 
214 
214 
214 
214 
214 
214 
214 
214 
214 
214 
214 
214 
214 
214 
214 
214 
214 
214 
214 
214 
214 
213 
210 
210 
210 
210 
210 
210 
209 
209 
212 
209 
210 
211 
208 
209 
211 
211 
205 
214 
203 
218 
214 
199 
213 
212 
212 
210 
210 
215 
215 
207 
204 
211 
217 
208 
210 
210 
212 
215 
210 
202 
220 
207 
207 
209 
204 
211 
212 
212 
215 
212 
209 
216 
213 
205 
210 
209 
211 
211 
211 
211 
211 
211 
211 
211 
212 
212 
212 
212 
212 
212 
212 
212 
213 
214 
214 
214 
214 
214 
214 
214 
214 
214 
214 
214 
214 
214 
214 
214 
214 
214 
214 
214 
214 
214 
214 
214 
214 
214 
214 
214 
214 
214 
214 
214 
214 
213 
209 
209 
209 
209 
209 
209 
209 
209 
214 
201 
214 
210 
209 
216 
205 
211 
212 
209 
202 
207 
220 
216 
199 
225 
210 
214 
207 
205 
215 
214 
203 
200 
222 
200 
212 
211 
214 
212 
203 
214 
207 
189 
205 
211 
218 
224 
206 
212 
221 
208 
208 
214 
208 
208 
216 
212 
211 
210 
210 
212 
212 
212 
212 
213 
212 
212 
212 
212 
212 
212 
212 
212 
213 
214 
214 
214 
214 
214 
214 
214 
214 
214 
214 
214 
214 
214 
214 
214 
214 
214 
214 
214 
214 
214 
214 
214 
214 
214 
214 
214 
214 
214 
214 
214 
214 
213 
208 
208 
209 
209 
209 
209 
209 
208 
207 
205 
213 
212 
207 
208 
210 
213 
205 
224 
200 
202 
204 
199 
205 
221 
204 
197 
204 
206 
192 
187 
194 
194 
176 
173 
191 
194 
176 
172 
201 
194 
187 
173 
209 
198 
188 
215 
211 
196 
215 
216 
217 
201 
210 
221 
205 
212 
212 
210 
210 
212 
212 
211 
211 
212 
212 
212 
212 
212 
212 
212 
212 
212 
213 
214 
214 
214 
214 
214 
214 
214 
214 
214 
214 
214 
214 
214 
214 
214 
214 
214 
214 
214 
214 
214 
214 
214 
214 
214 
214 
214 
214 
214 
214 
214 
213 
212 
208 
208 
209 
209 
209 
209 
209 
209 
209 
216 
203 
213 
213 
205 
220 
205 
212 
208 
166 
169 
162 
152 
164 
185 
154 
151 
192 
200 
156 
162 
196 
186 
132 
114 
159 
168 
139 
138 
177 
184 
161 
174 
176 
146 
143 
195 
206 
179 
198 
211 
208 
215 
215 
207 
212 
207 
213 
211 
211 
212 
212 
209 
209 
211 
211 
211 
212 
212 
212 
212 
213 
213 
213 
214 
214 
214 
214 
214 
214 
214 
214 
214 
214 
214 
214 
214 
214 
214 
214 
214 
214 
214 
214 
214 
214 
214 
214 
214 
214 
214 
214 
214 
214 
214 
214 
213 
208 
208 
209 
209 
209 
209 
209 
209 
213 
214 
203 
210 
214 
211 
208 
184 
202 
206 
161 
81 
107 
170 
103 
91 
76 
103 
162 
177 
156 
186 
205 
160 
84 
102 
138 
95 
107 
153 
162 
158 
157 
196 
119 
91 
97 
119 
122 
120 
148 
174 
196 
211 
200 
202 
224 
214 
213 
210 
209 
212 
212 
209 
208 
211 
211 
211 
212 
212 
212 
212 
213 
213 
213 
214 
214 
214 
214 
214 
214 
214 
214 
214 
214 
214 
214 
214 
214 
214 
214 
214 
214 
214 
214 
214 
214 
214 
214 
214 
214 
214 
214 
214 
214 
214 
215 
214 
208 
208 
209 
209 
209 
209 
209 
209 
207 
201 
217 
206 
204 
210 
181 
169 
186 
228 
140 
79 
124 
133 
55 
50 
68 
76 
125 
183 
204 
197 
170 
135 
131 
144 
117 
96 
156 
154 
142 
171 
181 
182 
102 
129 
78 
83 
131 
116 
102 
147 
213 
170 
170 
221 
199 
214 
210 
207 
208 
211 
212 
209 
210 
213 
211 
211 
212 
212 
212 
212 
213 
213 
213 
214 
214 
214 
214 
214 
214 
214 
214 
214 
214 
214 
214 
214 
214 
214 
214 
214 
214 
214 
214 
214 
214 
214 
214 
214 
214 
214 
214 
214 
214 
214 
215 
215 
206 
216 
204 
206 
214 
205 
207 
212 
209 
212 
216 
214 
206 
167 
153 
170 
107 
115 
140 
134 
148 
78 
41 
74 
74 
66 
147 
192 
169 
167 
170 
167 
160 
122 
128 
137 
170 
127 
143 
195 
199 
134 
151 
156 
66 
100 
110 
112 
139 
161 
176 
133 
200 
205 
172 
230 
206 
210 
216 
206 
214 
208 
214 
211 
211 
213 
208 
214 
211 
213 
209 
216 
214 
214 
214 
214 
214 
214 
214 
214 
212 
214 
215 
214 
214 
214 
214 
213 
214 
214 
214 
214 
214 
214 
213 
213 
215 
215 
214 
214 
214 
214 
214 
214 
214 
214 
214 
207 
210 
209 
204 
209 
212 
208 
210 
228 
198 
201 
204 
147 
136 
123 
40 
69 
189 
212 
150 
53 
48 
67 
53 
101 
168 
173 
129 
129 
160 
169 
143 
116 
137 
118 
109 
144 
194 
166 
129 
134 
192 
135 
109 
141 
111 
169 
206 
156 
150 
158 
191 
184 
173 
205 
204 
222 
209 
215 
217 
205 
206 
210 
211 
214 
210 
213 
211 
216 
211 
214 
214 
214 
214 
214 
214 
214 
214 
214 
215 
215 
215 
214 
213 
213 
213 
213 
214 
214 
214 
214 
214 
214 
214 
213 
215 
214 
214 
214 
214 
214 
214 
214 
214 
214 
205 
201 
214 
216 
213 
207 
198 
212 
211 
202 
205 
181 
180 
199 
126 
31 
56 
107 
184 
161 
115 
60 
54 
55 
67 
124 
149 
139 
115 
115 
133 
114 
76 
127 
116 
103 
114 
118 
140 
109 
98 
148 
123 
89 
154 
128 
142 
211 
171 
126 
192 
170 
144 
187 
182 
161 
204 
215 
216 
225 
204 
211 
217 
209 
212 
214 
211 
212 
211 
215 
212 
211 
213 
214 
214 
215 
215 
214 
214 
213 
215 
214 
213 
213 
214 
214 
215 
216 
214 
214 
214 
214 
214 
214 
214 
214 
214 
214 
214 
214 
214 
214 
214 
214 
214 
214 
216 
199 
204 
210 
209 
210 
206 
202 
213 
215 
177 
188 
207 
183 
89 
27 
72 
97 
129 
96 
63 
72 
79 
51 
68 
107 
120 
120 
110 
104 
109 
89 
97 
104 
105 
141 
150 
84 
78 
97 
107 
102 
90 
97 
136 
113 
158 
158 
144 
153 
193 
148 
176 
197 
151 
169 
213 
188 
201 
208 
221 
217 
215 
213 
214 
210 
209 
212 
211 
213 
213 
212 
213 
214 
214 
215 
215 
214 
214 
213 
215 
214 
213 
214 
215 
214 
215 
216 
214 
214 
214 
214 
214 
214 
214 
214 
214 
214 
214 
214 
214 
214 
214 
214 
214 
214 
204 
218 
208 
202 
208 
206 
202 
197 
185 
183 
151 
180 
201 
143 
89 
70 
73 
61 
81 
100 
70 
72 
69 
53 
51 
74 
101 
111 
101 
99 
110 
111 
110 
110 
101 
118 
132 
110 
133 
96 
85 
91 
126 
118 
112 
124 
148 
137 
174 
190 
129 
139 
205 
184 
167 
199 
181 
191 
192 
197 
207 
218 
211 
216 
216 
207 
209 
213 
213 
211 
214 
215 
213 
214 
214 
214 
214 
214 
214 
213 
217 
215 
214 
216 
216 
213 
212 
212 
214 
214 
214 
214 
214 
214 
214 
214 
214 
214 
214 
214 
214 
214 
214 
214 
214 
214 
208 
212 
202 
203 
203 
199 
202 
190 
177 
105 
155 
147 
123 
112 
117 
107 
57 
59 
48 
76 
92 
87 
60 
73 
62 
70 
99 
108 
104 
111 
111 
108 
123 
104 
112 
103 
117 
141 
143 
62 
81 
111 
108 
93 
99 
99 
113 
159 
194 
147 
108 
176 
161 
178 
230 
178 
161 
190 
188 
187 
197 
198 
209 
212 
220 
210 
215 
216 
213 
208 
213 
211 
214 
214 
214 
214 
214 
214 
214 
214 
213 
211 
211 
215 
217 
215 
214 
215 
214 
214 
214 
214 
214 
214 
214 
214 
213 
213 
214 
214 
214 
214 
214 
214 
214 
214 
211 
199 
220 
213 
165 
177 
206 
178 
106 
132 
178 
130 
117 
148 
180 
123 
49 
68 
61 
60 
69 
71 
58 
59 
79 
95 
116 
115 
110 
113 
105 
98 
94 
101 
126 
87 
142 
186 
113 
98 
132 
98 
108 
107 
98 
102 
123 
159 
141 
107 
93 
131 
150 
156 
156 
161 
199 
138 
148 
217 
156 
201 
205 
198 
210 
207 
217 
215 
211 
210 
218 
208 
215 
214 
214 
213 
213 
214 
214 
215 
211 
208 
208 
213 
217 
216 
216 
218 
213 
214 
214 
214 
214 
214 
214 
214 
213 
213 
213 
214 
214 
214 
214 
214 
214 
214 
208 
220 
202 
173 
204 
233 
175 
107 
124 
174 
124 
77 
94 
121 
146 
93 
41 
59 
61 
57 
71 
64 
67 
80 
89 
110 
117 
113 
115 
116 
109 
103 
111 
106 
86 
115 
139 
124 
121 
131 
118 
85 
107 
113 
97 
113 
167 
146 
114 
69 
115 
119 
124 
124 
148 
182 
178 
141 
179 
130 
186 
183 
174 
213 
192 
196 
214 
210 
211 
217 
228 
214 
215 
214 
213 
213 
213 
213 
214 
215 
215 
211 
209 
213 
215 
213 
213 
215 
213 
213 
214 
214 
214 
214 
214 
214 
213 
213 
213 
213 
214 
214 
214 
214 
214 
214 
212 
207 
199 
220 
205 
157 
151 
160 
136 
86 
88 
108 
137 
77 
61 
67 
68 
69 
77 
82 
79 
77 
82 
87 
99 
111 
100 
106 
124 
115 
109 
112 
118 
119 
92 
144 
134 
99 
135 
135 
95 
88 
125 
118 
97 
151 
180 
142 
85 
68 
116 
116 
138 
112 
150 
185 
156 
179 
170 
138 
183 
177 
175 
163 
182 
188 
181 
204 
199 
222 
201 
218 
213 
219 
226 
211 
221 
218 
231 
214 
206 
226 
212 
204 
215 
218 
212 
216 
212 
214 
215 
214 
214 
214 
214 
213 
215 
213 
212 
214 
215 
213 
213 
215 
215 
215 
212 
203 
233 
203 
138 
154 
185 
164 
112 
61 
93 
135 
133 
82 
70 
50 
58 
74 
89 
91 
86 
83 
90 
100 
92 
95 
86 
99 
114 
107 
110 
123 
117 
110 
121 
149 
129 
127 
155 
104 
92 
99 
128 
128 
118 
154 
155 
111 
70 
117 
115 
153 
139 
102 
153 
163 
179 
191 
160 
185 
160 
178 
179 
141 
187 
166 
169 
185 
203 
198 
192 
203 
214 
214 
200 
203 
215 
202 
206 
229 
208 
207 
213 
213 
201 
207 
216 
218 
214 
213 
212 
213 
214 
214 
215 
216 
214 
212 
212 
214 
215 
214 
213 
214 
215 
215 
209 
213 
172 
162 
183 
171 
142 
117 
110 
143 
153 
113 
88 
77 
80 
73 
80 
89 
87 
81 
86 
92 
93 
96 
98 
91 
84 
94 
101 
95 
108 
127 
120 
96 
147 
115 
103 
147 
135 
107 
86 
120 
126 
121 
122 
129 
100 
78 
107 
123 
129 
187 
140 
89 
114 
179 
208 
173 
173 
159 
158 
171 
163 
165 
184 
173 
174 
161 
204 
170 
215 
202 
222 
204 
196 
200 
198 
230 
190 
214 
224 
200 
223 
216 
217 
213 
221 
203 
218 
214 
213 
214 
215 
213 
213 
214 
213 
212 
212 
214 
214 
214 
213 
214 
215 
214 
212 
200 
142 
155 
164 
102 
101 
146 
157 
179 
172 
117 
86 
69 
71 
69 
118 
126 
108 
82 
78 
85 
92 
101 
94 
92 
94 
98 
96 
97 
110 
122 
102 
112 
124 
96 
102 
114 
100 
105 
70 
120 
114 
105 
112 
101 
72 
90 
143 
124 
164 
168 
134 
135 
138 
193 
154 
149 
191 
148 
174 
154 
155 
178 
172 
186 
148 
154 
168 
192 
211 
213 
190 
185 
223 
183 
166 
217 
155 
166 
209 
209 
231 
221 
205 
222 
220 
210 
218 
214 
213 
216 
217 
214 
211 
212 
214 
213 
212 
213 
214 
214 
214 
214 
214 
214 
213 
201 
176 
132 
90 
102 
146 
164 
156 
164 
162 
129 
129 
113 
105 
87 
115 
125 
113 
92 
89 
89 
84 
83 
93 
100 
105 
97 
90 
98 
103 
100 
109 
120 
100 
105 
108 
99 
102 
111 
85 
109 
110 
103 
96 
89 
87 
115 
137 
138 
149 
142 
156 
168 
177 
178 
137 
169 
185 
183 
179 
159 
177 
149 
175 
196 
152 
165 
142 
187 
167 
205 
148 
171 
210 
171 
150 
140 
113 
137 
158 
189 
216 
193 
195 
220 
218 
211 
216 
213 
212 
214 
216 
214 
214 
215 
215 
214 
213 
212 
212 
214 
215 
215 
214 
214 
216 
210 
153 
145 
165 
142 
138 
161 
144 
118 
142 
178 
189 
120 
93 
100 
95 
95 
83 
75 
84 
92 
90 
88 
97 
102 
101 
83 
81 
100 
102 
90 
109 
89 
93 
116 
103 
117 
131 
118 
113 
87 
99 
94 
77 
95 
121 
133 
114 
148 
137 
143 
152 
153 
168 
132 
173 
176 
169 
193 
156 
195 
161 
176 
179 
189 
181 
149 
184 
141 
177 
163 
137 
182 
197 
169 
192 
83 
118 
178 
146 
163 
186 
169 
160 
202 
223 
211 
218 
216 
214 
212 
211 
212 
214 
215 
214 
214 
213 
211 
212 
214 
215 
215 
213 
213 
204 
181 
157 
198 
177 
126 
150 
144 
99 
135 
181 
160 
130 
149 
168 
127 
68 
80 
94 
100 
99 
93 
89 
89 
91 
89 
88 
82 
97 
119 
111 
96 
81 
83 
103 
125 
109 
115 
134 
105 
145 
96 
101 
80 
75 
97 
107 
101 
107 
150 
110 
133 
173 
116 
88 
159 
161 
139 
185 
144 
185 
177 
161 
204 
169 
177 
134 
185 
175 
175 
179 
156 
192 
150 
155 
205 
157 
172 
176 
153 
119 
194 
195 
193 
192 
190 
166 
210 
214 
217 
216 
212 
210 
212 
214 
213 
210 
211 
211 
211 
212 
215 
215 
213 
213 
213 
192 
181 
137 
156 
188 
141 
113 
141 
146 
140 
118 
118 
154 
182 
150 
103 
104 
97 
95 
94 
90 
87 
90 
93 
93 
88 
94 
103 
125 
133 
103 
81 
97 
108 
154 
117 
109 
121 
100 
124 
114 
84 
91 
69 
101 
122 
105 
99 
105 
103 
91 
120 
127 
103 
109 
159 
151 
178 
148 
153 
191 
180 
180 
172 
183 
145 
160 
209 
178 
174 
165 
187 
177 
123 
188 
158 
128 
210 
176 
126 
179 
180 
228 
199 
211 
153 
193 
196 
203 
211 
216 
213 
213 
216 
217 
215 
207 
209 
210 
211 
213 
215 
215 
212 
212 
213 
193 
138 
121 
101 
152 
156 
144 
169 
147 
105 
123 
136 
172 
183 
131 
93 
99 
107 
95 
90 
90 
85 
85 
78 
83 
90 
105 
123 
139 
126 
88 
71 
98 
128 
149 
90 
108 
110 
94 
155 
114 
75 
89 
78 
118 
121 
111 
89 
96 
97 
100 
127 
113 
111 
119 
153 
156 
177 
124 
158 
158 
181 
151 
158 
183 
160 
169 
196 
172 
180 
190 
188 
148 
157 
196 
156 
163 
212 
172 
170 
186 
203 
206 
209 
218 
172 
173 
192 
209 
197 
223 
222 
209 
210 
204 
209 
212 
216 
210 
212 
215 
213 
215 
214 
213 
214 
202 
156 
132 
107 
111 
126 
138 
147 
128 
138 
145 
162 
153 
124 
109 
95 
79 
97 
93 
89 
89 
86 
91 
92 
85 
108 
137 
134 
110 
93 
88 
94 
108 
154 
97 
106 
114 
79 
99 
136 
84 
86 
83 
97 
126 
124 
92 
90 
87 
96 
95 
118 
112 
125 
132 
130 
172 
168 
171 
170 
172 
151 
144 
192 
197 
186 
169 
171 
172 
186 
178 
188 
152 
195 
171 
193 
195 
181 
193 
205 
162 
200 
190 
184 
215 
195 
169 
194 
209 
219 
205 
202 
199 
186 
202 
219 
217 
223 
218 
215 
213 
208 
213 
217 
214 
214 
184 
178 
148 
134 
122 
101 
94 
122 
164 
174 
141 
112 
102 
113 
104 
96 
104 
111 
94 
86 
97 
104 
106 
106 
113 
137 
149 
127 
101 
93 
101 
122 
138 
138 
86 
110 
94 
88 
113 
98 
83 
90 
84 
111 
129 
124 
74 
88 
80 
97 
107 
118 
100 
113 
123 
101 
149 
166 
182 
157 
186 
139 
170 
171 
189 
191 
174 
190 
187 
190 
159 
180 
188 
165 
192 
183 
175 
178 
191 
178 
187 
173 
162 
177 
204 
158 
211 
193 
181 
220 
201 
182 
182 
192 
211 
205 
209 
213 
209 
212 
217 
213 
213 
211 
214 
215 
193 
163 
153 
159 
123 
103 
108 
115 
147 
137 
100 
79 
94 
105 
93 
118 
126 
131 
111 
91 
92 
95 
100 
108 
116 
127 
114 
92 
95 
99 
95 
109 
130 
92 
125 
92 
79 
129 
112 
87 
101 
97 
87 
119 
115 
137 
85 
105 
74 
87 
120 
129 
111 
124 
136 
128 
147 
184 
147 
170 
164 
172 
172 
157 
182 
172 
173 
191 
192 
190 
192 
191 
181 
159 
216 
154 
175 
197 
169 
176 
201 
173 
148 
159 
187 
177 
193 
190 
179 
176 
187 
193 
185 
189 
190 
201 
199 
209 
212 
217 
217 
211 
213 
216 
213 
214 
201 
176 
191 
185 
140 
115 
116 
101 
82 
74 
77 
111 
135 
113 
111 
122 
132 
130 
114 
96 
95 
95 
92 
98 
105 
103 
98 
88 
90 
98 
93 
90 
108 
109 
141 
87 
94 
107 
69 
82 
83 
101 
110 
103 
130 
127 
120 
116 
83 
73 
112 
115 
124 
155 
163 
180 
204 
191 
160 
196 
170 
201 
152 
193 
185 
182 
161 
190 
171 
201 
207 
183 
151 
187 
199 
192 
196 
174 
184 
195 
195 
187 
123 
182 
189 
212 
155 
185 
182 
164 
182 
202 
184 
173 
165 
188 
203 
207 
205 
211 
215 
210 
210 
211 
212 
213 
195 
213 
179 
144 
166 
110 
61 
86 
107 
88 
92 
113 
140 
123 
111 
119 
128 
114 
103 
98 
106 
111 
104 
102 
116 
96 
107 
106 
88 
96 
106 
95 
85 
118 
85 
96 
110 
70 
78 
101 
93 
147 
133 
91 
135 
113 
149 
138 
103 
93 
132 
123 
144 
154 
123 
141 
170 
159 
229 
169 
199 
141 
159 
199 
183 
183 
162 
192 
171 
186 
185 
173 
154 
166 
184 
219 
192 
162 
217 
187 
204 
181 
145 
201 
199 
187 
177 
189 
185 
204 
178 
167 
149 
157 
178 
187 
191 
199 
202 
212 
218 
213 
212 
213 
212 
213 
179 
188 
205 
187 
132 
79 
88 
80 
91 
66 
127 
154 
113 
113 
126 
101 
105 
92 
99 
104 
105 
110 
109 
113 
111 
89 
96 
99 
85 
88 
97 
96 
101 
102 
81 
109 
99 
79 
95 
87 
81 
144 
116 
122 
126 
122 
107 
98 
110 
99 
122 
109 
150 
147 
111 
149 
130 
177 
187 
176 
187 
178 
179 
177 
185 
153 
178 
172 
192 
162 
190 
191 
159 
153 
185 
185 
175 
180 
207 
190 
187 
174 
195 
166 
197 
174 
196 
189 
172 
196 
167 
182 
162 
154 
181 
173 
181 
199 
210 
219 
216 
208 
217 
228 
213 
214 
190 
212 
179 
139 
108 
78 
91 
74 
82 
164 
153 
113 
79 
82 
103 
89 
97 
78 
91 
110 
117 
121 
109 
102 
93 
90 
90 
93 
100 
90 
81 
99 
104 
73 
134 
111 
87 
127 
95 
73 
112 
111 
108 
115 
129 
124 
97 
88 
104 
97 
114 
118 
172 
139 
82 
118 
118 
180 
167 
161 
173 
161 
189 
188 
191 
148 
183 
187 
190 
183 
190 
188 
160 
180 
182 
171 
136 
160 
177 
185 
156 
163 
169 
175 
192 
166 
202 
168 
189 
178 
151 
182 
154 
154 
194 
181 
205 
198 
187 
195 
207 
209 
210 
210 
215 
215 
199 
168 
161 
162 
124 
87 
56 
113 
179 
153 
104 
84 
75 
82 
80 
67 
98 
96 
100 
109 
111 
107 
110 
118 
119 
109 
88 
79 
89 
95 
89 
86 
84 
95 
173 
90 
81 
123 
81 
104 
131 
87 
86 
104 
114 
105 
79 
78 
94 
109 
89 
132 
179 
116 
78 
127 
134 
163 
149 
160 
175 
182 
191 
198 
167 
165 
181 
206 
210 
184 
200 
192 
183 
165 
156 
131 
98 
148 
152 
182 
122 
169 
175 
187 
191 
175 
202 
177 
204 
172 
152 
179 
199 
191 
184 
170 
191 
200 
219 
213 
213 
222 
211 
212 
219 
216 
189 
191 
202 
199 
109 
97 
131 
159 
161 
83 
87 
105 
91 
96 
112 
120 
92 
96 
103 
106 
102 
101 
111 
125 
140 
126 
94 
72 
82 
96 
93 
84 
81 
144 
157 
80 
79 
91 
91 
136 
107 
85 
84 
90 
90 
76 
63 
77 
92 
89 
93 
128 
136 
109 
104 
129 
158 
150 
144 
177 
174 
188 
195 
196 
149 
147 
165 
170 
190 
155 
188 
164 
179 
159 
163 
132 
116 
169 
161 
190 
129 
171 
160 
163 
174 
174 
144 
181 
180 
195 
149 
138 
151 
177 
223 
210 
190 
172 
199 
206 
190 
206 
219 
217 
219 
216 
201 
218 
181 
160 
111 
127 
151 
160 
145 
107 
80 
84 
98 
111 
135 
103 
84 
91 
102 
108 
107 
104 
105 
108 
112 
96 
85 
90 
97 
90 
87 
96 
118 
144 
111 
88 
97 
97 
114 
128 
79 
84 
84 
80 
80 
74 
71 
79 
97 
88 
101 
115 
98 
104 
102 
93 
147 
157 
162 
169 
149 
169 
169 
175 
137 
153 
142 
168 
154 
157 
176 
164 
161 
151 
175 
164 
165 
165 
155 
182 
123 
185 
164 
151 
131 
183 
139 
193 
171 
185 
214 
213 
150 
128 
171 
182 
155 
171 
203 
200 
191 
211 
220 
215 
220 
217 
205 
190 
147 
138 
132 
134 
116 
117 
161 
111 
91 
86 
96 
108 
107 
93 
86 
95 
105 
109 
106 
99 
90 
85 
88 
88 
84 
79 
80 
83 
87 
89 
106 
100 
89 
98 
97 
105 
107 
98 
83 
82 
76 
77 
76 
71 
71 
71 
82 
90 
96 
96 
101 
118 
89 
74 
140 
123 
140 
148 
149 
151 
138 
146 
131 
163 
150 
212 
162 
197 
176 
182 
151 
157 
165 
176 
195 
158 
163 
178 
155 
192 
161 
190 
150 
194 
182 
193 
198 
171 
174 
197 
202 
198 
199 
203 
203 
190 
184 
188 
204 
205 
191 
194 
221 
217 
209 
196 
196 
168 
106 
89 
117 
113 
100 
106 
161 
156 
87 
108 
143 
120 
93 
100 
103 
96 
86 
80 
80 
82 
90 
87 
81 
75 
76 
83 
84 
77 
65 
83 
86 
87 
100 
115 
88 
83 
91 
75 
72 
81 
75 
66 
75 
82 
78 
90 
91 
91 
114 
117 
80 
93 
146 
103 
141 
145 
151 
147 
139 
122 
144 
144 
160 
195 
172 
186 
170 
185 
142 
168 
154 
180 
192 
178 
176 
186 
168 
178 
180 
193 
174 
178 
183 
180 
191 
221 
125 
75 
145 
184 
178 
165 
167 
138 
126 
150 
184 
190 
183 
190 
220 
217 
202 
195 
179 
171 
137 
79 
92 
87 
119 
175 
164 
134 
117 
137 
130 
83 
89 
87 
82 
76 
73 
75 
79 
82 
80 
76 
82 
91 
89 
83 
81 
79 
73 
82 
69 
84 
116 
120 
87 
80 
67 
77 
88 
80 
65 
67 
79 
85 
96 
92 
95 
97 
109 
91 
79 
123 
142 
132 
171 
154 
154 
152 
145 
139 
188 
144 
178 
171 
180 
161 
167 
190 
155 
156 
115 
165 
174 
196 
152 
168 
148 
167 
212 
197 
215 
177 
171 
174 
169 
179 
150 
150 
181 
181 
180 
198 
204 
206 
190 
198 
226 
213 
195 
215 
218 
215 
206 
196 
160 
164 
168 
98 
90 
123 
156 
116 
110 
106 
102 
112 
97 
88 
82 
74 
67 
70 
78 
82 
81 
78 
75 
82 
89 
85 
78 
82 
85 
76 
83 
74 
69 
103 
114 
92 
80 
83 
77 
109 
119 
86 
73 
81 
81 
91 
96 
89 
95 
93 
106 
89 
101 
149 
145 
144 
153 
160 
163 
164 
140 
172 
175 
133 
182 
176 
186 
142 
151 
177 
151 
157 
124 
170 
151 
159 
136 
189 
190 
121 
207 
163 
180 
208 
152 
199 
199 
146 
145 
158 
171 
206 
213 
198 
195 
192 
166 
178 
207 
177 
165 
217 
216 
214 
208 
198 
180 
146 
145 
156 
125 
75 
87 
91 
94 
97 
102 
85 
83 
78 
85 
80 
77 
79 
83 
82 
81 
81 
82 
70 
75 
88 
87 
81 
79 
77 
76 
78 
89 
116 
111 
77 
68 
83 
84 
104 
100 
67 
67 
70 
64 
97 
89 
93 
94 
84 
114 
107 
121 
155 
145 
150 
146 
158 
134 
167 
143 
164 
145 
117 
179 
180 
188 
130 
151 
182 
163 
177 
146 
193 
196 
185 
174 
196 
179 
146 
184 
193 
151 
205 
201 
164 
190 
191 
174 
178 
189 
192 
202 
201 
201 
203 
194 
189 
179 
160 
175 
214 
215 
213 
205 
198 
168 
159 
162 
172 
126 
109 
103 
94 
88 
102 
100 
83 
80 
77 
83 
77 
76 
82 
80 
84 
77 
81 
85 
82 
84 
88 
87 
83 
79 
78 
78 
74 
107 
117 
95 
63 
68 
82 
86 
107 
90 
65 
61 
64 
64 
97 
83 
96 
106 
101 
115 
132 
152 
155 
150 
143 
147 
146 
127 
171 
149 
165 
139 
123 
192 
190 
191 
144 
185 
208 
185 
191 
170 
197 
206 
188 
175 
185 
139 
194 
153 
208 
145 
141 
193 
185 
180 
186 
187 
189 
194 
186 
184 
197 
210 
185 
180 
189 
217 
210 
199 
220 
208 
211 
208 
208 
182 
196 
187 
176 
151 
151 
151 
100 
103 
106 
96 
96 
79 
74 
77 
96 
83 
84 
87 
84 
77 
78 
83 
91 
93 
88 
84 
84 
80 
73 
71 
95 
113 
100 
77 
64 
74 
84 
90 
101 
74 
65 
67 
66 
69 
88 
84 
106 
110 
100 
117 
144 
147 
142 
162 
138 
146 
153 
130 
181 
162 
169 
154 
157 
182 
173 
166 
179 
195 
211 
177 
208 
166 
187 
187 
199 
161 
183 
136 
187 
168 
209 
179 
107 
157 
204 
176 
169 
175 
192 
182 
159 
151 
167 
191 
163 
139 
138 
181 
186 
173 
190 
194 
207 
208 
207 
210 
188 
171 
206 
160 
102 
94 
98 
84 
84 
90 
81 
78 
80 
85 
148 
123 
81 
74 
84 
85 
74 
72 
89 
84 
77 
84 
75 
65 
77 
73 
118 
111 
85 
77 
84 
86 
80 
93 
95 
65 
73 
78 
70 
73 
80 
84 
103 
95 
86 
101 
130 
112 
111 
176 
155 
147 
141 
133 
192 
157 
166 
152 
146 
133 
147 
137 
189 
169 
187 
145 
188 
163 
189 
200 
207 
168 
199 
160 
145 
214 
206 
189 
168 
161 
164 
178 
169 
171 
185 
178 
191 
203 
207 
219 
216 
204 
193 
223 
220 
200 
215 
236 
222 
213 
192 
212 
189 
166 
195 
173 
119 
72 
45 
64 
75 
69 
65 
66 
97 
122 
152 
110 
73 
76 
86 
81 
76 
75 
82 
79 
75 
77 
73 
74 
85 
92 
129 
94 
68 
71 
77 
71 
66 
73 
68 
51 
73 
80 
71 
71 
77 
101 
103 
82 
81 
91 
106 
79 
96 
186 
162 
153 
132 
121 
189 
152 
155 
131 
123 
126 
165 
154 
193 
152 
160 
153 
163 
190 
173 
222 
214 
197 
182 
184 
166 
202 
207 
201 
190 
199 
172 
180 
178 
190 
191 
177 
191 
196 
170 
133 
160 
188 
182 
186 
172 
164 
187 
195 
210 
214 
209 
207 
214 
214 
187 
197 
162 
65 
38 
41 
48 
62 
80 
84 
101 
111 
110 
82 
67 
75 
86 
78 
83 
97 
84 
85 
83 
70 
78 
93 
90 
103 
117 
72 
58 
65 
63 
65 
81 
76 
61 
53 
72 
77 
71 
60 
70 
122 
108 
79 
82 
88 
90 
69 
93 
180 
140 
166 
148 
104 
171 
159 
158 
139 
135 
160 
178 
167 
193 
176 
170 
175 
129 
198 
171 
190 
202 
196 
187 
176 
210 
169 
173 
207 
174 
193 
198 
189 
166 
175 
180 
171 
185 
218 
221 
197 
183 
194 
186 
173 
164 
186 
225 
231 
216 
209 
197 
216 
213 
200 
195 
206 
116 
24 
53 
38 
43 
76 
93 
100 
88 
79 
83 
81 
79 
80 
87 
78 
87 
104 
88 
75 
77 
78 
69 
76 
98 
103 
92 
59 
61 
73 
68 
74 
93 
91 
71 
61 
71 
74 
70 
56 
67 
133 
111 
85 
86 
94 
85 
76 
84 
162 
130 
183 
163 
113 
158 
156 
182 
163 
144 
162 
163 
162 
178 
185 
170 
184 
114 
195 
175 
161 
206 
213 
208 
182 
217 
182 
138 
180 
177 
170 
196 
205 
195 
205 
182 
109 
75 
121 
171 
178 
177 
191 
177 
190 
225 
230 
205 
201 
214 
208 
221 
222 
194 
211 
211 
184 
154 
119 
67 
59 
103 
144 
142 
102 
70 
84 
76 
70 
95 
103 
87 
74 
88 
93 
84 
69 
72 
80 
71 
75 
103 
91 
73 
61 
61 
67 
67 
72 
75 
74 
68 
55 
65 
68 
65 
63 
76 
113 
84 
70 
82 
99 
78 
80 
65 
148 
138 
196 
162 
134 
166 
158 
205 
195 
177 
182 
197 
201 
200 
196 
180 
176 
154 
144 
183 
115 
206 
204 
167 
216 
184 
198 
186 
130 
155 
217 
189 
196 
202 
204 
176 
70 
18 
50 
120 
190 
145 
132 
134 
164 
193 
211 
219 
220 
209 
210 
207 
203 
210 
212 
207 
195 
164 
142 
119 
95 
142 
150 
85 
71 
85 
69 
90 
75 
88 
95 
84 
82 
89 
85 
77 
89 
83 
66 
94 
120 
98 
66 
60 
69 
57 
53 
65 
84 
83 
66 
77 
61 
70 
66 
55 
65 
80 
111 
74 
73 
103 
132 
102 
111 
83 
147 
137 
202 
159 
138 
183 
179 
211 
198 
201 
190 
206 
198 
200 
193 
188 
198 
178 
150 
187 
154 
120 
207 
161 
175 
203 
184 
175 
154 
176 
197 
189 
212 
172 
142 
178 
147 
130 
116 
150 
202 
190 
195 
191 
211 
223 
220 
219 
217 
215 
211 
207 
205 
209 
213 
210 
198 
188 
173 
140 
128 
119 
100 
90 
78 
67 
86 
114 
94 
82 
78 
80 
85 
95 
79 
74 
85 
80 
59 
123 
145 
69 
50 
59 
88 
67 
46 
93 
130 
111 
71 
62 
75 
69 
50 
60 
76 
88 
104 
81 
81 
97 
148 
118 
111 
90 
109 
115 
180 
152 
145 
195 
191 
205 
199 
202 
206 
199 
197 
190 
184 
199 
208 
208 
191 
192 
201 
125 
178 
187 
166 
209 
184 
177 
180 
185 
193 
183 
209 
148 
73 
140 
174 
208 
197 
182 
185 
193 
211 
220 
214 
210 
213 
211 
214 
213 
209 
208 
208 
211 
213 
211 
204 
199 
194 
171 
105 
100 
105 
75 
90 
120 
110 
142 
110 
76 
69 
68 
92 
97 
80 
72 
69 
69 
73 
133 
118 
45 
64 
58 
74 
53 
45 
113 
149 
107 
49 
54 
70 
66 
62 
69 
72 
85 
101 
73 
84 
77 
86 
126 
94 
51 
72 
74 
145 
138 
144 
204 
191 
199 
193 
194 
205 
191 
202 
194 
179 
196 
199 
192 
207 
184 
188 
191 
152 
181 
174 
182 
195 
204 
182 
181 
202 
205 
196 
230 
179 
203 
173 
129 
132 
166 
197 
197 
207 
218 
216 
209 
212 
218 
216 
215 
208 
210 
212 
213 
212 
210 
210 
210 
212 
212 
148 
146 
136 
81 
102 
132 
165 
123 
80 
59 
63 
79 
111 
93 
64 
74 
55 
71 
101 
116 
84 
49 
75 
67 
68 
55 
69 
125 
131 
78 
56 
59 
62 
55 
68 
76 
72 
87 
88 
84 
105 
61 
74 
146 
67 
52 
60 
70 
139 
150 
158 
214 
191 
197 
192 
191 
210 
192 
210 
202 
187 
205 
200 
183 
208 
182 
155 
204 
166 
196 
184 
164 
195 
209 
191 
189 
204 
214 
193 
170 
131 
196 
192 
176 
194 
201 
183 
199 
218 
226 
221 
211 
213 
224 
211 
212 
210 
212 
213 
212 
209 
208 
210 
213 
216 
211 
219 
190 
142 
153 
163 
123 
137 
72 
55 
67 
89 
105 
101 
80 
55 
65 
77 
103 
114 
82 
58 
64 
65 
71 
68 
74 
109 
124 
97 
66 
72 
69 
67 
60 
79 
74 
63 
81 
71 
71 
94 
61 
84 
188 
70 
49 
74 
106 
154 
171 
170 
206 
183 
196 
197 
196 
207 
197 
199 
192 
186 
195 
196 
206 
179 
208 
168 
155 
224 
202 
180 
183 
206 
203 
204 
196 
193 
204 
165 
133 
136 
206 
179 
153 
152 
182 
207 
216 
213 
207 
213 
217 
212 
208 
211 
211 
211 
211 
211 
209 
207 
207 
209 
211 
207 
225 
195 
207 
207 
184 
176 
113 
50 
49 
68 
104 
120 
109 
76 
69 
64 
70 
114 
115 
95 
60 
66 
84 
55 
62 
60 
72 
92 
86 
66 
59 
72 
69 
72 
67 
83 
74 
83 
129 
91 
54 
72 
42 
129 
163 
59 
69 
108 
155 
169 
181 
175 
193 
181 
201 
193 
192 
189 
202 
193 
193 
198 
186 
196 
193 
164 
193 
175 
142 
211 
194 
174 
196 
196 
186 
203 
193 
177 
171 
130 
123 
145 
210 
193 
203 
195 
195 
189 
209 
217 
214 
216 
218 
215 
214 
217 
217 
210 
209 
208 
207 
207 
207 
208 
209 
209 
209 
223 
209 
206 
215 
152 
62 
37 
65 
88 
145 
165 
119 
61 
56 
75 
103 
160 
105 
88 
75 
50 
91 
82 
72 
76 
84 
71 
69 
82 
78 
64 
71 
75 
66 
87 
75 
99 
175 
109 
72 
85 
74 
197 
173 
81 
108 
158 
194 
184 
185 
177 
190 
185 
200 
193 
191 
176 
206 
201 
206 
210 
184 
194 
204 
187 
175 
201 
187 
164 
204 
166 
190 
177 
168 
181 
180 
181 
171 
104 
125 
163 
225 
181 
165 
192 
215 
224 
217 
208 
208 
214 
215 
212 
212 
216 
216 
209 
208 
208 
208 
208 
208 
209 
209 
211 
208 
216 
209 
210 
208 
156 
104 
64 
68 
155 
196 
140 
89 
60 
55 
121 
170 
112 
81 
82 
50 
78 
93 
78 
66 
85 
107 
85 
78 
96 
85 
61 
81 
81 
79 
130 
105 
96 
166 
116 
127 
146 
141 
146 
188 
164 
195 
187 
198 
192 
187 
172 
195 
189 
190 
200 
199 
180 
199 
204 
203 
198 
176 
185 
191 
191 
214 
200 
193 
191 
159 
156 
189 
177 
165 
169 
181 
193 
197 
163 
202 
203 
188 
170 
178 
204 
211 
192 
199 
214 
223 
218 
212 
215 
220 
211 
212 
209 
209 
210 
210 
209 
209 
209 
209 
207 
209 
202 
209 
218 
213 
199 
171 
144 
158 
184 
150 
189 
157 
52 
98 
141 
115 
79 
81 
91 
94 
83 
89 
69 
66 
96 
137 
121 
90 
82 
65 
73 
94 
80 
90 
184 
165 
129 
186 
153 
147 
167 
160 
168 
191 
177 
189 
191 
184 
198 
192 
174 
208 
201 
193 
197 
201 
186 
192 
208 
205 
197 
191 
188 
199 
187 
196 
209 
210 
184 
162 
157 
185 
157 
148 
184 
210 
190 
177 
215 
182 
213 
213 
196 
197 
210 
196 
168 
183 
206 
216 
212 
214 
219 
216 
213 
214 
209 
209 
209 
209 
209 
209 
209 
209 
208 
209 
208 
207 
210 
215 
214 
209 
198 
185 
207 
139 
154 
157 
120 
145 
123 
73 
67 
76 
81 
82 
72 
75 
93 
100 
129 
148 
110 
96 
77 
65 
90 
74 
69 
113 
182 
180 
151 
177 
155 
177 
189 
187 
181 
199 
181 
187 
185 
190 
199 
186 
197 
180 
198 
190 
186 
188 
213 
177 
206 
223 
193 
200 
191 
197 
178 
184 
198 
205 
203 
164 
163 
193 
205 
178 
170 
192 
185 
156 
186 
203 
214 
212 
212 
217 
213 
202 
188 
197 
209 
215 
215 
214 
216 
219 
216 
216 
209 
209 
209 
209 
209 
209 
209 
209 
212 
213 
211 
207 
207 
210 
211 
209 
209 
205 
215 
172 
67 
102 
194 
176 
105 
65 
63 
100 
96 
73 
74 
86 
103 
144 
167 
149 
84 
85 
84 
69 
82 
129 
112 
161 
193 
177 
187 
183 
169 
182 
185 
191 
180 
194 
181 
187 
181 
186 
195 
187 
199 
175 
198 
191 
180 
180 
191 
173 
182 
205 
189 
178 
190 
191 
188 
199 
194 
199 
220 
198 
192 
169 
217 
199 
157 
182 
193 
197 
189 
208 
220 
214 
206 
210 
218 
221 
208 
213 
219 
220 
217 
215 
215 
216 
213 
213 
209 
209 
209 
209 
209 
209 
209 
209 
209 
212 
213 
209 
207 
208 
210 
211 
217 
216 
199 
214 
126 
151 
217 
117 
92 
84 
50 
73 
71 
46 
59 
92 
109 
173 
173 
149 
98 
88 
69 
58 
109 
184 
160 
205 
196 
172 
209 
192 
184 
186 
175 
193 
177 
185 
181 
187 
184 
185 
190 
183 
193 
171 
195 
194 
187 
185 
186 
191 
178 
203 
201 
175 
202 
192 
195 
202 
172 
172 
215 
213 
208 
188 
193 
209 
200 
195 
210 
215 
217 
216 
214 
212 
215 
218 
212 
202 
212 
213 
215 
214 
211 
209 
210 
211 
213 
213 
209 
209 
209 
209 
209 
209 
209 
209 
206 
210 
214 
212 
210 
210 
210 
209 
206 
208 
193 
218 
215 
216 
207 
125 
71 
66 
52 
103 
92 
49 
57 
101 
127 
197 
176 
169 
141 
87 
39 
65 
182 
191 
157 
196 
196 
184 
199 
176 
193 
187 
167 
196 
178 
180 
183 
188 
193 
192 
197 
190 
190 
182 
184 
186 
196 
193 
198 
213 
194 
209 
211 
189 
205 
194 
196 
198 
164 
157 
195 
202 
210 
233 
203 
218 
226 
196 
208 
209 
212 
213 
213 
214 
216 
216 
213 
209 
214 
214 
213 
213 
213 
214 
215 
216 
216 
216 
209 
209 
209 
209 
209 
209 
209 
209 
209 
212 
213 
213 
211 
210 
208 
206 
211 
206 
212 
202 
200 
198 
191 
183 
151 
99 
112 
194 
187 
164 
141 
115 
164 
208 
178 
189 
182 
123 
76 
115 
221 
185 
163 
193 
197 
187 
195 
179 
193 
188 
170 
202 
187 
182 
185 
187 
186 
188 
200 
197 
188 
196 
168 
167 
190 
185 
200 
207 
197 
198 
195 
194 
210 
210 
212 
218 
204 
195 
209 
209 
206 
212 
218 
211 
208 
215 
217 
219 
207 
211 
214 
213 
209 
209 
216 
223 
218 
217 
216 
216 
217 
217 
218 
218 
216 
216 
210 
210 
210 
210 
210 
210 
210 
210 
212 
211 
210 
210 
210 
211 
210 
209 
210 
207 
216 
211 
205 
216 
217 
224 
189 
199 
215 
207 
184 
219 
206 
140 
190 
204 
189 
201 
197 
175 
156 
168 
201 
187 
186 
208 
190 
173 
203 
194 
188 
189 
179 
204 
197 
188 
187 
185 
181 
184 
196 
197 
190 
209 
179 
177 
206 
201 
217 
213 
213 
206 
201 
215 
207 
210 
208 
214 
217 
212 
211 
206 
226 
204 
219 
205 
202 
224 
209 
203 
216 
213 
211 
212 
214 
215 
212 
210 
214 
213 
213 
213 
214 
214 
214 
213 
213 
213 
210 
210 
210 
210 
210 
210 
210 
210 
210 
209 
209 
209 
211 
212 
212 
212 
207 
212 
210 
210 
210 
213 
210 
208 
216 
212 
207 
212 
210 
199 
189 
194 
201 
208 
215 
213 
193 
187 
192 
195 
187 
189 
181 
205 
180 
171 
207 
184 
190 
196 
192 
202 
203 
196 
196 
195 
196 
198 
200 
203 
204 
216 
208 
206 
210 
206 
215 
210 
213 
209 
204 
215 
213 
212 
209 
210 
212 
210 
211 
208 
210 
210 
214 
210 
212 
218 
213 
211 
207 
210 
214 
216 
216 
215 
214 
213 
213 
214 
214 
215 
215 
216 
216 
216 
213 
213 
210 
210 
210 
210 
210 
210 
210 
210 
211 
211 
212 
213 
212 
210 
208 
208 
211 
210 
212 
209 
214 
207 
215 
212 
208 
216 
208 
208 
216 
210 
205 
202 
213 
206 
211 
207 
201 
197 
200 
205 
196 
201 
186 
206 
173 
176 
208 
185 
197 
205 
202 
199 
207 
205 
209 
211 
205 
207 
202 
206 
212 
206 
215 
208 
209 
209 
210 
210 
212 
213 
210 
209 
210 
208 
212 
215 
209 
208 
213 
212 
212 
211 
215 
212 
210 
215 
214 
210 
213 
213 
212 
210 
211 
214 
215 
213 
216 
216 
216 
216 
215 
215 
215 
215 
216 
216 
209 
209 
210 
210 
211 
210 
210 
210 
209 
210 
211 
212 
211 
210 
209 
209 
209 
210 
210 
210 
210 
210 
209 
209 
211 
210 
209 
211 
213 
214 
211 
209 
215 
204 
209 
214 
205 
208 
215 
209 
203 
210 
200 
209 
182 
181 
209 
199 
210 
208 
207 
208 
211 
213 
214 
214 
212 
210 
208 
209 
212 
213 
211 
209 
210 
211 
211 
211 
211 
211 
211 
211 
211 
211 
211 
211 
212 
212 
212 
212 
210 
211 
212 
213 
213 
213 
213 
213 
211 
211 
212 
213 
213 
214 
214 
214 
216 
216 
216 
216 
216 
216 
216 
216 
215 
215 
209 
209 
210 
210 
210 
210 
210 
210 
209 
210 
211 
211 
211 
210 
209 
209 
209 
209 
209 
209 
209 
209 
209 
209 
211 
210 
209 
210 
211 
211 
208 
206 
213 
206 
209 
213 
208 
210 
216 
213 
208 
211 
204 
216 
202 
203 
218 
205 
211 
210 
209 
210 
212 
211 
209 
207 
209 
208 
208 
210 
212 
213 
211 
210 
210 
211 
211 
211 
211 
211 
211 
211 
211 
211 
211 
211 
211 
211 
211 
211 
211 
211 
212 
213 
213 
213 
213 
213 
211 
212 
213 
213 
214 
214 
214 
214 
215 
215 
215 
215 
215 
215 
215 
215 
215 
215 
209 
210 
210 
210 
210 
210 
210 
210 
210 
211 
211 
211 
210 
209 
209 
209 
208 
208 
209 
209 
209 
209 
209 
209 
211 
209 
208 
209 
210 
210 
208 
206 
209 
207 
208 
209 
207 
207 
210 
211 
209 
210 
207 
215 
211 
214 
216 
208 
210 
210 
209 
210 
211 
210 
208 
206 
207 
208 
209 
211 
211 
211 
210 
210 
210 
211 
211 
211 
211 
211 
211 
211 
211 
211 
211 
211 
211 
211 
211 
211 
211 
212 
212 
213 
214 
213 
213 
213 
212 
212 
213 
214 
214 
214 
214 
214 
215 
215 
215 
215 
215 
215 
215 
215 
215 
215 
210 
210 
210 
210 
210 
210 
210 
210 
210 
211 
211 
211 
210 
209 
209 
209 
209 
209 
209 
210 
210 
210 
210 
210 
211 
209 
208 
208 
210 
212 
212 
211 
208 
211 
209 
206 
206 
203 
202 
207 
208 
209 
210 
208 
206 
207 
206 
209 
209 
208 
207 
208 
209 
211 
211 
211 
208 
209 
211 
211 
209 
209 
209 
209 
210 
211 
211 
211 
211 
211 
211 
211 
211 
211 
211 
211 
211 
210 
210 
210 
211 
211 
212 
213 
213 
213 
213 
213 
212 
212 
213 
213 
214 
214 
214 
214 
215 
215 
215 
215 
215 
215 
215 
215 
215 
215 
210 
210 
210 
210 
210 
210 
210 
210 
210 
211 
211 
211 
210 
209 
209 
210 
210 
210 
210 
211 
211 
211 
211 
211 
211 
209 
207 
207 
209 
212 
213 
214 
209 
215 
211 
207 
209 
206 
203 
209 
210 
210 
212 
205 
205 
205 
203 
212 
209 
208 
208 
209 
210 
211 
212 
213 
209 
210 
211 
209 
208 
207 
209 
211 
210 
211 
211 
211 
211 
211 
211 
211 
211 
211 
211 
211 
211 
211 
211 
211 
211 
211 
212 
213 
213 
213 
212 
212 
212 
212 
212 
213 
213 
214 
214 
213 
215 
215 
215 
215 
215 
215 
215 
215 
215 
215 
211 
211 
210 
210 
210 
210 
210 
210 
210 
211 
211 
211 
210 
209 
209 
210 
211 
211 
211 
212 
212 
211 
211 
211 
211 
210 
208 
207 
208 
210 
211 
212 
207 
213 
210 
207 
211 
210 
208 
212 
212 
209 
211 
206 
213 
211 
209 
211 
209 
210 
212 
213 
212 
211 
210 
209 
209 
209 
209 
208 
208 
208 
210 
212 
210 
211 
211 
211 
211 
211 
211 
211 
211 
211 
211 
211 
211 
211 
212 
212 
211 
212 
212 
213 
213 
213 
213 
212 
212 
212 
213 
213 
214 
214 
214 
214 
215 
215 
215 
215 
215 
215 
215 
215 
215 
215 
211 
211 
210 
210 
210 
210 
210 
211 
211 
211 
211 
210 
209 
209 
210 
210 
211 
212 
212 
212 
211 
211 
210 
210 
210 
209 
209 
208 
209 
209 
209 
209 
206 
210 
209 
207 
209 
210 
209 
210 
211 
207 
208 
208 
215 
209 
212 
209 
209 
211 
212 
213 
212 
211 
209 
208 
209 
209 
209 
209 
209 
209 
210 
211 
210 
211 
211 
211 
211 
211 
211 
211 
211 
211 
211 
212 
212 
212 
213 
213 
212 
213 
214 
214 
214 
214 
213 
213 
213 
214 
214 
214 
215 
215 
215 
215 
216 
216 
216 
216 
216 
216 
216 
216 
215 
215 
