P2
# Created by MsrVolt
101 61
255
214 
214 
215 
215 
215 
216 
216 
215 
215 
215 
215 
215 
215 
215 
215 
215 
215 
217 
214 
215 
215 
215 
217 
213 
213 
215 
216 
216 
215 
214 
214 
214 
214 
214 
215 
215 
216 
216 
216 
216 
216 
216 
216 
216 
216 
216 
216 
216 
215 
215 
216 
216 
216 
217 
217 
217 
218 
218 
218 
218 
218 
218 
218 
218 
218 
218 
218 
218 
218 
218 
218 
218 
218 
218 
218 
218 
218 
219 
219 
219 
216 
216 
216 
216 
216 
215 
215 
215 
216 
216 
216 
216 
216 
216 
216 
216 
217 
217 
217 
218 
218 
214 
214 
215 
215 
215 
216 
215 
215 
215 
215 
215 
215 
215 
215 
215 
215 
215 
215 
214 
215 
216 
214 
215 
215 
215 
215 
215 
215 
216 
216 
215 
213 
213 
213 
214 
215 
215 
216 
216 
216 
216 
216 
216 
216 
216 
216 
216 
216 
215 
216 
216 
216 
217 
217 
217 
217 
218 
218 
218 
218 
218 
218 
218 
218 
218 
218 
218 
218 
218 
218 
218 
218 
218 
218 
218 
218 
218 
219 
219 
219 
217 
217 
216 
216 
216 
215 
215 
215 
216 
216 
216 
216 
216 
216 
216 
216 
216 
216 
216 
216 
216 
214 
214 
215 
215 
215 
215 
215 
215 
215 
215 
215 
215 
215 
215 
215 
215 
216 
214 
214 
216 
216 
214 
214 
217 
216 
215 
214 
215 
218 
219 
217 
215 
212 
213 
213 
214 
215 
216 
216 
216 
216 
216 
216 
216 
216 
217 
217 
217 
215 
216 
216 
216 
217 
217 
217 
217 
218 
218 
218 
218 
218 
218 
218 
218 
218 
218 
218 
218 
218 
218 
218 
218 
218 
218 
218 
218 
218 
218 
218 
218 
218 
217 
217 
217 
216 
216 
215 
215 
216 
216 
216 
216 
216 
216 
216 
216 
215 
215 
215 
215 
215 
214 
214 
215 
215 
215 
215 
215 
215 
215 
215 
215 
215 
215 
215 
215 
215 
216 
212 
215 
216 
216 
214 
212 
218 
217 
215 
214 
216 
217 
215 
213 
212 
212 
212 
213 
214 
215 
215 
216 
216 
216 
216 
216 
216 
216 
216 
216 
216 
215 
215 
215 
216 
216 
217 
217 
217 
218 
218 
218 
218 
218 
218 
218 
218 
218 
218 
218 
218 
218 
218 
218 
218 
218 
218 
218 
218 
218 
218 
218 
218 
218 
218 
217 
217 
216 
216 
215 
215 
215 
215 
215 
215 
215 
215 
215 
215 
214 
214 
215 
215 
216 
214 
215 
215 
215 
215 
215 
215 
215 
215 
215 
215 
215 
215 
215 
215 
215 
216 
211 
216 
215 
215 
216 
212 
218 
215 
214 
214 
215 
213 
209 
207 
207 
212 
212 
213 
214 
215 
215 
216 
216 
216 
216 
216 
216 
215 
215 
215 
215 
214 
214 
215 
215 
216 
216 
216 
216 
218 
218 
218 
218 
218 
218 
218 
218 
218 
218 
218 
218 
218 
218 
218 
218 
218 
218 
218 
218 
218 
218 
218 
218 
218 
218 
217 
217 
216 
216 
216 
215 
215 
215 
215 
215 
215 
215 
215 
215 
215 
215 
215 
216 
216 
215 
215 
215 
215 
215 
215 
215 
215 
215 
215 
215 
215 
215 
215 
215 
215 
216 
211 
217 
213 
214 
219 
212 
216 
213 
212 
213 
215 
214 
211 
211 
214 
213 
213 
214 
214 
215 
215 
215 
215 
216 
216 
216 
216 
216 
215 
215 
215 
214 
215 
215 
215 
216 
216 
216 
216 
218 
218 
218 
218 
218 
218 
218 
218 
218 
218 
218 
218 
218 
218 
218 
218 
218 
218 
218 
218 
218 
218 
218 
218 
217 
217 
217 
216 
216 
216 
216 
216 
216 
216 
216 
216 
216 
216 
216 
216 
216 
216 
216 
216 
216 
215 
215 
215 
215 
215 
215 
215 
215 
215 
215 
215 
215 
215 
215 
215 
215 
216 
211 
218 
211 
213 
222 
213 
215 
216 
212 
212 
214 
215 
215 
216 
220 
214 
214 
215 
215 
215 
215 
215 
215 
216 
216 
216 
216 
217 
217 
217 
217 
215 
215 
216 
216 
216 
217 
217 
217 
218 
218 
218 
218 
218 
218 
218 
218 
218 
218 
218 
218 
218 
218 
218 
218 
218 
218 
218 
218 
218 
217 
217 
217 
216 
216 
216 
216 
216 
216 
216 
216 
216 
216 
216 
216 
216 
216 
216 
216 
216 
216 
216 
216 
216 
215 
215 
215 
215 
215 
215 
215 
215 
215 
215 
215 
215 
215 
215 
215 
215 
216 
212 
218 
209 
213 
225 
214 
213 
223 
216 
211 
212 
212 
211 
212 
215 
215 
215 
215 
215 
215 
215 
215 
215 
215 
216 
216 
217 
218 
219 
219 
220 
216 
216 
216 
217 
217 
218 
218 
218 
218 
218 
218 
218 
218 
218 
218 
218 
218 
218 
218 
218 
218 
218 
218 
218 
218 
218 
218 
218 
218 
217 
217 
217 
215 
215 
215 
216 
216 
216 
216 
216 
216 
216 
216 
216 
216 
216 
216 
216 
216 
216 
217 
217 
217 
214 
213 
215 
216 
214 
216 
217 
213 
215 
218 
202 
239 
217 
210 
218 
215 
209 
210 
231 
212 
212 
218 
214 
221 
227 
219 
216 
223 
214 
216 
218 
219 
216 
217 
215 
216 
219 
214 
212 
216 
216 
210 
215 
221 
214 
210 
216 
221 
212 
219 
216 
219 
218 
215 
218 
218 
218 
216 
215 
217 
219 
219 
218 
218 
217 
217 
217 
218 
219 
219 
218 
218 
216 
216 
217 
217 
218 
217 
217 
217 
216 
216 
216 
216 
216 
216 
216 
216 
215 
215 
216 
216 
216 
216 
217 
217 
217 
217 
217 
217 
217 
216 
214 
216 
216 
213 
213 
212 
208 
203 
225 
206 
199 
206 
223 
212 
216 
212 
209 
209 
203 
205 
214 
204 
213 
208 
205 
216 
207 
221 
216 
214 
211 
221 
219 
214 
212 
218 
220 
209 
218 
219 
223 
222 
217 
215 
215 
215 
215 
218 
217 
215 
217 
218 
220 
220 
218 
218 
218 
218 
218 
218 
218 
218 
219 
221 
221 
220 
218 
216 
215 
216 
216 
216 
216 
217 
218 
218 
217 
217 
217 
216 
216 
216 
216 
216 
216 
216 
215 
216 
216 
216 
216 
216 
217 
217 
217 
217 
217 
217 
217 
217 
217 
214 
216 
217 
215 
215 
214 
211 
217 
212 
221 
211 
204 
212 
204 
201 
210 
205 
176 
178 
178 
205 
193 
191 
175 
186 
185 
189 
191 
211 
187 
176 
212 
199 
205 
212 
196 
211 
215 
217 
204 
212 
210 
208 
216 
220 
220 
224 
221 
216 
219 
217 
216 
218 
218 
218 
219 
220 
220 
218 
217 
216 
216 
216 
213 
214 
215 
215 
215 
215 
217 
218 
216 
217 
217 
218 
218 
217 
217 
217 
215 
216 
216 
216 
216 
216 
216 
216 
216 
216 
216 
216 
216 
217 
217 
218 
218 
218 
218 
217 
218 
215 
212 
213 
215 
214 
215 
215 
211 
211 
205 
201 
200 
212 
196 
186 
172 
185 
178 
143 
164 
159 
194 
188 
180 
153 
192 
170 
139 
173 
180 
170 
177 
185 
182 
168 
180 
173 
186 
196 
215 
188 
185 
185 
190 
193 
190 
192 
199 
206 
203 
215 
212 
210 
211 
216 
221 
216 
218 
218 
217 
216 
217 
215 
213 
220 
219 
219 
218 
218 
217 
217 
216 
216 
217 
217 
218 
218 
218 
217 
217 
216 
216 
216 
216 
216 
216 
216 
216 
217 
216 
216 
216 
216 
217 
217 
218 
218 
218 
218 
218 
218 
214 
212 
211 
211 
211 
213 
211 
203 
198 
205 
186 
190 
184 
166 
191 
151 
159 
139 
110 
147 
145 
170 
161 
142 
138 
183 
178 
156 
160 
158 
166 
155 
177 
156 
143 
168 
144 
158 
191 
190 
174 
164 
166 
171 
166 
164 
169 
170 
177 
177 
190 
190 
197 
195 
202 
206 
210 
212 
213 
213 
217 
221 
219 
214 
221 
218 
215 
214 
215 
216 
217 
216 
217 
217 
218 
218 
218 
218 
217 
217 
216 
216 
216 
216 
216 
217 
217 
217 
217 
216 
216 
216 
216 
217 
217 
218 
219 
218 
218 
218 
218 
215 
214 
214 
212 
214 
220 
214 
199 
203 
181 
158 
201 
174 
150 
199 
153 
146 
120 
87 
107 
132 
161 
144 
102 
140 
154 
142 
151 
140 
162 
183 
175 
160 
167 
155 
169 
154 
150 
169 
178 
157 
153 
154 
154 
155 
165 
171 
168 
170 
171 
172 
177 
195 
185 
189 
184 
203 
206 
206 
207 
213 
221 
220 
213 
220 
218 
215 
213 
215 
216 
218 
219 
217 
217 
218 
218 
218 
218 
217 
217 
216 
216 
216 
215 
216 
216 
217 
218 
216 
216 
215 
215 
215 
216 
217 
218 
218 
218 
218 
218 
217 
213 
216 
217 
214 
217 
225 
215 
192 
187 
161 
116 
169 
183 
174 
177 
140 
136 
127 
106 
103 
149 
162 
153 
132 
171 
155 
143 
138 
167 
154 
151 
163 
156 
155 
166 
165 
145 
155 
169 
165 
158 
158 
145 
139 
153 
161 
160 
164 
165 
172 
165 
174 
203 
187 
192 
185 
198 
201 
200 
196 
200 
208 
208 
202 
215 
218 
221 
222 
221 
218 
217 
217 
217 
218 
218 
218 
218 
218 
217 
216 
216 
215 
215 
214 
215 
215 
216 
217 
216 
216 
215 
214 
215 
216 
217 
218 
218 
218 
218 
217 
217 
210 
215 
215 
209 
213 
220 
205 
176 
170 
169 
138 
148 
141 
181 
169 
101 
131 
141 
148 
140 
172 
134 
137 
174 
192 
128 
141 
164 
142 
146 
150 
160 
157 
142 
143 
123 
130 
164 
163 
160 
170 
168 
141 
137 
162 
160 
150 
169 
131 
149 
142 
159 
197 
181 
196 
193 
197 
200 
196 
187 
186 
192 
193 
187 
177 
190 
206 
217 
220 
218 
218 
219 
217 
218 
218 
218 
218 
218 
217 
216 
215 
214 
214 
213 
214 
215 
216 
216 
216 
215 
214 
214 
214 
215 
216 
217 
218 
218 
217 
217 
217 
212 
213 
211 
221 
206 
210 
199 
185 
177 
206 
177 
179 
133 
187 
135 
94 
110 
143 
169 
199 
189 
114 
119 
175 
179 
145 
142 
175 
156 
139 
162 
169 
141 
107 
116 
112 
137 
158 
171 
110 
142 
148 
133 
156 
179 
171 
148 
144 
133 
132 
152 
151 
168 
183 
186 
188 
178 
177 
185 
167 
175 
184 
194 
183 
160 
156 
176 
199 
217 
224 
216 
220 
219 
223 
218 
222 
215 
224 
212 
218 
215 
214 
215 
214 
216 
215 
216 
215 
215 
215 
213 
213 
213 
214 
216 
217 
217 
217 
218 
218 
217 
212 
206 
210 
226 
201 
200 
220 
168 
153 
173 
172 
158 
154 
167 
121 
87 
109 
166 
187 
178 
161 
135 
149 
177 
198 
168 
152 
153 
167 
186 
154 
178 
84 
98 
83 
83 
118 
171 
141 
90 
99 
109 
149 
159 
150 
151 
152 
130 
114 
140 
118 
124 
166 
164 
187 
181 
162 
164 
182 
144 
165 
167 
180 
190 
180 
169 
186 
205 
211 
205 
223 
204 
216 
219 
213 
219 
218 
220 
216 
220 
220 
218 
216 
214 
214 
213 
213 
213 
217 
216 
214 
213 
214 
215 
217 
218 
217 
218 
218 
218 
218 
216 
211 
202 
214 
214 
190 
194 
174 
162 
154 
157 
150 
134 
178 
104 
88 
119 
170 
174 
168 
131 
139 
203 
134 
160 
137 
127 
123 
166 
129 
133 
173 
146 
109 
91 
72 
68 
137 
105 
94 
108 
79 
108 
136 
122 
104 
156 
160 
172 
111 
106 
118 
136 
148 
163 
161 
166 
149 
156 
130 
166 
159 
155 
181 
198 
198 
199 
199 
199 
194 
209 
215 
215 
220 
205 
222 
218 
219 
216 
219 
215 
215 
214 
215 
214 
216 
216 
217 
216 
215 
213 
212 
213 
214 
216 
217 
218 
219 
219 
219 
218 
216 
215 
205 
203 
153 
163 
205 
180 
185 
143 
168 
141 
103 
167 
89 
83 
74 
158 
144 
165 
107 
129 
186 
130 
157 
153 
157 
136 
139 
112 
98 
101 
123 
173 
144 
81 
104 
140 
106 
80 
102 
95 
73 
90 
91 
74 
140 
129 
141 
102 
105 
116 
108 
114 
123 
134 
159 
153 
151 
141 
158 
152 
138 
157 
177 
177 
185 
189 
190 
210 
188 
213 
206 
217 
195 
223 
212 
218 
212 
216 
216 
218 
217 
219 
214 
215 
211 
211 
215 
214 
214 
213 
214 
214 
215 
216 
219 
219 
219 
219 
218 
210 
208 
192 
214 
149 
168 
194 
165 
173 
131 
186 
120 
111 
117 
98 
106 
97 
141 
153 
164 
146 
166 
187 
152 
166 
167 
161 
164 
166 
127 
114 
68 
86 
72 
116 
114 
135 
155 
159 
143 
78 
89 
83 
137 
127 
65 
87 
90 
83 
101 
104 
96 
78 
96 
88 
88 
115 
153 
172 
157 
148 
152 
162 
158 
177 
170 
197 
199 
173 
188 
166 
184 
193 
205 
190 
211 
208 
211 
211 
211 
214 
217 
215 
220 
213 
217 
212 
214 
216 
216 
216 
217 
217 
217 
217 
217 
218 
219 
219 
219 
218 
207 
211 
203 
214 
204 
207 
127 
164 
169 
157 
177 
121 
128 
92 
114 
159 
148 
167 
180 
183 
172 
176 
188 
153 
145 
181 
164 
156 
159 
109 
133 
76 
59 
58 
44 
87 
147 
134 
147 
166 
132 
83 
67 
131 
130 
83 
61 
67 
117 
121 
89 
82 
74 
79 
75 
100 
110 
138 
165 
158 
160 
157 
180 
160 
169 
170 
192 
186 
178 
165 
155 
169 
186 
198 
195 
196 
205 
204 
211 
204 
211 
215 
211 
217 
210 
216 
213 
217 
215 
215 
216 
216 
217 
217 
216 
216 
218 
218 
218 
218 
217 
206 
216 
221 
168 
174 
200 
112 
166 
151 
165 
177 
138 
144 
98 
125 
191 
175 
212 
168 
191 
185 
192 
160 
147 
157 
150 
154 
171 
145 
128 
116 
134 
132 
90 
59 
69 
79 
86 
92 
104 
122 
108 
81 
65 
51 
69 
66 
64 
86 
129 
89 
121 
138 
74 
70 
107 
124 
112 
121 
133 
152 
146 
156 
146 
131 
118 
126 
126 
167 
169 
154 
173 
178 
194 
193 
187 
191 
206 
207 
202 
206 
211 
208 
216 
205 
211 
205 
208 
214 
214 
213 
213 
214 
214 
215 
215 
217 
217 
218 
217 
216 
205 
208 
170 
114 
148 
162 
119 
147 
83 
104 
195 
138 
174 
103 
149 
201 
147 
171 
187 
175 
169 
154 
149 
149 
179 
138 
142 
165 
163 
161 
139 
116 
139 
138 
85 
58 
65 
67 
56 
64 
71 
76 
66 
91 
101 
84 
64 
69 
84 
93 
97 
103 
112 
91 
88 
94 
88 
73 
77 
99 
116 
131 
137 
153 
145 
96 
99 
79 
92 
133 
138 
187 
163 
188 
180 
184 
173 
213 
204 
206 
182 
193 
196 
212 
207 
216 
210 
214 
216 
215 
213 
213 
213 
214 
216 
217 
216 
217 
217 
216 
215 
209 
212 
136 
58 
168 
165 
90 
125 
44 
150 
174 
95 
161 
121 
192 
203 
114 
98 
108 
110 
87 
66 
80 
124 
145 
120 
125 
144 
164 
120 
95 
91 
80 
94 
72 
72 
65 
70 
63 
75 
74 
49 
50 
66 
103 
111 
89 
70 
69 
94 
103 
86 
106 
135 
117 
106 
113 
98 
89 
90 
90 
131 
155 
143 
176 
112 
118 
81 
62 
84 
77 
168 
143 
163 
178 
182 
164 
178 
186 
175 
175 
180 
191 
189 
200 
193 
195 
212 
209 
211 
210 
211 
215 
216 
215 
218 
218 
217 
216 
215 
215 
214 
211 
120 
86 
191 
117 
140 
142 
75 
148 
83 
48 
80 
72 
130 
166 
107 
100 
93 
71 
48 
44 
53 
79 
102 
75 
81 
87 
73 
81 
87 
59 
58 
73 
69 
77 
66 
58 
58 
76 
65 
62 
67 
54 
74 
95 
92 
81 
63 
82 
127 
80 
102 
160 
112 
99 
121 
101 
110 
91 
81 
83 
134 
142 
138 
126 
120 
78 
69 
85 
71 
124 
155 
162 
164 
165 
146 
145 
146 
146 
175 
153 
167 
219 
204 
177 
195 
190 
198 
207 
211 
212 
215 
216 
213 
211 
218 
218 
218 
217 
216 
218 
194 
98 
140 
191 
141 
160 
128 
98 
126 
72 
39 
48 
50 
74 
120 
95 
81 
62 
48 
50 
53 
52 
63 
73 
82 
60 
60 
67 
76 
67 
84 
72 
63 
55 
70 
82 
78 
68 
58 
72 
68 
76 
67 
73 
69 
68 
84 
78 
65 
133 
89 
51 
81 
74 
65 
51 
89 
137 
160 
94 
52 
83 
142 
125 
131 
124 
117 
105 
85 
63 
81 
120 
127 
124 
122 
122 
133 
146 
166 
121 
74 
109 
180 
180 
194 
209 
205 
204 
213 
217 
215 
212 
208 
211 
219 
217 
217 
217 
217 
217 
211 
205 
192 
211 
199 
158 
166 
106 
97 
160 
72 
60 
65 
56 
57 
94 
63 
66 
58 
52 
56 
54 
52 
63 
58 
59 
49 
61 
61 
61 
55 
78 
73 
63 
57 
60 
75 
78 
76 
54 
65 
79 
97 
83 
78 
64 
59 
79 
67 
50 
74 
77 
54 
53 
97 
81 
59 
89 
136 
176 
154 
100 
88 
100 
118 
133 
128 
153 
152 
99 
55 
58 
77 
93 
88 
78 
96 
123 
135 
149 
102 
73 
93 
112 
124 
174 
194 
197 
211 
207 
206 
211 
213 
208 
211 
223 
216 
215 
215 
216 
216 
219 
208 
203 
191 
180 
172 
202 
109 
141 
159 
71 
66 
54 
57 
71 
77 
59 
73 
67 
57 
63 
66 
63 
62 
56 
51 
54 
58 
50 
54 
62 
60 
63 
59 
61 
57 
62 
65 
79 
66 
56 
79 
107 
94 
82 
63 
63 
90 
126 
115 
67 
72 
111 
66 
75 
118 
112 
106 
117 
140 
117 
106 
103 
68 
101 
127 
111 
118 
134 
112 
73 
67 
63 
83 
87 
72 
87 
102 
96 
95 
89 
97 
93 
76 
78 
118 
178 
192 
183 
184 
190 
208 
226 
224 
211 
204 
217 
217 
216 
215 
215 
221 
222 
216 
211 
175 
196 
193 
124 
185 
133 
85 
76 
58 
65 
69 
74 
70 
67 
53 
52 
61 
62 
60 
55 
50 
59 
56 
48 
59 
52 
50 
54 
61 
52 
52 
55 
60 
57 
70 
66 
54 
66 
93 
90 
84 
66 
60 
80 
130 
152 
132 
102 
158 
119 
57 
131 
158 
95 
124 
107 
132 
96 
139 
62 
85 
91 
88 
84 
82 
105 
99 
72 
54 
72 
93 
82 
80 
79 
75 
83 
84 
77 
91 
74 
64 
92 
155 
194 
185 
189 
188 
188 
201 
216 
221 
221 
219 
219 
218 
217 
216 
215 
208 
220 
212 
196 
214 
194 
173 
182 
133 
78 
97 
88 
83 
58 
87 
74 
73 
66 
68 
61 
53 
56 
62 
56 
52 
58 
60 
60 
52 
52 
51 
50 
49 
49 
51 
49 
47 
57 
58 
52 
61 
79 
67 
69 
71 
60 
51 
61 
125 
176 
137 
167 
173 
85 
91 
137 
105 
123 
132 
153 
123 
141 
86 
79 
73 
80 
86 
68 
82 
88 
66 
59 
58 
80 
72 
67 
68 
72 
81 
79 
57 
87 
85 
78 
104 
142 
205 
186 
197 
203 
204 
206 
208 
211 
217 
216 
216 
217 
217 
217 
205 
211 
216 
224 
219 
217 
195 
196 
200 
74 
92 
90 
83 
92 
78 
88 
54 
63 
64 
65 
61 
60 
65 
53 
54 
53 
58 
59 
53 
54 
57 
50 
49 
52 
48 
47 
51 
59 
62 
52 
63 
51 
61 
63 
63 
53 
51 
60 
45 
98 
161 
150 
143 
135 
79 
77 
121 
142 
121 
128 
157 
154 
137 
104 
99 
108 
76 
63 
64 
57 
59 
85 
80 
55 
63 
60 
72 
87 
84 
71 
83 
86 
89 
94 
82 
87 
121 
184 
212 
201 
194 
200 
204 
199 
203 
217 
210 
212 
214 
216 
217 
211 
212 
220 
204 
212 
212 
183 
200 
169 
74 
57 
61 
89 
123 
107 
84 
71 
67 
65 
66 
64 
59 
58 
62 
59 
55 
53 
57 
57 
55 
58 
57 
52 
51 
55 
52 
52 
60 
60 
54 
58 
52 
53 
51 
51 
58 
54 
51 
54 
95 
125 
134 
149 
114 
58 
78 
105 
154 
80 
106 
151 
172 
164 
100 
105 
80 
54 
62 
64 
53 
52 
86 
84 
68 
58 
60 
68 
77 
82 
81 
83 
117 
104 
84 
83 
79 
61 
119 
197 
207 
200 
205 
198 
194 
215 
226 
221 
218 
215 
215 
217 
214 
213 
216 
204 
211 
214 
198 
213 
135 
78 
91 
75 
122 
186 
128 
65 
70 
66 
62 
62 
64 
65 
65 
65 
61 
61 
55 
54 
54 
57 
56 
50 
55 
56 
58 
59 
57 
57 
58 
55 
58 
56 
55 
54 
55 
57 
56 
55 
54 
77 
97 
81 
150 
147 
54 
67 
69 
153 
100 
101 
158 
188 
150 
86 
105 
78 
53 
51 
58 
60 
56 
75 
89 
74 
63 
62 
65 
69 
74 
76 
80 
88 
75 
68 
81 
88 
58 
70 
135 
199 
202 
193 
206 
206 
206 
212 
214 
214 
214 
215 
217 
206 
210 
217 
216 
220 
219 
209 
211 
158 
112 
105 
104 
163 
188 
103 
63 
65 
68 
68 
66 
67 
70 
68 
63 
69 
61 
52 
52 
62 
68 
59 
50 
47 
57 
63 
71 
63 
53 
61 
65 
56 
58 
54 
57 
62 
62 
63 
61 
61 
56 
71 
46 
114 
134 
65 
64 
63 
139 
163 
151 
155 
165 
142 
102 
67 
62 
70 
64 
57 
51 
57 
80 
95 
80 
66 
61 
58 
57 
61 
67 
61 
66 
77 
71 
58 
59 
53 
63 
109 
181 
176 
151 
181 
206 
212 
212 
213 
213 
214 
215 
216 
213 
213 
213 
214 
214 
213 
216 
214 
213 
197 
148 
159 
198 
154 
73 
62 
69 
76 
77 
71 
68 
70 
68 
62 
52 
58 
61 
61 
75 
86 
74 
61 
56 
59 
50 
56 
62 
55 
57 
51 
55 
61 
55 
59 
69 
72 
70 
62 
61 
53 
52 
45 
73 
81 
67 
61 
66 
111 
159 
155 
168 
168 
140 
140 
74 
51 
56 
53 
52 
51 
72 
97 
95 
82 
67 
59 
55 
51 
52 
61 
59 
54 
69 
69 
54 
51 
55 
65 
111 
176 
161 
126 
170 
205 
213 
217 
215 
216 
216 
215 
214 
215 
214 
212 
215 
212 
210 
216 
210 
221 
223 
187 
209 
203 
115 
71 
73 
77 
79 
75 
68 
65 
68 
66 
60 
57 
54 
57 
73 
120 
152 
120 
74 
52 
70 
62 
61 
58 
53 
65 
65 
55 
62 
63 
65 
72 
76 
72 
62 
61 
69 
52 
52 
66 
63 
63 
55 
61 
65 
96 
116 
133 
171 
133 
124 
90 
53 
47 
48 
50 
56 
86 
97 
82 
76 
64 
59 
58 
52 
51 
57 
58 
51 
53 
57 
60 
61 
57 
54 
91 
133 
190 
188 
162 
174 
217 
215 
212 
214 
216 
216 
215 
211 
212 
215 
219 
216 
213 
213 
207 
216 
203 
200 
201 
148 
75 
76 
73 
67 
67 
66 
66 
68 
67 
61 
55 
58 
65 
109 
156 
182 
173 
118 
76 
45 
58 
53 
51 
55 
56 
64 
65 
62 
58 
67 
68 
68 
74 
70 
65 
65 
68 
63 
59 
56 
72 
75 
52 
63 
46 
53 
89 
77 
131 
95 
74 
66 
53 
56 
65 
51 
55 
88 
84 
60 
64 
59 
56 
59 
54 
50 
54 
54 
60 
56 
53 
53 
58 
59 
61 
80 
73 
162 
211 
170 
154 
209 
219 
206 
210 
214 
217 
217 
217 
214 
213 
210 
211 
213 
215 
218 
224 
210 
219 
187 
121 
71 
86 
56 
56 
59 
67 
73 
71 
65 
66 
72 
82 
69 
115 
167 
175 
143 
88 
59 
52 
71 
70 
58 
53 
57 
79 
108 
102 
65 
66 
66 
64 
73 
67 
69 
68 
64 
66 
55 
55 
80 
95 
63 
58 
73 
55 
66 
72 
88 
54 
57 
59 
52 
53 
77 
56 
57 
97 
84 
50 
61 
58 
51 
54 
52 
50 
56 
71 
67 
54 
59 
56 
62 
61 
67 
72 
72 
111 
154 
193 
183 
196 
221 
209 
211 
214 
216 
217 
212 
212 
216 
214 
216 
218 
212 
215 
215 
195 
212 
220 
176 
89 
91 
69 
59 
65 
76 
79 
69 
63 
79 
104 
71 
78 
144 
193 
197 
175 
124 
86 
77 
77 
64 
48 
56 
81 
121 
168 
152 
83 
68 
64 
64 
75 
64 
68 
78 
89 
69 
58 
92 
101 
112 
87 
56 
98 
104 
73 
64 
47 
54 
55 
58 
54 
58 
98 
65 
53 
100 
95 
52 
66 
61 
49 
49 
51 
52 
62 
84 
66 
53 
78 
70 
64 
57 
66 
47 
90 
145 
150 
172 
197 
221 
212 
218 
217 
215 
214 
214 
214 
214 
214 
214 
214 
214 
214 
214 
216 
215 
212 
209 
216 
101 
79 
80 
59 
66 
62 
68 
72 
65 
75 
88 
108 
150 
172 
169 
179 
181 
130 
66 
60 
74 
101 
106 
109 
102 
109 
127 
99 
88 
74 
60 
61 
67 
66 
75 
97 
73 
53 
72 
120 
111 
137 
80 
76 
124 
103 
87 
64 
48 
58 
68 
60 
63 
56 
107 
80 
56 
90 
87 
82 
91 
76 
58 
51 
58 
55 
55 
69 
67 
60 
68 
61 
55 
60 
66 
48 
95 
165 
182 
157 
197 
230 
214 
217 
212 
214 
212 
215 
214 
214 
214 
214 
214 
214 
214 
214 
203 
210 
223 
222 
181 
91 
57 
76 
81 
56 
74 
77 
63 
72 
103 
148 
185 
189 
179 
175 
198 
189 
144 
128 
144 
153 
182 
175 
153 
147 
170 
186 
141 
80 
65 
48 
70 
72 
74 
86 
66 
69 
55 
142 
152 
126 
102 
48 
59 
90 
89 
84 
63 
69 
83 
71 
61 
56 
89 
92 
72 
62 
72 
83 
80 
75 
53 
64 
69 
48 
64 
75 
73 
69 
72 
67 
45 
57 
47 
73 
74 
148 
141 
159 
177 
215 
209 
222 
215 
213 
216 
214 
214 
214 
214 
214 
214 
214 
213 
213 
213 
209 
214 
212 
214 
204 
149 
62 
59 
67 
77 
77 
79 
74 
104 
173 
195 
196 
166 
177 
186 
178 
172 
171 
191 
205 
199 
195 
181 
184 
182 
178 
178 
125 
78 
100 
117 
102 
87 
143 
141 
76 
49 
107 
137 
107 
127 
65 
71 
72 
62 
90 
94 
71 
98 
108 
87 
71 
80 
76 
80 
50 
67 
86 
90 
72 
72 
99 
89 
95 
64 
76 
102 
89 
83 
73 
80 
60 
62 
57 
48 
80 
159 
169 
152 
185 
240 
213 
220 
213 
213 
218 
216 
214 
214 
214 
214 
214 
213 
213 
213 
213 
213 
216 
217 
205 
225 
202 
128 
107 
55 
73 
69 
51 
84 
147 
169 
165 
178 
176 
187 
178 
184 
180 
140 
132 
171 
178 
189 
179 
179 
174 
171 
170 
133 
111 
123 
132 
108 
112 
137 
81 
54 
92 
132 
77 
96 
109 
110 
75 
76 
101 
130 
87 
83 
92 
76 
86 
76 
84 
74 
72 
72 
73 
127 
93 
94 
84 
125 
123 
106 
57 
48 
98 
107 
104 
69 
59 
69 
56 
65 
66 
104 
124 
152 
174 
196 
221 
204 
218 
213 
213 
219 
216 
214 
215 
214 
214 
214 
213 
213 
212 
212 
217 
206 
221 
209 
208 
210 
207 
191 
134 
77 
70 
129 
176 
164 
148 
175 
179 
169 
183 
182 
173 
151 
140 
186 
206 
174 
181 
177 
168 
178 
185 
159 
131 
110 
138 
149 
156 
138 
96 
97 
134 
162 
139 
134 
148 
144 
168 
65 
81 
108 
119 
52 
73 
90 
106 
61 
91 
78 
91 
69 
73 
90 
142 
123 
125 
102 
91 
101 
103 
63 
55 
71 
99 
113 
82 
48 
62 
52 
47 
99 
136 
151 
126 
191 
212 
221 
215 
216 
215 
213 
217 
215 
215 
215 
215 
215 
214 
213 
213 
212 
212 
215 
206 
210 
214 
212 
216 
220 
224 
201 
153 
132 
173 
183 
166 
185 
192 
198 
178 
173 
154 
144 
154 
166 
194 
208 
186 
189 
183 
178 
183 
193 
190 
160 
136 
132 
115 
148 
155 
135 
135 
172 
161 
164 
196 
136 
174 
138 
127 
60 
137 
93 
87 
60 
95 
98 
76 
68 
78 
107 
99 
80 
99 
118 
117 
121 
106 
120 
74 
100 
59 
84 
85 
80 
90 
71 
85 
75 
85 
81 
95 
128 
151 
148 
205 
223 
208 
208 
218 
216 
213 
216 
214 
215 
216 
216 
215 
214 
214 
213 
212 
212 
205 
217 
214 
213 
224 
218 
200 
220 
225 
208 
227 
224 
209 
209 
201 
202 
186 
192 
175 
163 
173 
150 
133 
174 
200 
201 
196 
192 
210 
191 
173 
190 
203 
181 
167 
175 
180 
174 
182 
171 
151 
140 
175 
130 
197 
174 
166 
134 
134 
137 
92 
74 
65 
77 
100 
82 
67 
95 
105 
90 
87 
82 
101 
104 
126 
94 
116 
74 
114 
69 
79 
77 
82 
77 
59 
110 
91 
121 
132 
86 
107 
173 
221 
209 
215 
220 
222 
214 
217 
213 
216 
214 
214 
216 
216 
216 
215 
214 
213 
213 
212 
213 
216 
217 
199 
216 
221 
205 
211 
204 
212 
207 
210 
217 
216 
215 
211 
203 
206 
191 
171 
154 
133 
148 
198 
208 
193 
177 
176 
204 
195 
184 
205 
204 
198 
192 
206 
191 
189 
162 
161 
182 
175 
149 
180 
181 
155 
173 
96 
113 
109 
74 
75 
83 
118 
80 
93 
71 
112 
92 
94 
86 
99 
77 
92 
77 
109 
103 
101 
89 
76 
84 
82 
98 
98 
95 
114 
101 
124 
106 
67 
126 
208 
220 
210 
215 
215 
212 
215 
216 
214 
217 
214 
214 
214 
215 
216 
215 
213 
212 
212 
213 
213 
213 
213 
213 
214 
214 
215 
216 
212 
215 
215 
213 
213 
217 
217 
214 
211 
213 
205 
190 
191 
184 
197 
218 
196 
169 
159 
174 
189 
193 
195 
199 
195 
203 
205 
206 
202 
176 
156 
161 
178 
179 
166 
169 
146 
166 
147 
169 
157 
83 
55 
76 
81 
143 
69 
95 
118 
136 
94 
84 
64 
91 
97 
95 
69 
101 
102 
82 
80 
71 
56 
70 
81 
102 
137 
134 
154 
184 
155 
137 
185 
226 
210 
206 
224 
219 
218 
215 
215 
215 
215 
215 
215 
215 
215 
216 
215 
214 
213 
213 
214 
213 
213 
213 
213 
214 
214 
215 
215 
215 
217 
216 
213 
213 
216 
216 
214 
216 
215 
214 
212 
217 
201 
202 
217 
223 
201 
184 
181 
182 
188 
198 
205 
189 
202 
205 
205 
209 
201 
189 
189 
183 
183 
191 
179 
146 
192 
152 
201 
152 
145 
110 
127 
132 
124 
122 
108 
122 
120 
86 
83 
80 
91 
97 
84 
82 
81 
63 
91 
77 
92 
81 
118 
48 
103 
151 
185 
160 
202 
202 
206 
220 
229 
214 
214 
218 
210 
213 
215 
215 
215 
215 
215 
215 
215 
216 
216 
216 
215 
214 
214 
214 
213 
213 
213 
213 
214 
214 
215 
215 
216 
217 
215 
211 
211 
213 
213 
212 
209 
215 
215 
208 
219 
215 
213 
213 
214 
208 
199 
187 
178 
182 
191 
195 
193 
194 
179 
170 
185 
204 
210 
211 
204 
199 
191 
159 
205 
175 
198 
178 
187 
153 
148 
162 
157 
135 
160 
127 
139 
112 
127 
68 
113 
87 
98 
65 
93 
84 
83 
70 
89 
103 
130 
192 
109 
137 
139 
166 
159 
197 
213 
212 
218 
211 
211 
217 
215 
213 
216 
216 
216 
216 
216 
216 
216 
215 
215 
215 
215 
215 
215 
214 
214 
214 
214 
213 
213 
214 
214 
214 
215 
215 
216 
215 
212 
211 
212 
212 
210 
211 
217 
217 
207 
217 
219 
221 
218 
210 
214 
217 
211 
201 
201 
205 
205 
194 
187 
172 
169 
188 
203 
202 
197 
209 
221 
200 
184 
179 
183 
185 
207 
193 
122 
145 
163 
171 
142 
170 
157 
172 
152 
151 
114 
143 
103 
98 
93 
127 
92 
102 
72 
78 
97 
133 
164 
162 
189 
182 
202 
220 
230 
222 
222 
214 
212 
222 
219 
214 
223 
219 
212 
216 
216 
216 
216 
216 
213 
214 
214 
214 
214 
214 
214 
214 
214 
214 
214 
214 
214 
214 
214 
214 
216 
217 
217 
216 
215 
215 
214 
213 
218 
213 
217 
220 
224 
210 
212 
220 
213 
213 
216 
215 
210 
209 
212 
212 
210 
201 
196 
204 
213 
210 
203 
200 
208 
204 
211 
206 
208 
225 
180 
207 
193 
161 
179 
207 
172 
194 
136 
193 
119 
168 
100 
163 
121 
156 
103 
142 
149 
135 
124 
107 
135 
121 
177 
215 
202 
222 
215 
220 
214 
218 
203 
221 
212 
217 
224 
210 
210 
222 
215 
216 
216 
216 
216 
216 
216 
212 
212 
212 
213 
214 
214 
214 
213 
214 
214 
214 
214 
214 
214 
214 
214 
215 
216 
216 
217 
217 
216 
215 
214 
215 
212 
218 
218 
218 
207 
212 
217 
219 
214 
215 
218 
216 
216 
218 
218 
223 
215 
214 
218 
216 
209 
210 
218 
207 
212 
205 
210 
213 
215 
205 
225 
199 
211 
203 
212 
200 
180 
169 
164 
172 
176 
141 
142 
140 
159 
121 
185 
204 
181 
144 
164 
195 
177 
238 
217 
214 
203 
220 
215 
212 
212 
210 
213 
207 
211 
215 
208 
212 
217 
211 
221 
216 
216 
216 
216 
216 
212 
212 
212 
213 
214 
215 
214 
213 
215 
214 
214 
214 
213 
213 
214 
214 
214 
214 
215 
216 
216 
215 
214 
214 
215 
217 
221 
212 
214 
217 
223 
217 
213 
211 
213 
216 
215 
217 
218 
214 
212 
212 
217 
219 
214 
211 
213 
214 
209 
210 
216 
209 
220 
213 
211 
219 
214 
214 
210 
210 
211 
206 
209 
187 
207 
179 
192 
195 
202 
187 
140 
213 
194 
226 
186 
218 
214 
222 
224 
215 
226 
206 
230 
212 
217 
206 
220 
218 
216 
216 
219 
219 
218 
216 
211 
215 
216 
216 
216 
216 
216 
212 
212 
211 
213 
214 
215 
214 
213 
215 
215 
214 
214 
213 
213 
213 
214 
216 
216 
216 
216 
216 
216 
216 
216 
216 
212 
217 
215 
218 
215 
216 
209 
216 
216 
217 
215 
213 
217 
219 
215 
214 
215 
216 
212 
212 
221 
222 
212 
217 
223 
214 
216 
218 
218 
216 
215 
214 
220 
214 
213 
220 
210 
215 
229 
206 
217 
229 
209 
229 
207 
213 
227 
209 
224 
223 
219 
206 
225 
214 
220 
218 
215 
218 
215 
218 
214 
210 
217 
215 
212 
214 
215 
212 
216 
219 
213 
216 
216 
216 
216 
216 
212 
212 
212 
212 
213 
213 
214 
215 
214 
214 
214 
214 
214 
214 
215 
215 
215 
215 
215 
215 
215 
215 
216 
216 
216 
216 
216 
216 
216 
216 
215 
215 
216 
216 
215 
215 
214 
213 
213 
212 
217 
217 
216 
215 
214 
213 
212 
212 
216 
216 
216 
216 
216 
215 
214 
214 
216 
217 
218 
217 
215 
214 
214 
215 
214 
231 
213 
222 
226 
220 
233 
210 
218 
217 
214 
217 
223 
223 
216 
213 
217 
217 
216 
215 
214 
214 
214 
215 
215 
215 
215 
215 
215 
215 
215 
216 
216 
216 
216 
216 
216 
212 
212 
212 
212 
213 
214 
214 
215 
214 
214 
214 
214 
214 
214 
215 
215 
215 
215 
215 
215 
215 
215 
216 
216 
216 
216 
216 
216 
216 
216 
215 
215 
215 
215 
215 
215 
214 
214 
214 
214 
215 
215 
215 
215 
215 
215 
215 
215 
216 
216 
216 
216 
216 
215 
215 
214 
215 
215 
215 
215 
214 
214 
214 
214 
214 
212 
207 
218 
223 
217 
221 
218 
217 
218 
216 
216 
221 
220 
216 
216 
217 
217 
216 
215 
214 
213 
214 
215 
215 
215 
215 
215 
215 
215 
215 
216 
216 
216 
216 
216 
216 
212 
212 
212 
213 
213 
214 
214 
214 
214 
214 
214 
214 
214 
214 
215 
215 
215 
215 
215 
215 
215 
215 
216 
216 
216 
216 
216 
216 
216 
216 
215 
215 
214 
215 
215 
215 
215 
216 
216 
216 
214 
215 
215 
215 
216 
216 
216 
217 
216 
216 
216 
216 
216 
215 
215 
215 
215 
214 
213 
213 
214 
214 
213 
212 
221 
207 
212 
216 
218 
218 
210 
220 
216 
219 
218 
216 
218 
217 
216 
219 
218 
218 
217 
215 
214 
213 
213 
214 
215 
215 
215 
215 
215 
215 
215 
216 
216 
216 
216 
216 
216 
212 
212 
213 
213 
213 
214 
214 
214 
214 
214 
214 
214 
214 
214 
215 
215 
215 
215 
215 
215 
215 
215 
216 
216 
216 
216 
216 
216 
216 
216 
215 
215 
215 
215 
215 
216 
216 
216 
217 
217 
216 
216 
216 
216 
216 
216 
216 
216 
216 
216 
216 
216 
216 
216 
215 
215 
216 
214 
212 
213 
215 
216 
215 
213 
222 
215 
222 
214 
215 
223 
213 
216 
216 
219 
218 
216 
217 
216 
216 
220 
219 
219 
218 
216 
214 
213 
213 
214 
215 
215 
215 
215 
215 
215 
215 
216 
216 
216 
216 
216 
216 
212 
212 
213 
213 
214 
214 
214 
214 
214 
214 
214 
214 
214 
214 
215 
215 
215 
215 
215 
215 
215 
215 
216 
216 
216 
216 
216 
216 
216 
216 
215 
215 
216 
216 
216 
216 
216 
216 
216 
216 
217 
217 
217 
217 
216 
216 
216 
216 
216 
216 
216 
216 
216 
216 
216 
216 
218 
215 
213 
214 
217 
218 
217 
215 
215 
218 
220 
213 
214 
222 
219 
215 
216 
219 
217 
216 
218 
217 
216 
218 
219 
219 
218 
216 
214 
213 
213 
214 
215 
215 
215 
215 
215 
215 
215 
216 
215 
215 
215 
216 
216 
