P2
# Created by MsrVolt
135 68
255
224 
224 
224 
224 
224 
224 
224 
224 
223 
223 
223 
223 
223 
223 
223 
223 
224 
224 
224 
224 
224 
224 
224 
223 
222 
223 
223 
223 
223 
223 
223 
222 
221 
221 
222 
223 
224 
224 
223 
222 
225 
223 
223 
224 
219 
220 
227 
220 
223 
227 
222 
225 
225 
221 
224 
224 
224 
226 
224 
222 
223 
222 
222 
226 
225 
227 
222 
227 
222 
228 
225 
226 
226 
226 
224 
223 
224 
223 
223 
225 
224 
225 
223 
221 
221 
222 
222 
222 
223 
220 
220 
220 
219 
222 
224 
220 
222 
222 
223 
223 
223 
223 
222 
222 
224 
224 
223 
223 
223 
223 
224 
224 
224 
223 
223 
223 
223 
224 
224 
223 
223 
223 
224 
224 
224 
224 
224 
224 
224 
224 
224 
224 
224 
224 
224 
224 
224 
224 
224 
224 
224 
224 
224 
224 
224 
224 
224 
224 
224 
224 
224 
224 
224 
224 
224 
224 
223 
223 
223 
223 
223 
223 
223 
223 
223 
223 
223 
224 
223 
223 
223 
223 
223 
223 
222 
220 
225 
221 
217 
226 
224 
217 
229 
222 
223 
222 
224 
225 
224 
226 
226 
223 
225 
224 
223 
225 
224 
222 
224 
222 
225 
224 
229 
224 
228 
223 
224 
223 
223 
225 
226 
227 
226 
225 
225 
224 
225 
224 
222 
221 
222 
222 
221 
220 
219 
220 
220 
218 
220 
223 
222 
222 
222 
222 
223 
223 
223 
223 
223 
223 
223 
223 
222 
222 
222 
223 
223 
224 
223 
223 
223 
223 
223 
223 
223 
223 
223 
224 
224 
224 
224 
224 
224 
224 
224 
224 
224 
224 
223 
223 
224 
224 
224 
224 
224 
224 
224 
224 
224 
224 
224 
224 
224 
224 
224 
224 
225 
224 
224 
224 
223 
223 
223 
223 
223 
223 
223 
222 
222 
223 
223 
223 
223 
223 
222 
222 
222 
221 
221 
221 
226 
218 
223 
222 
221 
223 
219 
224 
225 
221 
225 
224 
223 
226 
225 
223 
224 
226 
224 
222 
225 
225 
223 
224 
225 
226 
224 
226 
222 
225 
224 
227 
227 
225 
225 
225 
222 
224 
226 
224 
224 
225 
224 
222 
221 
222 
222 
220 
219 
220 
221 
220 
219 
219 
221 
223 
221 
222 
222 
223 
223 
223 
223 
223 
223 
223 
223 
223 
223 
223 
222 
222 
224 
224 
223 
223 
223 
223 
223 
223 
223 
223 
224 
224 
224 
224 
224 
224 
225 
224 
224 
224 
223 
223 
223 
224 
224 
224 
224 
224 
224 
224 
224 
224 
224 
224 
224 
224 
224 
224 
224 
225 
225 
224 
224 
223 
223 
223 
222 
222 
222 
222 
222 
222 
222 
222 
222 
222 
222 
222 
221 
221 
221 
222 
223 
225 
218 
223 
225 
217 
220 
225 
219 
226 
221 
226 
224 
222 
227 
224 
222 
224 
227 
224 
221 
222 
223 
223 
226 
226 
225 
223 
225 
224 
224 
225 
227 
228 
225 
225 
224 
220 
223 
226 
223 
223 
224 
224 
222 
222 
222 
222 
220 
221 
222 
221 
220 
221 
219 
219 
222 
221 
221 
222 
223 
223 
223 
223 
223 
223 
223 
224 
224 
224 
224 
223 
223 
223 
224 
224 
224 
223 
223 
223 
223 
223 
223 
224 
224 
224 
224 
224 
224 
225 
225 
224 
224 
223 
223 
223 
224 
224 
224 
224 
224 
224 
224 
224 
224 
224 
224 
224 
224 
224 
224 
224 
225 
224 
224 
224 
223 
223 
223 
223 
222 
222 
223 
223 
223 
223 
222 
222 
223 
223 
223 
222 
221 
221 
222 
223 
215 
229 
219 
217 
225 
222 
223 
223 
222 
222 
225 
224 
224 
227 
226 
224 
222 
227 
225 
221 
222 
222 
223 
226 
225 
223 
224 
226 
229 
226 
223 
222 
223 
224 
226 
226 
225 
226 
225 
222 
222 
224 
224 
222 
222 
223 
222 
221 
221 
221 
218 
219 
223 
221 
218 
222 
221 
222 
222 
223 
223 
223 
223 
223 
223 
223 
223 
223 
223 
223 
224 
224 
222 
223 
224 
224 
223 
223 
223 
223 
223 
223 
224 
224 
224 
224 
224 
224 
225 
224 
224 
224 
223 
223 
223 
224 
224 
224 
224 
224 
224 
224 
224 
224 
224 
224 
224 
224 
224 
224 
224 
224 
224 
224 
224 
224 
223 
223 
223 
223 
224 
224 
224 
224 
224 
224 
223 
221 
222 
222 
221 
220 
219 
220 
221 
220 
226 
221 
221 
222 
222 
224 
220 
220 
229 
224 
223 
226 
223 
224 
223 
220 
226 
226 
223 
224 
224 
222 
223 
229 
223 
223 
222 
226 
222 
225 
226 
226 
231 
227 
222 
224 
225 
224 
225 
223 
224 
224 
222 
222 
223 
222 
221 
220 
221 
216 
218 
225 
222 
217 
223 
222 
222 
222 
223 
223 
223 
223 
223 
223 
222 
222 
221 
222 
222 
223 
223 
221 
223 
224 
224 
223 
223 
223 
224 
223 
223 
224 
224 
224 
224 
224 
224 
224 
224 
224 
224 
224 
223 
223 
224 
224 
224 
224 
224 
224 
224 
224 
223 
223 
223 
223 
223 
223 
223 
223 
223 
223 
223 
224 
224 
224 
224 
224 
224 
224 
223 
222 
222 
223 
224 
224 
218 
220 
222 
221 
220 
220 
221 
222 
228 
211 
226 
226 
218 
225 
222 
223 
214 
235 
221 
223 
229 
220 
225 
224 
224 
228 
225 
221 
224 
227 
225 
223 
229 
224 
225 
221 
224 
218 
225 
230 
222 
232 
225 
218 
226 
226 
220 
225 
225 
225 
224 
222 
221 
222 
221 
220 
221 
224 
219 
220 
227 
221 
216 
224 
223 
223 
223 
223 
223 
222 
222 
222 
226 
225 
223 
222 
221 
222 
223 
224 
220 
222 
224 
225 
224 
223 
224 
225 
223 
223 
224 
224 
224 
224 
224 
224 
223 
223 
223 
224 
224 
224 
224 
224 
224 
224 
224 
224 
224 
224 
224 
223 
223 
223 
223 
223 
223 
223 
223 
223 
223 
223 
223 
224 
224 
224 
224 
224 
223 
221 
220 
220 
221 
223 
224 
218 
220 
223 
224 
224 
225 
227 
228 
222 
205 
224 
219 
227 
234 
211 
240 
205 
234 
216 
221 
233 
221 
231 
231 
231 
230 
222 
217 
223 
229 
228 
226 
220 
221 
231 
230 
230 
218 
222 
224 
203 
223 
223 
223 
237 
232 
218 
221 
226 
227 
225 
222 
220 
221 
221 
219 
225 
229 
225 
223 
228 
221 
215 
226 
223 
223 
223 
223 
223 
222 
222 
221 
229 
228 
225 
223 
223 
223 
224 
225 
219 
221 
224 
225 
224 
223 
224 
225 
223 
223 
224 
224 
224 
224 
224 
224 
223 
223 
223 
223 
224 
224 
224 
224 
224 
225 
225 
225 
224 
224 
223 
223 
223 
223 
223 
223 
223 
222 
222 
224 
223 
223 
224 
224 
223 
223 
224 
224 
224 
224 
228 
216 
220 
225 
225 
226 
219 
224 
213 
214 
228 
210 
221 
224 
230 
223 
220 
218 
215 
206 
243 
238 
219 
236 
223 
233 
213 
227 
230 
220 
232 
211 
231 
225 
221 
210 
231 
232 
222 
200 
229 
205 
238 
238 
230 
224 
230 
227 
205 
214 
229 
226 
213 
211 
217 
226 
230 
217 
214 
221 
222 
222 
211 
220 
210 
221 
225 
220 
230 
225 
215 
225 
226 
222 
236 
225 
219 
230 
208 
218 
228 
223 
215 
226 
226 
223 
219 
222 
229 
218 
225 
223 
222 
222 
223 
224 
226 
225 
223 
223 
224 
223 
223 
223 
224 
224 
224 
224 
224 
224 
225 
225 
225 
224 
224 
223 
222 
222 
223 
223 
223 
223 
222 
222 
223 
221 
222 
224 
225 
223 
223 
225 
224 
220 
226 
228 
226 
216 
229 
228 
223 
223 
221 
226 
220 
227 
220 
215 
218 
218 
220 
225 
220 
249 
241 
204 
223 
211 
229 
229 
224 
212 
214 
209 
209 
229 
239 
239 
222 
208 
215 
196 
203 
179 
161 
176 
155 
169 
188 
168 
207 
195 
176 
194 
143 
141 
181 
216 
233 
198 
149 
176 
181 
191 
188 
215 
227 
230 
218 
217 
232 
229 
215 
224 
235 
229 
216 
227 
225 
217 
216 
223 
222 
221 
221 
221 
215 
227 
214 
225 
227 
218 
218 
220 
220 
228 
226 
229 
224 
222 
222 
224 
225 
224 
223 
223 
223 
223 
223 
224 
224 
224 
224 
224 
224 
225 
225 
225 
224 
224 
223 
222 
223 
223 
223 
223 
223 
223 
223 
222 
222 
222 
224 
224 
223 
223 
224 
228 
223 
221 
223 
228 
220 
230 
221 
219 
222 
225 
234 
225 
220 
227 
235 
231 
234 
231 
219 
173 
198 
199 
221 
221 
204 
204 
131 
116 
96 
121 
104 
97 
147 
193 
178 
158 
177 
195 
185 
145 
162 
197 
178 
169 
201 
164 
126 
176 
175 
159 
165 
160 
150 
182 
206 
204 
185 
145 
152 
177 
165 
161 
179 
207 
200 
190 
213 
201 
190 
197 
199 
190 
200 
208 
196 
209 
206 
217 
215 
211 
231 
229 
219 
224 
231 
220 
227 
224 
224 
227 
224 
226 
225 
221 
225 
225 
222 
221 
223 
225 
225 
223 
223 
223 
223 
223 
224 
224 
224 
224 
224 
224 
225 
225 
225 
224 
223 
223 
223 
224 
224 
224 
224 
224 
223 
223 
223 
223 
224 
224 
224 
224 
223 
223 
219 
229 
226 
223 
217 
219 
228 
223 
222 
221 
227 
212 
217 
225 
231 
199 
233 
217 
172 
132 
80 
66 
59 
179 
146 
117 
106 
81 
86 
70 
72 
69 
63 
109 
157 
112 
143 
162 
148 
139 
154 
169 
181 
157 
162 
176 
149 
111 
95 
118 
115 
139 
181 
203 
182 
199 
217 
184 
143 
189 
202 
179 
146 
165 
181 
165 
174 
190 
166 
170 
197 
203 
165 
151 
184 
179 
186 
173 
187 
186 
184 
202 
209 
217 
222 
222 
228 
224 
226 
234 
224 
223 
222 
222 
224 
226 
225 
223 
222 
224 
226 
225 
223 
223 
223 
223 
223 
224 
224 
224 
224 
224 
224 
225 
225 
224 
224 
223 
223 
223 
223 
224 
224 
223 
223 
222 
222 
223 
223 
224 
224 
224 
225 
225 
224 
223 
225 
222 
218 
224 
228 
227 
220 
211 
215 
226 
226 
225 
202 
218 
159 
198 
146 
88 
83 
111 
90 
71 
125 
43 
65 
90 
89 
106 
90 
76 
76 
100 
132 
138 
123 
153 
156 
120 
125 
151 
140 
102 
106 
143 
167 
171 
141 
117 
95 
86 
120 
166 
161 
161 
209 
208 
141 
111 
172 
189 
181 
167 
190 
180 
179 
182 
182 
181 
188 
215 
217 
179 
147 
175 
194 
162 
185 
165 
162 
173 
157 
184 
212 
212 
224 
228 
221 
220 
228 
215 
227 
222 
226 
228 
222 
223 
223 
225 
227 
226 
224 
223 
224 
223 
223 
223 
224 
224 
224 
224 
224 
224 
225 
225 
224 
224 
223 
222 
222 
222 
222 
222 
222 
222 
222 
221 
222 
223 
223 
223 
224 
225 
226 
225 
231 
221 
224 
212 
222 
219 
208 
208 
191 
195 
193 
219 
172 
160 
229 
176 
153 
99 
88 
95 
107 
75 
126 
97 
91 
82 
94 
98 
121 
80 
66 
83 
126 
165 
134 
100 
105 
124 
134 
119 
109 
110 
115 
82 
141 
140 
149 
176 
181 
165 
101 
63 
135 
156 
196 
212 
170 
107 
126 
169 
184 
178 
192 
208 
185 
155 
182 
187 
183 
181 
177 
175 
167 
161 
156 
202 
150 
201 
156 
142 
186 
137 
191 
191 
213 
223 
217 
206 
218 
212 
221 
235 
218 
218 
223 
226 
223 
223 
225 
226 
225 
223 
223 
224 
223 
223 
223 
224 
224 
224 
224 
224 
224 
225 
225 
224 
223 
223 
222 
221 
221 
222 
222 
223 
223 
223 
223 
222 
224 
223 
221 
221 
224 
224 
223 
214 
225 
229 
205 
176 
190 
172 
195 
113 
195 
151 
171 
148 
167 
177 
168 
158 
87 
88 
91 
75 
76 
160 
96 
80 
88 
84 
92 
76 
81 
74 
97 
106 
102 
116 
132 
157 
105 
115 
114 
131 
157 
69 
142 
152 
149 
172 
167 
151 
150 
103 
124 
177 
184 
185 
208 
167 
117 
153 
195 
173 
171 
166 
185 
159 
156 
154 
200 
174 
139 
180 
148 
187 
136 
195 
177 
163 
216 
112 
176 
166 
148 
186 
170 
195 
204 
186 
174 
105 
87 
173 
221 
228 
227 
216 
221 
225 
223 
222 
223 
224 
222 
222 
224 
223 
223 
223 
224 
224 
224 
224 
224 
224 
225 
225 
224 
223 
222 
222 
221 
221 
222 
224 
225 
225 
226 
226 
225 
225 
224 
220 
219 
221 
222 
220 
206 
224 
204 
182 
134 
192 
148 
168 
123 
161 
137 
185 
101 
142 
137 
169 
114 
68 
88 
92 
66 
104 
150 
87 
90 
78 
82 
89 
79 
79 
77 
81 
85 
96 
105 
151 
127 
117 
84 
131 
178 
118 
176 
167 
155 
203 
174 
129 
161 
150 
166 
174 
172 
161 
185 
226 
175 
155 
208 
180 
151 
164 
182 
186 
110 
112 
158 
143 
118 
147 
144 
174 
161 
145 
193 
122 
168 
166 
125 
183 
125 
174 
160 
171 
164 
194 
158 
154 
99 
35 
138 
187 
221 
234 
221 
231 
227 
223 
220 
220 
222 
222 
222 
223 
223 
223 
223 
224 
224 
224 
224 
224 
224 
224 
224 
223 
223 
222 
221 
220 
222 
224 
222 
220 
221 
223 
223 
216 
229 
223 
228 
233 
228 
223 
228 
189 
237 
175 
168 
136 
185 
134 
151 
131 
148 
131 
169 
101 
151 
132 
180 
101 
90 
95 
84 
71 
143 
123 
78 
99 
59 
85 
76 
76 
82 
80 
72 
76 
86 
99 
112 
107 
102 
80 
177 
159 
157 
142 
143 
151 
196 
174 
123 
133 
168 
175 
185 
183 
171 
192 
206 
179 
143 
157 
178 
187 
181 
136 
153 
153 
137 
107 
60 
83 
108 
117 
203 
151 
146 
207 
126 
198 
167 
150 
198 
115 
202 
145 
152 
144 
207 
142 
155 
120 
42 
115 
153 
207 
219 
213 
244 
220 
228 
221 
221 
227 
228 
224 
222 
225 
225 
225 
224 
224 
224 
224 
224 
224 
224 
224 
223 
223 
222 
222 
220 
223 
225 
224 
223 
223 
223 
223 
232 
221 
215 
222 
207 
201 
205 
202 
159 
186 
156 
157 
156 
162 
128 
138 
109 
156 
106 
122 
105 
155 
127 
148 
96 
85 
85 
80 
84 
145 
108 
68 
86 
70 
75 
76 
75 
78 
78 
81 
87 
85 
92 
83 
97 
89 
177 
161 
147 
162 
85 
114 
106 
153 
159 
135 
165 
174 
181 
176 
145 
159 
212 
202 
134 
128 
208 
189 
172 
185 
195 
174 
116 
90 
117 
106 
114 
72 
157 
178 
134 
141 
164 
157 
189 
165 
120 
149 
120 
147 
125 
141 
162 
192 
95 
119 
110 
39 
59 
103 
189 
190 
213 
232 
217 
226 
229 
227 
222 
218 
223 
231 
225 
225 
224 
224 
224 
224 
224 
224 
224 
224 
223 
223 
223 
222 
222 
221 
223 
225 
224 
223 
225 
226 
226 
225 
217 
221 
210 
177 
175 
191 
173 
148 
139 
138 
153 
147 
136 
99 
118 
92 
134 
97 
110 
109 
133 
123 
122 
89 
79 
78 
72 
108 
130 
94 
65 
65 
79 
67 
83 
81 
77 
73 
81 
83 
96 
101 
104 
68 
130 
174 
100 
134 
95 
93 
92 
120 
105 
154 
173 
154 
198 
165 
179 
169 
168 
189 
192 
199 
170 
141 
159 
196 
173 
104 
94 
145 
163 
130 
124 
93 
77 
151 
165 
176 
175 
203 
130 
172 
151 
97 
100 
111 
104 
109 
123 
148 
137 
71 
108 
88 
96 
64 
80 
180 
155 
219 
225 
227 
219 
219 
222 
227 
228 
227 
221 
224 
224 
224 
224 
224 
224 
224 
225 
224 
224 
223 
222 
222 
222 
222 
223 
225 
224 
222 
221 
223 
224 
224 
213 
215 
199 
194 
153 
159 
158 
149 
143 
129 
152 
145 
113 
131 
89 
90 
101 
86 
108 
134 
124 
113 
129 
119 
104 
92 
88 
80 
138 
100 
84 
62 
56 
74 
64 
81 
82 
78 
71 
76 
85 
92 
96 
59 
92 
190 
79 
82 
94 
84 
92 
98 
76 
179 
176 
170 
162 
95 
120 
197 
159 
159 
204 
197 
142 
95 
70 
100 
115 
108 
150 
168 
178 
159 
164 
172 
76 
113 
135 
155 
170 
160 
171 
139 
175 
150 
108 
63 
75 
97 
95 
96 
113 
110 
139 
154 
125 
175 
129 
103 
193 
177 
203 
208 
225 
219 
226 
222 
223 
226 
227 
221 
223 
224 
224 
224 
224 
224 
224 
225 
225 
224 
223 
222 
221 
221 
221 
223 
225 
225 
223 
222 
221 
220 
218 
211 
186 
172 
144 
166 
116 
114 
109 
113 
102 
133 
149 
103 
125 
107 
106 
120 
75 
115 
119 
128 
106 
109 
91 
98 
91 
79 
99 
152 
79 
77 
59 
59 
60 
63 
70 
77 
83 
78 
78 
84 
83 
90 
69 
174 
149 
83 
79 
112 
96 
97 
91 
89 
150 
177 
159 
111 
46 
95 
142 
176 
178 
144 
121 
90 
91 
101 
88 
84 
99 
164 
173 
149 
142 
201 
140 
89 
105 
126 
171 
157 
178 
170 
155 
190 
155 
91 
75 
69 
99 
71 
78 
94 
110 
193 
175 
122 
204 
149 
166 
196 
190 
188 
177 
187 
203 
232 
223 
218 
221 
226 
221 
223 
223 
223 
224 
224 
224 
224 
225 
224 
223 
222 
222 
221 
221 
222 
218 
223 
227 
228 
227 
224 
219 
214 
202 
177 
177 
132 
183 
103 
101 
91 
111 
107 
135 
140 
124 
111 
142 
131 
102 
93 
109 
81 
121 
111 
94 
81 
86 
83 
63 
124 
142 
76 
72 
56 
58 
51 
70 
73 
85 
93 
84 
79 
79 
84 
83 
108 
172 
88 
67 
104 
92 
92 
95 
73 
100 
110 
147 
148 
80 
78 
128 
182 
163 
135 
141 
166 
129 
92 
102 
99 
102 
101 
116 
134 
153 
126 
114 
109 
123 
94 
156 
195 
131 
183 
169 
188 
169 
166 
52 
86 
84 
122 
83 
68 
84 
126 
194 
149 
131 
216 
175 
208 
166 
206 
194 
197 
119 
162 
223 
224 
223 
222 
223 
220 
222 
222 
223 
224 
224 
224 
224 
224 
223 
222 
222 
222 
222 
223 
223 
219 
222 
225 
225 
222 
216 
208 
201 
190 
186 
164 
161 
149 
124 
103 
105 
100 
155 
124 
134 
72 
129 
105 
100 
109 
124 
112 
100 
110 
86 
78 
69 
93 
85 
68 
137 
112 
67 
64 
53 
52 
55 
77 
81 
94 
95 
79 
73 
77 
86 
86 
169 
141 
93 
84 
92 
95 
90 
78 
74 
88 
95 
81 
94 
99 
113 
152 
182 
102 
101 
174 
155 
111 
148 
173 
110 
96 
84 
107 
118 
110 
108 
122 
187 
125 
121 
169 
117 
183 
161 
138 
180 
162 
140 
86 
80 
112 
124 
85 
85 
103 
115 
169 
176 
175 
205 
184 
165 
127 
215 
163 
219 
108 
161 
229 
226 
224 
218 
221 
229 
221 
222 
223 
224 
224 
224 
224 
223 
222 
222 
221 
222 
223 
224 
224 
225 
225 
223 
216 
208 
198 
187 
179 
186 
156 
127 
139 
109 
99 
95 
104 
101 
147 
135 
121 
91 
131 
82 
100 
93 
95 
85 
134 
102 
63 
89 
78 
81 
67 
65 
121 
77 
50 
61 
58 
50 
64 
75 
79 
90 
86 
69 
67 
77 
85 
117 
135 
99 
78 
75 
86 
94 
83 
81 
77 
90 
81 
86 
91 
103 
109 
125 
83 
92 
104 
151 
142 
142 
163 
130 
141 
103 
69 
67 
93 
121 
123 
116 
111 
111 
169 
136 
154 
165 
153 
129 
147 
167 
175 
88 
86 
97 
152 
102 
56 
79 
120 
175 
175 
154 
195 
154 
146 
156 
186 
151 
220 
180 
198 
231 
217 
228 
227 
223 
226 
221 
221 
223 
224 
224 
224 
224 
224 
223 
223 
224 
223 
220 
221 
223 
221 
227 
226 
223 
223 
190 
158 
173 
166 
131 
110 
128 
91 
91 
101 
103 
97 
124 
111 
103 
107 
112 
69 
110 
96 
88 
84 
144 
99 
63 
85 
83 
72 
71 
89 
91 
82 
57 
52 
64 
60 
61 
67 
69 
71 
81 
83 
71 
77 
89 
109 
102 
88 
70 
80 
86 
88 
82 
80 
86 
86 
76 
79 
97 
101 
94 
97 
81 
82 
94 
114 
125 
130 
135 
102 
126 
106 
75 
63 
88 
123 
130 
103 
96 
156 
182 
135 
175 
163 
186 
124 
117 
159 
190 
92 
99 
101 
147 
151 
65 
69 
110 
143 
163 
144 
192 
160 
146 
165 
150 
179 
214 
193 
213 
228 
206 
224 
228 
223 
225 
225 
223 
222 
225 
225 
224 
224 
224 
222 
222 
225 
227 
226 
223 
221 
222 
221 
210 
197 
176 
166 
167 
170 
148 
143 
140 
120 
96 
116 
119 
99 
89 
121 
102 
97 
119 
105 
84 
122 
109 
106 
95 
125 
82 
71 
84 
66 
71 
80 
93 
78 
67 
58 
59 
62 
67 
65 
63 
60 
63 
74 
81 
78 
67 
83 
104 
99 
95 
86 
82 
79 
82 
78 
77 
85 
87 
75 
77 
98 
103 
84 
85 
94 
106 
105 
94 
87 
100 
104 
70 
87 
94 
85 
69 
83 
110 
123 
115 
122 
180 
129 
123 
136 
148 
185 
114 
87 
127 
166 
110 
121 
110 
154 
174 
95 
81 
107 
111 
172 
144 
193 
177 
166 
196 
160 
214 
197 
182 
222 
211 
190 
213 
223 
217 
222 
226 
223 
222 
224 
225 
223 
223 
224 
222 
223 
225 
226 
224 
222 
221 
229 
211 
203 
167 
170 
166 
159 
132 
108 
121 
140 
110 
120 
137 
123 
80 
95 
121 
122 
125 
121 
107 
109 
111 
106 
111 
91 
139 
68 
59 
66 
55 
67 
82 
94 
69 
54 
50 
54 
55 
69 
75 
76 
74 
73 
67 
59 
55 
61 
85 
109 
97 
93 
88 
77 
77 
73 
77 
76 
80 
85 
77 
77 
94 
88 
75 
74 
85 
99 
109 
87 
67 
93 
85 
53 
59 
87 
93 
62 
53 
88 
112 
126 
152 
190 
139 
127 
72 
124 
143 
85 
88 
103 
130 
109 
121 
144 
143 
170 
96 
101 
142 
131 
187 
153 
188 
152 
176 
227 
183 
220 
183 
182 
230 
184 
189 
219 
225 
213 
223 
226 
224 
223 
223 
224 
223 
224 
222 
223 
224 
223 
222 
221 
224 
227 
223 
210 
196 
159 
163 
169 
117 
88 
92 
118 
124 
113 
125 
141 
111 
73 
99 
115 
144 
136 
106 
112 
104 
82 
104 
121 
92 
174 
62 
51 
61 
67 
65 
79 
96 
78 
60 
48 
51 
59 
69 
75 
74 
72 
73 
66 
60 
62 
68 
90 
106 
90 
86 
85 
74 
81 
82 
91 
86 
81 
87 
85 
80 
87 
85 
85 
83 
81 
76 
89 
79 
71 
70 
69 
73 
73 
81 
83 
67 
66 
84 
116 
127 
184 
163 
200 
132 
66 
91 
80 
82 
98 
95 
95 
121 
133 
158 
130 
156 
137 
128 
185 
154 
191 
141 
176 
162 
195 
215 
158 
208 
181 
173 
238 
179 
200 
222 
235 
225 
220 
224 
223 
223 
224 
224 
224 
224 
222 
222 
222 
222 
223 
225 
226 
227 
220 
195 
165 
128 
134 
134 
97 
57 
99 
137 
132 
130 
140 
135 
115 
85 
104 
104 
148 
116 
107 
121 
80 
69 
119 
130 
104 
171 
49 
60 
63 
69 
66 
81 
103 
90 
72 
55 
57 
68 
66 
71 
70 
67 
69 
67 
66 
72 
79 
87 
89 
81 
84 
87 
77 
86 
93 
92 
84 
79 
82 
76 
69 
74 
75 
75 
82 
85 
69 
68 
65 
75 
62 
54 
80 
86 
78 
77 
80 
86 
94 
98 
114 
144 
149 
181 
105 
85 
88 
82 
89 
113 
88 
113 
108 
115 
177 
139 
149 
161 
153 
170 
145 
178 
147 
166 
178 
200 
178 
114 
222 
175 
170 
216 
167 
223 
226 
222 
223 
229 
222 
222 
223 
224 
225 
225 
224 
226 
222 
220 
221 
225 
226 
219 
211 
208 
183 
136 
123 
93 
103 
106 
68 
90 
109 
76 
113 
124 
124 
107 
108 
119 
87 
146 
117 
124 
133 
71 
55 
140 
125 
104 
136 
48 
69 
51 
54 
64 
81 
99 
80 
64 
54 
55 
59 
61 
69 
73 
72 
70 
65 
60 
59 
76 
84 
80 
81 
80 
80 
80 
91 
91 
77 
71 
78 
77 
64 
60 
70 
63 
66 
74 
75 
68 
71 
67 
67 
79 
54 
68 
79 
72 
76 
80 
81 
77 
93 
126 
101 
137 
92 
70 
109 
131 
138 
121 
115 
96 
126 
93 
125 
168 
175 
144 
152 
136 
139 
125 
169 
154 
156 
145 
203 
182 
116 
206 
150 
176 
194 
155 
226 
227 
219 
223 
226 
221 
223 
223 
224 
225 
225 
224 
226 
224 
221 
221 
223 
223 
215 
207 
190 
180 
134 
153 
87 
129 
116 
103 
117 
79 
62 
64 
143 
113 
142 
149 
126 
94 
139 
133 
126 
137 
67 
43 
145 
133 
89 
110 
61 
72 
48 
55 
61 
72 
83 
63 
54 
51 
52 
51 
60 
64 
67 
64 
61 
64 
67 
63 
67 
81 
76 
84 
74 
73 
85 
93 
88 
73 
73 
82 
76 
67 
68 
75 
74 
75 
80 
68 
69 
76 
70 
56 
69 
63 
69 
74 
66 
72 
79 
86 
91 
101 
92 
94 
125 
105 
74 
96 
148 
161 
159 
98 
108 
99 
110 
174 
119 
196 
151 
172 
122 
140 
125 
166 
142 
115 
81 
165 
178 
161 
216 
208 
172 
202 
173 
210 
213 
232 
235 
209 
224 
225 
224 
222 
223 
224 
224 
220 
224 
225 
223 
222 
222 
222 
220 
206 
159 
145 
132 
149 
176 
135 
102 
118 
99 
66 
91 
133 
148 
139 
151 
125 
132 
133 
141 
126 
146 
63 
55 
130 
153 
70 
91 
59 
67 
59 
65 
61 
63 
71 
59 
58 
57 
59 
61 
61 
64 
68 
65 
59 
64 
67 
59 
62 
75 
64 
79 
74 
78 
94 
91 
82 
75 
79 
78 
67 
66 
71 
66 
70 
62 
70 
66 
70 
67 
64 
59 
67 
75 
70 
72 
73 
81 
78 
78 
78 
74 
79 
82 
95 
90 
84 
89 
119 
147 
137 
102 
99 
107 
97 
148 
120 
176 
164 
164 
163 
145 
160 
157 
161 
96 
96 
161 
194 
196 
199 
173 
176 
201 
187 
220 
215 
216 
222 
220 
226 
226 
224 
221 
221 
223 
223 
226 
220 
223 
212 
234 
214 
222 
191 
184 
146 
139 
147 
171 
182 
141 
107 
127 
119 
80 
84 
92 
149 
140 
135 
138 
147 
122 
139 
144 
177 
75 
55 
139 
154 
94 
110 
69 
75 
57 
56 
55 
63 
62 
56 
54 
54 
55 
58 
57 
66 
66 
56 
66 
71 
50 
68 
54 
69 
58 
76 
76 
74 
84 
83 
75 
79 
83 
78 
66 
62 
64 
64 
62 
62 
63 
66 
68 
69 
65 
60 
69 
75 
72 
65 
67 
72 
76 
78 
76 
78 
72 
71 
72 
78 
93 
100 
114 
119 
134 
144 
117 
145 
119 
132 
136 
156 
178 
157 
175 
164 
161 
159 
171 
116 
136 
121 
156 
173 
200 
161 
219 
221 
209 
232 
209 
210 
219 
228 
222 
224 
226 
222 
224 
225 
220 
225 
220 
227 
206 
249 
231 
192 
112 
146 
135 
140 
141 
145 
140 
128 
108 
113 
124 
94 
91 
97 
138 
135 
139 
159 
154 
129 
144 
152 
171 
89 
54 
152 
174 
115 
120 
86 
68 
54 
48 
52 
78 
68 
49 
54 
55 
48 
53 
61 
64 
66 
63 
69 
77 
65 
90 
52 
62 
57 
69 
67 
69 
76 
74 
69 
74 
80 
77 
67 
64 
65 
63 
60 
60 
65 
69 
68 
70 
69 
63 
64 
66 
63 
61 
64 
68 
72 
78 
82 
83 
79 
78 
72 
69 
88 
105 
107 
121 
129 
172 
150 
166 
135 
144 
173 
149 
173 
126 
153 
173 
154 
188 
173 
151 
165 
157 
156 
149 
189 
167 
183 
201 
200 
208 
207 
215 
225 
224 
222 
222 
225 
222 
222 
224 
219 
224 
223 
224 
214 
236 
226 
183 
79 
124 
156 
156 
125 
113 
112 
119 
107 
102 
137 
152 
99 
98 
139 
141 
134 
155 
132 
131 
145 
147 
156 
88 
71 
159 
164 
100 
110 
79 
66 
78 
57 
62 
55 
58 
54 
45 
48 
59 
57 
68 
67 
71 
72 
70 
71 
85 
109 
53 
59 
63 
69 
64 
69 
69 
66 
69 
74 
81 
79 
71 
69 
69 
64 
61 
60 
68 
72 
67 
69 
72 
63 
63 
66 
68 
72 
76 
73 
71 
75 
71 
70 
71 
77 
69 
59 
75 
95 
108 
108 
104 
140 
147 
140 
138 
146 
177 
163 
147 
94 
131 
173 
182 
184 
185 
163 
180 
172 
185 
167 
182 
170 
108 
185 
209 
187 
209 
225 
228 
222 
224 
223 
226 
224 
223 
225 
221 
221 
226 
220 
237 
207 
198 
191 
121 
144 
160 
153 
135 
118 
112 
115 
129 
142 
153 
166 
106 
105 
108 
139 
141 
142 
110 
124 
126 
135 
180 
98 
84 
114 
162 
117 
139 
123 
80 
69 
58 
65 
58 
52 
51 
51 
49 
54 
67 
68 
72 
78 
78 
79 
69 
118 
126 
64 
66 
77 
74 
68 
72 
66 
63 
66 
70 
75 
73 
67 
66 
64 
58 
56 
54 
66 
70 
61 
66 
73 
64 
64 
69 
72 
73 
73 
68 
65 
68 
73 
71 
71 
81 
75 
59 
63 
73 
96 
95 
91 
117 
137 
131 
137 
144 
171 
165 
127 
122 
147 
152 
187 
154 
179 
151 
195 
162 
199 
184 
167 
196 
107 
190 
204 
164 
206 
225 
221 
226 
226 
222 
226 
225 
223 
225 
222 
220 
225 
224 
241 
207 
186 
179 
162 
165 
159 
145 
133 
118 
127 
115 
132 
143 
133 
142 
137 
121 
108 
161 
152 
110 
114 
123 
105 
105 
188 
124 
100 
97 
155 
145 
159 
151 
79 
70 
65 
53 
54 
52 
52 
57 
61 
64 
67 
73 
79 
82 
75 
85 
63 
135 
113 
79 
77 
86 
75 
68 
69 
61 
62 
67 
67 
69 
69 
64 
62 
61 
56 
50 
50 
60 
64 
56 
64 
75 
67 
67 
74 
72 
64 
61 
63 
66 
70 
70 
70 
70 
79 
77 
68 
71 
75 
81 
93 
88 
116 
122 
152 
145 
161 
168 
165 
161 
165 
157 
149 
172 
128 
171 
155 
196 
156 
194 
192 
149 
214 
123 
164 
186 
170 
202 
208 
207 
224 
225 
218 
224 
225 
221 
223 
222 
223 
221 
224 
216 
226 
188 
155 
171 
166 
134 
123 
105 
84 
127 
135 
128 
110 
64 
126 
171 
105 
125 
160 
148 
73 
91 
88 
84 
67 
143 
127 
112 
131 
152 
135 
122 
156 
84 
76 
82 
73 
55 
58 
68 
64 
67 
77 
78 
82 
85 
90 
75 
91 
69 
139 
99 
89 
86 
87 
70 
67 
62 
55 
63 
68 
61 
61 
65 
62 
58 
57 
55 
54 
55 
63 
63 
57 
64 
73 
68 
65 
74 
73 
64 
63 
67 
71 
74 
66 
70 
69 
72 
69 
66 
78 
86 
78 
85 
90 
96 
102 
141 
145 
164 
158 
168 
185 
176 
148 
153 
181 
139 
147 
153 
159 
156 
177 
189 
132 
189 
100 
149 
220 
206 
195 
185 
205 
232 
226 
216 
223 
225 
221 
223 
223 
225 
222 
221 
211 
226 
169 
146 
170 
136 
123 
69 
54 
108 
113 
110 
173 
151 
79 
114 
173 
130 
132 
123 
163 
110 
76 
74 
98 
89 
124 
149 
142 
137 
155 
140 
122 
165 
93 
56 
84 
98 
91 
76 
81 
91 
71 
63 
93 
80 
82 
104 
85 
93 
83 
140 
111 
90 
91 
86 
72 
75 
62 
58 
70 
64 
53 
52 
58 
56 
51 
50 
51 
58 
62 
66 
64 
60 
65 
70 
67 
60 
66 
67 
66 
68 
69 
68 
70 
79 
81 
77 
76 
68 
61 
71 
80 
74 
75 
98 
90 
105 
119 
136 
146 
150 
156 
170 
174 
155 
155 
183 
159 
141 
160 
156 
178 
171 
197 
153 
200 
138 
161 
197 
163 
209 
222 
220 
215 
226 
215 
222 
226 
221 
224 
225 
222 
229 
221 
235 
213 
135 
149 
169 
136 
100 
60 
56 
101 
99 
123 
157 
155 
148 
78 
119 
182 
136 
89 
147 
141 
66 
90 
112 
102 
112 
157 
159 
131 
117 
158 
162 
104 
66 
77 
98 
84 
82 
84 
91 
90 
77 
72 
83 
77 
80 
115 
87 
75 
72 
112 
102 
87 
94 
89 
79 
88 
69 
64 
78 
71 
56 
54 
63 
61 
52 
51 
53 
52 
59 
63 
60 
60 
65 
68 
66 
67 
67 
65 
67 
71 
70 
70 
74 
72 
71 
70 
75 
71 
62 
67 
73 
72 
71 
88 
94 
98 
111 
132 
147 
134 
148 
176 
163 
161 
182 
175 
142 
151 
153 
148 
169 
158 
202 
175 
213 
118 
153 
167 
110 
201 
216 
214 
236 
224 
212 
220 
225 
220 
223 
224 
221 
225 
226 
227 
216 
143 
141 
181 
153 
123 
98 
68 
87 
70 
106 
143 
164 
170 
89 
112 
139 
114 
72 
128 
163 
70 
77 
99 
126 
116 
118 
143 
124 
101 
133 
156 
94 
96 
103 
85 
78 
84 
88 
93 
81 
83 
85 
80 
83 
98 
127 
92 
61 
72 
82 
107 
101 
95 
99 
92 
91 
77 
79 
79 
71 
55 
55 
63 
59 
57 
58 
51 
51 
55 
58 
57 
59 
64 
66 
66 
69 
69 
70 
71 
71 
71 
71 
73 
71 
71 
72 
69 
75 
71 
59 
72 
70 
68 
81 
89 
90 
97 
123 
124 
106 
123 
179 
152 
162 
172 
179 
131 
163 
164 
142 
178 
144 
171 
155 
213 
153 
164 
156 
111 
217 
179 
163 
228 
219 
238 
228 
227 
222 
223 
222 
223 
222 
224 
217 
232 
184 
161 
174 
163 
145 
135 
107 
80 
69 
75 
129 
180 
112 
117 
116 
88 
134 
83 
139 
137 
95 
55 
84 
142 
121 
116 
134 
135 
122 
132 
141 
107 
113 
103 
84 
110 
90 
85 
79 
95 
83 
66 
81 
79 
98 
120 
115 
60 
77 
81 
116 
120 
109 
104 
99 
94 
87 
86 
81 
76 
64 
61 
64 
62 
61 
59 
52 
51 
57 
60 
58 
57 
62 
65 
64 
65 
67 
70 
71 
71 
72 
72 
73 
76 
76 
74 
70 
77 
74 
61 
69 
73 
74 
81 
78 
82 
84 
96 
101 
85 
117 
155 
153 
166 
165 
164 
141 
164 
168 
156 
168 
99 
92 
83 
155 
144 
153 
146 
137 
208 
147 
114 
197 
215 
228 
218 
222 
221 
224 
223 
223 
218 
226 
216 
238 
207 
166 
154 
143 
134 
133 
133 
81 
66 
58 
113 
137 
107 
101 
69 
121 
176 
110 
125 
111 
84 
97 
119 
114 
105 
128 
131 
122 
136 
142 
131 
102 
100 
103 
121 
141 
91 
82 
99 
144 
118 
75 
84 
88 
96 
114 
120 
68 
94 
86 
121 
136 
119 
103 
108 
102 
100 
99 
91 
82 
76 
70 
67 
64 
61 
56 
52 
56 
63 
65 
59 
56 
59 
60 
58 
61 
67 
71 
71 
70 
72 
72 
70 
72 
72 
71 
70 
78 
77 
68 
73 
79 
80 
85 
72 
78 
78 
73 
79 
81 
107 
146 
171 
157 
155 
158 
140 
165 
168 
158 
160 
91 
65 
54 
96 
102 
127 
144 
133 
226 
156 
154 
222 
221 
225 
216 
221 
223 
224 
222 
228 
219 
224 
220 
220 
205 
180 
165 
125 
125 
132 
109 
97 
66 
88 
87 
106 
141 
80 
67 
91 
167 
169 
120 
99 
107 
124 
127 
132 
110 
122 
139 
119 
131 
126 
129 
143 
132 
108 
126 
161 
122 
73 
100 
150 
126 
74 
69 
85 
98 
125 
120 
89 
96 
86 
116 
136 
122 
95 
107 
97 
101 
102 
90 
78 
80 
76 
70 
65 
59 
56 
57 
63 
67 
67 
62 
59 
60 
59 
56 
60 
67 
71 
70 
68 
70 
70 
68 
65 
64 
66 
71 
75 
71 
70 
81 
83 
79 
89 
75 
79 
82 
71 
71 
86 
119 
168 
180 
138 
142 
153 
145 
130 
144 
141 
153 
91 
57 
75 
106 
126 
151 
140 
147 
228 
200 
215 
230 
229 
225 
219 
223 
225 
223 
221 
224 
222 
223 
231 
208 
202 
187 
152 
145 
137 
127 
120 
100 
74 
82 
74 
87 
129 
117 
98 
42 
81 
166 
135 
105 
149 
143 
140 
178 
123 
132 
156 
146 
143 
126 
133 
179 
170 
129 
127 
148 
154 
59 
71 
101 
109 
84 
61 
58 
81 
93 
113 
122 
97 
91 
99 
139 
139 
105 
108 
94 
103 
106 
86 
71 
76 
78 
75 
68 
60 
60 
68 
67 
67 
66 
64 
65 
66 
63 
60 
61 
66 
70 
69 
68 
69 
70 
68 
69 
67 
69 
76 
71 
59 
66 
84 
83 
70 
87 
79 
79 
85 
78 
70 
76 
124 
171 
155 
134 
157 
151 
152 
125 
138 
123 
140 
82 
48 
88 
117 
141 
160 
142 
159 
199 
171 
216 
204 
228 
219 
219 
222 
225 
222 
222 
220 
224 
222 
232 
213 
215 
196 
143 
156 
145 
138 
147 
111 
97 
71 
75 
67 
68 
152 
102 
87 
81 
96 
172 
127 
154 
159 
124 
148 
105 
131 
188 
158 
136 
171 
170 
137 
142 
164 
136 
138 
158 
88 
96 
88 
137 
149 
76 
77 
102 
83 
125 
140 
92 
94 
88 
129 
146 
112 
115 
103 
106 
110 
90 
79 
74 
77 
81 
73 
59 
60 
70 
72 
68 
66 
68 
69 
67 
63 
61 
63 
65 
68 
71 
72 
72 
71 
71 
76 
73 
73 
79 
69 
55 
68 
87 
84 
68 
83 
81 
80 
84 
83 
72 
54 
105 
172 
156 
140 
178 
172 
162 
125 
146 
122 
132 
88 
82 
106 
105 
143 
152 
160 
190 
181 
159 
226 
191 
230 
218 
223 
223 
224 
222 
223 
227 
226 
222 
219 
222 
225 
209 
176 
150 
146 
151 
129 
129 
116 
103 
77 
79 
85 
88 
106 
102 
75 
70 
114 
113 
68 
141 
130 
107 
105 
131 
141 
116 
142 
173 
157 
149 
131 
135 
144 
134 
139 
117 
108 
76 
123 
157 
92 
68 
82 
84 
108 
116 
90 
99 
99 
99 
116 
94 
126 
124 
98 
100 
98 
95 
74 
72 
84 
77 
61 
60 
67 
73 
66 
65 
71 
72 
65 
62 
64 
66 
65 
68 
74 
77 
74 
72 
72 
77 
75 
71 
75 
67 
60 
76 
88 
84 
72 
76 
77 
82 
81 
84 
79 
79 
80 
116 
128 
137 
190 
166 
113 
85 
126 
133 
148 
107 
126 
125 
126 
137 
196 
136 
181 
192 
199 
167 
188 
235 
220 
227 
224 
226 
224 
224 
223 
222 
232 
220 
233 
211 
181 
170 
163 
139 
96 
127 
120 
110 
97 
91 
80 
77 
78 
92 
100 
118 
104 
119 
92 
47 
94 
103 
109 
117 
131 
127 
110 
117 
140 
138 
155 
138 
134 
139 
149 
152 
139 
88 
67 
88 
134 
152 
102 
74 
100 
87 
110 
119 
94 
73 
82 
87 
78 
144 
151 
93 
89 
109 
103 
69 
64 
83 
81 
65 
63 
67 
67 
60 
61 
71 
73 
66 
65 
72 
70 
66 
70 
78 
81 
76 
71 
72 
77 
76 
68 
69 
64 
64 
80 
83 
81 
75 
69 
71 
84 
78 
82 
86 
71 
73 
72 
78 
82 
119 
97 
72 
83 
110 
139 
174 
134 
148 
122 
148 
143 
175 
135 
193 
182 
202 
167 
198 
234 
217 
227 
222 
226 
226 
226 
222 
225 
226 
225 
225 
218 
200 
181 
159 
139 
120 
146 
135 
106 
80 
96 
84 
72 
91 
107 
96 
110 
121 
149 
144 
95 
108 
131 
127 
150 
132 
112 
116 
129 
134 
118 
144 
146 
139 
133 
160 
168 
134 
106 
91 
73 
107 
160 
131 
64 
82 
87 
83 
154 
139 
81 
93 
98 
103 
120 
138 
93 
95 
106 
111 
95 
80 
73 
83 
83 
69 
76 
63 
59 
61 
70 
70 
75 
67 
72 
72 
71 
77 
79 
81 
76 
67 
72 
74 
73 
73 
72 
56 
72 
86 
81 
81 
73 
81 
76 
84 
82 
84 
92 
82 
65 
58 
56 
81 
81 
77 
89 
126 
131 
173 
156 
162 
173 
112 
181 
156 
166 
139 
185 
175 
197 
152 
209 
231 
224 
211 
225 
226 
224 
220 
226 
226 
223 
222 
226 
228 
217 
203 
162 
151 
163 
162 
152 
102 
79 
94 
80 
71 
97 
98 
74 
95 
132 
163 
168 
141 
158 
154 
135 
146 
140 
114 
133 
148 
128 
150 
139 
126 
110 
87 
105 
150 
138 
140 
131 
97 
86 
110 
122 
105 
77 
93 
73 
122 
151 
125 
96 
96 
100 
95 
120 
116 
103 
104 
115 
98 
96 
75 
80 
81 
75 
79 
69 
68 
68 
66 
68 
78 
75 
76 
75 
78 
83 
81 
82 
81 
72 
74 
79 
72 
65 
72 
63 
66 
79 
92 
84 
82 
82 
72 
84 
82 
82 
99 
102 
70 
55 
67 
77 
78 
97 
110 
150 
133 
152 
141 
128 
178 
124 
199 
159 
177 
150 
191 
167 
191 
152 
213 
229 
221 
218 
223 
223 
225 
223 
222 
224 
226 
227 
228 
221 
201 
181 
188 
164 
130 
136 
127 
101 
84 
100 
94 
74 
91 
84 
82 
125 
162 
156 
120 
121 
156 
133 
120 
127 
150 
124 
128 
127 
96 
88 
87 
113 
141 
120 
115 
148 
152 
143 
130 
141 
98 
58 
108 
164 
110 
84 
86 
105 
147 
137 
83 
88 
94 
110 
107 
137 
87 
104 
135 
99 
93 
76 
80 
69 
66 
75 
74 
71 
72 
62 
65 
71 
72 
72 
72 
78 
82 
77 
78 
81 
74 
73 
77 
78 
68 
68 
56 
57 
73 
90 
80 
84 
79 
71 
87 
80 
70 
84 
88 
71 
64 
76 
61 
66 
93 
90 
148 
141 
128 
160 
115 
170 
141 
186 
155 
185 
168 
202 
169 
192 
162 
221 
232 
221 
229 
223 
221 
225 
224 
226 
225 
223 
221 
222 
221 
211 
200 
189 
163 
147 
115 
127 
106 
91 
95 
95 
102 
123 
91 
79 
111 
152 
146 
107 
104 
124 
148 
124 
127 
134 
139 
122 
128 
106 
77 
88 
124 
179 
170 
137 
155 
159 
150 
128 
161 
146 
68 
93 
155 
145 
81 
102 
84 
115 
129 
89 
93 
98 
116 
94 
129 
88 
127 
153 
129 
107 
95 
94 
68 
62 
71 
77 
69 
73 
65 
69 
66 
70 
74 
75 
78 
80 
76 
81 
86 
80 
80 
76 
81 
75 
75 
54 
53 
75 
89 
82 
86 
85 
86 
97 
90 
78 
81 
71 
70 
77 
82 
55 
62 
83 
88 
126 
132 
128 
195 
126 
174 
150 
168 
150 
184 
180 
204 
175 
192 
173 
218 
233 
216 
232 
223 
221 
225 
224 
226 
226 
222 
219 
221 
225 
227 
226 
192 
170 
174 
117 
140 
142 
93 
79 
103 
120 
131 
91 
82 
85 
110 
117 
101 
94 
106 
127 
139 
145 
142 
132 
124 
135 
128 
145 
166 
161 
161 
150 
159 
171 
161 
169 
143 
138 
169 
126 
98 
121 
149 
96 
86 
75 
94 
96 
95 
96 
106 
97 
97 
105 
102 
122 
135 
165 
142 
133 
119 
92 
77 
73 
70 
66 
70 
61 
64 
65 
70 
75 
78 
73 
73 
73 
82 
88 
82 
85 
85 
77 
75 
91 
67 
59 
82 
93 
79 
82 
90 
100 
98 
97 
96 
91 
78 
68 
72 
70 
54 
58 
67 
107 
117 
102 
135 
197 
131 
191 
154 
175 
168 
191 
191 
199 
185 
195 
190 
217 
230 
210 
226 
223 
223 
225 
223 
221 
225 
228 
227 
225 
223 
220 
217 
220 
188 
133 
116 
147 
150 
113 
90 
92 
103 
107 
98 
121 
109 
106 
111 
93 
87 
89 
93 
133 
152 
141 
127 
127 
110 
133 
130 
171 
166 
141 
164 
186 
198 
171 
153 
166 
148 
141 
171 
122 
95 
149 
167 
76 
64 
103 
95 
111 
108 
111 
117 
127 
114 
114 
114 
101 
148 
139 
150 
140 
114 
89 
78 
73 
73 
74 
61 
59 
65 
70 
74 
82 
75 
73 
74 
83 
88 
82 
85 
84 
82 
75 
88 
71 
67 
85 
81 
75 
82 
96 
113 
103 
102 
103 
92 
71 
65 
70 
69 
84 
96 
93 
139 
113 
88 
116 
181 
135 
187 
163 
178 
189 
197 
193 
191 
193 
204 
211 
223 
232 
216 
225 
226 
226 
225 
222 
224 
226 
225 
223 
222 
223 
224 
225 
230 
199 
141 
128 
164 
125 
127 
112 
75 
97 
110 
121 
157 
147 
132 
127 
120 
119 
109 
137 
138 
140 
98 
130 
173 
115 
99 
69 
142 
173 
165 
178 
194 
173 
188 
174 
141 
161 
166 
158 
153 
119 
105 
151 
161 
97 
73 
106 
123 
122 
107 
125 
124 
121 
121 
119 
101 
122 
128 
144 
139 
124 
101 
93 
89 
82 
81 
79 
70 
69 
70 
84 
96 
94 
93 
88 
93 
98 
91 
90 
73 
96 
82 
79 
69 
69 
80 
74 
71 
78 
82 
104 
105 
104 
93 
75 
78 
77 
76 
71 
96 
97 
84 
113 
114 
96 
104 
180 
151 
182 
176 
180 
193 
194 
188 
190 
198 
212 
221 
223 
227 
226 
226 
228 
224 
224 
222 
224 
224 
222 
220 
220 
222 
223 
224 
229 
209 
178 
145 
150 
139 
103 
110 
113 
110 
96 
114 
178 
188 
149 
95 
94 
125 
165 
143 
155 
116 
86 
106 
164 
161 
101 
103 
129 
142 
186 
191 
168 
207 
185 
173 
129 
129 
167 
169 
160 
143 
137 
120 
154 
89 
72 
71 
131 
149 
143 
135 
134 
139 
150 
134 
129 
134 
150 
140 
125 
130 
122 
115 
90 
73 
73 
90 
80 
66 
63 
91 
103 
107 
107 
96 
97 
102 
94 
90 
68 
103 
86 
84 
77 
65 
75 
91 
102 
101 
86 
109 
129 
134 
114 
94 
85 
74 
65 
71 
100 
88 
90 
125 
124 
102 
119 
189 
167 
199 
182 
200 
197 
200 
195 
205 
211 
225 
228 
224 
215 
225 
221 
225 
220 
224 
224 
226 
222 
224 
222 
217 
226 
230 
216 
226 
219 
206 
194 
156 
160 
156 
150 
183 
157 
128 
102 
114 
152 
128 
77 
89 
131 
123 
154 
124 
95 
111 
129 
160 
177 
138 
97 
165 
159 
174 
190 
166 
189 
181 
176 
145 
110 
150 
157 
145 
159 
135 
117 
140 
134 
112 
73 
127 
177 
154 
122 
139 
153 
153 
148 
140 
150 
149 
142 
155 
151 
131 
96 
78 
78 
99 
84 
80 
87 
99 
107 
106 
110 
118 
166 
130 
103 
94 
99 
94 
125 
101 
126 
148 
120 
102 
109 
103 
96 
103 
116 
154 
168 
103 
85 
64 
81 
62 
73 
134 
93 
98 
141 
154 
100 
126 
198 
183 
200 
188 
215 
194 
193 
202 
215 
222 
225 
228 
224 
220 
221 
222 
224 
225 
225 
224 
225 
222 
227 
227 
219 
223 
227 
220 
217 
227 
222 
215 
188 
135 
152 
188 
182 
190 
153 
136 
110 
95 
99 
83 
87 
134 
184 
178 
98 
154 
168 
145 
162 
119 
122 
108 
128 
162 
158 
186 
201 
168 
187 
182 
192 
164 
150 
155 
164 
177 
147 
147 
126 
163 
162 
81 
118 
174 
141 
125 
137 
152 
152 
150 
149 
144 
145 
122 
155 
186 
144 
99 
93 
89 
95 
90 
99 
97 
99 
88 
81 
107 
146 
176 
121 
81 
87 
95 
93 
121 
92 
152 
160 
113 
93 
99 
91 
108 
111 
111 
149 
161 
107 
71 
69 
87 
61 
82 
160 
105 
99 
149 
178 
128 
153 
195 
188 
205 
196 
215 
184 
182 
212 
217 
221 
223 
226 
220 
223 
223 
224 
225 
225 
225 
224 
226 
222 
227 
228 
219 
219 
225 
225 
218 
228 
222 
224 
211 
137 
121 
167 
171 
179 
151 
161 
150 
112 
101 
166 
154 
135 
183 
142 
116 
179 
175 
154 
165 
139 
113 
191 
118 
144 
174 
172 
192 
166 
150 
197 
206 
193 
166 
162 
169 
158 
154 
157 
108 
130 
155 
106 
111 
138 
151 
157 
155 
159 
160 
162 
170 
163 
148 
133 
167 
154 
131 
116 
126 
126 
99 
89 
98 
103 
114 
98 
88 
91 
117 
152 
127 
100 
119 
116 
108 
115 
94 
167 
130 
88 
110 
109 
107 
127 
110 
120 
133 
163 
154 
75 
96 
105 
66 
80 
167 
113 
90 
127 
197 
163 
185 
196 
199 
212 
209 
217 
173 
177 
222 
220 
221 
222 
223 
219 
223 
224 
224 
225 
225 
225 
224 
226 
223 
224 
222 
218 
220 
226 
225 
228 
226 
222 
231 
227 
206 
145 
163 
197 
139 
146 
151 
130 
148 
172 
186 
193 
165 
103 
117 
123 
142 
182 
179 
174 
176 
194 
196 
176 
162 
176 
171 
154 
174 
160 
183 
170 
200 
170 
160 
157 
117 
145 
139 
134 
117 
143 
162 
129 
87 
158 
180 
169 
163 
164 
170 
175 
168 
163 
189 
162 
143 
130 
124 
132 
156 
184 
99 
84 
85 
105 
117 
117 
112 
116 
162 
153 
113 
140 
151 
144 
135 
123 
176 
139 
105 
149 
145 
131 
171 
147 
176 
165 
189 
196 
102 
105 
111 
102 
101 
166 
134 
107 
120 
186 
179 
192 
195 
200 
207 
212 
211 
172 
191 
223 
222 
223 
222 
222 
222 
221 
222 
222 
223 
224 
224 
224 
224 
224 
222 
219 
220 
227 
228 
220 
222 
219 
218 
225 
211 
238 
195 
184 
192 
124 
144 
182 
151 
180 
199 
146 
150 
190 
149 
142 
164 
143 
152 
187 
163 
178 
215 
138 
194 
184 
153 
160 
176 
189 
198 
192 
192 
181 
176 
173 
147 
122 
143 
140 
165 
150 
161 
194 
174 
98 
155 
178 
165 
158 
163 
175 
178 
173 
177 
153 
156 
166 
154 
161 
153 
168 
182 
155 
129 
101 
92 
102 
124 
132 
128 
187 
182 
110 
130 
166 
175 
136 
106 
133 
150 
115 
150 
175 
151 
203 
194 
195 
190 
192 
188 
149 
103 
114 
162 
162 
179 
166 
149 
150 
180 
194 
193 
204 
204 
204 
217 
213 
184 
218 
219 
224 
225 
223 
220 
225 
222 
222 
222 
223 
224 
224 
224 
222 
226 
224 
221 
226 
232 
227 
217 
223 
226 
224 
228 
210 
228 
230 
202 
145 
161 
186 
183 
194 
153 
138 
178 
163 
159 
207 
141 
161 
157 
116 
170 
208 
152 
195 
189 
149 
195 
183 
162 
189 
179 
186 
184 
199 
159 
168 
179 
165 
154 
135 
162 
177 
187 
178 
174 
196 
161 
167 
181 
155 
147 
159 
178 
166 
172 
183 
161 
160 
149 
151 
163 
170 
169 
156 
179 
177 
166 
148 
142 
120 
115 
98 
158 
180 
121 
132 
178 
185 
125 
126 
167 
187 
144 
163 
182 
171 
190 
199 
167 
173 
182 
183 
187 
113 
115 
183 
201 
195 
200 
195 
197 
194 
213 
204 
219 
213 
210 
225 
222 
203 
235 
218 
225 
224 
222 
219 
224 
224 
224 
224 
224 
224 
224 
224 
223 
227 
225 
223 
226 
228 
224 
219 
217 
222 
220 
224 
221 
221 
234 
214 
209 
190 
179 
196 
128 
165 
157 
174 
193 
154 
189 
168 
156 
179 
165 
159 
199 
193 
163 
202 
184 
154 
193 
169 
168 
180 
194 
176 
180 
190 
178 
188 
166 
181 
178 
198 
171 
174 
189 
200 
188 
192 
187 
190 
161 
153 
162 
175 
181 
174 
178 
202 
119 
126 
154 
158 
144 
155 
189 
135 
125 
126 
129 
126 
135 
117 
117 
149 
188 
159 
165 
206 
165 
117 
148 
194 
160 
148 
179 
170 
175 
183 
190 
175 
175 
192 
200 
199 
175 
165 
193 
207 
194 
199 
195 
196 
207 
217 
215 
219 
214 
215 
221 
220 
217 
232 
220 
225 
221 
222 
222 
222 
225 
225 
224 
224 
224 
224 
224 
225 
227 
225 
222 
223 
221 
220 
224 
221 
226 
224 
220 
226 
226 
222 
227 
221 
217 
205 
209 
208 
169 
202 
204 
176 
194 
175 
116 
160 
173 
186 
183 
174 
194 
184 
173 
210 
163 
173 
167 
149 
196 
188 
205 
197 
182 
198 
197 
201 
193 
198 
188 
189 
189 
196 
196 
192 
186 
202 
201 
184 
182 
182 
177 
175 
183 
202 
166 
139 
150 
160 
159 
149 
172 
148 
191 
161 
135 
151 
144 
102 
88 
126 
140 
188 
174 
159 
178 
141 
139 
178 
214 
151 
170 
196 
160 
170 
215 
184 
195 
187 
195 
206 
204 
192 
195 
192 
203 
196 
205 
207 
213 
216 
216 
225 
219 
217 
222 
219 
218 
223 
220 
224 
224 
218 
223 
226 
221 
223 
223 
222 
223 
223 
223 
224 
225 
225 
225 
225 
225 
224 
224 
223 
222 
222 
221 
220 
222 
224 
224 
222 
227 
225 
222 
223 
240 
197 
231 
221 
182 
204 
164 
137 
175 
180 
216 
204 
164 
187 
190 
142 
175 
182 
176 
180 
155 
199 
189 
206 
193 
172 
198 
191 
203 
188 
198 
193 
203 
189 
187 
201 
202 
194 
205 
197 
194 
198 
199 
185 
178 
195 
209 
167 
136 
152 
154 
151 
146 
175 
181 
170 
183 
151 
144 
155 
169 
148 
155 
173 
207 
187 
170 
165 
146 
166 
192 
216 
190 
180 
191 
187 
185 
201 
208 
195 
198 
193 
199 
203 
205 
205 
199 
195 
201 
207 
211 
215 
221 
221 
220 
220 
220 
221 
222 
223 
224 
224 
224 
224 
223 
223 
223 
223 
223 
223 
223 
224 
224 
224 
224 
225 
225 
225 
225 
225 
224 
224 
223 
222 
223 
222 
221 
223 
225 
225 
223 
222 
221 
228 
222 
222 
228 
222 
222 
217 
206 
197 
209 
194 
219 
206 
212 
208 
171 
208 
164 
142 
200 
183 
192 
186 
173 
202 
203 
186 
175 
195 
186 
191 
177 
193 
201 
211 
182 
178 
208 
215 
195 
200 
199 
197 
195 
203 
206 
195 
194 
196 
162 
149 
178 
189 
192 
161 
165 
148 
167 
164 
123 
115 
175 
169 
149 
157 
194 
220 
193 
173 
183 
180 
197 
196 
208 
202 
193 
191 
191 
187 
198 
201 
192 
200 
198 
200 
201 
211 
211 
207 
204 
209 
213 
215 
218 
219 
219 
220 
220 
221 
223 
224 
225 
224 
224 
224 
224 
224 
223 
223 
223 
223 
223 
223 
224 
224 
224 
224 
225 
225 
225 
225 
225 
224 
224 
224 
224 
224 
223 
222 
224 
226 
226 
224 
220 
219 
229 
222 
215 
244 
217 
220 
241 
209 
225 
235 
220 
228 
209 
222 
222 
203 
226 
208 
179 
208 
187 
183 
212 
168 
201 
205 
190 
189 
196 
197 
185 
190 
204 
197 
212 
193 
183 
201 
210 
194 
205 
209 
209 
202 
206 
211 
209 
204 
211 
190 
182 
203 
204 
205 
175 
169 
130 
143 
158 
136 
116 
174 
186 
165 
160 
192 
207 
183 
169 
192 
214 
205 
202 
214 
195 
199 
208 
187 
196 
200 
199 
194 
208 
210 
208 
206 
217 
219 
216 
214 
217 
219 
219 
221 
219 
219 
220 
222 
223 
224 
225 
225 
224 
224 
224 
224 
224 
223 
223 
223 
224 
224 
224 
224 
224 
224 
224 
225 
225 
225 
225 
225 
225 
224 
224 
224 
224 
223 
223 
224 
226 
226 
224 
222 
221 
223 
224 
226 
230 
221 
219 
231 
223 
228 
213 
237 
217 
219 
227 
213 
233 
223 
221 
228 
203 
207 
194 
217 
194 
182 
210 
199 
203 
194 
212 
191 
209 
212 
186 
211 
211 
193 
192 
194 
196 
214 
215 
215 
211 
208 
201 
207 
205 
213 
186 
168 
182 
187 
194 
194 
196 
158 
138 
191 
188 
158 
179 
220 
206 
187 
193 
204 
187 
184 
203 
208 
215 
203 
207 
203 
204 
205 
198 
205 
205 
200 
200 
215 
220 
215 
212 
220 
223 
220 
218 
220 
221 
220 
221 
221 
221 
222 
223 
224 
224 
223 
223 
224 
224 
224 
224 
224 
224 
224 
224 
224 
224 
224 
224 
224 
224 
224 
