P2
# Created by MsrVolt
98 56
255
220 
219 
219 
219 
219 
218 
218 
218 
218 
218 
217 
217 
218 
218 
218 
218 
219 
217 
218 
219 
216 
217 
219 
217 
218 
215 
216 
220 
220 
217 
218 
222 
222 
220 
221 
216 
217 
221 
219 
220 
219 
220 
220 
219 
218 
219 
219 
218 
220 
220 
219 
219 
220 
221 
221 
221 
218 
220 
216 
220 
220 
213 
215 
218 
215 
218 
220 
221 
220 
219 
219 
219 
221 
219 
218 
219 
219 
218 
218 
220 
220 
217 
220 
222 
218 
217 
219 
220 
217 
218 
218 
217 
218 
220 
221 
218 
219 
219 
219 
219 
219 
219 
219 
218 
218 
218 
219 
218 
217 
217 
218 
218 
218 
217 
219 
217 
219 
220 
217 
218 
220 
218 
220 
219 
217 
216 
216 
217 
218 
217 
216 
226 
217 
218 
224 
220 
220 
219 
217 
218 
218 
218 
219 
220 
220 
218 
218 
219 
220 
221 
221 
221 
220 
219 
217 
220 
219 
217 
217 
219 
220 
217 
219 
219 
219 
220 
220 
220 
220 
219 
217 
216 
218 
221 
221 
219 
219 
220 
220 
219 
216 
221 
220 
218 
222 
216 
218 
219 
219 
218 
218 
220 
220 
218 
219 
219 
219 
219 
219 
219 
219 
218 
218 
218 
220 
219 
219 
219 
219 
219 
218 
218 
218 
216 
218 
220 
218 
219 
220 
218 
217 
220 
219 
215 
216 
221 
221 
217 
219 
228 
212 
221 
228 
212 
216 
220 
224 
223 
221 
217 
217 
218 
218 
217 
217 
217 
218 
219 
219 
219 
218 
218 
218 
218 
222 
217 
213 
217 
218 
217 
218 
216 
214 
215 
218 
219 
219 
219 
218 
218 
220 
221 
219 
217 
217 
219 
218 
220 
217 
221 
219 
217 
223 
216 
218 
220 
220 
219 
219 
219 
220 
219 
220 
220 
219 
219 
219 
219 
219 
219 
218 
218 
219 
218 
218 
218 
219 
219 
218 
217 
218 
216 
218 
219 
217 
218 
219 
217 
215 
219 
219 
217 
218 
221 
221 
218 
212 
230 
220 
211 
213 
219 
226 
213 
214 
217 
218 
218 
217 
219 
220 
220 
220 
220 
220 
221 
221 
220 
220 
222 
225 
216 
220 
219 
216 
218 
216 
218 
219 
218 
217 
218 
220 
221 
222 
222 
220 
220 
219 
218 
216 
216 
218 
221 
215 
217 
223 
220 
216 
218 
219 
219 
218 
220 
221 
221 
220 
220 
220 
220 
221 
221 
219 
219 
219 
219 
219 
219 
219 
218 
216 
216 
216 
216 
217 
217 
216 
216 
219 
217 
219 
220 
217 
218 
219 
217 
218 
218 
219 
218 
216 
216 
218 
220 
216 
215 
221 
218 
212 
221 
227 
219 
210 
217 
222 
221 
217 
214 
214 
213 
218 
218 
219 
221 
221 
218 
218 
220 
221 
217 
216 
215 
216 
219 
217 
215 
219 
220 
220 
220 
219 
218 
218 
219 
218 
218 
219 
218 
217 
218 
221 
222 
219 
212 
224 
217 
215 
224 
215 
220 
219 
219 
220 
221 
220 
220 
221 
222 
221 
221 
219 
219 
219 
219 
219 
219 
219 
219 
217 
217 
217 
218 
218 
218 
217 
216 
221 
218 
220 
220 
217 
218 
220 
218 
219 
218 
218 
218 
217 
217 
220 
223 
218 
207 
218 
223 
215 
215 
215 
216 
222 
226 
226 
221 
215 
213 
216 
218 
216 
216 
218 
221 
220 
216 
216 
218 
213 
227 
224 
219 
217 
215 
220 
222 
220 
222 
223 
222 
219 
217 
216 
217 
218 
220 
221 
221 
220 
220 
219 
216 
225 
211 
218 
215 
218 
226 
215 
216 
220 
218 
218 
220 
221 
221 
221 
222 
221 
221 
219 
219 
219 
219 
219 
219 
219 
219 
219 
218 
218 
218 
218 
217 
216 
215 
220 
217 
218 
218 
216 
217 
220 
218 
217 
219 
219 
218 
219 
221 
218 
213 
219 
233 
232 
225 
225 
227 
225 
217 
213 
216 
218 
216 
215 
216 
218 
219 
210 
207 
206 
206 
205 
203 
207 
212 
204 
212 
195 
209 
224 
213 
217 
220 
215 
216 
218 
219 
220 
221 
221 
221 
219 
221 
221 
221 
222 
222 
219 
214 
226 
217 
213 
219 
219 
217 
217 
214 
223 
219 
216 
218 
221 
221 
221 
221 
221 
221 
219 
219 
219 
219 
219 
219 
219 
219 
217 
217 
216 
216 
215 
214 
212 
210 
218 
215 
215 
216 
214 
216 
219 
218 
215 
220 
221 
218 
219 
219 
207 
192 
204 
207 
191 
211 
221 
191 
192 
215 
199 
206 
213 
217 
215 
208 
196 
187 
189 
182 
176 
173 
171 
173 
181 
191 
184 
162 
125 
170 
220 
205 
197 
193 
195 
195 
198 
203 
209 
213 
215 
216 
217 
217 
217 
218 
222 
226 
225 
221 
223 
224 
213 
225 
219 
204 
219 
216 
224 
219 
216 
217 
220 
221 
220 
220 
221 
221 
218 
219 
219 
218 
217 
217 
219 
221 
221 
216 
222 
216 
214 
219 
222 
220 
215 
216 
225 
226 
219 
223 
216 
215 
219 
215 
209 
205 
196 
186 
191 
157 
177 
163 
128 
173 
211 
185 
152 
163 
179 
169 
158 
176 
186 
175 
177 
179 
170 
163 
148 
129 
148 
165 
171 
158 
173 
150 
143 
149 
180 
192 
182 
153 
196 
165 
187 
183 
185 
199 
200 
199 
194 
196 
198 
203 
208 
214 
213 
209 
223 
246 
213 
209 
223 
228 
229 
218 
231 
223 
219 
228 
220 
213 
224 
219 
220 
220 
217 
218 
220 
221 
220 
219 
218 
217 
218 
212 
213 
217 
221 
214 
214 
215 
212 
214 
210 
206 
200 
211 
204 
202 
193 
203 
186 
173 
155 
180 
175 
139 
146 
126 
110 
120 
211 
198 
156 
124 
142 
178 
191 
180 
180 
169 
161 
152 
155 
147 
158 
167 
174 
163 
150 
126 
169 
178 
162 
155 
147 
160 
178 
162 
164 
197 
169 
181 
180 
187 
183 
173 
170 
173 
180 
185 
201 
201 
210 
206 
206 
193 
221 
226 
229 
217 
206 
226 
217 
220 
225 
222 
210 
216 
221 
222 
219 
220 
220 
220 
219 
219 
219 
219 
219 
218 
219 
222 
219 
213 
221 
217 
222 
225 
225 
207 
211 
212 
195 
180 
190 
196 
199 
197 
186 
184 
152 
138 
119 
110 
163 
137 
91 
100 
196 
184 
135 
167 
169 
157 
144 
144 
164 
172 
179 
176 
145 
148 
150 
157 
179 
178 
164 
151 
159 
177 
172 
178 
161 
144 
167 
162 
126 
176 
175 
183 
173 
153 
172 
140 
195 
138 
152 
183 
196 
200 
160 
184 
178 
133 
196 
232 
193 
218 
226 
222 
218 
218 
219 
214 
214 
233 
221 
218 
219 
220 
220 
219 
219 
219 
220 
220 
219 
218 
220 
213 
217 
216 
222 
207 
189 
196 
178 
187 
195 
172 
182 
172 
185 
166 
150 
142 
154 
178 
177 
123 
113 
118 
139 
128 
95 
103 
156 
198 
156 
130 
153 
153 
141 
137 
123 
133 
163 
160 
157 
153 
168 
173 
166 
173 
175 
153 
159 
152 
143 
137 
177 
186 
194 
177 
166 
171 
185 
172 
190 
171 
176 
161 
142 
143 
129 
197 
179 
181 
168 
144 
198 
175 
152 
193 
179 
228 
230 
210 
218 
223 
221 
221 
219 
231 
219 
218 
220 
220 
216 
217 
219 
222 
223 
222 
218 
215 
214 
218 
230 
208 
194 
183 
124 
93 
115 
159 
164 
142 
169 
161 
153 
116 
95 
100 
108 
138 
176 
138 
139 
130 
138 
156 
131 
82 
127 
196 
192 
117 
109 
138 
117 
124 
117 
129 
145 
126 
113 
134 
154 
164 
161 
152 
146 
149 
165 
130 
132 
136 
182 
178 
156 
180 
173 
152 
184 
192 
168 
172 
138 
118 
88 
102 
91 
157 
152 
142 
167 
115 
133 
177 
143 
155 
155 
171 
190 
187 
219 
230 
219 
217 
213 
219 
223 
223 
221 
221 
220 
219 
217 
217 
217 
219 
220 
221 
207 
220 
234 
206 
166 
169 
118 
81 
86 
139 
184 
200 
179 
158 
159 
115 
98 
99 
90 
124 
157 
130 
121 
129 
123 
151 
135 
81 
111 
146 
156 
125 
102 
154 
131 
132 
139 
139 
129 
110 
89 
103 
132 
146 
139 
162 
170 
146 
132 
127 
136 
127 
137 
157 
129 
158 
150 
161 
152 
137 
127 
152 
132 
146 
116 
74 
69 
139 
188 
127 
159 
119 
141 
150 
142 
140 
143 
88 
94 
117 
177 
208 
227 
236 
228 
215 
222 
216 
221 
221 
222 
220 
217 
214 
213 
216 
220 
223 
226 
208 
203 
204 
136 
115 
91 
80 
79 
119 
179 
196 
168 
140 
155 
88 
86 
89 
79 
103 
130 
129 
111 
141 
123 
109 
124 
97 
71 
123 
151 
113 
95 
120 
103 
87 
109 
127 
122 
100 
99 
125 
132 
125 
132 
171 
164 
126 
117 
97 
78 
88 
97 
140 
146 
158 
159 
149 
130 
94 
90 
126 
146 
122 
158 
84 
79 
82 
135 
123 
134 
176 
137 
183 
176 
123 
108 
90 
64 
88 
40 
76 
151 
208 
229 
213 
220 
223 
220 
220 
216 
218 
220 
221 
219 
217 
216 
216 
222 
212 
193 
204 
135 
129 
113 
73 
70 
68 
99 
137 
195 
157 
171 
128 
70 
91 
85 
65 
105 
154 
132 
142 
133 
110 
150 
116 
73 
123 
149 
104 
79 
51 
83 
109 
127 
112 
106 
96 
82 
97 
103 
94 
87 
130 
137 
104 
91 
96 
82 
91 
90 
121 
140 
96 
106 
107 
116 
91 
83 
119 
141 
98 
146 
120 
65 
80 
102 
102 
110 
173 
111 
133 
137 
152 
88 
102 
51 
60 
50 
21 
69 
148 
217 
219 
217 
220 
219 
219 
221 
216 
223 
224 
222 
212 
219 
214 
221 
224 
218 
197 
162 
162 
173 
130 
59 
60 
76 
68 
128 
187 
144 
175 
89 
99 
73 
68 
84 
113 
97 
98 
97 
76 
114 
102 
73 
102 
154 
125 
90 
88 
76 
107 
134 
115 
99 
92 
67 
75 
85 
90 
91 
91 
89 
88 
88 
72 
59 
98 
86 
78 
85 
128 
116 
88 
96 
94 
109 
122 
118 
93 
159 
152 
68 
81 
85 
72 
104 
136 
108 
100 
150 
164 
102 
83 
40 
30 
34 
34 
46 
88 
188 
246 
218 
221 
222 
209 
220 
218 
216 
219 
224 
217 
223 
234 
221 
203 
199 
190 
189 
170 
162 
138 
66 
63 
48 
67 
106 
155 
127 
173 
168 
70 
74 
78 
74 
82 
81 
80 
59 
72 
84 
70 
163 
178 
152 
124 
106 
82 
69 
81 
104 
111 
97 
89 
83 
75 
79 
92 
88 
71 
69 
82 
99 
83 
65 
77 
78 
69 
75 
116 
124 
78 
82 
91 
108 
160 
102 
98 
138 
173 
70 
49 
72 
72 
84 
118 
120 
128 
112 
137 
102 
67 
62 
37 
40 
55 
47 
49 
123 
212 
224 
227 
223 
220 
218 
218 
217 
219 
217 
218 
218 
225 
205 
173 
177 
188 
187 
159 
133 
142 
82 
63 
48 
125 
153 
112 
95 
110 
149 
60 
71 
71 
70 
72 
87 
101 
100 
76 
81 
75 
114 
155 
130 
94 
103 
65 
86 
86 
72 
97 
97 
77 
71 
71 
75 
79 
76 
72 
74 
81 
92 
88 
83 
71 
79 
68 
70 
105 
115 
92 
79 
90 
122 
151 
130 
74 
102 
130 
74 
65 
69 
71 
75 
74 
104 
88 
95 
91 
83 
57 
47 
46 
45 
51 
53 
50 
69 
147 
214 
234 
217 
221 
216 
217 
221 
221 
208 
220 
219 
212 
215 
198 
178 
190 
195 
174 
116 
165 
66 
68 
41 
121 
176 
103 
82 
51 
83 
89 
73 
70 
71 
71 
85 
103 
95 
85 
68 
68 
88 
108 
83 
89 
79 
82 
92 
72 
74 
83 
67 
82 
65 
77 
79 
67 
61 
68 
69 
63 
67 
82 
105 
92 
88 
74 
61 
78 
114 
115 
85 
75 
80 
124 
141 
70 
67 
104 
94 
67 
63 
73 
96 
118 
119 
68 
142 
75 
46 
54 
43 
46 
51 
46 
65 
51 
28 
95 
211 
226 
218 
217 
217 
219 
218 
217 
214 
224 
217 
222 
220 
192 
176 
180 
154 
138 
85 
112 
58 
64 
77 
76 
167 
58 
74 
83 
68 
97 
70 
78 
73 
67 
71 
73 
85 
79 
79 
81 
90 
75 
75 
75 
86 
93 
79 
58 
67 
70 
61 
79 
68 
71 
72 
67 
60 
55 
54 
54 
57 
74 
105 
102 
81 
75 
54 
53 
101 
118 
88 
67 
87 
102 
152 
100 
72 
112 
131 
70 
64 
75 
73 
60 
87 
111 
155 
75 
65 
69 
54 
63 
58 
44 
65 
60 
38 
62 
184 
217 
230 
220 
216 
221 
216 
214 
227 
220 
197 
217 
190 
172 
164 
137 
87 
60 
59 
99 
97 
49 
49 
70 
117 
79 
46 
89 
70 
79 
68 
66 
73 
69 
64 
67 
72 
85 
75 
72 
71 
63 
76 
84 
95 
87 
86 
79 
63 
65 
74 
64 
59 
58 
62 
66 
64 
58 
58 
62 
66 
66 
75 
77 
58 
73 
66 
63 
68 
85 
81 
71 
128 
101 
153 
146 
65 
114 
149 
77 
52 
59 
79 
76 
84 
105 
114 
91 
63 
59 
61 
48 
58 
55 
69 
72 
64 
50 
154 
225 
234 
220 
216 
214 
221 
215 
224 
218 
195 
197 
186 
199 
168 
166 
181 
126 
83 
123 
104 
54 
56 
62 
105 
105 
72 
107 
76 
75 
75 
56 
63 
68 
66 
73 
75 
84 
70 
67 
58 
65 
61 
58 
75 
94 
98 
86 
75 
66 
61 
61 
57 
60 
61 
61 
60 
60 
60 
59 
68 
62 
55 
58 
54 
70 
73 
77 
62 
62 
89 
83 
91 
106 
110 
161 
64 
101 
94 
55 
62 
59 
73 
81 
83 
82 
66 
69 
88 
79 
57 
70 
54 
76 
77 
58 
52 
74 
170 
227 
226 
219 
220 
204 
227 
216 
209 
225 
223 
194 
166 
193 
190 
208 
162 
90 
75 
126 
78 
63 
53 
53 
144 
100 
72 
122 
89 
70 
72 
67 
54 
65 
77 
72 
63 
67 
85 
70 
70 
63 
65 
60 
71 
83 
94 
77 
59 
61 
60 
56 
58 
56 
56 
57 
57 
55 
55 
56 
58 
62 
56 
64 
65 
65 
60 
63 
73 
87 
123 
111 
67 
71 
93 
115 
96 
88 
62 
62 
53 
60 
89 
55 
73 
86 
71 
67 
136 
109 
50 
54 
56 
62 
64 
63 
57 
102 
184 
212 
220 
222 
219 
223 
216 
214 
218 
228 
223 
187 
110 
169 
170 
121 
99 
51 
74 
71 
71 
61 
52 
51 
136 
105 
71 
83 
87 
82 
68 
57 
61 
70 
70 
67 
63 
60 
66 
69 
63 
63 
69 
70 
69 
76 
78 
71 
63 
61 
61 
61 
60 
57 
54 
54 
56 
57 
56 
55 
56 
56 
56 
57 
62 
68 
70 
69 
66 
69 
84 
79 
61 
77 
70 
74 
76 
84 
83 
69 
59 
60 
60 
57 
71 
102 
99 
62 
127 
130 
41 
65 
58 
82 
62 
74 
61 
107 
181 
189 
225 
221 
217 
217 
216 
222 
218 
212 
213 
201 
163 
173 
144 
100 
122 
72 
52 
61 
70 
59 
57 
57 
82 
91 
88 
71 
80 
76 
69 
63 
66 
73 
74 
67 
58 
55 
59 
64 
60 
56 
60 
66 
58 
63 
66 
66 
64 
63 
62 
61 
61 
58 
56 
54 
54 
54 
53 
53 
53 
54 
54 
56 
61 
66 
68 
67 
65 
58 
59 
82 
72 
59 
68 
54 
84 
86 
82 
69 
58 
58 
66 
73 
83 
101 
86 
49 
111 
119 
40 
63 
68 
80 
65 
76 
63 
110 
156 
135 
201 
218 
215 
213 
215 
225 
220 
211 
218 
223 
201 
171 
197 
175 
116 
65 
61 
75 
67 
56 
49 
62 
59 
63 
85 
88 
67 
64 
65 
65 
65 
72 
74 
65 
61 
57 
56 
61 
60 
53 
54 
64 
80 
76 
72 
67 
64 
62 
61 
60 
61 
59 
57 
55 
53 
53 
53 
53 
52 
53 
53 
55 
60 
65 
67 
65 
62 
58 
62 
92 
74 
55 
68 
56 
87 
79 
68 
61 
59 
61 
67 
72 
83 
79 
58 
43 
132 
119 
51 
64 
64 
61 
64 
67 
73 
109 
119 
116 
203 
225 
217 
215 
215 
219 
220 
222 
226 
228 
163 
141 
189 
154 
116 
69 
64 
60 
60 
55 
47 
62 
63 
48 
81 
111 
78 
72 
74 
74 
67 
71 
73 
63 
65 
64 
58 
58 
60 
55 
54 
62 
65 
72 
77 
78 
76 
72 
64 
57 
58 
57 
55 
54 
54 
54 
54 
53 
53 
53 
53 
55 
60 
65 
67 
65 
57 
66 
86 
86 
61 
68 
61 
62 
72 
66 
59 
56 
56 
57 
59 
61 
81 
66 
74 
82 
130 
69 
59 
67 
71 
66 
80 
63 
79 
85 
101 
170 
207 
220 
219 
217 
216 
215 
218 
219 
214 
212 
185 
84 
96 
89 
143 
72 
62 
54 
51 
75 
57 
55 
51 
55 
89 
105 
86 
77 
77 
76 
70 
73 
78 
71 
61 
64 
60 
57 
62 
63 
59 
60 
53 
63 
72 
71 
69 
71 
68 
62 
58 
56 
54 
54 
54 
54 
53 
51 
54 
54 
53 
54 
58 
64 
66 
65 
61 
80 
105 
73 
64 
73 
61 
57 
54 
61 
65 
60 
51 
50 
54 
60 
78 
74 
119 
165 
150 
58 
72 
48 
69 
71 
80 
62 
72 
57 
126 
222 
196 
215 
218 
214 
217 
219 
219 
209 
197 
202 
152 
65 
91 
79 
72 
46 
86 
81 
50 
106 
64 
47 
48 
67 
75 
91 
92 
82 
78 
75 
70 
71 
74 
71 
57 
64 
64 
61 
65 
69 
66 
62 
70 
78 
77 
66 
58 
63 
71 
75 
65 
64 
62 
61 
59 
56 
53 
51 
54 
53 
52 
53 
57 
61 
63 
61 
58 
85 
108 
70 
75 
54 
71 
53 
58 
64 
67 
62 
56 
55 
60 
64 
84 
88 
92 
144 
145 
74 
67 
41 
60 
61 
59 
67 
74 
71 
163 
200 
197 
225 
217 
214 
219 
222 
223 
210 
196 
206 
148 
75 
103 
99 
72 
85 
130 
133 
65 
110 
62 
47 
56 
63 
54 
82 
104 
95 
85 
80 
75 
70 
67 
65 
65 
68 
70 
67 
63 
65 
68 
66 
70 
76 
80 
76 
68 
65 
72 
81 
72 
73 
73 
69 
63 
56 
53 
52 
52 
53 
52 
53 
57 
60 
60 
57 
51 
76 
92 
75 
77 
56 
93 
62 
70 
65 
61 
62 
63 
63 
65 
68 
83 
91 
84 
121 
157 
95 
64 
50 
66 
62 
63 
77 
79 
110 
164 
156 
212 
226 
221 
219 
221 
219 
223 
217 
202 
209 
114 
50 
116 
80 
46 
64 
135 
124 
81 
87 
64 
56 
59 
52 
58 
69 
85 
80 
74 
75 
78 
75 
72 
73 
76 
73 
73 
68 
56 
55 
64 
68 
66 
66 
68 
69 
61 
55 
65 
82 
72 
76 
78 
72 
62 
53 
51 
51 
52 
53 
53 
55 
58 
60 
59 
55 
63 
73 
81 
88 
83 
95 
125 
82 
71 
63 
60 
63 
62 
59 
64 
74 
90 
59 
80 
112 
163 
111 
91 
67 
57 
56 
76 
72 
68 
131 
146 
157 
226 
219 
222 
219 
219 
214 
219 
216 
221 
116 
107 
75 
110 
98 
71 
69 
136 
151 
85 
75 
74 
58 
55 
50 
57 
66 
80 
88 
73 
58 
63 
59 
53 
64 
75 
73 
69 
62 
55 
54 
58 
63 
68 
70 
69 
70 
70 
58 
55 
67 
67 
73 
73 
66 
58 
55 
52 
49 
50 
58 
54 
52 
61 
60 
52 
54 
76 
84 
86 
83 
98 
125 
123 
96 
82 
64 
55 
61 
66 
62 
61 
66 
73 
53 
79 
99 
146 
144 
113 
61 
52 
58 
78 
65 
133 
142 
143 
189 
204 
210 
223 
215 
219 
215 
213 
230 
201 
122 
190 
179 
145 
117 
67 
64 
119 
161 
78 
77 
65 
57 
59 
50 
63 
73 
86 
94 
77 
56 
58 
62 
62 
68 
72 
70 
65 
61 
59 
60 
63 
66 
70 
79 
82 
82 
82 
73 
65 
67 
61 
66 
67 
62 
57 
55 
52 
50 
49 
55 
60 
70 
74 
60 
51 
63 
75 
88 
98 
100 
104 
112 
102 
80 
75 
64 
58 
62 
63 
57 
57 
63 
69 
64 
70 
89 
117 
152 
88 
46 
79 
77 
130 
79 
131 
123 
153 
200 
216 
221 
216 
223 
218 
216 
227 
220 
171 
132 
201 
179 
130 
122 
54 
52 
81 
116 
73 
80 
61 
60 
68 
52 
62 
67 
86 
90 
74 
56 
58 
72 
75 
70 
72 
68 
63 
60 
60 
61 
62 
62 
64 
73 
73 
67 
67 
67 
63 
60 
62 
63 
61 
57 
54 
53 
53 
51 
53 
53 
55 
64 
67 
54 
52 
70 
80 
91 
103 
109 
108 
100 
83 
68 
63 
62 
63 
67 
66 
60 
58 
61 
67 
63 
70 
85 
103 
98 
63 
60 
98 
111 
86 
111 
133 
168 
191 
159 
215 
219 
220 
222 
220 
211 
219 
223 
213 
98 
173 
143 
128 
112 
64 
47 
61 
60 
74 
87 
65 
59 
71 
59 
54 
55 
74 
71 
62 
55 
62 
79 
79 
65 
67 
64 
60 
58 
58 
58 
57 
57 
63 
66 
63 
56 
56 
61 
63 
61 
67 
64 
59 
55 
53 
55 
57 
57 
65 
59 
51 
51 
55 
54 
57 
70 
90 
92 
95 
100 
104 
97 
82 
70 
55 
60 
67 
72 
73 
67 
61 
57 
56 
77 
68 
91 
71 
54 
60 
76 
82 
125 
139 
173 
177 
174 
181 
221 
216 
219 
221 
221 
221 
213 
217 
216 
235 
131 
192 
201 
143 
146 
64 
66 
57 
55 
70 
87 
73 
56 
65 
65 
51 
57 
63 
58 
55 
56 
62 
71 
70 
59 
60 
60 
59 
57 
57 
57 
57 
57 
63 
63 
63 
64 
63 
65 
65 
63 
67 
63 
59 
57 
58 
59 
61 
62 
72 
65 
60 
63 
64 
59 
60 
68 
79 
80 
76 
76 
83 
82 
72 
65 
56 
60 
65 
72 
75 
74 
66 
59 
54 
87 
83 
65 
50 
53 
81 
60 
129 
137 
125 
160 
147 
178 
159 
190 
219 
221 
216 
221 
218 
220 
223 
207 
213 
214 
199 
214 
122 
172 
50 
61 
49 
51 
53 
78 
76 
62 
67 
69 
53 
63 
66 
62 
63 
63 
59 
60 
62 
62 
61 
62 
62 
60 
57 
56 
56 
57 
62 
58 
61 
65 
63 
62 
65 
65 
66 
63 
61 
62 
61 
58 
56 
57 
68 
59 
62 
73 
69 
55 
55 
68 
66 
71 
66 
61 
66 
64 
58 
58 
61 
61 
62 
67 
74 
78 
77 
74 
71 
71 
89 
50 
57 
56 
81 
59 
127 
101 
114 
149 
145 
172 
173 
243 
219 
220 
221 
216 
218 
219 
212 
227 
218 
218 
205 
195 
156 
169 
87 
54 
66 
60 
52 
74 
66 
65 
71 
70 
57 
63 
72 
70 
68 
64 
60 
58 
61 
66 
64 
65 
65 
63 
60 
59 
59 
59 
65 
59 
60 
62 
58 
60 
67 
67 
64 
61 
60 
61 
59 
55 
55 
56 
64 
55 
59 
70 
68 
58 
60 
69 
74 
78 
70 
63 
66 
62 
59 
67 
66 
64 
62 
63 
67 
72 
78 
82 
76 
70 
68 
68 
55 
65 
66 
82 
76 
106 
119 
112 
204 
153 
211 
223 
222 
221 
217 
224 
218 
217 
221 
225 
204 
207 
199 
215 
202 
154 
90 
60 
49 
68 
70 
79 
50 
58 
68 
65 
61 
63 
72 
70 
64 
60 
62 
63 
63 
64 
62 
63 
63 
64 
64 
64 
64 
65 
60 
57 
60 
61 
55 
59 
65 
62 
60 
56 
55 
57 
57 
55 
57 
62 
64 
59 
62 
70 
74 
75 
74 
69 
82 
78 
64 
58 
63 
59 
58 
71 
70 
68 
65 
61 
57 
58 
66 
75 
65 
83 
64 
59 
57 
70 
81 
89 
119 
130 
129 
168 
185 
202 
232 
222 
220 
219 
219 
219 
220 
220 
219 
220 
222 
224 
209 
174 
199 
124 
82 
75 
67 
79 
79 
73 
57 
66 
62 
65 
66 
62 
67 
61 
53 
63 
57 
62 
66 
64 
60 
60 
57 
69 
66 
59 
65 
63 
60 
56 
61 
63 
62 
69 
60 
60 
64 
56 
53 
64 
63 
75 
60 
76 
59 
73 
79 
89 
89 
82 
82 
64 
76 
81 
67 
53 
56 
49 
62 
73 
70 
66 
71 
59 
49 
49 
65 
60 
85 
87 
50 
66 
80 
80 
81 
78 
114 
160 
130 
147 
199 
216 
225 
220 
219 
219 
219 
220 
220 
220 
220 
219 
220 
221 
216 
129 
197 
131 
99 
104 
71 
84 
67 
66 
68 
68 
65 
70 
69 
76 
66 
61 
58 
59 
68 
78 
62 
57 
62 
62 
58 
56 
58 
61 
60 
64 
64 
53 
64 
59 
58 
81 
60 
60 
56 
64 
57 
64 
76 
72 
70 
52 
83 
86 
88 
96 
90 
82 
86 
66 
90 
86 
77 
62 
63 
76 
64 
75 
69 
67 
58 
54 
52 
56 
68 
82 
98 
64 
77 
56 
122 
79 
100 
121 
101 
201 
155 
205 
228 
209 
232 
221 
219 
219 
219 
220 
221 
221 
220 
219 
218 
218 
224 
180 
197 
162 
74 
120 
85 
96 
83 
65 
71 
64 
73 
77 
71 
86 
67 
56 
59 
55 
78 
85 
64 
67 
80 
60 
63 
58 
56 
63 
64 
70 
60 
74 
64 
71 
75 
72 
72 
56 
58 
61 
58 
76 
77 
76 
68 
64 
83 
84 
111 
114 
75 
97 
99 
113 
111 
66 
80 
71 
79 
87 
86 
65 
60 
60 
65 
43 
54 
77 
86 
84 
69 
76 
68 
112 
134 
91 
191 
156 
132 
212 
179 
214 
232 
217 
219 
222 
219 
219 
220 
220 
221 
221 
220 
220 
219 
219 
221 
227 
211 
168 
99 
135 
122 
100 
107 
78 
75 
61 
75 
71 
72 
90 
72 
57 
61 
60 
74 
69 
62 
77 
72 
71 
77 
62 
62 
75 
79 
70 
72 
80 
83 
78 
80 
88 
76 
60 
66 
51 
60 
86 
94 
68 
69 
79 
70 
93 
120 
91 
94 
97 
89 
127 
96 
60 
85 
84 
81 
63 
80 
78 
68 
70 
43 
51 
52 
66 
105 
99 
103 
79 
114 
140 
124 
162 
197 
165 
183 
202 
197 
198 
222 
228 
206 
217 
219 
219 
221 
221 
220 
220 
220 
221 
221 
221 
219 
220 
229 
183 
134 
168 
154 
141 
99 
87 
88 
64 
65 
56 
70 
83 
81 
75 
79 
79 
82 
67 
70 
76 
67 
63 
59 
67 
88 
84 
89 
86 
92 
73 
67 
104 
86 
84 
63 
71 
68 
78 
83 
111 
99 
90 
82 
75 
89 
108 
115 
99 
110 
105 
81 
77 
72 
75 
80 
90 
99 
96 
78 
125 
138 
100 
114 
74 
78 
186 
88 
108 
114 
111 
166 
151 
174 
187 
205 
223 
213 
217 
220 
225 
227 
231 
221 
220 
219 
219 
222 
221 
220 
220 
221 
222 
222 
222 
222 
221 
223 
215 
137 
188 
159 
148 
90 
85 
90 
65 
58 
54 
68 
66 
73 
89 
91 
89 
95 
90 
87 
77 
66 
56 
74 
88 
76 
71 
123 
136 
97 
88 
89 
148 
81 
90 
90 
74 
90 
82 
121 
129 
104 
88 
72 
99 
102 
117 
152 
132 
143 
135 
98 
91 
91 
87 
96 
96 
123 
140 
113 
148 
142 
121 
187 
110 
166 
157 
113 
142 
109 
197 
180 
198 
203 
152 
213 
226 
215 
214 
216 
228 
203 
221 
215 
215 
219 
219 
221 
220 
219 
220 
221 
222 
222 
221 
221 
221 
213 
218 
179 
194 
171 
124 
133 
94 
90 
70 
65 
66 
67 
66 
80 
107 
99 
86 
102 
110 
93 
96 
94 
81 
90 
80 
89 
122 
162 
141 
128 
177 
169 
124 
97 
117 
61 
70 
95 
117 
168 
104 
95 
85 
106 
90 
87 
135 
169 
138 
179 
139 
125 
150 
129 
119 
138 
131 
137 
132 
152 
154 
142 
172 
170 
158 
186 
164 
191 
190 
175 
226 
211 
230 
213 
210 
214 
222 
228 
216 
219 
222 
201 
229 
218 
223 
219 
219 
220 
219 
219 
220 
222 
222 
220 
219 
220 
221 
219 
216 
216 
208 
199 
180 
194 
113 
100 
83 
74 
73 
68 
85 
119 
143 
122 
94 
112 
123 
97 
127 
104 
111 
110 
96 
137 
139 
139 
167 
154 
143 
143 
117 
108 
102 
101 
98 
128 
174 
137 
152 
113 
91 
131 
95 
88 
144 
108 
175 
134 
125 
156 
144 
155 
163 
147 
172 
169 
148 
195 
185 
204 
187 
184 
203 
201 
199 
219 
217 
224 
224 
217 
216 
226 
222 
221 
220 
218 
217 
220 
223 
217 
224 
222 
216 
219 
219 
220 
220 
220 
220 
221 
221 
221 
221 
220 
221 
215 
216 
221 
227 
217 
227 
215 
181 
181 
151 
90 
88 
95 
111 
116 
166 
160 
154 
119 
126 
103 
163 
127 
140 
144 
130 
140 
69 
147 
204 
115 
136 
186 
122 
113 
144 
128 
135 
140 
137 
156 
175 
159 
150 
125 
108 
128 
131 
127 
133 
113 
162 
155 
95 
194 
194 
181 
185 
188 
205 
218 
223 
207 
184 
216 
216 
216 
215 
224 
218 
221 
220 
209 
221 
226 
218 
225 
221 
219 
219 
220 
220 
221 
220 
220 
220 
220 
220 
220 
220 
220 
220 
221 
221 
221 
221 
217 
220 
218 
225 
215 
228 
215 
214 
220 
221 
224 
215 
181 
173 
166 
159 
168 
196 
206 
209 
185 
186 
162 
188 
154 
186 
184 
187 
161 
170 
178 
165 
111 
170 
139 
101 
144 
138 
166 
174 
167 
200 
190 
176 
213 
170 
140 
136 
149 
172 
151 
127 
138 
170 
159 
166 
207 
210 
203 
209 
210 
219 
225 
225 
221 
203 
222 
226 
217 
221 
221 
221 
220 
222 
214 
223 
225 
217 
223 
219 
219 
219 
220 
220 
221 
220 
220 
220 
220 
220 
220 
220 
220 
220 
221 
221 
221 
221 
221 
220 
218 
225 
204 
226 
219 
215 
217 
230 
215 
220 
221 
218 
225 
220 
221 
213 
221 
220 
211 
218 
213 
213 
204 
208 
214 
196 
139 
180 
196 
175 
177 
162 
154 
161 
173 
161 
222 
198 
218 
212 
211 
204 
211 
174 
212 
202 
200 
204 
202 
187 
196 
199 
180 
202 
211 
217 
214 
221 
218 
221 
220 
217 
228 
218 
222 
229 
214 
224 
216 
222 
218 
225 
221 
225 
224 
217 
223 
219 
219 
219 
220 
220 
221 
220 
220 
220 
220 
220 
220 
220 
220 
220 
220 
221 
221 
221 
223 
220 
217 
219 
206 
223 
222 
226 
219 
223 
207 
218 
226 
217 
222 
221 
232 
214 
221 
222 
220 
225 
225 
216 
218 
221 
223 
206 
206 
209 
208 
219 
222 
201 
203 
203 
227 
208 
213 
222 
216 
203 
204 
226 
230 
212 
238 
217 
222 
211 
222 
225 
218 
223 
217 
220 
218 
224 
220 
226 
221 
221 
220 
218 
223 
220 
219 
224 
214 
223 
215 
223 
215 
223 
221 
223 
221 
219 
223 
219 
219 
219 
220 
220 
221 
220 
220 
220 
220 
220 
220 
220 
220 
220 
220 
220 
220 
220 
217 
218 
220 
219 
222 
220 
216 
225 
221 
219 
222 
228 
227 
217 
213 
208 
224 
218 
222 
225 
223 
224 
221 
219 
223 
216 
214 
216 
215 
224 
228 
224 
225 
224 
226 
221 
225 
223 
223 
218 
228 
232 
218 
212 
215 
219 
221 
213 
214 
227 
223 
222 
216 
228 
227 
226 
222 
226 
220 
226 
221 
221 
222 
222 
220 
219 
220 
220 
219 
222 
219 
223 
214 
220 
219 
218 
217 
219 
222 
218 
219 
219 
220 
220 
221 
220 
220 
220 
220 
220 
220 
220 
220 
220 
220 
220 
220 
220 
219 
218 
222 
217 
227 
216 
210 
221 
216 
213 
226 
217 
214 
221 
222 
217 
219 
222 
219 
218 
216 
214 
216 
227 
215 
226 
222 
223 
224 
219 
219 
215 
216 
219 
226 
221 
215 
222 
222 
220 
207 
215 
231 
221 
218 
221 
225 
229 
226 
232 
220 
228 
223 
223 
217 
218 
218 
221 
215 
222 
218 
218 
219 
219 
220 
219 
223 
218 
221 
219 
222 
220 
219 
221 
220 
217 
218 
220 
221 
218 
219 
219 
220 
220 
221 
220 
220 
220 
220 
220 
220 
220 
220 
220 
220 
220 
220 
220 
223 
218 
220 
216 
218 
216 
214 
220 
215 
217 
227 
216 
217 
219 
220 
215 
215 
220 
222 
223 
225 
216 
217 
223 
227 
211 
214 
221 
219 
218 
228 
214 
219 
210 
227 
222 
219 
220 
217 
223 
221 
223 
223 
219 
231 
223 
208 
224 
230 
214 
216 
224 
219 
219 
220 
222 
221 
222 
215 
223 
220 
221 
220 
220 
220 
220 
222 
219 
219 
217 
223 
217 
222 
221 
222 
220 
219 
220 
219 
220 
219 
219 
220 
220 
221 
220 
220 
220 
220 
220 
220 
220 
220 
220 
220 
220 
220 
220 
221 
215 
220 
221 
212 
221 
220 
217 
217 
219 
220 
216 
224 
215 
216 
220 
220 
217 
221 
220 
226 
215 
222 
222 
220 
223 
213 
221 
216 
223 
210 
219 
216 
226 
223 
214 
225 
216 
224 
217 
218 
222 
219 
221 
215 
222 
218 
224 
206 
217 
242 
222 
220 
224 
219 
218 
224 
223 
214 
222 
219 
220 
220 
220 
220 
220 
221 
222 
217 
219 
225 
219 
219 
218 
221 
219 
218 
218 
217 
220 
219 
219 
220 
220 
221 
220 
220 
220 
220 
220 
