P2
# Created by MsrVolt
78 79
255
215 
215 
215 
215 
215 
215 
215 
215 
215 
215 
216 
216 
216 
216 
216 
216 
216 
216 
216 
216 
216 
216 
216 
216 
216 
216 
216 
216 
216 
216 
216 
216 
216 
216 
216 
216 
216 
216 
216 
216 
216 
216 
216 
216 
216 
216 
216 
216 
216 
216 
216 
216 
216 
216 
216 
216 
216 
216 
216 
216 
216 
216 
216 
216 
216 
216 
216 
216 
216 
216 
216 
216 
216 
216 
216 
216 
216 
217 
215 
215 
215 
215 
215 
215 
215 
215 
215 
215 
216 
216 
216 
216 
216 
216 
216 
216 
216 
216 
216 
216 
216 
216 
216 
216 
216 
216 
216 
216 
216 
216 
216 
216 
216 
216 
216 
216 
216 
216 
216 
216 
216 
216 
216 
216 
216 
216 
216 
216 
216 
216 
216 
216 
216 
216 
216 
216 
216 
216 
216 
216 
216 
216 
216 
216 
216 
216 
216 
216 
216 
216 
216 
216 
216 
216 
216 
217 
215 
215 
215 
215 
215 
215 
215 
215 
215 
215 
216 
216 
216 
216 
216 
216 
216 
216 
216 
216 
216 
216 
216 
216 
216 
216 
216 
216 
216 
216 
216 
216 
216 
216 
216 
216 
216 
216 
216 
216 
216 
216 
216 
216 
216 
216 
216 
216 
216 
216 
216 
216 
216 
216 
216 
216 
216 
216 
216 
216 
216 
216 
216 
216 
216 
216 
216 
216 
216 
216 
216 
216 
216 
216 
216 
216 
216 
217 
215 
215 
215 
215 
215 
215 
215 
215 
215 
215 
216 
216 
216 
216 
216 
216 
216 
216 
216 
216 
216 
216 
216 
216 
216 
216 
216 
216 
216 
216 
216 
216 
216 
216 
216 
216 
216 
216 
216 
216 
216 
216 
216 
216 
216 
216 
216 
216 
216 
216 
216 
216 
216 
216 
216 
216 
216 
216 
216 
216 
216 
216 
216 
216 
216 
216 
216 
216 
216 
216 
216 
216 
216 
216 
216 
216 
216 
217 
215 
215 
215 
215 
215 
215 
215 
215 
215 
215 
216 
216 
216 
216 
216 
216 
216 
216 
216 
216 
216 
216 
216 
216 
216 
216 
216 
216 
216 
216 
216 
216 
216 
216 
216 
216 
216 
216 
216 
216 
216 
216 
216 
216 
216 
216 
216 
216 
216 
216 
216 
216 
216 
216 
216 
216 
216 
216 
216 
216 
216 
216 
216 
216 
216 
216 
216 
216 
216 
216 
216 
216 
216 
216 
216 
216 
216 
217 
215 
215 
215 
215 
215 
215 
215 
215 
215 
215 
216 
216 
216 
216 
216 
216 
216 
216 
216 
216 
216 
216 
216 
216 
216 
216 
216 
216 
216 
216 
216 
216 
216 
216 
216 
216 
216 
216 
216 
216 
216 
216 
216 
216 
216 
216 
216 
216 
216 
216 
216 
216 
216 
216 
216 
216 
216 
216 
216 
216 
216 
216 
216 
216 
216 
216 
216 
216 
216 
216 
216 
216 
216 
216 
216 
216 
216 
217 
215 
215 
215 
215 
215 
215 
215 
215 
215 
215 
216 
216 
216 
216 
216 
216 
216 
216 
216 
216 
216 
216 
216 
216 
216 
216 
216 
216 
216 
216 
216 
216 
216 
216 
216 
216 
216 
216 
216 
216 
216 
216 
216 
216 
216 
216 
216 
216 
216 
216 
216 
216 
216 
216 
216 
216 
216 
216 
216 
216 
216 
216 
216 
216 
216 
216 
216 
216 
216 
216 
216 
216 
216 
216 
216 
216 
216 
217 
215 
215 
215 
215 
215 
215 
215 
215 
215 
215 
216 
216 
216 
216 
216 
216 
216 
216 
216 
216 
216 
216 
216 
216 
216 
216 
216 
216 
216 
216 
216 
216 
216 
216 
216 
216 
216 
216 
216 
216 
216 
216 
216 
216 
216 
216 
216 
216 
216 
216 
216 
216 
216 
216 
216 
216 
216 
216 
216 
216 
216 
216 
216 
216 
216 
216 
216 
216 
216 
216 
216 
216 
216 
216 
216 
216 
216 
217 
215 
215 
215 
214 
214 
214 
213 
213 
213 
213 
213 
213 
214 
214 
213 
213 
209 
208 
212 
210 
203 
209 
216 
210 
213 
221 
209 
215 
220 
214 
221 
217 
209 
215 
215 
213 
216 
218 
216 
215 
216 
216 
216 
216 
216 
216 
216 
216 
216 
216 
217 
217 
217 
217 
217 
217 
217 
217 
216 
216 
216 
216 
216 
216 
216 
216 
216 
216 
216 
216 
216 
216 
216 
216 
217 
218 
218 
218 
215 
215 
215 
214 
214 
214 
213 
213 
213 
213 
213 
213 
214 
213 
212 
211 
210 
208 
208 
211 
208 
196 
186 
186 
187 
195 
206 
211 
205 
205 
215 
216 
213 
219 
218 
214 
215 
216 
214 
214 
215 
215 
215 
216 
216 
216 
216 
216 
216 
216 
217 
217 
217 
217 
217 
217 
217 
217 
216 
216 
216 
216 
216 
216 
216 
216 
216 
216 
216 
216 
216 
216 
216 
216 
217 
217 
218 
218 
215 
215 
215 
214 
214 
214 
213 
213 
213 
213 
213 
213 
213 
212 
211 
209 
208 
203 
194 
193 
190 
164 
140 
142 
153 
162 
196 
208 
200 
208 
216 
216 
210 
216 
217 
213 
214 
215 
214 
215 
214 
214 
215 
215 
215 
216 
216 
216 
216 
216 
217 
217 
217 
217 
217 
217 
217 
217 
216 
216 
216 
216 
216 
216 
216 
216 
216 
216 
216 
216 
216 
216 
216 
216 
217 
217 
217 
217 
215 
215 
215 
214 
214 
214 
213 
213 
213 
213 
213 
213 
213 
212 
210 
208 
207 
203 
189 
179 
175 
162 
144 
136 
152 
161 
186 
202 
204 
210 
214 
208 
208 
215 
216 
214 
215 
215 
215 
217 
215 
215 
215 
215 
216 
216 
216 
216 
216 
216 
217 
217 
217 
217 
217 
217 
217 
217 
216 
216 
216 
216 
216 
216 
216 
216 
216 
216 
216 
216 
216 
216 
216 
216 
216 
216 
217 
217 
215 
215 
215 
214 
214 
214 
213 
213 
213 
213 
213 
213 
213 
212 
210 
209 
206 
206 
196 
174 
162 
166 
156 
130 
138 
153 
160 
183 
200 
202 
210 
206 
212 
218 
219 
217 
218 
216 
214 
216 
216 
216 
216 
216 
216 
216 
216 
216 
216 
216 
217 
217 
217 
217 
217 
217 
217 
217 
216 
216 
216 
216 
216 
216 
216 
216 
216 
216 
216 
216 
216 
216 
216 
216 
216 
216 
216 
216 
215 
215 
215 
214 
214 
214 
213 
213 
213 
213 
212 
212 
212 
212 
211 
210 
207 
210 
206 
184 
165 
168 
158 
127 
124 
144 
151 
183 
205 
201 
210 
211 
211 
214 
214 
214 
217 
216 
214 
216 
217 
217 
217 
216 
216 
216 
216 
216 
216 
216 
217 
217 
217 
217 
217 
217 
217 
217 
216 
216 
216 
216 
216 
216 
216 
216 
216 
216 
216 
216 
216 
216 
216 
216 
215 
215 
215 
215 
215 
215 
215 
214 
214 
214 
213 
213 
213 
212 
211 
211 
212 
213 
213 
213 
211 
214 
215 
207 
196 
187 
178 
169 
162 
166 
175 
201 
211 
204 
210 
213 
209 
210 
208 
208 
212 
213 
213 
216 
216 
216 
216 
216 
216 
216 
216 
216 
216 
216 
217 
217 
217 
217 
217 
217 
217 
217 
216 
216 
216 
216 
216 
216 
216 
216 
216 
216 
216 
216 
216 
216 
216 
216 
215 
215 
215 
215 
215 
215 
215 
214 
214 
214 
213 
213 
213 
212 
211 
211 
212 
213 
214 
214 
214 
212 
210 
214 
210 
187 
178 
193 
199 
176 
183 
197 
197 
200 
210 
217 
214 
212 
207 
205 
210 
211 
210 
213 
214 
215 
215 
215 
216 
216 
216 
216 
216 
216 
217 
217 
217 
217 
217 
217 
217 
217 
216 
216 
216 
216 
216 
216 
216 
216 
216 
216 
216 
216 
216 
216 
216 
215 
215 
214 
214 
215 
216 
215 
214 
214 
215 
215 
214 
213 
211 
211 
209 
207 
207 
210 
211 
211 
209 
209 
204 
212 
217 
203 
195 
194 
201 
195 
187 
181 
173 
182 
205 
209 
217 
217 
218 
209 
205 
210 
213 
219 
217 
216 
214 
213 
213 
215 
215 
216 
214 
215 
216 
217 
218 
218 
217 
217 
217 
217 
216 
216 
216 
216 
216 
216 
216 
216 
216 
216 
216 
216 
216 
216 
216 
216 
217 
217 
217 
217 
217 
215 
214 
214 
215 
215 
214 
213 
212 
212 
211 
209 
210 
213 
215 
214 
211 
207 
212 
210 
208 
198 
202 
207 
198 
191 
181 
177 
175 
186 
207 
210 
208 
209 
214 
211 
209 
213 
214 
219 
219 
217 
215 
215 
215 
216 
216 
216 
215 
216 
216 
217 
217 
218 
217 
217 
217 
217 
216 
216 
216 
216 
216 
216 
216 
216 
216 
216 
216 
216 
216 
216 
216 
216 
217 
217 
217 
217 
217 
215 
214 
214 
215 
215 
215 
214 
213 
213 
212 
210 
211 
213 
214 
213 
210 
205 
214 
211 
205 
197 
202 
206 
203 
193 
179 
174 
176 
189 
208 
211 
209 
207 
211 
209 
207 
210 
211 
218 
217 
216 
215 
215 
216 
216 
217 
217 
217 
217 
217 
217 
217 
217 
217 
217 
217 
217 
216 
216 
216 
216 
216 
216 
216 
216 
216 
216 
216 
216 
216 
216 
216 
216 
217 
217 
217 
217 
217 
215 
214 
214 
215 
216 
215 
214 
213 
213 
211 
209 
208 
209 
209 
207 
204 
200 
186 
197 
209 
211 
209 
203 
206 
202 
189 
184 
184 
189 
202 
203 
205 
202 
209 
211 
208 
206 
204 
211 
213 
213 
213 
214 
215 
217 
217 
217 
218 
218 
217 
217 
217 
217 
217 
217 
217 
217 
216 
216 
216 
216 
216 
216 
216 
216 
216 
216 
216 
216 
216 
216 
216 
216 
217 
217 
217 
217 
217 
215 
214 
214 
215 
216 
216 
215 
214 
214 
212 
209 
208 
208 
207 
205 
200 
198 
147 
157 
177 
190 
197 
199 
200 
204 
198 
193 
187 
183 
188 
188 
187 
188 
203 
216 
217 
209 
200 
204 
211 
211 
211 
213 
215 
216 
217 
217 
218 
218 
217 
217 
217 
217 
217 
217 
217 
217 
216 
216 
216 
216 
216 
216 
216 
216 
216 
216 
216 
216 
216 
216 
216 
216 
217 
217 
217 
217 
217 
215 
213 
213 
215 
216 
216 
216 
216 
216 
215 
213 
212 
213 
211 
209 
201 
207 
148 
124 
106 
108 
136 
165 
182 
189 
182 
176 
172 
169 
175 
180 
177 
172 
187 
207 
217 
211 
202 
207 
212 
212 
211 
212 
213 
215 
216 
216 
217 
217 
217 
217 
217 
217 
217 
217 
217 
217 
216 
216 
216 
216 
216 
216 
216 
216 
216 
216 
216 
216 
216 
216 
216 
216 
217 
217 
217 
217 
217 
215 
213 
213 
215 
216 
217 
216 
217 
217 
217 
216 
216 
216 
215 
213 
206 
210 
186 
133 
82 
61 
86 
116 
144 
153 
148 
149 
155 
156 
162 
167 
161 
146 
156 
182 
205 
209 
205 
211 
211 
210 
210 
210 
211 
213 
215 
215 
216 
216 
217 
217 
217 
217 
217 
216 
217 
217 
216 
216 
216 
216 
216 
216 
216 
216 
216 
216 
216 
216 
216 
216 
216 
216 
217 
217 
217 
217 
217 
215 
213 
213 
215 
216 
217 
217 
217 
218 
217 
216 
216 
217 
215 
213 
210 
201 
214 
164 
118 
88 
88 
91 
102 
117 
123 
136 
152 
153 
151 
149 
134 
116 
126 
162 
195 
207 
203 
208 
208 
207 
207 
207 
209 
212 
214 
215 
215 
215 
216 
217 
217 
217 
216 
216 
217 
217 
216 
216 
216 
216 
216 
216 
216 
216 
216 
216 
216 
216 
216 
216 
216 
216 
217 
217 
217 
217 
214 
215 
215 
215 
215 
215 
215 
215 
214 
216 
216 
215 
215 
217 
217 
215 
208 
204 
196 
190 
168 
138 
127 
125 
120 
104 
120 
128 
145 
168 
166 
129 
115 
117 
119 
154 
188 
210 
208 
203 
208 
212 
215 
214 
210 
207 
209 
212 
216 
217 
217 
217 
216 
216 
216 
217 
216 
216 
216 
216 
216 
216 
216 
216 
216 
216 
216 
216 
216 
216 
216 
216 
216 
216 
217 
217 
217 
217 
214 
215 
215 
215 
215 
215 
215 
215 
214 
216 
217 
215 
213 
214 
214 
214 
212 
206 
198 
201 
195 
178 
170 
165 
152 
139 
132 
141 
143 
150 
160 
159 
116 
111 
95 
122 
156 
200 
216 
211 
203 
206 
210 
210 
208 
207 
209 
212 
212 
214 
216 
217 
217 
216 
216 
216 
216 
216 
216 
216 
216 
216 
216 
216 
216 
216 
216 
216 
216 
216 
216 
216 
216 
216 
217 
217 
217 
217 
214 
215 
215 
215 
215 
215 
215 
215 
214 
216 
216 
214 
212 
212 
213 
212 
213 
207 
200 
206 
208 
199 
196 
192 
173 
156 
134 
167 
184 
172 
149 
138 
147 
140 
98 
103 
124 
178 
215 
218 
206 
209 
211 
211 
210 
208 
208 
209 
208 
211 
214 
216 
217 
216 
215 
215 
216 
216 
216 
216 
216 
216 
216 
216 
216 
216 
216 
216 
216 
216 
216 
216 
216 
216 
217 
217 
217 
217 
214 
215 
215 
215 
215 
215 
215 
215 
215 
215 
215 
214 
214 
214 
214 
213 
210 
209 
203 
205 
202 
195 
197 
197 
191 
184 
169 
176 
180 
170 
152 
148 
159 
163 
114 
103 
106 
146 
183 
201 
207 
209 
212 
214 
214 
212 
210 
208 
207 
210 
213 
216 
217 
216 
216 
215 
216 
216 
216 
216 
216 
216 
216 
216 
216 
216 
216 
216 
216 
216 
216 
216 
216 
216 
217 
217 
217 
217 
214 
215 
215 
215 
215 
215 
215 
215 
216 
214 
213 
215 
217 
218 
216 
214 
209 
212 
207 
206 
202 
198 
204 
205 
204 
193 
190 
168 
174 
177 
144 
115 
122 
143 
117 
120 
130 
148 
166 
188 
197 
200 
205 
211 
216 
217 
214 
211 
210 
212 
214 
216 
216 
216 
216 
216 
216 
216 
216 
216 
216 
216 
216 
216 
216 
216 
216 
216 
216 
216 
216 
216 
216 
216 
217 
217 
217 
217 
214 
215 
215 
215 
215 
215 
215 
215 
216 
214 
213 
216 
218 
216 
214 
212 
211 
214 
208 
207 
206 
206 
211 
208 
203 
186 
189 
171 
194 
198 
136 
81 
94 
108 
114 
144 
175 
188 
188 
197 
192 
194 
200 
208 
216 
219 
216 
213 
212 
214 
215 
216 
216 
216 
216 
216 
216 
216 
216 
216 
216 
216 
216 
216 
216 
216 
216 
216 
216 
216 
216 
216 
216 
216 
217 
217 
217 
217 
214 
215 
215 
215 
215 
215 
215 
215 
215 
215 
216 
217 
214 
210 
206 
206 
210 
214 
208 
204 
202 
203 
206 
202 
200 
199 
198 
181 
185 
177 
147 
148 
125 
101 
112 
143 
180 
203 
205 
197 
194 
194 
197 
205 
215 
219 
217 
213 
213 
214 
216 
216 
216 
216 
216 
216 
216 
216 
216 
216 
216 
216 
216 
216 
216 
216 
216 
216 
216 
216 
216 
216 
216 
216 
217 
217 
217 
217 
214 
215 
215 
215 
215 
215 
215 
215 
215 
216 
218 
217 
211 
203 
200 
201 
206 
214 
210 
204 
197 
195 
200 
197 
196 
197 
181 
188 
197 
175 
149 
178 
185 
121 
120 
132 
158 
191 
205 
186 
192 
191 
193 
201 
212 
218 
217 
213 
213 
214 
216 
217 
217 
216 
216 
216 
216 
216 
216 
216 
216 
216 
216 
216 
216 
216 
216 
216 
216 
216 
216 
216 
216 
216 
217 
217 
217 
217 
214 
215 
215 
215 
215 
215 
215 
215 
215 
215 
214 
217 
215 
198 
184 
187 
205 
218 
217 
206 
203 
187 
176 
198 
205 
195 
190 
193 
191 
182 
176 
177 
178 
177 
149 
127 
171 
180 
179 
168 
135 
199 
163 
178 
203 
226 
221 
213 
213 
211 
211 
214 
215 
214 
214 
215 
216 
216 
216 
216 
216 
216 
216 
216 
216 
216 
216 
216 
216 
216 
216 
216 
216 
216 
216 
216 
216 
216 
214 
215 
215 
215 
215 
215 
215 
215 
214 
215 
216 
218 
216 
201 
182 
174 
183 
200 
208 
207 
208 
191 
171 
183 
197 
189 
186 
190 
192 
189 
188 
192 
196 
194 
189 
181 
185 
171 
146 
145 
144 
143 
194 
212 
216 
206 
203 
208 
218 
216 
215 
217 
216 
214 
214 
215 
216 
216 
216 
216 
216 
216 
216 
216 
216 
216 
216 
216 
216 
216 
216 
216 
216 
216 
216 
216 
216 
216 
214 
215 
215 
215 
215 
215 
215 
215 
214 
214 
216 
217 
214 
206 
187 
167 
170 
188 
201 
206 
212 
196 
172 
177 
194 
190 
188 
191 
194 
196 
200 
204 
207 
199 
207 
211 
196 
197 
163 
156 
186 
118 
178 
206 
221 
206 
204 
212 
215 
214 
215 
217 
217 
216 
216 
217 
216 
216 
216 
216 
216 
216 
216 
216 
216 
216 
216 
216 
216 
216 
216 
216 
216 
216 
216 
216 
216 
216 
214 
215 
215 
215 
215 
215 
215 
215 
215 
214 
215 
213 
210 
211 
199 
176 
180 
193 
202 
204 
210 
201 
183 
188 
199 
198 
196 
197 
197 
199 
202 
206 
202 
197 
204 
206 
194 
221 
205 
184 
216 
165 
156 
192 
217 
214 
211 
215 
211 
212 
214 
216 
217 
217 
217 
218 
215 
215 
216 
216 
216 
216 
216 
216 
216 
216 
216 
216 
216 
216 
216 
216 
216 
216 
216 
216 
216 
216 
214 
215 
215 
215 
215 
215 
215 
215 
215 
215 
216 
211 
207 
211 
205 
187 
195 
204 
208 
204 
207 
202 
191 
197 
200 
199 
200 
201 
200 
200 
201 
204 
198 
198 
206 
207 
196 
206 
211 
195 
200 
216 
184 
212 
215 
206 
201 
205 
211 
214 
216 
217 
217 
217 
217 
216 
215 
215 
216 
216 
216 
216 
216 
216 
216 
216 
216 
216 
216 
216 
216 
216 
216 
216 
216 
216 
216 
216 
214 
215 
215 
215 
215 
215 
215 
215 
215 
216 
216 
211 
208 
209 
204 
194 
201 
208 
211 
204 
204 
201 
191 
194 
195 
194 
196 
200 
201 
199 
200 
203 
202 
196 
200 
209 
210 
196 
206 
208 
185 
211 
207 
218 
212 
203 
197 
195 
203 
208 
212 
214 
215 
216 
217 
217 
215 
215 
215 
216 
216 
216 
216 
216 
216 
216 
216 
216 
216 
216 
216 
216 
216 
216 
216 
216 
216 
216 
214 
215 
215 
215 
215 
215 
215 
215 
214 
216 
213 
211 
211 
208 
204 
202 
204 
209 
211 
203 
202 
201 
192 
192 
196 
192 
192 
198 
200 
196 
196 
201 
202 
199 
194 
193 
210 
208 
203 
211 
198 
195 
204 
201 
205 
208 
202 
194 
194 
200 
206 
209 
212 
215 
217 
217 
214 
215 
215 
216 
216 
216 
216 
216 
216 
216 
216 
216 
216 
216 
216 
216 
216 
216 
216 
216 
216 
216 
214 
215 
215 
215 
215 
215 
215 
215 
214 
214 
210 
210 
214 
210 
206 
212 
209 
210 
210 
201 
200 
202 
195 
194 
204 
196 
193 
198 
197 
191 
190 
196 
196 
212 
204 
174 
192 
212 
190 
191 
210 
204 
210 
199 
202 
204 
200 
194 
194 
200 
206 
209 
211 
214 
215 
215 
214 
215 
215 
216 
216 
216 
216 
216 
216 
216 
216 
216 
216 
216 
216 
216 
216 
216 
216 
216 
216 
216 
214 
214 
214 
214 
214 
214 
213 
213 
213 
212 
212 
212 
212 
209 
205 
202 
205 
205 
206 
204 
203 
201 
200 
200 
200 
195 
189 
206 
199 
192 
197 
210 
209 
197 
184 
185 
198 
203 
198 
204 
214 
193 
203 
200 
203 
203 
204 
204 
205 
208 
206 
203 
207 
210 
212 
215 
219 
219 
218 
217 
216 
216 
216 
216 
216 
216 
216 
216 
216 
216 
216 
216 
217 
216 
215 
215 
215 
216 
214 
214 
214 
214 
214 
214 
213 
213 
213 
212 
212 
212 
213 
211 
206 
202 
203 
204 
207 
209 
209 
206 
200 
196 
197 
198 
199 
204 
199 
201 
201 
198 
198 
200 
170 
171 
194 
212 
202 
195 
194 
195 
192 
197 
202 
204 
204 
204 
204 
206 
203 
201 
206 
210 
213 
216 
218 
218 
217 
216 
216 
216 
216 
216 
216 
216 
216 
216 
216 
216 
216 
216 
217 
216 
215 
215 
215 
216 
214 
214 
214 
214 
214 
214 
213 
213 
213 
212 
211 
213 
214 
212 
208 
204 
201 
202 
204 
209 
211 
209 
202 
196 
199 
201 
207 
196 
196 
208 
208 
191 
187 
200 
160 
159 
183 
212 
204 
193 
186 
203 
188 
198 
204 
207 
205 
206 
204 
205 
201 
200 
206 
211 
213 
217 
217 
216 
216 
216 
216 
216 
216 
216 
216 
216 
216 
216 
216 
216 
216 
216 
217 
216 
215 
215 
215 
216 
214 
214 
214 
214 
214 
214 
213 
213 
213 
212 
211 
213 
214 
213 
209 
205 
201 
200 
200 
202 
205 
207 
205 
202 
205 
202 
211 
198 
200 
208 
206 
187 
170 
174 
160 
159 
175 
198 
198 
199 
199 
207 
198 
204 
207 
208 
206 
206 
207 
207 
203 
201 
207 
212 
214 
217 
215 
215 
215 
216 
216 
216 
216 
216 
216 
216 
216 
216 
216 
216 
216 
216 
217 
216 
215 
215 
215 
216 
214 
214 
214 
214 
214 
214 
213 
213 
213 
212 
212 
212 
213 
212 
210 
208 
204 
201 
198 
198 
200 
203 
206 
207 
203 
195 
203 
203 
207 
201 
196 
186 
159 
136 
158 
161 
169 
182 
187 
201 
210 
198 
208 
208 
209 
206 
203 
201 
206 
208 
204 
203 
208 
212 
214 
216 
215 
215 
215 
216 
216 
216 
216 
216 
216 
216 
216 
216 
216 
216 
216 
216 
217 
216 
215 
215 
215 
216 
214 
214 
214 
214 
214 
214 
213 
213 
213 
213 
212 
212 
211 
211 
210 
210 
207 
205 
202 
200 
201 
202 
204 
205 
194 
181 
176 
192 
203 
190 
192 
197 
176 
128 
158 
157 
164 
175 
181 
199 
205 
187 
205 
206 
208 
204 
199 
194 
202 
206 
205 
205 
210 
213 
214 
216 
215 
215 
215 
216 
216 
216 
216 
216 
216 
216 
216 
216 
216 
216 
216 
216 
217 
216 
215 
215 
215 
216 
214 
214 
214 
214 
214 
214 
213 
213 
212 
213 
213 
211 
209 
208 
210 
212 
209 
206 
203 
203 
204 
204 
202 
200 
188 
179 
157 
184 
200 
187 
192 
201 
191 
149 
166 
160 
168 
185 
183 
190 
198 
192 
196 
202 
207 
206 
201 
196 
200 
206 
209 
209 
212 
213 
213 
215 
215 
215 
216 
216 
217 
217 
216 
216 
216 
216 
216 
216 
216 
216 
216 
216 
217 
216 
215 
215 
215 
216 
214 
214 
214 
214 
214 
214 
213 
213 
212 
214 
214 
211 
208 
207 
210 
213 
210 
206 
202 
202 
205 
206 
202 
198 
189 
190 
161 
192 
209 
192 
189 
191 
181 
166 
176 
173 
182 
201 
186 
178 
198 
207 
191 
199 
207 
210 
206 
203 
201 
209 
213 
213 
214 
213 
212 
214 
215 
216 
216 
217 
217 
217 
216 
216 
216 
216 
216 
216 
216 
216 
216 
216 
217 
216 
215 
215 
215 
216 
214 
214 
214 
214 
214 
214 
214 
214 
214 
213 
212 
212 
211 
210 
210 
209 
211 
207 
204 
202 
202 
204 
204 
203 
203 
202 
199 
193 
190 
192 
193 
193 
186 
182 
178 
179 
188 
198 
196 
189 
183 
205 
202 
200 
206 
208 
209 
201 
198 
214 
206 
219 
213 
204 
210 
215 
214 
215 
215 
216 
216 
216 
216 
216 
216 
216 
217 
217 
217 
216 
216 
215 
214 
215 
217 
217 
217 
217 
214 
214 
214 
214 
214 
214 
214 
214 
214 
213 
213 
212 
210 
209 
208 
208 
210 
208 
205 
203 
204 
205 
205 
204 
204 
203 
199 
193 
190 
191 
192 
193 
187 
187 
185 
186 
193 
199 
197 
191 
197 
208 
205 
206 
205 
194 
192 
192 
202 
205 
212 
217 
217 
215 
217 
209 
214 
215 
215 
216 
216 
216 
216 
216 
216 
216 
217 
217 
217 
216 
216 
215 
214 
215 
217 
217 
217 
217 
214 
214 
214 
214 
214 
214 
214 
214 
213 
214 
213 
211 
208 
206 
206 
206 
210 
208 
206 
206 
207 
207 
207 
206 
207 
205 
200 
194 
190 
190 
192 
193 
190 
192 
192 
193 
196 
198 
195 
189 
203 
213 
211 
208 
200 
188 
189 
193 
199 
187 
206 
211 
219 
220 
219 
207 
215 
215 
215 
216 
216 
216 
216 
216 
216 
216 
217 
217 
217 
216 
216 
215 
214 
215 
217 
217 
217 
217 
214 
214 
214 
214 
214 
214 
214 
214 
213 
214 
214 
211 
208 
205 
205 
206 
209 
208 
208 
208 
209 
210 
209 
208 
209 
207 
201 
195 
192 
191 
192 
194 
195 
196 
196 
196 
197 
196 
191 
185 
198 
213 
215 
203 
196 
199 
201 
195 
186 
178 
190 
205 
218 
216 
215 
213 
215 
215 
216 
216 
216 
216 
216 
216 
216 
216 
217 
217 
217 
216 
216 
215 
214 
215 
217 
217 
217 
217 
214 
214 
214 
214 
214 
214 
214 
214 
214 
214 
214 
211 
209 
207 
206 
206 
208 
209 
209 
210 
211 
211 
211 
210 
211 
208 
204 
199 
195 
194 
195 
196 
200 
199 
198 
198 
199 
198 
193 
187 
194 
206 
210 
202 
204 
212 
200 
177 
173 
192 
189 
207 
219 
215 
213 
215 
215 
215 
216 
216 
216 
216 
216 
216 
216 
216 
217 
217 
217 
216 
216 
215 
214 
215 
217 
217 
217 
217 
214 
214 
214 
214 
214 
214 
214 
214 
214 
214 
213 
212 
211 
210 
209 
209 
208 
209 
210 
211 
211 
211 
211 
211 
211 
209 
206 
204 
201 
198 
198 
200 
204 
203 
202 
203 
204 
202 
198 
194 
198 
194 
200 
204 
212 
215 
188 
157 
173 
214 
205 
214 
221 
219 
215 
213 
216 
216 
216 
216 
216 
216 
216 
216 
216 
216 
217 
217 
217 
216 
216 
215 
214 
215 
217 
217 
217 
217 
214 
214 
214 
214 
214 
214 
214 
214 
215 
213 
212 
212 
214 
214 
213 
211 
208 
209 
210 
211 
211 
211 
211 
211 
210 
209 
208 
208 
206 
203 
202 
204 
206 
207 
207 
207 
205 
202 
199 
198 
197 
187 
196 
203 
209 
211 
192 
173 
188 
215 
217 
217 
221 
217 
214 
214 
216 
216 
216 
216 
216 
216 
216 
216 
216 
216 
217 
217 
217 
216 
216 
215 
214 
215 
217 
217 
217 
217 
214 
214 
214 
214 
214 
214 
214 
214 
215 
213 
212 
213 
215 
217 
215 
213 
208 
209 
210 
210 
210 
210 
211 
211 
210 
209 
210 
211 
209 
206 
205 
206 
206 
208 
210 
209 
204 
199 
197 
197 
190 
186 
198 
198 
197 
210 
209 
206 
202 
202 
215 
215 
219 
209 
209 
218 
216 
216 
216 
216 
216 
216 
216 
216 
216 
216 
217 
217 
217 
216 
216 
215 
214 
215 
217 
217 
217 
217 
214 
214 
214 
214 
214 
214 
214 
214 
214 
213 
212 
213 
214 
214 
213 
212 
211 
210 
208 
208 
208 
208 
208 
208 
206 
209 
211 
210 
208 
206 
207 
208 
210 
209 
207 
205 
204 
205 
203 
200 
194 
186 
187 
186 
190 
202 
204 
203 
203 
212 
216 
216 
217 
216 
216 
218 
217 
217 
217 
217 
216 
216 
216 
216 
216 
216 
216 
216 
217 
217 
217 
217 
217 
217 
217 
217 
216 
216 
214 
214 
214 
214 
214 
214 
214 
214 
214 
213 
212 
213 
214 
214 
213 
212 
211 
210 
209 
208 
208 
208 
208 
208 
207 
208 
210 
210 
209 
208 
209 
209 
210 
211 
211 
209 
208 
207 
203 
199 
191 
185 
189 
190 
193 
202 
202 
201 
204 
212 
216 
216 
217 
216 
215 
218 
217 
217 
217 
216 
216 
216 
216 
216 
216 
216 
216 
216 
216 
217 
217 
217 
217 
217 
217 
216 
216 
216 
214 
214 
214 
214 
214 
214 
214 
214 
214 
213 
212 
213 
214 
214 
213 
212 
211 
210 
209 
208 
208 
208 
208 
207 
206 
207 
208 
210 
211 
211 
211 
211 
209 
211 
212 
211 
210 
209 
205 
201 
194 
190 
195 
194 
195 
203 
202 
201 
205 
213 
216 
216 
217 
216 
215 
217 
217 
217 
216 
216 
216 
216 
216 
216 
216 
216 
216 
216 
216 
216 
216 
216 
217 
217 
216 
216 
216 
216 
214 
214 
214 
214 
214 
214 
214 
214 
214 
213 
212 
213 
214 
214 
213 
212 
211 
210 
209 
209 
209 
209 
208 
207 
206 
206 
207 
209 
211 
213 
213 
212 
209 
210 
210 
208 
208 
209 
208 
207 
203 
198 
202 
198 
197 
203 
203 
204 
207 
214 
216 
215 
217 
216 
215 
217 
216 
216 
216 
216 
216 
216 
216 
216 
216 
216 
216 
216 
216 
216 
216 
216 
216 
216 
216 
216 
216 
216 
214 
214 
214 
214 
214 
214 
214 
214 
214 
213 
212 
213 
214 
214 
213 
212 
211 
210 
210 
210 
210 
209 
207 
206 
205 
206 
206 
208 
210 
212 
212 
212 
209 
210 
210 
208 
208 
209 
210 
209 
206 
202 
206 
202 
200 
205 
205 
205 
209 
215 
216 
215 
216 
216 
214 
216 
216 
216 
216 
216 
216 
216 
216 
216 
216 
216 
216 
216 
216 
216 
216 
216 
216 
216 
216 
216 
216 
216 
214 
214 
214 
214 
214 
214 
214 
214 
214 
213 
212 
213 
214 
214 
213 
212 
211 
210 
210 
210 
210 
209 
207 
206 
205 
205 
206 
207 
208 
209 
210 
210 
209 
211 
212 
211 
210 
210 
209 
207 
204 
202 
208 
206 
204 
209 
207 
205 
211 
216 
216 
214 
216 
215 
214 
216 
216 
216 
216 
216 
216 
216 
216 
216 
216 
216 
215 
215 
215 
215 
215 
215 
216 
216 
216 
216 
216 
216 
214 
214 
214 
214 
214 
214 
214 
214 
214 
213 
212 
213 
214 
214 
213 
212 
210 
210 
211 
211 
211 
209 
207 
205 
204 
205 
206 
206 
205 
205 
207 
208 
210 
212 
212 
210 
208 
209 
209 
208 
206 
203 
208 
207 
206 
211 
209 
207 
212 
217 
216 
214 
216 
215 
214 
215 
215 
216 
216 
216 
216 
216 
216 
216 
216 
215 
215 
215 
215 
215 
215 
215 
215 
216 
216 
216 
216 
216 
214 
214 
214 
214 
214 
214 
214 
214 
214 
213 
212 
213 
214 
214 
213 
212 
210 
210 
211 
211 
211 
209 
207 
205 
203 
205 
206 
205 
203 
203 
205 
207 
210 
210 
209 
205 
204 
207 
210 
211 
211 
206 
209 
206 
206 
212 
212 
211 
213 
217 
216 
214 
215 
215 
214 
215 
215 
215 
216 
216 
216 
216 
216 
216 
216 
215 
215 
215 
215 
215 
215 
215 
215 
215 
216 
216 
216 
216 
214 
214 
214 
214 
214 
214 
214 
214 
214 
214 
214 
214 
214 
214 
214 
214 
215 
214 
212 
211 
210 
210 
208 
208 
206 
205 
203 
203 
204 
206 
207 
207 
209 
208 
207 
208 
208 
209 
208 
208 
208 
209 
210 
209 
208 
208 
209 
210 
213 
214 
215 
216 
216 
216 
215 
214 
215 
215 
215 
215 
215 
215 
215 
215 
215 
215 
216 
216 
216 
216 
215 
215 
216 
216 
215 
215 
215 
215 
214 
214 
214 
214 
214 
214 
214 
214 
214 
214 
214 
214 
214 
214 
214 
214 
215 
214 
212 
211 
211 
210 
209 
208 
206 
205 
203 
202 
203 
204 
205 
205 
207 
206 
206 
206 
208 
209 
210 
210 
209 
210 
210 
209 
209 
208 
209 
211 
213 
214 
215 
215 
216 
216 
215 
215 
215 
215 
215 
215 
215 
215 
215 
215 
215 
215 
216 
216 
216 
216 
215 
215 
216 
216 
215 
215 
215 
215 
214 
214 
214 
214 
214 
214 
214 
214 
214 
214 
214 
214 
214 
214 
214 
214 
215 
214 
212 
211 
211 
211 
210 
209 
208 
206 
204 
203 
203 
204 
205 
205 
207 
206 
206 
206 
208 
210 
211 
212 
211 
211 
211 
210 
209 
209 
211 
212 
214 
214 
215 
215 
216 
215 
215 
215 
215 
215 
215 
215 
215 
215 
215 
215 
215 
215 
215 
216 
216 
215 
215 
215 
215 
215 
215 
215 
215 
215 
214 
214 
214 
214 
214 
214 
214 
214 
214 
214 
214 
214 
214 
214 
214 
214 
215 
214 
212 
212 
212 
211 
211 
210 
211 
209 
206 
205 
205 
206 
207 
207 
207 
207 
206 
207 
209 
211 
212 
212 
213 
212 
211 
210 
210 
211 
212 
213 
214 
214 
215 
215 
215 
215 
215 
215 
215 
215 
215 
215 
215 
215 
215 
215 
215 
215 
215 
215 
215 
215 
215 
214 
215 
215 
215 
215 
215 
215 
214 
214 
214 
214 
214 
214 
214 
214 
214 
214 
214 
214 
214 
214 
214 
214 
214 
214 
213 
212 
212 
212 
212 
212 
212 
210 
207 
205 
205 
205 
205 
205 
204 
204 
205 
207 
209 
211 
212 
212 
213 
213 
212 
211 
212 
213 
214 
214 
215 
215 
215 
215 
215 
215 
215 
215 
215 
215 
215 
215 
215 
215 
215 
215 
215 
215 
215 
214 
214 
214 
214 
214 
214 
215 
215 
215 
215 
215 
214 
214 
214 
214 
214 
214 
214 
214 
214 
214 
214 
214 
214 
214 
214 
214 
214 
213 
213 
213 
213 
213 
213 
213 
213 
211 
208 
205 
204 
203 
202 
201 
201 
201 
202 
204 
207 
210 
211 
212 
213 
212 
211 
212 
213 
214 
215 
215 
215 
215 
215 
215 
215 
215 
215 
215 
215 
215 
215 
215 
215 
215 
215 
215 
215 
215 
214 
214 
214 
214 
214 
214 
214 
214 
215 
215 
215 
215 
214 
214 
214 
214 
214 
214 
214 
214 
214 
214 
214 
214 
214 
214 
214 
214 
214 
213 
213 
213 
214 
214 
214 
214 
214 
212 
210 
208 
207 
206 
205 
204 
203 
202 
202 
203 
205 
208 
211 
212 
212 
211 
211 
212 
214 
216 
216 
216 
216 
215 
215 
215 
215 
215 
215 
215 
215 
215 
215 
215 
215 
215 
215 
215 
215 
215 
214 
213 
213 
213 
213 
214 
213 
214 
215 
215 
215 
215 
214 
214 
214 
214 
214 
214 
214 
214 
214 
214 
214 
214 
214 
214 
214 
214 
214 
213 
213 
213 
214 
214 
214 
214 
215 
214 
213 
213 
212 
211 
210 
209 
209 
206 
204 
203 
205 
207 
210 
211 
211 
211 
211 
212 
215 
216 
216 
216 
216 
216 
215 
215 
215 
215 
215 
216 
215 
215 
215 
215 
215 
215 
215 
215 
215 
215 
214 
213 
213 
213 
213 
213 
213 
214 
214 
215 
216 
215 
211 
212 
214 
214 
214 
214 
214 
214 
214 
214 
214 
214 
214 
214 
214 
214 
214 
214 
214 
214 
214 
214 
213 
213 
212 
213 
213 
214 
214 
214 
214 
214 
214 
213 
213 
212 
211 
211 
211 
211 
211 
213 
214 
215 
215 
215 
215 
216 
215 
215 
215 
215 
215 
215 
215 
215 
215 
215 
215 
215 
215 
215 
215 
215 
215 
215 
214 
214 
214 
214 
214 
214 
214 
213 
213 
213 
213 
213 
211 
212 
214 
214 
214 
214 
214 
214 
214 
214 
214 
214 
214 
214 
214 
214 
214 
214 
214 
214 
214 
214 
213 
213 
212 
213 
213 
214 
214 
214 
214 
214 
214 
213 
213 
213 
212 
212 
212 
213 
212 
213 
215 
215 
215 
215 
215 
215 
215 
215 
215 
215 
215 
215 
215 
215 
215 
215 
215 
215 
215 
215 
215 
215 
215 
215 
214 
214 
214 
214 
214 
214 
214 
213 
213 
213 
213 
213 
211 
212 
214 
214 
214 
214 
214 
214 
214 
214 
214 
214 
214 
214 
214 
214 
214 
214 
214 
214 
214 
214 
213 
213 
212 
213 
213 
214 
214 
214 
214 
214 
214 
214 
214 
213 
214 
214 
214 
214 
213 
214 
215 
215 
215 
214 
214 
214 
215 
215 
215 
215 
215 
215 
215 
215 
215 
215 
215 
215 
215 
215 
215 
215 
215 
215 
214 
214 
214 
214 
214 
214 
214 
213 
213 
213 
213 
213 
211 
212 
214 
214 
214 
214 
214 
214 
214 
214 
214 
214 
214 
214 
214 
214 
214 
214 
214 
214 
214 
214 
213 
213 
212 
213 
213 
214 
214 
214 
214 
214 
215 
214 
214 
214 
214 
214 
214 
214 
213 
214 
215 
215 
215 
215 
215 
215 
215 
215 
215 
215 
215 
215 
215 
215 
215 
215 
215 
215 
215 
215 
215 
215 
215 
215 
214 
214 
214 
214 
214 
214 
214 
213 
213 
213 
213 
213 
211 
212 
214 
214 
214 
214 
214 
214 
214 
214 
214 
214 
214 
214 
214 
214 
214 
214 
214 
214 
214 
214 
213 
213 
212 
213 
213 
214 
214 
214 
214 
214 
215 
215 
214 
214 
213 
213 
213 
214 
213 
214 
215 
215 
215 
215 
215 
215 
215 
215 
215 
215 
215 
215 
215 
215 
215 
215 
215 
215 
215 
215 
215 
215 
215 
215 
214 
214 
214 
214 
214 
214 
214 
213 
213 
213 
213 
213 
211 
212 
214 
214 
214 
214 
214 
214 
214 
214 
214 
214 
214 
214 
214 
214 
214 
214 
214 
214 
214 
214 
213 
213 
212 
213 
213 
214 
214 
214 
214 
214 
215 
214 
214 
213 
213 
213 
213 
213 
213 
214 
215 
216 
215 
215 
215 
216 
215 
215 
215 
215 
215 
215 
215 
215 
215 
215 
215 
215 
215 
215 
215 
215 
215 
215 
214 
214 
214 
214 
214 
214 
214 
213 
213 
213 
213 
213 
211 
212 
214 
214 
214 
214 
214 
214 
214 
214 
214 
214 
214 
214 
214 
214 
214 
214 
214 
214 
214 
214 
213 
213 
212 
213 
213 
214 
214 
214 
214 
214 
214 
214 
214 
213 
213 
214 
214 
214 
213 
214 
215 
216 
215 
215 
215 
215 
215 
215 
215 
215 
215 
215 
215 
215 
215 
215 
215 
215 
215 
215 
215 
215 
215 
215 
214 
214 
214 
214 
214 
214 
214 
213 
213 
213 
213 
213 
