P2
# Created by MsrVolt
85 73
255
215 
215 
215 
215 
215 
215 
215 
215 
215 
215 
215 
215 
215 
215 
215 
215 
215 
215 
215 
215 
215 
215 
215 
215 
215 
215 
215 
215 
215 
215 
215 
215 
215 
215 
216 
216 
216 
216 
216 
215 
216 
216 
217 
217 
217 
217 
217 
217 
217 
217 
217 
217 
217 
217 
217 
217 
216 
216 
217 
217 
218 
218 
218 
218 
218 
219 
219 
219 
219 
219 
219 
219 
219 
219 
219 
219 
219 
219 
219 
219 
219 
219 
219 
219 
219 
215 
215 
215 
215 
215 
215 
215 
215 
215 
215 
215 
215 
215 
215 
215 
215 
215 
215 
215 
215 
215 
215 
215 
215 
215 
215 
215 
215 
215 
215 
215 
215 
215 
215 
216 
216 
216 
216 
216 
215 
216 
216 
217 
217 
217 
217 
217 
217 
217 
217 
217 
217 
217 
217 
217 
217 
216 
217 
217 
218 
218 
218 
218 
218 
218 
219 
219 
219 
219 
219 
219 
219 
219 
219 
219 
219 
219 
219 
219 
219 
219 
219 
219 
219 
219 
215 
215 
215 
215 
215 
215 
215 
215 
215 
215 
215 
215 
215 
215 
215 
215 
215 
215 
215 
215 
215 
215 
215 
215 
215 
215 
215 
215 
215 
215 
215 
215 
215 
215 
216 
216 
216 
216 
216 
216 
216 
216 
217 
217 
217 
217 
217 
217 
217 
217 
217 
217 
217 
217 
217 
217 
217 
217 
217 
218 
218 
218 
218 
218 
218 
218 
219 
219 
219 
219 
219 
219 
219 
219 
219 
219 
219 
219 
219 
219 
219 
219 
219 
219 
219 
215 
215 
215 
215 
215 
215 
215 
215 
215 
215 
215 
215 
215 
215 
215 
215 
215 
215 
215 
215 
215 
215 
215 
215 
215 
215 
215 
215 
215 
215 
215 
215 
215 
215 
215 
215 
216 
216 
216 
216 
216 
216 
217 
217 
217 
217 
217 
217 
217 
217 
217 
217 
217 
217 
217 
217 
217 
217 
217 
218 
218 
218 
218 
218 
218 
218 
219 
219 
219 
219 
218 
218 
218 
218 
218 
218 
219 
219 
219 
219 
219 
219 
219 
219 
219 
215 
215 
215 
215 
215 
215 
215 
215 
215 
215 
215 
215 
215 
215 
215 
215 
215 
215 
215 
215 
215 
215 
215 
215 
215 
215 
215 
215 
215 
215 
215 
215 
215 
215 
215 
215 
215 
215 
216 
216 
216 
216 
217 
217 
217 
217 
217 
217 
217 
217 
217 
217 
217 
217 
217 
217 
217 
217 
218 
218 
218 
218 
218 
218 
218 
218 
218 
219 
219 
218 
218 
218 
217 
218 
218 
218 
218 
219 
219 
219 
219 
219 
219 
219 
219 
215 
215 
215 
215 
215 
215 
215 
215 
215 
215 
215 
215 
215 
215 
215 
215 
215 
215 
215 
215 
215 
215 
215 
215 
215 
215 
215 
215 
215 
215 
215 
215 
215 
215 
215 
215 
215 
215 
216 
216 
216 
216 
217 
217 
217 
217 
217 
217 
217 
217 
217 
217 
217 
217 
217 
217 
217 
218 
218 
218 
218 
218 
218 
218 
218 
218 
218 
218 
218 
218 
218 
217 
217 
217 
217 
218 
218 
219 
219 
219 
219 
219 
219 
219 
219 
215 
215 
215 
215 
215 
215 
215 
215 
215 
215 
215 
215 
215 
215 
215 
215 
215 
215 
215 
215 
215 
215 
215 
215 
215 
215 
215 
215 
215 
215 
215 
215 
215 
215 
215 
214 
215 
215 
216 
216 
216 
216 
217 
217 
217 
217 
217 
217 
217 
217 
217 
217 
217 
217 
217 
217 
218 
218 
218 
218 
218 
218 
218 
218 
218 
218 
218 
218 
218 
218 
217 
217 
216 
216 
217 
217 
218 
219 
219 
219 
219 
219 
219 
219 
219 
215 
215 
215 
215 
215 
215 
215 
215 
215 
215 
215 
215 
215 
215 
215 
215 
215 
215 
215 
215 
215 
215 
215 
215 
215 
215 
215 
215 
215 
215 
215 
215 
215 
215 
215 
214 
214 
215 
216 
216 
216 
216 
217 
217 
217 
217 
217 
217 
217 
217 
217 
217 
217 
217 
217 
217 
218 
218 
218 
218 
218 
218 
218 
218 
218 
218 
218 
218 
218 
218 
217 
217 
216 
216 
217 
217 
218 
219 
219 
219 
219 
219 
219 
219 
219 
215 
215 
215 
215 
215 
215 
215 
215 
214 
215 
215 
215 
215 
215 
215 
216 
216 
214 
215 
217 
217 
214 
214 
215 
215 
213 
213 
217 
218 
217 
215 
216 
216 
214 
213 
214 
214 
213 
215 
218 
218 
217 
214 
219 
213 
221 
219 
216 
215 
216 
218 
218 
217 
216 
217 
218 
218 
218 
218 
218 
218 
218 
218 
218 
218 
218 
218 
218 
218 
218 
218 
218 
219 
219 
219 
219 
219 
219 
218 
218 
218 
218 
218 
218 
218 
215 
215 
215 
215 
215 
215 
215 
215 
215 
215 
215 
215 
214 
213 
214 
214 
216 
214 
213 
215 
215 
215 
216 
218 
213 
213 
212 
211 
213 
217 
219 
217 
217 
215 
214 
217 
217 
216 
215 
215 
213 
215 
217 
218 
213 
216 
218 
218 
215 
215 
216 
217 
217 
217 
218 
218 
217 
218 
218 
218 
218 
218 
218 
219 
218 
218 
219 
219 
219 
218 
218 
218 
219 
219 
219 
219 
219 
219 
218 
218 
218 
218 
218 
218 
218 
215 
215 
215 
215 
215 
215 
215 
215 
215 
215 
215 
215 
214 
214 
214 
215 
215 
213 
213 
215 
215 
215 
216 
218 
219 
215 
215 
219 
220 
217 
215 
216 
215 
215 
215 
216 
215 
214 
215 
216 
216 
218 
221 
217 
217 
215 
217 
216 
215 
215 
215 
216 
217 
218 
218 
217 
217 
217 
217 
218 
218 
218 
219 
219 
218 
218 
219 
219 
219 
219 
218 
218 
219 
219 
219 
219 
219 
219 
218 
218 
218 
218 
218 
218 
218 
215 
215 
215 
215 
215 
215 
214 
214 
214 
215 
215 
215 
215 
215 
216 
217 
212 
213 
215 
217 
218 
217 
216 
215 
213 
211 
211 
214 
216 
216 
216 
216 
217 
218 
219 
218 
215 
215 
218 
222 
219 
218 
219 
212 
220 
216 
218 
215 
216 
215 
214 
215 
216 
217 
217 
216 
216 
216 
216 
217 
218 
218 
218 
218 
218 
218 
217 
217 
218 
218 
219 
219 
219 
219 
219 
219 
219 
219 
218 
218 
218 
218 
218 
218 
218 
215 
215 
215 
214 
214 
214 
213 
213 
214 
214 
214 
214 
214 
215 
216 
218 
211 
213 
216 
217 
218 
218 
217 
216 
218 
221 
217 
210 
211 
218 
219 
214 
214 
214 
215 
216 
217 
218 
216 
214 
213 
216 
216 
209 
217 
214 
217 
219 
218 
216 
215 
215 
216 
216 
215 
214 
216 
215 
215 
216 
217 
218 
218 
217 
218 
217 
216 
215 
215 
217 
219 
220 
219 
219 
219 
219 
219 
219 
218 
218 
218 
218 
218 
218 
218 
216 
215 
215 
215 
214 
214 
213 
213 
214 
214 
214 
213 
213 
213 
215 
216 
213 
214 
215 
215 
216 
219 
221 
220 
215 
211 
211 
216 
217 
213 
210 
212 
218 
215 
213 
216 
223 
225 
220 
213 
213 
221 
221 
213 
214 
210 
212 
220 
218 
217 
216 
215 
215 
215 
215 
214 
216 
215 
215 
215 
217 
218 
217 
216 
218 
217 
215 
214 
215 
217 
219 
220 
219 
219 
219 
219 
219 
219 
218 
218 
218 
218 
218 
218 
218 
217 
216 
216 
215 
215 
214 
214 
214 
215 
215 
214 
214 
214 
214 
216 
217 
216 
217 
217 
215 
216 
219 
220 
220 
217 
214 
216 
223 
224 
218 
214 
215 
217 
213 
207 
204 
209 
218 
225 
227 
216 
226 
221 
216 
217 
215 
210 
218 
218 
218 
217 
216 
215 
214 
215 
216 
217 
216 
215 
216 
218 
218 
217 
216 
217 
216 
216 
215 
216 
217 
219 
220 
219 
219 
219 
219 
219 
219 
218 
218 
218 
218 
218 
218 
218 
218 
217 
217 
216 
216 
215 
215 
214 
215 
215 
215 
215 
216 
217 
219 
221 
217 
219 
220 
218 
218 
219 
218 
216 
219 
230 
220 
193 
184 
195 
190 
171 
144 
140 
130 
118 
116 
132 
158 
177 
215 
222 
211 
214 
221 
225 
212 
215 
217 
218 
217 
216 
214 
214 
216 
217 
219 
217 
216 
217 
218 
219 
218 
216 
216 
216 
216 
217 
218 
218 
219 
219 
219 
219 
219 
219 
219 
219 
218 
218 
218 
218 
218 
218 
218 
219 
216 
217 
216 
216 
218 
214 
213 
218 
210 
218 
215 
217 
220 
209 
211 
212 
219 
216 
215 
216 
205 
180 
192 
197 
187 
174 
142 
81 
66 
75 
73 
69 
58 
69 
73 
68 
80 
88 
83 
156 
224 
224 
211 
212 
225 
209 
216 
212 
229 
218 
213 
221 
221 
215 
212 
213 
212 
223 
212 
209 
212 
219 
214 
217 
215 
215 
219 
220 
217 
218 
220 
220 
219 
219 
219 
219 
219 
219 
219 
218 
218 
218 
218 
218 
215 
218 
220 
222 
214 
214 
212 
220 
213 
218 
213 
218 
213 
215 
212 
184 
191 
186 
153 
173 
196 
167 
147 
153 
137 
80 
64 
63 
64 
73 
62 
66 
64 
71 
85 
84 
72 
64 
73 
56 
92 
150 
213 
232 
219 
209 
209 
220 
233 
222 
211 
201 
203 
219 
222 
214 
211 
215 
224 
215 
216 
215 
220 
217 
219 
218 
217 
216 
216 
217 
218 
219 
219 
219 
219 
219 
219 
219 
219 
219 
218 
218 
218 
218 
218 
211 
220 
216 
215 
213 
220 
217 
216 
218 
221 
215 
216 
201 
197 
156 
99 
162 
149 
114 
128 
166 
131 
86 
93 
96 
65 
65 
68 
78 
80 
65 
71 
61 
64 
73 
74 
70 
84 
89 
75 
66 
72 
130 
185 
196 
211 
198 
168 
137 
98 
114 
135 
125 
171 
231 
215 
218 
224 
213 
206 
228 
227 
215 
215 
215 
218 
219 
218 
218 
219 
218 
215 
219 
219 
219 
219 
219 
219 
219 
219 
218 
218 
218 
218 
218 
215 
219 
216 
216 
223 
218 
217 
215 
205 
182 
176 
151 
140 
164 
112 
93 
152 
108 
86 
128 
124 
85 
103 
103 
96 
84 
56 
52 
66 
70 
79 
78 
65 
56 
56 
54 
51 
80 
74 
72 
76 
64 
62 
96 
96 
140 
128 
91 
78 
47 
56 
82 
64 
101 
206 
216 
215 
212 
216 
219 
214 
215 
224 
220 
217 
217 
218 
219 
220 
219 
219 
218 
219 
219 
219 
219 
218 
218 
218 
218 
218 
218 
218 
218 
218 
218 
216 
215 
213 
215 
177 
169 
170 
169 
135 
131 
109 
113 
142 
86 
96 
145 
101 
97 
103 
105 
99 
82 
92 
111 
96 
60 
61 
78 
81 
78 
63 
70 
71 
67 
63 
54 
61 
71 
70 
70 
82 
63 
71 
58 
72 
66 
56 
67 
71 
71 
71 
71 
68 
131 
195 
211 
219 
217 
225 
227 
215 
215 
223 
224 
219 
217 
217 
217 
217 
219 
224 
218 
218 
218 
218 
218 
218 
218 
218 
218 
218 
218 
218 
218 
216 
222 
214 
207 
213 
174 
146 
120 
108 
114 
132 
142 
147 
153 
128 
146 
156 
124 
114 
129 
107 
111 
127 
121 
162 
145 
111 
78 
60 
76 
71 
65 
66 
73 
56 
55 
68 
58 
102 
88 
59 
64 
55 
62 
78 
63 
52 
54 
55 
59 
78 
68 
77 
65 
88 
161 
177 
180 
178 
209 
223 
214 
213 
219 
221 
220 
220 
221 
220 
218 
217 
218 
218 
218 
218 
218 
218 
218 
218 
218 
218 
218 
218 
218 
218 
193 
202 
182 
189 
204 
182 
135 
90 
108 
96 
89 
111 
131 
143 
141 
125 
124 
101 
133 
185 
143 
111 
108 
138 
172 
167 
143 
112 
67 
81 
76 
65 
66 
67 
50 
68 
110 
132 
169 
154 
82 
71 
75 
60 
77 
75 
67 
76 
81 
63 
78 
71 
67 
60 
92 
127 
117 
93 
129 
185 
159 
171 
221 
219 
215 
222 
224 
221 
220 
221 
218 
211 
217 
217 
218 
218 
218 
218 
218 
218 
218 
218 
218 
218 
218 
201 
196 
164 
192 
196 
162 
105 
76 
81 
81 
93 
102 
92 
93 
102 
80 
76 
53 
100 
195 
158 
148 
152 
113 
129 
141 
134 
148 
88 
69 
70 
57 
67 
62 
52 
68 
93 
136 
118 
100 
73 
76 
104 
72 
62 
87 
70 
70 
73 
70 
66 
76 
75 
51 
90 
88 
104 
90 
100 
145 
136 
142 
188 
214 
217 
225 
223 
211 
210 
222 
223 
214 
217 
217 
217 
218 
218 
218 
218 
218 
218 
218 
218 
218 
218 
172 
195 
207 
199 
185 
162 
149 
120 
121 
112 
124 
115 
85 
82 
87 
94 
68 
41 
79 
175 
186 
185 
171 
177 
147 
134 
155 
161 
77 
66 
82 
78 
79 
49 
50 
67 
120 
158 
103 
110 
60 
53 
79 
72 
75 
72 
65 
79 
62 
78 
64 
62 
79 
58 
44 
67 
103 
71 
81 
125 
130 
114 
119 
166 
195 
225 
229 
222 
213 
222 
224 
224 
213 
220 
214 
220 
217 
216 
218 
220 
218 
218 
218 
218 
218 
175 
193 
206 
188 
158 
173 
150 
116 
158 
163 
143 
148 
125 
101 
136 
103 
76 
45 
64 
149 
205 
191 
181 
178 
162 
162 
172 
125 
77 
65 
60 
58 
73 
57 
59 
87 
178 
181 
133 
121 
81 
52 
69 
84 
78 
59 
68 
69 
55 
71 
55 
53 
58 
52 
56 
70 
68 
60 
68 
116 
115 
96 
88 
110 
136 
189 
212 
225 
225 
222 
215 
212 
222 
223 
219 
219 
217 
219 
218 
216 
218 
218 
218 
218 
218 
208 
212 
197 
175 
163 
175 
102 
82 
148 
176 
136 
134 
120 
114 
131 
161 
154 
103 
85 
85 
156 
186 
169 
184 
141 
140 
158 
114 
98 
97 
73 
72 
68 
54 
44 
85 
157 
180 
161 
105 
72 
63 
69 
66 
80 
61 
52 
65 
59 
55 
51 
54 
56 
47 
62 
50 
68 
86 
87 
82 
80 
92 
91 
86 
100 
126 
135 
175 
216 
224 
213 
219 
219 
215 
220 
218 
217 
219 
219 
216 
218 
218 
218 
218 
218 
217 
215 
198 
185 
200 
187 
93 
77 
122 
151 
158 
136 
106 
116 
135 
171 
127 
128 
142 
128 
158 
188 
153 
176 
184 
153 
113 
153 
144 
96 
83 
71 
62 
45 
48 
102 
174 
176 
134 
113 
90 
73 
68 
61 
64 
60 
70 
53 
59 
49 
58 
51 
60 
68 
98 
70 
59 
101 
119 
69 
54 
71 
77 
71 
99 
106 
83 
91 
165 
229 
227 
222 
217 
211 
220 
219 
218 
218 
218 
220 
218 
218 
218 
218 
218 
180 
186 
199 
184 
195 
165 
106 
74 
142 
143 
173 
169 
167 
65 
103 
121 
86 
98 
124 
163 
188 
185 
172 
182 
186 
169 
107 
92 
91 
74 
104 
106 
84 
40 
65 
50 
106 
123 
94 
103 
94 
75 
51 
65 
66 
58 
78 
50 
52 
59 
92 
88 
98 
142 
164 
125 
93 
114 
97 
78 
64 
59 
60 
56 
66 
90 
95 
71 
91 
147 
173 
227 
227 
220 
219 
221 
220 
218 
216 
219 
218 
218 
218 
218 
218 
170 
184 
194 
169 
176 
129 
88 
62 
152 
223 
170 
118 
75 
75 
88 
75 
55 
68 
150 
178 
187 
163 
177 
202 
183 
170 
135 
154 
74 
86 
111 
113 
106 
56 
39 
60 
68 
45 
77 
86 
123 
102 
84 
71 
54 
58 
58 
61 
81 
55 
72 
145 
151 
148 
138 
148 
143 
139 
58 
73 
67 
60 
68 
59 
70 
64 
79 
78 
79 
98 
120 
196 
224 
227 
212 
218 
218 
220 
217 
217 
218 
218 
218 
218 
218 
188 
206 
199 
168 
173 
142 
95 
73 
167 
207 
179 
137 
103 
78 
83 
73 
60 
63 
183 
173 
187 
180 
183 
196 
168 
198 
153 
119 
145 
101 
124 
109 
113 
73 
68 
62 
64 
79 
62 
112 
98 
74 
103 
125 
70 
70 
64 
50 
107 
105 
89 
146 
155 
144 
135 
141 
120 
130 
61 
61 
56 
55 
68 
59 
52 
57 
67 
64 
56 
79 
101 
134 
194 
227 
210 
218 
214 
221 
219 
217 
218 
218 
218 
218 
218 
183 
206 
205 
167 
148 
162 
120 
70 
140 
217 
194 
172 
171 
136 
96 
77 
60 
74 
186 
169 
180 
172 
182 
178 
163 
152 
158 
97 
121 
127 
107 
139 
142 
91 
95 
101 
97 
87 
92 
116 
141 
126 
96 
165 
115 
65 
82 
64 
100 
128 
114 
154 
168 
130 
145 
156 
106 
104 
73 
49 
72 
77 
74 
59 
53 
64 
66 
64 
53 
68 
95 
100 
165 
227 
215 
224 
211 
219 
219 
218 
218 
218 
218 
218 
218 
186 
206 
208 
186 
157 
191 
133 
42 
132 
206 
176 
164 
164 
137 
112 
102 
106 
137 
190 
182 
158 
157 
161 
148 
157 
131 
153 
160 
165 
180 
128 
139 
196 
134 
158 
162 
137 
69 
112 
148 
176 
158 
106 
140 
158 
110 
103 
95 
93 
119 
121 
175 
181 
133 
133 
159 
126 
90 
109 
63 
71 
77 
69 
62 
67 
64 
67 
63 
56 
62 
81 
75 
126 
219 
224 
216 
218 
218 
219 
217 
218 
218 
217 
218 
218 
190 
187 
195 
177 
149 
166 
119 
54 
141 
197 
136 
75 
133 
165 
113 
93 
122 
204 
193 
184 
148 
152 
163 
107 
123 
128 
167 
165 
164 
208 
169 
162 
172 
150 
172 
182 
200 
108 
116 
182 
178 
130 
132 
145 
153 
155 
144 
106 
102 
100 
144 
153 
148 
133 
114 
149 
146 
74 
107 
80 
80 
60 
58 
79 
88 
66 
54 
55 
56 
61 
71 
67 
98 
187 
228 
212 
219 
220 
218 
216 
218 
218 
217 
217 
217 
210 
196 
194 
164 
142 
167 
138 
78 
123 
187 
153 
127 
130 
75 
106 
79 
122 
167 
206 
188 
162 
193 
148 
135 
136 
105 
106 
172 
160 
195 
194 
167 
117 
116 
167 
154 
183 
169 
152 
172 
137 
111 
153 
167 
169 
167 
165 
124 
114 
110 
140 
177 
136 
119 
96 
129 
141 
78 
101 
75 
61 
57 
77 
96 
95 
74 
59 
59 
62 
62 
64 
68 
88 
162 
232 
211 
217 
220 
217 
218 
218 
218 
217 
217 
217 
206 
206 
200 
180 
154 
173 
158 
102 
117 
201 
141 
132 
198 
190 
120 
113 
111 
77 
178 
196 
161 
173 
145 
137 
148 
115 
83 
161 
208 
178 
168 
167 
143 
144 
139 
139 
159 
149 
149 
151 
117 
117 
174 
167 
169 
175 
178 
140 
152 
156 
130 
157 
112 
107 
125 
147 
146 
118 
113 
78 
59 
81 
100 
86 
68 
64 
60 
58 
62 
65 
68 
82 
88 
146 
225 
218 
218 
220 
218 
219 
218 
218 
217 
217 
216 
196 
196 
176 
182 
139 
133 
141 
127 
155 
200 
117 
118 
199 
156 
154 
165 
105 
85 
166 
197 
182 
138 
97 
81 
109 
113 
102 
155 
191 
189 
132 
138 
156 
185 
176 
105 
103 
150 
188 
175 
88 
77 
169 
179 
191 
206 
187 
166 
154 
151 
147 
138 
135 
132 
146 
163 
134 
116 
127 
90 
87 
98 
89 
65 
63 
67 
63 
50 
52 
61 
65 
80 
76 
125 
199 
225 
221 
222 
218 
218 
218 
218 
217 
217 
216 
169 
181 
178 
221 
194 
176 
172 
170 
160 
198 
134 
132 
202 
196 
170 
169 
134 
137 
177 
191 
191 
139 
71 
74 
103 
90 
77 
123 
142 
172 
139 
124 
162 
187 
148 
107 
132 
154 
206 
138 
100 
125 
170 
175 
186 
184 
176 
185 
175 
181 
176 
126 
128 
146 
136 
136 
98 
84 
138 
92 
96 
91 
69 
62 
66 
73 
75 
57 
51 
54 
53 
67 
72 
111 
175 
223 
217 
220 
218 
221 
218 
218 
217 
217 
216 
200 
203 
199 
223 
215 
204 
183 
178 
174 
183 
180 
140 
185 
218 
196 
189 
177 
159 
156 
165 
134 
99 
107 
106 
144 
113 
79 
93 
164 
151 
161 
162 
175 
177 
126 
110 
143 
134 
161 
159 
107 
193 
179 
174 
191 
187 
186 
185 
160 
189 
178 
113 
105 
160 
143 
121 
93 
87 
139 
105 
96 
97 
87 
74 
61 
58 
70 
70 
69 
63 
53 
61 
77 
110 
172 
221 
214 
220 
216 
223 
218 
218 
217 
217 
217 
209 
200 
200 
206 
207 
200 
174 
181 
184 
155 
174 
157 
148 
224 
197 
171 
180 
178 
151 
118 
97 
65 
87 
119 
157 
138 
119 
134 
156 
168 
159 
181 
207 
160 
103 
159 
156 
119 
125 
117 
167 
187 
151 
173 
194 
193 
179 
187 
184 
156 
167 
113 
109 
132 
115 
131 
100 
95 
109 
122 
110 
125 
127 
92 
87 
60 
65 
82 
95 
83 
54 
55 
75 
108 
181 
225 
218 
223 
213 
219 
218 
218 
217 
217 
217 
207 
198 
202 
202 
197 
209 
193 
194 
200 
165 
179 
165 
151 
202 
194 
166 
151 
161 
178 
150 
141 
118 
104 
94 
113 
140 
156 
147 
143 
123 
122 
154 
169 
136 
98 
165 
146 
102 
134 
141 
134 
152 
134 
157 
162 
145 
159 
181 
201 
145 
146 
144 
105 
93 
110 
94 
107 
111 
80 
118 
118 
112 
104 
92 
86 
83 
49 
76 
67 
81 
65 
51 
61 
89 
177 
226 
221 
220 
218 
220 
218 
218 
217 
217 
217 
206 
205 
200 
182 
180 
210 
202 
192 
205 
187 
207 
193 
174 
202 
198 
182 
185 
192 
180 
131 
148 
187 
150 
134 
168 
172 
159 
157 
137 
97 
98 
100 
108 
155 
148 
173 
123 
163 
145 
163 
147 
114 
138 
173 
148 
128 
142 
159 
162 
104 
155 
141 
121 
116 
118 
132 
110 
134 
71 
125 
131 
96 
85 
104 
79 
97 
70 
81 
84 
90 
61 
49 
57 
87 
168 
217 
221 
223 
219 
219 
219 
219 
218 
218 
218 
209 
206 
210 
204 
197 
206 
193 
186 
196 
189 
198 
187 
193 
213 
199 
171 
182 
184 
145 
89 
131 
197 
181 
184 
172 
151 
154 
175 
146 
154 
121 
135 
141 
137 
145 
167 
173 
156 
157 
176 
141 
115 
145 
178 
165 
152 
143 
100 
145 
88 
171 
178 
102 
153 
148 
140 
92 
118 
99 
125 
131 
119 
132 
118 
102 
92 
84 
104 
129 
107 
73 
64 
68 
102 
172 
212 
219 
222 
218 
219 
220 
220 
219 
219 
218 
214 
203 
211 
218 
211 
205 
202 
214 
203 
210 
202 
175 
190 
210 
202 
172 
167 
186 
175 
154 
183 
181 
174 
186 
158 
156 
183 
161 
140 
152 
148 
159 
188 
156 
161 
176 
187 
181 
128 
156 
167 
91 
136 
145 
147 
159 
118 
104 
120 
111 
160 
136 
130 
152 
153 
157 
124 
107 
140 
150 
126 
128 
134 
119 
105 
81 
98 
108 
128 
105 
83 
53 
104 
138 
190 
214 
217 
218 
216 
220 
219 
219 
218 
218 
217 
214 
210 
215 
212 
210 
211 
214 
217 
202 
198 
172 
149 
183 
212 
209 
182 
172 
185 
192 
196 
202 
174 
170 
193 
174 
179 
207 
167 
147 
181 
114 
107 
137 
85 
117 
137 
192 
149 
127 
162 
186 
101 
120 
114 
110 
138 
137 
139 
185 
145 
155 
148 
125 
143 
165 
158 
138 
137 
158 
156 
109 
130 
110 
131 
129 
106 
122 
146 
137 
116 
116 
131 
149 
174 
204 
215 
217 
219 
217 
220 
218 
218 
217 
216 
216 
215 
213 
217 
215 
217 
215 
212 
199 
209 
212 
202 
184 
188 
193 
194 
193 
191 
194 
200 
205 
198 
195 
160 
171 
171 
187 
192 
162 
163 
134 
140 
138 
139 
102 
117 
129 
118 
125 
177 
182 
184 
163 
112 
89 
112 
151 
172 
138 
153 
115 
146 
167 
151 
159 
164 
135 
122 
165 
166 
133 
95 
129 
137 
150 
113 
147 
155 
173 
150 
155 
147 
164 
180 
192 
205 
213 
217 
222 
221 
218 
217 
217 
217 
216 
216 
217 
209 
210 
212 
217 
213 
219 
215 
211 
206 
207 
207 
208 
211 
194 
188 
187 
189 
180 
183 
192 
209 
178 
181 
199 
197 
188 
172 
156 
129 
124 
138 
149 
139 
192 
167 
90 
142 
183 
172 
178 
184 
157 
134 
170 
190 
139 
113 
137 
128 
126 
177 
149 
165 
149 
136 
144 
166 
164 
136 
112 
112 
152 
161 
160 
163 
149 
162 
143 
137 
154 
187 
192 
199 
208 
215 
217 
219 
222 
217 
218 
218 
217 
217 
217 
214 
213 
218 
213 
214 
208 
220 
218 
214 
206 
209 
209 
207 
219 
197 
183 
190 
196 
172 
173 
196 
194 
187 
190 
180 
193 
197 
171 
169 
174 
195 
198 
170 
186 
184 
118 
77 
142 
187 
163 
177 
182 
161 
126 
122 
137 
109 
103 
156 
147 
149 
191 
191 
133 
134 
116 
147 
157 
147 
146 
131 
128 
155 
180 
170 
149 
155 
163 
154 
129 
173 
186 
194 
203 
215 
222 
215 
213 
220 
217 
219 
219 
219 
218 
218 
213 
214 
214 
213 
215 
217 
218 
217 
213 
209 
208 
210 
211 
208 
207 
209 
212 
204 
184 
196 
197 
181 
176 
193 
176 
194 
204 
205 
189 
181 
192 
188 
181 
178 
198 
154 
100 
121 
158 
177 
186 
167 
119 
85 
104 
153 
143 
115 
128 
114 
127 
139 
158 
144 
132 
107 
131 
151 
148 
151 
134 
112 
155 
169 
161 
174 
148 
164 
184 
127 
160 
181 
192 
204 
216 
220 
218 
217 
217 
218 
219 
219 
219 
219 
219 
213 
214 
214 
214 
215 
217 
217 
215 
216 
215 
215 
216 
214 
213 
214 
216 
221 
205 
210 
207 
204 
199 
166 
190 
194 
196 
201 
194 
176 
162 
170 
193 
195 
177 
189 
188 
175 
180 
188 
197 
197 
178 
164 
123 
93 
116 
125 
92 
132 
162 
133 
106 
125 
145 
125 
122 
158 
166 
136 
146 
141 
143 
150 
152 
151 
181 
172 
189 
164 
145 
155 
186 
200 
208 
217 
219 
218 
217 
218 
219 
219 
219 
219 
219 
219 
213 
215 
215 
214 
215 
216 
215 
212 
214 
217 
218 
216 
214 
214 
216 
217 
219 
207 
224 
218 
213 
214 
176 
197 
206 
202 
209 
197 
180 
171 
178 
213 
212 
197 
195 
207 
206 
185 
175 
188 
186 
180 
186 
180 
101 
100 
93 
83 
123 
161 
122 
115 
129 
142 
112 
144 
143 
145 
137 
131 
152 
131 
130 
133 
153 
191 
193 
175 
177 
173 
161 
198 
210 
215 
218 
218 
217 
218 
219 
220 
219 
219 
219 
219 
219 
214 
215 
215 
214 
214 
215 
214 
212 
211 
215 
216 
213 
212 
214 
215 
215 
211 
216 
216 
221 
217 
213 
202 
207 
215 
210 
208 
188 
169 
172 
187 
205 
180 
211 
205 
194 
197 
190 
185 
186 
174 
177 
178 
205 
175 
178 
132 
111 
135 
166 
134 
117 
124 
147 
125 
128 
136 
155 
147 
142 
161 
168 
140 
141 
159 
192 
193 
176 
187 
207 
182 
208 
217 
219 
219 
218 
217 
219 
220 
220 
219 
219 
219 
219 
219 
214 
215 
214 
213 
213 
215 
215 
214 
213 
215 
215 
213 
213 
217 
217 
214 
210 
221 
210 
218 
214 
210 
215 
213 
207 
207 
212 
212 
197 
203 
220 
209 
194 
201 
190 
208 
220 
188 
173 
185 
176 
188 
196 
187 
200 
203 
163 
115 
113 
144 
142 
118 
138 
163 
162 
145 
159 
147 
139 
152 
172 
162 
135 
167 
169 
172 
208 
188 
202 
204 
219 
205 
219 
220 
219 
218 
218 
219 
220 
219 
219 
219 
219 
219 
219 
214 
215 
214 
212 
213 
216 
216 
215 
216 
216 
215 
214 
215 
217 
217 
215 
213 
216 
214 
216 
210 
216 
215 
216 
214 
211 
215 
227 
215 
207 
215 
194 
191 
196 
186 
201 
224 
217 
202 
191 
183 
193 
213 
196 
184 
191 
189 
161 
113 
145 
168 
153 
165 
144 
150 
164 
178 
182 
184 
157 
181 
185 
173 
174 
183 
190 
193 
206 
197 
214 
220 
212 
218 
219 
220 
218 
219 
220 
220 
218 
219 
219 
219 
219 
219 
214 
215 
214 
214 
214 
216 
216 
215 
215 
214 
214 
215 
215 
214 
215 
216 
215 
213 
215 
216 
210 
219 
214 
216 
219 
212 
209 
212 
212 
211 
216 
216 
211 
200 
197 
212 
220 
215 
213 
211 
214 
199 
207 
211 
185 
189 
190 
182 
144 
170 
188 
174 
174 
153 
162 
181 
184 
184 
177 
178 
181 
200 
177 
175 
204 
208 
195 
197 
212 
214 
219 
219 
217 
219 
220 
219 
218 
219 
219 
218 
219 
219 
219 
219 
219 
214 
215 
215 
215 
216 
217 
216 
214 
215 
214 
215 
217 
215 
212 
213 
218 
217 
218 
213 
218 
210 
213 
215 
211 
211 
215 
217 
209 
216 
217 
202 
211 
216 
203 
208 
215 
207 
205 
211 
212 
214 
196 
211 
212 
208 
200 
204 
200 
184 
174 
179 
193 
197 
191 
188 
189 
188 
187 
205 
203 
199 
193 
199 
214 
212 
210 
205 
212 
213 
216 
222 
219 
218 
220 
220 
219 
218 
219 
219 
219 
219 
219 
219 
219 
219 
215 
215 
215 
215 
215 
215 
215 
215 
215 
215 
215 
215 
215 
215 
215 
215 
217 
217 
216 
214 
212 
212 
215 
217 
216 
217 
219 
218 
215 
211 
209 
208 
218 
216 
218 
216 
213 
218 
217 
205 
206 
202 
206 
213 
214 
211 
209 
206 
204 
198 
201 
210 
210 
203 
194 
185 
180 
187 
197 
202 
202 
200 
204 
209 
209 
214 
218 
216 
215 
219 
221 
220 
221 
220 
220 
219 
219 
219 
219 
220 
219 
219 
219 
219 
219 
215 
215 
215 
215 
215 
215 
215 
215 
215 
215 
215 
215 
215 
215 
215 
215 
216 
217 
216 
214 
213 
213 
215 
217 
213 
215 
217 
217 
216 
214 
213 
213 
215 
210 
210 
216 
218 
219 
219 
217 
215 
211 
211 
210 
209 
212 
213 
210 
216 
209 
207 
206 
200 
196 
198 
199 
192 
192 
195 
201 
205 
205 
203 
202 
205 
213 
219 
218 
216 
219 
222 
222 
221 
220 
220 
219 
219 
219 
219 
219 
219 
219 
219 
219 
219 
215 
215 
215 
215 
215 
215 
215 
215 
215 
215 
215 
215 
215 
215 
215 
215 
215 
216 
216 
215 
213 
213 
215 
216 
212 
213 
215 
216 
216 
216 
216 
217 
221 
214 
212 
217 
214 
201 
199 
211 
218 
216 
215 
211 
209 
214 
216 
210 
213 
211 
211 
207 
197 
192 
198 
204 
195 
199 
206 
211 
211 
207 
204 
203 
209 
217 
222 
221 
217 
217 
218 
219 
221 
220 
220 
219 
219 
219 
219 
219 
219 
219 
219 
218 
218 
215 
215 
215 
215 
215 
215 
215 
215 
215 
215 
215 
215 
215 
215 
215 
215 
215 
216 
216 
215 
214 
214 
215 
215 
214 
214 
215 
215 
216 
216 
216 
217 
223 
221 
219 
219 
207 
185 
183 
203 
211 
212 
215 
216 
215 
216 
214 
207 
205 
207 
212 
212 
202 
198 
203 
208 
202 
205 
211 
214 
213 
210 
210 
212 
215 
220 
223 
222 
219 
218 
218 
217 
220 
220 
220 
220 
219 
219 
219 
219 
218 
218 
218 
218 
218 
215 
215 
215 
215 
215 
215 
215 
215 
215 
215 
215 
215 
215 
215 
215 
215 
215 
215 
216 
215 
215 
215 
215 
215 
216 
216 
215 
215 
215 
216 
216 
216 
215 
218 
218 
219 
212 
197 
195 
211 
210 
208 
213 
219 
217 
214 
213 
210 
210 
210 
213 
214 
210 
211 
217 
219 
217 
210 
205 
206 
212 
216 
218 
219 
218 
219 
220 
220 
220 
221 
221 
220 
220 
220 
220 
220 
219 
219 
219 
219 
218 
218 
218 
218 
218 
215 
215 
215 
215 
215 
215 
215 
215 
215 
215 
215 
215 
215 
215 
215 
215 
215 
215 
215 
215 
215 
215 
215 
215 
216 
215 
214 
214 
215 
216 
216 
216 
213 
213 
214 
217 
219 
215 
213 
217 
218 
212 
213 
216 
214 
212 
215 
216 
215 
214 
217 
220 
219 
221 
223 
222 
219 
216 
214 
215 
217 
218 
220 
222 
222 
220 
219 
218 
220 
221 
221 
219 
220 
220 
220 
220 
220 
219 
219 
218 
217 
217 
217 
218 
218 
215 
215 
215 
215 
215 
215 
215 
215 
215 
215 
215 
215 
215 
215 
215 
215 
216 
215 
215 
214 
215 
215 
215 
215 
215 
214 
213 
214 
215 
216 
216 
216 
217 
214 
215 
218 
218 
218 
218 
215 
221 
217 
217 
216 
213 
214 
218 
218 
215 
215 
220 
223 
220 
220 
221 
219 
216 
219 
223 
224 
220 
216 
217 
221 
223 
221 
219 
218 
219 
219 
218 
218 
220 
220 
220 
220 
220 
219 
219 
218 
217 
217 
217 
217 
217 
215 
215 
215 
215 
215 
215 
215 
215 
215 
215 
215 
215 
215 
215 
215 
215 
216 
215 
214 
214 
215 
215 
215 
215 
215 
214 
213 
214 
215 
216 
216 
215 
216 
214 
218 
221 
214 
214 
219 
219 
217 
219 
221 
219 
215 
218 
219 
214 
217 
218 
221 
220 
214 
215 
220 
221 
223 
219 
215 
215 
215 
216 
217 
218 
218 
217 
217 
218 
218 
218 
219 
221 
219 
220 
220 
220 
220 
219 
219 
218 
217 
217 
217 
217 
217 
214 
214 
215 
215 
215 
215 
215 
215 
215 
215 
215 
215 
215 
215 
215 
215 
215 
215 
215 
215 
215 
215 
215 
215 
216 
216 
216 
216 
216 
216 
216 
216 
217 
216 
215 
215 
215 
217 
218 
219 
220 
220 
220 
219 
218 
218 
217 
216 
217 
218 
218 
217 
216 
216 
219 
221 
218 
218 
218 
218 
218 
218 
218 
218 
218 
218 
218 
218 
218 
218 
218 
219 
220 
220 
221 
220 
219 
218 
218 
218 
216 
216 
217 
217 
217 
214 
214 
215 
215 
215 
215 
215 
215 
215 
215 
215 
215 
215 
215 
215 
215 
215 
215 
215 
215 
215 
215 
215 
215 
216 
216 
216 
216 
216 
216 
216 
216 
216 
216 
215 
215 
215 
216 
217 
218 
219 
219 
219 
218 
218 
217 
216 
216 
216 
218 
219 
219 
217 
217 
218 
220 
218 
218 
218 
218 
218 
218 
218 
218 
218 
218 
218 
218 
218 
218 
219 
219 
220 
220 
220 
220 
219 
218 
218 
218 
217 
217 
217 
217 
218 
214 
214 
215 
215 
215 
215 
215 
215 
215 
215 
215 
215 
215 
215 
215 
215 
215 
215 
215 
215 
215 
215 
215 
216 
216 
216 
216 
216 
216 
216 
216 
216 
216 
215 
215 
214 
215 
216 
217 
218 
217 
217 
217 
217 
217 
217 
216 
216 
215 
217 
219 
220 
219 
218 
218 
218 
218 
218 
218 
218 
218 
218 
218 
218 
218 
218 
218 
218 
218 
218 
219 
219 
219 
220 
220 
220 
219 
218 
218 
218 
217 
217 
218 
218 
218 
214 
214 
215 
215 
215 
215 
215 
215 
215 
215 
215 
215 
215 
215 
215 
215 
215 
215 
215 
215 
215 
216 
216 
216 
216 
216 
216 
216 
216 
216 
216 
216 
216 
216 
215 
215 
215 
216 
217 
217 
216 
217 
217 
217 
217 
217 
217 
217 
216 
217 
219 
219 
219 
218 
218 
218 
218 
218 
218 
218 
218 
218 
218 
218 
218 
218 
218 
218 
218 
218 
219 
219 
219 
220 
220 
220 
219 
218 
218 
218 
218 
218 
218 
218 
218 
214 
214 
215 
215 
215 
215 
215 
215 
215 
215 
215 
215 
215 
215 
215 
215 
215 
215 
215 
215 
216 
216 
216 
216 
216 
216 
216 
216 
216 
216 
216 
216 
216 
216 
216 
216 
216 
217 
217 
218 
217 
217 
217 
218 
218 
218 
218 
218 
217 
218 
218 
218 
218 
218 
218 
218 
218 
218 
218 
218 
218 
218 
218 
218 
218 
218 
218 
218 
218 
218 
219 
219 
219 
219 
220 
219 
219 
218 
218 
218 
218 
218 
218 
219 
219 
214 
214 
215 
215 
215 
215 
215 
215 
215 
215 
215 
215 
215 
215 
215 
215 
215 
215 
215 
215 
216 
216 
216 
216 
216 
216 
216 
216 
216 
216 
216 
216 
217 
216 
216 
216 
216 
217 
217 
217 
217 
217 
218 
218 
218 
218 
218 
218 
219 
218 
218 
217 
217 
218 
218 
219 
218 
218 
218 
218 
218 
218 
218 
218 
219 
218 
218 
218 
218 
219 
219 
219 
219 
219 
220 
219 
218 
218 
218 
218 
218 
218 
218 
218 
218 
214 
214 
215 
215 
215 
215 
215 
215 
215 
215 
215 
215 
215 
215 
215 
215 
215 
215 
215 
216 
216 
216 
216 
216 
216 
216 
216 
216 
216 
216 
216 
216 
216 
216 
216 
216 
216 
216 
217 
217 
217 
218 
218 
218 
218 
218 
218 
218 
219 
218 
218 
217 
218 
218 
218 
218 
218 
218 
218 
218 
218 
218 
218 
218 
219 
218 
218 
218 
218 
219 
219 
219 
218 
219 
219 
219 
218 
218 
218 
218 
218 
218 
218 
218 
218 
214 
214 
215 
215 
215 
215 
215 
215 
215 
215 
215 
215 
215 
215 
215 
215 
215 
215 
216 
216 
216 
216 
216 
216 
216 
216 
216 
216 
216 
216 
216 
216 
215 
215 
216 
216 
216 
216 
216 
216 
217 
218 
218 
218 
218 
218 
218 
217 
218 
218 
218 
218 
218 
218 
218 
217 
218 
218 
218 
218 
218 
218 
218 
218 
219 
219 
218 
218 
218 
219 
219 
219 
218 
219 
219 
219 
218 
218 
218 
218 
218 
218 
218 
218 
218 
215 
215 
215 
215 
215 
215 
215 
215 
215 
215 
215 
215 
215 
215 
215 
215 
215 
215 
215 
215 
216 
216 
216 
216 
216 
216 
216 
216 
216 
216 
216 
216 
216 
216 
216 
216 
216 
216 
217 
217 
217 
217 
218 
218 
218 
218 
218 
218 
218 
218 
218 
218 
218 
218 
218 
218 
218 
218 
218 
218 
218 
219 
219 
219 
219 
219 
219 
219 
219 
219 
219 
219 
219 
219 
219 
219 
219 
219 
218 
218 
218 
218 
218 
218 
218 
