P2
# Created by MsrVolt
75 73
255
216 
216 
216 
215 
215 
216 
216 
217 
220 
214 
217 
220 
217 
219 
222 
218 
220 
212 
213 
211 
213 
219 
212 
203 
197 
196 
197 
177 
210 
205 
208 
215 
213 
220 
218 
219 
213 
216 
214 
217 
217 
217 
218 
218 
218 
217 
216 
215 
220 
219 
218 
218 
219 
219 
219 
219 
219 
219 
219 
219 
219 
219 
219 
219 
219 
219 
219 
219 
219 
219 
219 
219 
219 
219 
219 
217 
217 
217 
217 
217 
217 
217 
217 
217 
217 
218 
217 
215 
218 
220 
217 
216 
214 
218 
213 
210 
214 
206 
196 
197 
194 
158 
135 
194 
208 
185 
203 
209 
223 
221 
211 
216 
214 
212 
219 
217 
217 
217 
218 
218 
217 
220 
224 
220 
219 
219 
219 
219 
219 
219 
219 
219 
219 
219 
219 
219 
219 
219 
219 
219 
219 
219 
219 
219 
219 
219 
219 
219 
219 
219 
218 
218 
218 
218 
218 
218 
218 
217 
215 
219 
218 
214 
215 
217 
217 
217 
214 
210 
213 
212 
216 
220 
204 
185 
184 
174 
138 
126 
176 
190 
137 
146 
170 
205 
224 
217 
221 
206 
206 
224 
219 
214 
212 
215 
217 
216 
216 
217 
219 
220 
220 
220 
219 
219 
219 
219 
219 
219 
219 
219 
219 
219 
219 
219 
219 
219 
219 
219 
219 
219 
219 
219 
219 
219 
219 
218 
218 
218 
219 
219 
218 
217 
217 
215 
220 
217 
214 
218 
216 
214 
219 
217 
208 
211 
214 
218 
218 
197 
177 
151 
123 
131 
135 
140 
151 
119 
119 
129 
173 
210 
225 
226 
215 
214 
229 
217 
219 
221 
221 
220 
219 
219 
218 
218 
219 
220 
220 
219 
218 
219 
219 
219 
219 
219 
219 
219 
219 
219 
219 
219 
219 
219 
219 
219 
219 
219 
219 
219 
219 
219 
217 
218 
218 
218 
218 
218 
217 
216 
217 
218 
216 
217 
221 
216 
213 
221 
217 
209 
214 
215 
211 
204 
189 
180 
169 
108 
124 
130 
121 
130 
119 
104 
110 
135 
157 
183 
191 
220 
222 
218 
208 
219 
226 
221 
216 
218 
222 
223 
217 
218 
219 
219 
218 
218 
219 
219 
219 
219 
219 
219 
219 
219 
219 
219 
219 
219 
219 
219 
219 
219 
219 
219 
218 
219 
219 
217 
218 
218 
217 
217 
217 
217 
216 
218 
217 
216 
218 
220 
217 
214 
217 
209 
199 
203 
207 
207 
202 
187 
176 
146 
112 
133 
128 
126 
118 
103 
90 
102 
108 
103 
118 
126 
188 
210 
207 
213 
216 
215 
212 
214 
220 
220 
215 
219 
218 
218 
218 
219 
219 
219 
219 
219 
219 
219 
219 
219 
219 
219 
219 
219 
219 
219 
219 
219 
219 
219 
219 
218 
218 
219 
218 
218 
218 
217 
217 
217 
217 
217 
217 
217 
217 
216 
215 
218 
215 
207 
196 
189 
192 
195 
197 
192 
163 
136 
75 
113 
149 
124 
116 
100 
89 
96 
95 
95 
84 
91 
95 
144 
182 
209 
224 
217 
212 
215 
222 
225 
220 
214 
223 
220 
218 
217 
219 
220 
220 
218 
219 
219 
219 
219 
219 
219 
219 
219 
219 
219 
219 
219 
219 
219 
219 
219 
218 
218 
219 
219 
219 
218 
217 
217 
217 
217 
217 
215 
217 
219 
213 
210 
219 
217 
200 
187 
190 
197 
190 
179 
163 
122 
84 
106 
152 
156 
108 
103 
99 
82 
77 
83 
80 
77 
92 
97 
113 
151 
203 
213 
211 
215 
222 
222 
215 
216 
222 
226 
222 
218 
218 
220 
221 
220 
218 
219 
219 
219 
219 
219 
219 
219 
219 
219 
219 
219 
219 
219 
219 
219 
219 
218 
218 
219 
219 
219 
218 
218 
217 
217 
217 
217 
218 
215 
217 
217 
215 
219 
218 
207 
200 
204 
196 
169 
146 
124 
134 
92 
113 
177 
134 
107 
106 
96 
72 
75 
71 
66 
69 
91 
103 
129 
145 
155 
163 
192 
213 
216 
210 
223 
216 
216 
220 
223 
219 
219 
225 
222 
216 
219 
219 
219 
219 
219 
219 
219 
219 
219 
219 
219 
219 
219 
219 
220 
220 
221 
219 
218 
217 
219 
219 
218 
218 
217 
217 
217 
217 
218 
217 
218 
218 
218 
218 
209 
196 
193 
203 
195 
147 
103 
119 
161 
158 
153 
135 
103 
96 
98 
91 
77 
75 
62 
71 
78 
91 
98 
114 
106 
91 
108 
158 
204 
225 
221 
227 
222 
222 
216 
220 
218 
217 
222 
221 
218 
221 
219 
219 
219 
219 
219 
219 
219 
219 
219 
219 
219 
219 
219 
220 
220 
220 
219 
218 
217 
219 
219 
218 
218 
217 
217 
217 
217 
216 
218 
216 
217 
219 
211 
191 
175 
181 
193 
195 
154 
88 
115 
151 
164 
125 
103 
97 
110 
91 
75 
77 
67 
57 
71 
77 
82 
86 
90 
72 
56 
82 
117 
164 
211 
223 
219 
215 
217 
218 
223 
221 
217 
219 
220 
218 
219 
219 
219 
219 
219 
219 
219 
219 
219 
219 
219 
219 
219 
219 
220 
220 
220 
217 
216 
215 
219 
219 
218 
218 
217 
217 
217 
217 
215 
218 
216 
215 
217 
205 
181 
167 
183 
191 
186 
159 
96 
136 
163 
166 
94 
98 
89 
127 
110 
73 
78 
62 
57 
64 
67 
73 
76 
68 
57 
60 
74 
85 
108 
159 
202 
221 
226 
223 
218 
223 
223 
219 
218 
219 
218 
217 
219 
219 
219 
219 
219 
219 
219 
219 
219 
219 
219 
219 
219 
219 
220 
220 
217 
216 
215 
219 
219 
218 
218 
217 
217 
217 
217 
216 
219 
215 
213 
216 
208 
192 
185 
209 
193 
163 
154 
130 
182 
192 
165 
87 
84 
104 
160 
144 
69 
69 
65 
58 
57 
60 
67 
72 
59 
52 
57 
64 
84 
94 
113 
164 
210 
228 
223 
214 
217 
220 
219 
217 
219 
220 
218 
219 
219 
219 
219 
219 
219 
219 
219 
219 
219 
219 
219 
219 
219 
219 
220 
220 
219 
218 
219 
219 
218 
218 
217 
217 
217 
217 
216 
216 
213 
212 
215 
213 
208 
206 
194 
170 
157 
160 
142 
154 
169 
151 
90 
62 
137 
174 
143 
58 
59 
63 
61 
58 
57 
58 
70 
67 
59 
52 
57 
84 
101 
100 
128 
154 
177 
207 
217 
216 
220 
222 
219 
219 
221 
218 
219 
219 
219 
219 
219 
219 
219 
219 
219 
219 
219 
219 
219 
219 
219 
219 
220 
220 
219 
219 
219 
218 
218 
217 
217 
217 
217 
215 
212 
213 
215 
214 
212 
209 
203 
183 
175 
201 
172 
122 
90 
129 
161 
116 
64 
126 
163 
123 
70 
66 
58 
62 
56 
57 
56 
70 
76 
74 
56 
54 
65 
86 
83 
98 
92 
112 
185 
220 
214 
217 
222 
218 
217 
218 
216 
219 
219 
219 
219 
219 
219 
219 
219 
219 
219 
219 
219 
219 
219 
219 
219 
219 
218 
218 
219 
219 
218 
218 
217 
217 
217 
217 
217 
213 
217 
221 
216 
209 
201 
188 
189 
183 
211 
140 
88 
55 
83 
101 
122 
78 
107 
168 
127 
87 
70 
57 
56 
51 
59 
61 
74 
78 
79 
62 
60 
57 
67 
56 
72 
58 
69 
154 
215 
206 
209 
217 
214 
213 
217 
216 
219 
219 
219 
219 
219 
219 
219 
219 
219 
219 
219 
218 
218 
219 
219 
219 
220 
219 
218 
219 
218 
218 
217 
217 
217 
217 
217 
215 
216 
216 
215 
215 
211 
198 
185 
184 
185 
152 
94 
85 
78 
89 
75 
97 
113 
98 
128 
114 
104 
79 
55 
61 
58 
56 
57 
60 
62 
61 
58 
62 
72 
65 
63 
73 
68 
79 
118 
175 
222 
227 
213 
215 
218 
221 
214 
218 
225 
219 
216 
218 
218 
221 
218 
218 
218 
219 
219 
219 
219 
219 
219 
219 
219 
219 
219 
218 
218 
217 
217 
216 
216 
216 
213 
213 
212 
212 
214 
211 
198 
184 
171 
169 
140 
141 
108 
67 
82 
60 
77 
99 
98 
110 
100 
105 
81 
58 
63 
62 
60 
56 
54 
54 
54 
56 
64 
72 
67 
65 
73 
71 
81 
113 
149 
184 
220 
220 
213 
218 
227 
215 
211 
220 
217 
216 
218 
218 
220 
218 
218 
218 
219 
219 
219 
219 
219 
219 
219 
219 
219 
219 
218 
218 
217 
216 
216 
216 
216 
215 
213 
212 
213 
216 
214 
202 
189 
180 
163 
148 
180 
124 
77 
87 
68 
64 
80 
90 
86 
82 
97 
82 
71 
73 
66 
57 
54 
55 
57 
57 
55 
57 
63 
61 
60 
64 
65 
75 
96 
108 
118 
180 
221 
220 
209 
220 
218 
208 
218 
217 
217 
219 
217 
219 
217 
218 
218 
219 
219 
219 
219 
219 
219 
219 
219 
219 
219 
218 
218 
217 
216 
216 
216 
216 
216 
216 
215 
216 
218 
216 
207 
197 
173 
131 
150 
192 
137 
86 
66 
69 
66 
67 
72 
70 
72 
79 
82 
87 
82 
70 
58 
54 
58 
62 
59 
55 
55 
57 
59 
58 
58 
58 
68 
80 
97 
95 
142 
203 
230 
212 
220 
223 
211 
220 
219 
219 
220 
217 
218 
217 
218 
218 
219 
219 
219 
219 
219 
219 
219 
219 
219 
218 
218 
217 
217 
216 
216 
216 
216 
215 
216 
217 
217 
216 
213 
207 
202 
186 
160 
182 
179 
136 
103 
65 
52 
65 
62 
60 
65 
70 
70 
82 
89 
82 
74 
65 
58 
55 
54 
55 
55 
56 
59 
63 
62 
59 
59 
67 
75 
97 
110 
115 
160 
220 
224 
223 
217 
215 
222 
219 
219 
220 
216 
218 
218 
218 
218 
219 
219 
219 
219 
219 
219 
219 
219 
219 
217 
217 
217 
216 
216 
216 
216 
217 
215 
217 
218 
218 
215 
212 
208 
206 
192 
187 
182 
158 
132 
108 
87 
54 
57 
61 
60 
66 
71 
72 
80 
78 
81 
72 
62 
57 
56 
57 
56 
55 
55 
56 
59 
60 
58 
57 
63 
70 
77 
95 
83 
119 
196 
226 
218 
212 
216 
221 
216 
217 
219 
216 
219 
219 
218 
218 
219 
219 
219 
219 
219 
219 
219 
219 
219 
217 
216 
216 
216 
216 
217 
217 
217 
217 
218 
219 
219 
217 
214 
212 
210 
212 
183 
157 
156 
130 
80 
71 
61 
59 
61 
66 
67 
69 
78 
74 
74 
80 
69 
57 
54 
59 
62 
60 
55 
54 
54 
53 
55 
60 
58 
59 
66 
66 
74 
72 
96 
156 
221 
220 
220 
219 
221 
215 
216 
219 
217 
219 
218 
218 
218 
219 
219 
219 
219 
219 
219 
219 
219 
219 
216 
216 
216 
216 
216 
217 
217 
218 
218 
217 
217 
218 
218 
216 
213 
211 
225 
193 
161 
150 
130 
118 
130 
128 
70 
61 
69 
67 
65 
78 
67 
80 
76 
70 
62 
56 
54 
55 
57 
58 
60 
56 
52 
58 
68 
66 
64 
71 
74 
75 
81 
73 
106 
210 
223 
221 
221 
223 
216 
217 
221 
218 
218 
217 
218 
218 
219 
219 
219 
219 
219 
219 
219 
219 
219 
216 
216 
216 
216 
216 
217 
218 
218 
215 
215 
217 
218 
216 
212 
212 
215 
213 
194 
171 
151 
140 
151 
160 
146 
68 
74 
62 
56 
64 
76 
60 
71 
69 
65 
63 
64 
61 
54 
53 
56 
59 
51 
51 
63 
70 
62 
60 
71 
66 
63 
83 
67 
88 
167 
223 
224 
224 
215 
224 
224 
215 
218 
219 
217 
219 
219 
219 
219 
219 
219 
219 
219 
219 
219 
219 
216 
216 
216 
217 
217 
218 
218 
219 
218 
216 
215 
215 
214 
213 
215 
218 
193 
177 
175 
164 
145 
158 
163 
126 
86 
85 
78 
71 
74 
74 
55 
57 
63 
60 
59 
61 
59 
55 
54 
56 
56 
52 
52 
60 
63 
56 
55 
65 
83 
81 
83 
83 
86 
158 
215 
219 
224 
227 
211 
215 
215 
210 
223 
217 
219 
219 
219 
219 
219 
219 
219 
219 
219 
219 
219 
217 
217 
217 
217 
218 
218 
219 
219 
219 
217 
215 
214 
214 
214 
215 
217 
202 
175 
179 
171 
135 
134 
142 
117 
88 
91 
97 
84 
72 
66 
63 
63 
61 
58 
56 
58 
58 
56 
54 
55 
56 
56 
56 
60 
60 
55 
56 
63 
83 
78 
72 
84 
84 
132 
199 
217 
206 
222 
217 
227 
231 
219 
222 
217 
218 
218 
219 
219 
219 
219 
219 
219 
219 
219 
219 
218 
217 
217 
217 
218 
218 
218 
219 
219 
217 
217 
218 
218 
217 
213 
211 
220 
195 
186 
169 
140 
127 
119 
104 
99 
97 
109 
105 
102 
96 
90 
69 
64 
60 
57 
57 
58 
57 
56 
55 
58 
60 
59 
59 
60 
58 
59 
66 
64 
65 
75 
79 
84 
95 
169 
218 
222 
219 
220 
219 
222 
221 
213 
217 
218 
218 
218 
218 
219 
219 
219 
219 
219 
219 
219 
218 
217 
217 
217 
217 
217 
218 
218 
218 
218 
218 
219 
220 
218 
214 
209 
210 
212 
195 
170 
174 
164 
117 
89 
104 
80 
82 
104 
130 
125 
102 
63 
66 
63 
58 
55 
56 
57 
57 
56 
56 
58 
57 
57 
59 
59 
61 
67 
82 
69 
73 
81 
106 
101 
138 
184 
226 
214 
210 
208 
212 
219 
216 
216 
218 
218 
218 
218 
218 
218 
219 
219 
219 
219 
219 
218 
218 
217 
217 
217 
217 
217 
218 
218 
218 
217 
217 
218 
219 
217 
214 
202 
213 
200 
179 
190 
176 
122 
105 
110 
81 
62 
73 
89 
81 
72 
59 
64 
63 
58 
54 
53 
56 
57 
55 
54 
56 
56 
56 
58 
59 
62 
68 
83 
61 
52 
69 
99 
99 
98 
113 
193 
220 
220 
224 
222 
216 
227 
218 
218 
218 
218 
218 
218 
218 
218 
218 
220 
220 
220 
219 
219 
218 
218 
218 
218 
218 
218 
218 
219 
218 
216 
217 
219 
218 
216 
212 
209 
209 
191 
175 
154 
122 
121 
137 
131 
94 
67 
52 
49 
51 
57 
62 
62 
59 
53 
52 
55 
55 
53 
55 
59 
60 
60 
61 
59 
61 
69 
69 
68 
69 
78 
83 
83 
98 
89 
151 
219 
231 
221 
220 
216 
222 
220 
217 
217 
218 
218 
218 
218 
218 
218 
220 
220 
220 
220 
219 
219 
219 
218 
218 
218 
218 
218 
220 
219 
218 
218 
219 
217 
215 
220 
209 
222 
200 
162 
146 
123 
105 
145 
165 
124 
83 
69 
75 
67 
57 
61 
63 
61 
55 
52 
54 
53 
51 
56 
61 
64 
65 
63 
57 
59 
69 
65 
65 
73 
69 
74 
73 
113 
70 
97 
184 
215 
198 
221 
235 
214 
216 
217 
217 
217 
218 
218 
218 
218 
218 
221 
221 
221 
219 
219 
219 
219 
218 
218 
218 
218 
218 
218 
219 
219 
219 
219 
219 
219 
218 
217 
220 
206 
184 
167 
144 
129 
138 
161 
116 
82 
75 
67 
74 
66 
62 
61 
62 
58 
51 
50 
52 
52 
58 
61 
64 
65 
63 
62 
62 
63 
67 
68 
63 
61 
71 
82 
81 
76 
90 
104 
200 
226 
218 
221 
219 
217 
216 
221 
218 
213 
219 
213 
221 
216 
220 
220 
219 
219 
219 
219 
219 
218 
218 
218 
218 
218 
218 
218 
218 
218 
218 
218 
218 
214 
212 
218 
203 
188 
184 
197 
154 
142 
132 
104 
76 
70 
67 
72 
67 
64 
60 
54 
52 
48 
49 
49 
49 
54 
58 
62 
65 
63 
60 
61 
64 
63 
67 
63 
60 
63 
77 
90 
80 
89 
90 
134 
199 
226 
215 
228 
216 
217 
215 
221 
219 
221 
220 
219 
221 
220 
220 
219 
219 
219 
219 
219 
218 
218 
218 
218 
219 
218 
217 
217 
217 
217 
217 
217 
216 
212 
214 
203 
186 
150 
177 
142 
144 
100 
99 
90 
75 
61 
53 
59 
62 
61 
55 
56 
51 
53 
48 
48 
56 
57 
60 
63 
64 
64 
64 
65 
60 
64 
61 
63 
67 
79 
85 
63 
81 
92 
66 
145 
229 
215 
222 
221 
219 
209 
217 
220 
216 
220 
213 
221 
220 
220 
219 
219 
219 
219 
219 
218 
218 
218 
218 
219 
218 
217 
216 
216 
217 
217 
218 
217 
220 
217 
216 
212 
158 
165 
152 
155 
113 
113 
106 
79 
67 
54 
66 
56 
57 
58 
56 
55 
48 
47 
47 
54 
58 
58 
57 
61 
68 
68 
62 
59 
63 
67 
67 
74 
80 
71 
60 
77 
102 
66 
118 
199 
220 
218 
225 
229 
217 
214 
224 
218 
220 
217 
223 
220 
220 
219 
219 
219 
219 
219 
218 
218 
218 
218 
218 
218 
217 
217 
217 
218 
219 
219 
213 
219 
218 
215 
223 
209 
195 
173 
159 
134 
111 
95 
67 
69 
58 
66 
56 
55 
59 
52 
62 
49 
48 
47 
47 
60 
66 
58 
58 
69 
71 
62 
62 
68 
77 
67 
71 
73 
62 
82 
70 
83 
95 
108 
139 
223 
221 
211 
227 
223 
207 
224 
223 
218 
222 
220 
220 
219 
219 
219 
219 
219 
219 
218 
218 
218 
218 
218 
218 
218 
218 
218 
218 
219 
220 
217 
212 
217 
210 
202 
218 
206 
181 
170 
138 
111 
117 
99 
79 
54 
59 
57 
55 
57 
54 
70 
56 
47 
46 
49 
72 
82 
69 
63 
72 
77 
71 
68 
68 
73 
65 
70 
70 
58 
81 
64 
63 
95 
84 
113 
223 
220 
206 
214 
223 
205 
220 
225 
215 
222 
215 
220 
219 
219 
219 
219 
219 
219 
218 
218 
218 
218 
218 
218 
218 
218 
218 
218 
218 
219 
222 
215 
221 
218 
205 
213 
205 
196 
191 
142 
137 
161 
155 
108 
70 
69 
60 
62 
55 
58 
65 
57 
47 
48 
70 
83 
85 
71 
64 
71 
76 
73 
68 
62 
59 
66 
71 
69 
65 
60 
71 
68 
85 
66 
110 
190 
211 
223 
213 
230 
219 
219 
229 
219 
222 
219 
219 
219 
219 
219 
219 
219 
219 
218 
218 
218 
218 
218 
218 
219 
219 
218 
218 
217 
217 
214 
222 
219 
214 
219 
216 
196 
192 
186 
134 
145 
155 
155 
115 
85 
73 
79 
84 
65 
65 
57 
61 
57 
77 
88 
84 
73 
59 
57 
63 
67 
65 
61 
58 
55 
69 
65 
63 
79 
57 
75 
69 
84 
65 
84 
118 
194 
231 
215 
234 
228 
213 
224 
217 
216 
219 
219 
219 
219 
219 
219 
219 
218 
218 
218 
218 
218 
218 
218 
218 
218 
218 
218 
218 
218 
218 
216 
219 
219 
213 
215 
214 
205 
186 
157 
154 
180 
163 
120 
98 
77 
85 
96 
82 
89 
100 
101 
110 
95 
76 
62 
50 
54 
55 
54 
60 
60 
60 
60 
59 
60 
63 
62 
61 
66 
67 
71 
78 
76 
78 
89 
127 
225 
220 
204 
234 
212 
223 
220 
216 
219 
219 
219 
219 
219 
219 
219 
218 
218 
218 
218 
218 
218 
218 
218 
218 
218 
218 
218 
218 
218 
217 
218 
217 
214 
214 
214 
210 
193 
172 
166 
166 
137 
114 
119 
121 
117 
101 
100 
120 
146 
119 
101 
69 
56 
51 
53 
55 
52 
52 
56 
61 
66 
64 
59 
57 
59 
59 
61 
67 
70 
86 
73 
65 
82 
68 
89 
222 
226 
213 
233 
216 
223 
220 
219 
220 
219 
219 
219 
218 
218 
218 
218 
218 
218 
218 
218 
218 
218 
218 
218 
218 
218 
218 
218 
218 
219 
217 
216 
217 
216 
216 
219 
214 
196 
183 
157 
127 
123 
133 
139 
124 
109 
109 
96 
90 
70 
71 
62 
53 
50 
60 
56 
50 
51 
50 
56 
66 
64 
58 
55 
56 
56 
58 
64 
70 
60 
66 
69 
65 
76 
109 
205 
230 
221 
227 
219 
220 
219 
220 
218 
219 
219 
219 
218 
218 
218 
218 
218 
218 
218 
218 
218 
218 
218 
218 
218 
218 
218 
218 
217 
219 
217 
216 
220 
218 
217 
224 
225 
204 
186 
152 
134 
141 
131 
116 
103 
89 
84 
77 
67 
83 
80 
75 
66 
55 
63 
53 
49 
54 
48 
50 
56 
57 
55 
54 
57 
56 
56 
59 
63 
61 
62 
60 
67 
85 
96 
175 
229 
225 
222 
222 
219 
218 
221 
217 
219 
219 
219 
218 
218 
218 
218 
218 
218 
218 
218 
218 
218 
218 
218 
218 
218 
218 
218 
216 
220 
217 
216 
220 
218 
215 
221 
224 
210 
193 
158 
144 
154 
142 
124 
121 
124 
137 
125 
86 
82 
74 
81 
68 
55 
60 
51 
49 
55 
48 
50 
48 
52 
53 
54 
57 
57 
55 
56 
56 
65 
59 
57 
71 
78 
65 
152 
226 
226 
220 
224 
220 
221 
224 
218 
219 
219 
219 
218 
218 
218 
218 
218 
218 
218 
218 
219 
219 
219 
219 
219 
219 
219 
219 
218 
220 
218 
215 
217 
217 
215 
214 
220 
219 
205 
172 
150 
155 
160 
159 
158 
158 
157 
118 
90 
86 
78 
67 
65 
57 
62 
56 
50 
51 
48 
51 
48 
52 
51 
51 
54 
55 
54 
56 
57 
52 
58 
60 
62 
90 
80 
132 
221 
221 
219 
223 
220 
220 
223 
218 
219 
219 
219 
217 
217 
217 
218 
218 
218 
218 
218 
219 
219 
219 
219 
219 
219 
219 
219 
219 
219 
219 
216 
215 
220 
220 
212 
213 
217 
207 
188 
167 
158 
163 
164 
149 
154 
137 
94 
77 
85 
76 
55 
67 
60 
61 
61 
53 
47 
46 
47 
47 
51 
49 
47 
51 
53 
53 
55 
58 
60 
61 
59 
69 
103 
78 
124 
218 
216 
221 
220 
219 
218 
220 
218 
218 
218 
218 
217 
217 
217 
218 
218 
218 
218 
218 
219 
219 
219 
219 
219 
219 
219 
219 
220 
219 
219 
216 
215 
225 
226 
215 
214 
215 
207 
209 
201 
179 
166 
151 
115 
121 
97 
85 
69 
84 
73 
65 
69 
60 
54 
59 
55 
46 
46 
44 
45 
48 
47 
45 
49 
52 
52 
54 
54 
52 
60 
67 
72 
94 
69 
129 
220 
215 
225 
219 
220 
219 
220 
220 
218 
218 
218 
218 
218 
218 
218 
218 
218 
218 
219 
218 
218 
218 
219 
219 
219 
219 
219 
218 
218 
218 
218 
218 
218 
218 
218 
216 
217 
218 
224 
203 
182 
176 
145 
102 
98 
88 
86 
92 
87 
80 
83 
61 
59 
58 
58 
56 
52 
47 
44 
46 
47 
47 
47 
47 
48 
50 
52 
54 
59 
61 
70 
74 
72 
77 
115 
209 
220 
218 
218 
220 
217 
219 
219 
219 
218 
218 
218 
218 
218 
218 
218 
218 
218 
218 
218 
219 
219 
219 
219 
219 
219 
219 
218 
218 
218 
218 
218 
218 
218 
218 
215 
217 
215 
214 
190 
174 
177 
158 
141 
117 
85 
98 
116 
119 
118 
92 
68 
65 
61 
57 
53 
48 
46 
45 
46 
47 
47 
47 
47 
47 
49 
52 
55 
59 
59 
66 
75 
75 
73 
89 
186 
223 
222 
219 
219 
218 
220 
217 
219 
219 
219 
219 
219 
219 
218 
218 
218 
218 
218 
219 
219 
219 
219 
219 
219 
219 
220 
218 
218 
218 
218 
218 
218 
218 
218 
219 
222 
222 
223 
203 
190 
193 
177 
170 
146 
87 
102 
129 
119 
114 
80 
63 
65 
65 
62 
58 
53 
49 
47 
47 
47 
47 
47 
46 
46 
48 
51 
52 
57 
55 
58 
69 
70 
70 
67 
156 
224 
222 
218 
217 
219 
220 
218 
220 
220 
220 
219 
219 
219 
218 
218 
217 
217 
217 
219 
219 
219 
219 
219 
220 
220 
220 
218 
218 
218 
218 
218 
218 
218 
218 
217 
217 
218 
224 
216 
209 
206 
188 
161 
164 
101 
91 
105 
73 
67 
74 
62 
65 
66 
64 
63 
61 
55 
50 
49 
48 
47 
46 
45 
45 
47 
49 
50 
54 
52 
53 
58 
61 
71 
70 
141 
225 
219 
217 
217 
219 
220 
220 
220 
220 
221 
219 
218 
218 
218 
217 
217 
217 
216 
219 
219 
219 
219 
219 
219 
219 
220 
218 
218 
218 
218 
218 
218 
218 
218 
218 
214 
213 
217 
216 
216 
215 
202 
192 
179 
115 
92 
105 
81 
64 
77 
71 
71 
66 
60 
60 
63 
62 
57 
51 
49 
47 
45 
43 
44 
47 
49 
51 
51 
51 
53 
55 
59 
74 
88 
152 
227 
216 
218 
219 
218 
219 
223 
220 
220 
221 
217 
217 
217 
217 
217 
216 
216 
216 
218 
218 
219 
219 
219 
219 
219 
219 
218 
218 
218 
218 
218 
218 
218 
218 
218 
218 
220 
221 
219 
220 
220 
215 
185 
181 
158 
117 
80 
59 
60 
79 
70 
72 
69 
63 
63 
66 
65 
59 
52 
51 
48 
45 
43 
44 
46 
49 
52 
49 
50 
57 
58 
66 
74 
104 
179 
229 
217 
220 
222 
219 
219 
223 
219 
220 
221 
216 
216 
216 
216 
216 
216 
216 
216 
218 
218 
218 
218 
218 
218 
219 
219 
218 
218 
218 
218 
218 
218 
218 
218 
213 
217 
222 
222 
220 
220 
217 
216 
197 
198 
180 
127 
80 
69 
71 
69 
65 
73 
74 
68 
65 
66 
63 
56 
52 
51 
49 
47 
44 
44 
46 
47 
50 
49 
52 
64 
61 
75 
75 
122 
201 
227 
220 
220 
223 
220 
220 
220 
218 
219 
220 
215 
215 
215 
215 
215 
216 
216 
216 
218 
218 
218 
218 
218 
218 
218 
218 
218 
218 
218 
218 
218 
218 
218 
218 
217 
217 
220 
218 
220 
222 
219 
219 
212 
216 
174 
114 
89 
92 
88 
73 
72 
80 
79 
67 
59 
59 
59 
55 
53 
52 
51 
48 
46 
45 
45 
46 
49 
53 
62 
72 
63 
82 
79 
140 
211 
223 
220 
218 
222 
221 
222 
217 
218 
218 
220 
217 
217 
217 
217 
217 
217 
217 
217 
218 
218 
218 
218 
218 
218 
218 
218 
218 
218 
218 
218 
218 
218 
218 
218 
218 
219 
220 
219 
218 
217 
216 
216 
216 
219 
181 
127 
101 
89 
80 
81 
76 
77 
77 
68 
58 
59 
61 
58 
55 
52 
49 
48 
47 
46 
46 
46 
47 
47 
67 
77 
77 
83 
87 
156 
221 
221 
221 
220 
220 
220 
220 
220 
220 
220 
220 
218 
218 
218 
218 
218 
218 
218 
218 
218 
218 
218 
218 
218 
218 
218 
218 
218 
218 
218 
218 
218 
218 
218 
218 
218 
219 
219 
219 
218 
217 
217 
217 
217 
214 
202 
184 
153 
102 
69 
69 
62 
69 
78 
76 
66 
62 
61 
58 
64 
59 
55 
54 
54 
51 
47 
46 
50 
50 
69 
75 
70 
76 
97 
177 
225 
224 
223 
221 
220 
219 
219 
219 
220 
220 
220 
219 
219 
219 
219 
219 
219 
219 
219 
218 
218 
218 
218 
218 
218 
218 
218 
218 
218 
218 
218 
218 
218 
218 
218 
218 
218 
219 
219 
218 
218 
218 
219 
223 
221 
220 
215 
187 
137 
92 
70 
68 
69 
73 
71 
64 
63 
68 
69 
65 
58 
53 
53 
54 
53 
49 
47 
44 
48 
70 
81 
78 
82 
115 
194 
227 
226 
224 
221 
220 
219 
219 
219 
220 
220 
220 
219 
219 
219 
219 
219 
219 
219 
219 
218 
218 
218 
218 
218 
218 
218 
218 
218 
218 
218 
218 
218 
218 
218 
218 
217 
218 
218 
218 
218 
218 
219 
220 
218 
220 
220 
208 
184 
157 
119 
84 
72 
69 
72 
76 
72 
68 
65 
63 
61 
56 
51 
52 
55 
56 
57 
57 
69 
64 
63 
61 
57 
71 
131 
215 
226 
224 
222 
220 
219 
219 
220 
221 
220 
220 
220 
218 
218 
218 
218 
218 
218 
218 
218 
218 
218 
218 
218 
218 
218 
218 
218 
218 
218 
218 
218 
218 
218 
218 
218 
217 
218 
218 
218 
218 
218 
219 
220 
213 
213 
220 
217 
196 
168 
136 
106 
84 
76 
77 
81 
75 
67 
64 
64 
64 
62 
61 
62 
63 
64 
66 
69 
68 
75 
77 
78 
75 
87 
152 
219 
224 
223 
221 
219 
219 
219 
220 
221 
220 
220 
220 
218 
218 
218 
218 
218 
218 
218 
218 
218 
218 
218 
218 
218 
218 
218 
218 
218 
218 
218 
218 
218 
218 
218 
218 
217 
218 
218 
218 
218 
218 
218 
219 
217 
213 
218 
224 
218 
201 
167 
130 
111 
97 
91 
89 
77 
66 
69 
78 
68 
69 
72 
71 
67 
64 
65 
68 
64 
80 
78 
76 
80 
102 
181 
237 
223 
222 
221 
219 
218 
218 
219 
219 
220 
220 
220 
218 
218 
218 
218 
218 
218 
218 
218 
218 
218 
218 
218 
218 
218 
218 
218 
218 
218 
218 
218 
218 
218 
218 
218 
217 
218 
219 
219 
218 
217 
216 
216 
218 
217 
214 
213 
219 
222 
197 
162 
143 
121 
107 
102 
88 
73 
71 
78 
73 
74 
74 
70 
63 
57 
57 
61 
63 
82 
74 
72 
86 
115 
193 
227 
222 
222 
221 
219 
219 
218 
218 
219 
219 
219 
219 
218 
218 
218 
218 
218 
218 
218 
218 
218 
218 
218 
218 
218 
218 
218 
218 
218 
218 
218 
218 
218 
218 
218 
218 
217 
218 
219 
219 
218 
216 
215 
215 
221 
224 
221 
215 
214 
218 
213 
201 
180 
141 
107 
93 
82 
73 
74 
80 
79 
77 
73 
67 
59 
55 
56 
60 
62 
85 
78 
86 
114 
147 
214 
224 
221 
221 
220 
220 
219 
219 
219 
219 
219 
219 
219 
218 
218 
218 
218 
218 
218 
218 
218 
218 
218 
218 
218 
218 
218 
218 
218 
218 
218 
218 
218 
218 
218 
218 
218 
218 
218 
218 
219 
219 
220 
221 
221 
217 
219 
220 
220 
219 
218 
218 
218 
219 
170 
139 
116 
99 
102 
98 
81 
84 
99 
91 
78 
80 
75 
64 
64 
83 
110 
99 
109 
155 
197 
225 
224 
221 
220 
219 
219 
220 
220 
220 
220 
219 
219 
219 
218 
218 
218 
218 
218 
218 
218 
218 
218 
218 
218 
218 
218 
218 
218 
218 
218 
218 
218 
218 
218 
218 
218 
218 
218 
218 
218 
218 
219 
219 
220 
220 
220 
217 
215 
215 
217 
218 
216 
214 
227 
196 
172 
148 
132 
137 
132 
116 
109 
112 
104 
100 
101 
94 
88 
95 
108 
125 
125 
158 
203 
218 
223 
221 
220 
220 
219 
220 
220 
221 
220 
219 
219 
219 
219 
218 
218 
218 
218 
218 
218 
218 
218 
218 
218 
218 
218 
218 
218 
218 
218 
218 
218 
218 
218 
218 
218 
218 
218 
218 
218 
218 
218 
218 
218 
219 
219 
222 
219 
217 
216 
217 
218 
218 
217 
218 
209 
199 
178 
166 
171 
162 
147 
139 
133 
125 
120 
114 
104 
99 
100 
109 
137 
162 
203 
231 
223 
218 
221 
219 
219 
219 
220 
221 
221 
220 
219 
219 
219 
219 
218 
218 
218 
218 
218 
218 
217 
217 
218 
218 
218 
218 
218 
218 
218 
218 
218 
218 
218 
218 
218 
218 
218 
218 
219 
218 
218 
218 
218 
218 
218 
218 
220 
222 
223 
220 
217 
216 
220 
223 
218 
222 
220 
203 
192 
189 
173 
162 
165 
157 
147 
135 
124 
126 
127 
121 
151 
187 
210 
223 
227 
217 
216 
218 
219 
219 
219 
220 
221 
221 
220 
219 
219 
219 
219 
218 
218 
218 
218 
217 
217 
217 
217 
218 
218 
218 
218 
218 
218 
218 
218 
218 
218 
218 
218 
218 
218 
218 
218 
219 
218 
218 
218 
217 
217 
218 
218 
216 
219 
221 
220 
217 
216 
219 
222 
220 
225 
228 
220 
217 
212 
198 
196 
194 
181 
172 
165 
161 
172 
186 
186 
209 
229 
228 
219 
218 
221 
223 
219 
219 
219 
219 
220 
221 
221 
220 
219 
219 
219 
219 
218 
218 
218 
218 
217 
217 
217 
217 
217 
217 
217 
218 
218 
218 
218 
218 
218 
218 
218 
218 
218 
218 
218 
218 
219 
218 
218 
218 
218 
218 
218 
218 
218 
217 
216 
217 
219 
220 
219 
218 
217 
217 
220 
220 
222 
222 
217 
221 
219 
204 
202 
208 
206 
208 
218 
226 
218 
223 
221 
216 
219 
223 
222 
220 
220 
220 
220 
220 
221 
221 
220 
219 
219 
219 
219 
218 
218 
218 
217 
217 
217 
217 
217 
217 
217 
217 
218 
218 
218 
218 
218 
218 
218 
218 
218 
218 
218 
218 
218 
218 
218 
218 
218 
218 
218 
219 
219 
220 
218 
216 
217 
221 
222 
220 
218 
221 
217 
219 
216 
215 
216 
212 
216 
227 
218 
220 
228 
224 
216 
216 
221 
219 
218 
221 
223 
223 
219 
215 
218 
221 
220 
220 
220 
220 
220 
219 
219 
219 
219 
219 
218 
218 
218 
217 
217 
217 
217 
216 
217 
217 
217 
217 
218 
218 
218 
218 
218 
218 
218 
218 
218 
218 
218 
218 
218 
218 
218 
218 
218 
219 
219 
219 
218 
218 
219 
218 
217 
217 
219 
220 
218 
216 
221 
219 
217 
221 
219 
220 
222 
221 
222 
222 
219 
217 
218 
219 
223 
215 
214 
217 
219 
221 
220 
224 
222 
221 
220 
219 
220 
220 
219 
219 
219 
219 
219 
218 
218 
218 
218 
218 
218 
218 
218 
218 
218 
217 
218 
218 
219 
218 
218 
218 
218 
218 
218 
218 
218 
218 
218 
218 
218 
218 
218 
218 
218 
218 
218 
218 
218 
218 
218 
219 
219 
219 
219 
219 
219 
219 
219 
219 
219 
219 
219 
219 
218 
219 
218 
220 
226 
226 
218 
218 
221 
216 
220 
224 
220 
220 
220 
220 
220 
220 
220 
220 
219 
219 
218 
219 
219 
219 
