P2
# Created by MsrVolt
87 73
255
220 
219 
221 
224 
224 
221 
220 
221 
222 
221 
221 
219 
217 
221 
223 
220 
218 
222 
224 
222 
220 
221 
222 
222 
219 
220 
221 
221 
220 
220 
220 
220 
220 
221 
221 
221 
221 
221 
221 
221 
221 
221 
220 
220 
220 
220 
220 
220 
220 
220 
220 
220 
220 
220 
220 
220 
220 
220 
220 
220 
220 
220 
220 
220 
220 
221 
221 
221 
221 
221 
221 
221 
221 
221 
221 
221 
221 
221 
221 
221 
220 
220 
220 
220 
220 
221 
222 
220 
219 
221 
224 
223 
221 
220 
221 
225 
225 
219 
216 
222 
223 
219 
218 
220 
221 
221 
218 
218 
221 
223 
223 
220 
220 
221 
221 
220 
220 
220 
220 
220 
220 
221 
221 
221 
221 
221 
221 
221 
221 
220 
220 
220 
220 
220 
220 
220 
220 
220 
220 
220 
220 
220 
220 
220 
220 
220 
220 
220 
220 
220 
220 
220 
221 
221 
221 
221 
221 
221 
221 
221 
221 
221 
221 
221 
221 
221 
221 
221 
221 
221 
221 
221 
221 
222 
220 
220 
221 
223 
223 
221 
220 
220 
220 
222 
214 
212 
221 
222 
216 
217 
224 
223 
222 
220 
220 
221 
222 
221 
222 
221 
221 
221 
220 
220 
220 
220 
219 
220 
221 
221 
222 
222 
221 
221 
221 
221 
220 
220 
220 
220 
220 
220 
220 
220 
220 
220 
220 
220 
220 
220 
220 
220 
220 
220 
220 
220 
220 
220 
220 
221 
221 
221 
221 
221 
221 
221 
221 
221 
221 
221 
221 
221 
221 
221 
222 
222 
222 
222 
222 
221 
221 
220 
220 
221 
222 
222 
221 
220 
219 
222 
222 
221 
219 
218 
220 
222 
223 
217 
220 
222 
224 
223 
222 
221 
220 
223 
223 
222 
221 
220 
220 
219 
219 
219 
220 
221 
221 
222 
222 
222 
221 
221 
221 
220 
220 
220 
220 
220 
220 
220 
220 
220 
220 
220 
220 
220 
220 
220 
220 
220 
220 
220 
220 
220 
220 
220 
221 
221 
221 
221 
221 
221 
221 
221 
221 
221 
221 
221 
221 
221 
221 
223 
223 
223 
223 
222 
221 
220 
221 
221 
221 
221 
221 
221 
220 
218 
216 
211 
217 
216 
201 
203 
215 
216 
206 
212 
220 
224 
223 
221 
221 
223 
224 
223 
221 
220 
220 
220 
219 
218 
220 
220 
221 
221 
222 
222 
222 
221 
221 
221 
220 
220 
220 
220 
220 
220 
220 
220 
220 
220 
220 
220 
220 
220 
220 
220 
220 
220 
220 
220 
220 
220 
220 
221 
221 
221 
221 
221 
221 
221 
221 
221 
221 
221 
221 
221 
221 
221 
223 
223 
223 
223 
222 
221 
220 
221 
221 
220 
220 
221 
222 
220 
217 
214 
207 
213 
212 
197 
200 
214 
215 
208 
213 
219 
222 
220 
217 
219 
223 
223 
221 
220 
219 
220 
220 
220 
219 
221 
221 
221 
221 
221 
221 
222 
222 
221 
221 
220 
220 
220 
220 
220 
220 
220 
220 
220 
220 
220 
220 
220 
220 
220 
220 
220 
220 
220 
220 
220 
220 
220 
221 
221 
221 
221 
221 
221 
221 
221 
221 
221 
221 
221 
221 
221 
221 
222 
222 
222 
222 
222 
221 
221 
221 
221 
220 
219 
220 
222 
220 
217 
221 
216 
210 
208 
209 
210 
212 
215 
209 
212 
216 
219 
216 
213 
213 
217 
221 
219 
217 
218 
220 
221 
221 
221 
222 
222 
221 
220 
220 
221 
221 
222 
221 
221 
220 
220 
220 
220 
220 
220 
220 
220 
220 
220 
220 
220 
220 
220 
220 
220 
220 
220 
220 
220 
220 
220 
220 
221 
221 
221 
221 
221 
221 
221 
221 
221 
221 
221 
221 
221 
221 
221 
221 
221 
221 
221 
221 
221 
222 
221 
222 
220 
219 
220 
222 
220 
216 
209 
204 
185 
180 
195 
192 
180 
184 
201 
204 
209 
213 
213 
210 
209 
211 
218 
217 
216 
217 
220 
222 
223 
222 
223 
223 
221 
220 
220 
220 
221 
222 
221 
221 
220 
220 
220 
220 
220 
220 
220 
220 
220 
220 
220 
220 
220 
220 
220 
220 
220 
220 
220 
220 
220 
220 
220 
221 
221 
221 
221 
221 
221 
221 
221 
221 
221 
221 
221 
221 
221 
221 
220 
220 
220 
220 
220 
221 
222 
221 
221 
220 
219 
221 
223 
221 
217 
212 
210 
193 
193 
208 
188 
157 
157 
194 
199 
206 
206 
205 
211 
215 
213 
216 
222 
214 
208 
218 
223 
219 
220 
221 
220 
219 
218 
218 
218 
218 
219 
219 
219 
219 
219 
219 
219 
219 
219 
219 
219 
219 
220 
220 
221 
221 
222 
220 
220 
220 
220 
220 
220 
219 
219 
220 
221 
221 
221 
221 
221 
221 
221 
220 
220 
221 
222 
222 
223 
222 
221 
220 
220 
220 
220 
220 
220 
220 
220 
220 
219 
218 
220 
222 
221 
217 
215 
214 
198 
197 
213 
206 
187 
187 
205 
201 
202 
204 
204 
208 
211 
211 
215 
216 
208 
204 
212 
218 
218 
220 
217 
219 
221 
222 
220 
220 
220 
222 
220 
219 
219 
219 
219 
219 
219 
219 
219 
219 
219 
219 
220 
220 
221 
221 
220 
220 
220 
220 
220 
220 
220 
219 
220 
221 
221 
221 
221 
221 
221 
221 
220 
220 
221 
222 
222 
223 
222 
221 
220 
220 
220 
220 
220 
220 
220 
219 
219 
219 
218 
219 
220 
219 
217 
212 
212 
203 
201 
214 
216 
209 
209 
214 
204 
202 
208 
210 
211 
213 
213 
214 
210 
205 
204 
208 
212 
211 
210 
213 
217 
222 
223 
222 
220 
221 
223 
222 
220 
219 
218 
219 
220 
220 
219 
219 
219 
219 
219 
220 
220 
221 
221 
220 
220 
220 
220 
220 
220 
220 
220 
220 
221 
221 
221 
221 
221 
221 
221 
220 
220 
221 
222 
222 
223 
222 
221 
220 
220 
220 
220 
220 
220 
220 
219 
219 
220 
219 
219 
218 
216 
214 
209 
211 
211 
211 
215 
215 
212 
212 
216 
208 
208 
213 
213 
212 
212 
211 
209 
198 
191 
193 
198 
204 
207 
205 
211 
214 
218 
219 
219 
219 
220 
222 
222 
220 
218 
218 
220 
220 
220 
219 
219 
219 
219 
219 
219 
220 
220 
220 
220 
220 
220 
220 
220 
220 
220 
220 
220 
221 
221 
221 
221 
221 
221 
221 
220 
220 
221 
222 
222 
223 
222 
221 
220 
220 
220 
220 
220 
220 
220 
219 
220 
221 
222 
219 
216 
212 
211 
212 
213 
219 
222 
218 
212 
211 
214 
214 
212 
213 
213 
209 
209 
210 
207 
206 
191 
180 
181 
190 
201 
208 
208 
209 
209 
209 
211 
214 
217 
219 
220 
221 
220 
219 
219 
219 
220 
219 
219 
219 
219 
218 
218 
219 
219 
220 
220 
220 
220 
220 
220 
220 
220 
220 
220 
220 
221 
221 
221 
221 
221 
221 
221 
220 
220 
221 
222 
222 
223 
222 
221 
220 
220 
220 
220 
220 
220 
220 
220 
221 
222 
223 
220 
215 
212 
212 
213 
213 
216 
219 
215 
209 
210 
216 
215 
213 
214 
213 
211 
214 
217 
213 
216 
207 
196 
195 
202 
207 
207 
204 
206 
204 
203 
205 
210 
214 
217 
218 
219 
219 
219 
219 
219 
219 
219 
219 
218 
218 
218 
218 
218 
219 
219 
219 
220 
220 
220 
220 
220 
220 
220 
220 
220 
221 
221 
221 
221 
221 
221 
221 
220 
220 
221 
222 
222 
223 
222 
221 
220 
220 
220 
220 
220 
220 
220 
219 
220 
222 
223 
220 
215 
214 
216 
216 
216 
211 
207 
208 
208 
209 
214 
214 
206 
206 
212 
216 
218 
216 
212 
211 
214 
207 
203 
209 
210 
203 
201 
204 
204 
204 
206 
209 
212 
213 
214 
216 
218 
220 
220 
219 
218 
219 
220 
218 
218 
218 
218 
218 
218 
219 
219 
219 
220 
220 
220 
220 
220 
220 
220 
220 
221 
221 
221 
221 
221 
221 
221 
220 
220 
221 
222 
222 
223 
222 
221 
220 
220 
220 
220 
220 
220 
220 
219 
219 
221 
222 
219 
216 
217 
220 
222 
223 
211 
202 
207 
211 
210 
210 
212 
198 
195 
208 
215 
212 
203 
196 
188 
197 
191 
186 
196 
203 
203 
209 
204 
206 
208 
209 
209 
209 
210 
211 
214 
217 
220 
221 
219 
217 
218 
220 
218 
218 
218 
218 
218 
218 
218 
219 
219 
219 
220 
220 
220 
220 
220 
220 
220 
221 
221 
221 
221 
221 
221 
221 
220 
220 
221 
222 
222 
223 
222 
221 
220 
220 
220 
220 
220 
220 
220 
220 
220 
220 
221 
219 
216 
216 
218 
218 
215 
209 
207 
212 
215 
213 
212 
209 
186 
181 
205 
197 
194 
181 
150 
168 
162 
157 
157 
172 
195 
198 
182 
171 
168 
192 
219 
213 
209 
220 
213 
216 
210 
217 
223 
218 
219 
222 
216 
217 
218 
219 
220 
219 
218 
217 
218 
222 
220 
218 
218 
220 
222 
221 
221 
223 
222 
221 
221 
221 
221 
221 
222 
221 
222 
222 
222 
222 
221 
221 
220 
220 
221 
221 
221 
221 
221 
221 
219 
219 
219 
220 
218 
215 
215 
217 
221 
217 
216 
209 
201 
211 
220 
214 
197 
186 
184 
184 
190 
171 
148 
163 
185 
171 
138 
120 
140 
169 
172 
161 
154 
182 
191 
195 
198 
192 
199 
215 
210 
208 
210 
216 
218 
214 
213 
220 
223 
221 
219 
220 
219 
217 
218 
220 
222 
220 
218 
218 
220 
221 
221 
220 
222 
222 
221 
221 
221 
221 
221 
221 
221 
222 
222 
222 
222 
221 
221 
220 
220 
221 
221 
221 
221 
221 
221 
218 
218 
219 
219 
217 
214 
215 
216 
219 
214 
217 
206 
188 
200 
215 
203 
181 
179 
177 
163 
182 
149 
122 
172 
175 
157 
123 
115 
148 
168 
155 
139 
123 
177 
184 
158 
150 
155 
175 
199 
205 
215 
215 
215 
220 
217 
215 
226 
225 
220 
218 
220 
220 
218 
218 
222 
222 
220 
219 
219 
220 
221 
221 
220 
222 
222 
221 
221 
221 
221 
221 
221 
221 
222 
222 
222 
222 
221 
221 
220 
220 
221 
221 
221 
221 
221 
221 
219 
218 
219 
219 
217 
215 
215 
217 
219 
214 
214 
205 
191 
197 
203 
190 
162 
158 
145 
143 
154 
124 
118 
153 
141 
132 
125 
136 
156 
158 
140 
125 
118 
145 
157 
149 
139 
151 
174 
176 
178 
196 
206 
210 
220 
225 
222 
220 
220 
215 
216 
221 
223 
219 
218 
221 
221 
220 
219 
219 
220 
221 
220 
220 
221 
221 
221 
221 
221 
221 
221 
221 
221 
222 
222 
222 
222 
221 
221 
220 
220 
221 
221 
221 
221 
221 
221 
220 
220 
220 
220 
219 
216 
216 
218 
221 
218 
214 
212 
211 
208 
199 
189 
174 
163 
132 
143 
124 
110 
142 
141 
122 
121 
132 
136 
127 
128 
131 
122 
113 
103 
117 
146 
153 
158 
165 
153 
144 
146 
161 
185 
207 
223 
224 
211 
216 
213 
216 
222 
223 
220 
219 
221 
221 
221 
220 
220 
220 
220 
220 
220 
221 
221 
221 
221 
221 
221 
221 
221 
221 
222 
222 
222 
222 
221 
221 
220 
220 
221 
221 
221 
221 
221 
221 
220 
220 
221 
221 
219 
217 
217 
218 
219 
217 
213 
214 
218 
214 
201 
193 
190 
182 
140 
138 
98 
97 
147 
134 
121 
122 
135 
135 
124 
137 
148 
132 
96 
110 
122 
133 
138 
140 
149 
149 
144 
116 
114 
144 
178 
207 
220 
215 
213 
214 
217 
220 
221 
220 
221 
222 
221 
221 
221 
220 
220 
220 
219 
219 
220 
220 
221 
221 
221 
221 
221 
221 
221 
222 
222 
222 
222 
221 
221 
220 
220 
221 
221 
221 
221 
221 
221 
219 
219 
220 
220 
218 
216 
216 
218 
217 
215 
214 
210 
203 
204 
203 
194 
177 
181 
146 
111 
83 
83 
109 
117 
127 
123 
132 
142 
146 
156 
157 
139 
109 
141 
145 
129 
123 
129 
144 
151 
139 
112 
94 
106 
140 
176 
200 
208 
205 
211 
217 
220 
220 
221 
222 
222 
221 
221 
221 
221 
220 
219 
219 
219 
220 
220 
221 
221 
221 
221 
221 
221 
221 
222 
222 
222 
222 
221 
221 
220 
220 
221 
221 
221 
221 
221 
221 
218 
218 
219 
219 
217 
215 
215 
217 
221 
217 
220 
208 
187 
195 
206 
195 
171 
187 
165 
103 
101 
97 
88 
119 
135 
126 
128 
141 
145 
139 
135 
137 
130 
128 
119 
119 
123 
127 
130 
122 
106 
106 
89 
82 
111 
149 
171 
182 
195 
207 
217 
220 
221 
223 
222 
219 
221 
221 
222 
221 
220 
219 
219 
219 
219 
220 
221 
221 
221 
221 
221 
220 
221 
222 
222 
222 
222 
221 
221 
220 
220 
221 
221 
221 
221 
221 
221 
222 
222 
222 
221 
219 
218 
217 
216 
215 
221 
207 
195 
186 
190 
207 
202 
173 
172 
147 
108 
93 
104 
82 
124 
118 
136 
115 
110 
122 
122 
129 
128 
123 
137 
132 
134 
94 
95 
122 
93 
87 
103 
114 
93 
101 
114 
125 
144 
135 
164 
186 
213 
223 
215 
218 
218 
218 
219 
222 
223 
223 
222 
221 
221 
221 
221 
220 
219 
219 
220 
221 
222 
221 
221 
220 
220 
219 
220 
220 
220 
220 
220 
221 
221 
221 
221 
221 
222 
222 
222 
221 
220 
218 
217 
217 
215 
222 
206 
192 
184 
192 
207 
195 
159 
145 
114 
93 
105 
97 
93 
118 
140 
124 
100 
79 
77 
88 
97 
104 
101 
125 
146 
127 
95 
92 
109 
109 
83 
99 
105 
94 
116 
114 
97 
108 
110 
121 
167 
209 
217 
214 
218 
225 
224 
224 
222 
219 
218 
221 
223 
222 
219 
219 
219 
219 
220 
220 
221 
221 
221 
221 
220 
220 
220 
220 
220 
220 
221 
221 
221 
221 
221 
221 
221 
221 
222 
222 
221 
220 
218 
217 
217 
218 
223 
206 
190 
185 
195 
207 
191 
150 
122 
108 
137 
159 
98 
93 
101 
156 
131 
87 
68 
75 
76 
75 
80 
75 
102 
143 
117 
97 
97 
108 
131 
87 
98 
96 
91 
126 
114 
77 
83 
92 
83 
139 
192 
202 
208 
215 
226 
225 
225 
221 
217 
217 
221 
223 
221 
218 
218 
219 
220 
220 
220 
220 
220 
221 
220 
220 
220 
220 
220 
220 
220 
221 
221 
221 
221 
221 
221 
221 
221 
222 
222 
222 
220 
219 
218 
218 
220 
221 
203 
191 
187 
195 
206 
192 
159 
113 
107 
166 
176 
118 
106 
94 
124 
151 
97 
76 
91 
74 
72 
71 
72 
85 
118 
113 
100 
106 
125 
136 
88 
93 
89 
82 
112 
106 
78 
84 
89 
80 
119 
162 
179 
196 
213 
221 
218 
217 
218 
221 
223 
223 
221 
219 
219 
219 
220 
220 
220 
220 
220 
220 
220 
220 
220 
220 
220 
220 
220 
220 
221 
221 
221 
221 
221 
221 
221 
221 
222 
222 
222 
221 
220 
219 
219 
219 
216 
198 
192 
189 
192 
202 
193 
171 
112 
90 
128 
132 
142 
138 
112 
85 
133 
101 
78 
83 
69 
72 
74 
83 
79 
89 
119 
103 
106 
134 
116 
78 
82 
90 
81 
92 
95 
87 
93 
84 
96 
111 
135 
158 
182 
210 
218 
214 
211 
214 
224 
228 
223 
219 
220 
222 
221 
221 
220 
220 
220 
220 
220 
220 
220 
220 
220 
220 
220 
220 
220 
221 
221 
221 
221 
221 
220 
220 
221 
222 
223 
222 
221 
220 
220 
220 
217 
211 
194 
193 
191 
190 
198 
189 
170 
124 
108 
115 
106 
149 
144 
126 
101 
82 
78 
85 
91 
85 
73 
80 
82 
72 
68 
118 
110 
102 
118 
91 
70 
76 
101 
94 
89 
91 
96 
100 
76 
102 
108 
123 
147 
167 
196 
211 
215 
209 
209 
217 
223 
221 
220 
223 
223 
222 
221 
221 
220 
220 
220 
220 
219 
219 
220 
220 
220 
220 
220 
220 
220 
220 
220 
220 
220 
220 
220 
221 
222 
223 
223 
222 
221 
221 
221 
219 
213 
197 
197 
197 
197 
200 
184 
158 
151 
160 
136 
125 
145 
126 
117 
132 
78 
77 
95 
98 
90 
74 
87 
80 
69 
65 
105 
127 
106 
87 
82 
71 
75 
104 
100 
91 
89 
95 
104 
85 
93 
102 
123 
143 
152 
167 
188 
213 
208 
202 
202 
209 
218 
223 
225 
221 
221 
221 
221 
221 
220 
220 
219 
219 
219 
220 
220 
220 
220 
220 
219 
220 
219 
219 
219 
219 
219 
219 
221 
222 
223 
223 
222 
221 
221 
221 
222 
219 
203 
202 
204 
205 
204 
180 
149 
174 
190 
131 
134 
143 
119 
103 
127 
120 
111 
94 
73 
63 
73 
93 
88 
76 
73 
94 
146 
116 
63 
83 
74 
73 
94 
91 
87 
81 
87 
104 
105 
83 
95 
124 
143 
142 
139 
162 
209 
206 
197 
191 
199 
216 
225 
224 
219 
220 
221 
222 
222 
221 
219 
218 
218 
219 
220 
220 
220 
220 
220 
219 
219 
219 
219 
219 
219 
218 
218 
220 
220 
219 
219 
219 
219 
219 
219 
221 
218 
223 
214 
195 
196 
199 
184 
162 
172 
182 
127 
153 
180 
146 
118 
136 
138 
130 
114 
90 
80 
79 
66 
68 
79 
75 
63 
128 
120 
70 
80 
62 
72 
83 
92 
75 
79 
88 
79 
92 
83 
95 
94 
96 
153 
140 
151 
199 
203 
223 
194 
172 
209 
227 
216 
231 
227 
221 
223 
226 
221 
216 
218 
224 
222 
220 
219 
220 
221 
221 
220 
220 
220 
219 
219 
219 
219 
219 
220 
220 
219 
219 
219 
219 
219 
219 
220 
217 
222 
213 
194 
193 
197 
186 
162 
168 
167 
162 
182 
163 
152 
143 
163 
162 
172 
158 
116 
77 
71 
79 
75 
72 
77 
67 
124 
119 
65 
70 
69 
73 
80 
91 
77 
73 
72 
63 
83 
94 
92 
70 
80 
164 
166 
163 
179 
183 
204 
192 
177 
206 
225 
217 
222 
218 
214 
215 
222 
223 
220 
221 
223 
222 
220 
220 
220 
221 
221 
220 
220 
220 
219 
219 
219 
219 
219 
220 
220 
219 
219 
219 
219 
219 
219 
220 
216 
219 
212 
192 
188 
194 
189 
176 
170 
147 
175 
190 
151 
165 
153 
133 
149 
168 
152 
140 
101 
78 
90 
82 
61 
77 
63 
102 
109 
61 
65 
75 
71 
65 
76 
69 
66 
65 
62 
91 
93 
78 
76 
87 
140 
143 
156 
166 
174 
196 
196 
179 
190 
212 
215 
218 
220 
219 
220 
226 
227 
221 
217 
221 
220 
220 
220 
220 
221 
220 
220 
220 
220 
219 
219 
219 
219 
219 
220 
220 
219 
219 
219 
219 
219 
219 
219 
216 
218 
210 
191 
185 
191 
192 
192 
171 
152 
187 
181 
144 
157 
133 
111 
149 
161 
123 
147 
142 
117 
122 
92 
58 
76 
53 
72 
96 
63 
64 
78 
72 
58 
65 
63 
66 
67 
67 
101 
96 
73 
91 
96 
108 
103 
126 
141 
159 
184 
192 
169 
162 
188 
205 
215 
221 
222 
220 
224 
226 
222 
219 
219 
219 
220 
220 
221 
221 
220 
220 
220 
220 
219 
219 
219 
219 
219 
220 
220 
219 
219 
219 
219 
219 
219 
219 
216 
217 
210 
194 
186 
191 
195 
194 
166 
179 
205 
173 
144 
136 
118 
128 
159 
169 
117 
123 
139 
144 
151 
98 
62 
74 
52 
60 
93 
72 
62 
74 
74 
66 
71 
68 
70 
68 
64 
98 
116 
86 
86 
86 
104 
95 
97 
94 
121 
155 
172 
159 
150 
172 
192 
205 
215 
218 
215 
217 
222 
224 
226 
218 
219 
220 
220 
221 
220 
220 
220 
220 
220 
219 
219 
219 
219 
219 
220 
220 
219 
219 
219 
219 
219 
219 
219 
218 
217 
211 
198 
192 
194 
196 
193 
171 
191 
188 
152 
159 
142 
132 
137 
134 
157 
130 
104 
120 
152 
152 
84 
58 
65 
57 
66 
95 
84 
63 
61 
65 
64 
73 
67 
71 
72 
67 
99 
117 
88 
88 
87 
101 
87 
82 
64 
95 
135 
158 
164 
163 
166 
174 
195 
212 
224 
225 
225 
224 
222 
223 
218 
219 
220 
221 
220 
220 
220 
220 
220 
220 
219 
219 
219 
219 
219 
220 
220 
219 
219 
219 
219 
219 
219 
219 
220 
218 
212 
204 
199 
197 
196 
193 
192 
192 
168 
144 
167 
154 
160 
149 
130 
145 
140 
111 
122 
145 
125 
66 
58 
60 
68 
70 
83 
86 
69 
57 
57 
59 
72 
62 
65 
71 
68 
90 
96 
74 
91 
94 
99 
78 
76 
68 
99 
137 
151 
165 
170 
150 
142 
173 
195 
216 
227 
230 
225 
219 
219 
219 
220 
221 
221 
220 
220 
220 
221 
220 
220 
219 
219 
219 
219 
219 
220 
220 
219 
219 
219 
219 
219 
219 
220 
221 
219 
213 
207 
204 
200 
195 
190 
209 
200 
185 
160 
156 
144 
178 
164 
155 
144 
125 
104 
113 
113 
78 
61 
66 
65 
77 
68 
64 
82 
75 
67 
60 
64 
80 
63 
57 
61 
56 
66 
81 
65 
77 
87 
114 
92 
76 
78 
109 
143 
143 
154 
159 
126 
109 
144 
165 
188 
206 
217 
220 
221 
226 
220 
221 
221 
221 
220 
219 
220 
221 
220 
220 
219 
219 
219 
219 
219 
219 
219 
219 
219 
219 
219 
219 
219 
218 
218 
223 
227 
222 
207 
196 
194 
201 
212 
197 
188 
181 
165 
171 
186 
183 
165 
145 
97 
101 
117 
96 
82 
63 
70 
77 
75 
71 
73 
79 
83 
75 
58 
63 
72 
71 
68 
62 
60 
64 
71 
66 
74 
57 
106 
80 
80 
97 
100 
108 
114 
122 
135 
124 
90 
98 
117 
164 
191 
201 
211 
220 
231 
215 
217 
220 
221 
221 
220 
220 
220 
220 
220 
220 
220 
220 
220 
220 
219 
219 
219 
219 
219 
219 
219 
219 
219 
219 
222 
225 
222 
212 
205 
202 
199 
198 
188 
180 
172 
168 
174 
177 
164 
156 
151 
103 
86 
94 
89 
87 
65 
71 
79 
76 
68 
71 
80 
83 
73 
57 
57 
59 
57 
59 
59 
61 
57 
76 
66 
73 
66 
111 
86 
88 
94 
98 
98 
89 
94 
107 
96 
75 
78 
95 
131 
179 
204 
216 
219 
217 
220 
220 
221 
220 
220 
220 
220 
221 
220 
220 
220 
220 
220 
220 
220 
219 
219 
219 
219 
219 
219 
219 
219 
220 
220 
221 
221 
221 
219 
214 
211 
206 
195 
192 
171 
147 
156 
172 
171 
173 
162 
163 
126 
106 
106 
102 
103 
79 
66 
68 
75 
70 
72 
82 
84 
78 
62 
58 
56 
57 
62 
60 
61 
51 
68 
58 
60 
64 
104 
81 
90 
94 
93 
88 
69 
71 
83 
75 
71 
75 
89 
106 
166 
191 
207 
222 
212 
225 
223 
221 
219 
219 
220 
220 
221 
220 
220 
220 
220 
220 
220 
220 
219 
219 
219 
219 
219 
219 
219 
219 
220 
221 
220 
218 
220 
222 
220 
215 
212 
195 
200 
175 
141 
159 
178 
173 
173 
158 
159 
143 
135 
113 
93 
97 
91 
75 
76 
82 
76 
79 
85 
79 
73 
62 
61 
65 
74 
81 
75 
71 
65 
58 
53 
48 
51 
85 
60 
81 
99 
82 
80 
72 
69 
75 
71 
78 
86 
94 
95 
145 
146 
173 
221 
215 
226 
223 
220 
219 
219 
220 
220 
220 
220 
220 
220 
220 
220 
220 
220 
219 
219 
219 
219 
219 
219 
219 
219 
221 
222 
220 
217 
219 
222 
220 
215 
210 
192 
202 
187 
163 
180 
190 
174 
162 
153 
154 
151 
147 
104 
76 
95 
100 
93 
94 
89 
79 
85 
88 
71 
61 
58 
63 
71 
83 
90 
86 
88 
94 
59 
65 
49 
52 
76 
47 
76 
105 
76 
79 
88 
80 
72 
70 
78 
80 
83 
83 
114 
92 
133 
214 
218 
224 
222 
220 
219 
220 
220 
220 
219 
220 
220 
220 
220 
220 
220 
220 
219 
219 
219 
219 
219 
219 
219 
219 
220 
221 
220 
218 
218 
220 
219 
215 
212 
203 
206 
193 
173 
179 
184 
175 
165 
149 
143 
142 
139 
97 
84 
118 
115 
89 
81 
87 
85 
82 
82 
76 
69 
68 
73 
76 
82 
83 
79 
88 
103 
74 
90 
69 
77 
89 
52 
79 
108 
87 
90 
104 
92 
71 
68 
73 
64 
64 
72 
92 
68 
115 
202 
221 
220 
220 
220 
220 
220 
220 
220 
219 
220 
220 
220 
220 
220 
220 
220 
219 
219 
219 
219 
219 
219 
219 
219 
220 
220 
219 
219 
219 
219 
219 
219 
219 
220 
209 
194 
178 
167 
171 
174 
162 
137 
131 
127 
116 
86 
93 
125 
108 
85 
83 
100 
101 
85 
77 
79 
85 
79 
79 
83 
90 
85 
72 
77 
89 
101 
120 
95 
115 
110 
63 
75 
93 
104 
100 
104 
96 
71 
68 
71 
54 
53 
69 
77 
64 
103 
176 
218 
219 
220 
220 
221 
220 
220 
220 
220 
220 
220 
220 
220 
220 
220 
220 
219 
219 
219 
219 
219 
219 
219 
219 
219 
218 
219 
220 
220 
219 
221 
223 
221 
225 
204 
197 
193 
174 
169 
172 
161 
140 
147 
143 
114 
84 
100 
123 
80 
100 
124 
130 
117 
96 
80 
71 
85 
75 
74 
87 
106 
100 
78 
74 
76 
128 
145 
115 
142 
122 
67 
62 
70 
110 
100 
93 
90 
67 
65 
70 
52 
51 
66 
64 
60 
86 
145 
206 
219 
220 
221 
221 
220 
219 
220 
221 
220 
220 
220 
220 
220 
220 
220 
219 
219 
219 
219 
219 
219 
219 
219 
219 
219 
219 
220 
220 
220 
221 
221 
222 
222 
221 
219 
212 
198 
179 
165 
151 
159 
169 
153 
134 
134 
137 
140 
147 
177 
131 
141 
118 
78 
84 
104 
133 
104 
84 
127 
131 
90 
91 
94 
89 
99 
119 
102 
98 
92 
50 
50 
79 
135 
100 
76 
69 
73 
59 
53 
53 
50 
63 
55 
61 
88 
134 
208 
219 
220 
220 
220 
221 
222 
221 
218 
220 
220 
220 
220 
220 
220 
220 
219 
219 
219 
219 
219 
219 
219 
219 
219 
219 
219 
220 
220 
220 
221 
221 
220 
220 
220 
221 
218 
210 
197 
188 
184 
181 
183 
170 
156 
161 
162 
158 
163 
136 
122 
119 
96 
91 
115 
116 
117 
92 
82 
122 
116 
77 
93 
111 
106 
92 
105 
75 
63 
65 
57 
59 
85 
113 
88 
78 
74 
68 
54 
55 
58 
53 
62 
57 
65 
86 
123 
196 
219 
219 
220 
221 
221 
220 
220 
220 
220 
220 
220 
220 
220 
220 
220 
219 
219 
219 
219 
219 
219 
219 
219 
219 
219 
219 
220 
220 
220 
221 
221 
218 
219 
220 
222 
222 
220 
215 
211 
209 
193 
186 
173 
166 
177 
178 
167 
158 
123 
122 
125 
131 
155 
157 
121 
110 
97 
105 
138 
115 
71 
89 
113 
108 
83 
98 
64 
51 
54 
57 
52 
57 
74 
76 
70 
66 
62 
55 
54 
63 
56 
59 
58 
66 
76 
102 
172 
220 
219 
219 
221 
221 
219 
219 
222 
220 
220 
220 
220 
220 
220 
220 
219 
219 
219 
219 
219 
219 
219 
219 
219 
219 
219 
220 
220 
220 
221 
221 
220 
220 
221 
221 
222 
221 
221 
220 
216 
196 
185 
170 
162 
175 
176 
164 
162 
174 
137 
111 
117 
144 
130 
104 
109 
108 
127 
150 
120 
78 
86 
102 
91 
88 
100 
65 
56 
56 
54 
58 
59 
51 
62 
57 
56 
57 
57 
54 
64 
59 
55 
57 
63 
64 
79 
147 
225 
221 
219 
221 
221 
219 
219 
222 
220 
220 
220 
220 
220 
220 
220 
219 
219 
219 
219 
219 
219 
219 
219 
219 
219 
219 
220 
220 
220 
221 
221 
222 
222 
222 
222 
221 
221 
221 
221 
220 
208 
201 
184 
172 
177 
174 
163 
166 
188 
164 
130 
133 
148 
122 
100 
105 
111 
126 
135 
118 
91 
86 
95 
72 
98 
96 
59 
60 
64 
59 
91 
114 
63 
55 
53 
59 
55 
55 
56 
61 
60 
54 
58 
61 
59 
70 
131 
228 
222 
219 
220 
221 
220 
219 
220 
220 
220 
220 
220 
220 
220 
220 
219 
219 
219 
219 
219 
219 
219 
219 
219 
219 
219 
220 
220 
220 
221 
221 
222 
222 
222 
222 
223 
223 
223 
223 
224 
223 
222 
207 
195 
191 
178 
168 
174 
158 
185 
171 
180 
184 
154 
126 
108 
120 
125 
122 
124 
106 
81 
84 
66 
92 
82 
60 
78 
83 
68 
99 
120 
76 
64 
56 
59 
58 
58 
56 
57 
61 
54 
62 
63 
66 
74 
123 
224 
222 
219 
219 
220 
221 
220 
219 
220 
220 
220 
220 
220 
220 
220 
219 
219 
219 
219 
219 
219 
219 
219 
219 
219 
219 
220 
220 
220 
221 
221 
221 
220 
220 
221 
223 
224 
223 
223 
221 
226 
226 
215 
213 
209 
190 
182 
194 
174 
185 
162 
166 
149 
127 
132 
111 
129 
124 
115 
132 
113 
69 
74 
76 
74 
74 
70 
88 
83 
68 
78 
74 
66 
66 
58 
57 
58 
58 
54 
53 
60 
55 
66 
65 
75 
81 
116 
214 
218 
221 
219 
219 
221 
221 
219 
220 
220 
220 
220 
220 
220 
220 
219 
219 
219 
219 
219 
219 
219 
219 
219 
219 
219 
220 
220 
220 
221 
221 
219 
218 
218 
219 
221 
222 
221 
220 
217 
223 
220 
213 
223 
223 
203 
197 
189 
211 
175 
161 
185 
142 
92 
111 
105 
124 
113 
101 
128 
109 
60 
75 
89 
65 
76 
74 
72 
56 
62 
67 
52 
52 
52 
57 
59 
53 
52 
56 
51 
59 
55 
66 
66 
80 
84 
109 
205 
215 
222 
220 
218 
221 
222 
219 
220 
220 
220 
220 
220 
220 
220 
220 
220 
220 
220 
220 
220 
220 
220 
220 
220 
220 
220 
220 
220 
220 
220 
220 
220 
220 
220 
220 
220 
220 
220 
220 
220 
220 
219 
219 
219 
219 
218 
217 
201 
172 
191 
169 
100 
109 
151 
148 
163 
110 
87 
88 
82 
107 
112 
90 
61 
81 
70 
53 
69 
79 
63 
63 
59 
64 
65 
56 
53 
56 
53 
49 
52 
59 
59 
55 
94 
91 
145 
230 
223 
219 
219 
220 
218 
219 
222 
220 
221 
221 
221 
220 
220 
220 
220 
220 
220 
220 
220 
220 
220 
220 
220 
220 
220 
220 
220 
220 
220 
220 
220 
220 
220 
220 
220 
220 
220 
220 
220 
220 
220 
220 
220 
220 
220 
220 
220 
209 
187 
192 
166 
113 
124 
160 
157 
157 
130 
96 
92 
101 
98 
93 
97 
68 
78 
73 
63 
69 
77 
68 
65 
62 
65 
62 
53 
52 
55 
51 
50 
56 
54 
56 
53 
63 
99 
174 
228 
222 
219 
220 
220 
218 
218 
220 
220 
221 
221 
221 
220 
220 
220 
220 
220 
220 
220 
220 
220 
220 
220 
220 
220 
220 
220 
220 
220 
220 
220 
220 
220 
220 
220 
220 
220 
220 
220 
221 
221 
221 
221 
221 
221 
221 
221 
222 
217 
206 
201 
179 
152 
155 
170 
170 
149 
137 
97 
95 
122 
103 
98 
126 
87 
73 
73 
76 
70 
74 
71 
67 
66 
65 
59 
51 
51 
54 
50 
50 
56 
51 
55 
61 
48 
124 
205 
224 
220 
219 
221 
221 
219 
218 
219 
220 
221 
221 
221 
220 
220 
220 
220 
220 
220 
220 
220 
220 
220 
220 
220 
220 
220 
220 
220 
220 
220 
220 
220 
220 
220 
220 
220 
220 
220 
220 
221 
222 
222 
222 
222 
222 
223 
223 
221 
219 
221 
214 
205 
201 
191 
178 
174 
147 
134 
108 
108 
114 
84 
83 
112 
86 
73 
79 
83 
61 
64 
74 
66 
66 
63 
56 
52 
53 
55 
53 
52 
56 
53 
55 
73 
74 
170 
224 
220 
218 
218 
221 
222 
221 
220 
221 
220 
221 
221 
221 
220 
220 
220 
220 
220 
220 
220 
220 
220 
220 
220 
220 
220 
220 
220 
220 
220 
220 
220 
220 
220 
220 
220 
220 
220 
220 
220 
221 
222 
222 
222 
222 
222 
223 
223 
219 
220 
226 
219 
217 
226 
213 
189 
179 
162 
131 
130 
139 
117 
100 
110 
120 
91 
69 
72 
80 
61 
61 
69 
62 
64 
61 
57 
55 
56 
56 
57 
60 
57 
63 
50 
73 
115 
208 
229 
221 
220 
219 
220 
221 
221 
221 
221 
220 
221 
221 
221 
220 
220 
220 
220 
220 
220 
220 
220 
220 
220 
220 
220 
220 
220 
220 
220 
220 
220 
220 
220 
220 
220 
220 
220 
220 
220 
220 
221 
221 
221 
221 
221 
221 
221 
221 
220 
221 
225 
217 
213 
223 
219 
203 
197 
189 
147 
149 
153 
118 
113 
125 
120 
94 
81 
74 
76 
64 
63 
64 
61 
63 
60 
59 
60 
58 
57 
59 
61 
55 
65 
51 
73 
146 
217 
224 
222 
221 
221 
220 
220 
219 
220 
220 
220 
221 
221 
221 
220 
220 
220 
220 
220 
220 
220 
220 
220 
220 
220 
220 
220 
220 
220 
220 
220 
220 
220 
220 
220 
220 
220 
220 
220 
220 
220 
220 
220 
220 
220 
220 
220 
220 
220 
220 
222 
221 
218 
214 
217 
221 
216 
209 
211 
185 
165 
148 
114 
91 
82 
85 
88 
112 
99 
77 
65 
64 
64 
60 
63 
61 
63 
66 
59 
56 
59 
60 
57 
69 
85 
112 
182 
215 
224 
220 
220 
221 
220 
219 
219 
219 
219 
220 
221 
221 
221 
220 
220 
220 
220 
220 
220 
220 
220 
220 
220 
220 
220 
220 
220 
220 
220 
220 
220 
220 
220 
220 
220 
220 
220 
220 
220 
220 
220 
220 
220 
219 
219 
219 
219 
218 
220 
221 
218 
224 
223 
219 
224 
223 
210 
216 
211 
174 
153 
148 
123 
106 
115 
108 
127 
103 
80 
79 
73 
59 
62 
64 
62 
66 
69 
59 
55 
58 
63 
66 
80 
132 
167 
221 
219 
232 
216 
218 
219 
220 
220 
220 
220 
220 
220 
221 
221 
221 
220 
220 
220 
220 
220 
220 
220 
220 
220 
220 
220 
220 
220 
220 
220 
220 
220 
220 
220 
220 
220 
220 
220 
220 
220 
220 
220 
220 
220 
220 
220 
220 
220 
220 
220 
220 
220 
221 
220 
220 
221 
222 
223 
224 
220 
225 
217 
185 
162 
155 
148 
144 
158 
157 
127 
90 
67 
61 
61 
66 
69 
67 
61 
61 
64 
62 
56 
55 
72 
104 
150 
196 
225 
229 
222 
217 
218 
219 
221 
221 
221 
219 
219 
220 
220 
220 
220 
220 
220 
220 
220 
220 
220 
220 
220 
220 
220 
220 
220 
220 
220 
220 
220 
220 
220 
220 
220 
220 
220 
220 
220 
220 
220 
220 
220 
220 
220 
220 
220 
220 
220 
220 
220 
220 
221 
220 
220 
221 
222 
223 
224 
220 
223 
218 
203 
201 
206 
202 
191 
173 
149 
124 
97 
77 
75 
84 
94 
83 
75 
75 
70 
62 
65 
76 
77 
88 
124 
177 
214 
223 
222 
224 
224 
223 
221 
219 
219 
220 
221 
221 
220 
220 
220 
220 
220 
220 
220 
220 
220 
220 
220 
220 
220 
220 
220 
220 
220 
220 
220 
220 
220 
220 
220 
220 
220 
220 
220 
220 
220 
220 
220 
220 
220 
220 
220 
220 
220 
220 
220 
220 
220 
221 
220 
220 
221 
222 
223 
222 
220 
223 
222 
218 
226 
230 
222 
210 
204 
184 
154 
133 
124 
116 
107 
104 
94 
92 
96 
90 
83 
97 
122 
141 
148 
177 
215 
232 
224 
216 
218 
225 
224 
221 
219 
219 
219 
221 
222 
220 
220 
220 
220 
220 
220 
220 
220 
220 
220 
220 
220 
220 
220 
220 
220 
220 
220 
220 
220 
220 
220 
220 
220 
220 
220 
220 
220 
220 
220 
220 
220 
220 
220 
220 
220 
220 
220 
220 
220 
220 
221 
220 
220 
221 
222 
223 
221 
220 
223 
224 
221 
222 
220 
212 
206 
222 
223 
204 
194 
193 
173 
144 
124 
132 
140 
140 
134 
137 
157 
179 
205 
211 
218 
224 
225 
223 
219 
217 
220 
220 
220 
220 
220 
220 
220 
220 
220 
220 
220 
220 
220 
220 
220 
220 
220 
220 
220 
220 
220 
220 
220 
220 
220 
220 
220 
220 
220 
220 
220 
220 
220 
220 
220 
220 
220 
220 
220 
220 
220 
220 
220 
220 
220 
220 
220 
220 
220 
221 
220 
220 
221 
222 
223 
223 
220 
221 
222 
219 
216 
218 
219 
219 
218 
220 
226 
232 
229 
212 
195 
184 
194 
200 
196 
191 
196 
207 
217 
225 
226 
221 
212 
210 
218 
224 
223 
217 
218 
220 
221 
221 
220 
220 
219 
220 
220 
220 
220 
220 
220 
220 
220 
220 
220 
220 
220 
220 
220 
220 
220 
220 
220 
220 
220 
220 
220 
220 
220 
220 
220 
220 
220 
220 
220 
220 
220 
220 
220 
220 
220 
220 
220 
220 
220 
220 
221 
220 
220 
221 
222 
223 
223 
221 
221 
223 
221 
216 
218 
224 
228 
218 
214 
220 
224 
222 
221 
224 
227 
225 
222 
221 
221 
222 
223 
224 
219 
220 
220 
219 
219 
220 
220 
219 
221 
221 
220 
220 
220 
220 
220 
220 
220 
220 
220 
220 
220 
220 
220 
220 
220 
220 
220 
220 
220 
220 
220 
220 
220 
220 
220 
220 
220 
220 
220 
220 
220 
220 
220 
220 
220 
220 
220 
220 
220 
220 
220 
220 
220 
220 
220 
220 
220 
221 
220 
220 
221 
222 
223 
222 
222 
221 
220 
221 
218 
215 
216 
220 
222 
222 
217 
214 
215 
220 
223 
226 
222 
219 
219 
221 
223 
223 
222 
218 
221 
225 
228 
227 
222 
218 
216 
223 
222 
221 
220 
219 
220 
220 
221 
220 
220 
220 
220 
220 
220 
220 
220 
220 
220 
220 
220 
220 
220 
220 
220 
220 
220 
220 
220 
220 
220 
220 
220 
220 
220 
220 
220 
220 
220 
220 
220 
220 
220 
220 
220 
220 
220 
220 
220 
220 
221 
220 
220 
221 
222 
223 
223 
223 
216 
212 
218 
222 
220 
217 
217 
219 
221 
222 
224 
226 
223 
220 
216 
223 
225 
219 
217 
223 
225 
222 
222 
224 
221 
216 
214 
219 
223 
224 
220 
220 
220 
220 
220 
220 
220 
220 
220 
220 
220 
220 
220 
220 
220 
220 
220 
220 
220 
220 
220 
220 
220 
220 
220 
220 
220 
220 
220 
220 
220 
220 
220 
220 
220 
220 
220 
220 
220 
220 
220 
220 
220 
220 
220 
220 
220 
220 
221 
221 
221 
221 
221 
221 
221 
221 
221 
220 
220 
220 
220 
220 
220 
220 
220 
220 
220 
220 
220 
220 
220 
220 
220 
220 
220 
220 
220 
220 
220 
220 
220 
220 
220 
220 
220 
220 
220 
220 
220 
220 
220 
220 
220 
220 
220 
220 
220 
220 
220 
220 
220 
220 
