P2
# Created by MsrVolt
107 85
255
211 
212 
212 
210 
210 
212 
211 
209 
211 
211 
211 
211 
211 
211 
211 
211 
211 
211 
211 
211 
212 
212 
212 
212 
212 
212 
212 
212 
211 
212 
212 
213 
212 
212 
213 
214 
215 
215 
215 
215 
215 
215 
215 
215 
215 
215 
215 
215 
215 
215 
215 
215 
215 
216 
216 
216 
216 
216 
216 
216 
216 
216 
216 
216 
216 
216 
216 
216 
216 
216 
216 
216 
216 
216 
216 
216 
216 
216 
217 
217 
217 
217 
217 
217 
218 
218 
218 
218 
217 
217 
218 
218 
218 
217 
216 
215 
216 
216 
216 
216 
216 
216 
216 
216 
216 
216 
216 
211 
213 
212 
211 
211 
212 
212 
210 
211 
211 
211 
211 
211 
211 
211 
211 
211 
211 
211 
211 
212 
212 
212 
212 
212 
212 
212 
212 
211 
212 
212 
213 
213 
212 
212 
213 
214 
215 
215 
215 
215 
215 
215 
215 
215 
215 
215 
215 
215 
215 
215 
215 
215 
216 
216 
216 
216 
216 
216 
216 
216 
216 
216 
216 
216 
216 
216 
216 
216 
216 
216 
216 
216 
216 
216 
216 
216 
216 
217 
217 
217 
217 
217 
217 
218 
218 
218 
218 
217 
217 
218 
218 
218 
217 
216 
215 
216 
216 
216 
216 
216 
216 
216 
216 
216 
216 
216 
211 
213 
213 
211 
211 
211 
211 
211 
211 
211 
211 
211 
211 
211 
211 
211 
211 
211 
211 
211 
212 
212 
212 
212 
212 
212 
212 
212 
211 
212 
212 
213 
213 
213 
212 
213 
214 
215 
215 
215 
215 
215 
215 
215 
215 
215 
215 
215 
215 
215 
215 
215 
215 
216 
216 
216 
216 
216 
216 
216 
216 
216 
216 
216 
216 
216 
216 
216 
216 
216 
216 
216 
216 
216 
216 
216 
216 
216 
217 
217 
217 
217 
217 
217 
217 
218 
218 
218 
217 
217 
218 
218 
217 
217 
216 
216 
216 
216 
216 
216 
216 
216 
216 
216 
216 
216 
216 
211 
212 
213 
212 
210 
210 
211 
211 
211 
211 
211 
211 
211 
211 
211 
211 
211 
211 
211 
211 
212 
212 
212 
212 
212 
212 
212 
212 
211 
212 
212 
213 
214 
213 
212 
212 
213 
214 
215 
215 
214 
214 
215 
215 
215 
215 
215 
215 
215 
215 
215 
215 
215 
216 
216 
216 
216 
216 
216 
216 
216 
216 
216 
216 
216 
216 
216 
216 
216 
216 
216 
216 
217 
216 
216 
216 
216 
216 
217 
217 
217 
217 
217 
217 
217 
217 
217 
217 
217 
217 
217 
217 
217 
217 
216 
216 
216 
216 
216 
216 
216 
216 
216 
216 
216 
216 
216 
211 
211 
212 
212 
211 
210 
210 
211 
210 
210 
211 
211 
211 
211 
211 
211 
211 
211 
211 
211 
212 
212 
212 
212 
212 
212 
212 
212 
211 
212 
212 
213 
214 
213 
212 
212 
213 
214 
215 
215 
214 
214 
214 
214 
215 
215 
215 
215 
215 
215 
215 
215 
215 
216 
216 
216 
216 
216 
216 
216 
216 
216 
216 
216 
216 
216 
216 
216 
216 
216 
217 
217 
217 
217 
216 
216 
216 
216 
217 
217 
217 
217 
217 
217 
217 
217 
217 
217 
216 
217 
217 
217 
217 
216 
216 
216 
216 
216 
216 
216 
216 
216 
216 
216 
216 
216 
216 
213 
211 
211 
212 
212 
211 
210 
211 
210 
210 
210 
211 
211 
211 
211 
211 
211 
211 
211 
211 
212 
212 
212 
212 
212 
212 
212 
212 
211 
212 
212 
213 
214 
213 
212 
212 
213 
214 
214 
214 
214 
214 
214 
214 
215 
215 
215 
215 
215 
215 
215 
215 
215 
216 
216 
216 
216 
216 
216 
216 
216 
216 
216 
216 
216 
216 
216 
217 
217 
217 
217 
217 
217 
217 
217 
216 
216 
216 
217 
217 
217 
217 
217 
217 
217 
217 
217 
217 
216 
216 
216 
216 
216 
216 
216 
216 
216 
216 
216 
216 
216 
216 
216 
216 
216 
216 
216 
215 
212 
210 
212 
214 
213 
211 
211 
210 
210 
210 
210 
211 
211 
211 
211 
211 
211 
211 
211 
212 
212 
212 
212 
212 
212 
212 
212 
211 
212 
212 
213 
213 
213 
212 
213 
214 
214 
214 
214 
214 
214 
214 
214 
214 
215 
215 
215 
215 
215 
215 
215 
215 
216 
216 
216 
216 
216 
216 
216 
216 
216 
216 
216 
217 
217 
217 
217 
217 
218 
218 
218 
217 
217 
217 
217 
216 
216 
217 
217 
217 
217 
217 
217 
217 
217 
217 
217 
216 
216 
216 
216 
216 
216 
216 
216 
216 
216 
216 
216 
216 
216 
216 
216 
216 
216 
216 
217 
212 
210 
213 
215 
215 
212 
211 
210 
210 
210 
210 
211 
211 
211 
211 
211 
211 
211 
211 
212 
212 
212 
212 
212 
212 
212 
212 
211 
212 
212 
213 
213 
212 
212 
213 
214 
214 
214 
213 
213 
214 
214 
214 
214 
215 
215 
215 
215 
215 
215 
215 
215 
216 
216 
216 
216 
216 
216 
216 
216 
216 
216 
216 
217 
217 
217 
218 
218 
218 
218 
219 
218 
217 
217 
217 
216 
216 
217 
217 
217 
217 
217 
217 
217 
217 
217 
216 
216 
216 
216 
215 
215 
216 
216 
216 
216 
216 
216 
216 
216 
216 
216 
216 
216 
216 
216 
210 
207 
217 
219 
210 
210 
213 
210 
211 
211 
208 
208 
220 
206 
207 
214 
211 
216 
209 
209 
207 
216 
207 
214 
208 
219 
217 
211 
211 
213 
214 
211 
210 
211 
213 
213 
214 
214 
214 
213 
214 
214 
214 
214 
214 
215 
215 
215 
215 
215 
215 
215 
215 
215 
215 
215 
215 
215 
215 
215 
215 
216 
216 
217 
217 
217 
217 
217 
217 
217 
217 
217 
218 
218 
217 
217 
216 
216 
216 
216 
217 
217 
217 
217 
217 
217 
217 
217 
216 
216 
216 
216 
216 
216 
216 
216 
216 
216 
216 
216 
216 
217 
217 
217 
217 
216 
216 
206 
208 
215 
218 
206 
211 
211 
213 
211 
206 
213 
215 
209 
210 
218 
205 
209 
209 
213 
221 
209 
214 
221 
212 
207 
214 
214 
213 
213 
210 
212 
216 
214 
214 
213 
212 
211 
212 
214 
216 
214 
214 
214 
214 
214 
214 
215 
215 
215 
215 
215 
215 
215 
215 
215 
215 
215 
215 
215 
215 
215 
216 
216 
217 
217 
217 
217 
217 
217 
217 
217 
217 
218 
218 
217 
217 
216 
216 
216 
216 
217 
217 
217 
217 
217 
216 
216 
216 
216 
216 
216 
216 
216 
216 
216 
216 
216 
216 
216 
216 
216 
216 
216 
216 
216 
216 
216 
213 
213 
218 
212 
210 
213 
210 
210 
207 
212 
213 
213 
211 
215 
212 
209 
215 
210 
209 
208 
204 
203 
219 
210 
208 
209 
213 
221 
225 
217 
209 
211 
211 
213 
214 
214 
213 
211 
212 
214 
214 
214 
214 
214 
214 
214 
214 
215 
214 
214 
214 
214 
214 
214 
214 
214 
214 
214 
214 
215 
215 
216 
216 
217 
217 
217 
217 
217 
217 
217 
217 
217 
218 
218 
217 
217 
216 
216 
216 
217 
216 
216 
216 
216 
216 
216 
216 
216 
216 
216 
216 
216 
216 
216 
216 
216 
216 
216 
216 
216 
216 
216 
216 
216 
216 
216 
216 
219 
212 
218 
202 
215 
215 
211 
207 
210 
213 
210 
215 
214 
215 
206 
216 
217 
216 
210 
197 
215 
209 
213 
218 
214 
200 
192 
197 
210 
214 
210 
214 
211 
212 
214 
214 
212 
210 
211 
214 
214 
214 
214 
214 
214 
214 
214 
214 
214 
214 
214 
214 
214 
214 
214 
214 
214 
214 
214 
215 
215 
216 
216 
216 
217 
217 
217 
217 
217 
217 
217 
217 
218 
217 
217 
217 
216 
216 
217 
217 
216 
216 
216 
216 
216 
216 
215 
215 
216 
216 
216 
216 
216 
216 
216 
216 
216 
216 
216 
216 
216 
216 
216 
216 
215 
216 
216 
213 
207 
212 
202 
209 
217 
209 
211 
213 
204 
212 
219 
206 
215 
214 
214 
189 
194 
207 
198 
224 
216 
209 
217 
210 
198 
192 
192 
206 
217 
212 
214 
216 
215 
214 
213 
210 
208 
212 
217 
214 
214 
214 
214 
214 
214 
214 
214 
214 
214 
214 
214 
214 
214 
214 
214 
214 
214 
214 
214 
215 
215 
216 
216 
217 
217 
217 
217 
217 
217 
217 
217 
217 
217 
217 
217 
216 
217 
217 
217 
216 
216 
216 
216 
215 
215 
215 
215 
216 
216 
216 
216 
216 
216 
216 
216 
216 
216 
216 
216 
216 
215 
215 
215 
215 
215 
216 
212 
210 
212 
214 
200 
217 
202 
215 
200 
207 
214 
206 
207 
219 
211 
212 
166 
168 
192 
195 
209 
204 
206 
203 
204 
206 
215 
211 
214 
218 
205 
205 
213 
214 
217 
219 
217 
212 
210 
212 
215 
214 
214 
214 
214 
214 
214 
214 
214 
214 
214 
214 
214 
214 
214 
214 
214 
214 
214 
214 
215 
215 
216 
216 
217 
217 
217 
217 
217 
217 
217 
217 
217 
217 
217 
217 
217 
217 
217 
217 
216 
216 
216 
216 
216 
216 
215 
215 
216 
216 
216 
216 
216 
216 
216 
216 
216 
216 
216 
215 
215 
215 
215 
215 
214 
215 
216 
221 
209 
217 
217 
203 
214 
201 
211 
183 
206 
211 
195 
216 
220 
201 
213 
181 
179 
173 
181 
199 
193 
206 
195 
184 
189 
202 
198 
200 
207 
199 
208 
208 
209 
215 
221 
221 
215 
211 
211 
215 
215 
214 
214 
214 
214 
214 
214 
214 
214 
214 
214 
214 
214 
214 
214 
214 
214 
214 
214 
215 
215 
216 
216 
217 
217 
217 
217 
217 
217 
217 
217 
217 
217 
217 
217 
217 
217 
217 
217 
216 
216 
216 
216 
216 
216 
216 
216 
216 
216 
216 
216 
216 
216 
216 
216 
216 
216 
216 
215 
215 
215 
215 
214 
214 
214 
215 
226 
199 
218 
207 
213 
211 
206 
204 
181 
188 
207 
201 
216 
214 
201 
208 
197 
200 
154 
164 
201 
189 
200 
189 
145 
152 
176 
185 
199 
211 
205 
216 
209 
207 
208 
212 
215 
214 
216 
220 
215 
215 
215 
214 
214 
214 
214 
214 
214 
214 
214 
214 
214 
214 
214 
214 
214 
214 
214 
214 
215 
215 
216 
216 
217 
217 
217 
217 
217 
217 
217 
217 
217 
217 
217 
217 
217 
217 
217 
217 
217 
217 
216 
216 
216 
216 
216 
216 
216 
216 
216 
216 
216 
216 
216 
216 
216 
216 
216 
215 
215 
215 
214 
214 
214 
214 
215 
196 
176 
166 
182 
193 
215 
206 
207 
200 
204 
196 
220 
203 
163 
193 
206 
193 
210 
167 
165 
190 
172 
179 
206 
159 
128 
152 
175 
180 
181 
200 
163 
153 
204 
217 
208 
203 
205 
216 
216 
215 
214 
213 
213 
214 
215 
214 
213 
212 
213 
214 
214 
215 
215 
214 
214 
214 
214 
214 
214 
214 
215 
216 
216 
216 
216 
217 
217 
217 
217 
217 
217 
218 
217 
217 
217 
217 
217 
217 
217 
216 
216 
216 
216 
216 
216 
216 
217 
217 
217 
216 
216 
216 
216 
216 
216 
216 
216 
216 
216 
215 
215 
215 
215 
216 
216 
216 
149 
202 
172 
169 
202 
208 
210 
213 
206 
192 
206 
215 
209 
152 
160 
197 
200 
187 
176 
183 
197 
191 
182 
188 
180 
144 
149 
181 
169 
187 
178 
153 
190 
191 
196 
218 
224 
218 
210 
207 
211 
213 
215 
215 
213 
212 
213 
214 
214 
214 
215 
215 
215 
214 
214 
213 
214 
214 
214 
214 
214 
215 
216 
216 
216 
216 
217 
217 
217 
217 
217 
217 
218 
217 
217 
217 
217 
217 
217 
217 
216 
216 
216 
216 
216 
216 
217 
217 
217 
217 
216 
216 
216 
216 
216 
216 
216 
216 
216 
215 
215 
215 
215 
215 
216 
216 
216 
157 
207 
186 
193 
209 
179 
150 
210 
204 
213 
199 
168 
169 
174 
138 
155 
151 
122 
152 
201 
184 
151 
155 
172 
150 
140 
148 
187 
178 
183 
158 
174 
171 
150 
174 
211 
199 
205 
216 
222 
215 
216 
216 
215 
214 
214 
215 
216 
212 
212 
213 
213 
214 
214 
214 
214 
214 
214 
214 
214 
214 
215 
215 
216 
216 
217 
217 
217 
217 
217 
217 
217 
217 
217 
217 
217 
217 
217 
217 
217 
216 
216 
216 
216 
216 
217 
217 
217 
217 
217 
216 
216 
216 
216 
216 
216 
216 
216 
215 
214 
214 
214 
215 
215 
216 
216 
216 
213 
182 
127 
184 
217 
187 
192 
194 
211 
209 
193 
151 
101 
154 
144 
102 
99 
104 
128 
178 
181 
176 
195 
172 
160 
170 
149 
144 
167 
173 
156 
172 
154 
149 
174 
197 
189 
204 
204 
206 
219 
215 
212 
211 
212 
213 
213 
213 
213 
213 
213 
214 
214 
214 
214 
214 
214 
214 
214 
214 
214 
215 
215 
215 
216 
217 
217 
217 
218 
217 
217 
217 
217 
217 
217 
217 
217 
217 
217 
218 
216 
216 
216 
216 
217 
217 
217 
217 
217 
217 
216 
216 
216 
216 
216 
216 
217 
216 
215 
214 
213 
214 
215 
216 
216 
216 
216 
207 
210 
148 
139 
159 
140 
181 
176 
216 
187 
159 
153 
109 
83 
83 
59 
72 
93 
90 
111 
138 
157 
166 
130 
113 
139 
136 
140 
158 
137 
140 
153 
174 
177 
157 
162 
203 
207 
169 
182 
217 
217 
217 
216 
215 
214 
215 
216 
217 
217 
216 
215 
215 
214 
213 
213 
214 
214 
214 
214 
214 
214 
215 
215 
216 
216 
217 
217 
217 
217 
217 
217 
217 
217 
216 
216 
217 
217 
217 
218 
216 
216 
216 
216 
217 
217 
217 
217 
217 
217 
216 
216 
216 
216 
216 
216 
217 
216 
215 
214 
214 
214 
215 
216 
216 
216 
216 
199 
203 
142 
92 
61 
146 
192 
129 
207 
194 
90 
78 
109 
111 
94 
66 
73 
70 
66 
77 
92 
82 
70 
79 
71 
83 
100 
146 
164 
151 
155 
132 
158 
141 
141 
158 
173 
163 
154 
164 
201 
210 
219 
220 
215 
211 
214 
219 
214 
214 
213 
213 
213 
213 
214 
214 
214 
214 
214 
214 
214 
214 
215 
215 
216 
216 
216 
217 
217 
217 
216 
216 
216 
216 
216 
216 
216 
217 
217 
218 
216 
216 
216 
217 
217 
217 
217 
217 
217 
217 
216 
216 
216 
216 
216 
216 
216 
216 
215 
214 
214 
215 
216 
216 
216 
216 
216 
211 
160 
42 
97 
112 
164 
210 
205 
173 
135 
71 
87 
65 
71 
85 
76 
63 
58 
56 
63 
67 
60 
51 
52 
61 
78 
84 
86 
87 
103 
131 
113 
112 
138 
147 
159 
188 
156 
151 
188 
182 
192 
204 
209 
208 
207 
212 
216 
211 
211 
211 
212 
212 
213 
214 
215 
214 
214 
214 
214 
214 
214 
214 
215 
215 
215 
216 
216 
216 
216 
216 
216 
216 
216 
216 
216 
216 
217 
217 
218 
216 
216 
217 
217 
217 
217 
217 
217 
217 
217 
216 
216 
216 
216 
216 
216 
216 
216 
216 
215 
215 
216 
216 
216 
216 
216 
216 
223 
176 
91 
128 
169 
157 
172 
221 
172 
87 
47 
53 
46 
83 
125 
92 
53 
59 
53 
62 
52 
49 
72 
57 
55 
53 
55 
52 
69 
52 
72 
94 
92 
86 
106 
123 
145 
153 
185 
174 
185 
189 
197 
205 
213 
218 
222 
224 
218 
217 
216 
215 
214 
213 
213 
213 
214 
214 
214 
214 
214 
214 
214 
214 
215 
215 
215 
216 
216 
216 
215 
215 
216 
216 
216 
216 
216 
217 
217 
218 
216 
217 
217 
217 
217 
217 
217 
217 
217 
217 
216 
216 
216 
216 
216 
216 
216 
216 
216 
216 
216 
216 
216 
216 
216 
216 
216 
223 
217 
198 
210 
214 
152 
134 
199 
149 
49 
118 
112 
46 
110 
130 
131 
71 
60 
53 
65 
54 
51 
66 
57 
59 
66 
52 
71 
66 
61 
63 
68 
78 
86 
103 
93 
107 
105 
164 
158 
183 
195 
196 
194 
204 
212 
211 
210 
210 
217 
217 
212 
213 
215 
215 
215 
212 
212 
213 
215 
216 
216 
216 
215 
215 
215 
215 
216 
216 
216 
217 
217 
216 
216 
216 
216 
216 
216 
217 
218 
218 
217 
216 
216 
217 
217 
217 
217 
216 
216 
216 
216 
216 
216 
215 
215 
216 
216 
216 
216 
216 
216 
216 
216 
216 
216 
216 
203 
211 
216 
223 
224 
179 
154 
206 
163 
69 
136 
131 
92 
138 
98 
114 
93 
55 
54 
57 
68 
72 
56 
51 
54 
66 
61 
58 
57 
64 
62 
57 
67 
77 
82 
70 
76 
63 
109 
117 
134 
145 
153 
165 
186 
203 
204 
199 
213 
218 
218 
214 
212 
211 
212 
215 
211 
213 
215 
216 
215 
214 
214 
214 
215 
215 
215 
215 
215 
215 
216 
216 
216 
216 
216 
216 
216 
216 
217 
218 
218 
217 
216 
216 
216 
217 
217 
216 
216 
216 
216 
216 
216 
216 
215 
215 
216 
216 
216 
216 
216 
216 
216 
216 
216 
216 
216 
219 
213 
208 
199 
208 
199 
179 
208 
181 
151 
165 
124 
164 
173 
147 
146 
108 
69 
66 
60 
80 
77 
55 
57 
66 
52 
52 
55 
71 
71 
59 
60 
61 
70 
64 
59 
64 
46 
74 
89 
91 
90 
100 
127 
160 
189 
205 
206 
213 
216 
218 
217 
214 
211 
211 
215 
211 
214 
218 
218 
215 
214 
215 
216 
215 
215 
215 
215 
215 
215 
216 
216 
216 
216 
216 
216 
216 
216 
217 
218 
218 
217 
216 
215 
216 
216 
216 
216 
216 
216 
216 
216 
216 
216 
215 
215 
216 
216 
216 
216 
216 
216 
216 
216 
216 
216 
216 
207 
214 
220 
213 
214 
210 
197 
203 
201 
182 
166 
192 
150 
164 
153 
162 
121 
59 
57 
73 
69 
81 
97 
65 
51 
57 
61 
65 
69 
69 
61 
58 
55 
56 
52 
57 
63 
56 
68 
71 
81 
58 
58 
83 
110 
137 
166 
186 
194 
199 
209 
215 
214 
212 
213 
214 
211 
214 
216 
216 
215 
214 
215 
217 
215 
215 
216 
216 
216 
216 
217 
217 
216 
216 
216 
216 
216 
216 
217 
217 
217 
216 
215 
215 
215 
216 
216 
216 
216 
216 
216 
216 
216 
216 
215 
215 
216 
216 
216 
216 
216 
216 
216 
216 
216 
216 
216 
211 
215 
207 
207 
207 
210 
221 
219 
208 
206 
123 
200 
121 
141 
164 
154 
108 
70 
59 
71 
78 
81 
83 
61 
58 
67 
57 
77 
74 
68 
62 
60 
58 
53 
50 
59 
57 
62 
69 
58 
64 
82 
77 
49 
62 
124 
160 
147 
176 
185 
205 
218 
216 
215 
219 
220 
213 
213 
213 
213 
213 
214 
214 
214 
214 
214 
215 
215 
216 
216 
217 
217 
216 
216 
216 
216 
215 
216 
216 
217 
217 
216 
215 
215 
215 
216 
216 
215 
216 
216 
216 
216 
216 
216 
215 
215 
216 
216 
216 
216 
216 
216 
216 
216 
216 
216 
216 
209 
209 
198 
209 
213 
210 
219 
204 
205 
213 
171 
150 
130 
146 
148 
114 
106 
90 
110 
94 
64 
53 
78 
100 
117 
95 
54 
77 
73 
59 
53 
58 
63 
58 
55 
62 
52 
61 
69 
58 
59 
59 
60 
59 
62 
83 
116 
139 
164 
164 
186 
209 
212 
209 
213 
216 
216 
216 
215 
215 
215 
215 
215 
214 
214 
214 
214 
215 
215 
215 
216 
216 
216 
216 
216 
216 
215 
215 
216 
217 
217 
216 
215 
215 
215 
216 
216 
216 
216 
216 
216 
216 
216 
216 
215 
215 
216 
216 
216 
216 
216 
216 
216 
216 
216 
216 
216 
209 
213 
214 
220 
210 
201 
211 
208 
213 
215 
205 
177 
141 
141 
190 
170 
124 
96 
94 
84 
107 
80 
96 
110 
156 
143 
103 
86 
69 
64 
63 
65 
58 
57 
55 
57 
51 
56 
62 
59 
62 
59 
58 
65 
63 
62 
89 
130 
148 
121 
132 
177 
202 
203 
204 
205 
214 
216 
217 
218 
217 
216 
216 
216 
216 
216 
216 
216 
216 
216 
215 
215 
216 
216 
216 
216 
215 
215 
216 
217 
217 
216 
215 
215 
216 
216 
216 
216 
216 
216 
216 
216 
216 
216 
215 
215 
216 
216 
216 
216 
216 
216 
216 
216 
216 
216 
216 
214 
207 
210 
213 
209 
208 
210 
210 
210 
209 
208 
194 
167 
151 
183 
192 
123 
115 
154 
179 
186 
109 
137 
109 
117 
95 
78 
68 
65 
57 
52 
59 
55 
58 
53 
55 
58 
59 
57 
60 
60 
62 
60 
58 
59 
66 
96 
135 
139 
86 
87 
154 
206 
218 
215 
213 
207 
211 
215 
217 
216 
214 
215 
217 
219 
219 
218 
218 
217 
217 
216 
216 
216 
216 
216 
216 
215 
215 
216 
216 
218 
217 
216 
215 
216 
216 
216 
216 
216 
216 
216 
216 
216 
216 
215 
215 
216 
216 
216 
216 
216 
216 
216 
216 
216 
216 
216 
211 
211 
211 
211 
211 
210 
210 
210 
208 
213 
215 
209 
199 
189 
176 
166 
130 
157 
204 
186 
189 
135 
144 
149 
106 
99 
95 
64 
57 
56 
74 
61 
62 
57 
50 
51 
55 
57 
58 
58 
61 
59 
61 
57 
64 
77 
69 
115 
146 
109 
91 
110 
167 
203 
203 
217 
213 
211 
213 
215 
225 
220 
207 
221 
214 
208 
214 
224 
219 
213 
216 
216 
216 
216 
216 
216 
216 
216 
216 
216 
217 
217 
217 
216 
215 
215 
216 
217 
216 
215 
215 
216 
216 
216 
216 
215 
215 
215 
215 
215 
215 
215 
216 
216 
216 
216 
216 
212 
212 
212 
212 
211 
211 
210 
210 
213 
210 
207 
208 
213 
211 
194 
176 
167 
181 
188 
157 
165 
140 
130 
147 
151 
147 
175 
160 
101 
58 
80 
90 
63 
61 
60 
58 
53 
55 
55 
61 
58 
60 
59 
59 
60 
62 
55 
83 
138 
119 
77 
86 
96 
125 
169 
180 
182 
192 
200 
210 
219 
220 
216 
211 
212 
210 
214 
210 
207 
215 
219 
216 
216 
216 
216 
216 
216 
216 
215 
215 
216 
217 
216 
216 
215 
215 
216 
217 
216 
215 
215 
216 
216 
216 
216 
215 
215 
215 
215 
215 
215 
215 
215 
216 
216 
216 
216 
212 
212 
212 
212 
212 
211 
211 
211 
211 
211 
210 
212 
216 
218 
210 
201 
193 
196 
188 
164 
162 
167 
146 
157 
203 
159 
175 
167 
100 
68 
81 
95 
76 
68 
65 
64 
55 
61 
54 
55 
53 
56 
54 
59 
58 
57 
58 
70 
100 
110 
75 
84 
70 
88 
143 
175 
189 
208 
198 
206 
216 
215 
227 
223 
214 
214 
221 
211 
208 
219 
217 
213 
216 
216 
216 
216 
216 
215 
215 
215 
215 
216 
216 
216 
216 
216 
216 
217 
216 
216 
215 
216 
216 
216 
216 
215 
214 
215 
215 
215 
214 
214 
215 
216 
216 
216 
216 
212 
212 
212 
212 
212 
212 
212 
211 
208 
213 
216 
213 
210 
211 
215 
217 
207 
203 
203 
194 
165 
170 
154 
144 
192 
143 
149 
144 
97 
85 
72 
66 
67 
69 
67 
69 
55 
58 
56 
56 
54 
56 
60 
63 
59 
57 
58 
60 
60 
75 
68 
70 
68 
69 
83 
142 
201 
185 
138 
173 
214 
197 
210 
225 
219 
215 
223 
216 
214 
219 
212 
215 
216 
216 
216 
216 
216 
216 
216 
216 
215 
215 
216 
216 
216 
216 
216 
216 
216 
216 
216 
216 
216 
216 
215 
215 
214 
214 
215 
214 
214 
214 
215 
216 
216 
216 
216 
212 
212 
212 
213 
212 
212 
212 
212 
213 
213 
212 
210 
210 
211 
212 
213 
213 
211 
207 
206 
176 
163 
161 
145 
168 
156 
125 
132 
120 
110 
100 
77 
66 
77 
72 
75 
66 
65 
65 
55 
52 
50 
64 
63 
60 
60 
57 
58 
64 
67 
73 
66 
78 
77 
70 
116 
170 
135 
110 
177 
205 
166 
184 
210 
214 
215 
219 
212 
211 
216 
213 
219 
217 
217 
217 
217 
216 
216 
216 
216 
215 
215 
216 
216 
216 
215 
216 
216 
216 
216 
216 
216 
216 
216 
215 
215 
214 
214 
214 
214 
213 
214 
214 
215 
216 
216 
216 
212 
212 
212 
212 
212 
212 
212 
212 
212 
212 
212 
213 
213 
212 
210 
208 
212 
218 
205 
206 
204 
178 
177 
170 
151 
189 
149 
188 
202 
149 
121 
78 
53 
72 
73 
66 
68 
69 
70 
62 
60 
50 
60 
54 
55 
59 
57 
63 
62 
59 
63 
62 
72 
84 
91 
97 
123 
124 
156 
211 
202 
176 
197 
197 
198 
216 
221 
215 
214 
218 
217 
213 
217 
217 
216 
216 
216 
216 
216 
216 
216 
216 
216 
216 
215 
215 
215 
216 
216 
216 
216 
216 
216 
216 
215 
214 
213 
214 
214 
214 
213 
213 
214 
215 
216 
216 
216 
211 
212 
212 
212 
212 
212 
212 
211 
210 
212 
215 
215 
214 
212 
212 
213 
213 
217 
209 
209 
218 
196 
190 
185 
148 
204 
182 
207 
213 
141 
109 
104 
81 
97 
105 
71 
79 
89 
86 
91 
75 
62 
56 
51 
56 
52 
55 
56 
55 
56 
58 
63 
62 
76 
81 
77 
95 
113 
146 
172 
181 
196 
198 
173 
175 
205 
213 
219 
221 
216 
218 
211 
216 
216 
216 
215 
215 
215 
215 
215 
217 
217 
216 
215 
214 
214 
215 
215 
217 
216 
216 
216 
216 
216 
215 
214 
213 
213 
214 
213 
213 
213 
214 
214 
216 
216 
216 
211 
211 
212 
212 
212 
212 
211 
211 
215 
213 
211 
212 
214 
215 
215 
215 
213 
206 
214 
217 
219 
214 
213 
203 
175 
206 
198 
191 
202 
163 
137 
184 
160 
133 
114 
57 
87 
106 
68 
53 
66 
60 
51 
54 
67 
53 
59 
52 
52 
61 
61 
64 
60 
69 
55 
75 
92 
97 
97 
102 
137 
160 
147 
148 
157 
184 
191 
211 
218 
206 
216 
219 
215 
215 
215 
215 
214 
214 
214 
214 
217 
217 
216 
215 
214 
214 
214 
215 
217 
216 
216 
216 
216 
216 
215 
214 
213 
213 
213 
213 
213 
213 
214 
214 
216 
216 
216 
211 
211 
211 
211 
211 
211 
211 
211 
211 
213 
214 
213 
212 
212 
214 
216 
215 
213 
212 
213 
216 
218 
218 
218 
203 
209 
217 
212 
215 
210 
160 
165 
167 
133 
173 
143 
113 
80 
106 
78 
69 
64 
62 
73 
74 
53 
59 
52 
59 
62 
65 
62 
51 
53 
66 
66 
78 
84 
82 
89 
107 
112 
108 
114 
146 
156 
183 
185 
176 
201 
208 
217 
214 
215 
214 
209 
212 
218 
216 
216 
222 
211 
217 
217 
216 
217 
211 
214 
219 
215 
214 
218 
221 
217 
212 
210 
214 
214 
214 
214 
215 
215 
214 
211 
216 
215 
215 
211 
211 
211 
211 
211 
211 
211 
211 
211 
213 
214 
213 
212 
212 
213 
215 
216 
215 
214 
214 
216 
216 
216 
214 
205 
209 
215 
214 
218 
218 
184 
190 
197 
121 
181 
180 
138 
132 
95 
73 
68 
58 
83 
76 
51 
56 
69 
56 
61 
64 
64 
61 
55 
56 
58 
53 
62 
71 
71 
74 
83 
82 
79 
85 
91 
118 
176 
186 
147 
172 
211 
217 
216 
213 
217 
223 
224 
219 
216 
221 
217 
219 
220 
213 
214 
213 
207 
219 
213 
216 
218 
216 
213 
213 
217 
221 
215 
214 
213 
212 
214 
215 
215 
215 
216 
216 
216 
211 
211 
211 
211 
211 
211 
211 
211 
212 
213 
214 
214 
212 
212 
213 
214 
216 
215 
214 
214 
215 
215 
214 
212 
210 
212 
212 
213 
215 
218 
205 
208 
216 
154 
165 
186 
167 
175 
141 
103 
104 
68 
61 
66 
68 
71 
60 
60 
60 
74 
68 
54 
54 
53 
51 
53 
57 
66 
67 
69 
77 
75 
70 
74 
66 
83 
138 
174 
140 
145 
187 
204 
217 
213 
214 
218 
216 
212 
215 
223 
214 
216 
220 
216 
218 
220 
215 
217 
217 
218 
216 
213 
212 
215 
217 
217 
215 
214 
213 
213 
214 
215 
215 
215 
216 
216 
217 
211 
211 
211 
211 
211 
211 
211 
211 
212 
213 
214 
214 
213 
212 
212 
212 
214 
213 
213 
214 
215 
215 
214 
213 
213 
213 
211 
213 
212 
214 
216 
215 
209 
212 
194 
218 
206 
156 
186 
211 
194 
154 
80 
55 
79 
67 
59 
71 
69 
71 
86 
75 
52 
55 
66 
60 
61 
64 
64 
68 
79 
80 
74 
71 
68 
69 
73 
117 
137 
146 
176 
202 
200 
211 
217 
220 
217 
212 
210 
207 
225 
218 
222 
219 
211 
220 
225 
216 
216 
214 
212 
213 
215 
214 
211 
208 
214 
214 
214 
216 
216 
215 
214 
214 
215 
215 
216 
211 
211 
211 
211 
211 
211 
211 
211 
212 
212 
213 
213 
213 
212 
212 
212 
212 
212 
213 
214 
215 
215 
214 
214 
212 
212 
212 
215 
214 
213 
221 
217 
202 
228 
213 
218 
226 
171 
175 
198 
205 
211 
150 
73 
73 
69 
67 
68 
58 
65 
73 
66 
60 
56 
49 
49 
56 
57 
56 
57 
64 
66 
62 
57 
54 
74 
55 
76 
119 
147 
162 
166 
182 
199 
202 
208 
213 
207 
209 
211 
212 
217 
219 
217 
214 
218 
220 
214 
216 
217 
221 
224 
222 
217 
217 
221 
216 
214 
215 
216 
216 
214 
214 
216 
215 
214 
215 
211 
211 
211 
211 
211 
211 
211 
211 
212 
212 
212 
212 
212 
212 
212 
212 
213 
213 
214 
214 
214 
214 
214 
214 
212 
211 
214 
214 
215 
211 
218 
214 
198 
231 
216 
201 
200 
200 
215 
220 
205 
224 
208 
146 
151 
138 
91 
93 
103 
86 
75 
72 
83 
80 
57 
56 
51 
53 
54 
52 
52 
53 
53 
51 
48 
79 
74 
77 
86 
112 
131 
125 
150 
160 
149 
161 
179 
174 
186 
207 
225 
234 
218 
211 
223 
221 
215 
215 
216 
215 
215 
215 
214 
213 
214 
217 
217 
215 
215 
216 
216 
214 
216 
219 
218 
215 
214 
211 
211 
211 
211 
211 
211 
211 
211 
212 
211 
211 
211 
212 
212 
212 
212 
213 
214 
214 
214 
214 
214 
214 
215 
215 
212 
216 
210 
213 
210 
212 
211 
212 
222 
216 
225 
215 
203 
212 
212 
216 
213 
214 
208 
213 
216 
179 
195 
167 
93 
86 
89 
68 
82 
88 
68 
58 
59 
60 
57 
54 
56 
57 
53 
53 
66 
66 
69 
58 
73 
103 
119 
142 
136 
88 
77 
100 
108 
141 
184 
216 
220 
215 
217 
217 
215 
220 
215 
224 
226 
222 
215 
215 
222 
225 
222 
218 
217 
218 
220 
219 
214 
214 
216 
222 
217 
214 
211 
211 
211 
211 
211 
211 
211 
211 
212 
211 
210 
211 
211 
212 
213 
213 
213 
213 
213 
213 
213 
214 
215 
217 
216 
211 
216 
207 
214 
213 
213 
216 
216 
205 
213 
210 
217 
216 
211 
217 
210 
206 
216 
215 
152 
180 
202 
197 
171 
111 
81 
67 
61 
64 
64 
81 
68 
64 
61 
59 
58 
62 
59 
50 
48 
54 
52 
64 
61 
63 
75 
93 
110 
121 
79 
65 
84 
76 
81 
102 
110 
135 
198 
237 
213 
206 
223 
198 
206 
222 
224 
209 
203 
214 
224 
225 
218 
218 
222 
226 
223 
215 
210 
210 
226 
219 
214 
211 
211 
212 
213 
214 
213 
212 
212 
212 
212 
212 
212 
212 
212 
212 
212 
212 
213 
213 
213 
214 
214 
215 
215 
216 
215 
214 
212 
212 
213 
214 
215 
215 
215 
215 
214 
214 
214 
214 
214 
210 
221 
213 
218 
172 
180 
210 
188 
147 
169 
135 
94 
118 
75 
50 
86 
75 
62 
60 
59 
64 
61 
73 
45 
56 
52 
52 
56 
51 
52 
57 
70 
77 
94 
93 
85 
89 
85 
77 
76 
77 
96 
138 
200 
212 
232 
226 
203 
195 
183 
129 
126 
120 
128 
134 
127 
152 
127 
103 
143 
197 
234 
237 
211 
219 
220 
216 
211 
211 
212 
213 
213 
213 
213 
212 
212 
212 
212 
212 
212 
212 
213 
213 
213 
213 
213 
213 
214 
214 
215 
215 
216 
215 
214 
213 
213 
213 
214 
214 
215 
215 
214 
214 
214 
214 
214 
214 
211 
219 
206 
216 
219 
211 
223 
227 
222 
196 
147 
139 
193 
140 
73 
65 
54 
61 
96 
86 
54 
61 
84 
57 
52 
53 
56 
54 
49 
56 
50 
53 
61 
71 
76 
62 
74 
75 
79 
84 
98 
86 
80 
134 
174 
184 
176 
208 
210 
169 
73 
74 
65 
68 
52 
56 
73 
80 
60 
47 
92 
129 
163 
215 
216 
216 
217 
211 
211 
212 
213 
213 
213 
213 
212 
212 
212 
212 
212 
213 
213 
213 
213 
213 
213 
213 
213 
214 
214 
214 
215 
215 
215 
214 
214 
213 
213 
214 
214 
215 
214 
214 
214 
214 
214 
214 
214 
214 
214 
205 
205 
230 
209 
207 
219 
190 
223 
174 
180 
172 
185 
113 
106 
109 
84 
116 
127 
95 
73 
84 
83 
68 
58 
76 
63 
68 
61 
54 
48 
50 
55 
65 
48 
57 
55 
54 
57 
59 
59 
53 
86 
127 
126 
82 
98 
122 
108 
61 
61 
67 
55 
56 
67 
67 
53 
57 
50 
57 
67 
87 
153 
209 
194 
225 
211 
211 
212 
213 
213 
213 
213 
213 
213 
213 
213 
213 
213 
213 
213 
213 
213 
213 
213 
214 
214 
214 
214 
215 
214 
214 
214 
214 
214 
214 
213 
213 
214 
214 
214 
214 
214 
214 
214 
214 
217 
212 
221 
215 
223 
215 
218 
216 
227 
217 
209 
206 
231 
198 
183 
193 
227 
168 
140 
134 
125 
81 
79 
81 
70 
65 
78 
71 
76 
69 
62 
51 
47 
47 
59 
49 
59 
63 
54 
54 
52 
55 
51 
50 
77 
114 
96 
92 
83 
91 
89 
84 
81 
51 
56 
55 
46 
49 
49 
50 
48 
46 
61 
155 
211 
192 
207 
211 
211 
212 
212 
213 
213 
213 
213 
213 
213 
213 
213 
213 
214 
214 
214 
213 
213 
214 
214 
214 
214 
214 
215 
214 
214 
214 
214 
214 
214 
213 
213 
214 
214 
214 
214 
214 
214 
214 
214 
209 
205 
220 
216 
208 
215 
220 
214 
208 
218 
215 
212 
210 
208 
206 
219 
183 
136 
130 
160 
175 
105 
96 
78 
65 
75 
71 
76 
68 
80 
72 
59 
57 
54 
49 
45 
44 
55 
44 
44 
45 
44 
48 
49 
65 
98 
91 
86 
125 
122 
123 
136 
102 
74 
62 
52 
53 
53 
48 
51 
57 
43 
33 
53 
161 
209 
208 
211 
211 
212 
212 
213 
213 
213 
214 
213 
213 
214 
214 
214 
214 
214 
214 
214 
214 
214 
214 
214 
214 
214 
214 
214 
214 
214 
214 
214 
214 
214 
213 
214 
214 
214 
214 
214 
214 
214 
215 
218 
216 
217 
219 
213 
216 
212 
215 
216 
211 
208 
216 
216 
216 
218 
229 
192 
157 
168 
208 
211 
148 
159 
131 
60 
55 
61 
62 
73 
75 
80 
74 
67 
66 
52 
54 
45 
56 
48 
45 
53 
49 
48 
50 
63 
67 
50 
55 
107 
104 
127 
154 
141 
122 
96 
50 
59 
49 
52 
56 
47 
44 
91 
107 
155 
212 
209 
211 
211 
211 
212 
212 
213 
214 
214 
214 
214 
214 
214 
214 
214 
214 
214 
214 
214 
214 
214 
214 
214 
214 
214 
214 
214 
214 
214 
214 
214 
214 
214 
214 
214 
214 
214 
214 
214 
215 
215 
214 
214 
210 
216 
214 
215 
212 
215 
216 
212 
214 
215 
212 
205 
211 
221 
229 
222 
221 
223 
212 
196 
211 
173 
103 
85 
97 
68 
81 
87 
80 
70 
88 
92 
74 
70 
50 
45 
46 
41 
41 
46 
43 
42 
53 
51 
45 
53 
53 
52 
83 
114 
143 
151 
140 
90 
62 
76 
62 
72 
73 
84 
138 
200 
218 
218 
207 
211 
211 
211 
212 
212 
213 
214 
214 
214 
214 
214 
214 
214 
214 
214 
215 
214 
214 
214 
214 
214 
214 
214 
214 
214 
214 
214 
214 
214 
214 
214 
214 
214 
214 
214 
214 
214 
215 
215 
215 
214 
214 
217 
218 
209 
212 
221 
210 
212 
215 
221 
217 
218 
215 
216 
209 
210 
215 
210 
217 
214 
209 
211 
205 
211 
209 
192 
128 
90 
135 
78 
48 
102 
110 
93 
86 
67 
56 
75 
71 
41 
45 
49 
50 
45 
41 
48 
55 
54 
50 
48 
67 
63 
91 
117 
137 
169 
189 
172 
192 
153 
160 
151 
166 
196 
206 
214 
211 
211 
211 
211 
212 
213 
213 
214 
214 
214 
214 
214 
214 
214 
215 
215 
214 
214 
214 
214 
214 
214 
214 
214 
214 
214 
214 
214 
214 
214 
214 
214 
215 
215 
215 
215 
215 
215 
215 
215 
215 
215 
215 
214 
214 
214 
214 
213 
215 
212 
210 
212 
216 
218 
217 
214 
221 
217 
214 
215 
218 
217 
212 
206 
218 
223 
222 
210 
203 
205 
140 
119 
138 
87 
77 
84 
79 
69 
85 
87 
61 
57 
57 
50 
45 
51 
50 
43 
44 
52 
52 
44 
61 
43 
40 
67 
110 
195 
195 
193 
209 
190 
166 
183 
213 
213 
213 
211 
211 
211 
212 
212 
213 
213 
213 
214 
214 
214 
214 
214 
214 
214 
214 
214 
214 
214 
214 
214 
214 
214 
214 
214 
214 
214 
214 
214 
214 
214 
214 
215 
215 
215 
215 
215 
215 
215 
215 
215 
215 
215 
214 
214 
214 
214 
214 
215 
217 
218 
216 
212 
211 
212 
215 
219 
217 
215 
215 
215 
214 
212 
209 
214 
216 
215 
211 
217 
230 
203 
205 
202 
153 
96 
68 
79 
90 
83 
64 
61 
80 
71 
59 
49 
55 
48 
47 
50 
53 
59 
48 
45 
60 
53 
42 
67 
113 
146 
176 
161 
114 
162 
216 
224 
221 
217 
212 
212 
212 
212 
212 
212 
212 
213 
213 
213 
214 
214 
215 
214 
214 
214 
214 
214 
214 
214 
214 
214 
214 
214 
215 
215 
215 
215 
215 
215 
215 
215 
215 
215 
215 
215 
215 
215 
215 
215 
215 
215 
215 
215 
214 
214 
214 
214 
212 
215 
218 
216 
212 
211 
214 
217 
216 
216 
216 
215 
213 
212 
212 
213 
212 
218 
221 
212 
207 
205 
204 
222 
213 
209 
155 
94 
94 
134 
120 
70 
62 
79 
54 
87 
74 
61 
77 
49 
45 
44 
51 
45 
51 
55 
51 
49 
45 
57 
67 
65 
75 
102 
170 
210 
218 
218 
218 
212 
212 
213 
213 
212 
212 
212 
212 
212 
213 
214 
214 
215 
214 
214 
213 
214 
214 
214 
214 
214 
215 
215 
215 
215 
215 
215 
215 
215 
215 
215 
215 
215 
215 
215 
215 
215 
215 
215 
215 
215 
215 
215 
215 
214 
214 
214 
214 
213 
212 
212 
214 
216 
217 
217 
216 
214 
216 
216 
216 
214 
213 
214 
215 
216 
213 
209 
210 
223 
217 
217 
216 
206 
234 
225 
176 
148 
187 
181 
126 
73 
73 
65 
74 
81 
85 
73 
64 
98 
87 
75 
91 
75 
52 
49 
69 
90 
73 
72 
65 
109 
198 
210 
215 
212 
214 
217 
212 
213 
213 
213 
213 
212 
212 
212 
212 
212 
213 
214 
215 
214 
214 
213 
215 
215 
215 
215 
215 
215 
215 
216 
215 
215 
215 
215 
215 
215 
215 
215 
215 
215 
215 
215 
215 
215 
215 
215 
215 
215 
215 
215 
215 
215 
214 
214 
217 
215 
213 
214 
217 
217 
214 
211 
214 
215 
216 
217 
217 
216 
215 
214 
211 
216 
216 
209 
212 
202 
213 
214 
200 
212 
221 
221 
209 
226 
225 
206 
199 
169 
148 
98 
57 
80 
113 
81 
103 
103 
74 
105 
66 
84 
97 
87 
100 
84 
88 
66 
97 
202 
221 
212 
221 
220 
218 
212 
212 
213 
213 
213 
213 
212 
212 
212 
212 
213 
213 
214 
214 
214 
213 
215 
215 
215 
215 
215 
216 
216 
216 
215 
215 
215 
215 
215 
215 
215 
215 
215 
215 
215 
215 
215 
215 
215 
215 
215 
215 
215 
215 
215 
215 
215 
215 
215 
216 
216 
216 
215 
214 
213 
213 
214 
214 
215 
217 
218 
218 
216 
214 
215 
212 
210 
208 
218 
217 
223 
215 
216 
216 
208 
214 
224 
219 
206 
211 
223 
237 
214 
194 
176 
165 
208 
162 
124 
151 
108 
82 
87 
138 
163 
116 
87 
105 
139 
166 
200 
205 
211 
219 
219 
219 
218 
212 
212 
213 
214 
214 
213 
212 
212 
212 
212 
212 
213 
213 
214 
214 
214 
214 
214 
214 
214 
215 
215 
215 
215 
215 
215 
215 
215 
215 
215 
215 
215 
215 
215 
215 
215 
215 
215 
215 
215 
215 
215 
215 
215 
215 
215 
215 
215 
212 
214 
217 
217 
215 
214 
215 
216 
214 
214 
215 
216 
217 
217 
216 
215 
212 
212 
220 
216 
212 
209 
213 
214 
212 
218 
212 
207 
219 
215 
210 
215 
201 
192 
213 
220 
218 
223 
233 
206 
187 
217 
184 
138 
175 
211 
223 
195 
184 
221 
219 
214 
237 
220 
213 
213 
212 
214 
216 
211 
212 
213 
214 
214 
213 
213 
212 
212 
212 
212 
212 
213 
213 
214 
214 
213 
213 
213 
213 
214 
214 
214 
214 
214 
214 
214 
214 
214 
214 
214 
214 
215 
215 
215 
215 
215 
215 
215 
215 
215 
215 
215 
215 
215 
215 
215 
215 
215 
215 
215 
216 
216 
216 
214 
213 
214 
214 
215 
215 
215 
215 
215 
216 
221 
210 
213 
215 
216 
218 
216 
216 
215 
210 
217 
214 
212 
209 
222 
223 
220 
215 
210 
204 
209 
216 
212 
205 
215 
221 
209 
219 
214 
228 
210 
223 
214 
226 
220 
217 
212 
219 
213 
217 
217 
216 
215 
212 
212 
212 
212 
212 
212 
212 
212 
212 
212 
212 
213 
214 
214 
214 
213 
212 
212 
213 
213 
214 
214 
214 
215 
215 
215 
215 
215 
215 
214 
214 
214 
215 
214 
214 
214 
214 
215 
215 
215 
215 
215 
215 
215 
215 
215 
215 
215 
215 
215 
215 
215 
215 
215 
215 
215 
215 
215 
215 
215 
215 
215 
215 
215 
215 
215 
215 
215 
215 
215 
216 
216 
214 
214 
215 
215 
214 
211 
208 
206 
213 
226 
225 
211 
210 
225 
225 
213 
218 
213 
209 
218 
217 
206 
208 
213 
213 
214 
215 
216 
216 
216 
215 
215 
215 
215 
215 
212 
212 
212 
212 
212 
212 
212 
212 
212 
212 
212 
213 
214 
214 
214 
213 
213 
213 
213 
214 
214 
214 
215 
215 
215 
215 
215 
215 
215 
214 
214 
214 
215 
214 
214 
214 
214 
215 
215 
215 
215 
215 
215 
215 
215 
215 
215 
215 
215 
215 
215 
215 
215 
215 
215 
215 
215 
215 
215 
215 
215 
215 
215 
215 
215 
215 
215 
215 
215 
215 
216 
216 
215 
214 
214 
215 
215 
215 
214 
213 
213 
206 
208 
216 
216 
207 
206 
212 
213 
213 
211 
215 
215 
211 
214 
213 
213 
214 
215 
216 
216 
216 
215 
215 
215 
215 
215 
212 
212 
212 
212 
212 
212 
212 
212 
212 
212 
212 
213 
214 
214 
214 
213 
213 
213 
214 
214 
214 
215 
215 
215 
215 
215 
215 
215 
215 
214 
214 
214 
214 
214 
214 
214 
214 
214 
215 
215 
215 
215 
215 
215 
215 
215 
215 
215 
215 
215 
215 
215 
215 
215 
215 
215 
215 
215 
215 
215 
215 
215 
215 
215 
215 
215 
215 
215 
215 
215 
216 
216 
215 
214 
214 
214 
215 
216 
217 
217 
215 
211 
213 
220 
220 
213 
211 
215 
209 
215 
213 
212 
213 
215 
218 
212 
213 
214 
215 
216 
216 
216 
215 
215 
215 
215 
215 
212 
212 
212 
212 
212 
212 
212 
212 
212 
212 
212 
212 
213 
214 
214 
213 
214 
214 
214 
215 
215 
215 
215 
215 
215 
215 
215 
215 
215 
214 
214 
214 
214 
214 
214 
214 
214 
214 
215 
215 
215 
215 
215 
215 
215 
215 
215 
215 
215 
215 
215 
215 
215 
215 
215 
215 
215 
215 
215 
215 
215 
215 
215 
215 
215 
215 
215 
215 
215 
215 
216 
216 
216 
215 
213 
213 
213 
214 
215 
215 
213 
218 
218 
212 
212 
217 
217 
213 
210 
217 
214 
213 
213 
215 
218 
211 
213 
214 
215 
216 
216 
216 
215 
215 
215 
215 
215 
212 
212 
212 
212 
212 
212 
212 
212 
212 
212 
212 
212 
213 
214 
214 
213 
214 
214 
214 
215 
215 
215 
215 
215 
215 
215 
215 
215 
215 
214 
214 
214 
214 
214 
214 
214 
214 
214 
215 
215 
215 
215 
215 
215 
215 
215 
215 
215 
215 
215 
215 
215 
215 
215 
215 
215 
215 
215 
215 
215 
215 
215 
215 
215 
215 
215 
215 
215 
215 
215 
216 
216 
215 
215 
214 
213 
213 
213 
212 
212 
215 
213 
211 
211 
211 
211 
212 
214 
212 
216 
213 
215 
215 
213 
216 
213 
213 
214 
215 
216 
216 
216 
216 
215 
215 
215 
215 
212 
212 
212 
212 
212 
212 
212 
212 
212 
212 
211 
212 
213 
214 
214 
214 
214 
214 
214 
215 
215 
215 
215 
215 
215 
215 
215 
215 
215 
214 
214 
214 
214 
214 
214 
214 
214 
214 
214 
215 
215 
215 
215 
215 
215 
215 
215 
215 
215 
215 
215 
215 
215 
215 
215 
215 
215 
215 
215 
215 
215 
215 
215 
215 
215 
215 
215 
215 
215 
215 
216 
216 
215 
215 
214 
214 
214 
214 
213 
212 
215 
214 
214 
214 
214 
213 
213 
214 
212 
214 
211 
215 
216 
212 
216 
215 
213 
213 
215 
216 
216 
216 
216 
215 
215 
215 
215 
212 
212 
212 
212 
212 
212 
212 
212 
212 
212 
211 
211 
212 
213 
214 
214 
214 
214 
214 
214 
214 
215 
215 
215 
215 
215 
215 
215 
215 
214 
214 
214 
214 
214 
214 
214 
214 
214 
214 
215 
215 
215 
215 
215 
215 
215 
215 
215 
215 
215 
215 
215 
215 
215 
215 
215 
215 
215 
215 
215 
215 
215 
215 
215 
215 
215 
215 
215 
215 
215 
216 
216 
216 
215 
215 
215 
215 
215 
215 
215 
210 
215 
215 
210 
210 
215 
214 
209 
211 
214 
211 
214 
215 
213 
216 
214 
213 
213 
215 
216 
216 
216 
216 
215 
215 
215 
215 
212 
212 
212 
212 
212 
212 
212 
212 
213 
212 
211 
211 
212 
213 
214 
214 
214 
214 
214 
214 
214 
214 
214 
214 
215 
215 
215 
215 
215 
214 
214 
214 
214 
214 
214 
214 
214 
214 
214 
215 
215 
215 
215 
215 
215 
215 
215 
215 
215 
215 
215 
215 
215 
215 
215 
215 
215 
215 
215 
215 
215 
215 
215 
215 
215 
215 
215 
215 
215 
215 
216 
216 
217 
216 
215 
214 
215 
215 
215 
215 
214 
215 
214 
212 
212 
214 
214 
214 
211 
215 
213 
213 
213 
213 
216 
212 
213 
213 
215 
216 
216 
216 
216 
216 
215 
215 
215 
212 
211 
211 
211 
211 
211 
212 
213 
212 
212 
212 
212 
213 
213 
214 
214 
215 
215 
214 
214 
214 
215 
215 
215 
215 
215 
215 
215 
215 
215 
215 
214 
214 
214 
214 
214 
214 
214 
214 
214 
214 
214 
214 
215 
215 
216 
216 
216 
215 
215 
215 
215 
215 
215 
215 
215 
215 
215 
215 
215 
215 
215 
215 
215 
215 
215 
215 
215 
215 
215 
215 
215 
215 
215 
215 
215 
215 
215 
215 
215 
214 
214 
213 
213 
213 
213 
214 
215 
212 
213 
214 
214 
214 
214 
214 
214 
214 
214 
214 
214 
215 
215 
216 
216 
216 
215 
215 
212 
211 
211 
211 
211 
211 
212 
212 
212 
212 
212 
212 
213 
213 
214 
214 
215 
214 
214 
214 
214 
215 
215 
215 
215 
215 
215 
215 
215 
215 
215 
214 
214 
214 
214 
214 
214 
214 
214 
214 
214 
214 
214 
215 
215 
216 
216 
216 
215 
215 
215 
215 
215 
215 
215 
215 
215 
215 
215 
215 
215 
215 
215 
215 
215 
215 
215 
215 
215 
215 
215 
215 
215 
215 
215 
215 
215 
215 
215 
215 
214 
214 
213 
212 
212 
213 
214 
214 
212 
213 
214 
214 
214 
214 
214 
214 
214 
214 
214 
214 
215 
215 
216 
216 
216 
215 
215 
212 
212 
211 
211 
211 
212 
212 
212 
212 
212 
212 
212 
212 
213 
214 
214 
214 
214 
214 
214 
214 
215 
215 
215 
215 
215 
215 
215 
215 
215 
215 
214 
214 
214 
214 
214 
214 
214 
214 
214 
214 
214 
214 
215 
215 
216 
216 
216 
215 
215 
215 
215 
215 
215 
215 
215 
215 
215 
215 
215 
215 
215 
215 
215 
215 
215 
215 
215 
215 
215 
215 
215 
215 
215 
215 
215 
215 
215 
215 
215 
214 
214 
213 
212 
212 
212 
213 
213 
212 
213 
214 
214 
214 
214 
214 
214 
214 
214 
214 
214 
215 
215 
216 
216 
216 
215 
215 
212 
212 
212 
212 
212 
212 
212 
212 
212 
212 
212 
212 
212 
213 
213 
214 
214 
214 
214 
214 
214 
215 
215 
215 
215 
215 
215 
215 
215 
215 
215 
214 
214 
214 
214 
214 
214 
214 
214 
214 
214 
214 
215 
215 
215 
215 
216 
216 
215 
215 
215 
215 
215 
215 
215 
215 
215 
215 
215 
215 
215 
215 
215 
215 
215 
215 
215 
215 
215 
215 
215 
215 
215 
215 
215 
215 
215 
215 
215 
215 
214 
214 
213 
212 
212 
212 
212 
212 
212 
213 
214 
214 
214 
214 
214 
214 
214 
214 
214 
214 
215 
215 
215 
216 
216 
215 
215 
213 
213 
213 
213 
213 
213 
212 
212 
212 
212 
212 
212 
212 
213 
213 
213 
214 
214 
214 
214 
214 
214 
215 
215 
215 
215 
215 
215 
215 
215 
215 
214 
214 
214 
214 
214 
214 
214 
214 
214 
214 
214 
215 
215 
215 
215 
216 
216 
215 
215 
215 
215 
215 
215 
215 
215 
215 
215 
215 
215 
215 
215 
215 
215 
215 
215 
215 
215 
215 
215 
215 
215 
215 
215 
215 
215 
215 
215 
215 
215 
214 
214 
213 
213 
212 
212 
211 
211 
212 
213 
214 
214 
214 
214 
214 
214 
214 
214 
214 
214 
214 
215 
215 
215 
216 
215 
215 
213 
213 
213 
213 
213 
213 
213 
212 
212 
212 
212 
212 
212 
212 
213 
213 
213 
213 
213 
214 
214 
214 
215 
215 
215 
215 
215 
215 
215 
215 
215 
214 
214 
214 
214 
214 
214 
214 
214 
214 
215 
215 
215 
215 
215 
215 
215 
215 
214 
214 
214 
214 
214 
214 
214 
214 
215 
215 
215 
215 
215 
215 
215 
215 
215 
215 
215 
215 
215 
215 
215 
215 
214 
214 
214 
214 
214 
214 
214 
214 
214 
214 
214 
213 
213 
212 
212 
212 
212 
213 
214 
214 
214 
214 
214 
214 
214 
214 
214 
214 
214 
215 
215 
215 
216 
215 
215 
213 
213 
214 
214 
214 
213 
213 
212 
212 
212 
212 
212 
212 
212 
212 
213 
213 
213 
213 
213 
214 
214 
215 
215 
215 
215 
215 
215 
215 
215 
215 
214 
214 
214 
214 
214 
214 
214 
214 
214 
215 
215 
215 
215 
215 
215 
215 
215 
214 
214 
214 
214 
214 
214 
214 
214 
215 
215 
215 
215 
215 
215 
215 
215 
215 
215 
215 
215 
215 
215 
215 
215 
214 
214 
214 
214 
214 
214 
214 
214 
214 
214 
214 
214 
213 
213 
213 
212 
212 
213 
214 
214 
214 
214 
214 
214 
214 
214 
214 
214 
214 
214 
215 
215 
216 
215 
215 
213 
214 
214 
214 
214 
213 
213 
212 
212 
212 
212 
212 
212 
212 
212 
213 
213 
213 
213 
213 
214 
214 
215 
215 
215 
215 
215 
215 
215 
215 
215 
214 
214 
214 
214 
214 
214 
214 
214 
214 
215 
215 
215 
215 
215 
215 
215 
215 
214 
214 
214 
214 
214 
214 
214 
214 
215 
215 
215 
215 
215 
215 
215 
215 
215 
215 
215 
215 
215 
215 
215 
215 
214 
214 
214 
214 
214 
214 
214 
214 
214 
214 
214 
214 
214 
214 
213 
213 
212 
213 
214 
214 
214 
214 
214 
214 
214 
214 
214 
214 
214 
214 
215 
215 
216 
215 
215 
213 
213 
213 
212 
212 
212 
212 
212 
212 
212 
212 
212 
212 
212 
212 
212 
212 
213 
213 
213 
214 
214 
214 
215 
215 
215 
215 
215 
215 
215 
215 
215 
214 
214 
214 
214 
214 
214 
214 
214 
214 
215 
215 
215 
215 
215 
215 
215 
215 
215 
214 
214 
214 
214 
214 
214 
215 
215 
215 
215 
215 
215 
215 
215 
214 
214 
215 
215 
215 
215 
215 
215 
215 
215 
214 
214 
214 
214 
214 
214 
213 
214 
215 
215 
215 
215 
214 
213 
214 
214 
214 
214 
214 
215 
215 
215 
215 
215 
215 
215 
215 
215 
215 
215 
215 
215 
215 
213 
213 
213 
212 
212 
212 
212 
212 
212 
212 
212 
212 
212 
212 
212 
212 
212 
213 
213 
213 
214 
214 
214 
215 
215 
215 
215 
215 
215 
215 
215 
215 
214 
214 
214 
214 
214 
214 
214 
214 
214 
215 
215 
215 
215 
215 
215 
215 
215 
215 
214 
214 
214 
214 
214 
214 
215 
215 
215 
215 
215 
215 
215 
215 
214 
214 
215 
215 
215 
215 
215 
215 
215 
215 
214 
214 
214 
214 
214 
214 
214 
214 
215 
216 
216 
215 
214 
214 
214 
214 
214 
214 
214 
215 
215 
215 
215 
215 
215 
215 
215 
215 
215 
215 
215 
215 
215 
212 
212 
212 
212 
212 
212 
212 
212 
212 
212 
212 
212 
212 
212 
212 
212 
212 
213 
213 
213 
214 
214 
214 
215 
215 
215 
215 
215 
215 
215 
215 
215 
214 
214 
214 
214 
214 
214 
214 
214 
214 
215 
215 
215 
215 
215 
215 
215 
215 
215 
214 
214 
214 
214 
214 
214 
214 
214 
214 
214 
214 
214 
214 
214 
214 
214 
215 
215 
215 
215 
215 
215 
215 
215 
214 
214 
214 
214 
214 
214 
214 
215 
215 
216 
216 
215 
215 
214 
214 
214 
214 
214 
215 
215 
215 
215 
215 
215 
215 
215 
215 
215 
215 
215 
215 
215 
215 
212 
212 
212 
212 
212 
212 
212 
212 
212 
212 
212 
212 
212 
212 
212 
212 
212 
213 
213 
213 
214 
214 
214 
215 
215 
215 
215 
215 
215 
215 
214 
214 
214 
214 
214 
214 
214 
214 
214 
214 
214 
215 
215 
215 
215 
215 
215 
215 
215 
215 
214 
214 
214 
214 
214 
214 
214 
214 
214 
214 
214 
214 
214 
214 
214 
214 
215 
215 
215 
215 
215 
215 
215 
215 
214 
214 
214 
214 
214 
214 
214 
214 
215 
215 
215 
215 
214 
214 
214 
214 
214 
214 
215 
215 
215 
215 
215 
215 
215 
215 
215 
215 
215 
215 
215 
215 
215 
212 
212 
212 
212 
212 
212 
212 
212 
212 
212 
212 
212 
212 
212 
212 
212 
212 
213 
213 
213 
214 
214 
214 
215 
215 
215 
215 
215 
214 
214 
214 
214 
214 
214 
214 
214 
214 
214 
214 
214 
214 
215 
215 
215 
215 
215 
215 
215 
215 
215 
214 
214 
214 
214 
214 
214 
214 
214 
214 
214 
214 
214 
214 
214 
214 
214 
215 
215 
215 
215 
215 
215 
215 
215 
214 
214 
214 
214 
214 
214 
214 
214 
214 
214 
214 
214 
214 
214 
214 
214 
214 
215 
215 
215 
215 
215 
215 
215 
215 
215 
215 
215 
215 
215 
215 
215 
215 
