P2
# Created by MsrVolt
73 65
255
218 
218 
218 
218 
218 
218 
218 
218 
218 
218 
218 
218 
218 
218 
218 
218 
219 
219 
219 
218 
218 
218 
218 
219 
219 
219 
218 
217 
217 
217 
218 
218 
215 
216 
217 
218 
219 
220 
221 
221 
220 
219 
218 
217 
217 
217 
218 
218 
219 
219 
219 
219 
219 
219 
218 
218 
219 
219 
219 
219 
219 
219 
219 
219 
219 
219 
219 
218 
219 
219 
220 
220 
220 
218 
218 
218 
218 
218 
218 
218 
218 
218 
218 
218 
218 
218 
218 
218 
218 
219 
219 
219 
218 
218 
218 
217 
217 
217 
217 
217 
216 
216 
216 
217 
217 
218 
218 
219 
219 
219 
219 
219 
219 
216 
216 
217 
217 
218 
218 
218 
218 
219 
219 
219 
219 
219 
219 
219 
218 
219 
219 
219 
219 
219 
219 
219 
219 
219 
219 
219 
218 
219 
219 
220 
220 
220 
218 
218 
218 
218 
218 
218 
218 
218 
218 
218 
218 
218 
218 
218 
218 
218 
218 
218 
218 
217 
217 
216 
216 
216 
215 
215 
215 
216 
216 
216 
216 
217 
220 
220 
219 
218 
217 
216 
215 
215 
211 
213 
215 
217 
218 
219 
218 
218 
219 
219 
219 
219 
219 
219 
219 
219 
219 
219 
219 
219 
219 
219 
219 
219 
219 
219 
219 
218 
219 
219 
220 
220 
220 
218 
218 
218 
218 
218 
218 
218 
218 
218 
218 
218 
218 
218 
218 
218 
218 
218 
218 
216 
215 
214 
214 
214 
214 
214 
214 
215 
217 
217 
217 
217 
217 
219 
219 
218 
217 
215 
214 
212 
211 
210 
211 
214 
216 
218 
218 
218 
218 
219 
219 
219 
219 
219 
219 
219 
219 
219 
219 
219 
219 
219 
219 
219 
219 
219 
219 
219 
218 
219 
219 
220 
220 
220 
218 
218 
218 
218 
218 
218 
218 
218 
218 
218 
218 
218 
218 
218 
218 
218 
218 
217 
215 
213 
212 
213 
213 
214 
213 
212 
213 
216 
216 
215 
215 
217 
218 
218 
217 
216 
215 
214 
213 
212 
212 
212 
214 
215 
217 
218 
218 
218 
219 
219 
219 
219 
219 
219 
219 
219 
219 
219 
219 
219 
219 
219 
219 
219 
219 
219 
219 
218 
219 
219 
220 
220 
220 
218 
218 
218 
218 
218 
218 
218 
218 
218 
218 
218 
218 
218 
218 
218 
218 
218 
217 
215 
214 
213 
213 
214 
214 
211 
209 
210 
213 
214 
212 
212 
215 
217 
217 
217 
217 
216 
216 
215 
215 
215 
215 
215 
216 
217 
217 
218 
219 
219 
219 
219 
219 
219 
219 
220 
220 
219 
219 
219 
219 
219 
219 
219 
219 
219 
219 
219 
218 
219 
219 
220 
220 
220 
218 
218 
218 
218 
218 
218 
218 
218 
218 
218 
218 
218 
218 
218 
218 
218 
217 
217 
217 
217 
217 
216 
214 
214 
211 
208 
208 
211 
212 
210 
211 
214 
216 
216 
217 
217 
217 
217 
217 
217 
217 
217 
217 
218 
218 
218 
218 
219 
219 
219 
219 
219 
219 
220 
220 
220 
219 
219 
219 
219 
219 
219 
219 
219 
219 
219 
219 
218 
219 
219 
220 
220 
220 
218 
218 
218 
218 
218 
218 
218 
218 
218 
218 
218 
218 
218 
218 
218 
218 
216 
217 
219 
220 
220 
218 
215 
213 
212 
208 
208 
211 
212 
210 
211 
214 
215 
215 
216 
216 
217 
217 
217 
217 
218 
218 
219 
219 
219 
219 
219 
219 
219 
219 
219 
219 
220 
220 
220 
220 
219 
219 
219 
219 
219 
219 
219 
219 
219 
219 
219 
218 
219 
219 
220 
220 
220 
218 
218 
218 
218 
218 
218 
218 
218 
219 
218 
217 
217 
217 
218 
218 
217 
216 
217 
219 
218 
216 
215 
214 
213 
210 
212 
211 
212 
214 
212 
211 
215 
212 
214 
216 
216 
216 
216 
218 
220 
219 
218 
218 
217 
218 
219 
219 
219 
219 
219 
219 
219 
220 
220 
220 
220 
219 
219 
218 
218 
218 
218 
218 
218 
219 
219 
219 
219 
219 
219 
220 
220 
220 
218 
218 
218 
218 
218 
218 
218 
218 
218 
217 
217 
217 
217 
218 
218 
217 
217 
217 
218 
219 
219 
218 
215 
211 
211 
212 
210 
210 
214 
214 
212 
213 
214 
215 
217 
217 
216 
216 
217 
219 
221 
220 
219 
219 
219 
220 
220 
219 
219 
219 
219 
219 
220 
220 
220 
220 
219 
218 
218 
218 
218 
218 
218 
218 
219 
219 
219 
219 
219 
219 
220 
220 
220 
217 
217 
217 
217 
217 
217 
217 
217 
217 
217 
216 
217 
217 
218 
218 
217 
219 
218 
219 
221 
223 
222 
218 
215 
213 
215 
212 
210 
215 
218 
216 
214 
216 
217 
218 
218 
217 
217 
218 
219 
221 
220 
219 
219 
220 
220 
219 
219 
219 
219 
219 
219 
219 
220 
220 
220 
219 
219 
219 
218 
218 
218 
218 
218 
219 
219 
219 
219 
219 
219 
220 
220 
220 
217 
217 
217 
217 
217 
217 
217 
217 
217 
217 
217 
217 
218 
219 
218 
218 
219 
218 
218 
218 
215 
212 
210 
211 
213 
217 
215 
211 
214 
218 
216 
214 
217 
218 
219 
219 
219 
219 
220 
221 
221 
220 
219 
219 
219 
219 
219 
218 
218 
219 
219 
219 
219 
220 
220 
220 
220 
220 
220 
219 
219 
219 
219 
219 
219 
219 
219 
219 
219 
219 
220 
220 
220 
217 
217 
217 
217 
217 
217 
217 
217 
217 
217 
217 
218 
219 
219 
218 
218 
216 
216 
215 
209 
199 
192 
194 
200 
210 
217 
216 
211 
213 
216 
215 
215 
218 
218 
219 
220 
220 
221 
222 
222 
221 
220 
220 
220 
220 
220 
219 
219 
218 
218 
219 
219 
219 
219 
220 
220 
221 
221 
221 
220 
220 
220 
219 
219 
219 
219 
219 
219 
219 
219 
220 
220 
220 
217 
217 
217 
217 
217 
217 
217 
217 
218 
217 
218 
218 
219 
219 
218 
217 
213 
213 
212 
206 
195 
188 
192 
201 
209 
217 
217 
214 
215 
216 
216 
218 
217 
218 
218 
219 
220 
221 
222 
222 
220 
220 
220 
220 
221 
221 
220 
220 
218 
218 
219 
219 
219 
219 
220 
220 
221 
221 
221 
220 
220 
220 
219 
219 
219 
219 
219 
219 
219 
219 
220 
220 
220 
217 
217 
217 
217 
217 
217 
217 
217 
217 
217 
217 
218 
218 
217 
216 
215 
212 
211 
210 
208 
202 
196 
199 
205 
208 
213 
214 
214 
217 
217 
216 
219 
217 
217 
217 
218 
219 
220 
220 
220 
218 
218 
218 
219 
220 
220 
219 
219 
218 
218 
218 
219 
219 
219 
219 
220 
221 
221 
220 
220 
219 
219 
219 
219 
219 
219 
219 
219 
219 
219 
220 
220 
220 
217 
217 
217 
217 
217 
217 
217 
217 
217 
216 
217 
217 
217 
216 
215 
213 
212 
208 
206 
207 
204 
199 
197 
199 
204 
206 
207 
211 
216 
215 
213 
216 
216 
216 
216 
217 
218 
218 
218 
218 
215 
215 
216 
217 
218 
218 
218 
217 
218 
218 
218 
219 
219 
219 
219 
219 
220 
220 
220 
219 
219 
218 
218 
218 
219 
219 
219 
219 
219 
219 
220 
220 
220 
217 
217 
217 
215 
216 
218 
218 
216 
216 
218 
219 
217 
216 
215 
213 
210 
213 
209 
206 
204 
203 
203 
204 
205 
202 
206 
202 
201 
212 
217 
213 
212 
212 
215 
216 
213 
212 
214 
217 
218 
218 
218 
219 
219 
217 
216 
217 
219 
217 
218 
219 
220 
220 
219 
218 
217 
219 
219 
220 
219 
218 
218 
218 
219 
219 
219 
219 
219 
219 
219 
220 
220 
221 
215 
216 
217 
217 
218 
221 
221 
219 
216 
217 
217 
215 
214 
213 
214 
214 
211 
210 
207 
206 
207 
208 
210 
211 
210 
207 
202 
203 
210 
212 
211 
212 
211 
214 
215 
214 
214 
215 
215 
213 
218 
218 
220 
222 
223 
223 
219 
215 
217 
218 
219 
219 
219 
219 
218 
218 
219 
219 
219 
219 
218 
218 
218 
219 
219 
219 
219 
219 
219 
219 
220 
220 
222 
216 
217 
217 
217 
217 
218 
217 
215 
212 
216 
221 
222 
220 
216 
214 
214 
212 
212 
211 
210 
210 
211 
213 
214 
212 
203 
201 
206 
209 
209 
211 
212 
211 
210 
209 
209 
210 
211 
210 
207 
213 
216 
219 
220 
221 
222 
219 
214 
218 
218 
218 
219 
219 
219 
219 
218 
218 
219 
219 
219 
218 
218 
218 
219 
219 
219 
219 
219 
219 
219 
220 
220 
220 
217 
218 
218 
217 
216 
217 
215 
212 
211 
216 
222 
223 
219 
215 
213 
213 
214 
215 
215 
212 
211 
211 
213 
213 
210 
203 
205 
209 
208 
209 
211 
206 
207 
204 
201 
202 
207 
211 
212 
210 
210 
215 
218 
216 
215 
218 
220 
219 
218 
218 
218 
218 
218 
219 
219 
219 
218 
219 
219 
219 
218 
218 
218 
219 
219 
219 
219 
219 
219 
219 
220 
220 
218 
216 
217 
218 
217 
218 
219 
218 
216 
215 
219 
218 
212 
207 
208 
212 
215 
214 
215 
215 
213 
212 
213 
214 
213 
212 
210 
212 
210 
206 
210 
211 
201 
203 
199 
198 
202 
208 
214 
216 
216 
212 
215 
217 
216 
217 
220 
222 
221 
218 
218 
218 
218 
219 
219 
219 
219 
218 
218 
219 
219 
218 
218 
218 
219 
219 
219 
219 
219 
219 
219 
219 
220 
218 
216 
217 
217 
217 
217 
218 
217 
215 
216 
221 
218 
206 
201 
206 
212 
211 
211 
213 
213 
212 
214 
217 
216 
213 
211 
213 
213 
207 
205 
212 
213 
206 
203 
201 
201 
204 
207 
208 
208 
208 
212 
212 
213 
217 
222 
224 
221 
217 
217 
217 
218 
219 
219 
219 
219 
219 
217 
218 
219 
218 
218 
218 
218 
219 
219 
219 
219 
219 
219 
219 
219 
220 
219 
217 
218 
217 
215 
215 
216 
215 
213 
215 
223 
219 
204 
199 
207 
212 
207 
209 
211 
211 
210 
213 
216 
214 
209 
208 
212 
210 
205 
207 
210 
209 
208 
207 
205 
204 
203 
201 
198 
197 
199 
208 
208 
212 
218 
221 
218 
216 
217 
216 
217 
218 
219 
219 
219 
219 
219 
217 
218 
218 
218 
218 
218 
218 
219 
219 
219 
219 
219 
219 
219 
219 
219 
219 
216 
217 
216 
216 
217 
219 
219 
217 
218 
225 
216 
195 
190 
204 
213 
208 
210 
211 
209 
208 
210 
213 
209 
203 
209 
213 
210 
207 
208 
204 
199 
201 
209 
206 
204 
201 
197 
195 
197 
201 
203 
207 
216 
221 
217 
210 
214 
223 
216 
217 
218 
219 
220 
220 
219 
218 
217 
218 
218 
218 
218 
218 
218 
219 
220 
219 
219 
219 
219 
219 
219 
219 
219 
217 
217 
217 
217 
217 
217 
217 
217 
217 
218 
214 
206 
207 
212 
210 
203 
207 
210 
213 
212 
210 
209 
207 
204 
212 
217 
210 
202 
202 
192 
186 
195 
212 
212 
206 
201 
201 
201 
205 
213 
203 
211 
208 
204 
207 
205 
203 
208 
219 
218 
218 
219 
221 
222 
221 
219 
218 
218 
217 
217 
217 
217 
218 
219 
219 
219 
218 
218 
218 
219 
219 
220 
220 
217 
217 
217 
217 
217 
217 
217 
217 
216 
218 
216 
211 
209 
210 
207 
201 
205 
210 
212 
211 
211 
213 
210 
206 
203 
210 
210 
209 
205 
189 
187 
204 
206 
204 
199 
199 
201 
199 
202 
211 
205 
214 
204 
203 
211 
206 
202 
201 
206 
212 
218 
218 
217 
218 
220 
220 
219 
219 
218 
218 
217 
217 
217 
217 
219 
219 
220 
220 
220 
220 
220 
220 
220 
218 
217 
217 
217 
217 
217 
216 
216 
216 
219 
219 
216 
212 
208 
205 
203 
206 
211 
213 
210 
211 
214 
211 
204 
200 
203 
208 
217 
215 
198 
196 
214 
208 
202 
196 
197 
201 
198 
197 
202 
205 
219 
202 
204 
214 
206 
206 
205 
200 
208 
213 
212 
212 
216 
219 
219 
215 
216 
218 
218 
218 
218 
218 
219 
219 
220 
220 
221 
221 
221 
220 
220 
220 
218 
218 
218 
218 
217 
217 
217 
217 
218 
219 
220 
218 
212 
208 
208 
212 
210 
215 
215 
210 
210 
213 
208 
199 
200 
199 
203 
216 
222 
211 
205 
215 
210 
203 
193 
192 
200 
202 
198 
196 
201 
221 
201 
203 
211 
201 
210 
213 
206 
208 
206 
204 
208 
217 
220 
217 
212 
215 
217 
219 
219 
219 
219 
220 
220 
220 
220 
220 
220 
220 
219 
219 
220 
219 
219 
218 
218 
218 
218 
218 
217 
218 
218 
218 
215 
210 
208 
212 
219 
214 
217 
216 
211 
211 
212 
207 
199 
201 
200 
202 
211 
218 
215 
209 
209 
208 
202 
190 
188 
201 
212 
207 
200 
199 
217 
199 
202 
208 
198 
209 
209 
209 
210 
207 
203 
207 
215 
219 
217 
213 
216 
218 
219 
218 
217 
217 
217 
222 
221 
220 
220 
219 
219 
220 
220 
220 
218 
218 
218 
218 
218 
218 
218 
218 
217 
217 
215 
212 
208 
208 
213 
218 
214 
216 
216 
213 
212 
213 
210 
205 
208 
210 
213 
215 
215 
215 
213 
211 
211 
206 
195 
194 
209 
219 
214 
206 
206 
215 
202 
206 
211 
205 
209 
202 
206 
210 
212 
210 
209 
212 
216 
218 
211 
213 
216 
216 
215 
215 
216 
218 
221 
221 
221 
220 
220 
221 
221 
221 
220 
216 
217 
217 
217 
217 
218 
218 
218 
216 
217 
215 
212 
209 
209 
210 
211 
211 
211 
212 
212 
212 
212 
212 
211 
215 
216 
220 
220 
216 
216 
217 
215 
215 
209 
202 
206 
216 
217 
212 
210 
213 
214 
208 
210 
211 
211 
215 
208 
207 
209 
212 
213 
211 
209 
211 
215 
211 
213 
214 
213 
211 
211 
213 
215 
217 
217 
219 
220 
221 
221 
221 
220 
220 
215 
215 
216 
216 
217 
217 
217 
217 
216 
218 
218 
214 
212 
211 
208 
204 
208 
207 
208 
211 
211 
210 
211 
214 
215 
212 
214 
217 
215 
216 
216 
213 
210 
204 
202 
212 
219 
212 
206 
210 
213 
210 
212 
211 
205 
210 
220 
219 
213 
208 
207 
211 
213 
210 
208 
209 
217 
217 
216 
212 
207 
204 
205 
206 
211 
213 
216 
219 
220 
220 
219 
218 
220 
215 
216 
216 
217 
216 
216 
215 
215 
214 
216 
218 
218 
212 
197 
189 
193 
212 
212 
212 
213 
215 
215 
215 
214 
215 
209 
218 
218 
213 
214 
211 
207 
203 
206 
207 
211 
213 
204 
202 
213 
213 
212 
213 
209 
204 
208 
216 
219 
213 
206 
204 
209 
212 
210 
208 
208 
217 
218 
213 
204 
199 
195 
196 
201 
210 
212 
215 
218 
220 
221 
220 
218 
220 
216 
216 
216 
216 
216 
216 
215 
215 
212 
213 
214 
218 
221 
214 
206 
206 
209 
210 
211 
212 
213 
214 
214 
214 
214 
211 
215 
212 
207 
208 
207 
209 
209 
209 
209 
210 
209 
204 
204 
211 
216 
213 
212 
210 
208 
212 
217 
216 
213 
208 
208 
212 
213 
211 
208 
209 
218 
217 
212 
206 
202 
196 
195 
200 
207 
210 
213 
217 
220 
222 
222 
221 
221 
216 
216 
216 
216 
216 
216 
215 
215 
215 
217 
215 
217 
222 
221 
217 
216 
210 
212 
212 
212 
211 
211 
212 
213 
210 
205 
201 
195 
198 
206 
208 
215 
213 
211 
213 
213 
209 
207 
209 
211 
213 
209 
207 
208 
209 
214 
216 
212 
210 
209 
211 
214 
214 
211 
209 
209 
217 
215 
211 
208 
205 
196 
193 
198 
207 
208 
211 
216 
220 
222 
222 
222 
221 
216 
216 
216 
216 
216 
216 
216 
216 
216 
221 
218 
214 
215 
217 
218 
221 
216 
216 
215 
212 
209 
208 
210 
212 
211 
202 
190 
182 
193 
205 
207 
216 
208 
208 
214 
215 
208 
207 
211 
210 
207 
203 
201 
202 
206 
213 
214 
207 
206 
208 
212 
215 
214 
211 
209 
208 
212 
210 
209 
210 
207 
197 
194 
201 
209 
207 
209 
215 
220 
221 
220 
221 
221 
217 
217 
216 
216 
216 
216 
216 
216 
214 
218 
216 
212 
214 
218 
219 
220 
219 
218 
215 
211 
207 
206 
209 
212 
214 
208 
197 
186 
192 
200 
199 
206 
203 
204 
211 
211 
202 
202 
208 
209 
211 
207 
204 
201 
202 
209 
211 
205 
203 
207 
210 
212 
213 
212 
210 
208 
205 
205 
207 
210 
209 
201 
200 
209 
211 
207 
207 
214 
220 
220 
219 
220 
220 
217 
217 
216 
216 
216 
216 
216 
216 
215 
216 
213 
214 
221 
224 
219 
214 
218 
216 
214 
210 
208 
208 
211 
214 
207 
209 
209 
198 
194 
195 
191 
196 
205 
206 
210 
209 
202 
199 
205 
210 
220 
217 
212 
203 
197 
202 
208 
205 
205 
206 
206 
206 
209 
212 
212 
209 
200 
202 
204 
208 
210 
206 
206 
214 
211 
205 
205 
213 
220 
219 
219 
221 
220 
217 
217 
216 
216 
216 
216 
216 
217 
218 
217 
213 
215 
222 
222 
215 
210 
218 
216 
214 
212 
212 
213 
214 
215 
204 
205 
212 
206 
199 
200 
196 
194 
208 
209 
210 
212 
210 
204 
203 
210 
220 
220 
215 
200 
187 
192 
204 
208 
207 
205 
199 
196 
201 
209 
211 
208 
200 
201 
199 
202 
207 
207 
207 
211 
212 
204 
203 
212 
220 
219 
218 
221 
219 
218 
217 
216 
216 
216 
216 
216 
217 
215 
216 
213 
214 
217 
216 
213 
215 
219 
218 
217 
216 
216 
217 
216 
216 
211 
206 
212 
209 
207 
212 
206 
196 
206 
208 
209 
215 
218 
208 
201 
207 
213 
215 
211 
194 
179 
185 
201 
210 
209 
203 
193 
188 
194 
206 
209 
206 
202 
201 
196 
197 
204 
206 
203 
203 
213 
204 
202 
212 
219 
218 
217 
220 
220 
217 
217 
217 
217 
216 
216 
216 
216 
215 
216 
217 
218 
218 
218 
217 
217 
217 
218 
219 
219 
218 
217 
218 
220 
214 
213 
209 
216 
209 
204 
218 
209 
206 
219 
214 
216 
218 
210 
209 
204 
213 
207 
201 
199 
199 
201 
206 
210 
212 
211 
206 
202 
205 
211 
212 
208 
206 
202 
205 
198 
200 
208 
199 
194 
203 
209 
211 
212 
216 
218 
217 
218 
219 
217 
217 
217 
217 
216 
216 
216 
216 
215 
216 
217 
218 
218 
218 
217 
217 
217 
218 
218 
217 
216 
216 
216 
216 
216 
210 
207 
206 
210 
202 
218 
222 
213 
211 
219 
225 
220 
209 
204 
207 
210 
207 
205 
205 
206 
207 
211 
215 
216 
216 
215 
214 
215 
216 
213 
208 
212 
208 
205 
202 
208 
205 
193 
201 
201 
203 
210 
219 
222 
219 
217 
217 
219 
217 
217 
217 
217 
216 
216 
216 
216 
215 
216 
217 
217 
218 
217 
217 
217 
218 
217 
216 
216 
216 
216 
215 
215 
217 
209 
207 
196 
208 
193 
200 
222 
214 
201 
205 
196 
187 
192 
197 
211 
213 
212 
212 
211 
210 
210 
213 
217 
218 
216 
216 
217 
216 
210 
205 
202 
199 
204 
205 
203 
205 
192 
185 
210 
214 
208 
214 
222 
219 
218 
222 
224 
219 
217 
217 
217 
217 
216 
216 
216 
216 
215 
216 
216 
217 
217 
217 
217 
217 
217 
216 
216 
217 
218 
219 
219 
217 
215 
212 
211 
198 
205 
183 
171 
205 
201 
206 
201 
177 
174 
192 
203 
214 
213 
213 
212 
210 
207 
208 
213 
218 
218 
213 
210 
210 
205 
197 
194 
195 
197 
203 
206 
203 
200 
190 
185 
197 
199 
202 
218 
227 
217 
213 
218 
217 
220 
217 
217 
217 
217 
216 
216 
216 
216 
216 
216 
216 
217 
217 
217 
217 
217 
217 
216 
216 
217 
219 
220 
220 
219 
212 
217 
217 
211 
207 
189 
162 
200 
176 
211 
209 
197 
204 
208 
208 
205 
206 
209 
210 
208 
206 
208 
213 
217 
218 
212 
208 
206 
200 
192 
191 
196 
206 
201 
198 
196 
195 
198 
190 
167 
144 
168 
208 
227 
221 
220 
222 
215 
221 
217 
217 
217 
217 
216 
216 
216 
216 
216 
216 
216 
216 
216 
217 
217 
217 
217 
217 
217 
217 
218 
218 
218 
217 
213 
221 
220 
222 
215 
207 
181 
213 
178 
211 
212 
215 
225 
215 
209 
207 
207 
212 
216 
215 
213 
213 
214 
215 
215 
212 
210 
209 
203 
196 
196 
201 
201 
197 
197 
197 
195 
207 
207 
175 
151 
177 
210 
223 
219 
222 
227 
224 
221 
217 
217 
217 
217 
216 
216 
216 
216 
216 
216 
216 
216 
216 
217 
217 
217 
217 
218 
218 
217 
216 
216 
216 
216 
216 
220 
220 
222 
221 
219 
203 
220 
207 
214 
217 
221 
222 
216 
215 
217 
213 
218 
221 
220 
218 
217 
216 
215 
214 
214 
215 
212 
206 
201 
202 
206 
201 
206 
207 
208 
205 
211 
221 
209 
208 
218 
225 
223 
216 
215 
219 
221 
221 
217 
217 
217 
217 
216 
216 
216 
216 
216 
216 
216 
216 
216 
216 
217 
217 
217 
218 
219 
218 
217 
216 
217 
218 
218 
218 
218 
218 
222 
221 
212 
215 
221 
211 
224 
223 
213 
217 
215 
212 
213 
217 
219 
217 
216 
217 
218 
218 
217 
219 
219 
214 
207 
204 
205 
209 
212 
214 
206 
207 
207 
202 
211 
212 
215 
219 
223 
226 
227 
223 
220 
222 
220 
217 
217 
217 
217 
216 
216 
216 
216 
216 
216 
216 
216 
217 
217 
218 
218 
218 
218 
218 
218 
218 
217 
217 
217 
215 
218 
219 
218 
219 
219 
213 
205 
212 
209 
212 
218 
218 
213 
212 
216 
213 
213 
214 
215 
217 
218 
218 
217 
217 
217 
217 
217 
212 
208 
208 
212 
214 
212 
208 
205 
204 
205 
209 
211 
214 
218 
220 
217 
216 
219 
221 
219 
218 
217 
217 
217 
217 
217 
216 
216 
216 
216 
216 
216 
216 
217 
217 
218 
218 
218 
218 
218 
218 
218 
217 
217 
217 
215 
218 
219 
218 
220 
221 
216 
209 
203 
205 
210 
216 
216 
213 
214 
217 
219 
218 
217 
216 
216 
216 
217 
217 
219 
218 
218 
219 
217 
214 
214 
215 
217 
216 
213 
211 
210 
212 
215 
218 
217 
220 
220 
218 
219 
223 
223 
220 
219 
217 
217 
217 
217 
217 
217 
216 
216 
216 
216 
216 
216 
217 
217 
218 
218 
218 
218 
218 
218 
218 
218 
218 
218 
217 
218 
218 
218 
219 
220 
217 
211 
202 
208 
215 
218 
217 
217 
217 
218 
217 
218 
218 
217 
216 
215 
215 
216 
217 
216 
216 
217 
218 
217 
216 
217 
216 
215 
214 
213 
214 
215 
218 
220 
219 
220 
220 
219 
221 
224 
224 
220 
220 
217 
217 
217 
217 
217 
217 
217 
217 
216 
216 
216 
216 
217 
217 
218 
218 
218 
218 
218 
218 
218 
218 
218 
218 
218 
219 
218 
217 
217 
218 
216 
212 
212 
218 
221 
220 
218 
218 
217 
214 
210 
214 
218 
220 
218 
216 
215 
216 
216 
215 
215 
215 
215 
215 
216 
217 
214 
214 
214 
214 
214 
216 
217 
219 
219 
219 
219 
219 
220 
223 
222 
220 
220 
217 
217 
217 
217 
217 
217 
217 
217 
216 
216 
216 
216 
217 
217 
218 
218 
218 
218 
218 
218 
218 
218 
218 
218 
219 
219 
218 
217 
217 
218 
217 
215 
218 
221 
220 
216 
215 
216 
213 
209 
210 
213 
217 
218 
217 
215 
215 
216 
216 
217 
217 
214 
212 
212 
215 
218 
216 
217 
218 
218 
218 
218 
219 
220 
217 
219 
220 
219 
219 
220 
221 
221 
220 
217 
217 
217 
217 
217 
217 
217 
217 
216 
216 
216 
216 
217 
217 
218 
218 
218 
218 
218 
218 
218 
218 
218 
218 
219 
219 
218 
218 
219 
220 
220 
219 
219 
219 
217 
214 
214 
216 
215 
211 
215 
215 
214 
212 
210 
209 
211 
212 
214 
217 
216 
213 
210 
211 
214 
217 
219 
220 
220 
220 
220 
219 
220 
220 
218 
220 
221 
221 
220 
220 
221 
222 
220 
217 
217 
217 
217 
217 
217 
217 
218 
216 
216 
216 
216 
217 
217 
218 
218 
218 
218 
218 
218 
218 
219 
219 
219 
219 
218 
218 
219 
220 
220 
220 
220 
219 
219 
218 
217 
218 
220 
220 
220 
218 
215 
212 
208 
207 
207 
209 
210 
213 
215 
216 
213 
212 
213 
215 
216 
219 
219 
220 
220 
219 
218 
219 
219 
219 
219 
220 
220 
221 
221 
221 
222 
221 
217 
217 
217 
217 
217 
217 
218 
218 
216 
216 
216 
216 
217 
217 
218 
218 
218 
218 
218 
218 
218 
219 
219 
219 
219 
219 
218 
219 
219 
218 
218 
218 
220 
220 
221 
221 
221 
221 
223 
225 
219 
217 
213 
211 
211 
212 
213 
213 
215 
216 
217 
216 
217 
219 
220 
218 
219 
219 
220 
219 
218 
218 
218 
219 
220 
218 
218 
219 
221 
221 
220 
220 
221 
217 
217 
217 
217 
217 
218 
218 
218 
216 
216 
216 
216 
217 
217 
217 
217 
217 
218 
218 
219 
219 
219 
219 
218 
219 
219 
219 
219 
219 
219 
219 
219 
219 
219 
220 
221 
222 
223 
223 
224 
219 
219 
219 
218 
217 
217 
216 
215 
215 
216 
218 
218 
218 
219 
219 
220 
220 
220 
220 
219 
219 
219 
219 
219 
219 
219 
219 
219 
220 
220 
221 
221 
221 
217 
217 
217 
217 
217 
217 
218 
218 
217 
217 
217 
217 
217 
217 
217 
217 
217 
217 
218 
219 
219 
219 
219 
218 
219 
219 
219 
219 
219 
219 
219 
219 
219 
219 
219 
220 
220 
221 
221 
221 
220 
220 
219 
219 
218 
217 
216 
216 
216 
217 
219 
219 
219 
219 
220 
220 
220 
220 
220 
219 
219 
219 
219 
219 
219 
219 
219 
219 
219 
220 
220 
221 
221 
217 
217 
217 
217 
217 
217 
217 
218 
217 
217 
217 
217 
217 
216 
216 
216 
217 
217 
218 
219 
219 
219 
219 
218 
219 
219 
219 
219 
219 
219 
219 
219 
219 
219 
219 
219 
219 
219 
219 
219 
220 
220 
220 
219 
219 
218 
217 
217 
217 
219 
220 
221 
221 
220 
220 
220 
220 
220 
220 
219 
219 
219 
219 
220 
219 
219 
219 
219 
219 
219 
220 
220 
220 
217 
217 
217 
217 
217 
217 
217 
217 
218 
218 
218 
217 
217 
216 
216 
216 
216 
217 
218 
219 
219 
219 
219 
218 
219 
219 
219 
219 
219 
219 
219 
219 
219 
219 
219 
219 
219 
219 
218 
218 
220 
220 
220 
220 
220 
219 
218 
218 
218 
219 
221 
221 
221 
220 
220 
220 
220 
220 
219 
219 
219 
219 
220 
220 
219 
218 
218 
218 
218 
219 
219 
219 
220 
217 
217 
217 
217 
217 
217 
217 
217 
218 
218 
218 
217 
217 
216 
216 
215 
216 
217 
218 
218 
219 
219 
219 
218 
219 
219 
219 
219 
219 
219 
219 
219 
219 
219 
219 
219 
219 
219 
219 
219 
220 
220 
220 
220 
220 
220 
219 
219 
219 
220 
221 
221 
220 
220 
219 
220 
220 
220 
219 
219 
219 
219 
220 
220 
219 
218 
218 
218 
218 
219 
219 
219 
220 
218 
217 
217 
217 
217 
217 
217 
217 
218 
218 
218 
217 
217 
216 
216 
216 
216 
216 
217 
218 
219 
219 
219 
218 
219 
219 
219 
219 
219 
219 
219 
219 
219 
219 
219 
219 
219 
220 
220 
220 
219 
220 
220 
220 
220 
220 
220 
220 
219 
220 
220 
220 
219 
219 
219 
219 
220 
219 
219 
219 
219 
220 
220 
220 
219 
219 
219 
218 
218 
219 
219 
219 
219 
218 
218 
217 
217 
217 
217 
217 
217 
218 
218 
218 
217 
217 
217 
216 
216 
216 
216 
217 
218 
219 
219 
219 
218 
219 
219 
219 
219 
219 
219 
219 
219 
219 
219 
219 
219 
219 
219 
219 
219 
219 
219 
220 
220 
220 
220 
220 
220 
221 
221 
221 
220 
219 
219 
219 
220 
219 
219 
219 
219 
219 
220 
220 
220 
219 
219 
219 
219 
219 
219 
219 
219 
219 
218 
218 
218 
217 
217 
217 
217 
217 
218 
218 
217 
217 
217 
217 
217 
217 
215 
216 
217 
218 
219 
219 
219 
219 
219 
219 
219 
219 
219 
219 
219 
219 
219 
219 
219 
219 
219 
219 
218 
218 
219 
219 
219 
220 
220 
220 
220 
220 
222 
222 
221 
220 
219 
219 
220 
220 
219 
219 
219 
219 
219 
220 
220 
220 
220 
220 
219 
219 
219 
219 
219 
219 
219 
218 
218 
217 
217 
217 
217 
217 
217 
217 
217 
217 
217 
217 
217 
216 
216 
217 
217 
217 
217 
217 
218 
218 
219 
219 
219 
219 
219 
219 
219 
219 
219 
219 
219 
219 
219 
219 
219 
219 
219 
219 
219 
219 
220 
220 
220 
220 
220 
219 
219 
219 
219 
219 
219 
219 
219 
219 
219 
219 
219 
219 
219 
220 
220 
220 
219 
218 
219 
220 
220 
219 
218 
218 
