P2
# Created by MsrVolt
95 81
255
208 
208 
208 
208 
208 
208 
208 
208 
209 
209 
209 
209 
209 
209 
209 
209 
210 
209 
209 
210 
210 
209 
209 
209 
209 
208 
208 
208 
209 
209 
209 
208 
209 
209 
209 
209 
209 
209 
209 
209 
209 
209 
209 
209 
209 
209 
209 
209 
209 
209 
209 
209 
209 
209 
209 
209 
209 
209 
209 
209 
209 
209 
209 
209 
209 
209 
209 
209 
209 
209 
209 
209 
209 
209 
209 
209 
209 
209 
209 
209 
210 
210 
209 
209 
209 
209 
208 
208 
208 
208 
209 
209 
209 
210 
210 
208 
208 
208 
208 
208 
208 
208 
208 
210 
209 
209 
209 
209 
209 
209 
209 
207 
207 
207 
208 
209 
210 
210 
209 
209 
209 
208 
209 
209 
210 
209 
209 
210 
210 
210 
210 
210 
210 
210 
209 
209 
209 
209 
209 
209 
209 
209 
209 
209 
209 
209 
209 
209 
209 
209 
209 
209 
209 
209 
209 
209 
209 
209 
209 
209 
209 
209 
209 
209 
209 
209 
209 
209 
209 
209 
209 
209 
209 
209 
209 
210 
210 
209 
209 
209 
209 
208 
208 
208 
209 
209 
209 
209 
210 
210 
208 
208 
208 
208 
208 
208 
208 
208 
210 
209 
209 
209 
209 
209 
209 
208 
210 
211 
210 
209 
209 
212 
210 
207 
209 
209 
209 
209 
209 
209 
209 
209 
209 
209 
209 
210 
210 
209 
209 
209 
209 
209 
209 
209 
209 
209 
209 
209 
209 
209 
209 
209 
209 
209 
209 
209 
209 
209 
209 
209 
209 
209 
209 
209 
209 
209 
209 
209 
209 
209 
209 
209 
209 
209 
209 
209 
209 
209 
209 
209 
210 
210 
209 
209 
209 
209 
208 
208 
209 
209 
209 
209 
209 
210 
210 
208 
208 
208 
208 
208 
208 
208 
208 
211 
209 
208 
208 
209 
209 
208 
207 
208 
211 
211 
209 
210 
212 
210 
205 
208 
209 
209 
209 
208 
208 
208 
209 
207 
207 
208 
208 
209 
209 
208 
208 
209 
209 
209 
209 
209 
209 
209 
209 
209 
209 
209 
209 
209 
209 
209 
209 
209 
209 
209 
209 
209 
209 
209 
209 
209 
209 
209 
209 
209 
209 
209 
209 
209 
209 
209 
209 
209 
209 
209 
209 
209 
209 
209 
209 
209 
209 
209 
209 
209 
209 
209 
210 
210 
210 
210 
208 
208 
208 
208 
208 
208 
208 
208 
211 
209 
208 
208 
208 
208 
207 
205 
199 
203 
206 
207 
208 
211 
210 
206 
208 
210 
211 
210 
208 
207 
209 
210 
207 
207 
207 
208 
208 
209 
209 
209 
209 
209 
209 
209 
209 
209 
209 
209 
209 
209 
209 
209 
209 
209 
209 
209 
209 
209 
209 
209 
209 
209 
209 
209 
209 
209 
209 
209 
209 
209 
209 
209 
209 
209 
209 
209 
209 
209 
209 
209 
209 
209 
209 
209 
209 
209 
209 
209 
210 
210 
210 
210 
210 
210 
210 
208 
208 
208 
208 
208 
208 
208 
208 
211 
209 
207 
207 
208 
207 
206 
204 
198 
201 
205 
206 
206 
205 
205 
205 
206 
209 
211 
210 
208 
207 
209 
212 
209 
209 
209 
209 
209 
209 
210 
210 
209 
209 
209 
209 
209 
209 
209 
209 
209 
209 
209 
209 
209 
209 
209 
209 
209 
209 
209 
209 
209 
209 
209 
209 
209 
209 
209 
209 
209 
209 
209 
209 
209 
209 
209 
209 
209 
209 
209 
209 
209 
209 
209 
209 
209 
209 
209 
209 
210 
210 
210 
210 
210 
210 
210 
208 
208 
208 
208 
208 
208 
208 
208 
210 
208 
206 
206 
207 
207 
204 
202 
203 
203 
205 
205 
202 
197 
198 
203 
201 
204 
207 
207 
206 
206 
209 
212 
212 
212 
210 
209 
208 
208 
209 
209 
209 
209 
209 
209 
209 
209 
209 
209 
209 
209 
209 
209 
209 
209 
209 
209 
209 
209 
209 
209 
209 
209 
209 
209 
209 
209 
209 
209 
209 
209 
209 
209 
209 
209 
209 
209 
209 
209 
209 
209 
209 
209 
209 
209 
209 
209 
209 
209 
210 
210 
210 
210 
210 
210 
210 
208 
208 
208 
208 
208 
208 
208 
208 
210 
208 
205 
205 
206 
206 
204 
201 
201 
199 
201 
202 
197 
191 
195 
204 
196 
200 
203 
204 
203 
203 
207 
211 
214 
212 
210 
208 
207 
206 
207 
207 
209 
209 
209 
209 
209 
209 
209 
209 
209 
209 
209 
209 
209 
209 
209 
209 
209 
209 
209 
209 
209 
209 
209 
209 
209 
209 
209 
209 
209 
209 
209 
209 
209 
209 
209 
209 
209 
209 
209 
209 
209 
209 
209 
209 
209 
209 
209 
209 
211 
211 
211 
210 
210 
210 
210 
208 
208 
208 
208 
208 
207 
207 
207 
209 
207 
205 
204 
204 
203 
201 
199 
199 
189 
191 
195 
188 
187 
196 
200 
192 
197 
198 
201 
203 
205 
209 
207 
207 
208 
209 
211 
210 
207 
206 
204 
207 
208 
209 
210 
209 
210 
208 
209 
209 
209 
209 
209 
209 
209 
209 
209 
209 
209 
209 
209 
209 
209 
209 
209 
209 
209 
209 
209 
209 
209 
209 
209 
209 
209 
209 
209 
209 
209 
209 
209 
209 
209 
209 
209 
209 
209 
209 
209 
210 
210 
210 
210 
210 
210 
210 
208 
208 
208 
208 
208 
208 
208 
208 
206 
203 
201 
200 
201 
200 
197 
195 
195 
180 
175 
180 
181 
178 
184 
192 
191 
184 
187 
186 
193 
203 
198 
201 
202 
205 
205 
208 
209 
206 
207 
207 
212 
209 
209 
207 
209 
208 
211 
211 
209 
209 
209 
209 
209 
209 
209 
209 
209 
209 
209 
209 
209 
209 
209 
209 
209 
209 
209 
209 
209 
209 
209 
209 
209 
209 
209 
209 
209 
209 
209 
209 
209 
209 
209 
209 
209 
209 
209 
209 
210 
210 
210 
210 
210 
210 
210 
208 
208 
208 
208 
208 
208 
208 
208 
204 
202 
199 
197 
197 
196 
193 
190 
194 
182 
167 
165 
171 
171 
173 
183 
182 
177 
173 
181 
194 
199 
196 
189 
188 
196 
200 
209 
214 
209 
210 
210 
210 
206 
212 
209 
216 
208 
210 
206 
209 
209 
209 
209 
209 
209 
209 
209 
209 
209 
209 
209 
209 
209 
209 
209 
209 
209 
209 
209 
209 
209 
209 
209 
209 
209 
209 
209 
209 
209 
209 
209 
209 
209 
209 
209 
209 
209 
209 
209 
210 
210 
210 
210 
210 
210 
210 
207 
208 
208 
209 
209 
208 
208 
208 
207 
203 
199 
197 
196 
194 
191 
189 
191 
187 
170 
162 
172 
175 
174 
181 
175 
179 
156 
174 
184 
174 
187 
167 
188 
200 
199 
208 
212 
204 
206 
207 
210 
206 
214 
209 
219 
207 
209 
203 
209 
209 
209 
209 
209 
209 
209 
209 
208 
208 
208 
208 
208 
208 
208 
208 
209 
209 
209 
209 
209 
209 
209 
209 
209 
209 
209 
209 
209 
209 
209 
209 
210 
210 
210 
210 
210 
210 
210 
210 
210 
210 
210 
210 
210 
210 
210 
207 
208 
208 
209 
209 
208 
207 
207 
206 
203 
199 
197 
196 
195 
193 
191 
183 
176 
166 
170 
185 
185 
177 
178 
171 
173 
152 
160 
167 
164 
179 
167 
188 
203 
195 
199 
203 
196 
202 
204 
214 
209 
213 
203 
213 
206 
213 
208 
209 
209 
209 
209 
209 
209 
209 
209 
208 
208 
208 
208 
208 
208 
208 
208 
209 
209 
209 
209 
209 
209 
209 
209 
209 
209 
209 
209 
209 
209 
209 
209 
210 
210 
210 
210 
210 
210 
210 
210 
211 
211 
211 
211 
211 
211 
211 
207 
208 
208 
209 
208 
207 
206 
205 
201 
199 
197 
197 
197 
196 
193 
191 
179 
160 
161 
184 
195 
184 
171 
166 
173 
163 
169 
157 
159 
170 
155 
155 
155 
183 
181 
189 
200 
197 
204 
202 
205 
207 
212 
203 
210 
210 
215 
209 
209 
209 
209 
209 
209 
209 
209 
209 
208 
208 
208 
208 
208 
208 
208 
208 
209 
209 
209 
209 
209 
209 
209 
209 
209 
209 
209 
209 
209 
209 
209 
209 
210 
210 
210 
210 
210 
210 
210 
210 
211 
211 
211 
211 
211 
211 
211 
207 
208 
208 
208 
208 
206 
205 
204 
196 
196 
197 
198 
199 
196 
191 
187 
177 
160 
173 
195 
189 
178 
171 
159 
176 
161 
182 
158 
154 
166 
122 
117 
138 
175 
173 
180 
191 
185 
188 
180 
187 
199 
207 
202 
206 
212 
214 
206 
209 
209 
209 
209 
209 
209 
209 
209 
208 
208 
208 
208 
208 
208 
208 
208 
209 
209 
209 
209 
209 
209 
209 
209 
209 
209 
209 
209 
209 
209 
209 
209 
210 
210 
210 
210 
210 
210 
210 
210 
211 
211 
211 
211 
211 
211 
211 
207 
208 
208 
208 
207 
206 
204 
203 
194 
195 
198 
200 
200 
196 
189 
183 
171 
168 
191 
199 
177 
176 
181 
164 
168 
158 
175 
157 
159 
171 
129 
115 
161 
194 
180 
171 
170 
157 
156 
144 
178 
193 
199 
194 
196 
211 
215 
208 
209 
209 
209 
209 
209 
209 
209 
209 
208 
208 
208 
208 
208 
208 
208 
208 
209 
209 
209 
209 
209 
209 
209 
209 
209 
209 
209 
209 
209 
209 
209 
209 
210 
210 
210 
210 
210 
210 
210 
210 
211 
211 
211 
211 
211 
211 
211 
208 
208 
208 
207 
207 
205 
204 
203 
200 
200 
203 
205 
203 
195 
185 
178 
174 
188 
196 
181 
161 
160 
164 
158 
163 
163 
156 
151 
160 
164 
157 
160 
164 
190 
176 
163 
156 
148 
148 
156 
183 
191 
188 
189 
180 
205 
208 
215 
206 
213 
210 
205 
214 
209 
207 
211 
206 
207 
209 
212 
209 
207 
207 
210 
212 
210 
210 
211 
210 
209 
208 
209 
209 
209 
208 
208 
208 
208 
209 
210 
210 
210 
210 
210 
210 
210 
210 
210 
211 
211 
211 
211 
211 
211 
211 
210 
209 
209 
208 
206 
203 
201 
199 
197 
201 
203 
201 
197 
190 
178 
166 
181 
185 
183 
174 
161 
146 
143 
154 
154 
162 
162 
159 
140 
126 
153 
185 
144 
173 
165 
161 
155 
141 
167 
177 
171 
185 
177 
185 
183 
191 
189 
203 
211 
207 
208 
207 
206 
204 
205 
215 
212 
207 
205 
208 
205 
208 
207 
206 
208 
208 
208 
208 
208 
209 
209 
209 
210 
210 
210 
210 
210 
209 
209 
209 
210 
210 
210 
210 
210 
210 
210 
210 
211 
211 
211 
211 
211 
211 
211 
208 
207 
206 
206 
205 
205 
204 
204 
198 
199 
201 
200 
193 
180 
168 
161 
185 
182 
168 
165 
171 
162 
163 
185 
149 
165 
159 
151 
108 
84 
136 
171 
139 
156 
168 
169 
158 
139 
152 
160 
164 
177 
177 
194 
182 
176 
178 
184 
210 
202 
212 
214 
206 
217 
211 
203 
206 
202 
213 
210 
212 
207 
214 
207 
210 
211 
211 
208 
208 
210 
210 
209 
208 
209 
210 
210 
209 
208 
208 
208 
210 
210 
210 
210 
210 
210 
210 
210 
211 
211 
211 
211 
211 
211 
211 
208 
206 
205 
204 
205 
207 
207 
207 
202 
196 
199 
205 
194 
173 
168 
178 
200 
193 
171 
159 
168 
176 
183 
195 
156 
143 
175 
136 
110 
137 
132 
159 
154 
149 
176 
185 
179 
177 
153 
162 
168 
165 
173 
196 
165 
155 
177 
177 
202 
187 
205 
220 
204 
218 
211 
201 
210 
200 
219 
205 
218 
204 
219 
205 
210 
212 
212 
208 
208 
211 
211 
209 
208 
209 
210 
210 
209 
208 
208 
209 
210 
210 
210 
210 
210 
210 
210 
210 
211 
211 
211 
211 
211 
211 
211 
212 
210 
208 
207 
206 
204 
201 
198 
195 
193 
198 
203 
192 
178 
183 
201 
199 
193 
180 
166 
161 
171 
181 
181 
176 
164 
175 
153 
160 
194 
173 
153 
157 
145 
149 
172 
171 
187 
155 
163 
172 
157 
155 
179 
152 
127 
156 
181 
196 
169 
184 
220 
198 
204 
206 
217 
222 
207 
210 
200 
212 
206 
216 
209 
207 
209 
209 
207 
207 
210 
211 
209 
210 
211 
212 
211 
210 
210 
211 
213 
210 
210 
210 
210 
210 
210 
210 
210 
211 
211 
211 
211 
211 
211 
211 
210 
209 
210 
210 
209 
204 
197 
192 
184 
191 
196 
192 
187 
188 
197 
205 
182 
183 
188 
185 
174 
173 
179 
179 
196 
176 
174 
155 
174 
204 
174 
158 
164 
172 
135 
170 
169 
179 
165 
166 
171 
164 
147 
167 
167 
118 
115 
166 
183 
174 
178 
212 
198 
218 
213 
201 
208 
208 
205 
212 
210 
213 
212 
221 
210 
210 
210 
210 
209 
208 
208 
208 
210 
211 
212 
211 
209 
208 
210 
213 
210 
210 
210 
210 
210 
210 
210 
210 
211 
211 
211 
211 
211 
211 
211 
207 
206 
206 
208 
210 
208 
203 
199 
190 
197 
198 
191 
190 
196 
197 
193 
179 
186 
190 
191 
189 
183 
175 
170 
174 
187 
161 
162 
176 
169 
174 
169 
156 
183 
130 
164 
173 
176 
172 
170 
164 
172 
152 
162 
184 
132 
94 
134 
153 
190 
186 
197 
183 
222 
203 
150 
194 
198 
196 
209 
213 
206 
194 
203 
214 
211 
211 
213 
212 
208 
206 
208 
209 
211 
211 
210 
207 
206 
207 
209 
210 
210 
210 
210 
210 
210 
210 
210 
211 
211 
211 
211 
211 
211 
211 
209 
206 
204 
205 
208 
210 
210 
209 
209 
207 
203 
200 
201 
201 
192 
183 
174 
184 
177 
174 
190 
190 
170 
158 
159 
192 
188 
183 
184 
164 
161 
179 
154 
181 
131 
151 
171 
175 
165 
169 
155 
170 
154 
151 
180 
149 
100 
112 
122 
193 
190 
184 
155 
191 
172 
112 
206 
189 
180 
181 
210 
186 
165 
158 
208 
205 
206 
212 
213 
208 
208 
212 
210 
212 
213 
212 
208 
206 
206 
207 
210 
210 
210 
210 
210 
210 
210 
210 
211 
211 
211 
211 
211 
211 
211 
213 
210 
207 
206 
207 
209 
209 
209 
207 
201 
196 
196 
199 
196 
185 
174 
191 
183 
176 
176 
180 
181 
171 
158 
169 
180 
183 
185 
183 
171 
165 
171 
152 
170 
147 
149 
164 
165 
165 
160 
158 
167 
155 
136 
164 
174 
131 
117 
103 
166 
171 
155 
152 
153 
169 
127 
123 
165 
183 
196 
197 
184 
163 
170 
185 
190 
195 
201 
203 
189 
196 
199 
204 
206 
210 
213 
215 
211 
206 
209 
209 
208 
209 
210 
209 
210 
212 
209 
211 
211 
211 
211 
211 
211 
211 
209 
208 
208 
209 
210 
209 
207 
204 
204 
191 
187 
196 
195 
183 
177 
181 
183 
191 
186 
174 
171 
170 
169 
173 
179 
150 
171 
168 
167 
179 
164 
177 
167 
148 
164 
139 
170 
167 
165 
162 
168 
161 
166 
154 
157 
177 
157 
125 
117 
151 
144 
128 
168 
166 
177 
120 
60 
152 
153 
208 
168 
186 
162 
206 
180 
172 
186 
189 
173 
151 
164 
179 
186 
195 
201 
207 
212 
214 
216 
212 
209 
210 
212 
210 
210 
211 
209 
209 
211 
211 
211 
211 
211 
211 
211 
206 
206 
207 
209 
210 
208 
205 
202 
207 
196 
194 
201 
197 
183 
184 
197 
184 
190 
191 
170 
146 
154 
178 
187 
169 
131 
175 
187 
181 
189 
158 
152 
175 
145 
180 
130 
169 
162 
171 
160 
172 
162 
173 
161 
151 
174 
166 
129 
142 
177 
140 
95 
173 
180 
181 
66 
95 
158 
116 
168 
120 
204 
146 
194 
169 
171 
174 
171 
153 
141 
129 
150 
175 
185 
194 
207 
208 
205 
213 
209 
207 
208 
213 
208 
210 
215 
207 
212 
211 
211 
211 
211 
211 
211 
211 
208 
207 
206 
207 
207 
207 
206 
205 
204 
203 
200 
196 
189 
187 
192 
200 
190 
179 
195 
182 
140 
158 
195 
181 
177 
154 
167 
176 
169 
175 
172 
156 
177 
154 
159 
129 
168 
153 
173 
157 
163 
168 
169 
153 
154 
170 
156 
132 
135 
148 
116 
108 
176 
133 
145 
83 
79 
45 
88 
35 
71 
135 
136 
188 
145 
179 
133 
153 
135 
130 
129 
184 
187 
176 
167 
186 
193 
192 
209 
213 
211 
211 
215 
207 
211 
217 
208 
214 
211 
211 
211 
211 
211 
211 
211 
209 
208 
207 
206 
206 
206 
206 
206 
204 
206 
202 
191 
186 
190 
196 
198 
192 
175 
190 
186 
157 
177 
198 
167 
165 
173 
171 
174 
176 
179 
177 
154 
169 
156 
128 
128 
158 
150 
155 
152 
156 
167 
164 
152 
162 
169 
153 
140 
104 
138 
146 
128 
154 
136 
155 
150 
99 
84 
37 
53 
36 
40 
171 
144 
167 
161 
173 
161 
143 
119 
94 
185 
186 
159 
138 
161 
193 
205 
207 
196 
211 
209 
211 
203 
204 
211 
205 
206 
210 
210 
210 
210 
210 
210 
210 
207 
208 
208 
208 
208 
207 
206 
205 
208 
205 
201 
197 
194 
193 
196 
199 
196 
181 
166 
156 
159 
179 
183 
165 
188 
186 
157 
125 
134 
158 
165 
176 
160 
177 
161 
143 
149 
167 
156 
163 
161 
161 
161 
161 
163 
165 
156 
143 
147 
150 
161 
136 
125 
128 
113 
134 
174 
125 
57 
47 
44 
93 
193 
139 
181 
118 
185 
119 
152 
112 
128 
167 
154 
165 
167 
162 
169 
182 
192 
200 
210 
212 
216 
215 
211 
216 
220 
214 
210 
210 
210 
210 
210 
210 
210 
207 
207 
208 
208 
207 
206 
205 
205 
204 
201 
200 
200 
198 
194 
192 
194 
194 
185 
162 
150 
167 
180 
173 
161 
155 
166 
159 
134 
134 
131 
113 
128 
129 
165 
181 
140 
135 
156 
155 
153 
164 
157 
157 
165 
163 
157 
155 
149 
141 
138 
135 
140 
120 
133 
121 
128 
125 
69 
143 
87 
51 
140 
188 
143 
133 
139 
130 
124 
136 
82 
157 
105 
162 
165 
154 
133 
152 
182 
183 
192 
189 
200 
208 
216 
205 
205 
220 
207 
210 
210 
210 
210 
210 
210 
210 
208 
208 
207 
206 
205 
205 
206 
206 
202 
205 
206 
205 
204 
201 
197 
192 
185 
185 
185 
189 
197 
196 
175 
148 
138 
163 
169 
160 
146 
111 
89 
102 
119 
137 
168 
140 
149 
144 
161 
151 
159 
157 
152 
161 
167 
155 
153 
162 
110 
143 
132 
163 
120 
117 
140 
136 
164 
146 
108 
68 
138 
193 
201 
180 
112 
193 
105 
171 
69 
70 
115 
100 
140 
145 
144 
129 
154 
180 
170 
184 
186 
202 
214 
226 
208 
202 
223 
204 
210 
210 
210 
210 
210 
210 
210 
208 
208 
208 
207 
207 
207 
207 
206 
202 
203 
205 
208 
208 
204 
196 
189 
186 
189 
193 
196 
199 
196 
182 
168 
179 
173 
164 
154 
135 
116 
126 
157 
146 
121 
133 
120 
166 
132 
155 
168 
143 
150 
151 
151 
157 
149 
155 
161 
110 
150 
126 
161 
120 
93 
119 
117 
131 
118 
124 
138 
144 
126 
124 
99 
123 
137 
123 
165 
107 
87 
114 
134 
121 
129 
133 
141 
145 
153 
162 
144 
158 
206 
187 
210 
226 
209 
220 
214 
210 
210 
210 
210 
210 
210 
210 
208 
208 
207 
205 
206 
207 
206 
204 
207 
206 
206 
206 
206 
204 
198 
194 
192 
191 
187 
184 
185 
189 
188 
183 
181 
172 
172 
174 
164 
159 
167 
175 
155 
119 
101 
89 
120 
107 
134 
161 
149 
148 
161 
162 
153 
158 
153 
147 
134 
141 
103 
120 
137 
120 
113 
125 
149 
134 
116 
79 
134 
119 
63 
61 
63 
74 
124 
147 
171 
109 
134 
110 
143 
127 
111 
146 
149 
144 
178 
102 
122 
168 
144 
175 
211 
203 
209 
207 
210 
210 
210 
210 
210 
210 
210 
209 
209 
208 
206 
207 
208 
207 
204 
207 
206 
205 
205 
205 
203 
199 
195 
195 
195 
191 
184 
180 
180 
178 
175 
179 
170 
177 
184 
179 
185 
191 
181 
164 
161 
121 
69 
61 
93 
131 
156 
168 
172 
182 
184 
168 
168 
168 
155 
174 
160 
142 
128 
152 
129 
102 
131 
141 
134 
113 
101 
117 
121 
141 
72 
49 
71 
88 
117 
98 
94 
115 
137 
117 
135 
133 
173 
128 
119 
189 
136 
119 
178 
125 
157 
220 
211 
207 
208 
210 
210 
210 
210 
210 
210 
210 
208 
210 
209 
207 
207 
209 
207 
203 
201 
202 
204 
206 
206 
203 
198 
194 
192 
195 
195 
192 
187 
181 
174 
167 
165 
161 
166 
167 
160 
163 
167 
160 
156 
164 
159 
143 
86 
58 
91 
163 
173 
199 
173 
179 
196 
151 
177 
135 
130 
144 
163 
119 
125 
150 
141 
134 
150 
138 
124 
104 
109 
136 
99 
87 
86 
65 
68 
64 
56 
64 
104 
126 
111 
141 
108 
162 
104 
143 
153 
124 
142 
220 
176 
193 
224 
199 
202 
218 
210 
210 
210 
210 
210 
210 
210 
206 
209 
209 
206 
206 
208 
206 
202 
200 
202 
204 
207 
207 
205 
201 
198 
192 
192 
192 
193 
193 
192 
186 
181 
173 
174 
172 
169 
165 
161 
160 
165 
169 
171 
167 
163 
132 
109 
103 
122 
181 
172 
203 
204 
159 
169 
185 
138 
154 
142 
146 
127 
125 
142 
139 
124 
149 
134 
100 
149 
113 
116 
93 
110 
104 
71 
73 
84 
58 
70 
82 
88 
74 
68 
97 
82 
151 
135 
169 
95 
106 
100 
139 
201 
181 
203 
231 
201 
210 
210 
210 
210 
210 
210 
210 
206 
210 
210 
206 
204 
207 
208 
206 
205 
205 
205 
206 
207 
208 
207 
206 
199 
196 
193 
192 
194 
192 
187 
182 
188 
188 
184 
184 
189 
183 
179 
185 
169 
168 
177 
189 
181 
152 
117 
96 
128 
195 
155 
141 
172 
173 
165 
178 
164 
162 
142 
139 
142 
142 
145 
137 
139 
124 
97 
148 
103 
101 
72 
98 
90 
74 
101 
99 
57 
51 
73 
89 
76 
64 
74 
94 
160 
159 
161 
54 
65 
58 
116 
174 
182 
212 
198 
217 
210 
210 
210 
210 
210 
210 
210 
205 
210 
209 
202 
199 
203 
208 
209 
206 
206 
205 
205 
206 
207 
209 
209 
208 
203 
198 
195 
191 
185 
176 
170 
178 
175 
176 
180 
182 
182 
181 
178 
185 
173 
168 
173 
181 
174 
146 
116 
126 
113 
58 
105 
103 
191 
138 
144 
144 
137 
117 
143 
147 
114 
135 
159 
141 
130 
109 
117 
120 
120 
77 
68 
69 
64 
79 
78 
54 
53 
71 
87 
68 
87 
69 
129 
116 
150 
123 
55 
76 
70 
93 
146 
178 
219 
202 
210 
210 
210 
210 
210 
210 
210 
210 
201 
206 
204 
195 
191 
197 
205 
208 
204 
204 
203 
203 
204 
205 
206 
207 
212 
206 
200 
194 
189 
182 
175 
170 
178 
172 
178 
182 
175 
179 
184 
174 
178 
183 
182 
176 
171 
178 
172 
157 
155 
63 
70 
68 
128 
171 
121 
127 
134 
125 
104 
124 
131 
108 
143 
150 
135 
152 
134 
110 
159 
131 
96 
80 
77 
64 
55 
50 
54 
58 
61 
62 
48 
65 
74 
89 
87 
94 
90 
56 
74 
73 
78 
135 
137 
194 
237 
202 
210 
210 
210 
210 
210 
210 
210 
212 
211 
206 
198 
196 
202 
207 
207 
205 
205 
204 
204 
204 
204 
205 
206 
206 
204 
201 
197 
193 
190 
187 
186 
194 
188 
182 
182 
186 
186 
181 
176 
172 
178 
182 
178 
173 
175 
182 
188 
171 
146 
68 
83 
178 
126 
152 
150 
177 
143 
123 
112 
132 
113 
141 
125 
111 
131 
139 
107 
163 
107 
90 
103 
90 
81 
70 
63 
59 
54 
51 
49 
49 
51 
46 
54 
65 
63 
56 
61 
67 
89 
65 
90 
125 
172 
204 
209 
210 
210 
210 
210 
210 
210 
210 
211 
213 
211 
207 
207 
208 
206 
202 
205 
205 
205 
205 
205 
205 
205 
204 
199 
203 
205 
201 
193 
189 
192 
196 
189 
182 
175 
173 
176 
178 
178 
175 
176 
174 
176 
181 
183 
182 
181 
181 
171 
181 
60 
200 
100 
121 
153 
125 
174 
143 
156 
106 
143 
125 
130 
122 
116 
108 
129 
111 
117 
64 
79 
106 
88 
89 
81 
64 
54 
54 
55 
53 
48 
48 
46 
61 
52 
59 
53 
71 
82 
118 
91 
89 
131 
163 
153 
221 
210 
210 
210 
210 
210 
210 
210 
203 
206 
207 
206 
207 
206 
200 
193 
206 
206 
207 
207 
206 
206 
204 
204 
201 
205 
207 
202 
192 
186 
188 
192 
193 
188 
182 
179 
181 
184 
186 
186 
178 
173 
174 
184 
189 
186 
182 
182 
192 
165 
182 
179 
155 
156 
94 
97 
102 
96 
166 
106 
140 
111 
131 
124 
124 
107 
133 
122 
94 
58 
92 
70 
71 
69 
59 
51 
56 
68 
65 
51 
51 
46 
53 
43 
61 
48 
58 
89 
135 
95 
139 
128 
113 
171 
172 
211 
210 
210 
210 
210 
210 
210 
210 
205 
206 
207 
207 
208 
208 
205 
201 
207 
207 
207 
207 
207 
206 
206 
205 
208 
208 
206 
202 
197 
191 
187 
185 
187 
185 
183 
182 
182 
184 
184 
184 
180 
178 
180 
185 
186 
185 
186 
190 
188 
180 
187 
196 
179 
174 
131 
64 
74 
68 
85 
143 
112 
131 
123 
122 
105 
138 
115 
113 
105 
102 
78 
54 
67 
67 
63 
58 
61 
66 
60 
49 
46 
46 
53 
47 
50 
50 
60 
99 
110 
98 
115 
107 
133 
151 
156 
216 
210 
210 
210 
210 
210 
210 
210 
207 
208 
208 
207 
207 
209 
210 
209 
208 
207 
207 
207 
207 
207 
207 
208 
209 
208 
207 
207 
206 
203 
197 
192 
196 
195 
195 
194 
194 
194 
194 
194 
185 
186 
186 
184 
184 
185 
188 
191 
182 
184 
185 
177 
184 
190 
173 
131 
117 
55 
40 
89 
97 
86 
107 
109 
101 
124 
93 
113 
86 
131 
64 
67 
68 
59 
54 
60 
66 
64 
55 
48 
54 
39 
42 
53 
53 
50 
59 
83 
95 
90 
87 
131 
126 
126 
195 
215 
210 
210 
210 
210 
210 
210 
210 
205 
206 
207 
206 
205 
205 
206 
207 
208 
207 
207 
206 
207 
207 
208 
209 
205 
207 
209 
210 
208 
205 
203 
201 
195 
194 
192 
191 
190 
190 
191 
191 
190 
190 
188 
186 
187 
189 
188 
184 
186 
182 
193 
182 
180 
192 
187 
192 
114 
76 
63 
64 
89 
76 
78 
90 
111 
115 
109 
88 
97 
133 
51 
80 
73 
57 
52 
62 
82 
89 
84 
76 
42 
71 
77 
39 
43 
46 
63 
63 
85 
90 
95 
123 
106 
154 
209 
206 
210 
210 
210 
210 
210 
210 
210 
208 
208 
208 
208 
208 
208 
207 
207 
208 
208 
207 
207 
207 
207 
207 
207 
205 
207 
208 
207 
205 
203 
202 
202 
196 
195 
192 
190 
189 
189 
189 
188 
191 
188 
187 
188 
190 
189 
186 
183 
179 
197 
180 
193 
185 
173 
173 
187 
131 
104 
73 
43 
64 
71 
62 
77 
102 
93 
122 
77 
102 
97 
61 
64 
63 
63 
60 
58 
67 
82 
88 
86 
82 
86 
67 
85 
70 
54 
45 
54 
67 
108 
121 
90 
123 
194 
189 
215 
210 
210 
210 
210 
210 
210 
210 
208 
206 
204 
206 
208 
208 
207 
205 
207 
208 
208 
208 
208 
207 
206 
206 
207 
205 
203 
203 
204 
205 
203 
202 
200 
199 
197 
196 
195 
193 
191 
189 
188 
185 
186 
191 
190 
185 
185 
189 
182 
199 
189 
181 
189 
165 
163 
183 
165 
125 
104 
81 
89 
55 
51 
59 
53 
80 
90 
69 
95 
54 
52 
65 
68 
72 
63 
54 
60 
85 
89 
75 
84 
88 
132 
152 
71 
40 
64 
45 
52 
93 
127 
95 
134 
176 
197 
214 
210 
210 
210 
210 
210 
210 
210 
207 
207 
207 
207 
207 
207 
207 
207 
207 
207 
207 
207 
207 
207 
207 
207 
209 
209 
207 
206 
205 
205 
205 
205 
203 
202 
201 
200 
197 
194 
192 
190 
183 
185 
188 
190 
191 
191 
189 
188 
188 
187 
179 
178 
184 
180 
175 
182 
136 
167 
175 
127 
82 
51 
49 
50 
67 
95 
79 
111 
70 
57 
50 
67 
78 
75 
62 
58 
83 
113 
109 
82 
83 
136 
91 
73 
98 
75 
55 
47 
46 
69 
114 
131 
139 
135 
217 
205 
210 
210 
210 
210 
210 
210 
210 
207 
207 
207 
207 
207 
207 
207 
207 
207 
207 
207 
207 
207 
207 
207 
207 
207 
206 
206 
205 
206 
206 
207 
208 
205 
204 
203 
201 
199 
195 
193 
191 
185 
186 
189 
191 
193 
193 
191 
189 
189 
187 
186 
180 
175 
181 
181 
169 
130 
172 
185 
115 
38 
46 
70 
49 
98 
84 
77 
101 
55 
57 
53 
70 
61 
57 
57 
71 
96 
108 
99 
84 
126 
63 
73 
110 
53 
61 
130 
79 
60 
71 
89 
130 
127 
152 
221 
204 
210 
210 
210 
210 
210 
210 
210 
207 
207 
207 
207 
207 
207 
207 
207 
207 
207 
207 
207 
207 
207 
207 
207 
206 
206 
205 
205 
206 
207 
208 
209 
207 
207 
206 
203 
200 
197 
194 
192 
191 
190 
191 
193 
195 
194 
191 
187 
185 
178 
190 
193 
178 
178 
170 
140 
175 
177 
166 
124 
69 
87 
89 
49 
86 
48 
50 
69 
48 
59 
49 
61 
58 
61 
74 
92 
95 
81 
79 
92 
86 
113 
79 
64 
97 
146 
144 
59 
90 
109 
99 
66 
111 
213 
209 
212 
210 
210 
210 
210 
210 
210 
210 
207 
207 
207 
207 
207 
207 
207 
207 
207 
207 
207 
207 
207 
207 
207 
207 
207 
207 
206 
206 
206 
207 
207 
208 
209 
208 
207 
205 
202 
198 
195 
194 
197 
195 
193 
194 
195 
194 
189 
184 
195 
179 
187 
191 
171 
168 
183 
183 
176 
150 
122 
118 
111 
94 
60 
43 
51 
44 
51 
47 
45 
57 
48 
63 
68 
65 
72 
94 
105 
97 
98 
115 
119 
95 
82 
124 
130 
100 
106 
100 
77 
141 
90 
126 
212 
208 
204 
208 
210 
210 
210 
210 
210 
210 
210 
208 
208 
208 
208 
208 
208 
208 
208 
208 
208 
208 
208 
208 
208 
208 
208 
208 
208 
207 
206 
206 
206 
207 
207 
208 
208 
207 
205 
203 
200 
198 
196 
201 
197 
193 
193 
195 
194 
190 
185 
158 
145 
157 
183 
188 
178 
171 
167 
182 
164 
143 
150 
175 
146 
104 
90 
84 
56 
53 
53 
54 
54 
49 
69 
72 
71 
69 
78 
91 
86 
79 
86 
84 
139 
119 
81 
93 
130 
136 
87 
78 
118 
104 
146 
217 
212 
209 
204 
210 
210 
210 
210 
210 
210 
210 
208 
208 
208 
208 
208 
208 
208 
208 
208 
208 
208 
208 
208 
208 
208 
208 
208 
207 
206 
206 
206 
207 
208 
208 
207 
207 
207 
206 
204 
202 
200 
199 
202 
198 
194 
194 
196 
196 
193 
190 
175 
162 
160 
177 
192 
186 
168 
155 
175 
162 
156 
162 
181 
151 
111 
85 
88 
59 
51 
47 
47 
60 
59 
52 
65 
82 
90 
99 
115 
116 
109 
113 
129 
105 
85 
145 
162 
75 
62 
138 
139 
116 
91 
152 
211 
222 
218 
212 
210 
210 
210 
210 
210 
210 
210 
208 
208 
208 
208 
208 
208 
208 
208 
208 
208 
208 
208 
208 
208 
208 
208 
208 
207 
206 
206 
206 
207 
208 
208 
205 
206 
206 
206 
206 
205 
204 
203 
205 
201 
196 
195 
197 
198 
197 
195 
193 
193 
195 
190 
178 
170 
170 
172 
166 
166 
168 
169 
156 
118 
85 
75 
101 
136 
147 
90 
45 
58 
61 
54 
55 
69 
77 
90 
115 
121 
113 
114 
143 
130 
123 
144 
128 
80 
78 
95 
92 
123 
139 
196 
212 
195 
197 
211 
210 
210 
210 
210 
210 
210 
210 
208 
208 
208 
208 
208 
208 
208 
208 
208 
208 
208 
208 
208 
208 
208 
208 
209 
208 
207 
206 
206 
206 
207 
207 
204 
205 
206 
207 
207 
207 
206 
206 
208 
204 
199 
197 
198 
199 
199 
198 
199 
191 
194 
194 
180 
176 
183 
186 
170 
181 
174 
177 
169 
146 
118 
125 
172 
121 
80 
83 
131 
139 
73 
52 
55 
76 
85 
91 
103 
102 
104 
123 
146 
109 
115 
147 
110 
65 
89 
113 
101 
124 
133 
170 
203 
211 
222 
213 
210 
210 
210 
210 
210 
210 
210 
208 
208 
208 
208 
208 
208 
208 
208 
208 
208 
208 
208 
208 
208 
208 
208 
207 
207 
206 
205 
205 
206 
207 
207 
204 
205 
206 
207 
207 
207 
206 
206 
205 
205 
204 
202 
202 
201 
201 
201 
198 
188 
191 
195 
191 
192 
190 
177 
185 
176 
167 
177 
191 
177 
159 
162 
144 
129 
115 
97 
117 
114 
72 
81 
58 
55 
58 
77 
92 
96 
103 
118 
88 
82 
118 
140 
97 
101 
135 
95 
78 
152 
213 
225 
218 
205 
201 
209 
210 
210 
210 
210 
210 
210 
210 
208 
208 
208 
208 
208 
208 
208 
208 
208 
208 
208 
208 
208 
208 
208 
208 
208 
207 
206 
206 
206 
206 
207 
208 
203 
204 
204 
205 
205 
205 
204 
204 
205 
205 
205 
205 
204 
203 
202 
202 
204 
195 
197 
199 
192 
190 
187 
174 
179 
175 
170 
178 
189 
178 
164 
168 
168 
179 
164 
129 
127 
112 
75 
84 
87 
71 
73 
101 
134 
136 
137 
146 
97 
95 
127 
162 
140 
130 
148 
128 
173 
199 
211 
210 
216 
216 
207 
203 
210 
210 
210 
210 
210 
210 
210 
208 
208 
208 
208 
208 
208 
208 
208 
208 
208 
208 
208 
208 
208 
208 
208 
208 
208 
207 
207 
207 
207 
208 
208 
204 
204 
204 
205 
204 
204 
203 
203 
205 
206 
206 
207 
206 
205 
204 
203 
205 
197 
197 
196 
188 
186 
184 
175 
181 
182 
178 
179 
182 
172 
161 
164 
164 
147 
136 
168 
188 
130 
88 
122 
125 
99 
82 
101 
143 
128 
119 
136 
165 
158 
158 
172 
165 
153 
166 
169 
210 
223 
220 
209 
207 
207 
208 
214 
210 
210 
210 
210 
210 
210 
210 
208 
208 
208 
208 
208 
208 
208 
208 
208 
208 
208 
208 
208 
208 
208 
208 
208 
208 
208 
207 
207 
208 
208 
208 
206 
206 
206 
206 
205 
205 
204 
204 
206 
206 
207 
207 
207 
206 
206 
205 
202 
196 
194 
191 
184 
183 
185 
182 
178 
181 
180 
178 
177 
171 
164 
164 
154 
177 
163 
168 
178 
138 
109 
117 
102 
107 
101 
102 
153 
154 
152 
163 
161 
168 
165 
171 
180 
186 
199 
206 
207 
212 
210 
208 
210 
210 
209 
212 
210 
210 
210 
210 
210 
210 
210 
208 
208 
208 
208 
208 
208 
208 
208 
208 
208 
208 
208 
208 
208 
208 
208 
208 
208 
208 
208 
208 
208 
208 
208 
207 
207 
207 
207 
206 
205 
205 
204 
206 
206 
206 
206 
206 
206 
206 
207 
204 
200 
197 
193 
187 
186 
187 
186 
180 
181 
179 
177 
176 
173 
168 
165 
178 
166 
116 
122 
154 
142 
125 
114 
115 
108 
128 
144 
162 
144 
147 
151 
158 
171 
177 
183 
191 
201 
209 
207 
211 
209 
206 
208 
213 
212 
209 
209 
210 
210 
210 
210 
210 
210 
210 
208 
208 
208 
208 
208 
208 
208 
208 
208 
208 
208 
208 
208 
208 
208 
208 
208 
208 
208 
208 
208 
208 
208 
208 
208 
207 
207 
206 
206 
205 
205 
205 
206 
206 
206 
205 
205 
206 
206 
207 
206 
206 
204 
200 
195 
189 
185 
183 
180 
179 
178 
178 
178 
178 
176 
171 
160 
183 
172 
161 
134 
109 
141 
169 
111 
85 
129 
171 
167 
151 
170 
169 
183 
186 
196 
204 
206 
209 
214 
214 
209 
211 
214 
214 
209 
206 
209 
214 
210 
210 
210 
210 
210 
210 
210 
208 
208 
208 
208 
208 
208 
208 
208 
208 
208 
208 
208 
208 
208 
208 
208 
208 
208 
208 
208 
208 
208 
208 
208 
208 
207 
207 
206 
206 
206 
205 
205 
206 
206 
206 
206 
206 
206 
206 
206 
205 
207 
206 
203 
201 
194 
187 
186 
177 
173 
174 
178 
180 
183 
183 
180 
196 
172 
153 
174 
177 
160 
152 
125 
105 
117 
145 
150 
145 
158 
172 
158 
204 
205 
212 
217 
217 
211 
203 
203 
209 
206 
208 
211 
211 
212 
211 
209 
210 
210 
210 
210 
210 
210 
210 
208 
208 
208 
208 
208 
208 
208 
208 
208 
208 
208 
208 
208 
208 
208 
208 
207 
208 
208 
208 
208 
208 
208 
207 
209 
208 
208 
207 
207 
207 
207 
207 
205 
206 
207 
207 
207 
206 
205 
205 
203 
206 
205 
204 
205 
201 
195 
195 
193 
185 
182 
182 
177 
173 
170 
166 
167 
167 
176 
185 
157 
136 
139 
115 
108 
143 
148 
145 
159 
161 
160 
180 
207 
211 
209 
207 
215 
217 
211 
216 
212 
210 
211 
211 
208 
208 
211 
210 
210 
210 
210 
210 
210 
210 
210 
208 
208 
208 
208 
208 
208 
208 
208 
208 
208 
208 
208 
208 
208 
208 
208 
208 
208 
208 
208 
208 
208 
208 
208 
208 
208 
208 
208 
207 
207 
207 
207 
206 
206 
206 
206 
206 
206 
207 
207 
203 
204 
206 
207 
207 
205 
202 
200 
193 
190 
186 
182 
180 
178 
174 
169 
182 
170 
159 
162 
147 
140 
145 
118 
128 
156 
148 
163 
180 
180 
168 
204 
210 
209 
207 
209 
212 
213 
212 
210 
210 
210 
210 
210 
210 
210 
210 
210 
210 
210 
210 
210 
210 
210 
210 
208 
208 
208 
208 
208 
208 
208 
208 
208 
208 
208 
208 
208 
208 
208 
208 
208 
208 
208 
208 
208 
208 
208 
208 
208 
208 
208 
208 
207 
207 
207 
207 
206 
206 
206 
206 
206 
206 
206 
206 
204 
205 
206 
207 
206 
205 
202 
201 
198 
194 
188 
184 
182 
180 
178 
177 
189 
178 
165 
165 
154 
153 
169 
158 
181 
171 
165 
182 
172 
177 
182 
200 
215 
213 
210 
210 
211 
210 
208 
205 
210 
210 
210 
210 
210 
210 
210 
210 
210 
210 
210 
210 
210 
210 
210 
208 
208 
208 
208 
208 
208 
208 
208 
208 
208 
208 
208 
208 
208 
208 
208 
208 
208 
208 
208 
208 
208 
208 
208 
208 
208 
208 
208 
208 
207 
207 
207 
206 
206 
206 
206 
205 
205 
205 
205 
205 
206 
206 
206 
206 
205 
203 
202 
205 
200 
195 
191 
186 
181 
178 
180 
180 
179 
173 
177 
170 
166 
181 
182 
173 
167 
165 
168 
159 
195 
214 
205 
213 
211 
209 
210 
211 
211 
209 
207 
210 
210 
210 
210 
210 
210 
210 
211 
210 
210 
210 
210 
210 
210 
210 
208 
208 
208 
208 
208 
208 
208 
208 
208 
208 
208 
208 
208 
208 
208 
208 
208 
208 
208 
208 
208 
208 
208 
208 
208 
208 
208 
208 
208 
208 
207 
207 
207 
207 
206 
206 
205 
205 
204 
204 
206 
206 
206 
206 
205 
205 
204 
204 
205 
201 
199 
199 
192 
181 
176 
177 
173 
181 
184 
191 
186 
175 
180 
185 
194 
189 
179 
185 
187 
203 
208 
213 
210 
209 
208 
209 
211 
212 
211 
210 
210 
210 
210 
210 
210 
210 
211 
211 
210 
210 
210 
210 
210 
210 
210 
208 
208 
208 
208 
208 
208 
208 
208 
208 
208 
208 
208 
208 
208 
208 
208 
208 
208 
208 
208 
208 
208 
208 
208 
208 
208 
208 
208 
208 
208 
208 
208 
207 
207 
206 
206 
205 
205 
204 
204 
208 
207 
207 
206 
205 
205 
205 
205 
201 
199 
200 
201 
195 
183 
178 
179 
180 
187 
189 
192 
189 
178 
181 
191 
188 
190 
185 
194 
204 
208 
205 
214 
211 
210 
210 
210 
211 
211 
210 
209 
209 
209 
210 
210 
210 
211 
211 
211 
210 
210 
210 
210 
210 
210 
210 
208 
208 
208 
208 
208 
208 
208 
208 
208 
208 
208 
208 
208 
208 
208 
208 
208 
208 
208 
208 
208 
208 
208 
208 
208 
208 
208 
208 
208 
208 
208 
208 
207 
207 
207 
206 
206 
205 
205 
205 
208 
208 
207 
206 
206 
205 
205 
205 
206 
204 
202 
200 
194 
186 
181 
182 
178 
183 
186 
185 
182 
177 
181 
192 
198 
200 
204 
206 
204 
213 
214 
205 
211 
210 
210 
210 
210 
210 
210 
209 
209 
209 
210 
210 
210 
211 
211 
211 
210 
210 
210 
210 
210 
210 
210 
208 
208 
208 
208 
208 
208 
208 
208 
208 
208 
208 
208 
208 
208 
208 
208 
208 
208 
208 
208 
208 
208 
208 
208 
208 
208 
208 
208 
208 
208 
208 
208 
207 
207 
207 
207 
206 
206 
206 
206 
208 
208 
207 
207 
206 
206 
206 
206 
210 
208 
206 
202 
198 
193 
190 
189 
177 
183 
190 
188 
183 
183 
188 
197 
208 
193 
201 
215 
211 
207 
212 
213 
209 
209 
209 
210 
210 
211 
211 
211 
209 
209 
210 
210 
210 
211 
211 
211 
210 
210 
210 
210 
210 
210 
210 
208 
208 
208 
208 
208 
208 
208 
208 
208 
208 
208 
208 
208 
208 
208 
208 
208 
208 
208 
208 
208 
208 
208 
208 
208 
208 
208 
208 
208 
208 
208 
208 
207 
207 
207 
207 
207 
207 
206 
206 
208 
208 
208 
207 
207 
206 
206 
206 
205 
207 
207 
205 
204 
203 
202 
199 
190 
195 
204 
199 
192 
196 
204 
213 
208 
209 
210 
206 
209 
212 
212 
206 
211 
211 
210 
210 
210 
210 
210 
209 
209 
209 
209 
210 
210 
211 
211 
211 
210 
210 
210 
210 
210 
210 
210 
208 
208 
208 
208 
208 
208 
208 
208 
208 
208 
208 
208 
208 
208 
208 
208 
208 
208 
208 
208 
208 
208 
208 
208 
208 
208 
208 
208 
208 
208 
208 
208 
207 
207 
207 
208 
208 
208 
209 
209 
208 
208 
208 
208 
207 
207 
207 
207 
207 
207 
206 
204 
206 
211 
210 
205 
202 
207 
207 
203 
200 
203 
206 
207 
211 
208 
205 
204 
205 
207 
207 
207 
210 
210 
210 
210 
210 
210 
210 
210 
209 
209 
210 
210 
210 
211 
211 
211 
210 
210 
210 
210 
210 
210 
210 
208 
208 
208 
208 
208 
208 
208 
208 
208 
208 
208 
208 
208 
208 
208 
208 
208 
208 
208 
208 
208 
208 
208 
208 
208 
208 
208 
208 
208 
208 
208 
208 
207 
207 
207 
208 
208 
208 
209 
209 
209 
208 
208 
208 
208 
207 
207 
207 
207 
207 
206 
204 
206 
210 
209 
205 
204 
206 
205 
202 
202 
206 
207 
206 
210 
208 
206 
205 
207 
207 
207 
206 
210 
210 
210 
210 
210 
210 
210 
210 
209 
210 
210 
210 
210 
211 
211 
211 
210 
210 
210 
210 
210 
210 
210 
208 
208 
208 
208 
208 
208 
208 
208 
208 
208 
208 
208 
208 
208 
208 
208 
208 
208 
208 
208 
208 
208 
208 
208 
208 
208 
208 
208 
208 
208 
208 
208 
207 
207 
207 
208 
208 
208 
209 
209 
209 
209 
209 
209 
208 
208 
208 
208 
206 
207 
206 
204 
206 
209 
209 
205 
208 
208 
206 
205 
208 
212 
211 
207 
208 
207 
207 
207 
208 
208 
207 
205 
209 
209 
210 
210 
210 
210 
210 
210 
210 
210 
210 
210 
210 
210 
211 
211 
210 
210 
210 
210 
210 
210 
210 
208 
208 
208 
208 
208 
208 
208 
208 
208 
208 
208 
208 
208 
208 
208 
208 
208 
208 
208 
208 
208 
208 
208 
208 
208 
208 
208 
208 
208 
208 
208 
208 
207 
207 
207 
208 
208 
208 
209 
209 
209 
209 
209 
209 
209 
209 
209 
209 
207 
207 
206 
205 
206 
209 
208 
205 
210 
210 
208 
208 
211 
213 
212 
208 
208 
207 
207 
208 
208 
208 
207 
206 
209 
209 
209 
209 
210 
210 
210 
210 
210 
210 
210 
210 
210 
210 
210 
211 
210 
210 
210 
210 
210 
210 
210 
208 
208 
208 
208 
208 
208 
208 
208 
208 
208 
208 
208 
208 
208 
208 
208 
208 
208 
208 
208 
208 
208 
208 
208 
208 
208 
208 
208 
208 
208 
208 
208 
207 
207 
207 
208 
208 
208 
209 
209 
210 
209 
209 
209 
209 
209 
209 
209 
207 
207 
206 
205 
207 
208 
208 
206 
208 
209 
209 
209 
209 
210 
209 
207 
208 
208 
207 
207 
208 
208 
208 
207 
208 
209 
209 
209 
209 
210 
210 
210 
210 
210 
210 
210 
210 
210 
210 
210 
210 
210 
210 
210 
210 
210 
210 
208 
208 
208 
208 
208 
208 
208 
208 
208 
208 
208 
208 
208 
208 
208 
208 
208 
208 
208 
208 
208 
208 
208 
208 
208 
208 
208 
208 
208 
208 
208 
208 
207 
207 
207 
208 
208 
208 
209 
209 
209 
209 
209 
209 
209 
209 
209 
209 
208 
207 
207 
207 
207 
208 
208 
207 
208 
210 
211 
210 
209 
208 
208 
209 
209 
208 
208 
207 
207 
208 
208 
208 
208 
208 
208 
209 
209 
210 
210 
210 
210 
210 
210 
210 
210 
210 
210 
210 
210 
210 
210 
210 
210 
210 
210 
208 
208 
208 
208 
208 
208 
208 
208 
208 
208 
208 
208 
208 
208 
208 
208 
208 
208 
208 
208 
208 
208 
208 
208 
208 
208 
208 
208 
208 
208 
208 
208 
207 
207 
207 
208 
208 
208 
209 
209 
209 
209 
209 
209 
209 
209 
209 
209 
209 
208 
207 
208 
208 
208 
208 
208 
209 
210 
211 
210 
209 
209 
209 
210 
208 
208 
208 
208 
208 
208 
208 
209 
208 
208 
208 
209 
209 
209 
210 
210 
210 
210 
210 
210 
210 
210 
210 
210 
210 
210 
210 
210 
210 
210 
210 
208 
208 
208 
208 
208 
208 
208 
208 
208 
208 
208 
208 
208 
208 
208 
208 
208 
208 
208 
208 
208 
208 
208 
208 
208 
208 
208 
208 
208 
208 
208 
208 
207 
207 
207 
208 
208 
208 
209 
209 
209 
209 
209 
209 
209 
209 
209 
209 
209 
208 
208 
208 
208 
208 
208 
209 
209 
208 
208 
208 
209 
208 
209 
209 
207 
208 
209 
209 
208 
208 
208 
208 
208 
208 
208 
208 
209 
209 
210 
210 
210 
210 
210 
210 
210 
210 
210 
210 
210 
210 
210 
210 
210 
210 
210 
208 
208 
208 
208 
208 
208 
208 
208 
208 
208 
208 
208 
208 
208 
208 
208 
208 
208 
208 
208 
208 
208 
208 
208 
208 
208 
208 
208 
208 
208 
208 
208 
207 
207 
207 
208 
208 
208 
209 
209 
209 
209 
209 
209 
209 
209 
209 
209 
209 
209 
209 
209 
209 
209 
209 
209 
209 
209 
209 
209 
209 
209 
209 
209 
208 
208 
208 
208 
208 
208 
208 
208 
208 
208 
208 
209 
209 
210 
210 
210 
210 
210 
210 
210 
210 
210 
210 
210 
210 
210 
210 
210 
210 
210 
210 
