P2
# Created by MsrVolt
82 76
255
218 
217 
217 
218 
218 
218 
217 
216 
214 
217 
219 
219 
218 
216 
216 
217 
216 
219 
215 
218 
216 
220 
217 
220 
216 
219 
218 
218 
220 
219 
217 
218 
218 
221 
214 
220 
217 
218 
221 
220 
217 
217 
218 
218 
218 
218 
218 
218 
219 
219 
219 
219 
219 
220 
220 
220 
219 
219 
219 
219 
219 
219 
220 
220 
220 
220 
220 
220 
220 
220 
220 
220 
220 
220 
220 
220 
220 
220 
220 
220 
221 
221 
218 
217 
217 
217 
218 
218 
217 
216 
214 
216 
218 
219 
218 
218 
219 
220 
220 
221 
221 
222 
219 
219 
217 
217 
223 
221 
216 
214 
218 
219 
217 
218 
218 
220 
217 
220 
218 
218 
217 
216 
218 
218 
218 
218 
218 
218 
218 
218 
219 
219 
219 
220 
220 
220 
220 
220 
219 
219 
219 
219 
219 
219 
220 
220 
220 
220 
220 
220 
220 
220 
220 
220 
220 
220 
220 
220 
220 
220 
220 
220 
221 
221 
217 
217 
217 
217 
217 
217 
217 
216 
215 
216 
217 
217 
217 
217 
217 
218 
214 
213 
217 
218 
217 
217 
220 
218 
215 
219 
219 
218 
219 
217 
217 
221 
218 
216 
220 
218 
219 
219 
217 
218 
218 
218 
218 
218 
218 
218 
218 
218 
219 
219 
220 
220 
220 
220 
220 
219 
219 
219 
219 
219 
219 
219 
220 
220 
220 
220 
220 
220 
220 
220 
220 
220 
220 
220 
220 
220 
220 
220 
220 
220 
221 
221 
217 
217 
216 
217 
217 
217 
216 
216 
216 
217 
218 
218 
218 
217 
217 
217 
224 
219 
220 
218 
218 
217 
221 
217 
215 
218 
218 
218 
219 
218 
217 
220 
220 
216 
221 
216 
218 
219 
218 
221 
219 
218 
218 
218 
218 
218 
218 
218 
219 
219 
220 
220 
221 
220 
220 
219 
219 
219 
219 
219 
219 
219 
220 
220 
220 
220 
220 
220 
220 
220 
220 
220 
220 
220 
220 
220 
220 
220 
220 
220 
221 
221 
217 
217 
217 
217 
217 
217 
217 
216 
214 
216 
218 
220 
220 
219 
219 
219 
221 
218 
217 
217 
218 
219 
219 
216 
222 
220 
214 
213 
218 
219 
217 
217 
220 
219 
220 
218 
217 
218 
216 
217 
219 
218 
218 
218 
218 
218 
218 
218 
219 
219 
219 
220 
220 
220 
220 
219 
220 
219 
219 
219 
219 
220 
220 
220 
220 
220 
220 
220 
220 
220 
220 
220 
220 
220 
220 
220 
220 
220 
220 
220 
221 
221 
218 
217 
217 
217 
218 
218 
217 
216 
214 
217 
219 
219 
217 
216 
216 
217 
214 
220 
215 
219 
218 
221 
213 
217 
212 
219 
221 
220 
219 
217 
217 
222 
213 
219 
214 
223 
218 
219 
218 
216 
218 
218 
218 
217 
217 
218 
219 
219 
219 
219 
219 
219 
219 
219 
219 
219 
220 
220 
219 
219 
219 
220 
220 
220 
220 
220 
220 
220 
220 
220 
220 
220 
220 
220 
220 
220 
220 
220 
220 
220 
221 
221 
218 
218 
218 
218 
218 
218 
217 
217 
214 
217 
219 
218 
215 
215 
217 
220 
217 
232 
221 
225 
217 
221 
209 
223 
211 
220 
224 
222 
220 
217 
219 
226 
211 
224 
208 
226 
217 
220 
222 
219 
218 
217 
217 
217 
217 
218 
219 
220 
219 
218 
218 
217 
218 
218 
219 
220 
220 
220 
219 
219 
220 
220 
220 
220 
220 
220 
220 
220 
220 
220 
220 
220 
221 
221 
221 
221 
221 
221 
221 
221 
221 
221 
219 
218 
218 
218 
219 
219 
218 
217 
211 
215 
219 
219 
218 
220 
226 
232 
198 
221 
207 
215 
208 
220 
213 
239 
236 
227 
213 
209 
218 
223 
222 
222 
220 
235 
207 
228 
213 
217 
223 
219 
218 
217 
217 
217 
217 
218 
220 
221 
219 
218 
217 
217 
217 
218 
219 
220 
220 
220 
220 
219 
220 
220 
220 
221 
220 
220 
220 
220 
220 
220 
220 
220 
221 
221 
221 
221 
221 
221 
221 
221 
221 
221 
219 
219 
218 
218 
218 
218 
218 
218 
216 
215 
218 
218 
221 
216 
218 
201 
191 
199 
210 
223 
192 
187 
216 
206 
185 
202 
226 
219 
228 
220 
216 
202 
209 
231 
204 
222 
223 
221 
222 
220 
217 
221 
211 
219 
219 
216 
223 
218 
220 
218 
217 
217 
219 
220 
220 
219 
220 
220 
220 
220 
220 
220 
220 
220 
220 
220 
220 
220 
220 
220 
221 
221 
221 
221 
221 
221 
221 
221 
221 
221 
221 
221 
218 
218 
218 
218 
218 
218 
218 
218 
217 
221 
219 
215 
220 
225 
215 
196 
165 
138 
169 
223 
196 
179 
176 
137 
114 
167 
210 
216 
206 
220 
227 
233 
225 
222 
223 
224 
223 
215 
210 
227 
221 
221 
221 
218 
220 
216 
222 
222 
220 
220 
221 
221 
220 
220 
220 
221 
220 
220 
220 
220 
220 
220 
220 
220 
220 
220 
220 
220 
220 
220 
221 
221 
221 
221 
221 
221 
221 
221 
221 
221 
221 
221 
218 
218 
218 
218 
218 
218 
218 
218 
221 
217 
216 
220 
217 
210 
220 
191 
100 
53 
131 
169 
171 
183 
133 
129 
128 
155 
182 
176 
193 
188 
165 
220 
222 
207 
229 
227 
209 
214 
230 
221 
221 
214 
216 
211 
222 
222 
223 
219 
219 
221 
223 
223 
221 
220 
220 
221 
220 
220 
220 
220 
220 
220 
220 
220 
220 
220 
220 
220 
220 
220 
221 
221 
221 
221 
221 
221 
221 
221 
221 
221 
221 
221 
218 
218 
218 
218 
218 
217 
217 
217 
215 
220 
217 
212 
217 
214 
219 
114 
90 
116 
128 
146 
199 
164 
143 
195 
206 
197 
168 
170 
179 
157 
116 
184 
223 
206 
225 
215 
220 
241 
223 
214 
220 
222 
223 
220 
219 
217 
220 
220 
218 
220 
221 
221 
220 
220 
220 
220 
220 
220 
220 
220 
220 
220 
220 
220 
220 
220 
220 
220 
220 
220 
221 
221 
221 
221 
221 
221 
221 
221 
221 
221 
221 
221 
219 
219 
218 
218 
217 
217 
216 
216 
217 
219 
215 
211 
215 
218 
205 
125 
112 
195 
175 
141 
216 
185 
179 
217 
202 
184 
168 
179 
183 
151 
155 
170 
209 
200 
202 
206 
220 
215 
229 
222 
217 
223 
216 
221 
219 
220 
221 
216 
219 
218 
217 
218 
219 
220 
220 
220 
220 
220 
220 
220 
220 
220 
220 
220 
220 
220 
220 
220 
220 
220 
221 
221 
221 
221 
221 
221 
221 
221 
221 
221 
221 
221 
219 
218 
218 
217 
217 
216 
216 
216 
221 
212 
212 
211 
209 
215 
190 
205 
111 
104 
175 
108 
151 
202 
165 
153 
148 
147 
155 
138 
153 
174 
145 
97 
136 
156 
165 
169 
217 
209 
222 
220 
219 
221 
219 
219 
219 
221 
218 
214 
221 
219 
217 
217 
219 
221 
221 
220 
220 
220 
220 
220 
220 
220 
220 
220 
220 
220 
220 
220 
220 
220 
221 
221 
221 
221 
221 
221 
221 
221 
221 
221 
221 
221 
217 
217 
217 
217 
217 
217 
217 
217 
211 
214 
219 
199 
204 
225 
197 
182 
128 
39 
129 
112 
143 
218 
207 
192 
108 
51 
45 
127 
165 
191 
140 
151 
52 
121 
152 
128 
158 
166 
157 
220 
216 
210 
234 
210 
213 
213 
210 
218 
220 
220 
219 
219 
219 
219 
219 
218 
220 
220 
220 
220 
220 
220 
220 
220 
220 
220 
220 
220 
220 
220 
221 
221 
221 
221 
221 
221 
221 
221 
221 
221 
221 
221 
216 
216 
216 
217 
217 
217 
218 
218 
210 
214 
228 
202 
206 
214 
224 
162 
138 
72 
96 
57 
105 
190 
176 
180 
165 
71 
52 
131 
186 
143 
176 
161 
150 
166 
110 
142 
102 
127 
207 
209 
196 
162 
196 
169 
212 
230 
214 
212 
218 
220 
221 
220 
218 
216 
216 
217 
220 
220 
220 
220 
220 
220 
220 
220 
220 
220 
220 
220 
220 
220 
221 
221 
221 
221 
221 
221 
221 
221 
221 
221 
221 
221 
216 
217 
216 
216 
218 
220 
218 
214 
213 
221 
206 
200 
209 
201 
207 
162 
176 
160 
60 
58 
121 
186 
142 
107 
61 
82 
51 
128 
130 
112 
153 
70 
165 
173 
135 
94 
101 
194 
206 
186 
180 
130 
198 
197 
207 
207 
201 
213 
210 
216 
228 
216 
220 
219 
215 
213 
218 
216 
223 
223 
219 
220 
220 
220 
222 
220 
220 
222 
221 
219 
219 
221 
220 
220 
220 
220 
220 
220 
220 
220 
220 
220 
219 
218 
216 
214 
215 
217 
216 
213 
224 
208 
182 
185 
209 
205 
187 
152 
224 
157 
111 
81 
193 
199 
123 
183 
73 
59 
108 
179 
124 
85 
102 
58 
130 
152 
153 
89 
110 
151 
146 
156 
151 
156 
169 
210 
167 
175 
182 
198 
204 
199 
206 
220 
234 
217 
223 
223 
224 
215 
216 
222 
223 
222 
219 
219 
221 
219 
219 
220 
221 
220 
220 
222 
221 
221 
221 
221 
221 
221 
221 
221 
221 
221 
217 
217 
217 
216 
217 
219 
218 
216 
219 
222 
197 
192 
208 
190 
172 
202 
192 
169 
63 
164 
182 
193 
129 
197 
159 
62 
187 
180 
148 
89 
84 
96 
82 
161 
164 
120 
57 
88 
124 
141 
156 
164 
136 
174 
133 
164 
166 
182 
178 
194 
207 
198 
216 
218 
231 
227 
221 
223 
223 
221 
220 
222 
222 
218 
220 
219 
218 
219 
220 
220 
221 
222 
221 
221 
221 
221 
221 
221 
221 
221 
221 
221 
215 
216 
217 
218 
219 
219 
216 
214 
218 
215 
218 
224 
201 
185 
191 
212 
192 
141 
61 
162 
194 
202 
142 
81 
114 
146 
202 
139 
82 
89 
86 
67 
68 
147 
162 
108 
61 
122 
133 
128 
145 
145 
166 
153 
158 
139 
168 
151 
129 
188 
220 
178 
195 
215 
217 
212 
216 
223 
222 
222 
222 
221 
222 
221 
221 
219 
219 
219 
220 
221 
221 
222 
221 
221 
221 
221 
221 
221 
221 
221 
221 
221 
218 
217 
217 
217 
217 
215 
214 
213 
209 
231 
230 
212 
186 
180 
202 
208 
182 
203 
90 
181 
185 
203 
179 
115 
154 
197 
174 
148 
71 
76 
59 
73 
118 
66 
97 
88 
123 
119 
130 
97 
95 
139 
174 
171 
132 
94 
135 
118 
117 
183 
201 
170 
193 
197 
195 
204 
211 
217 
216 
224 
227 
218 
219 
223 
220 
221 
221 
220 
220 
220 
221 
221 
221 
221 
221 
221 
221 
221 
221 
221 
221 
221 
219 
217 
216 
216 
216 
217 
218 
220 
214 
207 
205 
176 
168 
190 
218 
161 
193 
187 
194 
179 
198 
159 
165 
131 
207 
168 
122 
97 
83 
101 
83 
68 
79 
86 
94 
91 
135 
120 
115 
115 
87 
165 
149 
146 
120 
112 
77 
120 
129 
182 
176 
170 
197 
187 
181 
180 
192 
222 
226 
224 
222 
217 
221 
220 
218 
221 
222 
221 
219 
219 
221 
221 
221 
221 
221 
221 
221 
221 
221 
221 
221 
221 
217 
215 
215 
217 
217 
217 
219 
222 
203 
215 
220 
176 
204 
200 
204 
174 
190 
209 
218 
175 
175 
171 
136 
190 
198 
95 
49 
120 
118 
72 
78 
75 
63 
57 
72 
99 
116 
162 
92 
93 
97 
100 
122 
111 
100 
108 
92 
87 
107 
152 
164 
156 
169 
181 
155 
136 
172 
208 
215 
218 
223 
219 
223 
218 
214 
219 
223 
221 
218 
218 
220 
221 
220 
220 
220 
220 
220 
220 
220 
220 
220 
220 
215 
215 
216 
218 
217 
212 
210 
211 
222 
209 
209 
160 
209 
188 
186 
188 
188 
197 
181 
200 
116 
195 
186 
204 
190 
101 
96 
152 
131 
71 
63 
54 
72 
69 
78 
89 
95 
128 
82 
75 
67 
81 
88 
90 
77 
83 
102 
100 
87 
109 
147 
112 
107 
160 
129 
125 
167 
172 
172 
210 
239 
224 
219 
221 
211 
218 
223 
221 
217 
217 
219 
221 
220 
220 
220 
220 
220 
220 
220 
220 
220 
220 
217 
212 
218 
218 
210 
219 
223 
205 
223 
213 
207 
184 
222 
166 
184 
207 
179 
197 
145 
183 
159 
173 
221 
203 
167 
104 
142 
170 
129 
57 
76 
58 
68 
75 
64 
58 
63 
89 
77 
62 
70 
87 
82 
77 
75 
72 
85 
96 
66 
75 
110 
93 
86 
155 
123 
134 
170 
162 
153 
195 
205 
203 
220 
224 
221 
215 
217 
220 
215 
219 
218 
219 
219 
221 
222 
219 
219 
220 
220 
219 
220 
220 
214 
214 
216 
217 
219 
221 
222 
222 
205 
224 
209 
202 
203 
164 
161 
181 
209 
213 
127 
88 
125 
151 
222 
199 
169 
106 
166 
135 
94 
58 
52 
69 
65 
48 
67 
73 
62 
88 
80 
75 
78 
86 
84 
87 
82 
67 
70 
80 
72 
57 
84 
93 
94 
128 
103 
81 
117 
153 
170 
177 
187 
198 
218 
224 
228 
221 
222 
220 
211 
224 
222 
224 
220 
221 
220 
219 
219 
221 
220 
218 
220 
220 
213 
219 
214 
215 
222 
215 
213 
228 
197 
227 
201 
185 
159 
171 
210 
146 
184 
193 
174 
100 
69 
155 
171 
181 
171 
129 
171 
109 
80 
60 
65 
100 
72 
54 
85 
99 
64 
84 
79 
59 
83 
80 
72 
76 
79 
71 
71 
74 
86 
73 
75 
80 
86 
83 
83 
59 
83 
124 
136 
142 
148 
188 
191 
214 
226 
217 
231 
223 
211 
227 
214 
217 
220 
220 
220 
219 
220 
221 
220 
218 
220 
220 
214 
219 
214 
214 
220 
212 
209 
224 
183 
209 
210 
206 
148 
192 
179 
185 
224 
204 
119 
91 
120 
204 
130 
151 
176 
154 
163 
104 
85 
69 
110 
152 
81 
61 
88 
72 
64 
62 
94 
78 
68 
67 
64 
70 
83 
88 
78 
63 
85 
100 
81 
64 
76 
67 
85 
87 
97 
86 
93 
114 
141 
169 
164 
195 
197 
209 
211 
225 
223 
216 
228 
216 
220 
220 
220 
220 
220 
220 
220 
220 
220 
220 
215 
215 
215 
216 
217 
217 
218 
219 
200 
201 
224 
226 
178 
191 
170 
207 
184 
165 
79 
143 
192 
128 
140 
160 
164 
152 
153 
120 
125 
111 
125 
133 
88 
60 
70 
61 
82 
89 
79 
87 
66 
62 
61 
65 
76 
86 
79 
67 
81 
104 
88 
69 
74 
69 
81 
92 
94 
72 
86 
140 
147 
162 
138 
167 
186 
193 
210 
217 
223 
219 
221 
223 
219 
220 
221 
221 
219 
218 
220 
221 
220 
220 
216 
213 
217 
218 
214 
219 
222 
213 
227 
211 
218 
205 
208 
196 
221 
187 
199 
153 
138 
195 
123 
84 
195 
194 
153 
173 
168 
164 
179 
149 
132 
107 
86 
97 
62 
55 
69 
60 
74 
72 
71 
60 
61 
60 
59 
66 
72 
78 
74 
82 
89 
85 
69 
64 
73 
82 
86 
76 
93 
116 
112 
117 
127 
153 
161 
186 
200 
218 
224 
224 
215 
222 
219 
219 
220 
221 
220 
219 
219 
221 
220 
220 
218 
216 
217 
217 
214 
217 
218 
212 
218 
216 
213 
209 
217 
219 
201 
193 
171 
90 
120 
196 
101 
129 
174 
184 
179 
166 
129 
136 
193 
184 
118 
88 
72 
81 
148 
55 
72 
60 
64 
81 
61 
57 
66 
65 
58 
60 
62 
67 
64 
69 
83 
82 
70 
66 
79 
90 
65 
62 
96 
79 
118 
76 
107 
98 
104 
185 
152 
218 
223 
215 
236 
219 
222 
218 
217 
220 
222 
221 
220 
220 
220 
220 
216 
218 
216 
216 
218 
217 
216 
218 
217 
214 
212 
218 
204 
207 
211 
177 
178 
136 
136 
153 
102 
176 
212 
170 
174 
144 
147 
133 
188 
191 
85 
122 
68 
72 
114 
64 
60 
66 
63 
66 
65 
63 
71 
62 
57 
64 
63 
59 
77 
86 
84 
73 
80 
72 
77 
85 
82 
76 
55 
68 
100 
83 
86 
77 
88 
165 
145 
199 
196 
226 
213 
220 
224 
218 
215 
218 
223 
223 
220 
218 
220 
220 
217 
217 
217 
217 
217 
216 
216 
216 
220 
212 
218 
211 
202 
201 
220 
173 
195 
204 
191 
119 
84 
180 
196 
147 
157 
116 
131 
145 
190 
180 
126 
155 
105 
72 
91 
59 
64 
77 
62 
71 
68 
68 
68 
64 
56 
66 
55 
66 
74 
91 
77 
79 
76 
74 
71 
68 
107 
88 
84 
124 
74 
66 
94 
91 
91 
119 
124 
156 
188 
235 
221 
217 
226 
226 
208 
222 
228 
213 
221 
219 
220 
220 
217 
217 
217 
217 
217 
217 
217 
217 
218 
215 
219 
210 
208 
208 
210 
153 
146 
182 
183 
107 
133 
204 
173 
173 
158 
123 
118 
199 
193 
171 
159 
132 
145 
126 
112 
67 
109 
75 
78 
77 
74 
66 
58 
58 
60 
75 
59 
59 
65 
72 
83 
74 
70 
73 
82 
62 
75 
66 
66 
141 
97 
92 
95 
99 
92 
90 
105 
121 
156 
196 
231 
221 
215 
221 
227 
223 
219 
217 
215 
221 
220 
220 
217 
217 
217 
218 
218 
218 
218 
219 
218 
215 
215 
210 
216 
216 
217 
174 
158 
179 
185 
134 
183 
214 
170 
173 
162 
125 
108 
182 
152 
152 
160 
137 
181 
163 
143 
105 
117 
71 
86 
82 
72 
70 
60 
57 
61 
69 
63 
60 
60 
67 
63 
69 
69 
75 
68 
62 
68 
61 
53 
108 
86 
94 
88 
85 
88 
66 
97 
82 
99 
126 
194 
227 
219 
209 
234 
225 
212 
225 
217 
222 
220 
220 
217 
217 
217 
217 
218 
218 
218 
218 
217 
214 
213 
214 
219 
213 
221 
210 
211 
214 
200 
184 
203 
184 
171 
167 
157 
119 
110 
135 
142 
149 
147 
189 
170 
152 
150 
154 
123 
107 
79 
71 
70 
76 
69 
60 
59 
58 
63 
63 
68 
68 
52 
57 
63 
82 
89 
70 
63 
68 
74 
95 
85 
76 
79 
78 
92 
64 
96 
69 
81 
101 
125 
210 
228 
206 
221 
224 
215 
226 
225 
218 
220 
220 
217 
217 
217 
217 
217 
217 
217 
217 
214 
216 
217 
217 
218 
208 
211 
214 
203 
198 
157 
188 
227 
191 
173 
170 
159 
157 
149 
133 
149 
159 
150 
168 
127 
125 
150 
193 
182 
174 
106 
74 
78 
79 
67 
60 
60 
59 
61 
59 
70 
58 
57 
49 
52 
80 
135 
69 
53 
52 
69 
87 
96 
80 
89 
96 
96 
66 
81 
65 
89 
108 
81 
141 
211 
225 
215 
219 
224 
219 
223 
218 
220 
220 
217 
217 
217 
217 
217 
216 
216 
216 
214 
220 
219 
213 
215 
215 
215 
214 
218 
212 
181 
198 
202 
166 
161 
196 
153 
188 
140 
155 
148 
147 
195 
143 
146 
138 
166 
184 
165 
140 
136 
91 
83 
78 
66 
61 
60 
61 
58 
62 
55 
54 
55 
51 
49 
63 
105 
52 
65 
57 
67 
72 
67 
67 
71 
74 
95 
78 
82 
69 
75 
86 
70 
80 
165 
234 
229 
218 
230 
216 
216 
223 
220 
220 
217 
217 
217 
217 
217 
217 
217 
217 
218 
220 
218 
212 
215 
221 
220 
220 
202 
197 
199 
217 
199 
163 
149 
160 
181 
163 
168 
163 
149 
155 
154 
155 
130 
139 
189 
197 
169 
132 
165 
112 
84 
76 
68 
66 
58 
62 
56 
68 
52 
56 
47 
58 
49 
52 
49 
48 
49 
55 
79 
78 
55 
64 
69 
68 
88 
87 
93 
85 
63 
73 
71 
71 
123 
203 
233 
223 
222 
221 
219 
224 
219 
219 
217 
217 
217 
218 
218 
218 
218 
218 
220 
217 
218 
219 
218 
215 
210 
214 
208 
210 
205 
215 
200 
166 
161 
161 
137 
173 
180 
159 
169 
156 
145 
141 
119 
143 
173 
182 
168 
142 
142 
101 
89 
75 
66 
66 
58 
66 
54 
69 
68 
52 
48 
52 
48 
57 
52 
61 
75 
53 
69 
75 
60 
70 
65 
57 
72 
69 
79 
90 
71 
91 
65 
75 
103 
149 
225 
226 
207 
226 
226 
219 
219 
219 
216 
216 
216 
217 
217 
217 
217 
217 
216 
216 
216 
216 
215 
214 
212 
211 
209 
213 
214 
208 
196 
183 
183 
193 
122 
143 
182 
151 
143 
129 
162 
155 
138 
158 
158 
172 
175 
137 
119 
75 
80 
75 
63 
65 
63 
67 
65 
76 
68 
52 
52 
48 
44 
44 
64 
80 
104 
50 
80 
72 
58 
84 
65 
58 
63 
58 
69 
85 
76 
100 
83 
75 
90 
75 
215 
231 
206 
231 
219 
219 
219 
219 
217 
217 
217 
217 
217 
216 
216 
216 
216 
216 
215 
216 
216 
217 
217 
216 
209 
212 
212 
208 
203 
200 
195 
190 
117 
122 
178 
152 
125 
139 
180 
167 
157 
172 
163 
162 
165 
137 
89 
70 
73 
74 
66 
57 
61 
75 
54 
59 
58 
50 
50 
47 
69 
70 
90 
124 
102 
61 
111 
56 
61 
81 
65 
66 
62 
58 
65 
75 
69 
90 
88 
88 
82 
62 
165 
232 
220 
225 
220 
222 
220 
219 
218 
218 
217 
217 
217 
216 
216 
216 
217 
216 
215 
215 
216 
218 
219 
219 
215 
213 
211 
203 
199 
206 
203 
186 
152 
127 
175 
172 
111 
130 
158 
150 
144 
162 
152 
134 
139 
128 
91 
69 
73 
70 
69 
67 
64 
66 
54 
58 
60 
65 
48 
41 
75 
106 
126 
145 
86 
84 
136 
50 
64 
76 
61 
73 
58 
58 
63 
65 
65 
76 
86 
90 
82 
57 
106 
218 
238 
216 
220 
223 
220 
219 
218 
218 
217 
217 
217 
217 
217 
217 
218 
217 
216 
215 
215 
216 
216 
216 
221 
220 
221 
214 
204 
209 
207 
189 
192 
162 
156 
146 
80 
109 
129 
125 
129 
145 
140 
117 
114 
99 
106 
67 
81 
68 
64 
76 
65 
65 
84 
81 
73 
84 
52 
68 
87 
107 
119 
134 
83 
102 
141 
45 
74 
67 
57 
64 
56 
57 
59 
57 
61 
59 
69 
70 
81 
59 
66 
171 
241 
211 
220 
221 
220 
219 
217 
217 
217 
217 
217 
218 
218 
218 
219 
218 
217 
216 
216 
215 
214 
212 
219 
216 
222 
219 
206 
198 
186 
165 
194 
175 
134 
137 
120 
106 
117 
120 
113 
131 
135 
114 
102 
88 
103 
77 
77 
66 
65 
70 
69 
76 
84 
70 
66 
123 
87 
127 
120 
134 
132 
138 
110 
117 
109 
52 
79 
121 
76 
95 
70 
66 
64 
59 
64 
56 
63 
58 
65 
56 
51 
109 
228 
216 
223 
220 
220 
220 
217 
217 
217 
217 
218 
218 
219 
219 
218 
218 
218 
219 
218 
217 
215 
213 
210 
206 
212 
219 
219 
215 
204 
189 
192 
186 
114 
111 
141 
93 
110 
121 
98 
137 
143 
110 
92 
110 
92 
84 
79 
64 
71 
71 
78 
80 
81 
95 
104 
166 
110 
139 
132 
155 
148 
141 
151 
123 
86 
63 
88 
162 
102 
125 
86 
73 
71 
62 
63 
59 
63 
58 
55 
57 
56 
67 
199 
225 
225 
219 
220 
220 
217 
217 
218 
218 
218 
218 
218 
218 
218 
218 
218 
219 
219 
218 
216 
215 
221 
216 
212 
212 
213 
211 
200 
189 
171 
192 
109 
107 
134 
92 
98 
102 
109 
141 
137 
103 
77 
100 
71 
57 
84 
60 
67 
88 
82 
77 
123 
142 
142 
115 
67 
118 
129 
146 
166 
167 
150 
112 
93 
61 
99 
118 
111 
109 
83 
66 
71 
63 
56 
57 
56 
56 
58 
61 
62 
53 
160 
228 
224 
220 
220 
220 
218 
218 
218 
218 
218 
218 
218 
218 
218 
218 
218 
218 
218 
218 
216 
215 
211 
215 
214 
213 
217 
217 
210 
203 
202 
196 
99 
148 
151 
103 
106 
160 
165 
160 
148 
140 
111 
105 
99 
78 
65 
54 
64 
117 
88 
68 
141 
99 
173 
80 
64 
117 
118 
130 
170 
153 
101 
106 
80 
91 
89 
86 
114 
107 
81 
65 
81 
76 
61 
63 
58 
57 
62 
60 
60 
52 
129 
223 
223 
222 
220 
220 
217 
217 
217 
217 
217 
217 
217 
217 
218 
218 
218 
218 
218 
217 
217 
216 
215 
216 
215 
213 
214 
214 
205 
195 
223 
178 
125 
184 
140 
135 
120 
165 
170 
158 
134 
158 
126 
99 
77 
71 
82 
126 
105 
91 
55 
80 
109 
166 
127 
75 
119 
141 
110 
169 
164 
126 
48 
73 
77 
92 
95 
91 
104 
104 
81 
72 
79 
77 
70 
80 
83 
71 
64 
56 
54 
48 
117 
207 
225 
224 
220 
220 
218 
218 
218 
218 
218 
218 
218 
218 
218 
218 
218 
218 
218 
217 
217 
217 
220 
211 
216 
217 
210 
219 
221 
199 
221 
195 
178 
211 
144 
164 
142 
171 
161 
145 
151 
163 
147 
142 
106 
141 
150 
125 
87 
108 
110 
133 
141 
158 
134 
84 
136 
90 
107 
96 
125 
80 
62 
59 
94 
79 
109 
94 
98 
93 
78 
67 
76 
78 
71 
62 
112 
93 
79 
71 
56 
51 
91 
174 
223 
224 
220 
220 
218 
218 
218 
218 
218 
218 
218 
218 
218 
218 
219 
218 
218 
218 
217 
217 
220 
212 
216 
219 
213 
217 
222 
214 
212 
217 
198 
193 
144 
144 
172 
167 
165 
167 
143 
162 
165 
185 
180 
155 
123 
105 
105 
94 
144 
177 
133 
108 
109 
133 
82 
141 
65 
84 
80 
78 
64 
81 
112 
83 
86 
86 
87 
82 
73 
67 
69 
73 
70 
65 
75 
83 
87 
72 
79 
76 
75 
127 
228 
222 
221 
221 
218 
218 
218 
218 
218 
218 
218 
218 
218 
218 
219 
219 
218 
218 
218 
217 
216 
219 
215 
216 
220 
210 
208 
228 
207 
197 
210 
191 
163 
136 
145 
165 
159 
177 
135 
140 
156 
167 
167 
171 
155 
102 
114 
133 
162 
129 
119 
136 
147 
110 
125 
105 
64 
51 
81 
81 
67 
81 
68 
75 
65 
62 
76 
69 
66 
70 
68 
77 
84 
83 
61 
77 
80 
70 
74 
104 
82 
145 
225 
224 
220 
220 
218 
218 
218 
218 
218 
218 
218 
218 
218 
218 
218 
218 
218 
218 
218 
217 
214 
221 
216 
214 
219 
212 
209 
222 
220 
215 
219 
200 
184 
197 
172 
159 
179 
185 
154 
154 
148 
164 
181 
173 
149 
166 
178 
123 
143 
141 
83 
107 
98 
136 
79 
84 
102 
56 
84 
94 
69 
71 
54 
54 
64 
55 
89 
66 
70 
75 
72 
81 
90 
75 
90 
77 
70 
61 
58 
80 
97 
186 
227 
220 
220 
220 
218 
218 
218 
218 
218 
218 
218 
218 
217 
218 
218 
218 
218 
218 
217 
217 
218 
216 
219 
215 
211 
222 
224 
207 
207 
217 
216 
167 
171 
211 
209 
166 
153 
196 
180 
162 
147 
145 
153 
161 
159 
194 
184 
152 
110 
79 
66 
117 
144 
82 
97 
74 
69 
75 
53 
87 
98 
79 
72 
59 
71 
59 
81 
66 
72 
79 
67 
74 
86 
84 
77 
70 
60 
53 
59 
66 
66 
196 
229 
217 
219 
219 
217 
217 
217 
217 
217 
217 
217 
217 
217 
217 
217 
217 
217 
217 
217 
217 
220 
213 
219 
218 
211 
222 
225 
205 
211 
196 
224 
144 
184 
205 
183 
205 
197 
177 
194 
190 
173 
174 
153 
169 
146 
188 
191 
173 
181 
148 
89 
96 
86 
76 
73 
70 
105 
90 
57 
116 
119 
74 
68 
73 
75 
61 
57 
59 
65 
76 
64 
74 
86 
98 
57 
67 
56 
55 
58 
76 
59 
207 
218 
221 
219 
219 
217 
217 
217 
217 
217 
217 
217 
217 
216 
217 
217 
217 
217 
217 
217 
217 
217 
216 
217 
219 
218 
213 
213 
215 
227 
218 
178 
99 
191 
219 
165 
184 
181 
183 
169 
174 
165 
158 
171 
176 
164 
184 
173 
139 
182 
165 
158 
126 
105 
82 
122 
96 
102 
72 
125 
93 
76 
81 
90 
60 
55 
63 
76 
57 
65 
74 
70 
82 
81 
65 
62 
52 
67 
55 
63 
45 
137 
218 
217 
221 
220 
220 
216 
217 
217 
217 
218 
218 
218 
218 
217 
217 
217 
217 
217 
217 
217 
217 
220 
217 
215 
220 
213 
218 
226 
201 
225 
220 
172 
145 
221 
212 
212 
206 
197 
179 
163 
162 
182 
179 
180 
185 
174 
178 
163 
140 
169 
160 
184 
194 
167 
177 
139 
104 
110 
151 
135 
89 
72 
98 
96 
74 
63 
63 
64 
57 
58 
67 
72 
90 
87 
57 
70 
56 
57 
65 
52 
88 
158 
225 
224 
221 
220 
220 
216 
217 
217 
217 
218 
218 
218 
218 
217 
217 
217 
217 
217 
217 
217 
217 
218 
216 
218 
216 
217 
219 
217 
218 
202 
226 
219 
209 
237 
220 
217 
209 
201 
185 
160 
164 
177 
165 
177 
181 
175 
175 
166 
153 
154 
139 
169 
166 
171 
129 
174 
82 
114 
123 
103 
102 
101 
91 
73 
86 
85 
59 
59 
61 
53 
62 
75 
93 
83 
64 
67 
68 
57 
50 
69 
121 
118 
220 
222 
215 
220 
220 
216 
217 
217 
217 
218 
218 
218 
218 
217 
217 
217 
217 
217 
217 
217 
217 
216 
217 
219 
214 
220 
218 
209 
232 
223 
227 
216 
217 
219 
219 
217 
198 
209 
205 
183 
182 
171 
141 
163 
170 
174 
182 
158 
144 
147 
135 
167 
188 
147 
167 
167 
146 
105 
111 
113 
88 
96 
98 
71 
68 
68 
66 
77 
55 
60 
60 
58 
72 
79 
87 
67 
58 
61 
47 
70 
77 
155 
228 
224 
223 
220 
220 
216 
217 
217 
217 
218 
218 
218 
218 
217 
217 
217 
217 
217 
217 
217 
217 
216 
218 
217 
214 
221 
216 
210 
228 
220 
217 
212 
220 
214 
217 
221 
211 
210 
209 
197 
185 
161 
134 
157 
164 
186 
183 
151 
145 
162 
155 
155 
173 
195 
157 
176 
114 
128 
96 
101 
83 
91 
100 
95 
93 
79 
67 
71 
54 
62 
68 
57 
61 
77 
96 
75 
54 
46 
76 
69 
80 
223 
216 
213 
220 
220 
220 
216 
217 
217 
217 
218 
218 
218 
218 
217 
217 
217 
217 
217 
217 
217 
217 
217 
218 
214 
218 
219 
215 
217 
213 
218 
216 
220 
228 
225 
214 
219 
221 
209 
199 
194 
178 
162 
155 
170 
166 
186 
169 
161 
163 
162 
165 
165 
178 
171 
184 
163 
142 
120 
105 
103 
116 
98 
93 
103 
105 
85 
64 
56 
60 
66 
75 
63 
70 
84 
87 
77 
59 
62 
96 
81 
185 
239 
219 
224 
215 
220 
220 
216 
217 
217 
217 
218 
218 
218 
218 
217 
217 
217 
217 
217 
217 
217 
217 
217 
218 
213 
220 
217 
215 
221 
204 
234 
221 
215 
213 
222 
211 
213 
220 
224 
216 
222 
207 
189 
185 
189 
172 
168 
175 
185 
191 
188 
167 
145 
151 
179 
179 
183 
145 
141 
113 
163 
128 
79 
68 
76 
75 
71 
71 
65 
73 
92 
88 
71 
76 
70 
54 
51 
49 
157 
107 
143 
226 
211 
217 
223 
221 
220 
220 
216 
217 
217 
217 
218 
218 
218 
218 
218 
218 
218 
218 
218 
218 
218 
218 
218 
216 
217 
218 
216 
217 
218 
210 
220 
216 
218 
216 
219 
214 
217 
226 
216 
215 
224 
218 
195 
180 
184 
157 
164 
172 
152 
162 
188 
169 
154 
155 
158 
152 
168 
179 
149 
101 
130 
83 
60 
51 
60 
79 
85 
74 
68 
83 
61 
61 
61 
72 
55 
53 
58 
78 
124 
109 
216 
227 
230 
226 
215 
221 
220 
220 
216 
217 
217 
217 
218 
218 
218 
218 
218 
218 
218 
218 
218 
218 
218 
218 
217 
215 
221 
216 
217 
220 
213 
220 
220 
215 
217 
217 
214 
219 
217 
215 
220 
215 
214 
222 
208 
193 
208 
173 
171 
175 
151 
161 
168 
150 
174 
169 
177 
178 
172 
182 
192 
169 
133 
90 
66 
74 
74 
81 
79 
64 
66 
77 
69 
60 
59 
71 
57 
76 
52 
50 
122 
192 
232 
208 
224 
221 
221 
222 
220 
220 
216 
217 
217 
218 
218 
218 
218 
217 
217 
218 
218 
218 
218 
218 
218 
218 
217 
217 
217 
217 
217 
217 
217 
217 
219 
216 
216 
217 
217 
215 
216 
218 
219 
213 
215 
224 
216 
214 
212 
182 
172 
177 
158 
164 
169 
153 
184 
185 
193 
190 
179 
182 
180 
154 
120 
88 
66 
71 
67 
69 
77 
60 
91 
74 
62 
85 
67 
63 
55 
61 
52 
112 
188 
232 
224 
215 
221 
217 
224 
217 
220 
220 
216 
217 
217 
218 
218 
218 
218 
218 
218 
218 
218 
218 
218 
218 
218 
217 
217 
217 
217 
217 
217 
217 
217 
217 
218 
216 
216 
218 
218 
217 
217 
219 
221 
216 
215 
221 
214 
213 
214 
191 
183 
189 
174 
176 
179 
167 
166 
175 
188 
195 
179 
181 
154 
122 
121 
81 
63 
65 
71 
72 
70 
87 
72 
73 
66 
90 
58 
59 
75 
69 
110 
213 
235 
216 
210 
227 
216 
223 
219 
223 
220 
220 
216 
216 
217 
218 
218 
218 
218 
218 
218 
218 
218 
218 
218 
218 
217 
217 
217 
217 
217 
217 
217 
217 
217 
217 
217 
216 
217 
218 
218 
217 
217 
218 
221 
220 
216 
217 
213 
213 
216 
205 
204 
204 
187 
174 
172 
169 
145 
162 
190 
189 
169 
156 
175 
174 
139 
129 
102 
93 
90 
75 
81 
86 
89 
74 
49 
71 
67 
98 
139 
144 
199 
236 
214 
218 
229 
240 
205 
227 
222 
215 
220 
220 
216 
216 
217 
218 
218 
219 
219 
219 
218 
218 
218 
218 
218 
217 
217 
217 
217 
217 
217 
217 
217 
217 
217 
217 
217 
217 
217 
217 
217 
215 
214 
214 
218 
221 
218 
215 
215 
215 
217 
217 
218 
213 
199 
175 
168 
171 
150 
159 
175 
183 
169 
171 
178 
176 
182 
172 
156 
133 
127 
119 
100 
85 
78 
119 
94 
103 
79 
111 
198 
226 
240 
217 
210 
225 
209 
228 
216 
220 
218 
223 
220 
220 
216 
216 
217 
218 
218 
219 
219 
219 
218 
218 
218 
218 
218 
217 
217 
217 
217 
217 
217 
217 
217 
217 
217 
217 
217 
217 
218 
217 
217 
216 
215 
214 
215 
219 
219 
216 
217 
218 
217 
223 
218 
217 
215 
192 
182 
183 
179 
166 
161 
180 
183 
184 
176 
169 
188 
204 
185 
155 
164 
148 
122 
112 
153 
129 
84 
131 
182 
227 
237 
214 
217 
215 
223 
227 
206 
217 
225 
218 
214 
228 
220 
220 
217 
217 
218 
218 
218 
218 
218 
218 
217 
217 
218 
218 
218 
218 
217 
217 
217 
217 
217 
217 
217 
217 
217 
217 
216 
218 
218 
218 
218 
219 
219 
218 
215 
217 
220 
217 
218 
220 
217 
223 
217 
217 
220 
203 
192 
189 
195 
175 
180 
185 
189 
185 
202 
205 
190 
215 
193 
171 
171 
179 
163 
152 
89 
133 
128 
220 
235 
211 
221 
223 
215 
233 
212 
221 
239 
220 
216 
224 
217 
219 
220 
220 
218 
218 
218 
218 
218 
218 
218 
218 
216 
217 
217 
218 
218 
218 
218 
218 
218 
218 
218 
218 
218 
218 
218 
218 
217 
218 
218 
217 
218 
220 
221 
219 
218 
215 
220 
217 
217 
220 
216 
220 
220 
217 
217 
208 
198 
196 
195 
189 
202 
199 
196 
209 
203 
200 
212 
195 
182 
178 
163 
155 
153 
141 
133 
183 
216 
230 
225 
219 
225 
217 
214 
220 
225 
211 
229 
219 
217 
224 
219 
222 
220 
220 
218 
218 
218 
218 
218 
218 
217 
217 
216 
216 
217 
217 
218 
218 
218 
218 
218 
218 
218 
218 
218 
218 
218 
218 
217 
219 
218 
216 
217 
219 
219 
218 
222 
215 
220 
216 
215 
219 
215 
218 
220 
219 
219 
220 
214 
213 
197 
206 
204 
206 
214 
205 
204 
206 
196 
199 
203 
187 
170 
173 
171 
173 
188 
204 
225 
219 
218 
220 
220 
214 
231 
220 
222 
221 
220 
221 
224 
220 
220 
219 
220 
220 
219 
219 
218 
218 
218 
218 
218 
219 
216 
216 
216 
217 
218 
218 
218 
217 
218 
218 
218 
218 
218 
218 
218 
218 
218 
218 
218 
218 
218 
218 
219 
219 
219 
218 
218 
217 
217 
217 
218 
218 
218 
219 
220 
221 
221 
218 
215 
212 
215 
214 
212 
210 
208 
206 
208 
211 
225 
215 
201 
195 
204 
215 
224 
232 
226 
218 
217 
222 
224 
219 
219 
224 
221 
221 
221 
221 
221 
221 
220 
220 
220 
220 
219 
219 
218 
218 
218 
218 
218 
219 
217 
217 
217 
217 
218 
219 
218 
217 
218 
218 
218 
218 
218 
218 
218 
218 
218 
218 
218 
218 
218 
218 
219 
219 
219 
218 
218 
217 
217 
217 
218 
218 
218 
217 
216 
216 
216 
217 
217 
217 
218 
218 
217 
217 
215 
214 
216 
219 
219 
223 
224 
223 
223 
221 
221 
226 
226 
221 
220 
222 
222 
217 
218 
222 
221 
221 
221 
221 
221 
221 
220 
220 
220 
220 
219 
218 
218 
218 
218 
218 
219 
219 
218 
217 
217 
218 
219 
219 
218 
218 
218 
218 
218 
218 
218 
218 
218 
218 
218 
218 
218 
218 
218 
218 
219 
219 
219 
218 
218 
217 
217 
217 
218 
218 
217 
216 
214 
214 
215 
217 
219 
219 
219 
218 
219 
220 
219 
218 
219 
222 
214 
222 
226 
224 
220 
214 
212 
216 
224 
223 
222 
222 
220 
218 
219 
221 
221 
221 
221 
221 
221 
221 
220 
220 
220 
220 
218 
218 
218 
218 
218 
218 
219 
219 
218 
218 
218 
218 
219 
219 
219 
218 
218 
218 
218 
218 
218 
218 
218 
218 
218 
218 
218 
218 
218 
218 
219 
219 
219 
218 
218 
217 
217 
217 
218 
218 
217 
217 
217 
218 
218 
219 
218 
218 
218 
218 
218 
219 
218 
217 
217 
218 
221 
222 
219 
216 
216 
215 
213 
216 
221 
222 
221 
220 
220 
221 
222 
221 
221 
221 
221 
221 
221 
221 
220 
220 
220 
220 
