P2
# Created by MsrVolt
99 68
255
221 
221 
221 
221 
221 
221 
221 
221 
220 
220 
221 
221 
221 
221 
222 
222 
222 
221 
220 
220 
221 
221 
221 
221 
221 
220 
220 
220 
220 
220 
220 
220 
220 
221 
221 
221 
221 
220 
219 
218 
219 
220 
221 
222 
222 
221 
221 
220 
221 
221 
221 
221 
221 
221 
221 
221 
222 
222 
222 
220 
220 
221 
222 
221 
221 
222 
221 
220 
220 
221 
221 
221 
222 
220 
220 
222 
222 
219 
219 
222 
221 
222 
223 
223 
222 
221 
221 
221 
220 
221 
221 
221 
221 
221 
221 
221 
221 
221 
221 
221 
221 
221 
221 
221 
221 
221 
221 
220 
220 
221 
221 
221 
221 
222 
222 
222 
221 
220 
220 
221 
221 
221 
221 
221 
220 
220 
220 
220 
220 
220 
220 
220 
221 
221 
221 
221 
220 
219 
219 
220 
221 
221 
222 
222 
222 
221 
221 
221 
221 
221 
221 
221 
221 
221 
221 
221 
222 
221 
220 
219 
221 
221 
220 
221 
222 
222 
222 
222 
221 
220 
220 
222 
220 
220 
221 
221 
221 
220 
221 
221 
222 
222 
222 
221 
221 
220 
220 
220 
221 
221 
221 
221 
221 
221 
221 
221 
221 
221 
221 
221 
221 
221 
221 
221 
221 
221 
220 
220 
221 
221 
221 
221 
222 
222 
222 
221 
220 
220 
221 
221 
221 
221 
221 
221 
220 
220 
220 
220 
220 
220 
220 
221 
221 
221 
221 
220 
220 
219 
220 
220 
220 
221 
221 
221 
221 
221 
221 
221 
221 
221 
221 
221 
221 
221 
220 
221 
222 
220 
221 
222 
222 
221 
220 
220 
220 
220 
220 
220 
221 
221 
222 
221 
220 
220 
222 
224 
223 
221 
220 
221 
222 
222 
221 
220 
220 
220 
220 
221 
221 
221 
221 
221 
221 
221 
221 
221 
221 
221 
221 
221 
221 
221 
221 
221 
221 
221 
221 
221 
221 
221 
221 
221 
221 
222 
221 
220 
220 
221 
222 
221 
221 
221 
221 
221 
220 
220 
220 
220 
220 
221 
221 
221 
221 
221 
221 
220 
220 
219 
219 
219 
219 
219 
219 
219 
219 
221 
221 
221 
221 
221 
221 
221 
221 
220 
222 
222 
222 
223 
224 
225 
224 
223 
221 
219 
219 
219 
219 
221 
223 
219 
221 
221 
221 
222 
224 
223 
220 
220 
221 
222 
222 
221 
220 
220 
220 
220 
221 
221 
221 
221 
221 
221 
221 
221 
221 
221 
221 
221 
221 
221 
221 
221 
221 
221 
221 
221 
221 
221 
221 
221 
221 
221 
221 
221 
220 
220 
221 
222 
222 
221 
221 
221 
221 
220 
220 
220 
221 
221 
221 
221 
221 
221 
221 
221 
220 
220 
220 
219 
219 
219 
219 
219 
219 
219 
220 
220 
220 
220 
220 
220 
220 
220 
221 
223 
223 
221 
221 
223 
223 
222 
224 
222 
222 
223 
223 
221 
221 
223 
219 
221 
222 
222 
222 
222 
221 
219 
220 
221 
222 
222 
221 
220 
220 
220 
220 
221 
221 
221 
221 
221 
221 
221 
221 
221 
221 
221 
221 
221 
221 
221 
221 
221 
221 
221 
221 
221 
221 
221 
221 
221 
221 
221 
221 
220 
220 
221 
222 
222 
221 
222 
221 
221 
221 
221 
221 
221 
221 
221 
221 
221 
221 
221 
221 
221 
221 
221 
221 
221 
221 
221 
221 
221 
221 
220 
220 
220 
220 
220 
220 
220 
220 
222 
222 
221 
218 
217 
217 
217 
216 
213 
213 
217 
222 
224 
221 
219 
220 
223 
222 
222 
224 
224 
223 
221 
221 
220 
221 
222 
222 
221 
220 
220 
220 
220 
221 
221 
221 
221 
221 
221 
221 
221 
221 
221 
221 
221 
221 
221 
221 
221 
221 
221 
221 
221 
221 
221 
221 
221 
221 
221 
221 
220 
220 
220 
221 
222 
222 
222 
222 
222 
221 
221 
221 
221 
221 
221 
221 
221 
221 
221 
221 
221 
221 
221 
222 
222 
222 
222 
222 
222 
221 
221 
220 
220 
220 
220 
220 
220 
220 
220 
220 
220 
218 
214 
212 
213 
213 
212 
206 
206 
210 
216 
217 
214 
212 
214 
222 
215 
212 
218 
224 
223 
223 
224 
221 
222 
222 
222 
221 
221 
220 
220 
220 
221 
221 
221 
221 
221 
221 
221 
221 
221 
221 
221 
221 
221 
221 
221 
221 
221 
221 
221 
221 
221 
221 
221 
221 
221 
221 
221 
220 
220 
220 
221 
222 
222 
222 
222 
222 
221 
221 
221 
221 
221 
221 
221 
221 
221 
221 
221 
221 
221 
221 
221 
221 
222 
223 
222 
222 
221 
220 
221 
221 
221 
221 
221 
221 
221 
221 
218 
218 
216 
212 
211 
212 
213 
212 
212 
209 
209 
211 
210 
205 
203 
205 
215 
203 
199 
209 
219 
221 
221 
224 
221 
222 
223 
223 
222 
221 
221 
221 
220 
221 
221 
221 
221 
221 
221 
221 
221 
221 
221 
221 
221 
221 
221 
221 
221 
221 
221 
221 
221 
221 
221 
221 
221 
221 
221 
221 
220 
220 
220 
221 
222 
222 
222 
222 
222 
221 
221 
221 
221 
221 
221 
221 
221 
222 
221 
221 
221 
221 
222 
222 
222 
222 
222 
221 
220 
219 
218 
218 
220 
221 
223 
218 
218 
225 
218 
217 
215 
214 
214 
215 
216 
216 
214 
211 
211 
204 
202 
201 
189 
182 
192 
199 
198 
199 
205 
216 
224 
226 
222 
226 
224 
222 
221 
221 
221 
222 
222 
221 
221 
221 
221 
221 
221 
221 
221 
221 
221 
221 
221 
221 
221 
221 
221 
221 
221 
221 
221 
221 
221 
221 
221 
221 
221 
221 
221 
220 
220 
220 
221 
222 
222 
222 
222 
222 
221 
221 
221 
221 
221 
221 
220 
221 
222 
221 
221 
221 
221 
222 
222 
222 
222 
221 
221 
220 
219 
218 
216 
215 
215 
217 
216 
216 
218 
215 
221 
214 
212 
214 
215 
216 
215 
209 
202 
206 
193 
183 
192 
195 
186 
181 
193 
204 
213 
214 
211 
212 
219 
226 
224 
223 
223 
222 
223 
222 
222 
221 
221 
221 
221 
221 
221 
221 
221 
221 
221 
221 
221 
221 
221 
221 
221 
221 
221 
221 
220 
221 
221 
221 
221 
221 
221 
221 
221 
221 
221 
220 
220 
221 
222 
222 
221 
222 
222 
222 
221 
221 
221 
221 
221 
220 
221 
222 
222 
222 
221 
222 
222 
222 
221 
221 
221 
220 
219 
218 
217 
217 
213 
213 
214 
218 
217 
212 
217 
215 
208 
210 
216 
214 
213 
210 
202 
200 
206 
199 
196 
204 
201 
191 
193 
200 
205 
207 
202 
197 
199 
205 
211 
220 
221 
222 
224 
224 
224 
222 
220 
221 
221 
221 
221 
221 
221 
221 
221 
221 
221 
221 
221 
221 
221 
221 
221 
220 
220 
220 
220 
220 
221 
221 
221 
221 
222 
222 
221 
221 
220 
220 
221 
222 
222 
221 
222 
222 
222 
222 
222 
221 
221 
221 
221 
222 
223 
223 
222 
222 
222 
223 
222 
221 
221 
220 
218 
217 
216 
216 
217 
215 
216 
217 
220 
217 
211 
223 
213 
207 
211 
216 
211 
208 
207 
201 
201 
199 
193 
188 
172 
147 
155 
191 
218 
215 
211 
207 
208 
211 
212 
211 
214 
216 
219 
222 
224 
224 
223 
221 
221 
221 
221 
221 
221 
221 
221 
221 
221 
221 
221 
221 
221 
221 
221 
220 
220 
220 
220 
220 
220 
221 
221 
221 
221 
222 
222 
222 
221 
220 
220 
221 
222 
221 
221 
221 
221 
222 
222 
222 
221 
221 
221 
221 
222 
223 
224 
223 
222 
222 
222 
222 
221 
220 
219 
217 
216 
215 
214 
213 
214 
217 
219 
220 
213 
212 
227 
213 
203 
199 
198 
196 
199 
201 
198 
196 
200 
198 
178 
137 
108 
130 
175 
197 
203 
208 
209 
208 
208 
207 
207 
209 
211 
214 
218 
222 
224 
224 
224 
221 
221 
221 
221 
221 
221 
221 
221 
221 
221 
221 
221 
221 
221 
221 
220 
220 
220 
220 
220 
220 
220 
221 
221 
222 
222 
222 
222 
221 
220 
220 
221 
221 
221 
221 
221 
221 
222 
222 
222 
221 
221 
220 
221 
222 
223 
224 
223 
222 
221 
221 
220 
220 
219 
217 
216 
215 
215 
214 
211 
215 
213 
219 
218 
208 
213 
220 
208 
199 
186 
179 
185 
196 
200 
201 
192 
209 
210 
176 
139 
145 
178 
199 
195 
201 
206 
207 
207 
207 
207 
207 
206 
207 
210 
215 
219 
222 
224 
224 
221 
221 
221 
221 
221 
221 
221 
221 
221 
221 
221 
221 
221 
221 
220 
220 
220 
220 
220 
220 
220 
220 
221 
221 
222 
222 
222 
222 
221 
220 
220 
221 
221 
221 
221 
221 
221 
222 
222 
222 
222 
221 
220 
221 
222 
223 
223 
221 
220 
219 
219 
218 
218 
217 
216 
215 
215 
215 
216 
213 
215 
204 
215 
212 
200 
208 
198 
193 
202 
195 
184 
189 
194 
195 
200 
191 
199 
199 
171 
151 
183 
221 
220 
204 
204 
202 
202 
205 
208 
207 
204 
205 
206 
209 
213 
218 
221 
222 
222 
221 
221 
221 
221 
221 
221 
221 
221 
221 
221 
221 
221 
221 
220 
220 
220 
220 
220 
220 
220 
220 
220 
221 
221 
222 
222 
222 
222 
221 
220 
220 
221 
221 
221 
221 
221 
221 
222 
222 
222 
222 
221 
220 
220 
221 
222 
222 
220 
219 
217 
217 
216 
216 
215 
215 
215 
216 
217 
217 
215 
213 
195 
207 
204 
190 
198 
176 
169 
199 
206 
191 
185 
177 
171 
179 
189 
187 
199 
196 
183 
199 
214 
196 
202 
205 
208 
209 
209 
210 
209 
207 
206 
207 
210 
214 
217 
220 
220 
220 
221 
221 
221 
221 
221 
221 
221 
221 
221 
221 
221 
220 
220 
220 
220 
220 
220 
220 
220 
220 
220 
220 
221 
221 
222 
222 
222 
221 
221 
221 
221 
221 
221 
221 
221 
222 
223 
224 
223 
222 
221 
221 
221 
219 
221 
221 
220 
219 
220 
218 
216 
215 
213 
215 
216 
212 
212 
214 
213 
217 
198 
163 
185 
193 
200 
194 
187 
190 
200 
204 
194 
173 
154 
154 
168 
181 
212 
208 
200 
211 
215 
213 
204 
209 
208 
207 
208 
209 
210 
210 
210 
210 
214 
214 
213 
216 
218 
219 
220 
220 
220 
220 
221 
221 
221 
221 
221 
221 
221 
221 
220 
220 
220 
220 
220 
220 
220 
220 
220 
220 
220 
221 
221 
222 
222 
222 
221 
221 
221 
221 
221 
221 
221 
221 
221 
222 
222 
222 
222 
221 
220 
220 
221 
220 
219 
218 
218 
218 
219 
219 
218 
216 
218 
218 
215 
211 
209 
204 
201 
206 
146 
167 
185 
197 
213 
182 
208 
209 
205 
197 
189 
181 
179 
184 
199 
213 
204 
199 
206 
210 
216 
216 
208 
208 
207 
207 
208 
208 
209 
209 
213 
213 
215 
217 
217 
218 
220 
221 
221 
222 
222 
222 
221 
221 
220 
220 
221 
221 
221 
220 
220 
220 
220 
220 
220 
220 
220 
220 
220 
220 
221 
221 
221 
222 
222 
221 
221 
221 
221 
221 
221 
221 
221 
221 
221 
221 
222 
223 
223 
221 
220 
221 
217 
216 
218 
218 
216 
217 
219 
221 
217 
213 
211 
209 
208 
205 
201 
203 
223 
161 
172 
188 
199 
215 
179 
210 
211 
206 
206 
213 
218 
217 
218 
210 
208 
202 
206 
209 
207 
213 
217 
208 
208 
208 
208 
208 
208 
208 
208 
212 
207 
212 
218 
216 
217 
223 
223 
222 
222 
222 
222 
222 
222 
221 
221 
221 
221 
221 
221 
221 
221 
221 
221 
221 
221 
221 
220 
220 
220 
221 
221 
221 
221 
221 
221 
221 
221 
221 
221 
221 
221 
221 
222 
221 
221 
223 
225 
225 
223 
220 
217 
213 
214 
220 
220 
214 
211 
212 
216 
214 
209 
206 
209 
208 
202 
198 
195 
212 
186 
190 
204 
214 
211 
200 
207 
213 
212 
210 
214 
219 
218 
217 
211 
201 
202 
211 
211 
207 
209 
211 
209 
209 
210 
209 
209 
208 
209 
209 
213 
204 
211 
220 
215 
216 
224 
223 
221 
221 
222 
223 
223 
223 
223 
223 
223 
223 
223 
221 
221 
221 
221 
221 
221 
221 
221 
220 
220 
220 
221 
221 
221 
221 
221 
221 
221 
221 
221 
221 
221 
221 
221 
222 
221 
221 
223 
225 
225 
222 
220 
215 
211 
212 
217 
217 
211 
206 
206 
204 
209 
209 
209 
213 
209 
197 
191 
184 
197 
196 
196 
210 
221 
208 
213 
208 
216 
217 
212 
212 
214 
212 
211 
214 
201 
202 
207 
204 
206 
209 
210 
209 
210 
210 
210 
209 
208 
209 
209 
217 
209 
215 
223 
217 
217 
223 
222 
221 
222 
222 
223 
223 
224 
224 
224 
223 
223 
223 
221 
221 
221 
221 
221 
221 
221 
221 
221 
221 
221 
220 
220 
220 
220 
220 
221 
221 
221 
221 
221 
221 
221 
221 
221 
221 
221 
222 
223 
222 
219 
217 
216 
211 
209 
211 
211 
207 
203 
203 
199 
207 
204 
201 
205 
202 
194 
192 
192 
205 
195 
194 
208 
217 
214 
208 
210 
216 
216 
213 
217 
221 
220 
220 
214 
202 
205 
206 
203 
207 
208 
207 
207 
208 
209 
209 
208 
207 
208 
209 
214 
210 
215 
222 
219 
220 
224 
223 
223 
223 
223 
223 
223 
223 
223 
222 
222 
222 
222 
221 
221 
221 
221 
221 
221 
221 
221 
221 
221 
221 
220 
220 
220 
220 
220 
221 
221 
221 
221 
221 
221 
221 
221 
221 
221 
222 
222 
222 
220 
217 
216 
215 
212 
208 
206 
206 
205 
202 
200 
198 
205 
197 
189 
194 
196 
197 
204 
205 
211 
199 
199 
211 
218 
222 
212 
212 
215 
214 
212 
215 
216 
214 
214 
213 
204 
209 
208 
205 
208 
204 
205 
206 
208 
210 
210 
208 
208 
208 
210 
210 
212 
216 
220 
221 
222 
223 
223 
222 
223 
223 
223 
223 
223 
223 
223 
222 
222 
222 
221 
221 
221 
221 
221 
221 
221 
221 
221 
221 
221 
220 
220 
220 
220 
220 
221 
221 
221 
221 
221 
221 
221 
221 
222 
223 
224 
224 
222 
219 
217 
216 
213 
212 
208 
205 
205 
205 
202 
198 
193 
203 
197 
189 
195 
200 
203 
214 
220 
213 
211 
209 
213 
214 
211 
210 
208 
214 
216 
216 
216 
214 
213 
216 
217 
206 
208 
205 
203 
205 
201 
208 
206 
209 
211 
211 
210 
209 
210 
211 
214 
220 
221 
221 
223 
222 
220 
219 
221 
221 
222 
223 
223 
224 
224 
224 
223 
223 
223 
221 
221 
221 
221 
221 
221 
221 
221 
221 
220 
220 
219 
220 
220 
220 
220 
219 
221 
222 
221 
221 
221 
221 
220 
220 
225 
224 
220 
220 
217 
213 
213 
210 
207 
206 
208 
207 
203 
202 
204 
201 
197 
195 
200 
208 
214 
213 
210 
209 
213 
214 
212 
211 
212 
213 
212 
209 
208 
213 
217 
213 
210 
212 
213 
213 
209 
207 
207 
207 
204 
205 
209 
209 
208 
214 
216 
210 
209 
213 
212 
215 
211 
212 
214 
222 
224 
221 
220 
227 
224 
221 
223 
226 
222 
222 
222 
223 
223 
223 
221 
221 
221 
221 
221 
221 
221 
221 
221 
220 
220 
220 
220 
220 
220 
220 
220 
222 
222 
221 
220 
221 
221 
220 
218 
223 
220 
216 
215 
212 
208 
208 
207 
205 
206 
209 
208 
204 
202 
204 
209 
206 
204 
207 
212 
215 
214 
211 
207 
210 
211 
210 
210 
213 
214 
214 
212 
209 
212 
216 
213 
211 
211 
211 
213 
211 
209 
208 
206 
206 
207 
210 
211 
211 
214 
215 
212 
211 
214 
215 
215 
201 
200 
207 
217 
217 
213 
223 
216 
222 
225 
223 
220 
223 
227 
221 
223 
223 
223 
221 
221 
221 
221 
221 
221 
221 
221 
221 
221 
220 
220 
220 
220 
220 
220 
221 
222 
222 
220 
220 
221 
221 
220 
220 
221 
217 
212 
212 
210 
206 
205 
204 
202 
203 
205 
205 
203 
203 
205 
212 
210 
209 
210 
213 
214 
212 
210 
208 
208 
208 
208 
211 
214 
215 
215 
213 
208 
209 
214 
213 
211 
211 
210 
213 
213 
211 
207 
205 
206 
209 
210 
212 
216 
216 
215 
216 
215 
214 
216 
224 
207 
199 
198 
206 
207 
191 
192 
208 
222 
226 
224 
219 
223 
228 
221 
223 
223 
223 
221 
221 
221 
221 
221 
221 
221 
221 
221 
221 
221 
220 
220 
220 
220 
221 
222 
222 
221 
220 
220 
222 
222 
221 
221 
219 
212 
208 
211 
210 
205 
203 
203 
200 
199 
199 
200 
201 
204 
208 
209 
209 
209 
211 
212 
212 
210 
209 
210 
209 
208 
208 
211 
213 
214 
214 
209 
205 
209 
214 
212 
211 
211 
211 
212 
213 
210 
203 
201 
204 
208 
209 
211 
217 
215 
213 
217 
216 
213 
215 
212 
216 
214 
204 
203 
208 
176 
152 
195 
224 
223 
224 
225 
223 
222 
223 
223 
223 
223 
221 
221 
221 
221 
221 
221 
221 
221 
221 
221 
222 
221 
220 
220 
220 
221 
222 
222 
221 
220 
221 
223 
223 
222 
221 
215 
205 
203 
208 
207 
201 
198 
203 
201 
199 
199 
200 
202 
205 
208 
208 
209 
210 
211 
212 
211 
210 
209 
209 
208 
207 
208 
210 
211 
212 
211 
208 
206 
212 
216 
213 
210 
212 
212 
210 
211 
207 
200 
198 
202 
206 
207 
209 
213 
209 
208 
215 
217 
216 
218 
210 
224 
224 
219 
213 
219 
183 
139 
161 
225 
225 
222 
227 
225 
217 
224 
223 
223 
223 
221 
221 
221 
221 
221 
221 
221 
221 
221 
222 
222 
221 
220 
220 
221 
222 
222 
222 
221 
220 
222 
224 
223 
221 
220 
213 
202 
200 
206 
205 
199 
196 
203 
203 
204 
204 
205 
206 
207 
207 
208 
209 
210 
210 
210 
209 
208 
207 
205 
204 
205 
208 
209 
209 
209 
210 
210 
209 
214 
218 
214 
210 
212 
213 
209 
207 
204 
200 
199 
202 
205 
206 
209 
210 
208 
207 
214 
220 
221 
220 
215 
203 
177 
181 
173 
177 
147 
91 
131 
223 
230 
220 
223 
227 
220 
224 
223 
223 
223 
221 
221 
221 
221 
221 
221 
221 
221 
221 
222 
223 
222 
220 
220 
221 
222 
222 
222 
221 
220 
221 
222 
221 
218 
216 
211 
203 
202 
206 
204 
200 
201 
206 
207 
207 
207 
208 
208 
208 
207 
209 
209 
209 
209 
209 
208 
207 
205 
203 
204 
206 
210 
210 
208 
208 
209 
212 
208 
211 
215 
212 
210 
212 
213 
207 
204 
202 
203 
205 
206 
206 
207 
208 
209 
211 
213 
216 
219 
215 
205 
206 
186 
150 
163 
145 
144 
131 
73 
142 
224 
228 
224 
220 
226 
223 
223 
223 
223 
223 
221 
221 
221 
221 
221 
221 
221 
221 
221 
222 
223 
222 
220 
220 
221 
223 
222 
222 
221 
220 
221 
221 
219 
215 
210 
208 
203 
202 
205 
203 
202 
207 
209 
209 
208 
206 
206 
207 
208 
209 
210 
210 
209 
210 
210 
210 
208 
207 
204 
205 
209 
213 
212 
209 
208 
209 
211 
205 
206 
210 
210 
210 
212 
212 
206 
202 
202 
207 
211 
210 
208 
209 
204 
206 
213 
218 
215 
212 
201 
183 
163 
173 
164 
187 
153 
146 
154 
105 
174 
227 
223 
230 
221 
223 
225 
222 
223 
223 
223 
221 
221 
221 
221 
221 
221 
221 
221 
220 
221 
222 
222 
220 
219 
221 
223 
222 
221 
219 
217 
218 
219 
215 
210 
204 
199 
199 
202 
201 
200 
202 
200 
202 
212 
211 
206 
209 
210 
207 
210 
212 
210 
212 
213 
210 
209 
208 
205 
203 
206 
208 
208 
209 
212 
212 
211 
210 
209 
206 
209 
209 
209 
214 
208 
201 
200 
207 
213 
210 
209 
211 
207 
208 
212 
214 
203 
184 
173 
170 
166 
163 
174 
187 
186 
126 
116 
149 
134 
186 
220 
230 
225 
224 
222 
223 
225 
223 
223 
223 
221 
221 
221 
221 
221 
221 
221 
221 
220 
221 
222 
221 
220 
220 
221 
222 
222 
221 
219 
218 
219 
217 
210 
203 
200 
194 
196 
201 
201 
201 
202 
201 
201 
210 
209 
206 
210 
211 
210 
212 
213 
211 
213 
214 
211 
210 
209 
205 
204 
205 
206 
206 
208 
210 
211 
209 
206 
212 
214 
214 
208 
205 
211 
208 
205 
200 
203 
208 
209 
204 
199 
205 
206 
212 
215 
199 
167 
150 
157 
170 
175 
192 
196 
163 
108 
116 
149 
159 
207 
226 
225 
222 
226 
223 
222 
223 
223 
223 
223 
221 
221 
221 
221 
221 
221 
221 
221 
220 
221 
222 
221 
220 
220 
221 
222 
222 
220 
218 
218 
218 
216 
209 
202 
195 
189 
192 
202 
204 
202 
202 
201 
203 
209 
209 
207 
209 
210 
208 
210 
212 
211 
214 
215 
211 
210 
211 
208 
206 
206 
205 
205 
207 
210 
211 
210 
209 
215 
214 
215 
213 
211 
212 
205 
198 
205 
211 
198 
195 
201 
199 
209 
211 
207 
209 
206 
186 
167 
166 
173 
188 
191 
171 
134 
119 
139 
144 
159 
220 
229 
222 
221 
226 
222 
222 
224 
223 
223 
223 
221 
221 
221 
221 
221 
221 
221 
221 
221 
221 
222 
221 
220 
220 
221 
222 
222 
220 
218 
217 
216 
214 
211 
207 
196 
189 
192 
203 
206 
204 
203 
204 
208 
210 
210 
208 
207 
206 
204 
205 
210 
209 
212 
212 
209 
209 
212 
211 
209 
207 
206 
206 
209 
212 
213 
213 
213 
215 
211 
215 
216 
210 
211 
211 
197 
200 
214 
202 
189 
194 
195 
204 
205 
200 
200 
196 
180 
170 
178 
191 
181 
196 
178 
157 
155 
163 
178 
224 
214 
225 
224 
224 
225 
221 
223 
225 
224 
224 
224 
221 
221 
221 
221 
221 
221 
221 
221 
221 
221 
221 
221 
220 
221 
221 
222 
221 
221 
220 
219 
215 
211 
208 
207 
203 
194 
194 
202 
204 
204 
208 
210 
211 
210 
210 
210 
208 
205 
205 
204 
209 
208 
210 
209 
204 
206 
211 
212 
210 
208 
207 
208 
210 
212 
213 
214 
204 
208 
205 
207 
203 
190 
196 
209 
217 
199 
216 
222 
196 
179 
183 
195 
195 
193 
193 
188 
177 
174 
182 
189 
193 
194 
157 
165 
180 
176 
180 
195 
210 
223 
225 
224 
223 
222 
225 
223 
224 
224 
224 
221 
221 
221 
221 
221 
221 
221 
221 
221 
221 
221 
221 
221 
221 
221 
221 
220 
221 
222 
222 
216 
208 
202 
199 
207 
199 
197 
200 
201 
205 
211 
214 
211 
207 
209 
213 
210 
209 
210 
209 
210 
209 
210 
207 
201 
202 
207 
209 
208 
207 
207 
208 
208 
208 
210 
212 
217 
216 
206 
208 
207 
193 
193 
203 
211 
208 
223 
218 
177 
157 
175 
190 
191 
194 
198 
197 
191 
190 
189 
184 
187 
188 
153 
172 
177 
179 
205 
194 
218 
225 
223 
222 
222 
224 
227 
220 
224 
224 
224 
221 
221 
221 
221 
221 
221 
221 
221 
222 
221 
221 
221 
221 
221 
221 
221 
220 
220 
220 
222 
219 
210 
202 
198 
200 
198 
201 
203 
203 
207 
211 
211 
210 
204 
208 
214 
211 
210 
213 
211 
210 
209 
211 
208 
201 
201 
206 
208 
206 
206 
207 
208 
206 
204 
204 
207 
212 
209 
192 
193 
201 
190 
177 
172 
168 
205 
216 
199 
166 
158 
185 
194 
188 
195 
203 
199 
188 
186 
191 
193 
197 
191 
166 
180 
155 
168 
230 
216 
225 
225 
221 
224 
223 
222 
225 
220 
224 
224 
224 
221 
221 
221 
221 
221 
221 
221 
221 
222 
221 
220 
220 
221 
221 
221 
221 
221 
218 
217 
219 
220 
215 
207 
203 
189 
194 
204 
208 
208 
209 
209 
204 
211 
203 
207 
213 
209 
208 
211 
209 
208 
209 
212 
210 
203 
202 
206 
208 
206 
206 
208 
208 
205 
201 
201 
204 
207 
212 
197 
193 
199 
189 
172 
162 
144 
196 
206 
205 
201 
195 
209 
210 
190 
190 
196 
202 
202 
197 
185 
172 
166 
165 
174 
200 
153 
164 
237 
223 
224 
222 
222 
228 
224 
218 
223 
224 
224 
224 
224 
221 
221 
221 
221 
221 
221 
221 
221 
221 
221 
221 
221 
221 
221 
221 
221 
221 
222 
220 
215 
217 
219 
212 
202 
192 
194 
204 
213 
213 
210 
207 
203 
209 
201 
208 
214 
206 
205 
212 
211 
205 
209 
210 
208 
205 
205 
208 
209 
209 
204 
202 
202 
200 
197 
195 
196 
197 
200 
205 
210 
204 
184 
172 
175 
177 
176 
197 
213 
201 
194 
200 
200 
193 
199 
202 
205 
203 
186 
156 
125 
112 
134 
165 
191 
187 
202 
232 
214 
223 
222 
222 
222 
223 
224 
224 
224 
223 
224 
224 
221 
221 
221 
221 
221 
221 
221 
221 
221 
221 
221 
221 
221 
221 
221 
221 
220 
222 
221 
217 
216 
214 
209 
203 
203 
201 
206 
211 
210 
210 
211 
210 
210 
208 
212 
214 
206 
205 
212 
215 
208 
211 
212 
210 
206 
204 
202 
200 
193 
197 
199 
196 
193 
191 
187 
182 
176 
176 
185 
196 
187 
167 
171 
194 
187 
181 
189 
197 
191 
188 
189 
187 
195 
204 
195 
196 
184 
154 
127 
93 
87 
133 
174 
205 
214 
221 
231 
212 
225 
224 
223 
223 
223 
223 
222 
222 
223 
224 
224 
221 
221 
221 
221 
221 
221 
221 
221 
221 
221 
221 
221 
221 
221 
221 
221 
220 
222 
223 
221 
216 
211 
207 
205 
210 
207 
208 
210 
208 
209 
213 
213 
207 
212 
217 
215 
208 
205 
210 
216 
210 
212 
213 
211 
208 
204 
199 
194 
188 
197 
199 
192 
187 
189 
185 
177 
175 
171 
179 
193 
191 
180 
187 
209 
194 
190 
192 
199 
205 
207 
204 
199 
193 
188 
181 
171 
160 
140 
114 
101 
96 
171 
221 
236 
228 
215 
221 
224 
226 
225 
224 
223 
223 
223 
222 
221 
223 
224 
224 
221 
221 
221 
221 
221 
221 
221 
221 
221 
221 
221 
221 
221 
221 
221 
221 
222 
222 
223 
223 
218 
210 
207 
208 
209 
206 
209 
210 
208 
209 
211 
210 
202 
210 
215 
214 
210 
207 
207 
212 
212 
211 
210 
208 
207 
205 
201 
196 
197 
200 
197 
188 
186 
190 
191 
187 
185 
180 
183 
190 
192 
193 
200 
207 
197 
200 
196 
196 
203 
204 
197 
194 
185 
171 
189 
169 
159 
146 
92 
93 
191 
218 
220 
218 
226 
226 
226 
222 
224 
223 
223 
223 
223 
224 
223 
223 
223 
224 
224 
221 
221 
221 
221 
221 
221 
221 
221 
221 
221 
221 
221 
221 
221 
221 
221 
223 
221 
221 
223 
219 
212 
208 
209 
208 
207 
210 
212 
211 
212 
212 
209 
200 
205 
208 
209 
210 
208 
206 
209 
212 
209 
204 
201 
202 
204 
203 
201 
204 
197 
190 
185 
186 
189 
193 
195 
192 
187 
188 
190 
188 
192 
201 
204 
203 
212 
207 
199 
201 
199 
195 
197 
198 
171 
170 
140 
138 
144 
113 
133 
215 
226 
229 
229 
226 
222 
222 
221 
223 
223 
222 
222 
223 
224 
224 
224 
223 
224 
224 
221 
221 
221 
221 
221 
221 
221 
221 
221 
221 
221 
221 
221 
221 
221 
221 
222 
220 
220 
221 
220 
215 
211 
211 
212 
211 
214 
214 
212 
214 
215 
212 
203 
199 
199 
204 
207 
207 
208 
209 
210 
207 
201 
197 
198 
202 
203 
202 
203 
194 
187 
190 
192 
191 
193 
197 
197 
186 
189 
197 
197 
198 
201 
197 
184 
197 
200 
195 
195 
191 
185 
187 
179 
179 
173 
175 
191 
196 
194 
204 
234 
225 
220 
221 
220 
223 
228 
227 
224 
224 
223 
223 
223 
223 
223 
223 
223 
224 
224 
221 
221 
221 
221 
221 
221 
221 
221 
221 
221 
221 
221 
221 
221 
221 
221 
220 
221 
221 
221 
220 
218 
216 
215 
215 
214 
216 
215 
212 
214 
215 
211 
204 
191 
192 
201 
204 
205 
208 
207 
208 
206 
201 
199 
199 
202 
202 
200 
202 
196 
196 
202 
203 
199 
197 
199 
199 
190 
192 
196 
195 
202 
203 
192 
190 
197 
198 
196 
194 
188 
179 
175 
165 
186 
184 
203 
225 
222 
225 
226 
227 
226 
226 
225 
228 
228 
223 
222 
225 
224 
223 
223 
223 
223 
223 
222 
223 
224 
224 
221 
221 
221 
221 
221 
221 
221 
221 
221 
221 
221 
221 
221 
221 
221 
221 
220 
223 
224 
223 
221 
221 
221 
220 
214 
214 
217 
216 
212 
212 
212 
206 
201 
185 
189 
202 
202 
202 
205 
203 
206 
205 
204 
202 
203 
204 
203 
200 
203 
202 
205 
211 
211 
205 
202 
202 
206 
208 
208 
192 
180 
198 
213 
205 
207 
202 
194 
191 
192 
193 
189 
186 
186 
202 
202 
206 
222 
222 
218 
226 
218 
226 
224 
218 
225 
227 
221 
226 
224 
224 
223 
223 
223 
223 
223 
223 
223 
224 
224 
221 
221 
221 
221 
221 
221 
221 
221 
221 
221 
221 
221 
221 
221 
221 
221 
219 
224 
223 
221 
220 
223 
224 
217 
218 
213 
214 
214 
209 
211 
212 
203 
194 
192 
193 
199 
205 
205 
202 
200 
204 
205 
201 
199 
204 
205 
200 
196 
194 
203 
205 
207 
212 
208 
201 
206 
208 
207 
215 
195 
191 
212 
208 
192 
189 
195 
195 
186 
181 
188 
198 
203 
212 
216 
222 
223 
222 
222 
224 
227 
224 
224 
224 
224 
224 
224 
224 
224 
224 
224 
223 
223 
223 
223 
223 
223 
223 
224 
224 
221 
221 
221 
221 
221 
221 
221 
221 
221 
221 
221 
221 
221 
221 
221 
221 
227 
220 
215 
222 
223 
219 
223 
220 
216 
213 
216 
216 
211 
212 
212 
204 
197 
196 
197 
201 
202 
202 
201 
201 
200 
204 
202 
198 
200 
200 
195 
193 
196 
201 
204 
206 
204 
208 
214 
208 
209 
206 
216 
191 
181 
208 
199 
174 
182 
187 
189 
187 
188 
197 
209 
216 
219 
220 
221 
222 
222 
222 
222 
223 
224 
224 
224 
224 
224 
224 
224 
224 
224 
224 
223 
223 
223 
223 
223 
223 
223 
224 
224 
221 
221 
221 
221 
221 
221 
221 
221 
221 
221 
221 
221 
221 
221 
221 
221 
217 
224 
220 
219 
217 
221 
225 
209 
212 
211 
215 
216 
212 
211 
209 
203 
198 
200 
203 
205 
203 
201 
200 
201 
201 
203 
197 
189 
189 
191 
193 
196 
194 
215 
210 
208 
212 
203 
203 
209 
209 
208 
212 
183 
167 
194 
199 
188 
192 
195 
200 
203 
207 
212 
219 
225 
225 
223 
221 
220 
221 
222 
221 
220 
224 
224 
224 
224 
224 
224 
224 
224 
224 
224 
223 
223 
223 
223 
223 
223 
223 
224 
224 
221 
221 
221 
221 
221 
221 
221 
221 
221 
221 
221 
221 
221 
221 
221 
221 
222 
221 
218 
226 
220 
209 
216 
220 
210 
211 
212 
213 
211 
210 
207 
201 
197 
201 
206 
208 
205 
200 
196 
194 
198 
200 
194 
186 
188 
193 
196 
200 
209 
219 
202 
202 
210 
198 
197 
200 
186 
200 
190 
174 
166 
184 
200 
202 
208 
209 
215 
222 
224 
222 
221 
222 
224 
222 
220 
221 
222 
223 
223 
222 
224 
224 
224 
224 
224 
224 
224 
224 
224 
224 
223 
223 
223 
223 
223 
223 
223 
224 
224 
221 
221 
221 
221 
221 
221 
221 
221 
221 
221 
221 
221 
221 
221 
221 
221 
218 
222 
223 
224 
224 
217 
211 
212 
213 
213 
211 
209 
210 
208 
202 
197 
192 
195 
199 
201 
201 
199 
195 
191 
192 
197 
197 
196 
203 
206 
204 
203 
209 
197 
198 
208 
205 
209 
207 
171 
120 
174 
165 
175 
189 
199 
213 
210 
212 
212 
217 
225 
227 
222 
218 
218 
220 
221 
222 
222 
223 
223 
223 
224 
224 
224 
224 
224 
224 
224 
224 
224 
224 
224 
223 
223 
223 
223 
223 
223 
223 
224 
224 
221 
221 
221 
221 
221 
221 
221 
221 
221 
221 
221 
221 
221 
221 
221 
221 
220 
228 
223 
203 
217 
232 
211 
202 
212 
213 
208 
204 
206 
203 
196 
193 
184 
186 
188 
192 
197 
202 
203 
201 
196 
200 
200 
202 
211 
215 
211 
207 
203 
206 
208 
193 
179 
182 
164 
125 
96 
180 
183 
199 
211 
217 
227 
222 
218 
216 
217 
222 
223 
221 
219 
219 
219 
221 
223 
224 
223 
222 
223 
224 
224 
224 
224 
224 
224 
224 
224 
224 
224 
224 
223 
223 
223 
223 
223 
223 
223 
224 
224 
221 
221 
221 
221 
221 
221 
221 
221 
221 
221 
221 
221 
221 
221 
221 
221 
223 
214 
222 
223 
229 
186 
109 
106 
205 
211 
208 
203 
204 
200 
195 
196 
190 
191 
192 
194 
199 
205 
208 
207 
203 
205 
202 
200 
206 
209 
204 
200 
206 
217 
201 
158 
149 
147 
123 
121 
159 
218 
219 
225 
217 
219 
221 
221 
224 
222 
221 
222 
222 
222 
221 
221 
219 
221 
223 
223 
222 
222 
222 
223 
224 
224 
224 
224 
224 
224 
224 
224 
224 
224 
223 
223 
223 
223 
223 
223 
223 
224 
224 
221 
221 
221 
221 
221 
221 
221 
221 
221 
221 
221 
221 
221 
221 
221 
221 
224 
209 
225 
231 
240 
187 
99 
111 
201 
211 
211 
207 
207 
203 
200 
204 
207 
208 
206 
204 
204 
205 
204 
201 
203 
206 
204 
201 
202 
199 
189 
182 
182 
180 
181 
165 
174 
181 
160 
166 
215 
226 
219 
229 
220 
226 
218 
220 
222 
222 
222 
221 
222 
223 
221 
220 
219 
220 
221 
222 
222 
222 
223 
223 
224 
224 
224 
224 
224 
224 
224 
224 
224 
224 
223 
223 
223 
223 
223 
223 
223 
224 
224 
221 
221 
221 
221 
221 
221 
221 
221 
221 
221 
221 
221 
221 
221 
221 
221 
221 
225 
218 
209 
218 
232 
224 
203 
220 
215 
213 
215 
214 
210 
210 
212 
214 
214 
210 
205 
203 
205 
206 
205 
202 
201 
199 
198 
199 
192 
172 
152 
144 
181 
186 
192 
206 
211 
221 
216 
216 
218 
222 
225 
226 
225 
222 
220 
219 
222 
222 
219 
220 
224 
224 
222 
222 
222 
222 
222 
223 
223 
223 
223 
224 
224 
224 
224 
224 
224 
224 
224 
224 
224 
224 
223 
223 
223 
223 
223 
224 
224 
224 
221 
221 
221 
221 
221 
221 
221 
221 
221 
221 
221 
221 
221 
221 
221 
221 
219 
222 
225 
225 
222 
220 
222 
225 
221 
218 
217 
219 
219 
216 
214 
216 
217 
214 
209 
205 
206 
210 
212 
211 
210 
208 
205 
201 
199 
195 
183 
171 
171 
201 
204 
211 
218 
216 
227 
230 
219 
220 
222 
224 
224 
223 
222 
221 
219 
222 
221 
218 
219 
224 
226 
224 
222 
222 
222 
222 
223 
223 
223 
223 
224 
224 
224 
224 
224 
224 
224 
224 
224 
224 
224 
223 
223 
223 
223 
223 
224 
224 
224 
222 
222 
222 
222 
222 
222 
222 
222 
221 
221 
221 
221 
221 
221 
221 
221 
222 
218 
221 
227 
226 
220 
221 
228 
222 
220 
220 
223 
223 
220 
219 
220 
221 
217 
213 
211 
213 
217 
218 
216 
209 
212 
212 
211 
212 
215 
216 
213 
220 
225 
213 
220 
229 
222 
220 
216 
223 
223 
222 
222 
222 
222 
222 
222 
222 
223 
222 
219 
220 
224 
226 
225 
222 
222 
222 
223 
223 
223 
223 
223 
224 
224 
224 
224 
224 
224 
224 
224 
224 
224 
224 
223 
223 
223 
223 
223 
224 
224 
224 
222 
222 
222 
222 
222 
222 
222 
222 
222 
221 
221 
221 
221 
221 
221 
221 
223 
221 
219 
220 
224 
226 
223 
219 
222 
220 
220 
222 
223 
221 
220 
221 
223 
221 
220 
220 
221 
222 
220 
218 
219 
223 
225 
224 
224 
225 
227 
227 
224 
227 
220 
224 
226 
219 
221 
223 
224 
223 
222 
221 
221 
222 
222 
223 
224 
225 
223 
221 
221 
223 
224 
223 
222 
222 
223 
223 
223 
223 
223 
223 
223 
223 
223 
223 
223 
223 
223 
223 
224 
224 
224 
224 
224 
224 
223 
223 
224 
224 
224 
223 
223 
223 
223 
223 
223 
223 
223 
222 
222 
221 
221 
221 
221 
221 
221 
220 
225 
226 
223 
222 
224 
225 
221 
223 
221 
220 
221 
221 
221 
220 
221 
222 
223 
224 
224 
223 
221 
221 
221 
222 
225 
226 
225 
224 
223 
222 
222 
219 
223 
221 
222 
224 
223 
226 
227 
223 
223 
222 
222 
222 
222 
223 
223 
224 
224 
224 
223 
223 
223 
223 
222 
223 
223 
223 
223 
223 
223 
223 
223 
223 
223 
223 
223 
223 
223 
223 
223 
224 
224 
224 
224 
224 
224 
224 
224 
224 
224 
224 
223 
223 
223 
223 
223 
223 
223 
223 
222 
222 
221 
221 
221 
221 
221 
221 
220 
222 
225 
225 
223 
221 
223 
226 
224 
223 
221 
221 
221 
221 
221 
221 
222 
222 
222 
222 
220 
219 
221 
224 
220 
220 
221 
222 
223 
225 
226 
226 
228 
225 
222 
221 
223 
226 
223 
217 
222 
222 
223 
223 
223 
223 
223 
224 
222 
222 
223 
224 
224 
224 
223 
223 
223 
223 
223 
223 
223 
223 
223 
223 
223 
223 
223 
223 
223 
223 
223 
223 
224 
224 
224 
224 
224 
224 
224 
224 
224 
224 
224 
223 
223 
223 
223 
223 
223 
223 
223 
222 
222 
221 
221 
221 
220 
221 
221 
222 
220 
220 
223 
224 
223 
222 
223 
224 
223 
223 
222 
223 
223 
223 
222 
223 
221 
221 
222 
222 
220 
222 
225 
226 
225 
225 
225 
224 
224 
224 
224 
220 
222 
228 
226 
219 
219 
223 
227 
223 
223 
223 
223 
223 
223 
223 
224 
222 
222 
222 
223 
223 
223 
223 
224 
223 
223 
223 
223 
223 
223 
223 
223 
223 
223 
223 
223 
223 
223 
223 
223 
224 
224 
224 
224 
224 
224 
224 
224 
224 
224 
224 
223 
223 
223 
223 
223 
223 
223 
223 
222 
222 
221 
221 
221 
220 
220 
221 
219 
224 
226 
223 
221 
223 
224 
222 
223 
223 
223 
223 
224 
224 
223 
221 
224 
222 
222 
225 
226 
224 
222 
222 
221 
222 
224 
225 
224 
223 
223 
224 
229 
220 
222 
225 
223 
224 
223 
224 
224 
223 
223 
223 
223 
223 
223 
224 
224 
223 
222 
222 
222 
222 
223 
223 
223 
223 
223 
223 
223 
223 
223 
223 
223 
223 
223 
223 
223 
223 
223 
223 
223 
224 
224 
224 
224 
224 
224 
224 
224 
224 
224 
223 
223 
223 
223 
223 
223 
223 
223 
222 
222 
221 
221 
220 
220 
220 
220 
222 
222 
222 
223 
223 
223 
224 
224 
223 
223 
223 
223 
223 
223 
223 
223 
223 
223 
223 
223 
223 
223 
223 
223 
224 
224 
224 
224 
224 
224 
224 
224 
224 
224 
223 
223 
223 
223 
223 
223 
223 
223 
223 
223 
223 
223 
223 
223 
223 
223 
223 
223 
223 
223 
223 
222 
223 
223 
223 
223 
223 
223 
223 
223 
224 
224 
223 
223 
223 
223 
223 
223 
223 
224 
224 
224 
224 
224 
224 
224 
224 
224 
224 
223 
223 
223 
223 
223 
223 
223 
223 
222 
222 
222 
221 
221 
221 
221 
221 
222 
222 
222 
223 
223 
223 
223 
224 
224 
224 
224 
224 
224 
224 
224 
224 
224 
224 
224 
224 
224 
224 
224 
224 
224 
224 
224 
224 
224 
224 
224 
224 
224 
224 
223 
223 
223 
223 
223 
223 
223 
223 
223 
223 
223 
223 
223 
223 
223 
223 
223 
223 
223 
223 
223 
223 
223 
223 
223 
223 
223 
223 
223 
223 
224 
224 
223 
223 
223 
223 
223 
223 
223 
224 
224 
224 
224 
224 
224 
224 
224 
224 
224 
223 
223 
223 
223 
223 
223 
223 
223 
223 
223 
222 
222 
222 
222 
222 
222 
222 
222 
223 
223 
223 
223 
223 
223 
224 
224 
224 
224 
224 
224 
224 
224 
224 
224 
224 
224 
224 
224 
224 
224 
224 
224 
224 
224 
224 
224 
224 
224 
224 
224 
223 
223 
223 
223 
223 
223 
223 
223 
223 
223 
223 
223 
223 
223 
222 
223 
223 
223 
223 
223 
223 
223 
223 
223 
223 
223 
223 
223 
223 
223 
224 
224 
223 
223 
223 
223 
223 
223 
223 
224 
224 
224 
224 
224 
224 
224 
224 
224 
224 
223 
223 
223 
223 
223 
223 
223 
223 
224 
223 
223 
223 
222 
222 
223 
223 
222 
223 
223 
223 
223 
223 
223 
223 
224 
224 
224 
224 
224 
224 
224 
224 
223 
223 
223 
223 
223 
223 
223 
223 
224 
224 
224 
224 
224 
224 
224 
224 
224 
224 
223 
223 
223 
223 
223 
223 
223 
223 
223 
223 
223 
223 
223 
223 
222 
223 
223 
223 
223 
223 
223 
223 
224 
224 
224 
224 
224 
224 
224 
224 
224 
224 
223 
223 
223 
223 
223 
223 
223 
224 
224 
224 
224 
224 
224 
224 
224 
224 
224 
