P2
# Created by MsrVolt
112 72
255
209 
209 
210 
210 
210 
210 
210 
210 
210 
210 
210 
209 
208 
208 
209 
209 
210 
210 
211 
211 
211 
211 
211 
211 
211 
211 
211 
211 
211 
211 
211 
211 
210 
210 
211 
212 
213 
213 
211 
210 
212 
212 
212 
212 
211 
211 
210 
210 
210 
211 
212 
212 
212 
211 
212 
212 
212 
212 
211 
211 
211 
211 
211 
211 
211 
211 
211 
212 
211 
211 
210 
210 
211 
212 
213 
212 
211 
210 
211 
212 
213 
213 
212 
212 
211 
211 
212 
212 
212 
212 
212 
212 
211 
210 
210 
209 
210 
210 
210 
210 
210 
210 
210 
210 
210 
210 
211 
211 
211 
211 
211 
211 
209 
209 
210 
210 
210 
210 
210 
210 
210 
210 
210 
209 
208 
208 
209 
209 
210 
211 
211 
211 
211 
211 
211 
211 
211 
211 
211 
211 
211 
211 
211 
211 
210 
210 
211 
212 
213 
213 
212 
211 
211 
211 
212 
212 
211 
211 
211 
210 
211 
211 
212 
212 
212 
212 
212 
213 
212 
211 
211 
211 
211 
211 
211 
211 
211 
211 
212 
212 
212 
212 
211 
211 
211 
212 
212 
212 
212 
212 
212 
212 
211 
211 
211 
212 
212 
212 
212 
212 
212 
212 
212 
212 
211 
211 
210 
210 
210 
210 
210 
210 
210 
210 
210 
210 
210 
210 
211 
211 
211 
211 
211 
211 
209 
209 
210 
210 
210 
210 
210 
210 
210 
210 
210 
209 
208 
208 
209 
210 
211 
211 
211 
211 
211 
211 
211 
211 
211 
211 
211 
211 
211 
211 
211 
211 
210 
210 
211 
212 
213 
213 
212 
211 
211 
211 
211 
212 
212 
211 
211 
211 
211 
211 
212 
213 
212 
212 
213 
213 
212 
211 
211 
211 
211 
211 
211 
211 
211 
211 
211 
211 
211 
211 
212 
212 
211 
211 
211 
212 
213 
213 
212 
211 
211 
211 
212 
212 
212 
212 
212 
211 
212 
212 
212 
212 
211 
211 
210 
210 
210 
210 
210 
210 
210 
210 
210 
210 
210 
210 
211 
211 
211 
211 
211 
211 
209 
209 
210 
210 
210 
210 
210 
210 
210 
210 
210 
209 
208 
208 
209 
210 
211 
211 
211 
211 
211 
211 
211 
211 
211 
211 
211 
211 
211 
211 
211 
211 
211 
210 
211 
212 
212 
213 
212 
212 
212 
212 
212 
212 
211 
211 
210 
210 
210 
211 
212 
212 
212 
212 
212 
213 
212 
212 
211 
211 
211 
211 
211 
211 
212 
211 
211 
210 
210 
211 
211 
212 
212 
211 
211 
212 
214 
214 
213 
211 
213 
213 
213 
213 
213 
212 
212 
212 
213 
213 
213 
213 
212 
211 
211 
210 
210 
210 
210 
210 
210 
210 
210 
210 
210 
210 
211 
211 
211 
211 
211 
211 
209 
209 
210 
210 
210 
210 
210 
210 
210 
210 
210 
209 
208 
208 
209 
210 
211 
211 
211 
211 
211 
211 
211 
211 
211 
211 
211 
211 
211 
211 
211 
211 
211 
211 
211 
211 
212 
213 
213 
212 
213 
213 
213 
212 
211 
210 
209 
209 
209 
210 
211 
211 
211 
211 
212 
212 
213 
212 
212 
212 
212 
212 
212 
212 
213 
213 
212 
211 
211 
211 
212 
212 
212 
212 
211 
212 
214 
214 
213 
212 
213 
213 
212 
212 
212 
212 
213 
213 
214 
214 
214 
213 
212 
211 
211 
210 
210 
210 
210 
210 
210 
210 
210 
210 
210 
210 
211 
211 
211 
211 
211 
211 
209 
209 
210 
210 
210 
210 
210 
210 
210 
210 
210 
209 
209 
209 
210 
211 
211 
211 
211 
211 
211 
211 
211 
211 
211 
211 
211 
211 
211 
211 
211 
211 
211 
211 
211 
211 
212 
213 
213 
213 
214 
213 
213 
212 
211 
210 
209 
208 
208 
209 
210 
211 
211 
211 
211 
212 
213 
212 
212 
212 
212 
212 
212 
212 
214 
214 
214 
213 
213 
213 
214 
214 
213 
213 
212 
212 
213 
213 
213 
212 
212 
212 
212 
212 
212 
213 
213 
214 
213 
213 
213 
213 
212 
211 
210 
210 
210 
210 
210 
210 
210 
210 
210 
210 
210 
210 
211 
211 
211 
211 
211 
211 
209 
209 
210 
210 
210 
210 
210 
210 
210 
210 
210 
209 
209 
209 
210 
211 
211 
211 
211 
211 
211 
211 
211 
210 
211 
211 
211 
211 
211 
211 
211 
211 
211 
211 
210 
211 
212 
213 
213 
213 
213 
213 
213 
212 
211 
210 
209 
209 
208 
209 
210 
211 
211 
211 
212 
212 
212 
212 
211 
211 
211 
211 
211 
211 
212 
212 
213 
213 
214 
214 
215 
215 
214 
214 
213 
213 
212 
212 
213 
214 
213 
213 
214 
215 
214 
214 
213 
212 
211 
211 
211 
211 
211 
211 
210 
210 
210 
210 
210 
210 
210 
210 
210 
210 
210 
210 
211 
211 
211 
211 
211 
211 
209 
209 
210 
210 
210 
210 
210 
210 
210 
210 
210 
209 
209 
209 
210 
211 
211 
211 
211 
211 
211 
211 
210 
210 
211 
211 
211 
211 
211 
211 
211 
211 
211 
211 
210 
211 
212 
213 
214 
213 
213 
213 
212 
212 
211 
210 
210 
209 
209 
210 
211 
211 
211 
211 
212 
213 
211 
211 
210 
210 
210 
210 
210 
210 
209 
210 
211 
212 
213 
214 
214 
214 
215 
215 
214 
213 
211 
211 
212 
214 
216 
217 
218 
219 
217 
215 
212 
210 
208 
209 
209 
210 
210 
210 
210 
210 
210 
210 
210 
210 
210 
210 
210 
210 
210 
210 
211 
211 
211 
211 
211 
211 
209 
209 
210 
210 
210 
210 
210 
210 
211 
210 
210 
209 
209 
209 
210 
210 
212 
211 
211 
211 
211 
211 
211 
211 
211 
211 
211 
211 
211 
211 
211 
211 
210 
211 
211 
212 
213 
213 
213 
213 
214 
213 
211 
214 
214 
210 
211 
212 
207 
211 
214 
209 
211 
216 
211 
213 
215 
207 
212 
213 
207 
211 
212 
210 
218 
196 
212 
211 
217 
218 
210 
217 
218 
210 
211 
213 
215 
212 
209 
214 
208 
217 
210 
209 
213 
216 
211 
217 
215 
210 
208 
214 
208 
207 
216 
210 
212 
211 
210 
209 
210 
210 
210 
210 
210 
210 
211 
211 
211 
211 
211 
211 
209 
209 
210 
210 
210 
210 
210 
210 
210 
210 
210 
209 
209 
209 
210 
210 
212 
211 
211 
211 
211 
211 
211 
212 
211 
211 
211 
211 
211 
211 
211 
211 
211 
211 
211 
212 
212 
213 
213 
214 
211 
212 
210 
211 
211 
210 
212 
211 
218 
207 
208 
210 
211 
211 
208 
212 
206 
223 
207 
210 
222 
211 
211 
215 
210 
210 
223 
209 
219 
211 
213 
219 
213 
220 
219 
213 
217 
217 
214 
220 
219 
210 
220 
215 
211 
215 
217 
209 
216 
212 
207 
209 
214 
209 
207 
207 
210 
210 
210 
210 
210 
210 
209 
210 
210 
210 
211 
211 
211 
211 
211 
211 
209 
209 
210 
210 
210 
210 
210 
210 
210 
210 
209 
209 
209 
210 
210 
210 
211 
211 
211 
211 
211 
211 
211 
212 
211 
211 
211 
211 
211 
211 
211 
211 
211 
211 
211 
211 
212 
213 
213 
214 
213 
214 
214 
212 
212 
215 
215 
215 
213 
207 
212 
214 
212 
214 
212 
212 
220 
209 
208 
215 
212 
211 
218 
214 
214 
216 
210 
220 
211 
214 
212 
206 
221 
212 
213 
213 
207 
214 
218 
205 
214 
212 
215 
218 
219 
222 
210 
213 
200 
210 
219 
214 
208 
215 
214 
211 
210 
210 
211 
211 
210 
210 
210 
210 
210 
210 
211 
211 
211 
211 
211 
211 
209 
209 
210 
210 
210 
210 
210 
210 
210 
210 
209 
209 
209 
210 
210 
211 
211 
211 
211 
211 
211 
211 
212 
212 
211 
211 
211 
211 
211 
211 
211 
211 
210 
211 
212 
212 
213 
213 
213 
213 
212 
210 
212 
212 
212 
213 
210 
213 
212 
210 
210 
206 
209 
212 
210 
215 
210 
212 
223 
215 
213 
220 
212 
212 
212 
214 
212 
221 
211 
198 
200 
200 
202 
201 
196 
195 
189 
185 
194 
202 
199 
178 
181 
200 
212 
208 
215 
211 
213 
212 
217 
219 
202 
216 
211 
206 
212 
211 
210 
210 
211 
211 
211 
210 
210 
210 
211 
211 
211 
211 
211 
211 
209 
209 
210 
210 
210 
210 
210 
210 
210 
210 
209 
209 
209 
210 
210 
211 
211 
211 
211 
211 
211 
211 
212 
212 
211 
211 
211 
211 
211 
211 
211 
211 
210 
211 
212 
213 
214 
213 
212 
211 
224 
213 
211 
208 
207 
210 
211 
222 
207 
211 
213 
211 
218 
218 
213 
225 
196 
205 
217 
220 
208 
213 
221 
201 
230 
207 
203 
154 
150 
159 
114 
173 
144 
180 
162 
163 
201 
180 
147 
159 
163 
180 
125 
181 
183 
185 
158 
211 
200 
176 
156 
191 
210 
224 
205 
215 
215 
211 
208 
208 
211 
213 
213 
211 
210 
210 
211 
211 
211 
211 
211 
211 
209 
209 
210 
210 
210 
210 
210 
210 
210 
210 
209 
209 
209 
210 
211 
211 
211 
211 
211 
211 
211 
211 
212 
212 
211 
211 
211 
211 
211 
211 
211 
211 
210 
211 
212 
213 
214 
213 
212 
211 
209 
206 
220 
224 
224 
219 
205 
208 
212 
222 
223 
200 
188 
200 
207 
211 
218 
189 
218 
172 
146 
202 
181 
138 
170 
211 
151 
196 
122 
96 
92 
89 
106 
181 
187 
176 
188 
163 
142 
154 
142 
150 
136 
152 
160 
97 
100 
156 
164 
182 
117 
88 
144 
211 
209 
197 
215 
211 
208 
208 
211 
213 
213 
211 
210 
210 
211 
211 
211 
211 
211 
211 
209 
209 
210 
210 
210 
210 
210 
210 
210 
209 
209 
209 
209 
210 
211 
211 
211 
211 
211 
211 
211 
212 
212 
212 
211 
211 
211 
211 
211 
211 
211 
211 
211 
211 
212 
212 
212 
212 
212 
212 
215 
209 
214 
205 
205 
215 
211 
217 
219 
197 
190 
169 
149 
167 
176 
155 
182 
175 
151 
179 
191 
169 
172 
158 
128 
175 
174 
151 
187 
75 
96 
132 
126 
165 
171 
159 
150 
150 
155 
138 
132 
138 
129 
121 
151 
68 
48 
117 
146 
161 
123 
112 
174 
200 
220 
220 
211 
210 
210 
210 
211 
211 
211 
211 
210 
210 
211 
211 
211 
211 
211 
211 
209 
209 
210 
210 
210 
210 
210 
210 
210 
209 
209 
209 
209 
210 
211 
211 
211 
211 
211 
211 
211 
212 
212 
212 
211 
211 
211 
211 
211 
211 
211 
211 
212 
212 
211 
211 
211 
212 
213 
214 
210 
213 
224 
213 
214 
228 
218 
217 
190 
122 
132 
176 
180 
181 
158 
106 
87 
121 
157 
185 
185 
170 
158 
134 
160 
101 
154 
130 
147 
143 
61 
168 
135 
155 
157 
162 
163 
164 
159 
123 
161 
126 
110 
110 
159 
109 
71 
122 
156 
150 
136 
129 
174 
177 
228 
220 
207 
209 
212 
212 
210 
209 
210 
211 
210 
210 
211 
211 
211 
211 
211 
211 
210 
210 
210 
210 
210 
210 
210 
210 
209 
209 
210 
210 
210 
211 
211 
211 
210 
210 
211 
211 
211 
212 
212 
212 
213 
210 
211 
212 
211 
212 
212 
209 
207 
210 
214 
217 
214 
205 
219 
213 
216 
211 
212 
198 
186 
162 
142 
168 
179 
162 
129 
162 
162 
131 
129 
121 
107 
123 
125 
123 
119 
127 
133 
104 
116 
114 
136 
168 
155 
189 
146 
145 
179 
145 
147 
153 
169 
143 
151 
111 
150 
123 
112 
113 
155 
141 
102 
155 
142 
140 
126 
106 
150 
123 
177 
205 
220 
215 
219 
211 
207 
208 
213 
216 
208 
210 
211 
212 
211 
211 
210 
210 
210 
210 
210 
210 
210 
210 
210 
210 
209 
210 
210 
210 
210 
211 
211 
211 
210 
210 
210 
211 
211 
211 
211 
212 
213 
210 
210 
212 
210 
211 
212 
209 
214 
205 
222 
207 
209 
213 
204 
215 
206 
202 
166 
121 
114 
97 
90 
144 
198 
146 
113 
151 
151 
109 
110 
101 
86 
121 
92 
99 
104 
97 
117 
111 
85 
92 
147 
145 
171 
157 
188 
88 
177 
104 
130 
140 
147 
124 
134 
100 
120 
133 
136 
135 
106 
136 
118 
155 
106 
94 
73 
93 
170 
128 
152 
170 
213 
211 
211 
213 
210 
210 
217 
214 
209 
210 
211 
212 
211 
211 
211 
211 
210 
210 
210 
210 
210 
210 
210 
210 
210 
210 
210 
210 
210 
210 
211 
211 
210 
210 
210 
210 
211 
211 
211 
211 
213 
210 
210 
211 
210 
211 
213 
210 
214 
206 
215 
217 
215 
214 
222 
208 
180 
165 
134 
109 
117 
117 
113 
147 
153 
141 
137 
98 
101 
100 
78 
91 
89 
84 
101 
88 
89 
146 
135 
84 
115 
97 
134 
133 
146 
174 
131 
104 
137 
113 
130 
132 
160 
116 
140 
136 
130 
128 
121 
151 
94 
125 
105 
133 
93 
92 
35 
50 
155 
159 
160 
150 
169 
182 
206 
222 
218 
206 
214 
212 
211 
211 
212 
211 
211 
210 
211 
211 
210 
210 
210 
210 
210 
210 
210 
210 
210 
210 
210 
210 
210 
210 
210 
211 
210 
210 
211 
211 
211 
211 
211 
211 
213 
210 
211 
211 
209 
211 
214 
212 
210 
204 
217 
212 
208 
220 
224 
191 
165 
143 
162 
154 
104 
93 
112 
117 
95 
130 
151 
90 
93 
121 
85 
74 
85 
82 
85 
71 
69 
112 
137 
101 
102 
93 
153 
131 
160 
145 
89 
105 
116 
128 
127 
108 
177 
131 
119 
114 
131 
138 
107 
142 
131 
130 
86 
115 
119 
120 
63 
66 
137 
126 
125 
157 
182 
169 
204 
213 
223 
207 
210 
211 
212 
212 
212 
211 
211 
210 
211 
212 
210 
210 
210 
210 
210 
210 
210 
210 
210 
210 
210 
210 
210 
210 
210 
210 
211 
211 
211 
211 
211 
211 
211 
211 
213 
210 
212 
212 
210 
212 
215 
213 
213 
221 
205 
213 
199 
166 
201 
205 
129 
92 
133 
142 
71 
71 
119 
113 
116 
110 
99 
109 
97 
103 
123 
108 
73 
88 
102 
92 
91 
93 
120 
110 
126 
94 
157 
120 
123 
149 
135 
106 
120 
107 
143 
110 
158 
145 
120 
133 
114 
138 
127 
144 
124 
136 
126 
112 
114 
107 
90 
89 
136 
83 
83 
134 
154 
131 
204 
206 
226 
207 
210 
228 
211 
212 
212 
211 
211 
211 
211 
212 
210 
210 
210 
210 
210 
210 
210 
210 
210 
210 
210 
210 
210 
210 
210 
210 
211 
211 
211 
211 
211 
211 
211 
211 
212 
210 
212 
213 
210 
212 
215 
213 
206 
188 
233 
204 
119 
113 
177 
212 
195 
113 
89 
88 
63 
90 
129 
110 
123 
162 
100 
72 
104 
112 
93 
93 
98 
102 
76 
78 
100 
89 
114 
108 
140 
92 
184 
109 
81 
106 
127 
111 
144 
112 
140 
126 
138 
115 
85 
83 
112 
154 
109 
113 
122 
121 
115 
128 
124 
113 
119 
104 
157 
116 
135 
149 
169 
97 
148 
148 
207 
217 
209 
212 
210 
211 
211 
211 
211 
211 
211 
212 
210 
210 
210 
210 
210 
210 
210 
210 
210 
210 
210 
210 
210 
210 
210 
210 
210 
210 
210 
210 
210 
210 
210 
210 
210 
209 
211 
212 
210 
211 
214 
213 
210 
221 
207 
165 
138 
149 
189 
189 
175 
116 
82 
85 
95 
116 
122 
93 
131 
104 
88 
78 
93 
116 
108 
113 
122 
107 
85 
72 
100 
91 
65 
130 
105 
115 
119 
93 
101 
108 
130 
143 
151 
152 
150 
138 
123 
110 
118 
115 
156 
154 
111 
133 
141 
110 
124 
133 
108 
96 
96 
101 
127 
104 
145 
139 
120 
56 
107 
122 
190 
224 
219 
216 
209 
210 
211 
211 
211 
211 
211 
212 
210 
210 
210 
210 
210 
210 
210 
210 
210 
210 
210 
210 
210 
210 
210 
210 
209 
209 
209 
209 
209 
209 
209 
209 
208 
208 
211 
212 
209 
210 
213 
212 
207 
191 
206 
209 
141 
107 
179 
200 
150 
117 
85 
71 
70 
81 
85 
67 
73 
68 
105 
104 
85 
94 
116 
113 
114 
119 
106 
97 
69 
69 
73 
96 
73 
160 
76 
76 
110 
114 
99 
109 
80 
100 
125 
128 
124 
156 
147 
102 
137 
128 
123 
144 
137 
89 
125 
100 
88 
91 
74 
113 
116 
122 
150 
106 
84 
37 
85 
105 
164 
212 
219 
219 
207 
209 
210 
211 
211 
211 
211 
211 
210 
210 
210 
210 
210 
210 
210 
210 
210 
210 
210 
210 
210 
210 
210 
210 
210 
209 
211 
211 
206 
208 
211 
206 
211 
207 
218 
214 
208 
222 
211 
205 
195 
198 
131 
123 
149 
127 
155 
179 
163 
112 
81 
57 
51 
68 
86 
64 
59 
126 
118 
89 
85 
91 
84 
87 
114 
103 
101 
138 
49 
66 
76 
48 
97 
141 
91 
60 
83 
86 
87 
81 
71 
64 
115 
117 
126 
133 
86 
84 
109 
98 
103 
83 
81 
88 
117 
73 
93 
94 
71 
121 
94 
125 
118 
100 
78 
58 
55 
88 
156 
217 
203 
202 
217 
210 
210 
211 
214 
208 
217 
209 
210 
210 
210 
210 
210 
210 
210 
210 
210 
210 
210 
210 
210 
210 
210 
210 
211 
211 
210 
208 
210 
211 
211 
212 
209 
216 
214 
215 
215 
210 
203 
191 
167 
95 
154 
176 
134 
106 
102 
134 
144 
106 
80 
58 
80 
128 
144 
115 
98 
128 
103 
78 
79 
90 
77 
62 
76 
60 
105 
85 
64 
71 
45 
69 
133 
133 
76 
65 
130 
60 
103 
72 
102 
92 
124 
113 
92 
110 
71 
80 
111 
88 
82 
61 
88 
100 
84 
52 
107 
87 
72 
90 
65 
106 
77 
92 
80 
83 
63 
82 
126 
196 
217 
216 
212 
214 
216 
210 
214 
209 
212 
210 
210 
210 
210 
210 
210 
210 
210 
210 
210 
210 
210 
210 
210 
210 
210 
210 
210 
212 
210 
210 
213 
211 
210 
213 
208 
221 
210 
198 
195 
201 
182 
161 
138 
130 
168 
157 
119 
89 
77 
90 
116 
76 
74 
81 
118 
155 
150 
123 
94 
91 
71 
69 
70 
75 
77 
79 
59 
52 
101 
54 
77 
82 
66 
115 
141 
161 
83 
98 
162 
57 
68 
75 
82 
86 
87 
123 
104 
109 
89 
69 
76 
100 
102 
104 
89 
108 
68 
53 
99 
80 
98 
71 
73 
88 
71 
92 
79 
70 
92 
105 
92 
156 
198 
225 
214 
208 
207 
205 
216 
210 
207 
216 
210 
210 
210 
210 
210 
210 
210 
210 
210 
210 
210 
210 
210 
210 
210 
210 
210 
209 
213 
215 
211 
209 
210 
208 
213 
207 
200 
196 
189 
185 
163 
130 
96 
142 
155 
177 
131 
52 
94 
128 
84 
71 
105 
103 
103 
126 
129 
116 
91 
82 
69 
70 
67 
63 
73 
93 
98 
91 
80 
72 
55 
63 
143 
121 
135 
115 
79 
112 
77 
60 
84 
93 
75 
84 
71 
124 
102 
91 
85 
57 
97 
122 
110 
114 
54 
58 
69 
87 
57 
65 
99 
71 
83 
72 
81 
80 
66 
66 
80 
86 
87 
123 
153 
191 
220 
212 
214 
212 
214 
212 
207 
213 
210 
210 
210 
210 
210 
210 
210 
210 
210 
210 
210 
210 
210 
210 
210 
210 
211 
205 
215 
218 
205 
208 
216 
207 
218 
206 
193 
141 
176 
174 
189 
144 
71 
88 
110 
162 
154 
88 
103 
124 
112 
57 
94 
127 
116 
102 
99 
103 
105 
99 
78 
59 
64 
68 
66 
70 
68 
72 
74 
64 
60 
78 
88 
84 
75 
67 
78 
90 
70 
79 
71 
77 
68 
73 
77 
82 
59 
77 
87 
99 
103 
100 
78 
54 
81 
104 
105 
48 
58 
65 
75 
77 
70 
66 
71 
60 
48 
60 
80 
110 
87 
70 
169 
229 
206 
210 
218 
214 
205 
212 
215 
210 
210 
210 
210 
210 
210 
210 
210 
210 
210 
210 
210 
210 
210 
210 
210 
210 
211 
205 
213 
213 
202 
211 
221 
210 
207 
224 
165 
161 
157 
153 
173 
114 
171 
124 
98 
113 
140 
111 
85 
97 
94 
52 
91 
121 
113 
111 
121 
122 
112 
94 
72 
56 
68 
72 
64 
64 
70 
58 
66 
75 
70 
83 
101 
85 
71 
67 
79 
74 
77 
77 
66 
63 
71 
85 
73 
53 
53 
86 
94 
92 
104 
81 
78 
64 
109 
100 
80 
65 
116 
90 
82 
77 
68 
63 
59 
52 
50 
63 
67 
85 
108 
90 
158 
215 
212 
211 
206 
214 
208 
209 
215 
214 
210 
210 
210 
210 
210 
210 
210 
210 
210 
210 
210 
210 
210 
210 
210 
210 
211 
212 
211 
206 
207 
215 
215 
204 
185 
175 
152 
118 
184 
135 
107 
161 
146 
80 
87 
129 
120 
81 
92 
119 
119 
71 
79 
98 
98 
91 
103 
112 
114 
79 
71 
68 
75 
68 
65 
71 
78 
75 
76 
74 
84 
85 
84 
81 
72 
72 
72 
74 
73 
72 
65 
67 
70 
93 
59 
57 
89 
116 
103 
70 
70 
77 
93 
87 
106 
106 
98 
103 
132 
118 
106 
81 
70 
52 
50 
50 
53 
65 
96 
92 
134 
181 
200 
181 
202 
223 
210 
218 
217 
208 
210 
211 
210 
210 
210 
210 
210 
210 
210 
210 
210 
210 
210 
210 
210 
210 
210 
210 
209 
220 
210 
201 
213 
217 
203 
193 
166 
167 
122 
157 
147 
110 
133 
134 
105 
71 
75 
76 
75 
105 
147 
144 
72 
71 
82 
77 
67 
62 
79 
91 
96 
61 
66 
69 
69 
67 
70 
66 
79 
98 
71 
64 
75 
71 
75 
70 
74 
74 
72 
74 
77 
75 
63 
70 
85 
99 
71 
65 
100 
130 
92 
78 
74 
88 
108 
93 
100 
105 
145 
131 
99 
138 
120 
100 
64 
50 
49 
52 
51 
64 
90 
103 
136 
156 
150 
118 
126 
212 
217 
212 
211 
212 
215 
209 
210 
210 
210 
210 
210 
210 
210 
210 
209 
213 
209 
207 
213 
214 
209 
209 
208 
204 
210 
208 
222 
210 
191 
197 
171 
149 
178 
151 
86 
112 
125 
88 
110 
109 
67 
54 
88 
113 
109 
92 
61 
64 
76 
80 
72 
69 
69 
62 
56 
58 
65 
72 
72 
66 
64 
67 
81 
70 
60 
57 
60 
72 
78 
75 
82 
73 
64 
65 
70 
66 
62 
64 
82 
101 
84 
83 
125 
124 
80 
60 
74 
90 
107 
103 
105 
94 
119 
119 
109 
116 
112 
89 
63 
52 
53 
53 
52 
58 
65 
106 
138 
120 
161 
207 
210 
212 
214 
214 
213 
211 
210 
210 
210 
210 
210 
210 
210 
210 
210 
210 
209 
213 
212 
208 
208 
210 
211 
213 
213 
209 
213 
206 
218 
187 
150 
171 
149 
131 
181 
117 
72 
92 
63 
100 
108 
88 
62 
78 
100 
82 
64 
63 
84 
78 
80 
80 
70 
66 
68 
68 
64 
64 
68 
72 
68 
62 
59 
61 
63 
61 
62 
64 
67 
75 
78 
75 
69 
63 
56 
57 
59 
55 
52 
57 
68 
90 
85 
91 
123 
114 
66 
46 
51 
83 
104 
97 
80 
65 
109 
111 
91 
89 
82 
67 
56 
59 
64 
62 
66 
88 
137 
102 
100 
143 
181 
192 
217 
217 
216 
214 
211 
210 
211 
212 
210 
210 
210 
210 
210 
210 
210 
210 
209 
209 
211 
212 
210 
212 
211 
207 
209 
212 
216 
207 
210 
153 
100 
132 
110 
117 
90 
111 
62 
70 
70 
69 
80 
84 
71 
65 
72 
80 
87 
88 
81 
74 
75 
78 
72 
66 
66 
66 
68 
67 
68 
68 
64 
59 
58 
60 
58 
59 
63 
64 
63 
67 
72 
72 
58 
55 
53 
53 
53 
50 
50 
53 
57 
85 
89 
78 
77 
66 
51 
53 
69 
82 
83 
75 
54 
53 
111 
105 
76 
71 
66 
57 
51 
62 
69 
62 
52 
74 
141 
88 
83 
178 
231 
192 
214 
214 
213 
212 
210 
210 
212 
214 
210 
210 
210 
210 
210 
210 
210 
210 
210 
208 
212 
213 
208 
209 
212 
208 
209 
216 
218 
207 
192 
126 
88 
119 
98 
87 
106 
105 
56 
70 
82 
90 
60 
71 
78 
76 
69 
65 
64 
60 
62 
62 
66 
71 
71 
68 
65 
62 
63 
62 
62 
62 
60 
58 
59 
63 
62 
62 
64 
63 
58 
59 
65 
66 
54 
53 
53 
54 
55 
52 
50 
54 
56 
70 
71 
63 
61 
55 
51 
52 
60 
83 
60 
55 
75 
63 
74 
81 
73 
73 
75 
67 
58 
64 
69 
59 
52 
69 
62 
103 
129 
118 
188 
225 
208 
210 
211 
212 
211 
211 
212 
213 
210 
210 
210 
210 
210 
210 
210 
210 
210 
208 
212 
211 
202 
204 
213 
216 
205 
206 
201 
183 
145 
91 
88 
107 
95 
95 
85 
69 
62 
71 
73 
75 
80 
67 
69 
78 
79 
74 
70 
71 
62 
66 
66 
62 
64 
68 
67 
62 
57 
56 
56 
56 
55 
56 
57 
60 
57 
58 
64 
67 
63 
61 
61 
58 
53 
53 
54 
57 
59 
55 
51 
51 
55 
56 
57 
60 
65 
65 
57 
53 
56 
58 
65 
72 
78 
68 
65 
62 
71 
76 
79 
71 
64 
69 
72 
64 
63 
60 
84 
135 
170 
191 
192 
218 
214 
215 
215 
214 
212 
211 
211 
211 
210 
210 
210 
210 
210 
210 
210 
210 
210 
205 
205 
210 
212 
213 
212 
207 
218 
204 
198 
168 
114 
81 
95 
95 
75 
100 
84 
71 
68 
76 
72 
82 
80 
72 
73 
72 
72 
74 
67 
61 
64 
73 
70 
62 
64 
69 
66 
61 
56 
56 
55 
55 
55 
55 
55 
55 
56 
55 
58 
63 
61 
58 
56 
53 
55 
56 
57 
60 
63 
57 
52 
51 
52 
55 
60 
61 
57 
53 
56 
61 
61 
58 
71 
77 
77 
70 
67 
76 
67 
72 
68 
58 
59 
68 
70 
65 
72 
99 
104 
134 
153 
189 
203 
223 
217 
216 
215 
213 
211 
211 
212 
213 
210 
210 
210 
210 
210 
210 
210 
210 
211 
207 
204 
210 
219 
217 
206 
199 
217 
181 
177 
135 
84 
76 
87 
81 
67 
75 
80 
67 
80 
69 
86 
78 
75 
66 
69 
69 
68 
66 
63 
72 
60 
70 
69 
63 
66 
67 
61 
58 
56 
57 
57 
57 
56 
56 
56 
56 
60 
55 
55 
56 
54 
54 
54 
53 
56 
59 
59 
62 
64 
59 
53 
52 
53 
54 
57 
64 
65 
58 
54 
55 
62 
52 
68 
84 
68 
67 
76 
67 
63 
74 
65 
55 
57 
64 
61 
60 
82 
77 
117 
150 
149 
205 
217 
209 
212 
213 
213 
212 
211 
211 
212 
214 
210 
210 
210 
210 
210 
210 
210 
210 
212 
215 
212 
209 
209 
203 
202 
210 
212 
156 
151 
99 
60 
77 
87 
89 
81 
70 
63 
61 
65 
73 
66 
73 
68 
68 
70 
61 
64 
71 
61 
59 
62 
68 
65 
59 
62 
60 
58 
59 
56 
57 
59 
61 
62 
63 
63 
62 
60 
55 
55 
58 
55 
55 
56 
55 
55 
58 
59 
61 
63 
59 
55 
55 
60 
56 
56 
62 
68 
65 
64 
69 
59 
69 
65 
73 
72 
64 
72 
75 
61 
80 
75 
60 
63 
64 
59 
60 
79 
76 
142 
177 
178 
220 
218 
215 
209 
212 
214 
214 
213 
212 
211 
211 
209 
210 
210 
209 
208 
208 
210 
211 
210 
209 
210 
207 
206 
204 
222 
216 
195 
106 
115 
89 
67 
81 
93 
85 
82 
65 
55 
55 
58 
61 
62 
59 
60 
64 
65 
61 
59 
61 
63 
61 
59 
58 
58 
57 
58 
58 
58 
58 
56 
56 
59 
60 
61 
60 
59 
58 
59 
59 
57 
56 
59 
58 
57 
60 
60 
59 
61 
59 
56 
56 
59 
59 
61 
59 
60 
65 
70 
76 
83 
87 
77 
64 
71 
63 
55 
58 
74 
65 
60 
63 
65 
72 
67 
72 
64 
62 
70 
102 
169 
206 
195 
219 
210 
210 
220 
217 
214 
212 
212 
212 
212 
211 
212 
212 
211 
210 
210 
209 
209 
209 
209 
200 
214 
217 
211 
217 
217 
170 
126 
75 
80 
81 
80 
77 
73 
62 
60 
57 
61 
65 
60 
55 
58 
63 
63 
64 
62 
58 
59 
62 
62 
59 
58 
58 
57 
57 
57 
58 
58 
58 
56 
57 
58 
59 
60 
59 
57 
56 
53 
57 
58 
57 
60 
62 
63 
66 
59 
59 
62 
62 
58 
58 
62 
62 
60 
61 
64 
66 
70 
84 
95 
96 
88 
64 
64 
57 
54 
57 
57 
66 
58 
63 
69 
60 
60 
68 
54 
51 
58 
99 
171 
220 
208 
215 
208 
218 
215 
215 
214 
213 
212 
212 
212 
212 
210 
210 
210 
210 
210 
211 
210 
210 
211 
213 
213 
206 
206 
204 
184 
131 
73 
63 
56 
75 
91 
72 
55 
51 
52 
51 
60 
73 
71 
63 
61 
62 
63 
61 
58 
56 
58 
63 
63 
59 
56 
56 
57 
57 
57 
57 
57 
57 
58 
59 
60 
60 
60 
59 
58 
57 
57 
60 
57 
56 
63 
68 
67 
65 
67 
65 
66 
66 
61 
60 
61 
59 
57 
61 
73 
75 
69 
72 
78 
76 
72 
63 
55 
57 
55 
57 
63 
57 
65 
56 
73 
69 
63 
69 
70 
81 
88 
119 
164 
211 
218 
224 
213 
209 
211 
213 
215 
214 
212 
211 
211 
212 
209 
209 
210 
210 
209 
209 
210 
210 
207 
217 
205 
208 
217 
210 
181 
119 
77 
85 
66 
77 
88 
73 
53 
55 
54 
50 
60 
76 
77 
69 
63 
62 
67 
65 
60 
57 
59 
63 
63 
60 
56 
56 
56 
57 
57 
57 
57 
57 
58 
59 
59 
60 
60 
59 
58 
57 
58 
59 
58 
61 
69 
73 
73 
74 
70 
63 
61 
63 
65 
69 
71 
69 
59 
64 
80 
83 
66 
54 
56 
56 
56 
60 
56 
55 
64 
56 
56 
62 
79 
68 
87 
73 
43 
54 
109 
140 
168 
181 
190 
217 
211 
200 
208 
227 
211 
212 
213 
213 
212 
211 
211 
212 
210 
212 
213 
211 
208 
207 
208 
210 
210 
209 
201 
216 
216 
210 
170 
66 
75 
82 
67 
61 
57 
54 
46 
49 
49 
53 
68 
79 
71 
59 
59 
65 
71 
69 
65 
61 
58 
59 
59 
59 
56 
56 
56 
57 
57 
57 
56 
56 
56 
57 
57 
57 
57 
57 
57 
56 
56 
58 
62 
69 
73 
70 
68 
74 
93 
78 
67 
64 
63 
65 
65 
62 
67 
71 
77 
74 
62 
58 
60 
60 
60 
61 
60 
55 
79 
57 
52 
92 
60 
66 
64 
67 
88 
118 
164 
159 
158 
206 
219 
215 
208 
215 
220 
208 
213 
212 
211 
211 
212 
212 
212 
211 
209 
210 
211 
211 
209 
210 
212 
214 
206 
214 
207 
202 
195 
199 
158 
72 
71 
73 
70 
59 
49 
52 
47 
52 
51 
57 
70 
76 
65 
56 
57 
62 
62 
62 
61 
58 
56 
56 
57 
59 
56 
56 
56 
56 
56 
56 
56 
56 
56 
56 
56 
57 
56 
57 
57 
58 
60 
58 
59 
75 
94 
97 
88 
82 
86 
70 
60 
61 
65 
71 
75 
74 
69 
73 
69 
59 
59 
64 
62 
56 
56 
58 
54 
64 
67 
62 
94 
82 
119 
109 
54 
79 
164 
201 
207 
176 
222 
220 
208 
218 
221 
212 
213 
214 
215 
213 
210 
210 
211 
212 
212 
211 
209 
208 
207 
207 
209 
212 
213 
213 
211 
219 
218 
172 
134 
133 
96 
78 
68 
64 
61 
55 
48 
48 
47 
54 
61 
59 
63 
65 
62 
59 
59 
57 
56 
56 
56 
56 
56 
56 
57 
60 
57 
57 
57 
57 
57 
57 
57 
57 
57 
57 
57 
57 
57 
58 
59 
59 
60 
56 
56 
73 
107 
126 
117 
102 
81 
69 
62 
62 
62 
64 
67 
67 
62 
67 
61 
57 
61 
60 
57 
58 
55 
59 
54 
66 
55 
105 
145 
81 
114 
126 
104 
145 
203 
214 
208 
193 
219 
214 
210 
215 
216 
211 
213 
215 
214 
213 
212 
211 
211 
212 
212 
212 
215 
210 
205 
204 
208 
209 
208 
205 
214 
196 
225 
172 
94 
88 
61 
78 
77 
68 
55 
54 
51 
47 
52 
60 
65 
60 
57 
57 
56 
58 
60 
57 
57 
57 
57 
57 
57 
57 
58 
59 
58 
58 
57 
57 
57 
56 
57 
57 
57 
57 
57 
56 
56 
57 
58 
58 
57 
60 
56 
58 
81 
102 
100 
88 
72 
63 
61 
62 
60 
58 
61 
62 
59 
60 
58 
62 
68 
56 
57 
84 
93 
81 
85 
64 
76 
179 
159 
132 
123 
163 
192 
220 
211 
209 
214 
206 
213 
214 
218 
214 
212 
214 
216 
214 
211 
213 
213 
213 
211 
211 
212 
213 
213 
207 
206 
212 
206 
201 
208 
211 
217 
202 
209 
185 
100 
96 
82 
67 
70 
64 
57 
53 
51 
52 
58 
65 
66 
54 
58 
58 
57 
59 
54 
56 
59 
57 
58 
61 
62 
60 
58 
57 
56 
62 
55 
57 
58 
55 
58 
56 
55 
57 
60 
55 
56 
58 
56 
60 
56 
63 
62 
62 
71 
69 
70 
64 
60 
53 
66 
64 
59 
63 
60 
62 
61 
57 
59 
74 
63 
49 
78 
107 
105 
120 
145 
105 
181 
194 
180 
194 
190 
218 
214 
212 
208 
224 
214 
217 
210 
213 
215 
214 
214 
215 
214 
213 
213 
213 
213 
213 
213 
213 
213 
213 
207 
205 
212 
214 
210 
207 
216 
214 
218 
199 
201 
157 
95 
97 
100 
58 
64 
61 
58 
57 
56 
57 
60 
64 
67 
56 
58 
58 
58 
60 
55 
56 
57 
55 
56 
59 
61 
60 
57 
56 
63 
60 
56 
58 
57 
56 
57 
56 
56 
57 
57 
56 
58 
59 
58 
60 
63 
54 
64 
74 
81 
67 
62 
62 
74 
63 
62 
57 
64 
63 
71 
57 
56 
59 
61 
59 
58 
79 
111 
120 
95 
188 
169 
171 
213 
218 
212 
214 
225 
217 
207 
204 
205 
219 
198 
215 
210 
213 
215 
214 
214 
215 
215 
213 
213 
213 
213 
213 
213 
213 
213 
213 
210 
205 
215 
210 
211 
212 
220 
206 
190 
167 
168 
100 
88 
85 
78 
61 
64 
62 
61 
61 
59 
58 
58 
60 
64 
57 
57 
57 
59 
60 
55 
56 
57 
55 
56 
60 
63 
62 
60 
58 
68 
56 
56 
57 
55 
56 
57 
56 
57 
58 
56 
58 
59 
57 
58 
56 
57 
54 
59 
67 
61 
58 
59 
69 
64 
88 
66 
65 
81 
76 
60 
57 
61 
61 
64 
57 
75 
131 
169 
171 
160 
207 
176 
218 
184 
219 
204 
213 
201 
203 
229 
227 
213 
216 
191 
227 
211 
213 
215 
214 
214 
215 
215 
213 
213 
213 
213 
213 
213 
213 
213 
213 
212 
208 
222 
206 
207 
210 
219 
200 
164 
114 
140 
74 
92 
86 
53 
59 
64 
63 
61 
60 
58 
57 
57 
57 
59 
58 
58 
58 
61 
60 
57 
58 
57 
56 
58 
61 
63 
62 
60 
60 
65 
54 
60 
58 
54 
59 
57 
55 
56 
57 
56 
60 
58 
56 
60 
58 
55 
77 
69 
72 
62 
61 
59 
62 
69 
78 
67 
59 
85 
108 
89 
97 
106 
97 
110 
119 
139 
179 
194 
191 
194 
156 
211 
218 
222 
209 
220 
204 
226 
209 
212 
202 
206 
228 
206 
223 
211 
214 
215 
214 
214 
215 
215 
214 
213 
213 
213 
213 
213 
213 
213 
213 
207 
209 
227 
207 
206 
207 
211 
196 
134 
107 
181 
112 
75 
62 
54 
68 
61 
61 
59 
58 
57 
58 
57 
57 
54 
59 
59 
59 
61 
59 
57 
59 
54 
54 
56 
58 
58 
56 
57 
59 
59 
54 
65 
59 
53 
59 
57 
54 
56 
57 
58 
59 
56 
56 
63 
61 
57 
95 
66 
61 
76 
54 
67 
71 
63 
94 
88 
115 
101 
97 
178 
148 
181 
163 
174 
188 
198 
210 
209 
211 
221 
210 
214 
219 
210 
210 
214 
216 
208 
211 
219 
213 
209 
216 
206 
213 
212 
214 
215 
214 
214 
215 
215 
214 
214 
214 
214 
214 
214 
214 
214 
214 
210 
206 
216 
203 
212 
213 
196 
174 
141 
146 
185 
103 
60 
57 
62 
57 
59 
59 
58 
57 
57 
58 
56 
54 
52 
60 
56 
55 
58 
55 
55 
56 
55 
55 
55 
56 
55 
53 
54 
56 
55 
54 
62 
59 
54 
57 
58 
56 
61 
58 
61 
56 
53 
60 
61 
57 
56 
113 
106 
103 
132 
51 
67 
67 
95 
88 
84 
112 
101 
150 
202 
201 
205 
194 
192 
196 
202 
209 
213 
219 
211 
220 
211 
213 
214 
214 
210 
217 
213 
209 
205 
211 
213 
214 
215 
215 
212 
214 
215 
214 
214 
215 
215 
214 
214 
214 
214 
214 
214 
214 
214 
214 
214 
205 
206 
201 
218 
219 
184 
163 
152 
166 
166 
70 
47 
50 
58 
55 
57 
58 
57 
55 
56 
57 
57 
54 
54 
65 
55 
54 
58 
55 
54 
54 
62 
58 
55 
56 
56 
55 
55 
55 
55 
55 
55 
62 
64 
62 
69 
73 
74 
59 
64 
55 
56 
78 
69 
59 
70 
136 
138 
126 
164 
106 
143 
146 
162 
165 
167 
183 
178 
205 
204 
223 
207 
216 
212 
210 
214 
214 
214 
213 
217 
205 
216 
211 
216 
213 
213 
211 
220 
213 
208 
213 
214 
211 
213 
212 
213 
215 
215 
214 
213 
214 
215 
214 
214 
214 
214 
214 
214 
214 
214 
214 
209 
207 
210 
206 
218 
217 
183 
177 
172 
146 
145 
61 
52 
62 
61 
53 
57 
56 
54 
53 
54 
59 
63 
63 
65 
74 
59 
55 
63 
60 
59 
56 
66 
60 
55 
55 
57 
57 
55 
54 
58 
56 
53 
69 
78 
74 
86 
96 
81 
58 
66 
56 
67 
100 
87 
73 
99 
164 
144 
115 
150 
149 
185 
172 
170 
163 
206 
198 
223 
208 
211 
216 
202 
221 
212 
207 
212 
211 
214 
213 
212 
215 
213 
216 
209 
210 
220 
212 
210 
209 
214 
212 
210 
213 
215 
212 
213 
215 
215 
214 
213 
214 
215 
214 
214 
214 
214 
214 
214 
214 
214 
214 
211 
206 
210 
215 
211 
208 
200 
183 
180 
155 
129 
69 
62 
63 
62 
51 
53 
69 
59 
54 
64 
66 
68 
73 
75 
75 
63 
59 
65 
68 
61 
68 
78 
54 
54 
55 
53 
58 
59 
63 
61 
67 
71 
72 
87 
85 
92 
101 
77 
64 
75 
59 
79 
130 
135 
146 
185 
187 
175 
157 
151 
149 
150 
155 
144 
159 
202 
188 
217 
208 
198 
218 
207 
209 
212 
213 
212 
212 
214 
215 
216 
214 
212 
211 
213 
214 
213 
212 
211 
212 
212 
212 
213 
213 
213 
214 
213 
213 
214 
214 
214 
214 
214 
214 
215 
215 
214 
214 
214 
214 
214 
214 
206 
208 
211 
213 
204 
204 
207 
186 
160 
140 
120 
74 
67 
55 
58 
54 
68 
68 
55 
52 
62 
72 
72 
70 
77 
70 
58 
56 
61 
58 
61 
66 
77 
69 
74 
72 
60 
67 
76 
70 
67 
71 
66 
81 
99 
103 
114 
110 
91 
87 
96 
109 
141 
178 
189 
197 
214 
221 
195 
201 
175 
195 
182 
191 
198 
210 
210 
214 
205 
225 
204 
231 
203 
208 
215 
219 
218 
215 
212 
210 
215 
213 
211 
211 
212 
213 
212 
211 
211 
211 
211 
212 
212 
213 
213 
213 
213 
214 
214 
214 
214 
214 
214 
214 
215 
215 
214 
214 
214 
214 
214 
214 
209 
211 
207 
213 
209 
210 
203 
153 
117 
113 
102 
71 
71 
57 
66 
59 
74 
64 
56 
54 
66 
78 
72 
64 
67 
60 
60 
61 
59 
54 
59 
66 
80 
79 
97 
97 
72 
72 
100 
112 
97 
102 
106 
117 
119 
121 
132 
124 
129 
148 
154 
176 
198 
204 
209 
204 
205 
204 
199 
202 
202 
217 
222 
223 
218 
221 
213 
214 
207 
217 
207 
219 
209 
212 
214 
215 
215 
214 
214 
214 
214 
212 
210 
210 
211 
212 
211 
210 
211 
211 
211 
212 
212 
212 
213 
213 
214 
214 
214 
214 
214 
214 
214 
214 
215 
215 
214 
214 
214 
214 
214 
214 
212 
213 
204 
214 
215 
218 
201 
128 
86 
99 
90 
66 
67 
57 
64 
56 
56 
55 
58 
65 
82 
94 
86 
81 
75 
67 
82 
82 
64 
64 
63 
76 
81 
72 
98 
87 
67 
84 
118 
143 
135 
129 
157 
145 
139 
141 
137 
135 
148 
198 
215 
216 
206 
194 
206 
211 
205 
200 
221 
211 
224 
207 
213 
194 
211 
208 
215 
209 
218 
208 
215 
207 
216 
214 
212 
210 
209 
211 
215 
218 
213 
212 
211 
210 
211 
211 
211 
211 
211 
211 
212 
212 
213 
213 
213 
213 
214 
214 
214 
214 
214 
214 
214 
214 
214 
214 
213 
213 
213 
213 
213 
213 
207 
212 
207 
214 
208 
213 
208 
146 
86 
104 
96 
84 
80 
70 
74 
73 
61 
60 
65 
76 
95 
107 
104 
101 
103 
92 
112 
117 
88 
107 
87 
106 
115 
97 
126 
90 
92 
141 
153 
161 
166 
140 
188 
158 
171 
189 
164 
167 
192 
212 
210 
206 
212 
213 
211 
209 
215 
209 
213 
208 
208 
210 
219 
215 
212 
211 
211 
214 
213 
211 
216 
210 
212 
212 
213 
213 
212 
212 
212 
213 
213 
212 
212 
211 
212 
212 
212 
211 
212 
212 
213 
213 
213 
214 
214 
214 
214 
214 
214 
214 
214 
214 
214 
214 
213 
213 
213 
212 
212 
212 
212 
213 
206 
212 
210 
212 
203 
205 
205 
163 
91 
97 
85 
91 
82 
70 
62 
80 
80 
68 
69 
89 
104 
119 
131 
117 
109 
102 
128 
155 
132 
158 
125 
144 
138 
117 
156 
116 
124 
167 
154 
161 
158 
138 
187 
155 
182 
210 
182 
195 
213 
215 
213 
210 
212 
209 
206 
216 
208 
210 
214 
217 
211 
211 
210 
208 
212 
212 
211 
214 
210 
210 
213 
210 
211 
211 
212 
213 
213 
212 
211 
211 
212 
212 
212 
212 
212 
212 
212 
212 
213 
213 
213 
213 
214 
214 
215 
215 
214 
214 
214 
214 
214 
214 
214 
214 
213 
213 
212 
212 
212 
212 
212 
212 
211 
209 
209 
212 
206 
206 
203 
177 
136 
123 
92 
105 
96 
90 
56 
72 
77 
58 
74 
117 
120 
140 
171 
136 
105 
107 
134 
178 
160 
170 
147 
169 
149 
135 
184 
154 
158 
173 
150 
167 
156 
172 
199 
182 
198 
214 
198 
215 
212 
208 
207 
213 
217 
214 
211 
209 
210 
210 
214 
208 
215 
210 
215 
217 
212 
210 
216 
212 
216 
212 
213 
212 
213 
212 
211 
210 
211 
212 
212 
213 
212 
212 
213 
213 
212 
212 
212 
212 
212 
213 
213 
213 
214 
214 
214 
214 
214 
214 
214 
214 
214 
214 
214 
213 
214 
213 
213 
213 
213 
213 
213 
213 
210 
206 
209 
211 
208 
210 
213 
204 
173 
147 
101 
116 
115 
125 
71 
73 
77 
57 
93 
151 
137 
152 
190 
136 
117 
122 
140 
183 
161 
149 
146 
176 
154 
155 
202 
172 
179 
189 
163 
171 
164 
209 
209 
208 
213 
214 
204 
214 
202 
213 
213 
214 
208 
206 
215 
209 
211 
215 
213 
211 
215 
211 
208 
212 
213 
213 
211 
211 
209 
216 
208 
214 
211 
211 
212 
213 
213 
213 
212 
211 
211 
212 
213 
213 
212 
212 
212 
212 
212 
212 
212 
213 
213 
214 
214 
214 
214 
214 
214 
214 
214 
214 
213 
213 
214 
214 
214 
213 
213 
213 
214 
214 
208 
214 
204 
211 
213 
204 
214 
215 
199 
156 
131 
157 
159 
155 
82 
99 
112 
78 
111 
179 
158 
152 
190 
151 
145 
161 
170 
186 
163 
161 
164 
190 
172 
184 
204 
217 
204 
201 
207 
184 
204 
212 
208 
209 
220 
214 
207 
220 
204 
208 
211 
212 
211 
210 
210 
212 
212 
212 
212 
212 
212 
212 
212 
212 
212 
212 
212 
212 
212 
212 
212 
212 
212 
212 
212 
213 
212 
212 
212 
212 
212 
212 
212 
212 
212 
212 
212 
212 
212 
212 
213 
213 
214 
214 
214 
214 
215 
215 
215 
214 
214 
214 
214 
214 
214 
214 
214 
214 
214 
214 
214 
214 
208 
213 
202 
209 
211 
202 
209 
210 
209 
196 
172 
186 
181 
172 
116 
112 
117 
118 
153 
194 
170 
160 
192 
180 
191 
197 
194 
199 
190 
197 
199 
209 
197 
203 
212 
219 
210 
211 
219 
202 
218 
213 
209 
209 
209 
209 
213 
220 
207 
209 
211 
212 
211 
210 
210 
211 
212 
212 
212 
212 
212 
212 
212 
212 
212 
212 
212 
212 
212 
212 
212 
212 
211 
212 
212 
212 
212 
212 
212 
211 
212 
212 
212 
212 
212 
212 
212 
212 
212 
212 
213 
213 
214 
214 
214 
214 
215 
215 
215 
214 
214 
214 
214 
214 
214 
214 
214 
214 
214 
214 
214 
214 
210 
213 
204 
209 
212 
205 
210 
210 
206 
212 
182 
183 
182 
183 
173 
172 
167 
178 
190 
197 
189 
185 
199 
203 
209 
213 
211 
207 
210 
219 
217 
207 
211 
212 
210 
210 
208 
211 
216 
207 
220 
209 
214 
218 
208 
209 
216 
211 
211 
211 
211 
211 
211 
211 
210 
210 
212 
212 
212 
212 
212 
212 
212 
212 
212 
212 
212 
212 
212 
212 
212 
212 
211 
211 
212 
212 
212 
212 
212 
211 
212 
212 
212 
212 
212 
212 
212 
212 
212 
212 
213 
213 
214 
214 
214 
214 
215 
215 
215 
214 
214 
214 
214 
214 
215 
215 
215 
215 
215 
215 
215 
215 
210 
213 
205 
210 
214 
209 
212 
212 
207 
214 
194 
196 
199 
193 
202 
207 
215 
216 
205 
197 
206 
210 
205 
209 
206 
213 
218 
210 
217 
221 
220 
206 
222 
223 
218 
216 
218 
220 
220 
218 
214 
207 
216 
222 
213 
212 
215 
207 
213 
212 
211 
211 
212 
212 
211 
210 
211 
211 
212 
212 
212 
212 
213 
213 
212 
212 
212 
212 
212 
212 
212 
212 
212 
212 
212 
213 
213 
213 
212 
212 
213 
212 
212 
212 
212 
212 
212 
212 
212 
213 
213 
214 
214 
214 
214 
214 
215 
215 
215 
215 
215 
215 
214 
214 
215 
215 
215 
215 
215 
215 
215 
215 
208 
210 
205 
207 
212 
210 
210 
211 
212 
214 
210 
209 
214 
204 
207 
211 
215 
215 
213 
208 
213 
215 
207 
211 
210 
212 
216 
206 
213 
214 
219 
213 
212 
214 
213 
210 
212 
213 
210 
213 
213 
212 
212 
213 
212 
212 
213 
214 
214 
212 
210 
211 
212 
213 
212 
211 
211 
211 
212 
212 
212 
212 
213 
213 
212 
212 
212 
212 
212 
212 
212 
212 
212 
213 
213 
213 
214 
214 
213 
213 
213 
213 
212 
212 
212 
212 
212 
212 
213 
213 
213 
214 
214 
214 
214 
214 
215 
215 
215 
215 
215 
215 
215 
215 
216 
216 
215 
215 
215 
215 
215 
215 
208 
209 
207 
207 
210 
210 
208 
210 
210 
210 
212 
204 
210 
211 
213 
213 
209 
208 
214 
215 
213 
211 
210 
214 
213 
209 
210 
206 
213 
211 
215 
213 
212 
212 
214 
211 
212 
213 
209 
216 
211 
215 
211 
208 
213 
211 
209 
216 
213 
212 
211 
211 
212 
213 
213 
212 
211 
211 
211 
212 
212 
213 
213 
213 
212 
212 
212 
212 
212 
212 
212 
212 
213 
213 
214 
214 
214 
214 
214 
214 
213 
213 
212 
212 
212 
212 
212 
212 
213 
213 
214 
214 
214 
214 
214 
214 
215 
215 
215 
215 
215 
215 
215 
215 
216 
216 
215 
215 
215 
215 
215 
214 
209 
211 
211 
208 
210 
210 
208 
211 
209 
213 
217 
213 
216 
213 
212 
207 
214 
211 
210 
213 
212 
210 
213 
214 
214 
211 
213 
214 
218 
214 
214 
213 
214 
209 
214 
212 
211 
213 
209 
215 
209 
213 
213 
212 
214 
212 
209 
212 
212 
212 
211 
212 
212 
212 
212 
212 
211 
211 
211 
212 
212 
213 
213 
213 
212 
212 
212 
212 
212 
212 
212 
212 
213 
213 
213 
214 
214 
214 
214 
214 
213 
213 
212 
212 
212 
211 
212 
212 
213 
213 
214 
214 
214 
214 
214 
214 
215 
215 
215 
215 
215 
215 
215 
215 
215 
215 
215 
215 
215 
214 
214 
214 
207 
209 
211 
208 
209 
210 
208 
212 
210 
212 
209 
214 
214 
206 
215 
214 
212 
214 
210 
213 
213 
209 
213 
212 
210 
211 
212 
212 
211 
209 
211 
215 
215 
207 
214 
214 
212 
214 
209 
212 
212 
211 
212 
212 
210 
212 
214 
213 
211 
212 
212 
212 
212 
212 
212 
212 
211 
211 
211 
212 
212 
213 
213 
213 
212 
212 
212 
212 
212 
212 
212 
212 
212 
213 
213 
214 
214 
214 
214 
214 
213 
213 
212 
212 
212 
211 
211 
212 
213 
214 
214 
214 
214 
214 
214 
214 
214 
215 
215 
215 
215 
215 
215 
215 
215 
215 
215 
215 
214 
214 
214 
214 
