P2
# Created by MsrVolt
118 58
255
218 
218 
218 
218 
218 
218 
217 
217 
218 
217 
217 
217 
217 
218 
218 
218 
218 
218 
218 
218 
218 
218 
218 
218 
218 
218 
218 
218 
218 
218 
218 
218 
218 
218 
218 
218 
218 
218 
218 
218 
218 
218 
219 
219 
219 
217 
216 
215 
218 
218 
218 
219 
219 
220 
220 
220 
218 
218 
218 
219 
219 
218 
218 
218 
219 
217 
217 
219 
219 
217 
217 
219 
219 
220 
218 
219 
224 
214 
224 
219 
218 
221 
222 
216 
223 
218 
224 
219 
221 
217 
217 
220 
222 
220 
219 
221 
219 
220 
220 
219 
220 
222 
222 
221 
223 
220 
218 
218 
220 
221 
220 
219 
219 
220 
221 
221 
221 
220 
218 
218 
218 
218 
218 
218 
217 
217 
218 
217 
217 
217 
217 
218 
218 
218 
218 
218 
218 
218 
218 
218 
218 
218 
218 
218 
218 
218 
218 
218 
218 
218 
218 
218 
218 
218 
218 
218 
218 
218 
219 
219 
220 
220 
219 
218 
217 
216 
218 
218 
218 
218 
219 
219 
219 
219 
218 
218 
218 
217 
217 
218 
218 
218 
219 
217 
218 
219 
219 
217 
217 
218 
224 
221 
219 
221 
225 
214 
223 
224 
214 
220 
224 
220 
225 
219 
221 
218 
218 
227 
228 
219 
216 
221 
221 
216 
225 
226 
224 
217 
214 
217 
221 
223 
219 
219 
218 
219 
221 
221 
221 
220 
219 
220 
221 
221 
221 
221 
218 
218 
218 
218 
218 
218 
217 
217 
218 
217 
217 
217 
217 
218 
218 
218 
218 
218 
218 
218 
218 
218 
218 
218 
218 
218 
218 
218 
218 
218 
218 
218 
218 
218 
218 
218 
218 
218 
218 
218 
219 
220 
220 
220 
220 
219 
218 
218 
218 
218 
218 
218 
218 
218 
218 
218 
218 
218 
217 
217 
217 
217 
218 
218 
218 
218 
218 
219 
219 
216 
215 
215 
217 
217 
217 
216 
217 
211 
217 
216 
217 
220 
220 
213 
216 
214 
218 
222 
225 
219 
220 
226 
224 
216 
216 
223 
212 
206 
208 
218 
224 
222 
220 
222 
218 
219 
220 
221 
222 
221 
220 
219 
219 
219 
220 
221 
221 
221 
218 
218 
218 
218 
218 
218 
217 
217 
218 
217 
217 
217 
217 
218 
218 
218 
218 
218 
218 
218 
218 
218 
218 
218 
218 
218 
218 
218 
218 
218 
218 
218 
218 
218 
218 
218 
218 
218 
218 
218 
219 
219 
219 
219 
219 
219 
218 
218 
218 
218 
218 
218 
217 
217 
217 
217 
218 
218 
218 
218 
218 
218 
218 
218 
219 
219 
218 
218 
217 
216 
215 
215 
213 
222 
224 
220 
220 
224 
228 
223 
224 
227 
232 
229 
229 
226 
224 
228 
226 
222 
216 
212 
216 
223 
225 
222 
223 
219 
219 
224 
228 
226 
220 
217 
221 
222 
223 
222 
221 
220 
219 
219 
218 
219 
219 
220 
220 
220 
218 
218 
218 
218 
218 
218 
217 
217 
218 
217 
217 
217 
217 
218 
218 
218 
218 
218 
218 
218 
218 
218 
218 
218 
218 
218 
218 
218 
218 
218 
218 
218 
218 
218 
218 
218 
218 
218 
218 
218 
218 
218 
218 
218 
218 
218 
218 
218 
218 
218 
218 
218 
217 
217 
217 
217 
217 
218 
219 
219 
219 
219 
218 
217 
219 
219 
218 
217 
217 
218 
219 
219 
220 
223 
225 
221 
216 
218 
218 
220 
214 
209 
216 
217 
212 
214 
211 
215 
214 
217 
220 
221 
224 
227 
223 
216 
218 
226 
225 
215 
211 
218 
224 
222 
222 
222 
222 
221 
219 
218 
219 
219 
218 
218 
219 
219 
220 
220 
218 
218 
218 
218 
218 
218 
217 
217 
218 
217 
217 
217 
217 
218 
218 
218 
218 
218 
218 
218 
218 
218 
218 
218 
218 
218 
218 
218 
218 
218 
218 
218 
218 
218 
218 
218 
218 
218 
218 
218 
217 
217 
217 
217 
217 
217 
217 
218 
218 
218 
218 
218 
217 
217 
217 
217 
217 
218 
219 
220 
220 
219 
218 
217 
218 
219 
218 
218 
219 
222 
224 
224 
218 
214 
217 
222 
215 
214 
213 
226 
232 
217 
229 
236 
227 
235 
231 
230 
229 
227 
231 
235 
231 
221 
223 
233 
232 
227 
227 
231 
229 
221 
217 
219 
223 
222 
220 
219 
218 
219 
220 
220 
219 
219 
219 
219 
219 
219 
218 
218 
218 
218 
218 
218 
217 
217 
218 
217 
217 
217 
217 
218 
218 
218 
218 
218 
218 
218 
218 
218 
218 
218 
218 
218 
218 
218 
218 
218 
218 
218 
218 
218 
218 
218 
218 
218 
218 
218 
217 
217 
217 
217 
217 
217 
218 
218 
218 
218 
218 
218 
218 
218 
218 
218 
218 
218 
218 
218 
218 
218 
218 
218 
217 
218 
218 
217 
218 
222 
223 
223 
213 
215 
224 
230 
224 
228 
222 
234 
232 
207 
212 
210 
179 
174 
154 
138 
128 
138 
139 
131 
133 
155 
179 
191 
184 
169 
173 
203 
226 
230 
231 
237 
226 
224 
221 
221 
221 
222 
222 
221 
220 
220 
220 
220 
220 
220 
218 
218 
218 
218 
218 
218 
217 
217 
218 
217 
217 
217 
217 
218 
218 
218 
218 
218 
218 
218 
218 
218 
218 
218 
218 
218 
218 
218 
218 
218 
218 
218 
218 
218 
218 
218 
218 
218 
218 
218 
217 
217 
217 
217 
217 
217 
218 
218 
218 
218 
218 
218 
218 
218 
218 
218 
219 
218 
217 
216 
216 
217 
218 
219 
216 
218 
218 
216 
217 
219 
219 
218 
215 
228 
235 
224 
208 
212 
194 
188 
176 
130 
123 
114 
82 
91 
88 
80 
84 
85 
88 
88 
81 
77 
81 
89 
81 
77 
77 
94 
133 
177 
202 
209 
231 
228 
225 
224 
224 
225 
223 
221 
222 
221 
221 
221 
220 
220 
218 
218 
218 
219 
219 
218 
217 
217 
218 
218 
218 
218 
218 
218 
218 
218 
218 
218 
218 
218 
218 
219 
219 
219 
218 
218 
218 
218 
218 
218 
217 
217 
218 
217 
217 
217 
218 
218 
218 
217 
217 
216 
216 
215 
216 
217 
217 
217 
218 
221 
220 
217 
216 
218 
218 
216 
219 
218 
217 
212 
218 
219 
215 
220 
218 
218 
221 
215 
216 
223 
221 
222 
220 
233 
225 
186 
142 
131 
105 
104 
98 
76 
91 
109 
103 
94 
91 
93 
94 
88 
94 
87 
79 
81 
79 
73 
71 
66 
76 
83 
82 
78 
115 
167 
204 
227 
229 
211 
225 
221 
223 
227 
222 
221 
220 
222 
222 
220 
218 
218 
219 
219 
219 
218 
218 
217 
218 
218 
218 
218 
218 
218 
218 
218 
218 
218 
218 
218 
218 
219 
219 
219 
218 
219 
219 
218 
218 
218 
217 
217 
218 
217 
217 
217 
218 
218 
218 
217 
217 
216 
216 
215 
216 
217 
217 
217 
215 
217 
219 
217 
216 
218 
221 
223 
217 
213 
222 
225 
216 
226 
210 
220 
214 
213 
226 
219 
210 
218 
217 
236 
178 
209 
207 
181 
152 
104 
82 
87 
102 
94 
90 
96 
109 
102 
86 
93 
86 
76 
80 
78 
71 
72 
70 
67 
79 
83 
74 
75 
95 
131 
96 
160 
137 
132 
241 
223 
218 
224 
224 
214 
225 
221 
219 
220 
221 
220 
218 
218 
219 
219 
219 
218 
218 
217 
218 
218 
218 
218 
218 
218 
218 
218 
218 
218 
218 
218 
218 
218 
218 
218 
219 
219 
219 
219 
218 
218 
217 
217 
218 
217 
217 
217 
218 
218 
218 
217 
217 
216 
216 
215 
216 
217 
217 
217 
219 
216 
213 
215 
217 
218 
219 
220 
217 
211 
215 
221 
209 
216 
220 
224 
204 
213 
225 
223 
231 
230 
228 
208 
186 
179 
143 
141 
135 
99 
97 
98 
95 
95 
102 
100 
94 
88 
79 
81 
85 
79 
87 
88 
75 
70 
66 
67 
67 
67 
73 
69 
75 
91 
126 
128 
145 
112 
127 
202 
239 
218 
222 
224 
227 
222 
219 
220 
222 
222 
218 
218 
219 
219 
219 
218 
218 
217 
218 
218 
218 
218 
218 
218 
218 
218 
218 
218 
218 
218 
218 
218 
218 
218 
219 
219 
219 
219 
218 
218 
217 
216 
217 
217 
217 
217 
218 
218 
218 
217 
217 
216 
216 
215 
216 
217 
217 
217 
215 
218 
221 
220 
213 
209 
217 
227 
225 
226 
220 
226 
222 
207 
235 
211 
210 
236 
214 
177 
166 
154 
207 
184 
146 
121 
95 
119 
100 
90 
101 
99 
84 
86 
97 
88 
71 
64 
62 
66 
71 
72 
82 
82 
64 
63 
62 
66 
62 
58 
66 
69 
58 
81 
81 
74 
167 
165 
143 
171 
216 
234 
220 
217 
223 
220 
218 
220 
221 
221 
218 
218 
219 
219 
219 
219 
218 
217 
218 
218 
218 
218 
218 
218 
218 
218 
218 
218 
218 
218 
218 
218 
218 
218 
219 
219 
219 
219 
218 
217 
217 
216 
217 
217 
216 
217 
218 
218 
218 
217 
217 
216 
216 
215 
216 
217 
217 
217 
219 
216 
215 
218 
218 
218 
221 
225 
213 
216 
209 
216 
218 
213 
235 
209 
229 
226 
168 
129 
96 
80 
144 
141 
92 
77 
85 
107 
91 
86 
86 
81 
78 
78 
64 
52 
59 
54 
47 
60 
54 
57 
63 
63 
55 
64 
65 
67 
63 
61 
62 
60 
55 
66 
82 
95 
122 
179 
207 
156 
78 
219 
219 
215 
218 
218 
219 
220 
220 
218 
218 
219 
219 
219 
219 
219 
218 
218 
218 
218 
218 
218 
218 
218 
218 
218 
218 
218 
218 
218 
218 
218 
218 
218 
218 
218 
218 
218 
218 
217 
217 
216 
217 
217 
216 
217 
217 
218 
217 
217 
217 
216 
216 
215 
216 
217 
217 
217 
221 
215 
212 
214 
219 
221 
219 
216 
217 
219 
222 
227 
221 
240 
219 
218 
231 
161 
86 
97 
89 
95 
101 
103 
99 
85 
99 
83 
102 
92 
85 
82 
68 
55 
47 
46 
50 
51 
46 
53 
51 
54 
61 
71 
67 
85 
75 
64 
69 
78 
55 
58 
77 
89 
53 
93 
108 
169 
186 
121 
95 
219 
224 
225 
219 
220 
222 
223 
221 
218 
218 
219 
219 
219 
219 
219 
218 
218 
218 
218 
218 
218 
218 
218 
218 
218 
218 
218 
218 
218 
218 
217 
217 
217 
217 
217 
217 
217 
217 
217 
217 
217 
217 
217 
216 
217 
217 
218 
217 
217 
217 
216 
216 
215 
216 
217 
217 
217 
211 
219 
223 
219 
212 
210 
214 
219 
230 
229 
231 
226 
206 
214 
160 
177 
194 
109 
47 
73 
81 
103 
101 
109 
96 
96 
120 
84 
98 
80 
81 
80 
56 
46 
49 
53 
45 
47 
51 
47 
49 
54 
65 
84 
81 
94 
73 
57 
59 
66 
54 
57 
68 
54 
85 
84 
83 
124 
165 
175 
119 
214 
217 
215 
221 
220 
221 
223 
222 
220 
218 
219 
219 
219 
219 
219 
218 
218 
218 
218 
218 
218 
218 
218 
218 
218 
218 
218 
218 
218 
218 
217 
217 
217 
216 
216 
216 
217 
217 
217 
217 
217 
217 
217 
216 
217 
217 
218 
217 
217 
217 
216 
216 
215 
216 
217 
217 
217 
218 
217 
214 
215 
221 
226 
222 
214 
196 
187 
166 
138 
118 
110 
76 
108 
130 
95 
76 
93 
98 
96 
104 
88 
85 
89 
121 
95 
86 
73 
78 
64 
51 
49 
49 
46 
45 
48 
46 
48 
49 
53 
64 
85 
78 
88 
69 
60 
59 
61 
54 
59 
56 
70 
55 
57 
84 
107 
88 
156 
151 
204 
218 
225 
219 
217 
216 
218 
220 
219 
217 
218 
219 
219 
219 
218 
218 
218 
218 
218 
218 
218 
218 
218 
218 
218 
218 
218 
218 
218 
218 
218 
218 
218 
217 
217 
218 
218 
218 
217 
217 
217 
218 
216 
217 
218 
214 
224 
213 
216 
214 
218 
218 
212 
215 
219 
213 
222 
222 
211 
217 
217 
217 
219 
184 
138 
95 
90 
76 
82 
78 
89 
86 
109 
106 
82 
82 
79 
115 
104 
92 
60 
98 
99 
87 
81 
85 
74 
53 
48 
54 
52 
48 
46 
46 
47 
50 
50 
51 
51 
60 
69 
73 
77 
75 
63 
53 
54 
57 
56 
61 
58 
56 
73 
72 
77 
96 
185 
204 
206 
212 
230 
224 
222 
222 
224 
224 
221 
217 
218 
219 
219 
219 
218 
218 
218 
218 
218 
218 
218 
218 
218 
218 
218 
218 
218 
218 
218 
218 
218 
218 
218 
217 
218 
218 
218 
218 
217 
217 
217 
217 
216 
217 
217 
214 
223 
214 
216 
223 
217 
215 
216 
218 
219 
215 
200 
224 
232 
207 
236 
236 
137 
97 
93 
104 
100 
90 
92 
79 
85 
81 
99 
98 
91 
91 
88 
96 
89 
82 
71 
83 
82 
68 
59 
64 
59 
49 
47 
49 
48 
47 
47 
48 
48 
49 
51 
56 
50 
51 
61 
72 
76 
68 
55 
54 
54 
59 
57 
57 
63 
55 
85 
94 
78 
118 
121 
201 
217 
228 
221 
219 
218 
218 
220 
220 
218 
217 
218 
219 
219 
219 
218 
218 
218 
218 
218 
218 
218 
218 
218 
218 
218 
218 
218 
218 
218 
218 
218 
218 
218 
217 
218 
218 
218 
218 
217 
217 
217 
217 
217 
217 
216 
214 
221 
214 
215 
219 
216 
218 
225 
217 
222 
234 
220 
207 
225 
215 
190 
153 
104 
78 
85 
91 
86 
82 
86 
76 
86 
85 
96 
91 
90 
85 
90 
85 
86 
77 
73 
79 
77 
61 
50 
52 
51 
48 
51 
47 
47 
47 
49 
48 
48 
49 
52 
51 
50 
51 
56 
64 
62 
56 
54 
54 
53 
59 
56 
58 
87 
69 
94 
81 
102 
105 
94 
151 
232 
216 
216 
218 
217 
217 
218 
219 
219 
217 
218 
219 
219 
219 
218 
218 
218 
218 
218 
218 
218 
218 
218 
218 
218 
218 
218 
218 
218 
218 
218 
218 
218 
218 
218 
218 
218 
218 
218 
217 
217 
217 
217 
216 
215 
215 
218 
216 
215 
220 
225 
224 
225 
209 
216 
228 
230 
216 
215 
223 
152 
78 
93 
72 
78 
90 
78 
73 
75 
70 
84 
82 
83 
83 
83 
77 
86 
81 
84 
69 
64 
69 
69 
58 
48 
48 
48 
48 
49 
49 
48 
48 
52 
52 
50 
50 
53 
50 
51 
52 
57 
65 
59 
55 
61 
59 
54 
60 
63 
66 
86 
72 
90 
73 
125 
99 
96 
142 
225 
220 
222 
218 
218 
218 
219 
219 
220 
217 
218 
219 
219 
219 
218 
218 
218 
218 
218 
218 
218 
218 
218 
218 
218 
218 
218 
218 
218 
218 
218 
218 
218 
218 
218 
218 
218 
218 
218 
217 
217 
217 
218 
216 
214 
216 
216 
218 
216 
211 
221 
216 
223 
224 
228 
214 
220 
208 
208 
188 
127 
88 
93 
87 
88 
91 
83 
79 
76 
70 
82 
79 
75 
75 
79 
80 
80 
71 
65 
58 
57 
56 
58 
53 
48 
48 
50 
51 
50 
53 
51 
50 
53 
55 
53 
53 
54 
58 
55 
53 
63 
75 
71 
64 
68 
70 
69 
79 
92 
91 
84 
90 
111 
130 
165 
142 
133 
190 
218 
222 
214 
217 
218 
219 
218 
217 
218 
217 
218 
219 
219 
219 
218 
218 
218 
218 
218 
218 
218 
218 
218 
218 
218 
218 
218 
218 
218 
218 
218 
218 
218 
218 
218 
218 
218 
218 
218 
217 
217 
217 
218 
216 
214 
217 
214 
221 
217 
213 
226 
214 
216 
227 
199 
165 
160 
121 
112 
98 
67 
76 
75 
84 
74 
78 
81 
85 
76 
69 
75 
73 
71 
70 
72 
73 
68 
61 
55 
54 
54 
54 
54 
51 
49 
49 
56 
59 
56 
57 
55 
53 
53 
55 
57 
58 
59 
59 
59 
63 
71 
75 
71 
69 
75 
81 
91 
96 
98 
98 
98 
113 
118 
131 
149 
163 
168 
218 
225 
218 
220 
217 
219 
220 
219 
217 
218 
217 
218 
219 
219 
219 
218 
218 
218 
218 
218 
218 
218 
218 
218 
218 
218 
218 
218 
218 
218 
218 
218 
218 
218 
218 
218 
218 
218 
218 
218 
217 
217 
216 
219 
216 
214 
218 
214 
223 
219 
219 
227 
205 
198 
220 
163 
154 
138 
97 
64 
85 
87 
82 
81 
82 
75 
68 
78 
82 
67 
60 
63 
59 
58 
64 
62 
59 
58 
57 
57 
54 
53 
52 
50 
49 
48 
50 
59 
62 
56 
60 
62 
60 
56 
55 
61 
67 
69 
63 
67 
76 
79 
72 
67 
72 
79 
83 
90 
88 
83 
84 
108 
122 
125 
171 
179 
213 
208 
230 
225 
219 
222 
217 
220 
222 
220 
219 
220 
217 
218 
219 
219 
219 
218 
218 
218 
218 
218 
218 
218 
218 
218 
218 
218 
218 
218 
218 
218 
218 
218 
218 
218 
218 
218 
218 
218 
218 
218 
218 
217 
216 
219 
216 
213 
219 
213 
225 
220 
222 
214 
172 
153 
187 
114 
136 
110 
82 
78 
90 
93 
60 
84 
91 
79 
58 
69 
71 
55 
56 
62 
58 
58 
58 
59 
55 
58 
52 
56 
52 
53 
52 
50 
50 
51 
56 
68 
70 
62 
61 
67 
66 
58 
56 
64 
74 
78 
79 
77 
83 
86 
79 
76 
80 
80 
82 
74 
81 
97 
99 
132 
155 
194 
229 
238 
234 
235 
209 
225 
215 
216 
216 
220 
222 
220 
219 
220 
218 
218 
218 
218 
218 
218 
218 
218 
218 
218 
218 
218 
218 
218 
219 
219 
215 
221 
219 
219 
220 
216 
218 
219 
218 
218 
223 
215 
218 
215 
217 
219 
221 
210 
218 
222 
211 
213 
222 
218 
218 
199 
134 
107 
145 
142 
138 
92 
76 
71 
84 
90 
61 
66 
91 
76 
58 
61 
64 
57 
65 
62 
62 
60 
57 
60 
58 
54 
62 
53 
53 
52 
51 
54 
57 
59 
63 
78 
66 
68 
68 
78 
73 
71 
56 
58 
66 
73 
74 
84 
84 
90 
87 
73 
82 
89 
81 
85 
99 
137 
176 
212 
224 
227 
195 
168 
167 
219 
213 
225 
216 
218 
219 
220 
220 
220 
220 
220 
218 
218 
218 
218 
218 
218 
218 
218 
218 
218 
218 
218 
218 
218 
219 
219 
217 
219 
216 
216 
216 
219 
218 
224 
211 
212 
223 
215 
227 
214 
219 
225 
204 
223 
225 
226 
213 
218 
190 
196 
162 
165 
104 
106 
128 
151 
134 
96 
98 
81 
78 
64 
54 
54 
69 
63 
66 
63 
59 
59 
71 
71 
64 
58 
78 
72 
57 
55 
63 
56 
54 
53 
53 
53 
62 
69 
64 
78 
72 
67 
64 
53 
51 
60 
65 
55 
57 
60 
78 
88 
81 
79 
80 
80 
95 
100 
118 
147 
197 
218 
230 
208 
201 
192 
186 
177 
190 
221 
217 
218 
217 
217 
219 
220 
220 
220 
220 
220 
218 
218 
218 
218 
218 
218 
218 
218 
218 
218 
218 
218 
218 
218 
219 
219 
219 
218 
216 
216 
213 
224 
214 
224 
216 
228 
226 
197 
226 
232 
227 
200 
233 
215 
218 
191 
233 
200 
168 
152 
104 
127 
84 
102 
95 
114 
93 
76 
84 
70 
73 
54 
64 
58 
56 
55 
58 
60 
58 
65 
72 
76 
70 
68 
78 
71 
55 
54 
56 
57 
59 
63 
60 
57 
75 
82 
66 
74 
76 
67 
65 
69 
66 
56 
57 
56 
72 
75 
88 
72 
60 
80 
78 
75 
133 
202 
222 
225 
210 
210 
206 
226 
220 
216 
218 
216 
227 
225 
223 
215 
221 
218 
219 
220 
220 
220 
220 
220 
218 
218 
218 
218 
218 
218 
218 
218 
218 
218 
218 
218 
218 
218 
219 
219 
219 
217 
218 
220 
214 
228 
208 
218 
214 
221 
222 
211 
220 
206 
214 
221 
214 
225 
214 
160 
172 
166 
152 
131 
86 
98 
71 
96 
102 
108 
91 
75 
77 
67 
76 
53 
61 
64 
54 
55 
55 
63 
63 
68 
69 
79 
75 
76 
71 
76 
64 
63 
56 
62 
73 
84 
80 
80 
90 
87 
68 
66 
68 
62 
55 
55 
55 
60 
69 
65 
72 
71 
84 
90 
100 
141 
158 
164 
197 
232 
226 
214 
214 
218 
225 
215 
215 
217 
224 
222 
224 
212 
219 
214 
221 
218 
219 
220 
220 
220 
220 
220 
218 
218 
218 
218 
218 
218 
218 
218 
218 
218 
218 
218 
218 
218 
219 
219 
219 
217 
218 
221 
215 
228 
206 
215 
224 
225 
218 
220 
222 
219 
224 
223 
156 
183 
180 
133 
125 
91 
91 
95 
54 
67 
56 
72 
83 
85 
80 
66 
81 
73 
86 
68 
66 
84 
68 
61 
65 
74 
68 
66 
66 
78 
72 
68 
67 
81 
77 
73 
57 
64 
77 
84 
85 
91 
84 
72 
70 
66 
63 
63 
62 
68 
68 
82 
89 
94 
91 
85 
111 
150 
173 
203 
216 
224 
221 
210 
211 
219 
228 
221 
217 
212 
219 
222 
215 
216 
216 
214 
223 
220 
219 
217 
219 
220 
220 
220 
220 
220 
218 
218 
218 
218 
218 
218 
218 
218 
218 
218 
218 
218 
218 
218 
219 
219 
219 
218 
216 
218 
215 
224 
210 
217 
221 
211 
210 
232 
216 
210 
220 
219 
180 
190 
155 
110 
92 
83 
62 
56 
55 
80 
75 
75 
67 
69 
69 
58 
77 
68 
82 
73 
71 
93 
77 
61 
66 
77 
73 
62 
57 
64 
66 
67 
63 
71 
70 
70 
64 
71 
80 
77 
88 
96 
73 
55 
67 
63 
57 
58 
62 
89 
93 
93 
85 
104 
120 
125 
172 
205 
213 
225 
209 
205 
214 
225 
223 
228 
216 
216 
211 
231 
224 
218 
220 
222 
221 
223 
224 
219 
216 
220 
219 
220 
220 
220 
220 
220 
218 
218 
218 
218 
218 
218 
218 
218 
218 
218 
218 
218 
218 
218 
219 
219 
218 
219 
215 
216 
217 
219 
215 
218 
222 
212 
215 
223 
204 
213 
226 
188 
175 
113 
139 
121 
117 
77 
80 
75 
80 
86 
80 
82 
86 
82 
75 
57 
80 
68 
74 
60 
61 
70 
62 
56 
59 
67 
69 
57 
53 
54 
68 
81 
72 
66 
66 
74 
82 
85 
91 
81 
89 
104 
81 
55 
66 
62 
65 
68 
83 
94 
114 
146 
158 
157 
168 
180 
209 
230 
223 
232 
221 
223 
222 
221 
220 
203 
210 
218 
232 
212 
214 
217 
216 
214 
215 
215 
214 
211 
215 
220 
219 
220 
220 
220 
220 
220 
218 
218 
218 
218 
218 
218 
218 
218 
218 
218 
218 
218 
218 
218 
219 
219 
216 
220 
216 
216 
220 
216 
216 
216 
222 
200 
218 
226 
170 
137 
169 
159 
206 
96 
133 
132 
68 
62 
85 
93 
82 
73 
78 
83 
98 
72 
72 
60 
71 
70 
86 
74 
80 
67 
58 
57 
62 
58 
58 
53 
61 
60 
76 
91 
87 
69 
67 
78 
91 
87 
91 
79 
65 
93 
86 
65 
76 
82 
104 
115 
129 
144 
176 
209 
231 
229 
230 
222 
227 
223 
200 
219 
220 
220 
213 
213 
214 
223 
221 
217 
212 
223 
224 
223 
228 
223 
226 
221 
222 
216 
221 
218 
219 
220 
220 
220 
220 
220 
219 
219 
218 
218 
218 
218 
218 
219 
219 
218 
218 
218 
218 
219 
219 
219 
220 
218 
215 
220 
215 
213 
225 
209 
215 
215 
215 
226 
142 
109 
103 
125 
203 
115 
87 
129 
64 
62 
89 
89 
77 
78 
103 
89 
72 
103 
92 
68 
71 
64 
70 
64 
70 
65 
61 
58 
57 
57 
56 
57 
65 
69 
68 
71 
81 
83 
79 
87 
88 
105 
130 
101 
75 
113 
119 
95 
94 
123 
116 
117 
157 
211 
237 
223 
208 
219 
222 
208 
220 
220 
219 
218 
218 
218 
219 
219 
223 
220 
217 
217 
220 
220 
218 
215 
214 
216 
218 
220 
221 
220 
218 
217 
219 
219 
219 
219 
220 
220 
219 
218 
218 
218 
218 
218 
218 
219 
217 
217 
217 
218 
218 
218 
218 
218 
223 
218 
212 
216 
216 
217 
220 
208 
234 
230 
215 
212 
147 
139 
123 
113 
176 
118 
76 
61 
88 
87 
101 
101 
72 
89 
83 
81 
80 
92 
85 
72 
64 
60 
69 
67 
72 
66 
63 
63 
69 
59 
60 
75 
83 
90 
61 
91 
65 
69 
91 
64 
83 
64 
90 
101 
134 
163 
148 
124 
148 
177 
190 
198 
209 
215 
221 
223 
222 
220 
218 
217 
219 
219 
218 
218 
217 
218 
218 
218 
221 
219 
217 
217 
219 
220 
219 
217 
217 
218 
219 
220 
220 
220 
220 
219 
220 
219 
219 
219 
220 
220 
218 
218 
218 
218 
218 
218 
218 
218 
217 
217 
218 
218 
218 
218 
218 
218 
216 
217 
218 
225 
225 
223 
219 
201 
229 
167 
173 
136 
94 
174 
134 
173 
146 
187 
60 
110 
151 
94 
111 
90 
82 
93 
84 
75 
80 
77 
78 
77 
73 
62 
62 
57 
60 
58 
58 
62 
60 
58 
59 
64 
67 
86 
73 
93 
96 
78 
79 
74 
112 
128 
159 
165 
192 
222 
209 
192 
221 
223 
225 
222 
229 
224 
220 
219 
219 
218 
219 
220 
217 
217 
217 
217 
217 
217 
218 
218 
218 
218 
217 
218 
219 
220 
220 
219 
219 
219 
219 
219 
220 
220 
221 
221 
220 
220 
220 
220 
220 
220 
218 
218 
217 
217 
217 
218 
218 
218 
218 
218 
219 
219 
219 
219 
219 
219 
215 
214 
215 
214 
212 
211 
221 
188 
162 
131 
100 
62 
94 
173 
122 
137 
115 
189 
94 
145 
177 
72 
82 
62 
77 
66 
83 
63 
65 
66 
77 
80 
82 
65 
57 
54 
56 
58 
55 
58 
59 
66 
72 
82 
92 
94 
98 
64 
89 
124 
86 
98 
154 
182 
195 
198 
212 
233 
227 
216 
227 
222 
221 
220 
219 
225 
225 
218 
215 
218 
219 
216 
217 
217 
217 
217 
217 
218 
218 
218 
217 
218 
218 
218 
218 
219 
220 
220 
220 
220 
219 
219 
219 
220 
221 
221 
220 
220 
220 
220 
220 
220 
217 
217 
217 
217 
217 
218 
218 
218 
218 
218 
219 
219 
219 
219 
220 
220 
213 
214 
222 
222 
220 
220 
225 
167 
138 
165 
130 
55 
163 
162 
121 
100 
102 
181 
118 
116 
133 
73 
76 
73 
75 
67 
74 
64 
59 
68 
71 
70 
69 
61 
60 
62 
66 
68 
61 
62 
69 
68 
59 
63 
71 
65 
94 
88 
111 
110 
87 
155 
210 
213 
220 
226 
218 
219 
221 
217 
210 
220 
219 
225 
221 
217 
217 
222 
224 
220 
217 
217 
217 
217 
217 
218 
218 
218 
218 
218 
217 
218 
219 
218 
218 
218 
219 
220 
219 
219 
219 
219 
219 
219 
219 
219 
219 
219 
219 
219 
220 
220 
217 
217 
217 
217 
217 
217 
218 
218 
218 
217 
217 
217 
218 
218 
219 
219 
224 
224 
232 
225 
210 
207 
170 
105 
135 
93 
130 
44 
162 
121 
133 
154 
109 
182 
82 
81 
59 
69 
68 
81 
73 
88 
57 
73 
68 
79 
68 
63 
55 
57 
61 
63 
62 
69 
64 
67 
62 
72 
65 
65 
68 
68 
73 
89 
151 
123 
132 
216 
214 
222 
220 
220 
221 
212 
224 
231 
218 
229 
220 
218 
224 
218 
217 
222 
223 
218 
216 
219 
218 
218 
218 
219 
219 
219 
218 
218 
218 
218 
218 
218 
218 
218 
218 
219 
218 
219 
219 
219 
219 
219 
218 
218 
219 
219 
219 
219 
219 
220 
217 
217 
216 
217 
217 
217 
218 
218 
218 
218 
217 
217 
217 
218 
220 
220 
221 
219 
218 
202 
184 
212 
151 
136 
166 
82 
103 
84 
136 
85 
124 
135 
125 
132 
84 
73 
53 
68 
56 
83 
69 
79 
52 
73 
68 
81 
76 
70 
61 
61 
57 
55 
54 
68 
66 
68 
72 
76 
67 
67 
77 
100 
111 
88 
128 
208 
215 
226 
213 
226 
216 
225 
219 
212 
218 
223 
220 
222 
222 
219 
217 
222 
224 
221 
217 
216 
217 
219 
218 
218 
219 
219 
219 
218 
218 
217 
218 
218 
218 
218 
218 
218 
219 
219 
219 
219 
219 
219 
219 
219 
218 
218 
218 
218 
218 
218 
219 
219 
216 
216 
216 
216 
217 
217 
218 
218 
220 
219 
218 
217 
218 
219 
221 
222 
212 
213 
210 
185 
161 
210 
131 
165 
113 
101 
81 
100 
87 
73 
80 
69 
103 
65 
88 
88 
74 
69 
64 
82 
92 
70 
69 
76 
61 
73 
79 
71 
73 
68 
57 
55 
56 
77 
70 
66 
68 
67 
72 
79 
82 
119 
203 
163 
181 
238 
212 
199 
242 
222 
227 
222 
225 
226 
221 
220 
222 
209 
219 
217 
217 
218 
222 
225 
223 
219 
217 
218 
218 
218 
219 
219 
219 
218 
217 
217 
218 
217 
217 
217 
218 
219 
219 
219 
220 
220 
219 
219 
218 
219 
219 
219 
218 
218 
218 
218 
218 
219 
215 
216 
216 
216 
215 
217 
218 
218 
219 
214 
216 
219 
215 
218 
212 
217 
211 
216 
213 
196 
165 
177 
150 
127 
49 
98 
91 
80 
54 
74 
55 
76 
88 
72 
55 
95 
62 
77 
61 
68 
92 
73 
69 
72 
63 
55 
65 
65 
65 
72 
55 
56 
63 
71 
58 
69 
81 
105 
126 
148 
167 
217 
203 
218 
238 
216 
219 
227 
214 
208 
215 
211 
221 
220 
219 
218 
219 
220 
222 
223 
222 
221 
220 
219 
218 
218 
217 
217 
218 
219 
219 
220 
220 
219 
219 
218 
219 
219 
219 
219 
219 
219 
219 
219 
219 
219 
219 
219 
219 
218 
218 
218 
218 
218 
218 
218 
218 
219 
218 
215 
214 
218 
220 
220 
217 
216 
225 
234 
204 
221 
218 
210 
215 
207 
106 
187 
235 
196 
202 
164 
200 
159 
135 
157 
73 
71 
69 
67 
67 
85 
64 
69 
54 
73 
65 
62 
64 
68 
90 
66 
52 
51 
65 
71 
50 
64 
59 
53 
72 
58 
93 
80 
85 
82 
105 
147 
167 
186 
204 
225 
214 
216 
226 
213 
216 
222 
216 
217 
223 
218 
221 
220 
219 
219 
219 
220 
221 
222 
221 
221 
220 
219 
219 
218 
218 
218 
218 
219 
220 
220 
220 
220 
219 
218 
219 
219 
219 
219 
219 
219 
219 
219 
219 
219 
219 
219 
219 
218 
218 
218 
218 
218 
218 
218 
218 
219 
220 
215 
214 
218 
220 
218 
217 
218 
208 
220 
198 
234 
207 
178 
203 
206 
176 
223 
199 
126 
163 
75 
161 
153 
125 
112 
104 
108 
73 
85 
81 
79 
58 
73 
81 
76 
65 
78 
73 
64 
52 
65 
84 
69 
61 
51 
75 
71 
67 
55 
84 
78 
75 
65 
86 
125 
171 
209 
205 
208 
217 
216 
223 
223 
218 
216 
218 
219 
217 
222 
224 
218 
220 
220 
220 
220 
220 
220 
221 
221 
221 
220 
220 
219 
219 
219 
219 
219 
219 
219 
220 
220 
220 
220 
219 
219 
219 
219 
219 
219 
219 
219 
219 
219 
219 
219 
219 
219 
219 
218 
218 
218 
218 
218 
218 
218 
218 
219 
217 
217 
217 
216 
214 
215 
218 
221 
214 
220 
208 
215 
180 
184 
224 
213 
213 
226 
121 
91 
165 
104 
127 
87 
102 
92 
96 
93 
68 
99 
105 
81 
72 
64 
85 
73 
60 
76 
84 
54 
56 
73 
63 
51 
78 
69 
104 
110 
89 
96 
96 
120 
104 
132 
139 
179 
211 
229 
220 
224 
221 
214 
221 
216 
218 
221 
220 
217 
219 
221 
219 
216 
219 
220 
220 
220 
221 
221 
221 
221 
221 
220 
220 
219 
219 
219 
219 
219 
219 
220 
220 
220 
220 
220 
220 
219 
219 
219 
219 
219 
219 
219 
219 
219 
219 
219 
219 
219 
219 
218 
218 
218 
218 
218 
218 
218 
218 
219 
215 
218 
218 
214 
213 
217 
219 
218 
211 
217 
208 
214 
189 
174 
210 
221 
187 
201 
106 
163 
184 
133 
135 
107 
107 
74 
61 
69 
86 
118 
116 
82 
67 
60 
89 
76 
56 
54 
85 
76 
71 
83 
76 
75 
83 
120 
106 
110 
94 
85 
70 
150 
193 
216 
198 
213 
222 
215 
214 
229 
219 
223 
221 
216 
218 
220 
218 
217 
221 
220 
218 
221 
219 
219 
220 
221 
221 
221 
221 
220 
221 
221 
220 
219 
219 
219 
219 
219 
219 
219 
220 
220 
220 
220 
219 
219 
219 
219 
219 
219 
219 
219 
219 
219 
219 
219 
219 
219 
219 
218 
218 
218 
218 
218 
218 
218 
218 
219 
217 
217 
216 
215 
217 
220 
217 
211 
207 
220 
202 
238 
225 
163 
177 
226 
207 
214 
147 
198 
155 
131 
153 
121 
93 
110 
112 
94 
99 
109 
104 
60 
62 
71 
106 
95 
70 
120 
79 
96 
93 
88 
101 
118 
89 
120 
119 
116 
154 
150 
125 
192 
227 
231 
216 
232 
235 
212 
211 
224 
213 
224 
220 
221 
220 
219 
217 
218 
221 
218 
218 
223 
219 
220 
220 
220 
221 
221 
221 
221 
221 
221 
220 
220 
219 
219 
219 
219 
219 
219 
219 
219 
219 
219 
219 
219 
219 
219 
219 
219 
219 
219 
219 
219 
219 
219 
219 
219 
219 
218 
218 
218 
218 
218 
218 
218 
218 
219 
218 
215 
215 
216 
215 
210 
210 
213 
212 
217 
182 
198 
188 
170 
154 
180 
223 
202 
185 
182 
135 
125 
149 
172 
133 
115 
58 
99 
149 
93 
100 
98 
89 
81 
91 
99 
97 
191 
111 
111 
141 
91 
73 
114 
123 
134 
150 
179 
212 
237 
221 
215 
202 
215 
215 
216 
226 
218 
221 
222 
221 
221 
214 
216 
221 
219 
219 
220 
219 
218 
219 
221 
220 
220 
220 
220 
220 
221 
221 
221 
220 
220 
220 
220 
219 
219 
220 
220 
219 
219 
219 
218 
218 
219 
219 
219 
219 
219 
219 
219 
219 
219 
219 
219 
219 
219 
219 
219 
219 
218 
218 
218 
218 
218 
218 
218 
218 
219 
218 
214 
215 
217 
207 
196 
203 
219 
221 
205 
189 
186 
145 
166 
130 
144 
198 
192 
229 
169 
170 
190 
136 
144 
131 
74 
68 
99 
109 
70 
98 
121 
114 
93 
79 
100 
112 
177 
174 
166 
141 
99 
128 
164 
139 
193 
188 
197 
205 
208 
223 
215 
225 
219 
224 
216 
211 
220 
221 
212 
224 
217 
218 
224 
218 
218 
220 
220 
218 
220 
222 
220 
220 
220 
220 
220 
220 
221 
221 
221 
220 
220 
219 
219 
220 
220 
220 
221 
219 
218 
218 
218 
218 
218 
218 
219 
219 
219 
219 
219 
219 
219 
219 
219 
219 
219 
219 
219 
219 
218 
218 
218 
218 
218 
218 
218 
218 
219 
214 
217 
216 
217 
211 
212 
208 
224 
209 
208 
212 
220 
174 
211 
150 
157 
159 
189 
224 
138 
174 
164 
137 
157 
139 
52 
97 
121 
47 
75 
76 
96 
103 
129 
110 
106 
101 
157 
156 
163 
175 
181 
185 
194 
202 
199 
204 
223 
229 
215 
228 
205 
233 
213 
228 
216 
216 
224 
226 
219 
216 
220 
222 
219 
219 
219 
219 
218 
219 
221 
221 
220 
219 
219 
220 
220 
221 
220 
220 
220 
220 
220 
220 
220 
220 
220 
220 
220 
219 
219 
219 
219 
218 
218 
218 
219 
219 
219 
220 
220 
220 
220 
219 
219 
219 
219 
219 
219 
219 
219 
219 
219 
219 
219 
219 
219 
219 
219 
216 
217 
216 
218 
213 
211 
222 
217 
211 
220 
218 
217 
213 
222 
216 
152 
181 
215 
197 
197 
198 
185 
177 
178 
135 
117 
154 
112 
105 
87 
58 
116 
148 
119 
121 
137 
115 
156 
194 
185 
177 
199 
206 
205 
214 
219 
218 
223 
222 
219 
221 
217 
222 
219 
221 
218 
217 
222 
224 
219 
216 
219 
220 
218 
219 
219 
219 
218 
219 
221 
221 
220 
219 
219 
220 
220 
221 
220 
220 
220 
220 
220 
220 
220 
220 
220 
220 
220 
219 
219 
220 
219 
218 
218 
218 
219 
219 
219 
220 
220 
220 
220 
219 
219 
219 
219 
219 
219 
219 
219 
219 
219 
219 
219 
219 
219 
219 
219 
218 
217 
216 
218 
216 
212 
233 
210 
238 
192 
202 
201 
217 
206 
230 
188 
208 
207 
184 
190 
216 
196 
187 
201 
128 
155 
188 
186 
176 
79 
88 
110 
128 
90 
101 
130 
133 
132 
172 
171 
169 
200 
209 
205 
217 
223 
217 
216 
217 
221 
219 
224 
216 
220 
216 
219 
218 
220 
220 
218 
218 
218 
219 
218 
219 
219 
219 
218 
219 
221 
221 
220 
219 
219 
220 
220 
221 
220 
220 
220 
220 
220 
220 
220 
220 
220 
220 
220 
219 
219 
220 
219 
219 
218 
218 
219 
219 
219 
220 
220 
220 
220 
219 
219 
219 
219 
219 
219 
219 
219 
219 
219 
219 
219 
219 
219 
219 
219 
218 
217 
216 
219 
217 
215 
228 
211 
179 
175 
215 
211 
187 
187 
215 
214 
212 
189 
166 
177 
225 
195 
134 
190 
169 
220 
168 
197 
202 
89 
133 
175 
169 
154 
148 
162 
186 
154 
172 
185 
182 
204 
210 
212 
224 
221 
213 
219 
217 
218 
222 
220 
220 
216 
218 
218 
220 
218 
218 
219 
219 
218 
218 
218 
219 
219 
219 
218 
219 
221 
221 
220 
219 
219 
220 
220 
221 
220 
220 
220 
220 
220 
220 
220 
220 
220 
220 
220 
219 
220 
220 
219 
219 
218 
218 
219 
219 
219 
220 
220 
220 
220 
219 
219 
219 
219 
219 
219 
219 
219 
219 
219 
219 
219 
219 
219 
219 
219 
217 
218 
215 
218 
217 
219 
213 
215 
142 
192 
199 
226 
190 
196 
223 
212 
212 
209 
190 
203 
230 
159 
123 
203 
190 
206 
174 
186 
148 
107 
169 
208 
215 
209 
193 
188 
197 
183 
204 
209 
209 
220 
219 
220 
226 
219 
213 
222 
219 
217 
223 
217 
223 
216 
221 
218 
221 
218 
217 
219 
220 
219 
218 
219 
219 
219 
219 
218 
219 
221 
221 
220 
219 
219 
220 
220 
221 
220 
220 
220 
220 
220 
220 
220 
220 
220 
220 
220 
220 
220 
220 
220 
219 
218 
218 
219 
219 
219 
220 
220 
220 
220 
219 
219 
219 
219 
219 
219 
219 
219 
219 
219 
219 
219 
219 
219 
219 
219 
216 
218 
215 
217 
216 
220 
207 
217 
199 
209 
172 
206 
198 
214 
220 
211 
210 
219 
219 
213 
217 
166 
166 
212 
193 
198 
202 
206 
187 
174 
195 
211 
203 
214 
204 
194 
198 
207 
224 
221 
218 
224 
221 
216 
217 
216 
215 
219 
220 
220 
219 
220 
220 
220 
220 
219 
220 
219 
218 
219 
220 
219 
219 
219 
219 
219 
219 
218 
219 
221 
221 
220 
219 
219 
220 
220 
221 
220 
220 
220 
220 
220 
220 
220 
220 
220 
220 
220 
220 
220 
220 
220 
219 
218 
218 
219 
219 
219 
220 
220 
220 
220 
219 
219 
219 
219 
219 
219 
219 
219 
219 
219 
219 
219 
219 
219 
219 
219 
216 
218 
216 
217 
216 
218 
218 
212 
223 
215 
209 
193 
179 
228 
208 
216 
198 
207 
207 
216 
206 
220 
200 
196 
223 
207 
203 
210 
224 
220 
221 
208 
197 
222 
218 
206 
214 
223 
219 
218 
220 
220 
221 
218 
216 
218 
221 
220 
219 
220 
219 
221 
219 
221 
219 
219 
218 
220 
220 
219 
219 
219 
220 
219 
219 
219 
219 
218 
219 
221 
221 
220 
219 
219 
220 
220 
221 
220 
220 
220 
220 
220 
220 
220 
220 
220 
220 
220 
220 
220 
221 
220 
219 
218 
218 
219 
219 
219 
220 
220 
220 
220 
219 
219 
219 
219 
219 
219 
219 
219 
219 
219 
219 
219 
219 
219 
219 
219 
217 
218 
217 
218 
216 
215 
231 
206 
221 
210 
232 
199 
173 
234 
211 
234 
200 
211 
222 
220 
220 
209 
232 
228 
213 
201 
235 
228 
202 
209 
216 
200 
208 
220 
222 
209 
211 
220 
218 
216 
223 
216 
220 
224 
218 
216 
219 
219 
217 
218 
222 
219 
222 
217 
220 
219 
217 
220 
220 
218 
217 
219 
220 
218 
219 
219 
219 
218 
219 
221 
221 
220 
219 
219 
220 
220 
221 
220 
220 
220 
220 
220 
220 
220 
220 
220 
220 
220 
220 
221 
221 
220 
219 
218 
218 
219 
219 
219 
220 
220 
220 
220 
219 
219 
219 
219 
219 
219 
219 
219 
219 
219 
219 
219 
219 
219 
219 
219 
217 
217 
217 
217 
217 
217 
217 
217 
219 
222 
212 
215 
231 
222 
208 
216 
187 
203 
216 
218 
218 
220 
216 
209 
228 
223 
217 
215 
219 
222 
220 
216 
224 
219 
214 
215 
218 
220 
217 
214 
215 
215 
216 
217 
218 
218 
218 
218 
219 
220 
220 
220 
219 
219 
218 
218 
218 
218 
218 
218 
218 
218 
219 
219 
219 
219 
219 
219 
219 
219 
219 
219 
219 
219 
220 
220 
220 
220 
220 
220 
220 
220 
220 
220 
220 
220 
220 
220 
220 
220 
220 
220 
220 
219 
219 
218 
219 
219 
219 
219 
219 
219 
219 
219 
219 
219 
219 
219 
219 
219 
219 
219 
219 
219 
219 
219 
219 
219 
218 
218 
218 
218 
218 
218 
218 
218 
218 
221 
214 
215 
226 
220 
212 
219 
213 
219 
221 
216 
214 
217 
219 
217 
221 
220 
218 
217 
218 
221 
221 
218 
220 
218 
216 
216 
217 
218 
218 
217 
218 
218 
219 
219 
219 
219 
219 
219 
219 
219 
220 
219 
219 
219 
218 
218 
218 
218 
218 
218 
218 
218 
219 
219 
219 
219 
219 
219 
219 
219 
219 
219 
219 
219 
220 
220 
220 
220 
220 
220 
220 
220 
220 
220 
220 
220 
220 
220 
220 
220 
220 
220 
220 
219 
219 
218 
219 
219 
219 
219 
219 
219 
219 
219 
219 
219 
219 
219 
219 
219 
219 
219 
219 
219 
219 
219 
219 
219 
