P2
# Created by MsrVolt
131 69
255
201 
201 
200 
199 
201 
206 
209 
209 
206 
202 
201 
204 
206 
207 
207 
207 
205 
204 
205 
205 
201 
201 
204 
202 
206 
209 
210 
207 
205 
205 
206 
207 
204 
201 
199 
201 
203 
205 
207 
210 
211 
207 
205 
206 
208 
207 
206 
207 
210 
210 
205 
201 
206 
210 
210 
210 
210 
208 
205 
204 
205 
206 
208 
208 
203 
203 
202 
202 
205 
209 
209 
206 
202 
201 
203 
208 
211 
211 
209 
209 
204 
204 
204 
204 
205 
204 
203 
203 
203 
203 
204 
205 
206 
205 
202 
199 
200 
206 
204 
203 
206 
199 
196 
206 
210 
200 
202 
209 
209 
207 
207 
205 
202 
207 
206 
207 
205 
211 
204 
199 
196 
218 
204 
203 
202 
213 
199 
219 
205 
216 
214 
203 
202 
201 
203 
207 
212 
212 
209 
205 
203 
203 
206 
207 
207 
206 
206 
205 
203 
204 
204 
199 
199 
202 
201 
202 
205 
206 
204 
203 
205 
208 
209 
205 
202 
200 
201 
202 
203 
205 
208 
209 
206 
204 
204 
204 
203 
204 
206 
207 
210 
206 
203 
206 
208 
207 
209 
208 
206 
204 
203 
203 
205 
207 
208 
204 
204 
204 
203 
205 
208 
208 
206 
203 
201 
200 
204 
206 
206 
205 
206 
207 
206 
205 
204 
204 
204 
204 
203 
204 
204 
205 
206 
206 
206 
204 
203 
206 
209 
206 
205 
208 
202 
195 
197 
198 
201 
207 
204 
210 
199 
201 
206 
201 
200 
202 
207 
155 
180 
180 
221 
230 
187 
215 
213 
192 
210 
192 
218 
207 
214 
209 
205 
203 
202 
205 
211 
215 
211 
206 
203 
203 
205 
207 
207 
206 
205 
205 
203 
202 
203 
203 
199 
200 
204 
203 
202 
204 
204 
202 
201 
205 
208 
210 
206 
202 
200 
200 
201 
202 
203 
206 
207 
206 
204 
203 
201 
200 
202 
205 
205 
208 
206 
204 
206 
206 
205 
207 
206 
205 
203 
202 
202 
203 
206 
208 
205 
206 
206 
205 
205 
207 
207 
206 
204 
201 
199 
199 
201 
202 
203 
204 
208 
206 
204 
203 
204 
205 
207 
207 
209 
208 
208 
207 
207 
207 
206 
206 
204 
204 
204 
206 
212 
213 
209 
204 
203 
207 
214 
206 
213 
187 
188 
202 
201 
205 
207 
190 
136 
157 
169 
154 
221 
169 
143 
211 
203 
212 
202 
215 
211 
213 
203 
207 
204 
203 
205 
209 
211 
208 
203 
203 
204 
205 
206 
205 
204 
204 
205 
202 
200 
203 
204 
201 
204 
208 
208 
207 
207 
205 
201 
201 
203 
206 
207 
204 
202 
200 
201 
202 
202 
203 
205 
206 
206 
205 
204 
204 
203 
203 
204 
204 
206 
204 
204 
208 
208 
206 
207 
205 
205 
203 
202 
201 
202 
205 
208 
206 
207 
207 
206 
206 
206 
207 
208 
206 
203 
199 
197 
198 
200 
203 
205 
205 
203 
202 
201 
203 
207 
209 
211 
212 
211 
210 
208 
207 
206 
206 
207 
202 
199 
200 
202 
206 
210 
207 
198 
204 
204 
210 
204 
191 
166 
178 
205 
202 
214 
203 
181 
187 
145 
82 
89 
146 
189 
138 
137 
199 
213 
208 
214 
216 
214 
202 
206 
204 
202 
202 
203 
204 
205 
205 
207 
208 
207 
205 
204 
204 
204 
205 
201 
200 
203 
204 
202 
205 
209 
209 
209 
208 
205 
201 
201 
202 
203 
202 
202 
200 
200 
202 
204 
204 
204 
205 
205 
205 
205 
207 
208 
209 
207 
204 
204 
204 
201 
203 
209 
210 
207 
207 
205 
205 
204 
203 
202 
204 
206 
208 
206 
206 
207 
207 
207 
206 
207 
209 
208 
205 
201 
198 
198 
200 
203 
204 
205 
203 
201 
201 
203 
205 
208 
209 
210 
209 
208 
206 
205 
205 
205 
205 
202 
200 
202 
205 
207 
208 
206 
199 
204 
201 
199 
188 
154 
158 
187 
212 
200 
178 
184 
175 
168 
160 
63 
126 
118 
135 
206 
134 
172 
180 
209 
206 
216 
215 
205 
204 
203 
202 
201 
200 
201 
204 
208 
212 
211 
209 
205 
204 
205 
205 
205 
202 
201 
204 
205 
201 
202 
205 
205 
205 
205 
203 
201 
201 
203 
202 
200 
200 
200 
202 
205 
207 
205 
204 
204 
203 
204 
205 
207 
210 
211 
208 
204 
203 
202 
199 
203 
211 
211 
207 
206 
205 
204 
203 
203 
205 
207 
208 
208 
206 
205 
205 
206 
206 
206 
206 
207 
208 
207 
204 
200 
199 
201 
202 
203 
207 
206 
204 
203 
204 
204 
204 
204 
205 
204 
203 
204 
205 
206 
204 
203 
203 
203 
204 
205 
204 
198 
193 
191 
180 
173 
161 
157 
144 
185 
205 
196 
162 
118 
138 
152 
121 
166 
136 
148 
188 
125 
185 
205 
151 
143 
216 
207 
211 
215 
209 
203 
202 
201 
201 
200 
200 
203 
207 
211 
210 
207 
204 
204 
207 
207 
206 
203 
202 
205 
205 
201 
200 
202 
200 
201 
201 
201 
202 
204 
206 
204 
200 
200 
201 
205 
209 
210 
207 
203 
201 
199 
201 
203 
205 
207 
208 
207 
203 
200 
200 
199 
204 
211 
210 
205 
205 
203 
201 
201 
204 
208 
210 
210 
209 
206 
204 
202 
204 
205 
204 
203 
204 
205 
207 
206 
203 
203 
204 
205 
204 
208 
207 
207 
207 
207 
206 
204 
203 
202 
202 
202 
205 
208 
208 
205 
201 
206 
201 
190 
180 
172 
155 
144 
147 
137 
131 
128 
144 
167 
204 
182 
131 
95 
92 
102 
150 
161 
143 
149 
134 
198 
193 
137 
165 
121 
117 
205 
216 
205 
216 
216 
202 
201 
201 
202 
201 
199 
200 
203 
206 
205 
203 
201 
204 
208 
209 
207 
204 
203 
206 
206 
201 
200 
201 
199 
199 
200 
202 
204 
207 
209 
206 
201 
201 
203 
207 
211 
212 
207 
202 
199 
196 
200 
202 
202 
202 
204 
204 
203 
197 
199 
201 
206 
211 
208 
203 
204 
201 
199 
199 
203 
209 
212 
212 
210 
207 
203 
201 
203 
204 
203 
201 
201 
203 
206 
207 
206 
206 
208 
209 
208 
205 
206 
207 
209 
210 
210 
208 
206 
204 
203 
204 
208 
212 
211 
206 
201 
201 
192 
170 
154 
143 
123 
112 
121 
134 
136 
146 
172 
199 
192 
125 
52 
60 
90 
116 
173 
189 
143 
164 
160 
97 
152 
152 
80 
84 
77 
184 
210 
203 
220 
225 
202 
202 
202 
201 
201 
200 
199 
199 
198 
202 
205 
204 
203 
206 
207 
207 
200 
203 
208 
209 
205 
201 
201 
205 
203 
201 
200 
201 
204 
206 
205 
203 
204 
208 
208 
206 
206 
202 
200 
203 
205 
208 
209 
207 
204 
203 
202 
201 
203 
205 
207 
208 
207 
205 
205 
205 
212 
211 
207 
205 
205 
203 
201 
204 
204 
201 
204 
206 
203 
202 
205 
205 
205 
203 
204 
204 
204 
209 
209 
203 
198 
208 
205 
202 
200 
209 
208 
210 
206 
195 
207 
213 
202 
195 
212 
203 
181 
174 
167 
136 
137 
153 
161 
164 
169 
190 
194 
194 
186 
128 
125 
128 
146 
122 
152 
145 
139 
170 
142 
132 
104 
100 
157 
130 
111 
153 
202 
221 
200 
204 
210 
204 
204 
204 
203 
201 
200 
199 
200 
199 
203 
205 
203 
201 
203 
206 
207 
207 
207 
208 
208 
206 
203 
203 
205 
203 
202 
202 
203 
205 
205 
204 
202 
203 
207 
207 
205 
205 
202 
201 
204 
205 
208 
208 
205 
202 
202 
204 
205 
203 
204 
205 
205 
205 
206 
208 
209 
206 
206 
204 
203 
205 
203 
202 
206 
207 
202 
203 
205 
204 
204 
206 
205 
205 
202 
202 
202 
203 
207 
205 
195 
196 
205 
204 
204 
200 
206 
204 
206 
206 
203 
206 
208 
206 
192 
194 
187 
147 
132 
153 
166 
182 
188 
184 
178 
193 
199 
187 
147 
138 
107 
163 
166 
145 
165 
116 
136 
125 
153 
129 
93 
90 
88 
99 
142 
132 
164 
203 
199 
208 
210 
212 
203 
204 
205 
203 
201 
199 
200 
202 
201 
203 
205 
203 
201 
203 
206 
208 
210 
207 
205 
205 
205 
203 
201 
201 
201 
202 
204 
205 
205 
204 
203 
201 
203 
206 
204 
202 
203 
202 
202 
206 
207 
208 
207 
202 
199 
201 
204 
207 
205 
204 
203 
203 
205 
208 
210 
211 
202 
203 
202 
202 
204 
203 
204 
209 
210 
204 
203 
205 
204 
205 
206 
205 
204 
201 
201 
202 
204 
208 
205 
195 
198 
206 
206 
209 
202 
205 
201 
202 
195 
204 
203 
193 
183 
154 
156 
169 
153 
142 
178 
200 
205 
201 
198 
195 
205 
205 
171 
132 
137 
145 
131 
163 
143 
151 
137 
113 
102 
84 
128 
99 
69 
80 
71 
107 
119 
169 
196 
201 
215 
214 
211 
200 
202 
204 
202 
200 
199 
201 
203 
203 
204 
204 
204 
204 
206 
207 
208 
204 
203 
202 
202 
202 
200 
198 
196 
198 
201 
204 
206 
205 
203 
202 
201 
203 
204 
202 
200 
202 
202 
203 
207 
208 
208 
205 
201 
200 
201 
203 
203 
206 
205 
204 
204 
207 
208 
209 
209 
204 
206 
204 
204 
205 
204 
205 
211 
211 
205 
204 
204 
202 
202 
204 
204 
205 
203 
203 
204 
204 
207 
205 
197 
198 
201 
202 
204 
192 
191 
184 
181 
183 
189 
193 
197 
204 
186 
189 
199 
184 
187 
210 
201 
191 
189 
192 
196 
193 
193 
169 
158 
136 
165 
111 
130 
123 
104 
131 
73 
79 
50 
113 
96 
66 
80 
68 
78 
85 
165 
204 
212 
214 
211 
208 
201 
203 
204 
203 
201 
200 
201 
204 
205 
204 
203 
205 
207 
207 
204 
202 
199 
202 
205 
205 
204 
201 
199 
197 
199 
202 
205 
206 
205 
203 
201 
201 
203 
204 
201 
199 
202 
203 
203 
207 
209 
207 
205 
203 
204 
205 
203 
201 
203 
203 
203 
205 
207 
208 
206 
205 
210 
211 
207 
206 
206 
204 
205 
210 
208 
205 
205 
205 
199 
198 
202 
203 
207 
207 
208 
205 
202 
204 
204 
198 
194 
194 
190 
187 
168 
162 
151 
142 
150 
166 
185 
193 
200 
196 
198 
183 
160 
179 
198 
181 
180 
177 
167 
169 
168 
162 
165 
156 
107 
126 
148 
109 
100 
92 
79 
59 
66 
82 
73 
55 
75 
84 
69 
88 
96 
174 
223 
204 
211 
209 
206 
204 
205 
206 
205 
203 
201 
201 
202 
205 
203 
203 
206 
207 
204 
200 
197 
200 
205 
209 
209 
207 
205 
204 
203 
203 
204 
206 
206 
204 
202 
201 
201 
204 
204 
201 
200 
204 
205 
203 
206 
207 
206 
205 
205 
206 
208 
205 
201 
200 
201 
202 
204 
206 
206 
204 
203 
211 
211 
207 
206 
207 
205 
203 
207 
205 
203 
205 
205 
199 
197 
201 
203 
206 
207 
209 
207 
203 
205 
207 
203 
198 
194 
186 
177 
155 
149 
136 
121 
114 
139 
160 
152 
146 
152 
156 
124 
102 
135 
172 
174 
178 
154 
125 
126 
134 
125 
120 
116 
125 
127 
123 
89 
103 
91 
100 
95 
63 
85 
50 
61 
71 
88 
100 
83 
150 
194 
217 
201 
209 
210 
210 
205 
206 
206 
206 
204 
202 
201 
200 
203 
203 
205 
207 
206 
202 
198 
197 
203 
207 
209 
207 
205 
205 
205 
204 
203 
203 
203 
202 
202 
202 
202 
203 
206 
206 
202 
201 
206 
206 
203 
204 
205 
206 
205 
203 
203 
204 
204 
203 
203 
203 
204 
204 
204 
204 
204 
205 
205 
205 
203 
204 
207 
205 
201 
202 
203 
201 
204 
206 
202 
201 
203 
204 
204 
204 
207 
204 
201 
203 
204 
198 
195 
190 
182 
174 
155 
157 
147 
128 
116 
124 
129 
124 
134 
151 
160 
131 
94 
122 
167 
173 
159 
116 
86 
93 
102 
95 
81 
89 
134 
133 
75 
78 
102 
89 
122 
126 
69 
63 
57 
85 
68 
86 
123 
98 
188 
204 
204 
210 
208 
211 
214 
203 
204 
204 
205 
204 
203 
201 
199 
201 
203 
206 
209 
206 
201 
200 
202 
203 
205 
205 
202 
200 
201 
202 
201 
200 
200 
199 
198 
199 
201 
203 
204 
206 
206 
203 
203 
207 
206 
203 
203 
203 
205 
205 
201 
198 
198 
201 
202 
208 
208 
207 
205 
203 
203 
205 
207 
198 
199 
198 
202 
207 
205 
200 
199 
202 
200 
203 
207 
205 
204 
206 
205 
204 
203 
203 
200 
195 
195 
192 
184 
181 
177 
172 
167 
154 
165 
160 
140 
132 
132 
131 
129 
137 
141 
155 
153 
129 
137 
168 
162 
133 
90 
70 
80 
84 
78 
86 
90 
81 
86 
95 
90 
78 
101 
59 
118 
76 
73 
66 
63 
78 
81 
102 
157 
193 
199 
210 
213 
206 
211 
216 
205 
208 
203 
202 
208 
208 
201 
200 
202 
204 
205 
207 
208 
207 
206 
205 
207 
205 
209 
207 
198 
201 
206 
202 
200 
202 
204 
205 
205 
204 
204 
204 
207 
210 
207 
203 
206 
207 
204 
201 
202 
200 
200 
202 
206 
208 
206 
204 
206 
205 
203 
204 
207 
204 
202 
206 
209 
204 
196 
198 
200 
212 
200 
200 
203 
204 
203 
207 
204 
196 
203 
211 
200 
194 
194 
188 
183 
186 
180 
178 
181 
183 
177 
163 
172 
161 
157 
160 
154 
122 
119 
133 
133 
141 
155 
154 
151 
142 
133 
124 
138 
136 
131 
120 
92 
75 
70 
80 
84 
67 
86 
95 
76 
78 
87 
63 
66 
67 
70 
62 
82 
77 
80 
183 
207 
204 
209 
210 
212 
212 
213 
206 
206 
202 
201 
205 
207 
205 
205 
204 
202 
201 
203 
208 
210 
210 
208 
207 
205 
207 
205 
200 
203 
208 
204 
202 
203 
204 
205 
205 
203 
202 
201 
203 
208 
206 
201 
202 
202 
201 
200 
201 
205 
208 
208 
205 
202 
203 
205 
203 
203 
202 
204 
206 
202 
200 
205 
211 
209 
205 
203 
198 
206 
198 
199 
208 
207 
197 
202 
208 
194 
186 
188 
179 
182 
187 
178 
181 
186 
182 
178 
177 
177 
171 
157 
157 
141 
137 
144 
133 
113 
115 
123 
111 
108 
125 
138 
135 
135 
126 
132 
96 
112 
117 
125 
112 
80 
57 
43 
94 
63 
59 
99 
68 
79 
64 
62 
92 
72 
62 
70 
74 
93 
155 
197 
205 
207 
213 
215 
210 
211 
211 
207 
204 
202 
200 
199 
205 
209 
209 
205 
201 
198 
199 
205 
210 
210 
209 
209 
205 
205 
204 
201 
205 
208 
205 
204 
204 
205 
206 
206 
205 
202 
199 
200 
207 
207 
202 
201 
200 
199 
201 
201 
206 
211 
210 
205 
202 
203 
206 
202 
203 
203 
204 
205 
200 
198 
203 
209 
208 
209 
207 
202 
210 
205 
202 
207 
204 
189 
189 
192 
175 
168 
176 
172 
170 
165 
147 
165 
173 
168 
157 
153 
153 
154 
158 
168 
155 
145 
146 
142 
126 
118 
120 
118 
115 
112 
107 
94 
90 
115 
151 
148 
119 
90 
76 
65 
57 
66 
71 
52 
49 
71 
95 
80 
94 
100 
86 
100 
95 
85 
122 
131 
144 
204 
209 
208 
213 
217 
213 
209 
209 
209 
206 
201 
201 
199 
195 
202 
210 
208 
203 
201 
199 
199 
202 
204 
206 
206 
210 
206 
203 
202 
203 
205 
205 
203 
203 
203 
204 
206 
208 
208 
205 
201 
201 
207 
208 
205 
205 
203 
202 
203 
202 
202 
204 
206 
208 
208 
206 
205 
205 
206 
205 
205 
204 
198 
196 
202 
207 
202 
205 
206 
207 
215 
209 
201 
196 
186 
172 
173 
171 
160 
161 
168 
167 
161 
152 
129 
154 
160 
157 
148 
145 
152 
152 
142 
132 
121 
124 
135 
135 
136 
143 
158 
164 
158 
152 
154 
140 
97 
72 
71 
128 
105 
82 
63 
58 
58 
64 
60 
54 
75 
133 
102 
105 
82 
122 
98 
89 
136 
131 
155 
200 
198 
198 
216 
216 
214 
216 
213 
210 
210 
210 
205 
201 
202 
200 
195 
200 
207 
205 
199 
201 
204 
203 
201 
200 
203 
205 
207 
204 
200 
200 
203 
204 
202 
201 
201 
202 
203 
204 
207 
209 
207 
203 
201 
205 
206 
205 
208 
206 
202 
202 
202 
201 
200 
203 
206 
208 
206 
204 
206 
207 
205 
204 
202 
197 
195 
201 
207 
200 
202 
202 
206 
207 
199 
193 
187 
165 
153 
161 
163 
163 
169 
162 
155 
158 
160 
141 
156 
155 
157 
160 
158 
161 
157 
156 
160 
162 
152 
142 
126 
120 
124 
140 
144 
128 
118 
126 
146 
152 
123 
80 
76 
72 
66 
66 
64 
59 
53 
49 
53 
77 
131 
115 
131 
95 
125 
124 
101 
142 
173 
176 
201 
214 
196 
215 
217 
212 
212 
218 
211 
211 
211 
203 
203 
203 
201 
199 
201 
204 
202 
197 
202 
206 
206 
203 
201 
203 
206 
202 
201 
197 
199 
205 
204 
200 
200 
201 
203 
202 
201 
203 
207 
207 
204 
201 
203 
202 
202 
207 
205 
201 
200 
202 
203 
204 
204 
203 
203 
203 
204 
204 
204 
202 
202 
202 
197 
195 
200 
204 
198 
198 
193 
199 
192 
184 
189 
190 
166 
148 
152 
155 
165 
177 
171 
161 
161 
161 
142 
148 
146 
148 
151 
153 
155 
147 
140 
139 
153 
156 
152 
147 
148 
149 
156 
167 
157 
120 
88 
80 
91 
87 
72 
54 
69 
68 
53 
53 
54 
57 
61 
49 
53 
64 
121 
124 
124 
118 
152 
137 
127 
203 
217 
185 
209 
217 
203 
210 
213 
209 
215 
212 
212 
212 
202 
205 
204 
203 
205 
206 
204 
204 
202 
202 
203 
204 
204 
204 
204 
205 
201 
202 
199 
201 
208 
205 
199 
201 
202 
204 
203 
201 
202 
206 
208 
207 
203 
203 
200 
200 
204 
203 
200 
200 
202 
204 
207 
207 
204 
203 
203 
205 
204 
204 
202 
203 
204 
198 
194 
198 
196 
187 
180 
174 
187 
176 
168 
181 
194 
176 
145 
135 
146 
157 
166 
168 
158 
155 
149 
132 
134 
143 
143 
139 
141 
140 
134 
138 
141 
156 
152 
142 
131 
138 
130 
114 
119 
134 
129 
107 
79 
66 
68 
69 
63 
67 
76 
69 
75 
71 
66 
45 
82 
71 
53 
101 
93 
111 
110 
144 
173 
162 
209 
225 
195 
203 
225 
200 
207 
214 
211 
210 
211 
210 
210 
202 
207 
205 
203 
209 
209 
206 
207 
207 
203 
199 
200 
203 
205 
204 
201 
203 
206 
203 
205 
212 
208 
200 
203 
202 
205 
204 
201 
202 
208 
212 
211 
207 
206 
202 
201 
203 
203 
201 
203 
202 
203 
205 
207 
208 
207 
206 
205 
205 
205 
204 
205 
206 
200 
194 
195 
191 
175 
160 
154 
176 
163 
152 
166 
193 
178 
132 
118 
144 
153 
144 
141 
129 
138 
144 
134 
134 
153 
157 
151 
140 
143 
141 
139 
125 
132 
136 
140 
144 
138 
125 
105 
85 
77 
74 
70 
62 
61 
54 
62 
65 
69 
64 
68 
71 
71 
82 
74 
56 
84 
83 
56 
86 
106 
150 
149 
197 
216 
194 
202 
206 
196 
214 
213 
211 
211 
216 
213 
209 
209 
208 
204 
203 
202 
201 
200 
201 
204 
206 
205 
201 
198 
198 
202 
205 
205 
204 
205 
202 
200 
200 
201 
202 
202 
201 
201 
203 
203 
206 
209 
206 
205 
210 
208 
195 
201 
201 
200 
213 
207 
194 
202 
213 
210 
201 
215 
202 
208 
203 
193 
203 
208 
199 
204 
199 
164 
196 
188 
110 
99 
145 
174 
160 
138 
159 
159 
160 
137 
160 
162 
173 
148 
140 
151 
153 
126 
121 
125 
127 
132 
143 
152 
150 
149 
151 
141 
139 
148 
143 
127 
122 
112 
93 
96 
79 
61 
62 
63 
59 
60 
67 
69 
67 
71 
79 
86 
82 
80 
73 
64 
90 
89 
69 
77 
110 
161 
206 
202 
204 
215 
215 
206 
205 
206 
210 
215 
215 
210 
205 
201 
201 
202 
202 
202 
202 
202 
202 
203 
203 
204 
206 
204 
203 
205 
207 
208 
207 
204 
202 
201 
200 
200 
202 
203 
203 
202 
202 
203 
203 
204 
206 
204 
204 
208 
210 
200 
205 
202 
199 
211 
209 
201 
206 
209 
202 
193 
201 
194 
205 
208 
200 
195 
190 
177 
180 
181 
161 
180 
167 
97 
66 
102 
184 
161 
150 
166 
166 
162 
150 
150 
148 
169 
156 
147 
169 
173 
158 
166 
151 
154 
154 
157 
143 
130 
114 
113 
133 
127 
127 
121 
116 
115 
115 
102 
93 
75 
60 
63 
63 
62 
66 
73 
76 
74 
76 
81 
82 
84 
83 
86 
90 
76 
61 
81 
98 
112 
145 
195 
209 
216 
218 
213 
215 
214 
212 
213 
213 
211 
208 
204 
203 
203 
204 
199 
200 
201 
204 
206 
207 
206 
204 
206 
206 
206 
207 
208 
207 
206 
204 
203 
202 
202 
203 
204 
205 
204 
203 
203 
203 
203 
203 
203 
203 
203 
205 
207 
202 
206 
200 
200 
208 
210 
205 
207 
208 
205 
200 
193 
183 
194 
203 
194 
182 
179 
170 
172 
175 
174 
175 
179 
151 
118 
128 
179 
135 
136 
134 
125 
125 
160 
162 
159 
172 
163 
155 
147 
153 
148 
141 
150 
141 
147 
156 
154 
152 
138 
127 
146 
118 
112 
119 
115 
115 
124 
117 
89 
71 
60 
62 
65 
67 
73 
79 
82 
82 
83 
84 
83 
82 
87 
85 
81 
74 
79 
101 
117 
125 
150 
201 
215 
209 
205 
210 
214 
213 
213 
211 
210 
209 
209 
209 
209 
209 
209 
197 
198 
201 
206 
210 
212 
210 
207 
205 
205 
205 
203 
202 
202 
203 
204 
206 
205 
205 
206 
207 
206 
205 
204 
203 
203 
204 
204 
202 
204 
206 
205 
203 
203 
204 
197 
198 
192 
183 
174 
174 
189 
205 
207 
183 
164 
169 
181 
179 
170 
174 
170 
169 
170 
181 
168 
168 
158 
121 
130 
141 
143 
180 
157 
117 
87 
128 
134 
146 
158 
158 
158 
168 
163 
158 
165 
132 
133 
125 
115 
123 
127 
123 
123 
139 
106 
95 
104 
102 
101 
113 
112 
78 
67 
61 
63 
68 
72 
76 
80 
82 
85 
86 
85 
83 
77 
79 
75 
68 
84 
91 
90 
121 
162 
193 
215 
210 
201 
200 
207 
206 
209 
211 
211 
210 
210 
212 
215 
214 
214 
213 
198 
198 
201 
205 
210 
211 
209 
207 
206 
206 
205 
204 
202 
202 
203 
204 
206 
206 
207 
207 
207 
206 
205 
204 
203 
203 
205 
205 
202 
206 
210 
206 
205 
207 
206 
197 
194 
161 
132 
111 
112 
145 
186 
195 
167 
145 
147 
163 
170 
164 
168 
169 
170 
172 
184 
167 
164 
161 
123 
113 
80 
100 
158 
147 
119 
96 
144 
150 
157 
155 
155 
152 
139 
127 
115 
96 
122 
123 
128 
126 
124 
126 
120 
117 
103 
71 
61 
69 
73 
70 
81 
86 
63 
65 
65 
67 
71 
74 
76 
76 
78 
82 
84 
84 
77 
74 
68 
75 
74 
84 
73 
80 
141 
205 
227 
213 
199 
212 
215 
208 
206 
210 
214 
214 
212 
210 
212 
214 
213 
212 
210 
201 
201 
201 
202 
204 
205 
205 
204 
206 
207 
208 
208 
208 
206 
206 
205 
204 
204 
205 
206 
205 
205 
204 
203 
203 
202 
206 
205 
200 
205 
210 
203 
204 
209 
208 
198 
192 
137 
94 
70 
72 
117 
170 
178 
161 
144 
148 
163 
170 
170 
169 
169 
172 
168 
163 
151 
157 
161 
159 
160 
146 
132 
134 
117 
95 
93 
119 
115 
123 
140 
157 
153 
142 
148 
148 
127 
90 
94 
98 
102 
117 
115 
103 
92 
67 
50 
56 
67 
65 
64 
71 
71 
65 
71 
70 
70 
72 
74 
75 
75 
76 
78 
80 
81 
76 
75 
77 
77 
70 
89 
111 
138 
190 
220 
217 
205 
201 
215 
218 
212 
207 
210 
212 
213 
211 
210 
210 
210 
208 
207 
206 
205 
203 
201 
199 
198 
200 
202 
203 
206 
206 
207 
207 
207 
207 
207 
206 
204 
205 
205 
205 
204 
203 
202 
202 
202 
201 
206 
204 
196 
202 
207 
197 
197 
204 
201 
192 
186 
124 
88 
75 
80 
124 
173 
171 
167 
152 
147 
152 
157 
169 
162 
155 
154 
143 
126 
133 
128 
131 
149 
139 
133 
123 
118 
137 
142 
146 
123 
104 
110 
133 
145 
123 
113 
121 
120 
86 
101 
106 
110 
114 
114 
102 
79 
63 
62 
58 
65 
64 
70 
76 
81 
73 
79 
81 
74 
73 
71 
73 
76 
79 
79 
77 
76 
77 
82 
84 
95 
88 
102 
133 
175 
200 
218 
214 
201 
208 
208 
208 
208 
215 
209 
209 
209 
209 
209 
210 
210 
210 
207 
207 
206 
207 
205 
201 
197 
196 
198 
202 
205 
205 
204 
202 
201 
202 
204 
205 
206 
207 
207 
206 
205 
203 
202 
201 
200 
201 
200 
205 
202 
193 
199 
203 
191 
189 
196 
191 
181 
176 
116 
93 
94 
102 
140 
181 
169 
171 
152 
134 
126 
127 
150 
143 
133 
135 
133 
125 
160 
158 
141 
159 
143 
133 
136 
105 
114 
129 
157 
124 
101 
91 
108 
134 
126 
98 
120 
129 
97 
89 
92 
91 
95 
94 
93 
78 
53 
63 
55 
66 
69 
62 
77 
84 
74 
88 
87 
76 
75 
70 
72 
77 
84 
84 
78 
74 
74 
84 
95 
102 
105 
179 
186 
185 
199 
208 
211 
206 
215 
210 
207 
208 
213 
215 
212 
209 
208 
209 
211 
211 
211 
211 
211 
211 
202 
203 
204 
203 
202 
202 
204 
206 
207 
207 
208 
208 
205 
202 
204 
207 
207 
207 
201 
201 
204 
197 
194 
204 
200 
194 
195 
199 
213 
157 
176 
185 
172 
173 
150 
125 
158 
148 
127 
116 
103 
118 
131 
141 
157 
139 
140 
163 
143 
104 
101 
126 
113 
116 
119 
111 
116 
141 
165 
178 
172 
161 
154 
140 
130 
126 
122 
94 
79 
72 
76 
81 
95 
97 
95 
95 
81 
83 
85 
89 
89 
83 
70 
58 
55 
62 
70 
72 
77 
78 
80 
81 
83 
86 
84 
77 
70 
74 
79 
84 
84 
77 
78 
90 
97 
132 
172 
195 
201 
203 
206 
208 
209 
209 
209 
209 
210 
209 
208 
208 
207 
208 
209 
211 
212 
213 
214 
214 
213 
213 
212 
203 
203 
204 
206 
206 
206 
205 
204 
205 
204 
205 
206 
205 
204 
204 
206 
208 
209 
205 
202 
202 
195 
193 
201 
203 
195 
181 
169 
169 
161 
182 
169 
149 
156 
145 
134 
148 
153 
140 
130 
124 
133 
141 
140 
132 
104 
94 
107 
110 
99 
115 
152 
165 
163 
144 
124 
118 
127 
139 
154 
163 
146 
127 
104 
105 
124 
117 
83 
87 
83 
74 
79 
84 
85 
86 
85 
76 
76 
77 
79 
75 
69 
61 
60 
67 
76 
80 
79 
76 
74 
78 
80 
84 
80 
80 
79 
72 
72 
68 
80 
89 
75 
89 
140 
176 
186 
199 
206 
206 
204 
205 
207 
208 
209 
209 
210 
210 
210 
209 
209 
209 
209 
210 
210 
211 
212 
212 
212 
211 
211 
211 
204 
204 
206 
208 
210 
209 
206 
203 
202 
201 
201 
204 
206 
205 
204 
204 
206 
209 
207 
204 
201 
194 
186 
185 
193 
189 
170 
145 
151 
159 
173 
159 
146 
144 
137 
146 
142 
152 
143 
138 
141 
145 
147 
140 
113 
91 
82 
85 
78 
87 
95 
100 
111 
114 
123 
134 
148 
162 
168 
164 
170 
156 
137 
107 
83 
90 
99 
87 
84 
76 
77 
87 
86 
78 
73 
70 
76 
78 
79 
74 
72 
66 
63 
67 
74 
78 
78 
77 
70 
68 
75 
78 
87 
77 
78 
83 
84 
82 
82 
89 
88 
79 
111 
170 
201 
203 
203 
200 
201 
206 
208 
208 
208 
209 
210 
210 
210 
210 
210 
210 
210 
210 
210 
210 
210 
211 
211 
211 
210 
210 
209 
205 
206 
207 
209 
210 
208 
205 
202 
200 
200 
201 
204 
205 
204 
203 
203 
204 
207 
206 
203 
200 
190 
173 
159 
164 
167 
159 
136 
162 
142 
143 
152 
155 
133 
117 
136 
134 
134 
123 
129 
138 
143 
144 
134 
103 
99 
93 
85 
89 
103 
120 
129 
149 
146 
142 
140 
141 
141 
134 
129 
145 
139 
128 
103 
71 
65 
84 
92 
92 
78 
79 
87 
91 
82 
75 
67 
80 
82 
83 
78 
75 
72 
72 
74 
74 
72 
73 
77 
75 
73 
78 
77 
87 
78 
80 
83 
82 
81 
102 
119 
118 
137 
174 
193 
193 
205 
210 
203 
201 
208 
209 
203 
208 
209 
211 
211 
210 
209 
209 
210 
210 
209 
209 
209 
209 
210 
211 
212 
211 
211 
210 
205 
206 
208 
208 
207 
205 
204 
203 
201 
201 
202 
204 
204 
202 
202 
204 
205 
203 
201 
201 
199 
190 
169 
146 
142 
145 
146 
132 
151 
129 
130 
137 
139 
118 
99 
110 
125 
119 
112 
127 
138 
146 
140 
122 
96 
104 
98 
80 
81 
97 
129 
144 
151 
138 
132 
123 
121 
129 
148 
162 
149 
104 
92 
96 
94 
101 
106 
105 
121 
100 
75 
78 
95 
97 
90 
73 
78 
78 
82 
81 
75 
73 
74 
77 
77 
75 
77 
81 
84 
83 
81 
72 
78 
80 
86 
84 
79 
84 
120 
157 
172 
193 
211 
207 
194 
206 
214 
212 
208 
208 
207 
203 
208 
210 
212 
211 
209 
208 
209 
210 
209 
209 
208 
208 
209 
211 
212 
213 
213 
213 
213 
205 
206 
207 
207 
205 
203 
204 
205 
204 
203 
203 
203 
202 
201 
202 
204 
205 
199 
196 
197 
196 
191 
177 
157 
145 
143 
142 
139 
127 
138 
152 
132 
113 
116 
106 
103 
128 
126 
126 
141 
155 
158 
140 
112 
101 
119 
122 
111 
94 
94 
112 
127 
130 
126 
122 
111 
116 
111 
116 
131 
115 
91 
94 
104 
110 
114 
123 
121 
125 
106 
90 
95 
116 
121 
104 
76 
75 
81 
83 
81 
82 
78 
77 
81 
84 
85 
82 
80 
81 
83 
80 
72 
72 
93 
108 
107 
110 
127 
161 
197 
208 
196 
195 
211 
201 
199 
203 
209 
209 
205 
205 
210 
207 
210 
213 
212 
209 
208 
210 
212 
211 
210 
209 
208 
209 
210 
212 
213 
214 
214 
214 
205 
206 
206 
206 
206 
206 
207 
207 
207 
204 
201 
201 
201 
201 
202 
204 
204 
196 
193 
189 
180 
174 
166 
154 
142 
137 
141 
150 
129 
142 
169 
141 
108 
125 
127 
122 
135 
131 
129 
138 
155 
153 
127 
97 
104 
124 
138 
142 
148 
150 
142 
122 
93 
88 
101 
117 
117 
120 
117 
115 
82 
81 
95 
100 
96 
96 
116 
118 
114 
107 
107 
106 
124 
143 
128 
95 
82 
87 
84 
82 
88 
86 
84 
85 
88 
91 
89 
85 
83 
89 
94 
100 
95 
132 
156 
158 
159 
179 
202 
217 
213 
197 
196 
214 
207 
207 
209 
210 
208 
205 
205 
207 
206 
210 
214 
214 
211 
209 
212 
215 
214 
212 
210 
209 
208 
209 
211 
212 
213 
213 
212 
206 
205 
204 
206 
208 
209 
209 
209 
209 
204 
199 
199 
201 
202 
203 
203 
204 
196 
191 
181 
159 
146 
140 
132 
123 
120 
134 
153 
147 
131 
163 
147 
115 
130 
137 
137 
135 
121 
111 
114 
132 
131 
106 
78 
96 
106 
118 
130 
148 
155 
140 
122 
104 
105 
107 
121 
133 
120 
105 
110 
80 
90 
100 
97 
105 
127 
131 
112 
127 
126 
100 
79 
105 
154 
161 
128 
93 
86 
78 
82 
83 
87 
88 
87 
88 
95 
100 
101 
98 
108 
122 
140 
132 
174 
201 
206 
196 
202 
210 
204 
195 
206 
211 
196 
192 
210 
218 
211 
206 
210 
209 
202 
206 
210 
215 
214 
212 
211 
214 
218 
216 
215 
212 
209 
208 
208 
209 
210 
212 
211 
211 
200 
203 
204 
203 
206 
211 
210 
206 
208 
195 
180 
164 
176 
201 
205 
211 
165 
138 
180 
183 
131 
109 
106 
106 
94 
95 
125 
142 
133 
121 
124 
150 
162 
160 
136 
107 
140 
108 
87 
94 
88 
74 
68 
86 
92 
91 
100 
91 
96 
147 
143 
103 
95 
89 
102 
112 
115 
124 
111 
96 
101 
104 
94 
86 
102 
126 
135 
115 
150 
124 
101 
88 
103 
122 
136 
150 
91 
74 
71 
81 
87 
90 
88 
87 
113 
137 
136 
145 
172 
181 
178 
200 
205 
204 
203 
204 
205 
203 
201 
203 
207 
208 
206 
203 
202 
204 
207 
207 
205 
205 
206 
208 
207 
211 
207 
206 
214 
215 
210 
210 
205 
207 
211 
215 
214 
208 
205 
206 
206 
209 
212 
203 
207 
208 
206 
206 
208 
208 
206 
205 
196 
158 
108 
165 
185 
197 
203 
165 
142 
147 
150 
114 
80 
73 
97 
87 
91 
111 
116 
109 
112 
128 
153 
154 
146 
134 
120 
123 
101 
85 
79 
81 
75 
59 
57 
71 
84 
87 
79 
101 
161 
187 
178 
143 
121 
111 
108 
103 
107 
103 
102 
99 
109 
108 
103 
114 
127 
112 
97 
113 
112 
91 
81 
87 
99 
121 
159 
159 
126 
99 
97 
97 
96 
119 
149 
167 
180 
177 
183 
203 
208 
201 
213 
212 
206 
201 
201 
204 
204 
203 
204 
205 
205 
204 
202 
202 
205 
208 
208 
207 
206 
207 
208 
210 
213 
211 
210 
213 
213 
211 
209 
206 
207 
211 
214 
214 
211 
208 
209 
207 
208 
208 
204 
207 
207 
203 
201 
204 
206 
206 
202 
189 
143 
96 
176 
193 
204 
194 
166 
139 
107 
117 
100 
74 
68 
87 
83 
86 
101 
104 
98 
104 
125 
149 
141 
128 
119 
109 
84 
91 
95 
84 
68 
70 
64 
61 
73 
77 
70 
76 
93 
116 
143 
173 
137 
114 
100 
103 
114 
106 
97 
85 
100 
97 
97 
93 
100 
109 
98 
93 
102 
122 
118 
113 
110 
115 
134 
171 
207 
153 
118 
120 
106 
94 
127 
180 
189 
195 
192 
193 
204 
207 
201 
209 
210 
207 
204 
205 
204 
204 
204 
204 
203 
202 
201 
201 
203 
205 
207 
209 
209 
209 
210 
212 
210 
211 
214 
214 
211 
211 
211 
209 
208 
208 
209 
212 
214 
213 
212 
212 
208 
207 
205 
203 
203 
201 
197 
196 
200 
203 
205 
198 
186 
163 
155 
193 
202 
205 
180 
165 
139 
95 
112 
100 
90 
89 
81 
78 
79 
95 
107 
99 
92 
103 
122 
121 
115 
103 
83 
61 
83 
102 
101 
78 
64 
64 
65 
70 
71 
82 
117 
137 
110 
114 
166 
162 
140 
113 
109 
119 
118 
118 
110 
106 
103 
107 
106 
104 
102 
103 
104 
118 
142 
157 
154 
150 
151 
158 
177 
218 
177 
163 
177 
163 
142 
156 
197 
199 
203 
201 
202 
204 
206 
203 
205 
207 
205 
202 
203 
203 
203 
203 
203 
202 
202 
201 
201 
203 
204 
205 
207 
209 
211 
214 
215 
206 
206 
213 
215 
208 
208 
211 
208 
209 
208 
208 
210 
212 
213 
213 
212 
210 
207 
204 
203 
202 
200 
198 
198 
200 
200 
198 
196 
199 
198 
203 
190 
186 
187 
166 
165 
149 
109 
123 
115 
106 
94 
75 
75 
77 
89 
100 
91 
78 
80 
87 
92 
97 
88 
70 
69 
73 
87 
103 
93 
67 
64 
64 
67 
84 
105 
133 
140 
110 
105 
143 
182 
186 
154 
125 
135 
154 
164 
166 
122 
125 
125 
130 
132 
123 
121 
126 
132 
149 
160 
157 
169 
168 
165 
175 
207 
199 
202 
210 
209 
198 
192 
203 
200 
201 
201 
204 
202 
204 
205 
202 
206 
204 
200 
200 
203 
202 
201 
202 
203 
204 
203 
202 
203 
203 
203 
204 
207 
210 
212 
214 
204 
204 
212 
215 
209 
208 
211 
208 
209 
209 
208 
208 
210 
212 
211 
210 
210 
208 
207 
204 
204 
204 
205 
205 
203 
198 
195 
204 
211 
208 
199 
184 
175 
174 
167 
168 
156 
119 
126 
136 
125 
91 
72 
85 
90 
91 
91 
85 
81 
84 
77 
66 
71 
69 
60 
76 
63 
72 
97 
104 
89 
83 
77 
80 
100 
105 
93 
86 
87 
85 
80 
133 
170 
147 
93 
101 
121 
118 
107 
123 
116 
109 
117 
122 
137 
146 
164 
152 
159 
151 
153 
171 
179 
178 
186 
194 
199 
201 
198 
203 
209 
204 
198 
196 
191 
198 
203 
198 
200 
206 
200 
207 
207 
203 
203 
204 
203 
201 
202 
204 
205 
205 
204 
205 
203 
202 
203 
205 
207 
208 
207 
206 
207 
212 
215 
213 
210 
209 
207 
209 
210 
210 
209 
210 
210 
209 
207 
209 
209 
209 
202 
203 
205 
207 
207 
205 
203 
201 
208 
203 
197 
189 
174 
164 
155 
163 
158 
146 
132 
124 
131 
135 
104 
83 
93 
95 
90 
92 
93 
95 
99 
88 
66 
66 
68 
58 
70 
72 
89 
99 
108 
103 
93 
89 
87 
86 
83 
73 
63 
79 
92 
80 
133 
189 
183 
129 
113 
111 
95 
79 
125 
113 
102 
103 
115 
146 
161 
174 
171 
177 
167 
170 
181 
195 
196 
204 
198 
202 
201 
199 
201 
208 
211 
206 
208 
198 
213 
215 
205 
207 
215 
204 
210 
209 
204 
204 
206 
206 
205 
204 
204 
204 
205 
205 
207 
205 
205 
206 
207 
208 
206 
203 
208 
209 
211 
214 
217 
212 
207 
206 
208 
211 
213 
212 
211 
211 
209 
207 
207 
208 
209 
198 
199 
201 
202 
203 
205 
208 
211 
201 
188 
189 
198 
156 
139 
123 
145 
138 
133 
153 
125 
104 
129 
123 
98 
88 
84 
80 
95 
102 
100 
103 
95 
84 
84 
87 
68 
66 
93 
119 
104 
83 
88 
88 
102 
95 
61 
61 
80 
72 
65 
72 
70 
115 
173 
183 
149 
141 
127 
130 
151 
130 
144 
148 
142 
152 
164 
159 
148 
173 
188 
192 
189 
202 
208 
200 
206 
202 
204 
201 
201 
205 
198 
202 
200 
206 
192 
212 
208 
199 
201 
211 
200 
208 
210 
206 
207 
207 
208 
208 
207 
204 
203 
204 
206 
208 
207 
207 
209 
211 
211 
207 
204 
207 
209 
209 
212 
219 
214 
205 
206 
208 
212 
215 
215 
213 
212 
210 
207 
205 
207 
209 
207 
206 
204 
205 
200 
205 
197 
201 
189 
177 
183 
166 
101 
106 
94 
107 
134 
145 
126 
123 
134 
128 
115 
102 
100 
91 
85 
81 
108 
90 
84 
88 
101 
111 
99 
82 
92 
84 
112 
122 
92 
81 
89 
85 
86 
92 
76 
71 
79 
66 
58 
81 
75 
154 
188 
148 
123 
121 
145 
152 
137 
120 
141 
158 
172 
163 
159 
165 
179 
193 
197 
192 
193 
199 
203 
201 
198 
199 
202 
205 
205 
205 
205 
204 
203 
203 
206 
209 
209 
208 
206 
204 
203 
204 
205 
206 
207 
206 
204 
204 
205 
204 
202 
200 
201 
203 
206 
209 
209 
208 
209 
211 
214 
208 
210 
213 
211 
214 
214 
207 
208 
217 
213 
208 
215 
214 
207 
209 
207 
210 
213 
205 
203 
203 
205 
201 
208 
201 
205 
194 
185 
186 
156 
83 
83 
86 
103 
120 
125 
126 
119 
115 
117 
117 
98 
89 
94 
92 
94 
82 
97 
99 
94 
88 
81 
86 
95 
128 
103 
118 
116 
84 
85 
98 
90 
87 
93 
80 
75 
81 
66 
58 
74 
79 
127 
181 
196 
178 
166 
146 
135 
122 
140 
157 
167 
172 
178 
185 
193 
199 
203 
203 
204 
204 
207 
209 
205 
201 
200 
202 
203 
204 
205 
205 
204 
203 
203 
205 
207 
207 
206 
205 
205 
205 
206 
206 
206 
206 
206 
206 
206 
206 
205 
203 
201 
202 
204 
207 
210 
209 
208 
208 
211 
214 
209 
209 
211 
211 
211 
212 
211 
213 
218 
215 
212 
215 
212 
208 
210 
208 
211 
213 
205 
203 
202 
204 
201 
206 
198 
200 
188 
178 
174 
139 
72 
69 
91 
110 
107 
113 
129 
113 
102 
98 
110 
111 
111 
114 
106 
97 
94 
91 
90 
96 
94 
87 
89 
95 
112 
94 
106 
103 
86 
93 
100 
83 
77 
86 
76 
68 
81 
79 
68 
63 
91 
118 
163 
190 
176 
154 
137 
136 
129 
157 
171 
162 
163 
190 
206 
205 
206 
206 
205 
205 
205 
208 
208 
206 
203 
204 
206 
206 
206 
207 
207 
206 
204 
203 
204 
204 
205 
204 
204 
206 
207 
208 
207 
206 
206 
207 
208 
208 
207 
206 
204 
202 
203 
205 
208 
210 
209 
207 
208 
210 
213 
211 
208 
209 
211 
207 
208 
215 
218 
218 
217 
216 
214 
211 
209 
210 
209 
211 
213 
206 
204 
203 
205 
201 
205 
194 
194 
176 
158 
153 
126 
75 
67 
97 
112 
99 
110 
126 
109 
114 
98 
98 
119 
133 
133 
125 
116 
114 
92 
82 
92 
99 
100 
94 
100 
83 
73 
74 
79 
80 
90 
92 
76 
78 
91 
80 
67 
64 
78 
76 
70 
111 
135 
161 
178 
192 
191 
190 
177 
179 
175 
168 
148 
165 
200 
211 
199 
201 
209 
207 
202 
203 
205 
205 
204 
205 
207 
209 
210 
209 
210 
209 
208 
206 
204 
203 
202 
204 
203 
204 
206 
209 
210 
208 
206 
206 
208 
209 
209 
208 
205 
203 
201 
202 
204 
207 
209 
208 
207 
208 
210 
212 
211 
207 
209 
212 
205 
205 
217 
220 
214 
213 
216 
213 
210 
210 
209 
210 
212 
213 
206 
205 
206 
208 
204 
206 
194 
194 
164 
139 
137 
120 
79 
64 
87 
100 
94 
104 
121 
111 
127 
116 
107 
115 
122 
128 
136 
152 
117 
112 
95 
88 
81 
83 
89 
114 
103 
89 
79 
85 
91 
104 
105 
92 
93 
97 
84 
72 
64 
76 
86 
86 
92 
94 
111 
136 
173 
199 
203 
190 
206 
195 
180 
176 
187 
207 
207 
198 
206 
215 
211 
207 
207 
208 
207 
205 
205 
206 
207 
207 
208 
208 
208 
207 
205 
204 
203 
203 
204 
204 
205 
207 
209 
209 
208 
207 
207 
208 
209 
209 
207 
205 
202 
200 
201 
202 
205 
208 
207 
206 
208 
210 
210 
210 
207 
210 
213 
206 
204 
215 
216 
209 
208 
212 
212 
211 
210 
208 
211 
211 
212 
207 
207 
208 
208 
201 
202 
190 
190 
150 
123 
128 
116 
77 
65 
81 
95 
94 
103 
124 
115 
117 
124 
134 
127 
115 
112 
125 
147 
138 
120 
98 
87 
92 
94 
99 
94 
95 
86 
84 
79 
90 
105 
106 
94 
88 
81 
77 
80 
75 
92 
121 
126 
111 
113 
129 
150 
150 
150 
172 
206 
202 
202 
202 
205 
204 
203 
198 
201 
212 
211 
206 
209 
207 
208 
208 
205 
204 
204 
205 
204 
206 
205 
205 
204 
204 
205 
205 
206 
206 
206 
206 
206 
207 
207 
208 
208 
209 
208 
207 
207 
207 
205 
203 
200 
200 
201 
204 
207 
206 
206 
207 
210 
210 
208 
207 
211 
214 
209 
206 
210 
211 
208 
207 
209 
213 
213 
210 
209 
211 
211 
211 
207 
207 
207 
206 
197 
197 
187 
188 
152 
122 
126 
111 
76 
78 
88 
99 
101 
109 
117 
116 
113 
121 
142 
145 
127 
103 
101 
110 
137 
112 
98 
92 
107 
121 
120 
92 
103 
117 
125 
116 
132 
143 
138 
125 
107 
82 
77 
91 
105 
129 
165 
164 
156 
171 
180 
175 
146 
126 
160 
209 
197 
201 
213 
210 
205 
199 
198 
203 
207 
204 
202 
205 
204 
207 
208 
206 
204 
205 
206 
206 
207 
205 
204 
203 
204 
206 
208 
209 
209 
209 
208 
206 
204 
204 
207 
209 
210 
207 
205 
205 
207 
207 
204 
202 
201 
202 
205 
207 
206 
205 
207 
210 
212 
207 
207 
212 
213 
212 
210 
206 
207 
212 
210 
209 
214 
214 
210 
212 
210 
210 
210 
205 
205 
205 
204 
196 
198 
190 
194 
169 
134 
131 
110 
77 
91 
93 
99 
106 
110 
98 
112 
129 
123 
129 
143 
132 
101 
87 
89 
94 
109 
115 
101 
115 
132 
129 
116 
126 
138 
124 
112 
123 
138 
144 
150 
141 
113 
108 
126 
137 
156 
190 
182 
183 
199 
204 
189 
185 
194 
202 
197 
207 
206 
207 
203 
202 
205 
209 
205 
202 
205 
208 
205 
206 
209 
211 
209 
207 
208 
209 
209 
210 
208 
205 
204 
205 
207 
209 
210 
211 
211 
209 
205 
202 
202 
206 
210 
211 
207 
203 
204 
207 
208 
206 
203 
202 
203 
205 
207 
206 
205 
207 
210 
213 
206 
207 
211 
212 
215 
213 
203 
205 
217 
215 
210 
215 
214 
210 
215 
210 
209 
209 
196 
195 
202 
206 
205 
194 
205 
157 
104 
166 
121 
79 
103 
97 
102 
101 
106 
107 
112 
117 
103 
149 
126 
94 
121 
111 
82 
85 
79 
87 
110 
104 
148 
175 
114 
102 
110 
109 
119 
122 
107 
112 
123 
136 
146 
166 
134 
90 
110 
170 
184 
167 
174 
190 
198 
200 
201 
199 
203 
204 
199 
199 
205 
208 
212 
210 
208 
209 
197 
210 
211 
203 
203 
210 
208 
202 
204 
205 
204 
208 
208 
209 
208 
206 
205 
207 
208 
209 
206 
208 
204 
200 
203 
205 
205 
208 
209 
206 
204 
205 
207 
208 
207 
205 
200 
203 
204 
202 
202 
205 
209 
212 
208 
204 
211 
215 
207 
203 
207 
208 
211 
217 
220 
217 
213 
210 
209 
207 
205 
205 
206 
199 
199 
204 
206 
205 
192 
202 
162 
117 
162 
123 
96 
96 
97 
100 
89 
88 
111 
112 
120 
112 
102 
88 
107 
121 
107 
106 
121 
74 
115 
117 
112 
148 
169 
151 
113 
131 
117 
121 
131 
138 
152 
174 
167 
157 
184 
171 
122 
138 
183 
197 
191 
193 
191 
196 
209 
205 
202 
205 
207 
204 
202 
203 
202 
206 
207 
209 
209 
202 
207 
208 
204 
204 
206 
205 
202 
204 
205 
206 
208 
208 
208 
207 
207 
208 
209 
208 
205 
204 
208 
207 
205 
208 
208 
206 
207 
206 
205 
205 
206 
207 
207 
204 
202 
203 
204 
204 
203 
204 
207 
209 
209 
212 
209 
211 
213 
209 
204 
205 
207 
211 
214 
216 
213 
210 
209 
208 
207 
208 
209 
210 
201 
204 
206 
208 
210 
197 
206 
179 
146 
177 
152 
134 
95 
99 
110 
99 
95 
113 
110 
122 
126 
106 
111 
129 
128 
142 
145 
132 
118 
145 
111 
135 
164 
151 
171 
152 
134 
130 
127 
133 
148 
164 
176 
169 
173 
159 
119 
90 
133 
189 
208 
197 
194 
197 
204 
211 
207 
204 
206 
209 
207 
205 
202 
197 
199 
203 
209 
209 
207 
203 
205 
205 
205 
201 
201 
204 
205 
206 
208 
207 
206 
206 
205 
206 
209 
211 
207 
203 
201 
207 
209 
209 
212 
211 
207 
207 
204 
205 
206 
207 
207 
205 
201 
198 
205 
205 
204 
203 
205 
208 
209 
208 
215 
214 
212 
212 
212 
207 
204 
206 
211 
212 
211 
209 
207 
208 
208 
208 
211 
213 
215 
203 
208 
207 
209 
213 
201 
208 
194 
178 
195 
186 
173 
121 
115 
120 
102 
96 
105 
104 
118 
132 
129 
134 
134 
137 
158 
153 
130 
143 
158 
133 
165 
175 
154 
172 
167 
136 
147 
153 
151 
139 
146 
150 
158 
186 
153 
105 
100 
160 
207 
214 
194 
192 
203 
207 
201 
204 
202 
204 
207 
206 
206 
204 
199 
198 
200 
207 
205 
210 
201 
204 
208 
208 
198 
199 
205 
205 
207 
209 
206 
206 
205 
204 
204 
207 
209 
207 
203 
202 
207 
207 
207 
210 
211 
208 
209 
206 
208 
209 
209 
207 
203 
199 
196 
205 
206 
205 
203 
204 
208 
209 
209 
211 
213 
210 
211 
216 
211 
205 
207 
213 
212 
209 
207 
207 
208 
209 
209 
212 
214 
215 
207 
211 
207 
207 
210 
201 
205 
197 
200 
198 
197 
193 
168 
151 
133 
92 
72 
93 
103 
119 
143 
146 
134 
136 
153 
148 
145 
150 
122 
148 
166 
168 
163 
170 
171 
151 
158 
160 
182 
181 
157 
156 
163 
163 
182 
182 
174 
174 
202 
210 
199 
194 
202 
203 
203 
203 
202 
201 
203 
205 
203 
205 
207 
205 
202 
200 
203 
202 
209 
202 
205 
209 
209 
200 
201 
207 
206 
207 
209 
206 
205 
205 
203 
201 
203 
206 
207 
206 
205 
207 
205 
202 
205 
208 
209 
211 
210 
211 
211 
210 
207 
203 
200 
197 
204 
205 
205 
203 
203 
206 
210 
212 
205 
209 
208 
211 
219 
216 
208 
209 
215 
212 
210 
209 
209 
210 
211 
212 
212 
212 
212 
208 
210 
206 
206 
207 
205 
207 
200 
210 
195 
202 
200 
200 
187 
167 
124 
100 
112 
122 
130 
153 
173 
157 
123 
131 
140 
144 
144 
130 
134 
156 
159 
150 
158 
170 
170 
173 
159 
180 
187 
185 
190 
185 
172 
185 
196 
195 
200 
200 
201 
196 
204 
211 
202 
202 
208 
203 
203 
205 
204 
201 
205 
210 
210 
205 
200 
201 
201 
205 
203 
206 
207 
208 
204 
204 
206 
206 
207 
207 
206 
205 
205 
202 
200 
202 
206 
208 
208 
207 
209 
205 
201 
204 
207 
208 
211 
212 
211 
210 
209 
208 
206 
203 
200 
202 
205 
206 
204 
203 
206 
210 
213 
204 
206 
207 
211 
217 
217 
212 
211 
214 
212 
211 
212 
213 
212 
213 
214 
212 
211 
209 
208 
207 
204 
204 
205 
209 
209 
199 
214 
194 
209 
204 
201 
202 
203 
175 
168 
166 
164 
157 
172 
182 
181 
126 
97 
126 
141 
125 
150 
154 
150 
177 
163 
150 
193 
193 
181 
167 
174 
180 
190 
202 
195 
188 
200 
204 
187 
193 
199 
210 
210 
211 
211 
204 
202 
201 
203 
203 
205 
204 
202 
206 
212 
211 
206 
201 
200 
204 
199 
204 
206 
203 
204 
207 
206 
204 
206 
206 
205 
206 
206 
204 
202 
202 
205 
209 
209 
207 
207 
211 
209 
208 
210 
210 
208 
209 
209 
208 
207 
208 
209 
208 
206 
204 
203 
205 
206 
205 
206 
208 
211 
211 
209 
207 
208 
210 
212 
215 
215 
212 
210 
210 
212 
215 
216 
214 
214 
215 
214 
212 
210 
209 
206 
202 
201 
200 
207 
205 
192 
213 
191 
210 
205 
192 
201 
213 
191 
192 
209 
201 
190 
209 
177 
193 
182 
123 
124 
151 
146 
140 
193 
179 
201 
186 
172 
234 
176 
198 
188 
188 
188 
191 
199 
208 
206 
194 
211 
207 
195 
209 
208 
197 
197 
204 
205 
204 
198 
202 
202 
204 
204 
203 
208 
212 
210 
205 
201 
201 
207 
196 
204 
205 
200 
201 
209 
208 
203 
205 
205 
203 
206 
206 
204 
202 
203 
209 
212 
210 
205 
206 
212 
214 
214 
216 
213 
208 
206 
205 
204 
204 
206 
209 
211 
209 
206 
203 
205 
206 
207 
209 
211 
211 
209 
216 
209 
209 
210 
207 
212 
216 
212 
207 
208 
212 
217 
217 
215 
214 
216 
215 
214 
212 
216 
208 
202 
203 
205 
204 
206 
210 
207 
201 
200 
199 
197 
199 
203 
204 
201 
198 
197 
199 
203 
201 
194 
186 
178 
178 
180 
182 
185 
190 
198 
206 
201 
203 
203 
204 
205 
201 
196 
196 
203 
207 
203 
201 
205 
202 
198 
202 
207 
205 
203 
203 
206 
208 
209 
209 
208 
207 
206 
207 
211 
212 
205 
197 
193 
199 
206 
203 
209 
204 
204 
201 
200 
208 
211 
211 
212 
208 
201 
199 
207 
209 
210 
210 
210 
210 
209 
207 
209 
208 
213 
215 
211 
216 
220 
214 
208 
207 
210 
212 
209 
207 
206 
201 
203 
203 
204 
205 
206 
206 
206 
206 
208 
210 
213 
216 
217 
216 
214 
211 
210 
214 
214 
214 
214 
211 
212 
218 
218 
214 
210 
215 
208 
203 
203 
202 
199 
201 
206 
206 
202 
203 
203 
199 
199 
204 
205 
202 
202 
203 
206 
208 
207 
203 
200 
194 
193 
193 
195 
198 
199 
201 
204 
204 
206 
205 
204 
207 
204 
199 
200 
202 
207 
205 
203 
207 
204 
200 
204 
207 
205 
203 
203 
205 
207 
207 
206 
206 
206 
206 
207 
211 
212 
206 
199 
199 
203 
206 
201 
208 
205 
205 
203 
202 
208 
209 
208 
209 
206 
201 
200 
208 
209 
210 
209 
208 
209 
208 
206 
208 
207 
212 
213 
210 
213 
216 
211 
208 
207 
209 
211 
208 
207 
206 
201 
201 
202 
203 
204 
206 
208 
208 
208 
212 
212 
213 
214 
214 
214 
212 
211 
209 
211 
210 
210 
213 
211 
211 
216 
214 
210 
207 
212 
206 
203 
203 
201 
197 
198 
203 
205 
203 
206 
206 
201 
200 
204 
206 
205 
206 
208 
209 
208 
207 
205 
204 
202 
199 
200 
203 
206 
206 
204 
203 
206 
208 
205 
204 
206 
205 
203 
204 
202 
206 
206 
206 
208 
206 
203 
205 
206 
205 
204 
204 
205 
205 
204 
203 
203 
204 
206 
208 
210 
210 
206 
202 
206 
207 
206 
198 
207 
206 
207 
205 
204 
208 
207 
204 
205 
204 
202 
204 
209 
210 
209 
207 
206 
207 
206 
205 
207 
206 
210 
211 
208 
210 
212 
208 
209 
207 
209 
209 
206 
205 
205 
201 
199 
200 
202 
205 
207 
209 
211 
211 
213 
212 
211 
211 
211 
212 
212 
212 
210 
211 
208 
209 
212 
211 
209 
213 
211 
208 
206 
208 
203 
201 
203 
203 
200 
201 
205 
205 
203 
206 
208 
204 
203 
205 
205 
205 
206 
207 
207 
206 
204 
204 
204 
202 
200 
200 
203 
206 
205 
203 
202 
206 
208 
204 
201 
204 
205 
205 
206 
204 
206 
207 
207 
207 
206 
205 
206 
206 
206 
206 
206 
206 
204 
202 
200 
201 
203 
205 
207 
208 
207 
205 
203 
210 
209 
205 
196 
206 
207 
209 
205 
205 
208 
205 
202 
203 
204 
205 
207 
210 
211 
209 
207 
205 
206 
205 
204 
206 
205 
207 
208 
208 
209 
209 
207 
210 
208 
209 
208 
203 
202 
203 
200 
199 
201 
203 
205 
207 
209 
211 
212 
212 
210 
209 
208 
210 
212 
214 
214 
214 
214 
211 
210 
212 
209 
208 
212 
211 
209 
209 
206 
200 
197 
202 
206 
204 
203 
205 
206 
202 
204 
207 
206 
205 
205 
202 
203 
203 
204 
205 
207 
209 
210 
210 
207 
205 
205 
204 
203 
200 
200 
201 
206 
208 
204 
200 
203 
206 
206 
208 
206 
206 
207 
207 
204 
204 
206 
206 
207 
207 
208 
208 
207 
204 
201 
199 
200 
202 
205 
207 
206 
205 
203 
203 
210 
209 
204 
195 
205 
209 
210 
205 
204 
207 
205 
202 
204 
206 
207 
210 
212 
212 
210 
207 
205 
206 
205 
204 
204 
205 
205 
207 
209 
209 
208 
208 
212 
209 
209 
207 
202 
200 
201 
198 
201 
203 
205 
206 
207 
208 
210 
211 
210 
209 
207 
208 
210 
212 
214 
215 
214 
215 
214 
211 
210 
207 
207 
213 
213 
212 
212 
