P2
# Created by MsrVolt
110 69
255
195 
194 
194 
199 
204 
205 
201 
196 
201 
204 
200 
195 
199 
204 
205 
204 
199 
209 
204 
201 
204 
205 
206 
202 
200 
206 
208 
207 
202 
204 
206 
197 
195 
198 
200 
204 
195 
194 
204 
192 
203 
190 
201 
197 
193 
198 
190 
199 
202 
197 
200 
202 
198 
199 
203 
202 
200 
199 
198 
197 
197 
196 
195 
194 
191 
198 
203 
203 
203 
204 
206 
207 
202 
203 
204 
206 
207 
206 
205 
205 
209 
205 
204 
208 
210 
207 
205 
206 
209 
209 
208 
206 
205 
205 
208 
210 
211 
212 
212 
213 
213 
212 
210 
209 
207 
207 
208 
209 
208 
206 
196 
194 
194 
199 
205 
207 
203 
198 
202 
205 
202 
198 
200 
203 
203 
204 
201 
204 
205 
208 
204 
202 
206 
200 
205 
204 
203 
207 
208 
202 
203 
206 
199 
199 
192 
194 
197 
190 
191 
199 
194 
202 
195 
194 
195 
187 
189 
197 
202 
201 
199 
198 
201 
202 
201 
200 
201 
198 
195 
194 
196 
197 
196 
195 
193 
198 
203 
204 
204 
205 
206 
206 
203 
204 
204 
205 
206 
205 
206 
206 
209 
206 
206 
209 
210 
207 
206 
208 
208 
208 
208 
206 
204 
203 
204 
205 
208 
208 
209 
208 
206 
205 
204 
204 
206 
208 
208 
205 
205 
207 
195 
193 
192 
196 
202 
204 
201 
197 
197 
199 
196 
194 
196 
196 
196 
199 
211 
204 
196 
205 
207 
195 
197 
208 
197 
201 
212 
212 
199 
197 
203 
203 
196 
194 
196 
197 
196 
192 
192 
203 
193 
198 
193 
196 
201 
196 
197 
199 
197 
199 
198 
200 
207 
206 
199 
195 
203 
200 
196 
195 
197 
197 
196 
194 
195 
198 
202 
204 
205 
206 
206 
205 
204 
205 
205 
205 
205 
205 
206 
206 
207 
206 
206 
209 
208 
206 
206 
208 
210 
211 
211 
209 
206 
204 
203 
204 
205 
206 
206 
205 
204 
203 
203 
204 
208 
211 
210 
204 
202 
206 
194 
193 
193 
196 
199 
200 
200 
198 
201 
200 
198 
198 
201 
200 
199 
202 
205 
216 
197 
190 
205 
204 
199 
205 
199 
205 
200 
196 
209 
209 
194 
193 
200 
196 
208 
191 
170 
188 
199 
194 
192 
186 
194 
182 
185 
205 
188 
171 
204 
197 
198 
204 
205 
202 
199 
194 
198 
198 
197 
197 
196 
195 
194 
193 
196 
198 
201 
203 
205 
206 
204 
203 
204 
205 
206 
205 
204 
205 
206 
206 
205 
205 
206 
207 
205 
202 
203 
206 
209 
209 
209 
208 
205 
203 
202 
202 
203 
204 
204 
205 
206 
207 
206 
206 
207 
210 
210 
207 
205 
207 
192 
194 
196 
197 
198 
200 
202 
203 
206 
205 
201 
202 
206 
205 
203 
205 
205 
206 
197 
201 
205 
197 
199 
207 
203 
190 
203 
201 
188 
199 
200 
180 
171 
184 
196 
166 
151 
181 
184 
159 
169 
175 
178 
158 
170 
192 
169 
153 
203 
184 
189 
200 
193 
193 
203 
202 
193 
195 
197 
195 
192 
191 
193 
196 
198 
198 
199 
202 
204 
204 
203 
202 
202 
206 
208 
206 
204 
205 
205 
204 
204 
205 
207 
206 
204 
201 
202 
204 
203 
204 
204 
203 
200 
199 
199 
200 
203 
202 
202 
205 
208 
209 
207 
204 
202 
202 
206 
211 
212 
209 
188 
190 
194 
196 
197 
199 
202 
205 
204 
204 
201 
200 
203 
204 
201 
202 
209 
192 
196 
208 
189 
177 
191 
194 
169 
176 
205 
184 
151 
178 
187 
154 
153 
174 
163 
130 
135 
154 
140 
121 
151 
164 
148 
149 
165 
145 
130 
146 
155 
143 
160 
183 
183 
189 
204 
206 
198 
200 
201 
196 
189 
187 
191 
196 
199 
198 
199 
201 
203 
202 
201 
202 
201 
206 
208 
206 
204 
204 
204 
202 
204 
206 
208 
208 
205 
203 
203 
204 
205 
205 
206 
205 
203 
202 
202 
203 
205 
203 
203 
205 
208 
208 
206 
204 
203 
202 
206 
213 
213 
207 
187 
188 
190 
192 
195 
198 
199 
200 
201 
206 
205 
202 
203 
206 
206 
208 
200 
200 
196 
187 
170 
163 
161 
143 
132 
155 
142 
109 
138 
173 
152 
142 
182 
175 
134 
109 
115 
112 
109 
119 
145 
148 
142 
148 
140 
102 
90 
106 
105 
111 
131 
155 
170 
179 
188 
193 
198 
201 
202 
198 
192 
189 
191 
195 
200 
199 
200 
201 
202 
200 
201 
203 
201 
206 
208 
204 
202 
203 
203 
202 
204 
206 
208 
208 
207 
206 
205 
205 
208 
210 
211 
210 
208 
206 
205 
205 
206 
206 
206 
206 
205 
205 
206 
206 
208 
207 
208 
211 
209 
204 
190 
189 
189 
192 
196 
199 
198 
197 
195 
204 
206 
201 
201 
205 
208 
212 
201 
194 
175 
185 
189 
140 
101 
107 
129 
96 
77 
73 
107 
151 
156 
156 
180 
151 
121 
128 
124 
101 
113 
138 
132 
133 
162 
146 
113 
112 
97 
76 
96 
112 
119 
131 
153 
163 
165 
175 
185 
190 
195 
197 
195 
193 
193 
195 
201 
200 
200 
202 
201 
200 
201 
204 
202 
206 
208 
203 
200 
202 
203 
202 
202 
205 
207 
208 
208 
208 
206 
205 
206 
208 
210 
210 
207 
204 
201 
200 
205 
206 
206 
204 
201 
201 
204 
208 
208 
209 
209 
206 
204 
204 
192 
193 
194 
195 
195 
197 
199 
200 
200 
202 
202 
198 
202 
210 
205 
192 
187 
161 
159 
175 
167 
122 
90 
102 
116 
64 
63 
80 
76 
118 
170 
168 
147 
132 
138 
133 
121 
123 
125 
126 
125 
150 
166 
135 
118 
127 
108 
91 
109 
125 
140 
142 
140 
142 
153 
170 
172 
181 
182 
196 
192 
195 
197 
196 
202 
201 
202 
201 
201 
205 
206 
201 
205 
204 
204 
203 
202 
201 
202 
204 
205 
202 
206 
209 
207 
206 
207 
206 
204 
204 
204 
202 
200 
199 
199 
199 
207 
203 
205 
207 
205 
204 
206 
206 
209 
209 
207 
204 
202 
204 
198 
197 
195 
193 
191 
192 
196 
198 
200 
196 
196 
209 
205 
196 
198 
187 
160 
145 
141 
125 
108 
125 
137 
117 
80 
70 
64 
72 
94 
123 
142 
143 
118 
152 
147 
105 
105 
121 
111 
108 
154 
154 
142 
132 
126 
119 
116 
116 
118 
133 
155 
155 
129 
129 
159 
172 
166 
171 
172 
189 
196 
193 
196 
198 
204 
202 
205 
206 
203 
203 
205 
204 
204 
203 
202 
203 
204 
205 
204 
203 
202 
199 
201 
205 
205 
205 
207 
205 
206 
203 
204 
209 
208 
204 
203 
207 
208 
203 
204 
207 
206 
207 
209 
208 
204 
206 
207 
205 
204 
206 
196 
196 
195 
192 
191 
193 
198 
202 
205 
199 
206 
210 
203 
201 
192 
172 
160 
140 
108 
76 
83 
147 
171 
121 
72 
80 
71 
79 
115 
130 
118 
114 
117 
128 
111 
94 
110 
107 
94 
113 
121 
116 
90 
108 
118 
99 
112 
124 
105 
160 
131 
119 
162 
144 
131 
184 
144 
144 
191 
159 
168 
198 
197 
193 
202 
202 
207 
209 
203 
200 
203 
204 
202 
203 
203 
204 
205 
207 
209 
210 
202 
199 
202 
205 
205 
205 
207 
205 
205 
199 
201 
211 
213 
206 
204 
210 
210 
205 
205 
208 
207 
209 
210 
208 
204 
207 
209 
208 
205 
204 
196 
196 
195 
193 
192 
193 
196 
200 
210 
207 
214 
195 
195 
208 
179 
154 
151 
122 
73 
64 
109 
150 
141 
99 
73 
63 
59 
79 
111 
124 
115 
103 
110 
98 
91 
96 
107 
108 
107 
113 
103 
109 
87 
104 
116 
97 
109 
122 
108 
139 
139 
141 
142 
126 
140 
169 
152 
158 
163 
167 
174 
183 
185 
207 
195 
199 
206 
207 
202 
201 
204 
202 
196 
200 
202 
199 
196 
197 
201 
205 
206 
205 
208 
211 
207 
205 
206 
206 
203 
198 
200 
209 
211 
205 
204 
207 
210 
208 
209 
210 
208 
207 
208 
206 
206 
209 
211 
209 
205 
203 
203 
201 
197 
193 
190 
190 
192 
194 
198 
195 
190 
187 
195 
189 
169 
166 
158 
116 
65 
68 
102 
104 
89 
88 
79 
63 
58 
71 
90 
106 
107 
98 
96 
93 
101 
110 
104 
104 
114 
117 
105 
107 
89 
90 
99 
90 
95 
109 
103 
121 
150 
158 
125 
113 
145 
161 
169 
174 
120 
190 
155 
158 
192 
177 
187 
193 
201 
201 
201 
207 
210 
205 
202 
206 
207 
203 
198 
197 
197 
196 
206 
207 
213 
214 
207 
203 
204 
205 
204 
205 
205 
205 
206 
206 
206 
204 
204 
206 
211 
212 
207 
207 
209 
208 
205 
207 
209 
209 
206 
203 
204 
200 
196 
193 
193 
196 
199 
201 
196 
190 
169 
192 
189 
147 
153 
170 
155 
108 
79 
73 
71 
69 
75 
92 
83 
83 
73 
68 
80 
93 
96 
96 
102 
101 
100 
111 
110 
95 
107 
133 
123 
110 
95 
93 
102 
98 
94 
109 
106 
108 
136 
140 
110 
117 
142 
139 
149 
145 
154 
146 
118 
159 
167 
147 
178 
182 
188 
191 
195 
205 
211 
208 
207 
209 
210 
209 
210 
209 
204 
197 
202 
203 
209 
211 
204 
201 
203 
204 
204 
209 
208 
202 
201 
206 
207 
202 
198 
203 
210 
211 
206 
207 
211 
211 
207 
208 
209 
209 
206 
203 
200 
197 
193 
193 
195 
198 
198 
197 
195 
196 
183 
174 
147 
122 
129 
128 
115 
94 
102 
84 
64 
77 
80 
79 
75 
77 
71 
71 
84 
95 
99 
101 
105 
113 
98 
97 
106 
101 
110 
128 
139 
121 
106 
107 
110 
102 
96 
104 
115 
128 
134 
105 
94 
111 
115 
118 
121 
130 
184 
112 
143 
152 
118 
168 
168 
165 
168 
175 
179 
186 
196 
201 
198 
201 
203 
202 
202 
205 
203 
199 
200 
199 
204 
206 
202 
201 
203 
203 
201 
208 
208 
200 
198 
204 
207 
203 
201 
204 
209 
209 
205 
207 
211 
210 
209 
208 
208 
209 
207 
204 
201 
198 
194 
193 
192 
189 
181 
175 
163 
180 
194 
134 
99 
136 
130 
94 
114 
118 
134 
90 
61 
83 
78 
68 
88 
69 
70 
87 
96 
103 
107 
103 
107 
107 
97 
105 
108 
98 
105 
117 
132 
121 
105 
106 
106 
100 
104 
106 
124 
142 
127 
78 
90 
121 
108 
114 
113 
140 
160 
148 
158 
124 
141 
159 
161 
151 
151 
160 
162 
165 
178 
191 
194 
201 
203 
196 
191 
193 
199 
203 
202 
199 
200 
203 
202 
202 
204 
203 
201 
208 
209 
202 
199 
204 
208 
207 
207 
208 
210 
208 
203 
205 
208 
206 
205 
204 
206 
209 
209 
207 
198 
201 
202 
199 
196 
189 
177 
164 
152 
164 
154 
110 
111 
133 
113 
101 
117 
139 
114 
74 
71 
73 
68 
75 
79 
74 
76 
89 
102 
107 
106 
105 
111 
102 
102 
106 
105 
105 
112 
118 
111 
128 
105 
90 
93 
109 
110 
108 
128 
132 
105 
91 
93 
124 
132 
112 
121 
150 
126 
187 
150 
133 
169 
133 
160 
146 
146 
155 
152 
148 
159 
179 
189 
193 
205 
193 
178 
174 
187 
196 
189 
181 
194 
200 
201 
204 
200 
204 
200 
203 
206 
204 
202 
207 
211 
208 
209 
206 
208 
209 
204 
202 
205 
206 
204 
205 
207 
209 
209 
208 
200 
198 
196 
198 
205 
208 
199 
187 
172 
178 
113 
118 
142 
96 
83 
98 
98 
77 
69 
73 
73 
80 
90 
93 
70 
79 
91 
99 
98 
95 
97 
102 
111 
108 
115 
121 
113 
105 
114 
128 
117 
123 
110 
91 
105 
119 
116 
117 
129 
108 
86 
103 
100 
125 
148 
112 
111 
125 
164 
159 
145 
175 
125 
146 
140 
144 
156 
154 
142 
142 
158 
175 
185 
185 
195 
197 
175 
168 
174 
169 
153 
170 
182 
189 
193 
195 
208 
205 
202 
203 
204 
205 
208 
210 
209 
207 
209 
204 
204 
203 
200 
201 
205 
207 
207 
208 
209 
208 
207 
205 
197 
195 
194 
198 
206 
206 
193 
178 
168 
134 
160 
145 
83 
75 
101 
130 
123 
86 
77 
87 
82 
82 
88 
84 
77 
85 
94 
96 
93 
91 
94 
99 
98 
101 
105 
107 
112 
122 
122 
112 
117 
113 
104 
82 
105 
116 
107 
110 
108 
75 
101 
118 
120 
150 
136 
115 
118 
160 
153 
131 
168 
145 
154 
159 
120 
129 
155 
161 
143 
135 
144 
162 
160 
186 
127 
177 
194 
114 
145 
97 
94 
129 
157 
173 
169 
160 
194 
197 
200 
205 
203 
202 
206 
206 
206 
213 
207 
202 
200 
201 
199 
201 
204 
205 
207 
208 
208 
205 
202 
200 
193 
195 
196 
198 
196 
186 
168 
152 
145 
144 
137 
106 
90 
107 
113 
107 
78 
80 
74 
76 
92 
98 
91 
86 
91 
90 
88 
86 
88 
93 
97 
100 
94 
105 
111 
104 
103 
114 
114 
100 
109 
107 
92 
77 
98 
105 
97 
93 
85 
99 
104 
114 
127 
138 
143 
135 
135 
167 
133 
149 
165 
168 
145 
163 
146 
135 
154 
162 
144 
131 
136 
157 
170 
140 
148 
182 
141 
178 
156 
99 
166 
152 
114 
154 
177 
130 
166 
187 
186 
199 
201 
203 
212 
211 
202 
203 
207 
201 
201 
203 
202 
203 
204 
202 
204 
206 
207 
205 
202 
200 
192 
194 
196 
198 
194 
179 
157 
139 
133 
141 
122 
129 
141 
144 
143 
104 
73 
88 
82 
85 
111 
113 
89 
79 
92 
88 
85 
86 
90 
94 
96 
97 
95 
97 
102 
104 
100 
100 
103 
104 
105 
114 
93 
93 
100 
102 
98 
83 
79 
114 
108 
111 
124 
123 
141 
148 
130 
143 
121 
158 
153 
165 
147 
154 
164 
155 
170 
164 
146 
146 
144 
147 
155 
150 
156 
141 
144 
171 
142 
160 
150 
112 
148 
180 
191 
191 
165 
133 
183 
195 
193 
191 
205 
211 
204 
201 
208 
202 
202 
205 
204 
204 
204 
201 
202 
205 
207 
207 
206 
205 
191 
192 
196 
201 
199 
180 
149 
124 
111 
101 
121 
136 
145 
148 
130 
125 
107 
91 
80 
92 
110 
106 
90 
81 
90 
83 
81 
90 
100 
99 
91 
84 
91 
92 
94 
94 
94 
100 
107 
106 
107 
120 
103 
114 
103 
96 
97 
78 
87 
96 
113 
120 
123 
118 
125 
131 
115 
100 
159 
126 
141 
130 
157 
163 
146 
153 
172 
147 
133 
162 
164 
147 
150 
180 
150 
108 
194 
123 
116 
192 
137 
156 
153 
200 
217 
177 
166 
161 
172 
190 
195 
189 
189 
192 
197 
204 
207 
201 
200 
202 
202 
203 
205 
203 
200 
202 
204 
206 
207 
207 
191 
192 
195 
199 
195 
176 
146 
123 
113 
112 
131 
137 
115 
113 
131 
136 
135 
114 
101 
101 
98 
94 
94 
95 
93 
83 
80 
91 
100 
98 
91 
89 
102 
112 
112 
96 
88 
101 
112 
108 
108 
110 
108 
119 
100 
83 
93 
83 
107 
100 
94 
112 
113 
98 
125 
115 
97 
105 
155 
142 
136 
130 
154 
159 
147 
144 
158 
134 
123 
160 
169 
159 
158 
166 
146 
151 
153 
141 
167 
156 
167 
162 
153 
170 
164 
176 
184 
175 
154 
177 
198 
200 
186 
174 
178 
190 
199 
195 
196 
200 
200 
201 
204 
203 
200 
200 
200 
202 
205 
207 
193 
192 
191 
190 
183 
171 
156 
146 
148 
132 
127 
125 
114 
125 
143 
137 
126 
137 
130 
107 
89 
83 
88 
97 
95 
89 
87 
90 
88 
85 
95 
110 
122 
111 
99 
93 
100 
114 
116 
105 
107 
94 
108 
115 
96 
77 
95 
99 
122 
97 
100 
94 
101 
104 
106 
112 
109 
132 
114 
161 
138 
154 
150 
146 
162 
140 
162 
163 
151 
159 
150 
146 
167 
165 
157 
162 
139 
174 
165 
153 
178 
125 
167 
177 
139 
191 
178 
145 
168 
171 
181 
186 
174 
164 
171 
184 
190 
188 
193 
199 
199 
200 
202 
200 
203 
201 
200 
201 
204 
207 
194 
194 
189 
184 
177 
161 
150 
151 
164 
120 
116 
124 
116 
121 
127 
118 
121 
151 
138 
101 
94 
93 
86 
90 
92 
88 
90 
87 
82 
93 
111 
116 
123 
97 
96 
98 
107 
129 
120 
98 
106 
95 
113 
105 
94 
89 
85 
123 
127 
90 
95 
91 
94 
114 
104 
105 
117 
123 
97 
154 
148 
154 
159 
146 
144 
160 
168 
174 
167 
158 
163 
158 
163 
168 
166 
149 
165 
166 
134 
182 
144 
181 
150 
175 
128 
138 
156 
194 
182 
164 
163 
166 
169 
171 
163 
173 
186 
178 
186 
197 
201 
204 
201 
199 
204 
204 
200 
196 
202 
211 
199 
187 
191 
197 
177 
144 
125 
120 
127 
130 
134 
144 
144 
108 
93 
131 
172 
138 
100 
94 
111 
111 
94 
86 
90 
86 
89 
92 
94 
105 
117 
117 
113 
104 
100 
107 
124 
127 
105 
88 
98 
96 
110 
98 
85 
83 
86 
118 
110 
98 
94 
86 
95 
112 
104 
98 
122 
101 
112 
132 
163 
146 
178 
157 
134 
154 
149 
156 
158 
171 
172 
179 
178 
160 
163 
158 
163 
150 
152 
164 
157 
185 
167 
142 
118 
173 
188 
158 
153 
190 
151 
152 
185 
177 
158 
150 
174 
159 
181 
205 
210 
209 
200 
197 
200 
206 
208 
203 
201 
205 
202 
194 
205 
204 
164 
128 
118 
114 
119 
119 
133 
130 
114 
120 
134 
141 
142 
117 
97 
94 
99 
101 
96 
89 
95 
92 
95 
102 
110 
120 
123 
118 
104 
109 
97 
107 
131 
120 
98 
96 
96 
103 
107 
95 
84 
85 
94 
114 
125 
116 
93 
85 
96 
103 
110 
123 
112 
128 
135 
168 
148 
148 
172 
171 
139 
166 
156 
153 
141 
161 
154 
175 
182 
159 
150 
159 
178 
161 
178 
149 
167 
177 
192 
145 
124 
167 
189 
154 
161 
161 
171 
191 
154 
136 
156 
134 
181 
175 
190 
193 
190 
203 
209 
207 
203 
202 
199 
198 
204 
211 
202 
197 
197 
189 
168 
151 
131 
106 
94 
110 
99 
100 
147 
157 
120 
108 
104 
106 
103 
100 
104 
110 
105 
91 
94 
92 
93 
99 
108 
114 
111 
103 
93 
103 
90 
103 
123 
108 
99 
107 
98 
102 
96 
92 
94 
96 
103 
108 
122 
120 
109 
101 
104 
104 
109 
123 
127 
149 
137 
166 
159 
163 
175 
159 
148 
170 
171 
165 
143 
160 
148 
166 
160 
170 
142 
140 
157 
152 
167 
151 
183 
167 
181 
155 
157 
156 
164 
152 
172 
159 
172 
147 
152 
157 
143 
166 
173 
167 
172 
199 
208 
198 
202 
210 
206 
208 
208 
203 
200 
203 
202 
202 
188 
168 
162 
159 
143 
122 
113 
86 
91 
119 
132 
120 
95 
83 
108 
104 
99 
107 
125 
122 
105 
98 
93 
93 
93 
95 
102 
104 
99 
93 
85 
92 
91 
105 
109 
95 
97 
102 
94 
90 
79 
89 
106 
110 
109 
103 
107 
115 
123 
103 
95 
107 
107 
107 
146 
131 
117 
127 
169 
173 
170 
161 
152 
156 
167 
163 
149 
163 
160 
160 
153 
179 
150 
157 
162 
170 
154 
153 
170 
170 
156 
142 
170 
161 
153 
149 
186 
143 
174 
139 
167 
166 
123 
163 
146 
181 
175 
184 
192 
183 
202 
208 
188 
197 
206 
210 
209 
205 
201 
207 
196 
174 
162 
153 
146 
146 
144 
110 
99 
98 
88 
86 
93 
103 
106 
106 
105 
114 
125 
113 
99 
103 
99 
103 
102 
101 
104 
103 
97 
96 
94 
91 
98 
106 
97 
91 
99 
97 
94 
85 
76 
92 
115 
121 
115 
107 
117 
112 
115 
97 
88 
101 
109 
122 
146 
105 
107 
116 
154 
168 
143 
173 
151 
152 
166 
155 
144 
159 
178 
173 
164 
166 
143 
165 
153 
163 
122 
123 
135 
166 
138 
129 
158 
161 
157 
164 
161 
167 
196 
125 
138 
165 
166 
198 
158 
185 
177 
197 
201 
174 
195 
220 
225 
217 
209 
205 
205 
205 
201 
201 
198 
190 
178 
166 
154 
143 
138 
117 
95 
84 
93 
105 
101 
99 
116 
108 
105 
111 
114 
108 
101 
98 
102 
108 
107 
103 
104 
99 
92 
92 
101 
93 
102 
102 
92 
99 
106 
101 
97 
92 
90 
98 
113 
118 
111 
109 
118 
107 
96 
98 
103 
99 
110 
137 
141 
92 
109 
116 
151 
152 
138 
161 
147 
164 
172 
150 
140 
159 
190 
188 
177 
171 
153 
154 
128 
128 
105 
125 
135 
151 
126 
136 
151 
155 
152 
163 
144 
154 
178 
151 
145 
143 
149 
166 
168 
168 
151 
157 
173 
182 
201 
208 
185 
193 
205 
211 
209 
203 
204 
200 
199 
182 
158 
158 
167 
161 
124 
98 
91 
96 
92 
85 
93 
120 
132 
103 
97 
103 
95 
89 
96 
98 
106 
114 
112 
106 
105 
97 
88 
88 
93 
86 
100 
98 
95 
109 
110 
103 
98 
99 
102 
98 
102 
105 
100 
103 
109 
107 
78 
83 
102 
97 
113 
140 
122 
100 
106 
128 
134 
136 
151 
160 
149 
176 
167 
137 
129 
148 
172 
164 
154 
161 
153 
146 
145 
141 
122 
143 
147 
147 
140 
158 
145 
138 
136 
151 
132 
142 
168 
186 
183 
162 
138 
135 
175 
166 
178 
187 
184 
187 
195 
205 
215 
210 
206 
206 
207 
205 
207 
206 
186 
165 
158 
163 
165 
153 
134 
99 
92 
79 
72 
109 
131 
119 
86 
85 
93 
88 
83 
94 
99 
97 
101 
111 
106 
106 
117 
104 
82 
83 
93 
93 
95 
92 
98 
121 
123 
98 
96 
97 
104 
105 
94 
87 
90 
95 
98 
80 
78 
81 
88 
102 
108 
109 
109 
98 
95 
125 
132 
130 
154 
147 
148 
157 
151 
117 
132 
134 
156 
149 
149 
140 
155 
130 
146 
155 
146 
154 
134 
156 
148 
167 
151 
146 
138 
157 
154 
185 
175 
143 
143 
168 
187 
188 
184 
172 
172 
138 
133 
176 
185 
179 
182 
206 
206 
206 
203 
208 
204 
199 
184 
179 
180 
176 
160 
136 
127 
91 
68 
88 
135 
151 
118 
85 
85 
75 
82 
87 
85 
90 
95 
101 
99 
108 
107 
109 
115 
104 
88 
90 
92 
93 
94 
95 
104 
120 
118 
98 
99 
103 
111 
111 
100 
90 
89 
88 
85 
80 
83 
81 
86 
102 
102 
93 
114 
108 
87 
124 
128 
126 
135 
125 
124 
145 
148 
129 
134 
147 
166 
161 
172 
165 
177 
132 
157 
149 
171 
177 
147 
172 
157 
161 
147 
162 
160 
173 
182 
135 
178 
175 
103 
103 
141 
161 
126 
147 
177 
157 
157 
198 
201 
186 
203 
206 
193 
201 
206 
208 
198 
200 
192 
182 
169 
158 
159 
157 
126 
106 
87 
119 
147 
106 
69 
81 
94 
98 
111 
105 
90 
91 
95 
97 
100 
105 
105 
103 
102 
93 
85 
87 
91 
93 
93 
98 
109 
114 
107 
98 
106 
107 
109 
103 
92 
88 
89 
87 
82 
73 
78 
85 
88 
94 
95 
98 
109 
112 
88 
128 
121 
123 
127 
125 
125 
130 
118 
122 
121 
150 
163 
158 
155 
158 
168 
129 
150 
136 
168 
174 
162 
152 
146 
143 
172 
207 
173 
156 
148 
162 
183 
165 
129 
140 
173 
182 
183 
189 
198 
167 
156 
183 
184 
174 
178 
211 
215 
209 
202 
208 
197 
199 
193 
189 
181 
170 
167 
161 
129 
123 
122 
138 
132 
111 
107 
101 
73 
87 
106 
98 
85 
94 
103 
104 
102 
100 
99 
96 
89 
83 
83 
84 
84 
88 
86 
89 
98 
95 
88 
91 
108 
105 
99 
88 
81 
85 
89 
86 
84 
73 
79 
89 
93 
91 
91 
102 
102 
100 
96 
132 
121 
134 
140 
142 
133 
129 
116 
149 
138 
167 
160 
151 
135 
149 
151 
140 
135 
133 
142 
158 
144 
135 
171 
134 
148 
176 
161 
181 
155 
172 
161 
140 
132 
148 
172 
170 
166 
159 
165 
154 
153 
165 
154 
145 
188 
203 
199 
203 
203 
206 
192 
194 
188 
189 
188 
180 
168 
151 
124 
135 
104 
101 
129 
117 
94 
91 
112 
104 
109 
104 
93 
92 
93 
96 
96 
92 
93 
93 
88 
87 
89 
88 
86 
91 
86 
86 
91 
84 
81 
95 
109 
102 
93 
84 
83 
90 
92 
85 
79 
82 
89 
90 
94 
96 
90 
91 
105 
88 
107 
131 
126 
145 
148 
139 
139 
146 
135 
165 
131 
159 
152 
148 
128 
145 
150 
158 
136 
146 
141 
176 
154 
153 
176 
141 
141 
165 
153 
165 
174 
159 
171 
166 
168 
185 
182 
192 
211 
206 
201 
181 
179 
196 
192 
183 
204 
215 
205 
205 
205 
208 
189 
195 
192 
188 
180 
170 
166 
159 
133 
105 
93 
102 
104 
112 
125 
121 
115 
110 
114 
105 
92 
91 
87 
81 
84 
82 
86 
90 
89 
88 
88 
86 
91 
97 
91 
85 
86 
82 
85 
102 
117 
104 
90 
83 
87 
98 
100 
91 
80 
80 
84 
87 
94 
96 
91 
96 
105 
95 
126 
134 
126 
136 
140 
125 
145 
158 
136 
145 
105 
149 
158 
160 
132 
150 
171 
173 
159 
158 
160 
196 
163 
174 
156 
155 
154 
175 
150 
113 
156 
168 
165 
150 
162 
170 
149 
141 
134 
156 
160 
133 
131 
158 
161 
147 
147 
191 
206 
204 
199 
207 
196 
197 
195 
200 
195 
179 
169 
159 
149 
124 
104 
89 
95 
128 
139 
122 
105 
109 
115 
99 
84 
89 
85 
73 
79 
80 
83 
87 
87 
85 
82 
82 
86 
91 
85 
77 
77 
79 
85 
99 
115 
98 
83 
82 
91 
103 
102 
91 
82 
76 
77 
84 
96 
99 
95 
107 
104 
119 
138 
138 
129 
126 
136 
123 
145 
157 
139 
150 
122 
162 
169 
169 
151 
168 
188 
175 
177 
157 
172 
188 
175 
166 
130 
137 
155 
183 
161 
113 
149 
157 
151 
154 
160 
170 
182 
167 
162 
175 
178 
168 
176 
197 
202 
197 
177 
200 
206 
215 
212 
208 
197 
194 
192 
199 
193 
173 
167 
165 
160 
129 
102 
88 
108 
128 
111 
92 
106 
93 
90 
83 
77 
83 
82 
78 
81 
84 
85 
87 
88 
86 
84 
88 
86 
91 
85 
77 
77 
83 
91 
100 
101 
86 
77 
84 
98 
105 
97 
80 
75 
81 
84 
83 
98 
109 
101 
100 
109 
138 
134 
137 
139 
133 
143 
128 
156 
160 
144 
159 
129 
144 
141 
145 
149 
164 
172 
156 
173 
154 
182 
181 
174 
154 
154 
142 
162 
182 
182 
173 
147 
159 
175 
164 
160 
162 
150 
161 
186 
164 
152 
165 
177 
170 
159 
164 
178 
206 
208 
208 
211 
220 
197 
197 
193 
197 
196 
184 
171 
156 
141 
116 
128 
117 
88 
90 
94 
97 
94 
88 
86 
80 
78 
85 
85 
80 
89 
85 
86 
90 
89 
85 
87 
94 
98 
89 
90 
84 
80 
92 
100 
101 
91 
76 
74 
84 
101 
98 
81 
80 
82 
79 
81 
88 
97 
101 
100 
98 
102 
129 
113 
120 
153 
141 
144 
130 
153 
172 
149 
141 
137 
110 
131 
129 
158 
161 
146 
139 
155 
163 
177 
191 
187 
169 
165 
165 
174 
185 
186 
192 
163 
169 
146 
142 
156 
175 
175 
170 
188 
159 
158 
175 
182 
167 
154 
169 
192 
205 
214 
213 
211 
213 
199 
200 
196 
199 
200 
191 
180 
164 
139 
151 
145 
106 
96 
114 
100 
76 
98 
99 
97 
87 
84 
91 
89 
79 
84 
81 
81 
83 
83 
82 
85 
90 
96 
88 
87 
82 
86 
103 
103 
91 
84 
78 
75 
84 
96 
92 
80 
82 
84 
87 
87 
88 
92 
96 
95 
92 
92 
111 
101 
112 
157 
127 
147 
122 
143 
156 
136 
127 
132 
125 
145 
136 
164 
160 
144 
133 
144 
169 
156 
201 
181 
186 
143 
185 
181 
151 
174 
151 
157 
186 
170 
167 
181 
167 
123 
108 
140 
165 
164 
173 
178 
172 
195 
212 
206 
215 
219 
213 
209 
210 
200 
203 
198 
200 
202 
198 
190 
173 
162 
158 
141 
132 
134 
111 
90 
100 
109 
103 
89 
79 
89 
108 
109 
95 
80 
79 
78 
78 
79 
82 
85 
86 
89 
85 
89 
86 
95 
115 
109 
87 
78 
82 
77 
81 
88 
80 
75 
76 
78 
84 
86 
87 
96 
101 
96 
89 
89 
94 
90 
99 
158 
118 
156 
117 
117 
138 
138 
128 
127 
130 
151 
147 
148 
172 
126 
165 
126 
174 
141 
171 
195 
193 
181 
170 
177 
156 
134 
161 
149 
179 
172 
175 
185 
162 
94 
45 
73 
119 
152 
141 
120 
137 
178 
195 
209 
214 
214 
208 
203 
204 
199 
203 
197 
197 
200 
200 
194 
178 
167 
184 
171 
143 
123 
109 
99 
93 
83 
91 
88 
88 
101 
114 
114 
102 
78 
79 
79 
78 
81 
85 
85 
83 
81 
83 
93 
92 
95 
109 
102 
83 
77 
84 
80 
83 
87 
79 
76 
74 
71 
75 
78 
89 
107 
109 
95 
85 
89 
83 
85 
83 
146 
124 
167 
120 
115 
140 
161 
160 
148 
147 
161 
166 
161 
185 
141 
164 
138 
132 
168 
120 
162 
168 
178 
193 
188 
181 
137 
110 
169 
180 
186 
182 
157 
158 
136 
83 
67 
139 
158 
172 
176 
170 
197 
205 
205 
210 
212 
210 
208 
208 
194 
198 
194 
193 
197 
199 
197 
184 
172 
168 
171 
155 
107 
77 
81 
78 
66 
78 
80 
91 
107 
109 
102 
88 
78 
80 
82 
83 
87 
91 
88 
82 
78 
79 
92 
93 
90 
93 
84 
72 
76 
81 
85 
90 
92 
88 
84 
78 
73 
74 
75 
91 
109 
103 
86 
81 
93 
86 
91 
77 
130 
138 
174 
127 
134 
146 
167 
180 
175 
171 
172 
178 
184 
186 
174 
166 
172 
125 
183 
107 
144 
170 
139 
163 
159 
178 
154 
137 
168 
174 
188 
163 
96 
117 
175 
180 
192 
154 
163 
183 
196 
203 
197 
209 
202 
205 
207 
209 
210 
210 
189 
194 
191 
192 
196 
199 
200 
192 
195 
181 
191 
176 
117 
83 
81 
74 
64 
84 
85 
92 
98 
91 
88 
83 
84 
86 
87 
90 
95 
98 
94 
87 
78 
75 
88 
94 
89 
86 
76 
68 
75 
73 
90 
96 
88 
86 
78 
71 
73 
76 
76 
88 
102 
92 
79 
86 
111 
106 
108 
87 
121 
139 
169 
129 
144 
153 
163 
179 
179 
177 
178 
186 
184 
173 
180 
187 
183 
178 
173 
154 
129 
175 
144 
143 
175 
167 
161 
181 
157 
163 
182 
189 
152 
146 
144 
116 
112 
151 
168 
182 
202 
205 
199 
194 
204 
203 
203 
204 
206 
207 
187 
192 
190 
193 
196 
197 
202 
199 
193 
180 
184 
163 
114 
73 
52 
56 
70 
109 
116 
107 
89 
72 
81 
90 
94 
91 
90 
93 
97 
98 
93 
87 
79 
80 
96 
100 
91 
85 
77 
71 
75 
67 
100 
103 
82 
78 
67 
62 
71 
77 
75 
83 
97 
91 
84 
95 
120 
117 
111 
92 
109 
115 
151 
125 
150 
173 
174 
180 
177 
180 
184 
190 
187 
159 
177 
181 
176 
190 
180 
186 
148 
132 
180 
160 
180 
190 
163 
169 
174 
185 
183 
170 
149 
166 
178 
162 
181 
165 
175 
195 
204 
201 
198 
207 
210 
206 
204 
206 
207 
207 
187 
191 
190 
194 
196 
195 
201 
201 
199 
205 
205 
174 
146 
114 
84 
99 
117 
138 
117 
94 
85 
79 
90 
91 
99 
93 
88 
90 
93 
92 
87 
82 
82 
89 
108 
106 
89 
81 
75 
72 
77 
66 
112 
113 
83 
79 
68 
65 
72 
78 
74 
80 
99 
99 
90 
97 
110 
108 
95 
83 
93 
85 
135 
121 
153 
187 
182 
179 
177 
183 
185 
180 
183 
161 
177 
187 
169 
168 
183 
158 
158 
168 
165 
184 
162 
172 
187 
168 
172 
187 
175 
141 
119 
162 
183 
151 
141 
172 
178 
196 
208 
204 
210 
199 
206 
201 
200 
203 
205 
203 
192 
197 
199 
196 
194 
198 
200 
199 
202 
197 
189 
174 
149 
125 
116 
119 
129 
122 
102 
85 
81 
91 
101 
94 
88 
80 
84 
90 
85 
90 
77 
83 
79 
96 
109 
106 
82 
70 
77 
75 
77 
82 
122 
117 
85 
81 
76 
72 
79 
70 
80 
82 
97 
96 
95 
99 
97 
115 
88 
77 
84 
84 
130 
136 
150 
188 
189 
178 
178 
181 
185 
181 
181 
177 
175 
193 
178 
162 
173 
154 
160 
199 
162 
178 
171 
157 
199 
194 
176 
178 
154 
126 
122 
168 
202 
166 
164 
167 
181 
199 
204 
201 
198 
196 
195 
198 
200 
199 
198 
198 
197 
199 
199 
194 
193 
197 
199 
198 
200 
197 
193 
187 
171 
150 
131 
123 
106 
99 
89 
81 
90 
110 
111 
97 
83 
77 
79 
99 
90 
85 
82 
73 
77 
99 
103 
88 
71 
70 
78 
73 
75 
95 
129 
106 
73 
78 
74 
68 
76 
77 
79 
86 
91 
80 
102 
90 
86 
135 
96 
77 
83 
104 
138 
149 
149 
185 
181 
181 
173 
178 
176 
183 
187 
156 
193 
179 
172 
181 
147 
174 
145 
157 
182 
158 
157 
178 
139 
150 
160 
153 
128 
113 
128 
163 
180 
160 
173 
185 
198 
203 
203 
200 
199 
199 
195 
197 
199 
197 
196 
197 
200 
200 
198 
194 
194 
198 
200 
199 
198 
197 
196 
197 
194 
179 
156 
138 
121 
103 
95 
92 
110 
130 
111 
85 
91 
89 
84 
104 
87 
74 
90 
77 
102 
108 
95 
82 
74 
68 
74 
80 
83 
98 
119 
94 
72 
76 
73 
82 
77 
90 
92 
89 
89 
83 
107 
76 
100 
159 
98 
83 
103 
146 
157 
168 
157 
173 
164 
188 
176 
167 
157 
187 
186 
184 
176 
180 
182 
170 
168 
176 
164 
176 
160 
150 
156 
161 
147 
153 
165 
170 
157 
140 
158 
180 
172 
160 
181 
185 
179 
176 
191 
205 
206 
203 
198 
200 
200 
199 
199 
200 
198 
199 
198 
197 
199 
202 
203 
202 
198 
198 
198 
200 
201 
196 
181 
165 
157 
132 
127 
121 
127 
128 
90 
64 
79 
93 
91 
97 
82 
73 
94 
94 
105 
99 
76 
71 
79 
75 
78 
90 
82 
88 
96 
76 
70 
79 
76 
92 
86 
80 
96 
120 
129 
96 
91 
88 
122 
170 
111 
113 
141 
178 
172 
179 
170 
175 
166 
188 
180 
164 
148 
172 
179 
182 
163 
169 
177 
173 
184 
180 
170 
177 
146 
138 
147 
145 
137 
145 
161 
164 
168 
162 
180 
194 
175 
172 
188 
182 
162 
159 
186 
207 
206 
203 
201 
202 
202 
201 
202 
203 
197 
198 
200 
201 
203 
205 
205 
203 
198 
201 
201 
199 
199 
199 
196 
190 
183 
166 
170 
154 
126 
100 
71 
71 
89 
111 
109 
90 
87 
88 
93 
104 
104 
101 
73 
64 
80 
84 
83 
85 
81 
89 
95 
70 
69 
88 
85 
93 
96 
102 
98 
121 
139 
112 
113 
129 
129 
172 
145 
151 
166 
178 
174 
176 
160 
172 
175 
172 
180 
183 
171 
163 
190 
175 
175 
170 
168 
174 
174 
180 
173 
182 
162 
143 
157 
173 
152 
154 
176 
150 
161 
178 
195 
203 
189 
196 
197 
197 
185 
182 
196 
202 
197 
199 
200 
200 
200 
199 
200 
202 
198 
200 
202 
203 
204 
204 
203 
202 
201 
204 
204 
200 
197 
198 
200 
200 
195 
189 
191 
161 
102 
61 
63 
98 
131 
136 
114 
69 
83 
102 
103 
120 
108 
101 
76 
73 
87 
82 
79 
87 
97 
91 
100 
86 
76 
83 
82 
95 
103 
153 
113 
115 
126 
124 
153 
157 
145 
176 
169 
164 
171 
169 
177 
172 
158 
160 
174 
162 
178 
183 
181 
161 
192 
184 
178 
181 
168 
156 
167 
172 
180 
193 
158 
153 
164 
170 
169 
164 
172 
153 
171 
182 
186 
197 
193 
195 
202 
204 
201 
200 
203 
199 
194 
197 
199 
200 
200 
198 
198 
200 
200 
201 
201 
201 
200 
199 
200 
201 
204 
203 
202 
200 
199 
199 
200 
200 
197 
193 
190 
163 
107 
69 
85 
123 
150 
138 
107 
62 
84 
112 
114 
123 
89 
84 
73 
83 
91 
80 
87 
111 
115 
86 
95 
94 
79 
76 
78 
96 
119 
167 
131 
157 
154 
135 
155 
164 
166 
178 
169 
163 
172 
165 
178 
175 
177 
158 
176 
165 
170 
161 
166 
155 
172 
175 
177 
172 
168 
164 
161 
170 
169 
184 
181 
180 
177 
172 
162 
170 
168 
178 
197 
189 
184 
202 
205 
197 
200 
198 
197 
198 
200 
200 
197 
196 
199 
201 
201 
199 
197 
198 
201 
201 
200 
198 
196 
195 
198 
201 
206 
200 
196 
197 
200 
201 
199 
197 
199 
196 
195 
189 
157 
126 
133 
151 
159 
147 
126 
93 
109 
121 
110 
98 
79 
89 
87 
91 
93 
88 
104 
126 
130 
92 
98 
95 
80 
89 
94 
101 
137 
170 
147 
177 
164 
156 
158 
169 
169 
174 
166 
167 
179 
160 
172 
180 
175 
155 
176 
165 
161 
159 
171 
164 
168 
198 
180 
171 
179 
173 
170 
156 
128 
179 
196 
204 
195 
190 
197 
198 
191 
200 
204 
190 
187 
200 
201 
195 
196 
197 
201 
200 
198 
199 
199 
195 
199 
201 
201 
198 
195 
196 
199 
197 
198 
201 
201 
198 
197 
199 
204 
203 
201 
198 
198 
201 
202 
201 
201 
203 
197 
205 
197 
182 
185 
175 
160 
138 
127 
138 
136 
117 
98 
78 
80 
92 
100 
92 
87 
104 
129 
142 
123 
112 
94 
98 
85 
103 
133 
131 
167 
173 
155 
172 
162 
181 
168 
164 
165 
176 
164 
161 
188 
162 
178 
168 
171 
170 
152 
162 
164 
173 
168 
188 
186 
189 
188 
184 
184 
186 
180 
169 
150 
164 
183 
195 
193 
190 
195 
203 
203 
203 
195 
186 
190 
202 
202 
192 
204 
202 
202 
205 
205 
202 
198 
198 
195 
196 
197 
199 
200 
202 
199 
197 
198 
202 
202 
199 
199 
201 
202 
204 
203 
198 
196 
198 
201 
202 
203 
203 
195 
204 
201 
192 
199 
191 
156 
93 
107 
153 
146 
116 
87 
65 
92 
96 
82 
85 
92 
115 
158 
165 
120 
114 
82 
71 
84 
129 
159 
162 
181 
180 
167 
185 
162 
179 
165 
168 
171 
178 
169 
162 
181 
167 
184 
177 
181 
176 
149 
150 
156 
174 
174 
189 
181 
168 
172 
192 
199 
189 
189 
201 
198 
194 
194 
199 
202 
199 
194 
191 
203 
202 
198 
194 
195 
198 
197 
193 
200 
198 
199 
202 
204 
203 
202 
202 
195 
196 
197 
199 
201 
203 
200 
198 
198 
200 
200 
198 
199 
201 
201 
204 
204 
199 
195 
195 
200 
204 
208 
206 
198 
205 
203 
197 
204 
198 
195 
146 
167 
179 
138 
105 
91 
98 
97 
94 
63 
79 
102 
127 
175 
164 
145 
132 
84 
58 
98 
159 
164 
152 
191 
180 
174 
195 
161 
179 
164 
176 
179 
181 
177 
169 
173 
170 
182 
179 
175 
177 
157 
155 
161 
182 
181 
187 
193 
183 
184 
197 
201 
193 
193 
200 
200 
195 
193 
196 
197 
196 
195 
197 
200 
199 
200 
201 
199 
194 
193 
196 
201 
200 
199 
201 
201 
201 
200 
201 
198 
198 
198 
199 
199 
199 
201 
198 
196 
195 
195 
194 
195 
198 
201 
203 
203 
200 
196 
196 
201 
205 
209 
207 
202 
205 
200 
195 
200 
196 
191 
194 
206 
192 
160 
123 
92 
99 
124 
137 
118 
120 
117 
132 
180 
173 
161 
157 
133 
105 
133 
177 
168 
158 
195 
172 
171 
199 
161 
181 
165 
181 
183 
180 
184 
181 
175 
175 
179 
181 
180 
190 
184 
184 
185 
196 
193 
195 
194 
197 
197 
194 
196 
200 
200 
195 
198 
199 
201 
201 
196 
191 
193 
199 
196 
196 
199 
201 
198 
194 
195 
198 
201 
201 
201 
201 
201 
200 
199 
199 
201 
200 
199 
198 
198 
197 
199 
196 
192 
190 
189 
190 
193 
196 
202 
201 
201 
200 
199 
200 
203 
206 
204 
204 
203 
203 
197 
194 
200 
200 
201 
210 
196 
188 
192 
170 
150 
160 
183 
192 
183 
164 
144 
157 
188 
180 
180 
170 
171 
156 
167 
186 
171 
162 
195 
164 
165 
197 
165 
185 
171 
183 
186 
179 
189 
195 
186 
187 
188 
195 
198 
201 
196 
196 
193 
197 
195 
199 
194 
192 
193 
195 
196 
196 
196 
198 
204 
201 
200 
202 
200 
195 
192 
193 
196 
198 
198 
195 
195 
198 
200 
199 
196 
197 
199 
201 
202 
203 
203 
203 
201 
201 
200 
200 
200 
200 
195 
192 
190 
188 
189 
191 
195 
197 
202 
200 
199 
201 
202 
203 
204 
205 
204 
203 
204 
201 
194 
194 
201 
205 
198 
204 
195 
199 
208 
201 
191 
184 
206 
199 
196 
179 
170 
192 
200 
179 
200 
174 
179 
176 
183 
187 
173 
163 
190 
160 
161 
194 
174 
191 
183 
189 
196 
189 
197 
204 
198 
198 
201 
206 
201 
194 
190 
193 
193 
193 
192 
193 
198 
196 
196 
198 
196 
192 
191 
193 
196 
193 
192 
195 
197 
196 
196 
198 
200 
201 
198 
192 
194 
202 
204 
199 
194 
197 
199 
200 
202 
203 
204 
204 
203 
202 
201 
200 
199 
198 
192 
192 
191 
191 
193 
196 
198 
200 
201 
199 
199 
202 
203 
203 
203 
204 
205 
203 
206 
201 
194 
196 
199 
202 
205 
200 
196 
194 
202 
210 
199 
184 
194 
190 
200 
194 
184 
201 
209 
193 
199 
186 
197 
195 
194 
188 
189 
196 
193 
172 
172 
200 
187 
197 
196 
196 
202 
201 
203 
203 
203 
202 
207 
204 
196 
192 
194 
198 
199 
198 
197 
194 
194 
197 
199 
198 
197 
197 
197 
196 
198 
197 
198 
199 
196 
193 
195 
200 
201 
201 
197 
192 
195 
202 
204 
200 
196 
199 
200 
199 
199 
201 
202 
201 
205 
204 
201 
199 
196 
195 
191 
193 
194 
196 
197 
200 
201 
201 
200 
199 
200 
202 
203 
201 
202 
204 
200 
199 
204 
202 
197 
198 
197 
197 
194 
190 
198 
192 
197 
204 
198 
215 
204 
193 
196 
197 
189 
200 
211 
194 
208 
202 
207 
203 
207 
197 
196 
201 
206 
192 
191 
212 
198 
200 
204 
200 
197 
203 
203 
198 
203 
203 
209 
198 
192 
193 
200 
200 
197 
195 
198 
195 
196 
195 
197 
201 
200 
194 
194 
197 
199 
196 
196 
198 
198 
195 
195 
197 
200 
198 
194 
192 
195 
201 
202 
200 
196 
198 
199 
197 
197 
200 
202 
202 
204 
203 
201 
199 
197 
197 
191 
197 
198 
195 
196 
196 
200 
206 
205 
199 
199 
202 
200 
199 
200 
200 
196 
202 
206 
203 
198 
197 
197 
198 
198 
202 
207 
207 
204 
202 
202 
204 
204 
207 
187 
198 
200 
190 
207 
201 
205 
202 
202 
205 
203 
197 
198 
204 
203 
205 
199 
202 
201 
201 
209 
201 
196 
201 
204 
202 
199 
198 
199 
199 
195 
196 
196 
194 
192 
192 
195 
198 
192 
193 
196 
201 
201 
199 
197 
198 
198 
198 
198 
198 
196 
195 
195 
196 
201 
198 
195 
193 
194 
197 
201 
203 
201 
200 
199 
197 
196 
197 
198 
199 
201 
197 
196 
200 
203 
201 
194 
197 
196 
194 
197 
197 
198 
201 
204 
199 
199 
203 
200 
198 
198 
197 
197 
202 
206 
205 
202 
201 
200 
200 
191 
193 
197 
200 
202 
203 
203 
204 
204 
207 
194 
203 
203 
195 
206 
202 
202 
197 
197 
201 
202 
198 
198 
203 
200 
201 
197 
199 
199 
200 
207 
200 
200 
203 
205 
202 
200 
200 
201 
202 
198 
199 
199 
197 
195 
195 
196 
198 
193 
193 
195 
199 
202 
200 
198 
198 
196 
196 
196 
196 
196 
196 
198 
200 
202 
199 
196 
193 
194 
196 
198 
200 
200 
200 
198 
197 
196 
197 
198 
199 
199 
196 
196 
200 
203 
203 
195 
195 
193 
193 
199 
199 
197 
197 
203 
198 
200 
204 
201 
197 
195 
193 
197 
201 
204 
205 
204 
204 
203 
201 
199 
199 
199 
202 
205 
207 
206 
204 
203 
205 
201 
206 
205 
199 
202 
201 
200 
196 
195 
199 
201 
199 
199 
202 
199 
199 
196 
198 
198 
199 
205 
199 
202 
204 
204 
201 
199 
200 
202 
203 
201 
200 
200 
199 
198 
197 
196 
196 
192 
190 
191 
195 
199 
199 
197 
195 
195 
196 
196 
196 
195 
196 
199 
201 
200 
198 
196 
194 
194 
195 
197 
198 
199 
199 
198 
197 
196 
197 
198 
199 
200 
197 
196 
199 
200 
199 
192 
192 
190 
193 
200 
200 
197 
198 
202 
198 
201 
204 
201 
196 
195 
193 
197 
198 
200 
201 
203 
203 
202 
201 
203 
201 
199 
200 
202 
202 
199 
196 
201 
201 
205 
206 
204 
200 
197 
200 
202 
200 
200 
201 
201 
200 
200 
202 
202 
199 
198 
199 
199 
201 
204 
200 
201 
203 
202 
200 
199 
200 
202 
202 
200 
199 
198 
198 
198 
197 
195 
193 
192 
191 
191 
193 
195 
196 
195 
195 
197 
199 
199 
197 
195 
195 
196 
197 
197 
196 
195 
195 
195 
196 
198 
200 
200 
200 
199 
198 
197 
197 
198 
199 
200 
197 
196 
198 
199 
198 
189 
190 
189 
193 
200 
200 
197 
199 
203 
199 
201 
204 
200 
197 
196 
195 
199 
198 
197 
198 
200 
201 
200 
200 
199 
198 
197 
198 
199 
199 
198 
197 
200 
199 
206 
204 
201 
200 
195 
199 
202 
203 
204 
204 
201 
199 
201 
204 
205 
200 
201 
201 
200 
202 
202 
201 
200 
201 
201 
200 
200 
201 
201 
200 
198 
197 
196 
197 
198 
197 
194 
192 
193 
195 
196 
196 
195 
195 
196 
197 
198 
201 
202 
199 
195 
194 
194 
193 
196 
196 
196 
196 
196 
197 
200 
202 
203 
202 
201 
199 
198 
197 
197 
198 
198 
196 
196 
199 
201 
202 
