P2
# Created by MsrVolt
121 62
255
215 
218 
220 
221 
221 
221 
220 
217 
216 
218 
222 
220 
223 
225 
218 
220 
223 
218 
216 
220 
220 
216 
217 
221 
223 
221 
215 
210 
215 
222 
219 
222 
223 
232 
214 
218 
223 
219 
215 
220 
222 
221 
223 
225 
221 
222 
219 
202 
222 
224 
217 
215 
226 
204 
217 
215 
218 
223 
225 
216 
221 
226 
216 
219 
223 
227 
228 
226 
225 
225 
222 
217 
225 
209 
231 
222 
230 
219 
214 
214 
221 
224 
225 
224 
222 
216 
214 
219 
222 
221 
215 
220 
220 
224 
220 
224 
226 
220 
220 
224 
224 
225 
226 
223 
230 
225 
221 
220 
221 
222 
224 
228 
227 
226 
226 
228 
226 
221 
216 
214 
213 
216 
218 
220 
220 
221 
222 
222 
220 
217 
218 
221 
218 
221 
225 
220 
224 
222 
218 
217 
221 
222 
218 
218 
222 
219 
222 
221 
218 
218 
220 
219 
222 
222 
221 
224 
226 
221 
217 
225 
212 
212 
213 
215 
214 
208 
214 
225 
223 
221 
223 
218 
220 
232 
222 
216 
218 
221 
220 
219 
223 
228 
219 
211 
217 
218 
220 
218 
214 
215 
218 
215 
209 
211 
197 
216 
212 
214 
214 
204 
217 
220 
218 
221 
220 
214 
214 
219 
219 
223 
222 
223 
222 
224 
221 
220 
218 
220 
217 
219 
222 
220 
222 
228 
231 
227 
226 
225 
223 
221 
221 
225 
229 
222 
220 
221 
225 
224 
218 
214 
214 
214 
217 
219 
219 
219 
219 
221 
221 
220 
217 
218 
220 
215 
218 
222 
220 
226 
225 
220 
220 
224 
225 
221 
219 
221 
219 
221 
223 
220 
220 
219 
221 
221 
224 
219 
220 
220 
211 
217 
232 
224 
217 
214 
216 
218 
216 
217 
216 
210 
211 
214 
212 
208 
211 
213 
210 
226 
225 
223 
213 
213 
218 
213 
213 
221 
225 
223 
218 
216 
220 
225 
221 
214 
218 
214 
215 
219 
225 
219 
211 
219 
222 
216 
219 
218 
213 
220 
227 
219 
221 
220 
221 
218 
216 
221 
224 
220 
219 
216 
218 
221 
220 
223 
229 
231 
225 
225 
224 
222 
222 
223 
225 
225 
220 
216 
217 
222 
221 
214 
211 
213 
218 
218 
219 
219 
218 
218 
219 
219 
217 
219 
221 
223 
218 
219 
222 
219 
225 
225 
221 
220 
224 
225 
221 
217 
217 
220 
218 
218 
217 
220 
218 
224 
220 
214 
222 
215 
220 
216 
219 
213 
218 
214 
211 
214 
215 
213 
211 
207 
208 
216 
216 
222 
218 
210 
209 
213 
214 
208 
207 
207 
206 
208 
202 
194 
204 
207 
208 
209 
210 
206 
201 
201 
204 
206 
223 
202 
206 
214 
197 
208 
209 
216 
215 
215 
214 
215 
224 
224 
213 
214 
217 
214 
217 
209 
225 
225 
222 
220 
216 
217 
222 
226 
229 
230 
226 
224 
223 
221 
221 
223 
226 
223 
218 
220 
215 
216 
223 
223 
217 
215 
219 
219 
217 
219 
220 
220 
220 
220 
218 
216 
222 
225 
228 
223 
222 
223 
218 
223 
219 
216 
216 
221 
224 
221 
217 
215 
217 
215 
217 
217 
220 
214 
227 
221 
218 
220 
216 
218 
220 
214 
204 
211 
208 
209 
216 
214 
212 
215 
217 
229 
206 
189 
189 
190 
191 
197 
227 
206 
201 
193 
195 
184 
178 
170 
156 
173 
177 
176 
179 
178 
162 
143 
143 
156 
181 
210 
174 
172 
169 
169 
175 
190 
204 
213 
212 
207 
210 
215 
212 
209 
199 
207 
211 
213 
214 
223 
222 
216 
219 
217 
220 
224 
226 
229 
229 
224 
222 
222 
223 
223 
224 
224 
222 
219 
221 
217 
218 
224 
225 
221 
219 
223 
221 
215 
218 
221 
222 
222 
223 
221 
218 
221 
224 
227 
222 
222 
222 
216 
219 
216 
214 
215 
220 
225 
225 
221 
218 
213 
214 
220 
221 
221 
210 
228 
220 
223 
212 
220 
215 
218 
215 
219 
219 
221 
196 
176 
167 
183 
200 
192 
193 
150 
127 
121 
119 
124 
142 
196 
176 
171 
176 
172 
147 
145 
156 
153 
161 
166 
150 
143 
148 
148 
139 
139 
148 
184 
203 
152 
153 
150 
171 
142 
161 
181 
189 
191 
186 
185 
188 
189 
187 
177 
187 
195 
189 
201 
203 
210 
211 
218 
220 
225 
224 
218 
218 
221 
220 
219 
222 
226 
227 
224 
220 
222 
225 
224 
221 
220 
223 
221 
216 
213 
214 
212 
215 
218 
221 
222 
223 
223 
222 
219 
219 
220 
223 
219 
221 
223 
217 
220 
220 
217 
217 
222 
226 
226 
220 
216 
220 
214 
217 
219 
222 
209 
228 
215 
207 
213 
217 
215 
209 
214 
200 
201 
186 
146 
109 
92 
118 
144 
129 
123 
105 
95 
97 
92 
91 
105 
136 
122 
122 
142 
137 
133 
141 
148 
155 
149 
137 
116 
101 
107 
122 
135 
149 
161 
189 
200 
131 
140 
161 
170 
143 
148 
163 
155 
161 
166 
162 
169 
170 
152 
154 
172 
167 
164 
166 
175 
181 
201 
208 
214 
221 
219 
212 
212 
215 
215 
219 
219 
223 
227 
226 
221 
223 
228 
226 
225 
224 
223 
220 
216 
212 
209 
204 
216 
219 
221 
221 
222 
222 
220 
218 
220 
220 
222 
218 
222 
226 
222 
225 
224 
220 
218 
221 
224 
221 
215 
209 
230 
215 
209 
212 
221 
212 
229 
209 
203 
232 
203 
196 
177 
195 
156 
176 
101 
97 
98 
90 
102 
113 
95 
95 
104 
97 
96 
92 
96 
116 
120 
112 
132 
132 
108 
131 
135 
107 
121 
126 
143 
131 
114 
101 
97 
112 
141 
167 
178 
197 
115 
128 
172 
151 
172 
170 
171 
144 
152 
170 
168 
180 
177 
138 
138 
169 
149 
160 
138 
159 
149 
182 
193 
199 
209 
214 
214 
216 
217 
214 
222 
215 
214 
224 
229 
226 
224 
226 
225 
228 
228 
226 
225 
225 
221 
217 
216 
217 
216 
218 
221 
221 
218 
216 
216 
219 
219 
217 
218 
221 
219 
219 
225 
225 
217 
217 
223 
223 
221 
217 
213 
222 
228 
215 
228 
202 
207 
197 
186 
158 
179 
183 
168 
149 
189 
150 
165 
107 
90 
105 
83 
107 
97 
100 
90 
97 
101 
95 
90 
93 
106 
134 
102 
116 
113 
112 
102 
117 
112 
110 
121 
139 
141 
137 
123 
96 
91 
154 
157 
175 
163 
101 
139 
158 
156 
154 
170 
150 
150 
159 
153 
153 
163 
151 
139 
155 
165 
144 
150 
155 
150 
147 
166 
184 
200 
187 
183 
168 
181 
213 
217 
225 
227 
217 
224 
230 
216 
227 
222 
226 
226 
226 
225 
224 
222 
220 
219 
216 
215 
215 
216 
218 
218 
216 
215 
217 
219 
219 
216 
215 
218 
218 
218 
223 
224 
219 
220 
223 
219 
215 
216 
216 
213 
226 
212 
229 
179 
176 
169 
165 
131 
135 
160 
151 
130 
177 
148 
125 
99 
84 
104 
90 
131 
93 
92 
91 
92 
93 
91 
83 
91 
103 
122 
114 
100 
111 
112 
118 
124 
119 
141 
135 
145 
138 
134 
140 
127 
129 
132 
158 
181 
157 
124 
157 
155 
149 
156 
159 
121 
136 
153 
132 
135 
133 
133 
141 
171 
147 
150 
163 
157 
139 
148 
136 
147 
186 
155 
129 
98 
110 
183 
209 
224 
223 
225 
222 
222 
221 
225 
228 
226 
225 
224 
222 
221 
221 
220 
220 
216 
216 
216 
217 
218 
216 
215 
216 
219 
220 
221 
216 
213 
216 
218 
218 
221 
217 
213 
215 
218 
215 
215 
218 
219 
204 
203 
202 
196 
147 
151 
146 
146 
128 
135 
147 
133 
115 
141 
141 
97 
85 
91 
91 
99 
138 
82 
88 
87 
85 
87 
90 
80 
87 
95 
104 
121 
108 
102 
115 
148 
146 
126 
146 
145 
155 
129 
115 
139 
150 
167 
142 
158 
195 
157 
149 
179 
147 
148 
158 
153 
112 
114 
117 
95 
107 
141 
148 
137 
169 
134 
163 
160 
153 
134 
160 
143 
126 
185 
145 
124 
84 
74 
152 
189 
202 
204 
223 
218 
214 
226 
220 
225 
225 
223 
221 
219 
219 
219 
220 
221 
216 
217 
219 
220 
220 
217 
216 
218 
221 
222 
223 
218 
214 
217 
220 
220 
220 
218 
212 
213 
219 
221 
220 
217 
212 
206 
178 
191 
157 
134 
144 
132 
120 
127 
145 
123 
112 
125 
120 
138 
103 
75 
104 
74 
109 
115 
72 
86 
80 
79 
84 
89 
83 
82 
84 
92 
108 
107 
94 
123 
152 
140 
115 
114 
132 
153 
130 
131 
162 
159 
158 
155 
166 
192 
138 
136 
178 
153 
167 
153 
130 
124 
106 
100 
91 
81 
145 
159 
132 
154 
134 
172 
138 
138 
125 
135 
128 
123 
165 
120 
124 
93 
72 
117 
158 
189 
198 
221 
221 
217 
229 
223 
224 
223 
222 
220 
218 
217 
218 
219 
219 
216 
215 
218 
221 
221 
219 
219 
222 
224 
222 
223 
218 
216 
221 
222 
219 
219 
217 
214 
217 
220 
216 
206 
192 
179 
183 
145 
151 
136 
132 
131 
122 
97 
120 
123 
100 
97 
136 
119 
120 
99 
76 
96 
81 
115 
91 
71 
78 
77 
77 
80 
81 
86 
83 
85 
91 
88 
95 
114 
130 
124 
111 
104 
101 
114 
133 
127 
140 
173 
163 
155 
143 
162 
180 
134 
141 
164 
155 
154 
132 
115 
131 
112 
109 
102 
85 
141 
155 
136 
163 
135 
160 
110 
109 
115 
109 
117 
118 
130 
90 
99 
81 
79 
95 
142 
185 
205 
219 
222 
218 
218 
224 
222 
222 
221 
220 
219 
218 
217 
216 
216 
216 
213 
217 
219 
219 
220 
222 
224 
225 
221 
219 
216 
217 
223 
222 
218 
218 
216 
216 
219 
215 
199 
180 
162 
148 
155 
128 
111 
134 
126 
109 
115 
96 
117 
95 
104 
99 
125 
117 
99 
95 
84 
73 
106 
112 
84 
76 
66 
77 
80 
80 
77 
88 
88 
94 
96 
84 
109 
136 
110 
95 
96 
99 
104 
101 
128 
143 
135 
132 
135 
171 
132 
153 
172 
132 
132 
117 
129 
118 
122 
133 
135 
144 
142 
100 
99 
137 
153 
145 
169 
132 
153 
114 
91 
104 
105 
114 
104 
115 
113 
113 
103 
115 
107 
141 
174 
199 
207 
216 
224 
208 
223 
219 
222 
222 
222 
221 
220 
218 
215 
214 
213 
217 
219 
219 
218 
219 
222 
224 
224 
221 
217 
213 
218 
224 
221 
217 
220 
224 
218 
211 
197 
177 
159 
145 
133 
141 
124 
111 
134 
121 
101 
109 
103 
104 
89 
107 
102 
112 
113 
98 
101 
87 
70 
121 
99 
79 
78 
64 
72 
78 
82 
82 
85 
84 
93 
89 
99 
126 
128 
88 
85 
93 
92 
94 
96 
139 
163 
132 
96 
103 
161 
139 
150 
150 
112 
92 
75 
106 
109 
120 
145 
137 
156 
157 
105 
104 
127 
146 
154 
158 
139 
153 
129 
94 
92 
95 
82 
89 
103 
150 
142 
146 
155 
137 
146 
175 
185 
182 
194 
229 
213 
226 
221 
222 
222 
223 
223 
221 
219 
216 
214 
214 
222 
222 
221 
218 
218 
221 
223 
222 
223 
216 
212 
219 
226 
222 
218 
222 
228 
210 
188 
167 
147 
135 
125 
115 
104 
93 
117 
118 
118 
109 
107 
108 
95 
103 
97 
99 
110 
104 
94 
84 
84 
84 
119 
86 
69 
76 
70 
64 
72 
83 
89 
79 
73 
80 
73 
113 
127 
115 
98 
95 
92 
93 
87 
107 
133 
132 
94 
80 
107 
149 
156 
140 
122 
116 
101 
97 
101 
101 
101 
140 
134 
113 
110 
110 
121 
142 
148 
156 
164 
157 
140 
114 
94 
94 
106 
78 
88 
90 
154 
140 
161 
170 
162 
162 
185 
169 
149 
158 
216 
210 
223 
220 
222 
223 
224 
224 
222 
220 
217 
215 
220 
216 
222 
223 
220 
219 
217 
215 
216 
215 
215 
213 
223 
223 
211 
231 
216 
210 
193 
183 
161 
151 
137 
123 
109 
102 
89 
118 
115 
112 
114 
110 
108 
100 
98 
102 
94 
100 
93 
91 
80 
81 
81 
114 
82 
70 
72 
71 
65 
71 
89 
92 
84 
77 
74 
91 
123 
128 
96 
87 
98 
92 
82 
87 
93 
106 
95 
82 
95 
122 
149 
116 
127 
135 
130 
126 
122 
112 
82 
108 
104 
107 
113 
131 
113 
111 
137 
139 
150 
140 
142 
141 
115 
86 
93 
103 
86 
85 
104 
158 
144 
159 
164 
150 
152 
181 
171 
154 
146 
206 
213 
215 
218 
221 
219 
220 
218 
220 
219 
212 
216 
215 
213 
222 
224 
220 
220 
218 
212 
210 
208 
220 
221 
218 
215 
216 
223 
201 
180 
172 
170 
150 
140 
139 
110 
97 
99 
97 
120 
113 
107 
108 
104 
96 
101 
99 
104 
94 
87 
80 
86 
81 
80 
82 
106 
77 
66 
67 
72 
66 
74 
90 
92 
82 
78 
79 
98 
128 
118 
85 
82 
101 
93 
75 
77 
87 
85 
90 
96 
106 
106 
103 
88 
117 
132 
133 
132 
131 
118 
90 
85 
98 
96 
111 
127 
131 
123 
129 
146 
147 
124 
126 
150 
112 
83 
100 
115 
100 
86 
97 
144 
150 
154 
158 
136 
140 
164 
176 
172 
173 
217 
217 
220 
216 
222 
220 
220 
216 
219 
220 
212 
214 
211 
213 
222 
223 
218 
219 
219 
215 
210 
211 
221 
222 
218 
217 
222 
208 
187 
161 
149 
148 
136 
127 
129 
93 
92 
93 
106 
122 
110 
98 
96 
100 
90 
95 
93 
104 
101 
83 
77 
83 
77 
78 
85 
92 
71 
62 
62 
74 
70 
75 
88 
89 
81 
78 
81 
96 
118 
101 
78 
80 
96 
90 
79 
81 
86 
87 
93 
96 
97 
88 
79 
86 
110 
122 
116 
114 
120 
110 
90 
64 
104 
115 
96 
101 
131 
134 
126 
142 
158 
119 
105 
147 
122 
87 
107 
139 
114 
75 
90 
122 
141 
139 
160 
137 
146 
151 
182 
188 
204 
219 
204 
220 
225 
229 
227 
225 
220 
223 
226 
216 
214 
210 
217 
224 
221 
214 
216 
222 
222 
220 
221 
223 
221 
218 
217 
221 
189 
169 
156 
143 
132 
119 
115 
118 
95 
96 
88 
102 
108 
105 
95 
94 
101 
87 
95 
89 
100 
105 
80 
75 
79 
70 
76 
88 
80 
68 
61 
59 
76 
74 
71 
80 
80 
76 
78 
82 
89 
99 
89 
81 
82 
82 
79 
87 
93 
83 
78 
88 
90 
87 
92 
95 
108 
100 
101 
97 
94 
95 
93 
94 
71 
98 
111 
89 
109 
139 
145 
124 
114 
148 
119 
90 
127 
133 
96 
114 
151 
119 
80 
100 
115 
145 
140 
165 
146 
173 
166 
187 
175 
205 
202 
183 
213 
230 
233 
232 
230 
224 
227 
229 
218 
213 
210 
219 
224 
219 
211 
214 
222 
225 
227 
226 
223 
222 
217 
208 
202 
165 
152 
143 
135 
120 
106 
111 
112 
114 
105 
88 
91 
91 
105 
104 
104 
105 
82 
104 
94 
101 
106 
69 
67 
73 
70 
78 
94 
73 
68 
63 
59 
74 
75 
72 
72 
69 
69 
76 
83 
89 
93 
86 
84 
83 
75 
71 
88 
94 
76 
81 
92 
90 
78 
82 
87 
106 
88 
83 
91 
92 
83 
84 
100 
92 
75 
85 
111 
141 
150 
143 
111 
92 
122 
102 
83 
108 
117 
101 
128 
135 
127 
102 
123 
124 
152 
145 
157 
145 
188 
181 
195 
159 
196 
190 
188 
218 
229 
229 
229 
228 
223 
225 
225 
212 
208 
208 
217 
222 
219 
214 
215 
219 
223 
226 
226 
212 
218 
223 
202 
170 
143 
150 
127 
108 
99 
108 
116 
104 
119 
118 
88 
88 
98 
120 
112 
109 
107 
85 
105 
101 
108 
116 
68 
63 
68 
73 
80 
97 
69 
69 
64 
61 
70 
75 
84 
74 
65 
65 
73 
82 
90 
93 
83 
77 
81 
82 
77 
84 
89 
77 
87 
88 
82 
71 
70 
69 
87 
81 
81 
78 
81 
82 
83 
86 
95 
71 
81 
119 
129 
149 
148 
106 
90 
99 
85 
89 
104 
93 
105 
145 
116 
138 
123 
146 
141 
142 
135 
153 
163 
192 
148 
187 
156 
195 
185 
200 
223 
221 
223 
223 
225 
221 
222 
218 
207 
207 
208 
214 
219 
220 
218 
218 
217 
219 
225 
222 
208 
217 
217 
189 
148 
130 
132 
116 
89 
88 
109 
108 
100 
113 
119 
96 
92 
108 
130 
111 
109 
103 
79 
107 
106 
111 
122 
72 
64 
63 
72 
79 
96 
66 
68 
65 
64 
66 
78 
87 
74 
66 
70 
75 
79 
85 
88 
78 
72 
82 
92 
84 
81 
84 
81 
66 
68 
72 
78 
82 
76 
77 
75 
78 
66 
69 
80 
78 
71 
85 
82 
87 
101 
104 
135 
139 
103 
94 
93 
96 
100 
102 
94 
110 
143 
127 
135 
137 
145 
148 
137 
129 
146 
180 
185 
122 
177 
148 
185 
171 
200 
217 
215 
220 
220 
224 
222 
221 
215 
208 
214 
213 
214 
218 
219 
219 
219 
216 
219 
228 
215 
221 
226 
197 
167 
145 
127 
94 
109 
94 
96 
97 
85 
107 
113 
106 
112 
93 
103 
123 
107 
113 
98 
60 
118 
111 
106 
114 
66 
60 
56 
66 
76 
93 
62 
67 
65 
67 
66 
81 
76 
66 
66 
76 
79 
79 
81 
83 
76 
73 
86 
95 
83 
77 
80 
77 
69 
72 
76 
77 
78 
73 
68 
69 
66 
69 
77 
78 
72 
75 
82 
82 
94 
95 
105 
104 
89 
84 
100 
120 
121 
107 
94 
111 
114 
126 
149 
120 
139 
115 
134 
141 
129 
119 
159 
158 
153 
191 
141 
175 
166 
207 
222 
224 
219 
219 
223 
223 
221 
214 
209 
220 
217 
218 
217 
217 
220 
220 
219 
222 
226 
211 
220 
215 
186 
162 
121 
123 
106 
118 
104 
88 
89 
75 
83 
122 
118 
113 
100 
110 
111 
111 
124 
97 
51 
109 
117 
97 
98 
69 
67 
54 
67 
74 
75 
74 
65 
63 
66 
64 
70 
72 
62 
61 
77 
79 
80 
70 
77 
69 
80 
89 
89 
83 
72 
84 
72 
69 
75 
79 
79 
77 
75 
71 
68 
67 
66 
74 
79 
72 
74 
82 
84 
86 
91 
95 
94 
90 
87 
100 
120 
119 
99 
91 
101 
114 
132 
145 
143 
147 
125 
138 
144 
124 
101 
145 
152 
165 
203 
161 
187 
183 
203 
215 
228 
220 
220 
215 
220 
219 
220 
216 
222 
222 
214 
218 
222 
223 
224 
223 
218 
212 
211 
226 
206 
192 
164 
118 
123 
127 
134 
112 
96 
99 
77 
77 
118 
127 
115 
116 
122 
105 
119 
132 
104 
55 
117 
129 
91 
92 
75 
71 
63 
67 
68 
75 
77 
70 
62 
63 
59 
68 
72 
64 
66 
69 
74 
72 
72 
73 
76 
83 
91 
93 
89 
80 
80 
73 
74 
75 
75 
73 
73 
74 
75 
73 
69 
67 
73 
77 
73 
75 
81 
81 
81 
85 
88 
88 
86 
84 
96 
115 
115 
112 
110 
108 
116 
132 
145 
158 
141 
138 
137 
149 
136 
100 
133 
147 
155 
195 
175 
196 
198 
211 
207 
212 
222 
223 
219 
220 
218 
216 
215 
223 
224 
214 
221 
222 
219 
222 
227 
221 
210 
216 
232 
196 
169 
163 
119 
133 
143 
138 
117 
105 
107 
88 
81 
112 
128 
113 
129 
132 
101 
130 
147 
122 
69 
130 
147 
92 
88 
82 
73 
68 
62 
62 
68 
69 
66 
59 
64 
59 
69 
73 
69 
69 
67 
66 
66 
70 
68 
79 
83 
85 
83 
79 
79 
74 
80 
78 
75 
70 
67 
68 
72 
73 
71 
70 
68 
71 
76 
75 
76 
80 
79 
78 
81 
82 
82 
81 
80 
90 
106 
113 
124 
130 
117 
119 
131 
135 
151 
119 
147 
138 
152 
150 
119 
136 
152 
155 
170 
158 
177 
198 
202 
198 
208 
222 
224 
225 
222 
220 
212 
213 
221 
221 
216 
221 
222 
218 
220 
226 
223 
214 
216 
227 
172 
123 
134 
124 
127 
128 
117 
113 
107 
109 
105 
94 
102 
118 
114 
133 
133 
104 
129 
151 
130 
75 
131 
153 
102 
90 
90 
76 
68 
62 
66 
65 
58 
58 
56 
68 
64 
73 
75 
74 
73 
79 
69 
68 
71 
70 
77 
82 
81 
71 
66 
75 
67 
79 
75 
71 
66 
66 
70 
72 
72 
69 
70 
69 
72 
76 
76 
76 
77 
77 
81 
82 
80 
78 
78 
77 
84 
97 
112 
122 
137 
128 
128 
140 
133 
131 
96 
143 
143 
150 
155 
150 
156 
169 
151 
158 
145 
157 
190 
185 
199 
210 
219 
223 
227 
225 
224 
214 
213 
217 
219 
214 
218 
222 
222 
221 
221 
218 
215 
215 
216 
157 
109 
117 
140 
117 
115 
96 
108 
110 
113 
121 
103 
89 
113 
122 
127 
124 
110 
116 
140 
127 
73 
115 
141 
113 
99 
97 
80 
71 
69 
71 
66 
57 
55 
55 
67 
66 
76 
79 
74 
82 
94 
88 
72 
80 
77 
78 
84 
80 
69 
67 
79 
65 
67 
70 
66 
63 
66 
71 
74 
74 
72 
71 
73 
75 
77 
77 
74 
72 
73 
80 
80 
78 
76 
76 
76 
83 
94 
97 
100 
124 
130 
129 
144 
140 
120 
105 
136 
147 
147 
148 
163 
164 
182 
158 
169 
147 
143 
179 
169 
211 
220 
218 
221 
223 
227 
227 
221 
217 
221 
222 
212 
214 
217 
219 
218 
216 
219 
224 
212 
190 
163 
122 
135 
141 
121 
118 
95 
112 
120 
119 
127 
110 
89 
115 
124 
113 
108 
108 
105 
130 
131 
88 
104 
127 
120 
113 
106 
82 
77 
73 
64 
62 
63 
56 
58 
63 
69 
82 
81 
69 
87 
101 
104 
72 
87 
80 
80 
80 
72 
64 
68 
81 
73 
66 
67 
63 
60 
61 
65 
67 
69 
70 
74 
77 
76 
76 
77 
72 
68 
71 
75 
76 
74 
72 
74 
76 
83 
93 
89 
89 
114 
130 
127 
140 
149 
127 
137 
138 
150 
146 
138 
150 
150 
177 
164 
160 
135 
141 
187 
162 
205 
214 
219 
222 
218 
226 
225 
227 
221 
227 
223 
215 
215 
216 
216 
214 
214 
220 
227 
208 
171 
157 
141 
136 
125 
111 
112 
102 
114 
125 
111 
115 
122 
103 
105 
127 
105 
96 
96 
98 
116 
134 
104 
108 
124 
121 
128 
119 
83 
90 
73 
64 
62 
69 
60 
69 
67 
77 
89 
85 
74 
84 
108 
102 
76 
86 
79 
75 
72 
66 
62 
64 
67 
74 
69 
64 
61 
58 
58 
59 
61 
66 
70 
76 
77 
73 
72 
76 
73 
68 
72 
73 
75 
72 
70 
71 
73 
80 
90 
92 
96 
109 
130 
129 
134 
152 
139 
153 
146 
150 
145 
135 
134 
134 
160 
154 
148 
136 
144 
194 
164 
190 
194 
219 
223 
214 
227 
220 
227 
218 
226 
219 
217 
220 
223 
223 
219 
216 
215 
216 
216 
181 
141 
166 
113 
121 
93 
101 
101 
110 
122 
94 
96 
132 
117 
86 
136 
109 
94 
83 
91 
99 
123 
103 
113 
125 
118 
139 
130 
87 
105 
76 
78 
70 
77 
65 
80 
76 
86 
93 
91 
86 
79 
119 
93 
85 
81 
78 
66 
67 
71 
71 
63 
49 
66 
65 
59 
57 
58 
60 
62 
64 
70 
77 
76 
76 
69 
69 
76 
75 
71 
75 
76 
77 
74 
70 
69 
70 
76 
86 
84 
92 
93 
116 
123 
122 
142 
136 
149 
152 
149 
144 
138 
130 
130 
146 
159 
170 
160 
126 
162 
161 
197 
202 
218 
224 
214 
229 
216 
224 
210 
219 
216 
215 
216 
218 
219 
218 
216 
215 
214 
220 
141 
131 
151 
107 
91 
76 
92 
99 
114 
133 
106 
87 
119 
130 
108 
131 
106 
83 
80 
95 
87 
122 
118 
122 
121 
120 
131 
118 
85 
97 
90 
89 
91 
92 
82 
83 
80 
88 
94 
98 
81 
75 
115 
94 
92 
92 
89 
80 
78 
76 
81 
73 
61 
65 
66 
61 
57 
59 
65 
68 
66 
68 
73 
75 
73 
71 
71 
72 
75 
77 
78 
79 
81 
81 
74 
72 
72 
71 
78 
81 
84 
101 
116 
120 
115 
137 
135 
138 
161 
156 
138 
140 
140 
132 
147 
159 
167 
163 
123 
139 
118 
200 
196 
232 
228 
204 
225 
223 
218 
214 
214 
211 
212 
213 
216 
218 
220 
219 
218 
217 
218 
134 
124 
140 
123 
90 
82 
89 
89 
113 
140 
118 
94 
109 
124 
109 
103 
123 
88 
88 
109 
102 
119 
124 
127 
110 
124 
120 
105 
92 
85 
96 
93 
92 
95 
91 
69 
77 
92 
96 
105 
79 
85 
104 
100 
91 
95 
90 
83 
81 
78 
80 
72 
64 
68 
66 
63 
61 
62 
64 
64 
62 
65 
69 
70 
70 
71 
72 
74 
75 
76 
77 
78 
80 
80 
77 
75 
74 
74 
80 
83 
87 
98 
106 
105 
98 
123 
133 
140 
159 
155 
137 
142 
146 
144 
139 
137 
162 
165 
131 
136 
136 
183 
152 
204 
215 
213 
230 
224 
219 
216 
212 
210 
211 
212 
215 
217 
219 
219 
219 
218 
216 
152 
135 
147 
141 
107 
96 
88 
85 
105 
129 
117 
100 
97 
116 
107 
83 
136 
106 
83 
101 
115 
102 
130 
126 
105 
125 
116 
97 
101 
89 
113 
86 
89 
91 
99 
71 
81 
87 
93 
114 
74 
77 
91 
96 
97 
89 
92 
89 
88 
83 
81 
74 
69 
73 
69 
64 
65 
65 
64 
61 
61 
64 
67 
70 
71 
72 
72 
72 
73 
74 
74 
75 
75 
75 
75 
74 
73 
76 
82 
86 
88 
90 
90 
88 
83 
109 
134 
137 
144 
146 
142 
147 
141 
139 
111 
90 
113 
136 
119 
118 
151 
179 
119 
180 
211 
231 
228 
214 
217 
220 
214 
212 
217 
218 
219 
219 
218 
218 
218 
219 
202 
177 
142 
145 
131 
127 
112 
94 
76 
91 
111 
116 
106 
89 
111 
116 
96 
127 
92 
76 
92 
106 
90 
128 
119 
108 
122 
120 
98 
103 
101 
124 
85 
93 
97 
108 
84 
80 
80 
98 
131 
82 
79 
86 
101 
111 
94 
98 
99 
100 
93 
86 
76 
73 
75 
67 
64 
66 
66 
65 
64 
66 
68 
68 
72 
72 
72 
71 
70 
70 
71 
72 
74 
72 
70 
73 
71 
72 
81 
85 
88 
87 
79 
77 
78 
78 
104 
140 
140 
129 
133 
142 
146 
130 
137 
100 
70 
75 
112 
117 
114 
163 
191 
144 
204 
217 
233 
226 
214 
215 
217 
216 
212 
221 
223 
224 
222 
219 
218 
221 
223 
209 
198 
148 
134 
114 
126 
113 
92 
80 
86 
97 
107 
98 
79 
110 
139 
124 
107 
74 
93 
108 
102 
98 
126 
121 
109 
122 
122 
106 
113 
105 
122 
108 
98 
109 
117 
92 
73 
83 
101 
127 
100 
95 
86 
103 
119 
104 
99 
106 
108 
100 
90 
78 
74 
75 
65 
66 
67 
67 
68 
70 
72 
72 
70 
69 
70 
72 
73 
73 
72 
72 
72 
74 
73 
71 
75 
72 
73 
85 
84 
85 
86 
79 
75 
75 
78 
102 
146 
138 
123 
125 
128 
127 
117 
133 
97 
75 
85 
109 
136 
129 
163 
174 
186 
234 
219 
220 
225 
225 
217 
210 
214 
210 
218 
220 
222 
220 
218 
217 
220 
223 
211 
194 
154 
129 
123 
120 
114 
91 
86 
84 
84 
98 
97 
83 
92 
115 
133 
101 
116 
120 
119 
128 
106 
133 
132 
110 
130 
128 
123 
135 
114 
124 
128 
89 
101 
115 
103 
82 
91 
84 
98 
117 
97 
98 
89 
128 
111 
104 
102 
105 
100 
91 
80 
78 
82 
74 
71 
69 
69 
71 
74 
75 
73 
70 
64 
66 
71 
75 
78 
78 
75 
73 
71 
74 
73 
77 
73 
74 
86 
77 
78 
86 
86 
83 
76 
79 
96 
139 
124 
131 
142 
131 
116 
114 
120 
78 
78 
107 
110 
152 
141 
157 
140 
199 
204 
218 
219 
219 
219 
221 
215 
213 
211 
216 
217 
218 
218 
218 
217 
217 
217 
201 
183 
164 
133 
135 
122 
123 
106 
87 
84 
78 
95 
104 
102 
75 
74 
113 
109 
140 
126 
115 
133 
107 
134 
134 
121 
137 
138 
137 
138 
128 
127 
134 
97 
90 
102 
120 
100 
89 
77 
87 
122 
94 
103 
91 
119 
115 
111 
102 
105 
100 
93 
82 
80 
87 
83 
75 
72 
71 
74 
75 
72 
71 
71 
67 
68 
71 
75 
79 
80 
77 
74 
69 
74 
72 
75 
69 
74 
90 
76 
74 
83 
89 
90 
82 
83 
87 
116 
113 
137 
155 
134 
111 
119 
123 
95 
99 
115 
118 
155 
148 
160 
147 
186 
166 
221 
226 
216 
208 
220 
220 
214 
215 
219 
219 
218 
220 
221 
219 
215 
211 
225 
210 
192 
148 
135 
122 
127 
117 
108 
97 
72 
73 
84 
107 
86 
90 
89 
115 
96 
118 
115 
103 
107 
121 
128 
135 
136 
145 
139 
118 
133 
121 
137 
128 
97 
92 
130 
107 
82 
97 
96 
108 
92 
82 
106 
83 
112 
102 
111 
113 
106 
96 
82 
78 
85 
82 
77 
73 
72 
75 
73 
69 
69 
73 
76 
73 
72 
73 
76 
78 
76 
73 
70 
76 
71 
72 
67 
77 
97 
82 
74 
79 
86 
92 
87 
89 
79 
94 
104 
123 
134 
108 
88 
113 
138 
140 
132 
112 
127 
148 
147 
163 
174 
161 
171 
227 
223 
221 
213 
217 
214 
214 
215 
216 
222 
220 
218 
221 
220 
218 
224 
229 
195 
170 
152 
136 
122 
113 
106 
99 
96 
76 
69 
80 
93 
104 
106 
102 
106 
93 
92 
102 
104 
103 
107 
110 
115 
127 
137 
126 
123 
120 
130 
142 
117 
93 
80 
105 
133 
98 
83 
94 
95 
102 
100 
92 
91 
92 
99 
113 
113 
100 
103 
94 
80 
89 
84 
81 
73 
77 
80 
75 
71 
71 
77 
83 
77 
72 
78 
81 
81 
83 
75 
76 
77 
79 
67 
72 
79 
90 
83 
75 
85 
84 
79 
90 
89 
71 
71 
69 
90 
96 
95 
98 
118 
142 
142 
138 
121 
143 
152 
145 
160 
168 
155 
173 
226 
221 
224 
217 
215 
212 
208 
215 
218 
219 
218 
220 
222 
220 
219 
223 
225 
204 
164 
155 
142 
120 
125 
116 
104 
95 
81 
74 
81 
94 
92 
106 
115 
115 
92 
94 
107 
119 
120 
114 
110 
108 
126 
125 
123 
131 
114 
138 
137 
116 
101 
93 
94 
121 
118 
83 
87 
89 
108 
120 
88 
97 
87 
103 
115 
111 
96 
103 
102 
89 
93 
90 
85 
78 
80 
82 
75 
71 
74 
82 
81 
81 
79 
84 
83 
81 
85 
80 
78 
80 
79 
68 
76 
83 
89 
83 
83 
73 
84 
87 
82 
90 
87 
70 
80 
82 
85 
98 
123 
133 
137 
134 
134 
135 
155 
156 
144 
163 
168 
154 
176 
229 
215 
223 
224 
215 
209 
211 
214 
220 
216 
217 
221 
220 
218 
219 
219 
228 
216 
176 
163 
151 
130 
128 
122 
107 
90 
79 
76 
82 
93 
80 
105 
129 
137 
118 
119 
122 
128 
132 
115 
111 
112 
117 
107 
115 
133 
112 
124 
125 
128 
124 
118 
95 
94 
118 
101 
92 
83 
113 
130 
96 
103 
86 
99 
116 
113 
99 
108 
111 
92 
87 
86 
85 
80 
81 
83 
76 
70 
75 
81 
80 
82 
82 
85 
83 
81 
85 
80 
81 
84 
78 
66 
77 
85 
88 
86 
92 
85 
87 
85 
84 
85 
73 
60 
62 
74 
71 
91 
122 
120 
136 
122 
131 
140 
155 
163 
151 
165 
161 
156 
184 
233 
213 
224 
230 
217 
210 
216 
215 
221 
216 
219 
221 
218 
221 
222 
216 
227 
217 
192 
167 
156 
145 
116 
118 
104 
92 
83 
85 
84 
86 
77 
108 
142 
133 
118 
122 
125 
110 
125 
118 
113 
119 
96 
87 
99 
123 
120 
103 
125 
141 
129 
123 
108 
79 
99 
125 
97 
83 
112 
116 
110 
98 
94 
98 
104 
108 
103 
115 
121 
101 
90 
93 
84 
81 
81 
85 
79 
72 
75 
76 
80 
82 
80 
83 
83 
83 
86 
78 
82 
87 
77 
66 
76 
83 
84 
87 
87 
88 
85 
82 
90 
85 
65 
62 
65 
82 
75 
99 
116 
100 
144 
123 
131 
145 
152 
168 
164 
175 
165 
165 
192 
234 
216 
228 
227 
218 
216 
216 
218 
219 
219 
222 
220 
218 
225 
228 
218 
218 
214 
194 
171 
160 
150 
111 
110 
107 
103 
92 
98 
94 
84 
83 
104 
131 
105 
100 
113 
134 
106 
122 
120 
123 
121 
100 
97 
105 
132 
139 
121 
150 
151 
126 
121 
130 
108 
101 
134 
101 
95 
102 
94 
112 
93 
103 
103 
104 
108 
105 
117 
127 
114 
100 
100 
90 
86 
81 
87 
83 
75 
79 
75 
78 
83 
84 
85 
83 
85 
91 
85 
81 
90 
81 
73 
79 
84 
82 
86 
89 
83 
88 
88 
86 
83 
72 
65 
74 
74 
82 
108 
116 
108 
155 
136 
142 
158 
157 
173 
171 
181 
177 
186 
201 
229 
221 
230 
217 
219 
222 
214 
219 
216 
219 
220 
218 
218 
224 
227 
221 
221 
224 
196 
189 
174 
150 
120 
116 
120 
108 
93 
98 
107 
100 
96 
90 
109 
101 
104 
95 
123 
119 
134 
123 
123 
116 
120 
124 
129 
148 
142 
146 
162 
154 
137 
133 
138 
141 
115 
115 
122 
117 
91 
82 
106 
106 
111 
101 
110 
109 
104 
109 
124 
125 
115 
109 
98 
93 
82 
87 
84 
77 
83 
77 
75 
85 
89 
89 
84 
87 
97 
93 
85 
94 
89 
85 
85 
89 
83 
84 
89 
89 
93 
90 
87 
80 
70 
73 
67 
70 
103 
104 
100 
119 
146 
133 
161 
161 
158 
181 
178 
168 
178 
213 
212 
226 
227 
230 
211 
223 
224 
215 
218 
219 
220 
219 
218 
220 
220 
220 
224 
228 
224 
205 
213 
193 
159 
128 
136 
124 
104 
99 
92 
108 
115 
116 
101 
111 
108 
104 
83 
104 
120 
128 
125 
113 
120 
117 
119 
133 
146 
138 
155 
152 
154 
142 
138 
129 
149 
123 
105 
132 
128 
98 
81 
93 
118 
122 
108 
108 
110 
108 
105 
115 
130 
130 
123 
105 
102 
88 
92 
86 
78 
86 
79 
81 
90 
93 
93 
91 
96 
103 
95 
94 
98 
93 
92 
87 
94 
88 
86 
87 
92 
102 
101 
94 
84 
77 
85 
77 
93 
118 
110 
96 
109 
133 
135 
169 
165 
163 
186 
185 
169 
187 
225 
221 
224 
227 
226 
211 
225 
217 
219 
216 
227 
225 
221 
223 
225 
218 
216 
228 
225 
207 
212 
225 
202 
171 
127 
155 
113 
101 
119 
93 
97 
113 
132 
135 
122 
100 
98 
111 
132 
127 
101 
110 
117 
141 
103 
97 
125 
144 
154 
168 
156 
166 
140 
135 
129 
157 
140 
129 
117 
123 
117 
84 
79 
113 
131 
126 
122 
128 
128 
112 
107 
121 
125 
119 
110 
109 
97 
100 
93 
82 
89 
82 
94 
97 
95 
97 
102 
108 
108 
92 
103 
102 
93 
92 
86 
96 
93 
89 
107 
93 
124 
130 
92 
83 
89 
75 
84 
96 
92 
120 
116 
99 
139 
165 
165 
179 
179 
183 
189 
193 
212 
221 
223 
220 
221 
218 
211 
224 
205 
219 
215 
221 
223 
216 
219 
217 
213 
223 
224 
223 
211 
217 
225 
204 
178 
142 
139 
126 
119 
117 
103 
110 
97 
135 
141 
123 
99 
107 
125 
127 
107 
105 
92 
141 
140 
139 
105 
118 
148 
154 
159 
171 
138 
159 
116 
132 
136 
139 
133 
120 
112 
123 
97 
86 
115 
128 
141 
135 
122 
132 
137 
125 
130 
120 
130 
132 
125 
99 
88 
102 
100 
87 
90 
100 
97 
99 
118 
134 
120 
97 
97 
109 
103 
110 
128 
110 
95 
95 
99 
107 
102 
133 
138 
91 
97 
82 
78 
101 
108 
96 
130 
140 
105 
150 
176 
178 
188 
185 
175 
195 
206 
216 
224 
224 
221 
217 
216 
218 
219 
217 
214 
215 
225 
224 
216 
217 
216 
215 
223 
224 
224 
217 
221 
225 
216 
205 
186 
154 
154 
143 
145 
164 
141 
110 
132 
126 
114 
82 
102 
138 
136 
126 
126 
113 
134 
128 
124 
117 
113 
161 
161 
168 
159 
153 
149 
148 
130 
136 
148 
150 
129 
123 
118 
114 
113 
116 
142 
126 
122 
141 
146 
130 
126 
139 
127 
139 
148 
120 
96 
98 
106 
98 
96 
108 
113 
100 
100 
130 
141 
110 
110 
100 
107 
109 
115 
147 
125 
92 
101 
115 
102 
123 
126 
145 
98 
78 
83 
77 
112 
124 
103 
131 
157 
130 
162 
188 
191 
198 
184 
169 
197 
217 
225 
227 
223 
220 
217 
217 
218 
219 
217 
216 
214 
228 
225 
217 
218 
220 
219 
223 
222 
217 
219 
223 
217 
215 
216 
217 
168 
143 
128 
143 
182 
150 
125 
113 
117 
108 
102 
120 
147 
147 
118 
152 
156 
125 
134 
115 
120 
121 
152 
152 
168 
152 
163 
150 
179 
142 
137 
150 
150 
131 
121 
117 
126 
123 
103 
140 
137 
131 
145 
155 
137 
126 
148 
145 
135 
148 
119 
109 
120 
116 
100 
102 
117 
104 
93 
97 
130 
144 
110 
126 
111 
114 
109 
131 
138 
119 
117 
108 
120 
118 
134 
132 
148 
118 
82 
106 
82 
111 
141 
112 
118 
160 
161 
178 
188 
193 
203 
186 
167 
200 
224 
229 
227 
225 
223 
221 
219 
218 
218 
217 
217 
213 
226 
222 
218 
222 
225 
224 
222 
218 
215 
223 
227 
218 
213 
218 
224 
196 
161 
124 
153 
173 
137 
148 
117 
124 
134 
148 
144 
134 
123 
104 
132 
171 
150 
154 
147 
157 
138 
139 
148 
148 
158 
132 
179 
155 
157 
138 
135 
133 
126 
110 
121 
132 
128 
105 
119 
157 
164 
132 
140 
159 
152 
145 
142 
143 
136 
127 
127 
138 
137 
119 
107 
109 
98 
103 
110 
124 
150 
133 
130 
133 
136 
117 
138 
133 
112 
135 
131 
132 
148 
140 
168 
159 
149 
103 
127 
95 
126 
154 
128 
123 
162 
179 
188 
188 
186 
203 
194 
179 
208 
223 
225 
226 
227 
226 
224 
222 
219 
217 
217 
217 
213 
223 
218 
217 
220 
225 
225 
220 
217 
216 
220 
222 
219 
215 
219 
214 
224 
204 
158 
174 
160 
133 
169 
153 
146 
156 
161 
149 
129 
110 
132 
120 
152 
163 
155 
182 
159 
174 
144 
151 
152 
153 
149 
163 
161 
155 
144 
143 
124 
128 
122 
130 
143 
149 
136 
115 
156 
159 
144 
144 
155 
164 
153 
141 
144 
142 
146 
141 
148 
161 
149 
127 
125 
109 
124 
124 
113 
151 
149 
111 
148 
158 
130 
130 
157 
130 
128 
162 
163 
177 
161 
181 
159 
161 
110 
131 
137 
164 
167 
152 
158 
179 
187 
192 
202 
191 
207 
207 
200 
222 
225 
223 
225 
225 
226 
225 
222 
219 
217 
216 
216 
214 
220 
214 
215 
217 
221 
223 
218 
218 
220 
216 
212 
216 
216 
217 
203 
228 
210 
206 
177 
140 
151 
168 
161 
157 
144 
149 
149 
150 
140 
141 
147 
115 
171 
153 
168 
166 
154 
170 
150 
165 
145 
175 
153 
179 
153 
157 
151 
124 
139 
159 
146 
154 
164 
161 
138 
156 
144 
148 
159 
153 
151 
157 
155 
133 
140 
150 
145 
146 
158 
149 
139 
151 
122 
133 
122 
107 
154 
156 
108 
160 
162 
126 
132 
165 
144 
141 
166 
176 
171 
174 
158 
164 
181 
134 
136 
170 
179 
175 
174 
181 
189 
201 
202 
212 
206 
213 
216 
215 
230 
227 
223 
223 
221 
222 
222 
221 
219 
217 
216 
215 
215 
218 
213 
217 
217 
220 
222 
217 
219 
224 
220 
216 
218 
220 
217 
212 
219 
211 
231 
196 
160 
181 
168 
151 
150 
152 
158 
162 
168 
150 
126 
157 
116 
181 
173 
150 
200 
128 
175 
159 
152 
157 
154 
187 
153 
168 
175 
154 
143 
155 
178 
162 
162 
168 
172 
168 
172 
165 
139 
154 
169 
162 
153 
158 
134 
123 
137 
142 
142 
146 
141 
137 
145 
129 
138 
120 
114 
164 
165 
140 
161 
151 
131 
155 
161 
152 
166 
154 
172 
157 
176 
161 
184 
202 
173 
157 
171 
175 
181 
188 
189 
197 
219 
211 
215 
215 
217 
223 
222 
229 
225 
225 
223 
219 
220 
221 
221 
221 
219 
216 
214 
215 
216 
213 
221 
221 
223 
224 
216 
219 
216 
218 
217 
216 
218 
213 
224 
210 
216 
213 
223 
209 
198 
183 
167 
148 
185 
175 
175 
172 
130 
151 
155 
181 
143 
189 
161 
157 
204 
138 
165 
147 
173 
176 
182 
156 
179 
190 
188 
176 
169 
171 
168 
168 
176 
184 
184 
184 
178 
162 
157 
162 
178 
176 
163 
128 
126 
138 
149 
154 
160 
162 
148 
126 
129 
141 
118 
119 
165 
164 
165 
141 
142 
156 
176 
176 
167 
166 
154 
176 
184 
190 
190 
183 
179 
183 
185 
183 
183 
187 
196 
201 
213 
229 
211 
222 
215 
219 
230 
227 
226 
222 
228 
225 
220 
221 
222 
223 
223 
220 
216 
213 
214 
211 
216 
222 
226 
226 
223 
219 
218 
218 
218 
218 
218 
218 
218 
217 
216 
216 
219 
218 
220 
211 
203 
201 
182 
206 
193 
172 
170 
132 
146 
176 
181 
171 
152 
168 
148 
175 
161 
163 
162 
168 
194 
195 
172 
164 
184 
174 
177 
176 
177 
171 
174 
188 
193 
188 
188 
188 
174 
172 
175 
175 
176 
163 
138 
149 
150 
146 
143 
135 
144 
153 
124 
139 
151 
142 
147 
182 
191 
154 
158 
165 
178 
188 
176 
170 
168 
165 
180 
180 
179 
185 
184 
184 
190 
186 
181 
191 
203 
210 
212 
215 
218 
220 
224 
222 
225 
228 
229 
228 
227 
227 
228 
224 
224 
225 
223 
220 
219 
220 
222 
217 
213 
217 
220 
222 
222 
220 
219 
219 
219 
219 
219 
219 
219 
219 
218 
217 
218 
220 
220 
224 
222 
221 
222 
207 
218 
202 
197 
195 
167 
181 
190 
198 
192 
152 
183 
160 
132 
193 
162 
177 
163 
188 
188 
182 
161 
190 
167 
173 
181 
183 
178 
177 
186 
191 
192 
197 
197 
194 
194 
192 
187 
182 
166 
144 
161 
164 
161 
157 
142 
141 
146 
121 
140 
155 
153 
158 
188 
196 
163 
171 
187 
189 
193 
188 
183 
175 
166 
178 
175 
176 
185 
186 
189 
199 
200 
199 
212 
220 
223 
222 
224 
224 
222 
222 
227 
227 
227 
227 
227 
227 
229 
230 
228 
228 
227 
224 
219 
215 
213 
212 
211 
215 
217 
219 
219 
219 
218 
219 
220 
220 
220 
220 
220 
220 
220 
219 
218 
217 
217 
214 
218 
219 
221 
223 
213 
230 
212 
220 
218 
202 
216 
204 
216 
211 
189 
197 
199 
142 
208 
179 
185 
163 
175 
185 
184 
165 
193 
171 
177 
183 
187 
184 
179 
181 
186 
192 
200 
208 
208 
202 
196 
198 
200 
190 
173 
176 
183 
179 
165 
135 
127 
144 
138 
155 
169 
166 
166 
186 
195 
174 
189 
198 
190 
192 
197 
199 
188 
178 
187 
191 
191 
200 
201 
203 
214 
218 
219 
217 
223 
223 
222 
225 
226 
223 
221 
228 
226 
223 
221 
222 
224 
226 
227 
223 
224 
224 
223 
221 
218 
215 
213 
211 
214 
216 
218 
219 
219 
218 
219 
220 
221 
220 
220 
220 
221 
220 
220 
219 
222 
220 
218 
219 
219 
219 
218 
213 
231 
218 
224 
224 
217 
225 
210 
221 
222 
227 
210 
227 
201 
208 
201 
199 
184 
175 
200 
185 
183 
194 
188 
188 
187 
193 
193 
186 
183 
186 
193 
199 
201 
203 
198 
195 
204 
205 
183 
158 
164 
176 
181 
179 
157 
149 
167 
169 
176 
186 
183 
179 
188 
196 
181 
198 
198 
190 
192 
203 
208 
201 
196 
203 
201 
199 
206 
206 
207 
215 
216 
216 
210 
216 
217 
217 
221 
224 
223 
222 
226 
224 
220 
219 
220 
222 
223 
223 
216 
217 
220 
222 
224 
224 
222 
221 
217 
212 
215 
219 
221 
221 
220 
220 
220 
220 
220 
220 
220 
220 
220 
220 
219 
220 
221 
223 
223 
223 
220 
217 
218 
225 
221 
218 
223 
221 
220 
215 
218 
228 
225 
224 
220 
233 
216 
214 
222 
216 
196 
222 
200 
205 
200 
205 
200 
198 
204 
207 
202 
197 
198 
201 
200 
197 
198 
192 
190 
200 
203 
183 
158 
185 
182 
175 
181 
180 
180 
194 
190 
189 
197 
200 
197 
199 
204 
187 
199 
203 
201 
203 
210 
210 
206 
208 
211 
199 
195 
201 
203 
207 
215 
213 
212 
216 
223 
224 
221 
222 
223 
223 
224 
226 
225 
223 
223 
224 
224 
223 
222 
220 
220 
220 
221 
222 
221 
219 
217 
216 
210 
214 
219 
223 
223 
222 
220 
220 
220 
220 
219 
220 
220 
220 
220 
219 
214 
217 
223 
223 
223 
219 
212 
219 
219 
223 
215 
225 
226 
219 
223 
216 
227 
215 
227 
215 
230 
220 
228 
224 
229 
214 
229 
217 
216 
211 
214 
209 
209 
213 
217 
215 
210 
210 
209 
202 
199 
198 
194 
191 
197 
207 
204 
193 
216 
201 
177 
175 
177 
181 
197 
196 
196 
199 
203 
202 
201 
207 
194 
203 
209 
211 
212 
215 
208 
203 
211 
211 
201 
196 
202 
207 
212 
220 
218 
216 
223 
231 
231 
225 
222 
222 
222 
225 
225 
225 
226 
226 
226 
225 
223 
222 
225 
224 
223 
221 
218 
215 
212 
210 
213 
