P2
# Created by MsrVolt
97 89
255
216 
216 
216 
215 
215 
215 
215 
215 
215 
215 
215 
216 
216 
215 
215 
215 
216 
216 
215 
215 
215 
215 
215 
215 
215 
215 
215 
215 
215 
215 
215 
215 
214 
214 
215 
215 
215 
214 
214 
214 
215 
215 
215 
215 
215 
215 
215 
215 
215 
215 
215 
215 
215 
215 
215 
215 
215 
216 
216 
216 
216 
216 
216 
216 
216 
216 
216 
216 
216 
216 
216 
216 
216 
216 
216 
216 
216 
216 
216 
216 
216 
216 
216 
216 
216 
216 
216 
216 
217 
216 
216 
216 
216 
217 
217 
217 
217 
215 
215 
215 
215 
215 
215 
215 
215 
215 
215 
216 
216 
216 
216 
215 
215 
216 
216 
215 
215 
215 
215 
215 
215 
215 
215 
215 
215 
215 
215 
215 
215 
214 
215 
215 
215 
215 
214 
214 
214 
215 
215 
215 
215 
215 
215 
215 
215 
215 
215 
215 
215 
215 
215 
215 
215 
215 
216 
216 
216 
217 
216 
216 
216 
216 
216 
216 
216 
216 
216 
216 
216 
216 
216 
216 
216 
216 
216 
216 
216 
216 
216 
216 
216 
216 
216 
216 
216 
216 
216 
216 
216 
216 
216 
217 
217 
217 
215 
215 
215 
215 
215 
215 
215 
215 
216 
216 
216 
216 
216 
216 
216 
215 
216 
215 
215 
215 
215 
215 
215 
215 
215 
215 
215 
215 
215 
215 
215 
215 
215 
215 
215 
215 
215 
215 
214 
214 
215 
215 
215 
215 
215 
215 
215 
215 
215 
215 
215 
215 
215 
215 
215 
215 
216 
216 
216 
217 
217 
217 
217 
216 
216 
216 
216 
216 
216 
216 
216 
216 
216 
216 
216 
216 
216 
216 
216 
216 
216 
216 
216 
216 
216 
216 
216 
216 
216 
216 
215 
215 
215 
216 
216 
216 
217 
214 
214 
214 
215 
215 
215 
215 
215 
216 
216 
216 
216 
216 
216 
216 
215 
215 
215 
215 
214 
214 
215 
215 
215 
215 
215 
215 
215 
215 
215 
215 
215 
215 
215 
215 
215 
215 
215 
214 
214 
215 
215 
215 
215 
215 
215 
215 
215 
215 
215 
215 
215 
215 
215 
215 
215 
216 
216 
216 
217 
217 
217 
217 
216 
216 
216 
216 
216 
216 
216 
216 
216 
216 
216 
216 
216 
216 
216 
216 
216 
216 
216 
216 
216 
216 
216 
216 
216 
215 
215 
215 
215 
215 
215 
216 
216 
217 
214 
214 
214 
214 
215 
215 
215 
215 
216 
216 
216 
216 
216 
216 
215 
215 
215 
215 
214 
214 
214 
214 
215 
215 
215 
215 
215 
215 
215 
215 
215 
215 
215 
215 
215 
216 
215 
215 
215 
214 
215 
215 
215 
215 
215 
215 
215 
215 
215 
215 
215 
215 
215 
215 
215 
215 
215 
216 
216 
216 
216 
216 
216 
216 
216 
216 
216 
216 
216 
216 
216 
216 
216 
216 
216 
216 
216 
216 
216 
216 
216 
216 
216 
216 
216 
216 
216 
216 
215 
215 
215 
215 
215 
215 
216 
216 
217 
214 
214 
214 
214 
214 
214 
214 
214 
216 
216 
216 
216 
216 
215 
215 
214 
214 
214 
214 
214 
214 
214 
215 
215 
215 
215 
215 
215 
215 
215 
215 
215 
215 
216 
216 
216 
216 
215 
215 
215 
215 
215 
215 
215 
215 
215 
215 
215 
215 
215 
215 
215 
215 
215 
215 
215 
215 
215 
216 
216 
216 
216 
216 
216 
216 
216 
216 
216 
216 
216 
216 
216 
216 
216 
216 
216 
216 
216 
216 
216 
216 
216 
216 
216 
216 
216 
216 
216 
215 
215 
215 
215 
215 
215 
216 
216 
217 
214 
214 
214 
214 
214 
214 
214 
214 
215 
215 
215 
215 
215 
215 
214 
214 
214 
214 
214 
214 
214 
214 
214 
215 
215 
215 
215 
215 
215 
215 
215 
215 
216 
216 
216 
216 
216 
216 
215 
215 
215 
215 
215 
215 
215 
215 
215 
215 
215 
215 
215 
215 
215 
215 
215 
215 
214 
215 
215 
215 
215 
215 
215 
215 
216 
216 
216 
216 
216 
216 
216 
216 
216 
216 
216 
216 
216 
216 
216 
216 
216 
216 
216 
216 
216 
216 
216 
216 
216 
215 
215 
215 
215 
216 
216 
216 
217 
215 
215 
214 
214 
214 
214 
213 
213 
215 
215 
215 
215 
215 
214 
214 
213 
214 
214 
214 
214 
214 
214 
214 
215 
215 
215 
215 
215 
215 
215 
215 
215 
216 
216 
216 
216 
216 
216 
215 
215 
215 
215 
215 
215 
215 
215 
215 
215 
215 
215 
215 
215 
215 
215 
215 
215 
214 
214 
215 
215 
215 
215 
215 
215 
216 
216 
216 
216 
216 
216 
216 
216 
216 
216 
216 
216 
216 
216 
216 
216 
216 
216 
216 
216 
216 
216 
216 
216 
216 
216 
216 
216 
216 
216 
216 
217 
217 
214 
214 
214 
214 
214 
214 
214 
214 
213 
214 
215 
215 
214 
213 
214 
215 
213 
213 
213 
213 
213 
214 
215 
216 
215 
215 
215 
215 
215 
215 
215 
215 
217 
215 
217 
218 
215 
216 
217 
215 
215 
215 
215 
215 
215 
215 
215 
215 
215 
215 
215 
215 
215 
215 
215 
215 
214 
215 
216 
216 
215 
215 
215 
215 
216 
216 
216 
217 
216 
216 
216 
216 
216 
216 
216 
216 
216 
216 
216 
216 
216 
216 
216 
216 
216 
216 
216 
216 
216 
216 
216 
216 
216 
216 
216 
216 
216 
213 
213 
213 
213 
213 
213 
213 
213 
212 
213 
213 
213 
213 
213 
213 
213 
213 
213 
214 
214 
214 
215 
215 
215 
215 
215 
215 
215 
215 
215 
215 
215 
217 
215 
216 
217 
215 
216 
217 
214 
215 
215 
215 
215 
215 
215 
215 
215 
215 
215 
215 
215 
215 
215 
215 
215 
214 
215 
216 
216 
215 
215 
215 
215 
216 
216 
216 
216 
216 
216 
216 
216 
216 
216 
216 
216 
216 
216 
216 
216 
216 
216 
216 
216 
216 
216 
216 
216 
216 
216 
216 
216 
216 
216 
216 
216 
216 
213 
213 
213 
213 
213 
213 
213 
213 
214 
213 
213 
214 
214 
214 
214 
213 
214 
215 
216 
216 
216 
216 
215 
215 
215 
215 
215 
215 
215 
215 
215 
215 
217 
214 
215 
217 
216 
217 
217 
213 
215 
215 
215 
215 
215 
215 
215 
215 
215 
215 
215 
215 
215 
215 
215 
215 
215 
215 
216 
216 
215 
215 
215 
216 
216 
216 
216 
216 
216 
216 
216 
216 
216 
216 
216 
216 
216 
216 
216 
216 
216 
216 
216 
216 
216 
216 
216 
216 
216 
216 
216 
216 
216 
216 
216 
216 
216 
212 
212 
212 
212 
212 
212 
212 
212 
216 
217 
217 
217 
216 
215 
215 
216 
216 
216 
216 
217 
217 
216 
216 
216 
215 
215 
215 
214 
215 
215 
216 
216 
217 
214 
215 
217 
216 
217 
217 
213 
215 
215 
215 
215 
215 
215 
215 
215 
215 
215 
215 
215 
215 
215 
215 
215 
215 
215 
216 
215 
215 
215 
216 
216 
216 
216 
216 
216 
216 
216 
216 
217 
216 
216 
216 
216 
216 
216 
216 
216 
216 
216 
216 
216 
216 
216 
216 
216 
216 
216 
216 
216 
216 
216 
216 
216 
216 
212 
212 
212 
212 
212 
212 
212 
212 
216 
217 
219 
218 
215 
214 
215 
216 
216 
215 
215 
215 
215 
215 
215 
216 
215 
214 
214 
214 
214 
215 
216 
217 
217 
214 
215 
217 
216 
216 
217 
213 
215 
215 
215 
215 
215 
215 
215 
215 
215 
215 
215 
215 
215 
215 
215 
215 
215 
215 
216 
215 
215 
215 
216 
217 
216 
216 
216 
216 
216 
216 
217 
217 
216 
216 
216 
216 
216 
216 
216 
216 
216 
216 
216 
216 
216 
216 
216 
216 
216 
216 
216 
216 
216 
216 
216 
216 
216 
213 
213 
213 
213 
213 
213 
213 
213 
213 
214 
215 
215 
213 
212 
213 
214 
214 
213 
213 
212 
212 
213 
214 
215 
215 
215 
214 
214 
214 
215 
216 
217 
217 
215 
217 
217 
215 
216 
217 
215 
215 
215 
215 
215 
215 
215 
215 
215 
215 
215 
215 
215 
215 
215 
215 
215 
215 
215 
215 
215 
215 
215 
216 
217 
216 
216 
215 
215 
216 
216 
217 
217 
216 
216 
216 
216 
216 
216 
216 
216 
216 
216 
216 
216 
216 
216 
216 
216 
216 
216 
216 
216 
216 
216 
216 
216 
216 
214 
214 
214 
214 
214 
214 
214 
214 
212 
211 
211 
212 
214 
215 
214 
213 
213 
213 
213 
213 
214 
214 
215 
215 
217 
216 
215 
214 
214 
214 
215 
216 
218 
216 
218 
218 
214 
214 
218 
217 
215 
215 
215 
215 
215 
215 
215 
215 
215 
215 
215 
215 
215 
215 
215 
215 
215 
216 
215 
215 
215 
215 
217 
218 
216 
216 
215 
215 
215 
216 
217 
218 
216 
216 
216 
216 
216 
216 
216 
216 
216 
216 
216 
216 
216 
216 
216 
216 
216 
216 
216 
216 
216 
216 
216 
216 
216 
214 
214 
214 
214 
214 
214 
214 
214 
213 
211 
209 
212 
217 
220 
218 
214 
213 
214 
215 
216 
217 
217 
216 
216 
218 
217 
215 
214 
213 
213 
214 
215 
218 
217 
219 
218 
213 
214 
218 
219 
215 
215 
215 
215 
215 
215 
215 
215 
215 
215 
215 
215 
215 
215 
215 
215 
215 
216 
215 
215 
215 
215 
217 
218 
216 
216 
215 
215 
215 
216 
217 
218 
216 
216 
216 
216 
216 
216 
216 
216 
216 
216 
216 
216 
216 
216 
216 
216 
216 
216 
216 
216 
216 
216 
216 
216 
216 
217 
211 
213 
215 
215 
213 
212 
218 
215 
208 
209 
220 
220 
212 
222 
207 
215 
215 
214 
218 
221 
198 
218 
206 
210 
208 
228 
227 
209 
218 
226 
215 
219 
207 
219 
220 
212 
214 
218 
213 
212 
217 
215 
213 
218 
217 
212 
215 
215 
215 
215 
214 
214 
215 
215 
215 
215 
215 
215 
215 
214 
215 
216 
217 
216 
216 
216 
215 
215 
216 
216 
216 
216 
216 
216 
216 
216 
216 
216 
216 
216 
216 
216 
216 
216 
216 
216 
216 
216 
216 
216 
216 
216 
216 
216 
216 
216 
213 
212 
213 
214 
215 
215 
212 
213 
208 
214 
220 
206 
226 
210 
202 
183 
210 
234 
201 
209 
180 
168 
225 
169 
203 
177 
209 
213 
195 
220 
217 
202 
207 
220 
209 
226 
225 
214 
212 
215 
218 
217 
214 
218 
219 
213 
216 
223 
221 
218 
215 
214 
215 
216 
215 
213 
215 
215 
215 
215 
214 
214 
215 
215 
216 
216 
216 
215 
215 
216 
216 
216 
216 
216 
216 
216 
216 
216 
216 
216 
216 
216 
216 
216 
216 
216 
216 
216 
216 
216 
216 
216 
216 
216 
216 
216 
216 
216 
217 
214 
211 
211 
215 
216 
215 
218 
213 
212 
207 
212 
222 
143 
126 
190 
182 
164 
195 
140 
135 
198 
163 
177 
178 
173 
184 
197 
215 
185 
138 
171 
236 
205 
211 
212 
210 
218 
221 
215 
219 
211 
209 
207 
210 
219 
210 
211 
210 
210 
212 
214 
216 
216 
215 
215 
215 
215 
215 
214 
213 
214 
214 
216 
216 
215 
215 
215 
215 
216 
216 
216 
216 
216 
216 
216 
216 
216 
216 
216 
216 
216 
216 
216 
216 
216 
216 
216 
216 
216 
216 
216 
216 
216 
216 
216 
210 
215 
216 
218 
217 
214 
215 
212 
216 
208 
215 
207 
201 
195 
199 
155 
190 
128 
112 
147 
121 
144 
180 
156 
163 
179 
169 
174 
181 
171 
115 
68 
131 
215 
192 
194 
202 
211 
219 
217 
207 
216 
215 
220 
221 
227 
233 
213 
213 
215 
218 
219 
216 
213 
214 
216 
215 
215 
215 
214 
213 
212 
213 
214 
216 
216 
215 
215 
215 
215 
216 
216 
216 
216 
216 
216 
216 
216 
216 
216 
216 
216 
216 
216 
216 
216 
216 
216 
216 
216 
216 
216 
216 
216 
216 
216 
216 
213 
214 
210 
215 
214 
208 
216 
219 
219 
214 
193 
184 
199 
186 
160 
150 
147 
113 
106 
108 
114 
160 
170 
126 
161 
129 
153 
159 
153 
161 
124 
123 
178 
202 
177 
177 
187 
198 
207 
217 
223 
218 
213 
218 
213 
208 
216 
212 
216 
214 
215 
216 
215 
214 
214 
217 
217 
216 
214 
212 
211 
212 
213 
214 
216 
215 
215 
215 
215 
215 
215 
216 
215 
215 
215 
216 
216 
216 
216 
216 
216 
216 
216 
216 
216 
216 
216 
216 
217 
216 
216 
216 
216 
216 
216 
216 
216 
217 
215 
207 
214 
215 
208 
217 
220 
187 
196 
178 
182 
175 
158 
146 
79 
127 
110 
132 
99 
107 
143 
125 
121 
156 
137 
158 
156 
143 
144 
146 
164 
179 
180 
183 
184 
180 
189 
175 
175 
181 
189 
199 
201 
201 
210 
218 
221 
221 
213 
208 
210 
215 
216 
215 
215 
216 
216 
214 
213 
211 
212 
213 
215 
216 
215 
215 
215 
215 
215 
215 
216 
215 
215 
215 
215 
216 
216 
216 
216 
216 
216 
216 
216 
216 
216 
216 
216 
217 
217 
216 
216 
216 
216 
216 
216 
216 
209 
215 
212 
225 
227 
213 
207 
193 
195 
174 
164 
187 
144 
124 
75 
113 
152 
113 
122 
85 
95 
114 
89 
136 
156 
158 
140 
118 
105 
107 
166 
183 
133 
149 
166 
158 
144 
184 
162 
146 
147 
172 
195 
188 
199 
222 
212 
199 
227 
220 
216 
218 
219 
216 
213 
212 
215 
215 
215 
214 
213 
213 
214 
214 
215 
215 
215 
215 
215 
215 
215 
215 
215 
215 
215 
215 
216 
216 
216 
216 
216 
216 
216 
216 
216 
216 
216 
216 
217 
217 
217 
216 
216 
216 
216 
215 
216 
217 
220 
208 
214 
217 
207 
202 
182 
190 
141 
115 
82 
125 
124 
64 
75 
104 
104 
91 
75 
84 
87 
95 
138 
158 
117 
109 
110 
116 
132 
178 
152 
118 
143 
156 
147 
131 
188 
154 
121 
144 
148 
154 
141 
164 
200 
192 
190 
199 
202 
210 
217 
217 
213 
214 
218 
214 
215 
216 
216 
215 
214 
214 
214 
215 
215 
215 
215 
215 
215 
215 
215 
215 
215 
215 
215 
216 
216 
216 
216 
216 
216 
216 
216 
216 
216 
216 
216 
217 
217 
217 
216 
216 
216 
215 
215 
216 
214 
216 
217 
212 
212 
219 
198 
204 
177 
145 
106 
75 
146 
129 
106 
134 
79 
90 
87 
96 
99 
89 
100 
104 
87 
136 
73 
66 
121 
164 
167 
127 
124 
135 
112 
127 
132 
134 
150 
159 
166 
163 
138 
149 
160 
190 
189 
183 
172 
180 
216 
202 
216 
224 
202 
223 
218 
216 
222 
214 
217 
211 
211 
214 
212 
215 
212 
214 
215 
214 
218 
215 
215 
213 
215 
216 
216 
217 
218 
216 
216 
216 
216 
217 
217 
217 
217 
217 
217 
217 
216 
216 
216 
216 
216 
216 
216 
208 
220 
213 
199 
231 
199 
183 
202 
186 
164 
105 
119 
171 
140 
177 
107 
73 
91 
84 
83 
95 
105 
106 
99 
93 
119 
80 
88 
151 
180 
123 
91 
109 
130 
122 
105 
121 
122 
114 
132 
145 
137 
118 
150 
176 
173 
155 
188 
170 
161 
168 
191 
200 
219 
206 
222 
214 
209 
210 
210 
214 
218 
221 
213 
212 
213 
210 
214 
216 
214 
217 
214 
216 
216 
214 
214 
214 
215 
215 
216 
216 
216 
216 
217 
217 
217 
217 
216 
217 
217 
216 
216 
215 
215 
215 
215 
216 
217 
215 
209 
220 
205 
155 
155 
178 
159 
130 
87 
142 
134 
163 
159 
166 
157 
76 
64 
56 
114 
118 
59 
59 
104 
106 
68 
126 
172 
151 
126 
110 
107 
116 
128 
119 
119 
92 
94 
127 
113 
99 
72 
95 
133 
142 
136 
176 
160 
162 
154 
165 
165 
191 
203 
199 
210 
220 
220 
220 
208 
211 
223 
213 
211 
211 
208 
214 
217 
214 
216 
214 
215 
218 
214 
213 
217 
216 
213 
216 
216 
216 
216 
217 
217 
217 
216 
216 
216 
216 
216 
215 
215 
215 
215 
215 
216 
215 
207 
213 
235 
182 
145 
135 
128 
109 
66 
109 
133 
93 
153 
142 
177 
159 
72 
51 
84 
140 
102 
44 
58 
110 
118 
73 
160 
140 
125 
142 
137 
125 
110 
136 
165 
136 
84 
100 
106 
97 
112 
89 
75 
93 
128 
147 
142 
133 
163 
176 
152 
154 
164 
198 
189 
186 
213 
211 
217 
210 
214 
222 
214 
212 
211 
207 
214 
217 
214 
216 
214 
213 
218 
213 
213 
223 
221 
213 
216 
216 
216 
216 
216 
217 
216 
216 
216 
215 
215 
215 
215 
215 
215 
214 
214 
217 
212 
217 
214 
206 
194 
174 
136 
101 
67 
54 
105 
92 
92 
135 
117 
176 
124 
40 
42 
47 
153 
86 
72 
59 
76 
117 
146 
152 
117 
125 
136 
131 
138 
116 
144 
178 
147 
106 
93 
54 
92 
139 
122 
84 
79 
106 
144 
128 
103 
129 
159 
136 
153 
141 
167 
177 
149 
193 
198 
208 
209 
209 
215 
218 
214 
214 
210 
213 
215 
214 
216 
213 
215 
218 
212 
211 
222 
222 
214 
216 
216 
216 
216 
216 
216 
216 
216 
216 
215 
215 
215 
215 
215 
215 
214 
214 
216 
213 
221 
216 
213 
198 
180 
128 
89 
64 
88 
101 
63 
105 
85 
123 
169 
77 
72 
42 
121 
156 
65 
75 
59 
103 
137 
161 
104 
111 
136 
131 
135 
156 
131 
152 
164 
156 
133 
92 
70 
77 
112 
95 
72 
84 
90 
130 
146 
125 
133 
143 
126 
144 
139 
139 
151 
137 
174 
186 
200 
210 
209 
213 
220 
214 
217 
214 
214 
214 
214 
217 
212 
218 
218 
211 
209 
216 
217 
214 
216 
216 
216 
216 
216 
216 
216 
216 
215 
215 
215 
216 
216 
216 
215 
214 
214 
215 
207 
209 
220 
220 
154 
132 
120 
76 
85 
179 
90 
94 
103 
80 
101 
112 
77 
74 
61 
123 
120 
61 
63 
85 
109 
153 
159 
139 
124 
121 
101 
136 
152 
119 
121 
117 
134 
112 
87 
100 
76 
81 
82 
80 
104 
103 
125 
144 
149 
161 
162 
144 
147 
152 
145 
137 
134 
144 
163 
179 
192 
196 
204 
206 
207 
216 
215 
214 
214 
217 
220 
213 
215 
215 
215 
213 
213 
213 
214 
217 
216 
216 
216 
216 
216 
216 
215 
215 
215 
215 
216 
216 
216 
215 
214 
214 
215 
213 
208 
212 
158 
85 
72 
137 
90 
162 
148 
90 
120 
87 
95 
73 
52 
74 
78 
82 
84 
80 
82 
82 
99 
138 
118 
135 
119 
162 
123 
112 
125 
155 
118 
96 
89 
119 
93 
96 
104 
101 
83 
102 
86 
90 
99 
114 
113 
111 
139 
162 
155 
148 
143 
146 
128 
114 
127 
168 
167 
141 
133 
164 
187 
199 
213 
215 
213 
215 
220 
224 
216 
209 
213 
219 
220 
214 
212 
216 
217 
216 
216 
216 
216 
216 
216 
215 
215 
215 
216 
216 
217 
216 
216 
215 
214 
216 
214 
222 
208 
119 
87 
160 
154 
116 
130 
93 
113 
122 
72 
62 
66 
62 
52 
75 
81 
74 
69 
87 
82 
81 
91 
107 
102 
102 
170 
131 
133 
132 
129 
124 
93 
63 
67 
73 
107 
119 
89 
78 
82 
86 
84 
88 
114 
100 
95 
98 
145 
161 
156 
152 
143 
171 
144 
127 
138 
149 
152 
102 
129 
162 
189 
193 
213 
212 
197 
198 
193 
225 
223 
215 
204 
216 
224 
213 
213 
219 
215 
217 
218 
216 
213 
212 
214 
217 
216 
216 
217 
217 
217 
216 
215 
215 
216 
224 
223 
164 
161 
178 
134 
110 
130 
91 
65 
126 
83 
88 
48 
58 
58 
64 
63 
61 
66 
74 
86 
77 
78 
89 
93 
79 
76 
121 
118 
134 
140 
123 
95 
106 
75 
67 
76 
127 
123 
92 
73 
67 
78 
98 
97 
94 
78 
91 
93 
124 
150 
157 
151 
150 
175 
168 
148 
174 
182 
163 
125 
119 
140 
147 
168 
173 
187 
195 
199 
146 
200 
220 
207 
211 
217 
215 
214 
214 
219 
215 
216 
216 
215 
213 
213 
215 
216 
216 
216 
217 
217 
217 
216 
216 
215 
217 
210 
212 
207 
192 
141 
87 
100 
140 
79 
144 
129 
75 
64 
75 
66 
51 
62 
58 
56 
60 
65 
72 
67 
75 
90 
89 
66 
57 
84 
131 
138 
119 
152 
118 
80 
99 
98 
96 
95 
92 
72 
70 
75 
79 
90 
76 
67 
77 
86 
85 
97 
125 
140 
130 
134 
156 
140 
137 
153 
145 
147 
149 
103 
124 
127 
151 
136 
172 
179 
186 
136 
185 
215 
198 
210 
211 
207 
218 
218 
215 
215 
215 
215 
214 
214 
215 
215 
216 
216 
216 
216 
217 
216 
216 
216 
215 
216 
198 
206 
212 
159 
54 
94 
170 
99 
106 
148 
55 
87 
88 
60 
55 
64 
60 
66 
67 
59 
58 
67 
66 
71 
86 
81 
61 
51 
66 
117 
105 
78 
161 
174 
67 
74 
67 
85 
83 
86 
68 
64 
70 
71 
78 
70 
57 
70 
83 
79 
78 
91 
105 
103 
114 
144 
124 
125 
136 
126 
141 
163 
116 
136 
145 
164 
120 
147 
152 
156 
159 
199 
200 
196 
203 
205 
202 
213 
220 
216 
217 
217 
217 
216 
215 
215 
215 
216 
216 
216 
216 
216 
216 
216 
216 
216 
213 
231 
228 
144 
84 
121 
190 
162 
108 
160 
134 
52 
86 
89 
63 
77 
73 
67 
70 
70 
60 
68 
78 
72 
66 
78 
69 
64 
58 
58 
69 
59 
68 
105 
133 
83 
83 
71 
70 
89 
78 
74 
61 
63 
65 
68 
75 
65 
63 
79 
74 
74 
68 
78 
91 
108 
146 
117 
107 
137 
145 
137 
151 
141 
144 
148 
168 
134 
133 
155 
140 
148 
172 
182 
198 
194 
198 
201 
202 
218 
218 
217 
218 
218 
218 
216 
215 
215 
216 
216 
216 
216 
216 
216 
216 
216 
216 
213 
221 
181 
133 
134 
194 
178 
85 
103 
155 
93 
90 
90 
57 
67 
74 
74 
65 
61 
63 
61 
73 
74 
67 
64 
61 
61 
70 
62 
61 
54 
53 
72 
68 
67 
70 
71 
63 
53 
62 
71 
72 
66 
71 
71 
60 
71 
72 
64 
67 
69 
77 
70 
72 
83 
93 
122 
122 
112 
102 
85 
80 
108 
140 
150 
155 
143 
156 
137 
158 
143 
124 
111 
172 
185 
169 
183 
198 
197 
212 
207 
212 
213 
214 
216 
217 
217 
216 
215 
216 
216 
216 
216 
216 
216 
216 
217 
214 
214 
205 
176 
183 
179 
117 
114 
127 
83 
62 
108 
83 
67 
77 
77 
66 
59 
55 
62 
60 
68 
61 
58 
63 
51 
56 
67 
56 
59 
61 
66 
62 
57 
75 
82 
67 
52 
62 
52 
74 
76 
75 
70 
72 
62 
69 
71 
61 
58 
63 
71 
76 
74 
71 
75 
86 
104 
114 
87 
68 
74 
87 
102 
115 
171 
124 
140 
118 
137 
146 
125 
100 
155 
153 
145 
165 
181 
185 
200 
194 
203 
202 
204 
210 
217 
220 
217 
213 
216 
216 
216 
215 
216 
216 
217 
217 
216 
219 
223 
222 
181 
156 
166 
200 
112 
86 
103 
84 
78 
80 
78 
64 
55 
64 
61 
66 
59 
67 
62 
58 
59 
59 
59 
67 
60 
55 
59 
70 
59 
59 
64 
62 
59 
54 
58 
53 
69 
73 
83 
74 
74 
58 
57 
64 
66 
56 
58 
56 
73 
73 
64 
77 
78 
92 
90 
77 
89 
80 
70 
81 
108 
153 
119 
108 
97 
135 
151 
129 
117 
130 
125 
138 
158 
158 
165 
187 
194 
196 
194 
196 
205 
217 
222 
218 
212 
216 
216 
216 
215 
216 
216 
217 
217 
216 
209 
206 
194 
171 
183 
185 
125 
81 
103 
103 
71 
48 
74 
68 
60 
54 
64 
60 
62 
71 
72 
64 
60 
63 
65 
63 
60 
57 
54 
53 
56 
58 
54 
61 
59 
51 
51 
62 
70 
69 
74 
70 
71 
73 
66 
56 
57 
65 
70 
57 
52 
61 
72 
75 
76 
79 
77 
75 
76 
80 
73 
61 
69 
92 
114 
114 
86 
77 
118 
157 
131 
120 
110 
92 
145 
159 
127 
136 
176 
186 
188 
187 
186 
200 
206 
204 
216 
223 
207 
216 
212 
214 
215 
218 
214 
217 
215 
211 
215 
200 
189 
200 
162 
112 
137 
128 
55 
63 
77 
83 
53 
65 
63 
63 
61 
61 
64 
65 
62 
60 
61 
61 
60 
58 
55 
53 
53 
55 
58 
58 
62 
58 
51 
51 
59 
65 
65 
67 
58 
60 
71 
72 
59 
51 
53 
62 
55 
52 
58 
62 
60 
57 
58 
63 
74 
87 
93 
84 
66 
63 
75 
83 
86 
89 
84 
96 
138 
140 
109 
131 
115 
140 
153 
138 
140 
154 
159 
181 
184 
168 
176 
185 
191 
210 
207 
212 
216 
214 
220 
220 
215 
212 
214 
217 
217 
198 
212 
215 
193 
177 
175 
186 
121 
91 
78 
68 
77 
59 
65 
71 
62 
62 
60 
57 
58 
60 
60 
59 
61 
61 
60 
56 
53 
52 
55 
57 
60 
59 
55 
50 
50 
55 
59 
60 
64 
53 
54 
70 
74 
60 
51 
52 
60 
56 
51 
50 
51 
54 
57 
60 
72 
81 
87 
86 
78 
66 
58 
60 
62 
71 
92 
91 
82 
109 
137 
112 
134 
126 
133 
143 
148 
156 
158 
148 
170 
163 
143 
166 
186 
179 
198 
199 
213 
220 
222 
223 
218 
211 
217 
218 
220 
214 
217 
207 
187 
201 
214 
165 
107 
82 
87 
62 
81 
101 
94 
80 
76 
63 
61 
58 
56 
55 
57 
59 
60 
64 
66 
65 
60 
55 
53 
54 
56 
56 
53 
50 
50 
51 
53 
54 
56 
56 
50 
50 
57 
57 
50 
49 
54 
60 
57 
52 
51 
51 
59 
68 
72 
70 
73 
70 
69 
76 
79 
72 
63 
55 
66 
79 
81 
79 
80 
117 
131 
129 
119 
126 
137 
155 
152 
150 
139 
132 
142 
147 
156 
184 
187 
206 
204 
182 
200 
209 
213 
212 
207 
219 
217 
218 
213 
227 
212 
202 
203 
151 
93 
102 
124 
68 
94 
144 
97 
70 
75 
77 
63 
58 
56 
57 
57 
55 
56 
60 
66 
69 
69 
64 
58 
56 
55 
54 
52 
50 
50 
53 
54 
52 
52 
54 
52 
52 
52 
50 
49 
49 
51 
55 
53 
54 
53 
53 
56 
60 
62 
61 
56 
63 
64 
68 
81 
87 
74 
58 
51 
57 
59 
64 
71 
66 
104 
138 
125 
120 
122 
125 
170 
152 
144 
156 
118 
141 
148 
98 
124 
166 
193 
189 
184 
195 
198 
217 
224 
215 
216 
211 
215 
213 
215 
208 
207 
208 
184 
158 
157 
125 
112 
182 
169 
109 
92 
79 
67 
60 
56 
56 
59 
58 
54 
54 
59 
61 
65 
67 
64 
61 
60 
57 
54 
52 
51 
53 
55 
55 
53 
52 
52 
52 
55 
56 
54 
54 
56 
55 
52 
52 
51 
51 
51 
53 
54 
53 
51 
54 
61 
62 
60 
67 
71 
64 
57 
61 
57 
59 
64 
64 
71 
102 
121 
113 
137 
121 
88 
155 
166 
153 
179 
149 
136 
129 
96 
121 
151 
157 
174 
205 
192 
168 
204 
228 
222 
216 
217 
219 
223 
218 
201 
204 
211 
182 
151 
150 
155 
186 
182 
110 
122 
133 
86 
61 
57 
58 
59 
59 
58 
57 
57 
58 
56 
61 
64 
63 
63 
64 
60 
54 
52 
53 
55 
55 
54 
51 
51 
51 
50 
51 
52 
52 
52 
53 
52 
50 
55 
52 
51 
50 
50 
50 
52 
54 
51 
55 
54 
52 
52 
57 
63 
68 
74 
65 
67 
68 
63 
75 
85 
91 
88 
129 
117 
63 
108 
154 
141 
157 
160 
126 
119 
148 
160 
149 
125 
167 
194 
175 
127 
167 
206 
220 
214 
219 
222 
219 
220 
219 
222 
208 
177 
172 
190 
191 
179 
111 
96 
137 
119 
73 
70 
56 
61 
63 
60 
59 
61 
61 
58 
54 
59 
62 
63 
65 
66 
61 
54 
50 
53 
54 
53 
51 
50 
50 
51 
51 
51 
53 
53 
51 
50 
52 
57 
58 
54 
52 
52 
51 
50 
52 
56 
52 
56 
57 
56 
56 
54 
54 
59 
74 
66 
62 
63 
62 
68 
57 
69 
62 
93 
111 
79 
86 
138 
126 
136 
148 
134 
109 
132 
110 
101 
86 
142 
201 
193 
134 
164 
200 
225 
213 
210 
215 
213 
213 
222 
220 
201 
196 
207 
210 
172 
180 
128 
95 
120 
99 
69 
51 
59 
66 
66 
61 
61 
64 
64 
61 
57 
52 
52 
59 
62 
62 
67 
53 
50 
52 
52 
52 
51 
51 
51 
51 
55 
53 
52 
51 
50 
50 
54 
60 
62 
52 
49 
51 
51 
50 
51 
54 
55 
53 
52 
53 
53 
52 
54 
56 
71 
75 
64 
49 
55 
60 
51 
53 
63 
79 
78 
97 
82 
128 
129 
118 
114 
146 
132 
108 
62 
74 
87 
118 
181 
194 
177 
183 
207 
216 
221 
211 
214 
219 
208 
207 
209 
203 
201 
195 
179 
124 
140 
157 
160 
119 
66 
72 
67 
57 
68 
74 
71 
66 
60 
57 
62 
60 
58 
57 
65 
62 
58 
64 
57 
53 
54 
54 
53 
52 
52 
52 
53 
55 
54 
53 
53 
51 
50 
52 
56 
57 
53 
51 
52 
51 
51 
51 
54 
51 
51 
52 
53 
54 
53 
52 
52 
65 
76 
71 
52 
53 
60 
53 
54 
66 
79 
80 
96 
82 
110 
105 
98 
86 
133 
128 
87 
85 
130 
147 
142 
154 
188 
186 
180 
187 
200 
221 
223 
216 
221 
214 
214 
216 
214 
214 
205 
187 
163 
112 
170 
203 
121 
63 
82 
68 
66 
69 
67 
67 
69 
61 
56 
61 
64 
60 
59 
64 
59 
54 
59 
57 
53 
54 
55 
55 
53 
52 
52 
52 
52 
52 
52 
52 
52 
50 
50 
51 
54 
55 
55 
53 
50 
50 
51 
52 
53 
51 
51 
53 
55 
53 
52 
51 
57 
72 
72 
51 
49 
53 
48 
48 
63 
72 
77 
91 
81 
85 
76 
77 
59 
91 
119 
105 
81 
118 
155 
145 
151 
199 
198 
170 
167 
193 
223 
223 
217 
212 
215 
219 
217 
212 
215 
216 
208 
190 
186 
188 
125 
77 
85 
79 
69 
67 
67 
62 
62 
68 
64 
57 
60 
68 
61 
56 
58 
56 
54 
55 
57 
53 
54 
55 
56 
55 
52 
52 
52 
52 
51 
51 
52 
53 
52 
51 
50 
51 
55 
55 
52 
51 
53 
57 
58 
62 
57 
52 
52 
53 
52 
52 
51 
51 
61 
63 
49 
47 
49 
47 
48 
55 
61 
69 
81 
81 
69 
61 
70 
62 
63 
94 
119 
67 
70 
106 
135 
175 
205 
200 
179 
179 
201 
220 
216 
212 
211 
214 
215 
211 
208 
212 
214 
210 
210 
212 
149 
76 
73 
75 
57 
79 
57 
66 
69 
68 
68 
65 
60 
61 
68 
65 
63 
60 
57 
54 
54 
60 
55 
53 
53 
54 
55 
54 
54 
55 
52 
52 
52 
52 
54 
55 
54 
51 
51 
53 
53 
51 
54 
62 
68 
69 
67 
60 
54 
52 
53 
52 
52 
52 
50 
49 
51 
48 
48 
49 
48 
50 
50 
53 
61 
69 
76 
59 
57 
70 
63 
56 
56 
84 
76 
72 
95 
154 
187 
193 
195 
201 
205 
207 
214 
218 
209 
214 
218 
219 
215 
213 
213 
214 
213 
217 
206 
110 
64 
78 
84 
77 
57 
66 
68 
70 
70 
70 
72 
70 
64 
64 
71 
75 
64 
55 
53 
52 
62 
58 
52 
50 
51 
53 
55 
56 
58 
54 
54 
53 
52 
53 
54 
53 
52 
53 
53 
51 
51 
55 
63 
68 
68 
64 
59 
56 
55 
55 
53 
52 
52 
55 
48 
48 
48 
48 
48 
47 
50 
49 
49 
53 
56 
64 
52 
52 
63 
59 
51 
52 
64 
77 
66 
99 
158 
176 
190 
202 
203 
202 
208 
217 
222 
214 
212 
217 
218 
216 
214 
212 
212 
215 
215 
220 
134 
87 
87 
85 
80 
74 
81 
69 
68 
73 
74 
80 
81 
72 
66 
76 
79 
60 
51 
52 
52 
66 
64 
56 
51 
54 
58 
57 
56 
55 
53 
54 
54 
52 
52 
54 
53 
52 
54 
54 
53 
54 
57 
60 
62 
63 
62 
59 
57 
57 
56 
54 
53 
53 
57 
50 
51 
49 
47 
48 
47 
48 
51 
51 
51 
49 
53 
50 
51 
54 
62 
53 
67 
76 
70 
50 
85 
135 
165 
190 
209 
201 
195 
209 
220 
219 
218 
218 
216 
211 
212 
217 
215 
212 
213 
217 
212 
200 
170 
117 
96 
83 
85 
78 
66 
74 
86 
80 
79 
85 
79 
74 
80 
77 
53 
50 
56 
58 
71 
71 
63 
59 
64 
67 
63 
55 
51 
52 
54 
55 
54 
54 
56 
56 
54 
52 
53 
56 
60 
62 
63 
65 
66 
63 
61 
59 
58 
56 
54 
54 
56 
53 
51 
56 
51 
47 
50 
51 
53 
56 
56 
54 
49 
52 
54 
54 
51 
51 
58 
57 
73 
81 
77 
91 
140 
163 
178 
204 
212 
209 
211 
213 
216 
217 
215 
215 
214 
214 
214 
214 
214 
214 
214 
218 
224 
210 
197 
183 
171 
133 
103 
136 
113 
112 
98 
78 
86 
81 
71 
81 
69 
55 
54 
54 
52 
49 
51 
83 
81 
77 
73 
64 
65 
56 
51 
51 
55 
54 
53 
57 
53 
52 
52 
54 
53 
61 
64 
60 
61 
59 
59 
63 
61 
53 
60 
64 
54 
53 
51 
64 
56 
47 
55 
46 
54 
62 
62 
53 
47 
47 
50 
51 
50 
51 
52 
51 
61 
78 
77 
72 
112 
142 
168 
193 
204 
212 
213 
211 
215 
214 
217 
215 
215 
214 
214 
214 
214 
214 
214 
215 
210 
212 
212 
216 
218 
222 
200 
171 
196 
178 
151 
120 
100 
88 
83 
81 
70 
73 
65 
57 
63 
61 
55 
77 
106 
92 
76 
75 
67 
65 
58 
58 
51 
53 
51 
51 
56 
56 
56 
57 
60 
59 
66 
65 
54 
54 
59 
61 
62 
62 
58 
62 
60 
51 
51 
62 
70 
52 
52 
52 
54 
54 
59 
53 
47 
46 
53 
48 
51 
48 
52 
58 
49 
55 
67 
67 
97 
121 
152 
186 
205 
196 
216 
210 
210 
216 
215 
217 
215 
215 
214 
214 
214 
214 
214 
214 
218 
216 
221 
220 
212 
205 
217 
215 
208 
209 
189 
153 
133 
132 
103 
93 
89 
63 
65 
58 
58 
62 
58 
64 
122 
140 
111 
78 
67 
62 
67 
71 
59 
52 
56 
57 
56 
58 
58 
60 
57 
68 
69 
74 
74 
62 
58 
61 
64 
61 
61 
57 
57 
55 
52 
62 
66 
63 
50 
55 
52 
57 
57 
61 
50 
47 
46 
61 
82 
69 
55 
58 
63 
57 
67 
71 
66 
117 
101 
116 
191 
206 
188 
220 
210 
211 
215 
216 
216 
215 
215 
214 
214 
214 
214 
214 
214 
211 
208 
209 
217 
217 
214 
220 
216 
215 
206 
198 
184 
174 
160 
103 
76 
88 
74 
66 
63 
73 
65 
55 
76 
121 
125 
104 
81 
66 
59 
65 
67 
64 
57 
62 
64 
59 
58 
58 
64 
63 
74 
69 
67 
71 
67 
61 
58 
63 
60 
60 
55 
53 
57 
61 
73 
63 
52 
51 
54 
56 
54 
61 
62 
53 
54 
48 
63 
114 
70 
61 
65 
54 
67 
74 
70 
69 
119 
102 
117 
181 
192 
191 
219 
213 
215 
214 
215 
215 
215 
215 
214 
214 
214 
214 
214 
214 
219 
217 
211 
215 
215 
216 
220 
215 
217 
209 
204 
204 
187 
158 
113 
95 
98 
87 
75 
81 
85 
68 
67 
91 
98 
85 
80 
82 
70 
67 
77 
76 
70 
62 
65 
63 
57 
58 
64 
74 
84 
79 
65 
64 
71 
68 
67 
64 
60 
55 
57 
55 
58 
66 
64 
63 
60 
55 
57 
56 
58 
71 
71 
58 
55 
56 
52 
74 
107 
56 
59 
60 
62 
78 
72 
63 
65 
94 
131 
178 
181 
184 
207 
215 
214 
217 
213 
216 
216 
215 
215 
214 
214 
214 
214 
214 
214 
207 
216 
213 
216 
212 
214 
218 
218 
210 
210 
213 
230 
218 
196 
175 
170 
135 
102 
83 
83 
63 
56 
86 
104 
91 
80 
92 
103 
83 
70 
78 
84 
66 
61 
66 
66 
64 
68 
73 
81 
81 
67 
61 
75 
80 
72 
73 
76 
58 
51 
52 
55 
64 
74 
66 
54 
56 
63 
56 
60 
60 
100 
83 
57 
56 
49 
53 
94 
94 
75 
66 
51 
74 
80 
72 
70 
67 
67 
155 
211 
195 
185 
220 
210 
215 
215 
214 
218 
216 
215 
215 
214 
214 
214 
214 
214 
214 
217 
219 
209 
218 
219 
220 
212 
206 
219 
214 
210 
215 
211 
218 
221 
226 
186 
144 
131 
120 
87 
84 
111 
128 
115 
114 
126 
129 
107 
76 
66 
75 
74 
69 
74 
74 
74 
78 
76 
76 
63 
59 
66 
81 
74 
65 
71 
69 
57 
52 
60 
69 
72 
74 
64 
54 
56 
58 
52 
61 
65 
102 
78 
56 
56 
49 
57 
85 
86 
107 
71 
56 
68 
62 
66 
78 
73 
72 
173 
186 
197 
180 
214 
210 
219 
214 
217 
218 
217 
215 
215 
214 
214 
214 
214 
214 
214 
212 
218 
210 
218 
214 
212 
211 
218 
208 
212 
219 
212 
202 
217 
215 
218 
219 
197 
204 
195 
169 
153 
143 
157 
177 
161 
140 
125 
116 
94 
78 
92 
98 
88 
84 
77 
74 
78 
73 
68 
72 
79 
88 
84 
61 
58 
70 
62 
53 
55 
80 
93 
83 
70 
56 
51 
60 
51 
51 
59 
69 
80 
60 
52 
55 
57 
63 
52 
71 
111 
64 
75 
71 
54 
60 
72 
68 
87 
184 
145 
186 
169 
198 
211 
225 
215 
219 
216 
218 
215 
215 
214 
214 
214 
214 
214 
214 
213 
213 
214 
214 
215 
215 
214 
214 
212 
211 
213 
217 
219 
216 
212 
210 
219 
218 
218 
214 
198 
174 
157 
150 
137 
154 
158 
157 
151 
123 
101 
108 
110 
104 
84 
78 
89 
82 
69 
71 
83 
106 
104 
82 
69 
62 
58 
64 
60 
80 
90 
85 
75 
61 
53 
55 
62 
57 
63 
66 
70 
64 
52 
65 
60 
50 
81 
56 
73 
68 
56 
71 
60 
58 
100 
104 
98 
131 
184 
148 
171 
199 
220 
218 
211 
214 
217 
215 
217 
215 
215 
215 
214 
214 
214 
214 
214 
214 
214 
213 
213 
214 
214 
215 
215 
213 
210 
209 
211 
213 
212 
211 
211 
210 
212 
211 
209 
209 
207 
197 
185 
194 
193 
185 
169 
152 
135 
119 
108 
114 
107 
87 
77 
86 
87 
79 
78 
88 
87 
73 
66 
71 
66 
54 
53 
70 
77 
79 
75 
70 
61 
54 
52 
57 
85 
93 
82 
71 
62 
63 
70 
58 
71 
54 
67 
83 
60 
51 
65 
54 
54 
107 
138 
138 
154 
169 
171 
202 
217 
226 
220 
214 
217 
220 
219 
217 
215 
215 
215 
215 
214 
214 
214 
214 
215 
214 
213 
213 
213 
214 
215 
216 
216 
212 
210 
211 
212 
212 
213 
214 
212 
212 
209 
208 
215 
222 
219 
212 
228 
215 
211 
196 
160 
142 
146 
147 
125 
119 
104 
89 
85 
85 
82 
78 
81 
84 
84 
82 
76 
58 
54 
65 
60 
61 
65 
72 
76 
72 
63 
56 
74 
112 
100 
69 
58 
65 
77 
71 
53 
60 
77 
82 
76 
61 
62 
52 
67 
65 
123 
141 
115 
161 
191 
212 
218 
221 
220 
214 
213 
217 
220 
220 
217 
215 
215 
215 
215 
214 
214 
214 
214 
215 
214 
214 
214 
214 
215 
215 
216 
215 
214 
214 
215 
216 
215 
214 
214 
217 
213 
212 
214 
214 
212 
215 
220 
204 
198 
211 
219 
204 
194 
193 
187 
162 
148 
128 
103 
79 
72 
77 
79 
87 
87 
83 
80 
76 
69 
71 
84 
79 
72 
66 
65 
67 
69 
71 
72 
101 
115 
92 
67 
67 
72 
76 
75 
60 
58 
94 
115 
71 
47 
57 
67 
64 
69 
136 
170 
163 
217 
227 
214 
216 
214 
212 
211 
214 
217 
218 
217 
217 
215 
215 
215 
215 
215 
214 
214 
214 
214 
214 
214 
215 
215 
215 
215 
215 
214 
214 
215 
215 
215 
215 
214 
212 
212 
211 
213 
216 
215 
211 
214 
221 
216 
225 
224 
210 
207 
215 
217 
209 
182 
160 
139 
119 
96 
90 
100 
106 
95 
92 
85 
79 
82 
83 
80 
76 
88 
83 
74 
67 
66 
66 
69 
75 
70 
72 
68 
66 
77 
74 
64 
82 
60 
72 
139 
80 
117 
65 
78 
79 
93 
107 
164 
215 
223 
217 
208 
210 
218 
216 
215 
216 
218 
218 
217 
216 
217 
215 
215 
215 
215 
215 
215 
215 
214 
214 
214 
215 
215 
216 
216 
215 
215 
215 
215 
215 
213 
213 
214 
214 
213 
210 
214 
215 
213 
213 
216 
215 
210 
202 
221 
226 
218 
218 
218 
215 
216 
213 
192 
179 
168 
145 
119 
100 
87 
93 
93 
88 
82 
80 
82 
80 
74 
75 
78 
71 
66 
72 
70 
62 
62 
59 
69 
67 
56 
76 
89 
78 
92 
59 
96 
133 
102 
139 
87 
149 
180 
164 
134 
151 
203 
225 
210 
220 
221 
217 
216 
217 
218 
218 
218 
218 
218 
217 
215 
215 
215 
215 
215 
215 
215 
215 
215 
215 
215 
215 
215 
216 
216 
216 
215 
216 
215 
213 
212 
214 
215 
214 
214 
217 
216 
213 
213 
216 
213 
207 
223 
216 
208 
211 
217 
212 
206 
209 
215 
208 
208 
208 
192 
163 
131 
109 
115 
98 
85 
83 
85 
85 
83 
80 
81 
80 
61 
56 
80 
86 
71 
66 
74 
84 
67 
53 
74 
87 
83 
93 
84 
131 
117 
135 
133 
109 
183 
131 
199 
179 
194 
219 
211 
203 
222 
210 
211 
213 
215 
216 
216 
217 
218 
218 
217 
215 
215 
215 
215 
215 
215 
215 
215 
216 
215 
214 
214 
214 
215 
216 
217 
212 
215 
215 
213 
213 
214 
213 
211 
215 
213 
214 
217 
216 
213 
215 
220 
215 
213 
214 
216 
214 
213 
214 
213 
213 
213 
214 
211 
203 
191 
178 
168 
148 
131 
126 
130 
116 
89 
70 
65 
74 
75 
57 
64 
108 
122 
99 
86 
71 
73 
62 
84 
106 
88 
95 
129 
131 
139 
142 
170 
81 
166 
175 
191 
209 
214 
217 
217 
216 
217 
216 
207 
210 
214 
217 
217 
218 
219 
218 
216 
217 
216 
216 
216 
215 
214 
214 
214 
215 
215 
215 
215 
215 
215 
215 
215 
216 
215 
215 
215 
214 
214 
213 
213 
213 
215 
215 
215 
215 
215 
215 
215 
215 
216 
215 
215 
215 
215 
217 
218 
219 
217 
210 
206 
210 
215 
216 
216 
218 
206 
207 
196 
165 
122 
85 
67 
63 
76 
103 
93 
108 
138 
123 
121 
76 
89 
88 
94 
115 
86 
86 
64 
126 
159 
124 
198 
116 
125 
190 
169 
218 
222 
215 
209 
210 
216 
219 
218 
214 
217 
216 
216 
217 
217 
217 
216 
216 
216 
216 
216 
216 
215 
214 
214 
215 
215 
215 
215 
215 
215 
215 
215 
215 
216 
215 
215 
215 
215 
214 
214 
214 
214 
215 
215 
215 
215 
215 
215 
215 
215 
215 
215 
215 
215 
215 
216 
216 
216 
211 
215 
217 
216 
214 
213 
214 
215 
209 
216 
218 
205 
182 
162 
153 
153 
163 
146 
140 
149 
140 
159 
119 
109 
140 
62 
151 
108 
97 
94 
111 
173 
137 
156 
181 
154 
198 
204 
201 
215 
221 
217 
213 
212 
214 
216 
215 
214 
216 
215 
215 
216 
217 
217 
216 
216 
216 
216 
216 
216 
215 
214 
214 
215 
215 
215 
215 
215 
215 
215 
215 
216 
216 
215 
215 
215 
215 
215 
215 
215 
215 
215 
215 
215 
215 
215 
215 
215 
215 
214 
215 
215 
216 
216 
215 
213 
213 
211 
218 
222 
218 
213 
213 
214 
213 
215 
211 
209 
213 
219 
219 
210 
200 
222 
190 
196 
181 
191 
160 
130 
154 
108 
118 
158 
130 
150 
119 
156 
179 
168 
222 
195 
222 
222 
221 
202 
214 
218 
217 
216 
214 
213 
213 
214 
214 
215 
215 
214 
215 
216 
217 
216 
216 
216 
215 
216 
216 
215 
214 
214 
215 
215 
215 
215 
215 
215 
215 
215 
216 
216 
216 
216 
215 
215 
215 
215 
215 
215 
215 
215 
215 
215 
215 
215 
215 
215 
214 
215 
215 
216 
215 
214 
213 
212 
218 
218 
216 
213 
214 
217 
216 
214 
214 
212 
211 
212 
216 
219 
219 
217 
209 
229 
213 
208 
209 
200 
195 
193 
197 
212 
189 
183 
176 
184 
207 
176 
232 
213 
221 
192 
221 
213 
218 
214 
214 
215 
216 
215 
214 
214 
215 
216 
215 
214 
214 
215 
216 
217 
217 
217 
216 
215 
215 
216 
215 
215 
214 
215 
215 
215 
214 
214 
215 
215 
215 
216 
216 
217 
216 
216 
215 
215 
214 
214 
214 
215 
215 
215 
215 
215 
215 
215 
215 
215 
215 
215 
215 
215 
215 
214 
214 
221 
215 
211 
213 
216 
216 
215 
216 
214 
215 
215 
214 
213 
215 
219 
223 
223 
208 
207 
220 
214 
212 
230 
211 
219 
209 
216 
224 
204 
214 
229 
197 
208 
200 
234 
216 
209 
217 
210 
214 
213 
214 
215 
215 
215 
216 
216 
216 
215 
215 
214 
215 
216 
217 
217 
217 
216 
214 
215 
216 
216 
215 
215 
215 
215 
214 
214 
214 
214 
215 
215 
216 
216 
217 
217 
216 
215 
214 
214 
213 
213 
215 
215 
215 
215 
215 
215 
215 
215 
216 
215 
215 
214 
215 
215 
216 
216 
217 
214 
214 
217 
216 
212 
213 
216 
214 
213 
212 
212 
213 
213 
212 
211 
217 
207 
218 
209 
194 
228 
209 
207 
208 
221 
217 
220 
217 
200 
219 
218 
217 
222 
215 
211 
215 
216 
219 
212 
215 
215 
215 
215 
216 
216 
216 
215 
216 
215 
215 
215 
216 
217 
217 
217 
216 
214 
215 
216 
216 
215 
215 
215 
215 
214 
214 
214 
214 
215 
215 
216 
216 
216 
216 
215 
215 
214 
214 
213 
213 
215 
215 
215 
215 
215 
215 
215 
215 
215 
215 
215 
215 
215 
215 
215 
215 
214 
215 
217 
217 
215 
213 
214 
216 
210 
216 
221 
219 
211 
206 
208 
211 
213 
206 
221 
201 
227 
212 
204 
224 
214 
211 
211 
215 
212 
221 
216 
209 
205 
224 
214 
216 
217 
209 
217 
216 
215 
216 
216 
216 
216 
216 
216 
216 
216 
215 
214 
214 
215 
216 
216 
216 
216 
214 
215 
216 
216 
215 
215 
215 
215 
214 
214 
214 
214 
215 
216 
216 
216 
215 
215 
215 
214 
214 
214 
213 
213 
215 
215 
215 
215 
215 
215 
215 
215 
215 
215 
215 
215 
215 
214 
214 
214 
215 
216 
216 
213 
214 
218 
218 
215 
216 
214 
213 
215 
219 
218 
214 
209 
217 
236 
199 
213 
217 
211 
219 
211 
216 
219 
212 
218 
213 
210 
219 
216 
219 
212 
217 
216 
215 
223 
213 
216 
214 
216 
217 
217 
216 
215 
217 
218 
216 
215 
214 
214 
214 
215 
215 
216 
216 
215 
215 
215 
215 
215 
215 
215 
215 
214 
214 
213 
214 
215 
216 
216 
216 
215 
215 
215 
214 
214 
213 
213 
213 
214 
215 
215 
215 
215 
215 
215 
215 
215 
215 
215 
215 
215 
215 
215 
215 
215 
215 
215 
215 
215 
215 
215 
215 
215 
213 
212 
213 
216 
217 
214 
211 
212 
213 
215 
217 
217 
217 
216 
215 
216 
216 
216 
216 
216 
216 
216 
216 
214 
215 
216 
217 
217 
217 
217 
217 
216 
216 
216 
216 
217 
217 
217 
217 
216 
216 
216 
216 
216 
216 
215 
215 
217 
215 
215 
215 
215 
215 
215 
215 
215 
214 
214 
213 
214 
215 
216 
216 
216 
215 
215 
215 
214 
214 
213 
213 
213 
214 
215 
215 
215 
215 
215 
215 
215 
215 
215 
215 
215 
215 
215 
215 
215 
215 
215 
215 
215 
215 
215 
215 
215 
216 
214 
213 
213 
215 
216 
215 
213 
214 
215 
215 
216 
216 
216 
216 
215 
215 
215 
215 
215 
215 
215 
215 
215 
215 
215 
216 
217 
217 
217 
217 
217 
216 
216 
216 
216 
216 
217 
217 
217 
216 
216 
216 
216 
216 
216 
216 
216 
216 
215 
215 
215 
215 
215 
215 
215 
215 
214 
214 
213 
214 
215 
215 
215 
215 
215 
215 
214 
214 
214 
213 
213 
213 
214 
215 
215 
215 
215 
215 
215 
215 
215 
215 
215 
215 
215 
215 
215 
215 
215 
215 
215 
215 
215 
215 
215 
215 
216 
215 
214 
214 
214 
215 
215 
215 
217 
216 
215 
214 
214 
214 
215 
215 
215 
215 
215 
215 
215 
215 
215 
215 
215 
215 
216 
217 
217 
217 
217 
217 
216 
216 
216 
216 
216 
216 
216 
216 
215 
216 
216 
216 
216 
216 
217 
217 
217 
215 
215 
215 
215 
215 
215 
215 
215 
215 
214 
213 
214 
214 
215 
215 
215 
214 
214 
214 
214 
214 
214 
213 
213 
214 
215 
215 
215 
215 
215 
215 
215 
215 
215 
215 
215 
215 
215 
215 
215 
215 
215 
215 
215 
215 
215 
216 
216 
216 
216 
216 
215 
215 
215 
215 
216 
217 
216 
215 
214 
214 
214 
215 
215 
215 
215 
215 
215 
215 
215 
215 
215 
215 
215 
216 
217 
217 
217 
217 
217 
217 
216 
216 
216 
215 
215 
215 
215 
215 
215 
216 
216 
217 
217 
217 
218 
217 
215 
215 
215 
215 
215 
215 
215 
215 
215 
214 
213 
214 
214 
215 
215 
214 
214 
214 
214 
214 
214 
214 
214 
214 
214 
215 
215 
215 
215 
215 
215 
215 
215 
215 
215 
215 
215 
215 
215 
215 
215 
215 
215 
215 
216 
216 
216 
216 
215 
216 
217 
217 
216 
215 
215 
215 
215 
215 
215 
215 
215 
215 
215 
215 
215 
215 
215 
215 
215 
215 
215 
215 
215 
215 
216 
217 
217 
217 
217 
217 
217 
217 
216 
216 
215 
215 
215 
214 
215 
215 
216 
216 
217 
217 
218 
218 
218 
215 
215 
215 
215 
215 
215 
215 
215 
215 
214 
214 
213 
214 
214 
214 
214 
214 
214 
214 
214 
214 
214 
214 
214 
214 
215 
215 
215 
215 
215 
215 
215 
215 
215 
215 
215 
215 
215 
215 
215 
215 
215 
215 
215 
216 
216 
216 
216 
215 
216 
217 
217 
216 
215 
214 
214 
213 
214 
215 
216 
216 
216 
215 
215 
215 
215 
215 
215 
215 
215 
215 
215 
215 
216 
216 
217 
218 
218 
217 
217 
217 
217 
216 
216 
216 
215 
215 
215 
216 
216 
216 
217 
217 
218 
218 
218 
218 
215 
215 
215 
215 
215 
215 
215 
215 
215 
214 
214 
213 
214 
214 
214 
213 
213 
213 
214 
214 
214 
214 
214 
214 
214 
215 
215 
215 
215 
215 
215 
215 
215 
215 
215 
215 
215 
215 
215 
215 
215 
215 
215 
216 
216 
216 
216 
216 
216 
216 
215 
215 
215 
215 
214 
214 
213 
214 
215 
215 
216 
215 
215 
215 
216 
216 
216 
216 
216 
216 
216 
216 
215 
216 
216 
217 
218 
218 
217 
217 
217 
217 
217 
216 
216 
216 
216 
216 
216 
216 
217 
217 
217 
218 
218 
218 
218 
215 
215 
215 
215 
215 
215 
215 
215 
215 
214 
214 
213 
214 
214 
214 
213 
213 
213 
214 
214 
214 
214 
214 
214 
214 
215 
215 
215 
215 
215 
215 
215 
215 
215 
215 
215 
215 
215 
215 
215 
215 
215 
215 
216 
216 
216 
216 
217 
217 
216 
214 
214 
214 
215 
215 
214 
214 
214 
214 
215 
215 
215 
215 
215 
216 
216 
216 
216 
216 
216 
216 
216 
215 
216 
217 
217 
218 
218 
217 
217 
217 
217 
217 
217 
217 
217 
217 
216 
217 
217 
217 
217 
217 
217 
218 
218 
217 
215 
215 
215 
215 
215 
215 
215 
215 
215 
214 
213 
213 
213 
214 
214 
214 
213 
213 
214 
214 
214 
214 
214 
214 
214 
214 
214 
215 
215 
215 
215 
215 
215 
215 
215 
215 
215 
215 
215 
215 
215 
215 
215 
216 
216 
216 
216 
216 
216 
216 
216 
215 
214 
214 
214 
214 
213 
213 
213 
214 
215 
215 
215 
216 
216 
216 
217 
217 
216 
216 
216 
216 
216 
216 
216 
217 
218 
218 
217 
217 
217 
216 
216 
216 
217 
217 
217 
217 
217 
217 
217 
218 
218 
217 
217 
217 
217 
