P2
# Created by MsrVolt
111 64
255
213 
215 
217 
217 
216 
216 
216 
216 
215 
215 
215 
215 
215 
215 
215 
215 
212 
217 
213 
212 
218 
214 
210 
218 
217 
215 
214 
213 
211 
214 
217 
216 
213 
215 
216 
216 
214 
213 
214 
216 
217 
214 
213 
215 
217 
217 
216 
216 
216 
216 
216 
216 
216 
216 
216 
216 
219 
216 
217 
217 
215 
216 
219 
217 
217 
217 
217 
217 
217 
217 
216 
215 
216 
216 
215 
215 
214 
214 
214 
214 
217 
217 
217 
217 
216 
216 
217 
218 
217 
216 
216 
216 
217 
218 
218 
218 
219 
218 
217 
217 
217 
218 
217 
217 
217 
218 
218 
218 
218 
218 
218 
213 
215 
216 
217 
216 
215 
215 
216 
215 
215 
215 
215 
215 
215 
215 
215 
212 
216 
216 
215 
215 
215 
213 
212 
213 
214 
215 
215 
215 
215 
215 
215 
216 
215 
214 
214 
216 
217 
216 
216 
218 
217 
217 
218 
218 
216 
216 
217 
216 
216 
216 
216 
216 
216 
216 
216 
218 
216 
218 
219 
217 
217 
218 
215 
217 
217 
217 
218 
219 
219 
219 
218 
218 
217 
216 
215 
215 
215 
216 
216 
216 
216 
217 
217 
217 
217 
217 
218 
217 
216 
216 
216 
217 
218 
218 
217 
218 
217 
217 
217 
217 
217 
217 
217 
217 
218 
218 
218 
218 
218 
218 
213 
214 
216 
216 
216 
215 
215 
215 
215 
215 
215 
215 
215 
215 
215 
215 
211 
213 
216 
214 
212 
214 
215 
209 
216 
217 
214 
212 
215 
214 
214 
217 
214 
215 
216 
215 
213 
213 
215 
218 
214 
214 
215 
217 
217 
216 
218 
220 
216 
216 
216 
216 
216 
216 
216 
216 
218 
216 
218 
219 
217 
217 
218 
216 
216 
216 
216 
217 
218 
218 
217 
217 
216 
216 
215 
214 
214 
214 
216 
216 
215 
216 
217 
217 
217 
217 
217 
217 
217 
216 
216 
216 
217 
218 
218 
217 
218 
217 
216 
216 
217 
217 
217 
216 
217 
218 
218 
218 
218 
218 
218 
213 
213 
215 
215 
216 
215 
215 
215 
215 
215 
215 
215 
215 
215 
215 
215 
212 
214 
213 
212 
214 
215 
214 
214 
217 
218 
214 
212 
214 
213 
212 
216 
216 
217 
216 
215 
214 
214 
215 
214 
213 
212 
213 
215 
215 
215 
217 
219 
216 
216 
216 
216 
216 
216 
216 
216 
218 
216 
217 
217 
215 
217 
219 
218 
217 
217 
216 
216 
217 
216 
215 
214 
215 
215 
215 
215 
215 
215 
216 
216 
214 
215 
217 
217 
217 
217 
217 
217 
217 
217 
216 
216 
217 
218 
217 
217 
218 
217 
216 
216 
217 
217 
217 
216 
217 
218 
218 
218 
218 
218 
218 
212 
213 
214 
215 
216 
216 
215 
214 
215 
215 
215 
215 
215 
215 
215 
215 
213 
218 
213 
213 
221 
217 
211 
218 
215 
215 
214 
215 
216 
213 
212 
214 
218 
216 
214 
214 
218 
220 
216 
211 
220 
218 
217 
217 
216 
215 
215 
217 
216 
216 
216 
216 
216 
216 
216 
216 
217 
215 
217 
218 
215 
216 
218 
216 
219 
218 
218 
218 
218 
218 
217 
216 
216 
217 
218 
218 
219 
218 
217 
217 
214 
215 
217 
218 
217 
217 
217 
217 
217 
217 
216 
216 
217 
217 
217 
217 
218 
217 
216 
216 
217 
217 
217 
216 
217 
218 
218 
218 
218 
218 
218 
213 
213 
214 
215 
216 
216 
215 
214 
215 
215 
215 
215 
215 
215 
215 
215 
212 
218 
215 
215 
222 
218 
210 
212 
221 
213 
212 
214 
211 
212 
218 
220 
208 
214 
219 
216 
213 
213 
215 
215 
219 
219 
219 
219 
218 
216 
218 
221 
216 
216 
216 
216 
216 
216 
216 
216 
216 
215 
218 
220 
218 
217 
216 
213 
217 
217 
216 
217 
217 
218 
217 
216 
215 
216 
218 
219 
219 
218 
216 
215 
216 
216 
217 
218 
217 
217 
217 
217 
218 
217 
216 
216 
217 
217 
217 
217 
218 
218 
217 
217 
217 
217 
217 
217 
217 
218 
218 
218 
218 
218 
218 
213 
213 
214 
215 
217 
217 
216 
215 
215 
215 
215 
215 
215 
215 
215 
215 
215 
216 
219 
216 
213 
219 
219 
206 
226 
213 
214 
217 
209 
212 
222 
221 
204 
214 
220 
216 
210 
210 
215 
218 
208 
211 
215 
215 
212 
211 
216 
223 
216 
216 
216 
216 
216 
216 
216 
216 
217 
215 
218 
220 
218 
218 
219 
216 
216 
216 
215 
216 
216 
216 
216 
215 
214 
215 
216 
217 
217 
215 
214 
213 
217 
218 
218 
218 
217 
217 
217 
217 
218 
217 
216 
216 
217 
217 
217 
217 
219 
218 
217 
217 
218 
218 
218 
217 
217 
218 
218 
218 
218 
218 
218 
213 
213 
214 
215 
217 
217 
216 
215 
215 
215 
215 
215 
215 
215 
215 
215 
222 
217 
225 
218 
205 
223 
234 
207 
222 
210 
221 
229 
217 
216 
220 
210 
218 
216 
213 
213 
218 
223 
219 
212 
199 
205 
210 
209 
202 
200 
208 
217 
216 
216 
216 
216 
216 
216 
216 
216 
219 
215 
216 
217 
215 
219 
224 
224 
219 
218 
218 
217 
217 
217 
216 
215 
216 
216 
217 
217 
216 
215 
214 
214 
218 
219 
219 
218 
217 
217 
217 
218 
218 
217 
216 
216 
217 
217 
217 
217 
219 
218 
218 
218 
218 
218 
218 
218 
217 
218 
218 
218 
218 
218 
218 
214 
214 
214 
215 
215 
216 
215 
215 
212 
212 
224 
214 
215 
223 
212 
217 
209 
214 
205 
222 
233 
208 
133 
153 
201 
224 
221 
214 
210 
211 
196 
200 
219 
213 
202 
202 
207 
203 
212 
198 
192 
193 
208 
207 
195 
179 
188 
192 
201 
207 
216 
208 
214 
217 
219 
201 
200 
214 
197 
214 
205 
201 
208 
213 
210 
228 
216 
223 
205 
223 
210 
218 
225 
221 
216 
226 
218 
227 
208 
218 
217 
216 
225 
215 
216 
216 
220 
217 
215 
220 
218 
212 
219 
222 
220 
218 
215 
217 
222 
216 
217 
222 
216 
219 
219 
218 
218 
218 
217 
217 
216 
214 
214 
214 
215 
215 
216 
215 
215 
219 
217 
217 
211 
215 
221 
223 
212 
228 
217 
220 
215 
207 
121 
16 
16 
85 
166 
229 
195 
196 
192 
177 
193 
201 
195 
209 
194 
182 
190 
192 
194 
175 
165 
219 
200 
169 
176 
168 
142 
158 
208 
186 
211 
198 
198 
209 
188 
175 
197 
195 
201 
180 
185 
201 
189 
182 
202 
196 
213 
191 
215 
213 
212 
209 
210 
207 
214 
219 
222 
223 
218 
218 
214 
215 
219 
220 
218 
215 
210 
225 
222 
216 
225 
219 
213 
221 
229 
216 
214 
220 
217 
217 
221 
216 
218 
219 
218 
218 
218 
218 
218 
218 
214 
214 
214 
215 
215 
216 
215 
215 
210 
218 
219 
215 
211 
208 
228 
208 
205 
205 
218 
205 
130 
42 
52 
42 
28 
94 
185 
186 
180 
177 
176 
172 
181 
191 
207 
190 
183 
179 
197 
166 
114 
139 
207 
194 
193 
195 
171 
153 
127 
167 
188 
206 
193 
196 
182 
158 
159 
173 
167 
156 
148 
168 
180 
159 
137 
176 
199 
186 
186 
190 
206 
190 
194 
190 
186 
197 
208 
212 
211 
210 
228 
204 
218 
224 
219 
221 
225 
219 
225 
223 
214 
223 
218 
214 
214 
226 
220 
214 
219 
219 
218 
220 
217 
217 
218 
218 
218 
218 
218 
219 
219 
214 
214 
214 
215 
215 
216 
215 
215 
214 
212 
212 
213 
217 
214 
222 
188 
108 
131 
195 
201 
106 
24 
40 
36 
34 
54 
110 
175 
162 
169 
175 
136 
176 
182 
185 
146 
143 
142 
195 
154 
102 
155 
177 
144 
142 
135 
164 
188 
160 
134 
165 
159 
163 
192 
154 
124 
132 
139 
147 
132 
136 
155 
149 
141 
122 
145 
165 
182 
183 
182 
182 
204 
164 
206 
165 
172 
191 
159 
216 
196 
205 
178 
215 
204 
208 
213 
205 
213 
217 
214 
222 
214 
220 
232 
215 
216 
225 
218 
220 
221 
218 
218 
218 
217 
217 
218 
218 
217 
217 
218 
218 
214 
214 
214 
215 
215 
216 
215 
215 
218 
212 
218 
214 
216 
216 
209 
194 
92 
80 
132 
215 
170 
80 
112 
69 
61 
73 
98 
158 
142 
155 
159 
121 
170 
152 
160 
120 
103 
108 
143 
124 
121 
163 
184 
138 
71 
42 
102 
126 
134 
113 
108 
114 
120 
151 
133 
124 
110 
99 
136 
136 
131 
148 
140 
144 
141 
124 
146 
144 
155 
168 
178 
185 
172 
196 
161 
126 
189 
178 
215 
180 
193 
163 
189 
163 
168 
196 
172 
204 
202 
181 
218 
210 
206 
230 
222 
209 
225 
222 
219 
220 
218 
217 
219 
218 
218 
220 
220 
218 
217 
219 
218 
214 
214 
214 
215 
215 
216 
215 
215 
213 
214 
227 
217 
210 
210 
199 
221 
172 
212 
160 
176 
201 
142 
208 
140 
152 
140 
159 
168 
128 
132 
160 
150 
177 
131 
106 
121 
117 
124 
144 
127 
104 
116 
169 
165 
94 
45 
53 
69 
91 
97 
93 
94 
117 
127 
125 
141 
139 
83 
98 
106 
101 
143 
156 
151 
135 
106 
149 
102 
110 
129 
172 
132 
152 
148 
170 
121 
154 
192 
161 
183 
199 
149 
162 
166 
132 
178 
172 
175 
188 
157 
193 
217 
189 
197 
226 
215 
218 
224 
218 
217 
219 
217 
219 
220 
219 
221 
221 
218 
218 
220 
219 
214 
214 
214 
215 
215 
216 
215 
215 
215 
214 
212 
212 
216 
212 
183 
215 
181 
185 
178 
169 
186 
156 
194 
176 
186 
167 
170 
151 
101 
78 
124 
139 
110 
70 
46 
107 
128 
113 
127 
96 
86 
75 
105 
121 
111 
93 
66 
88 
114 
97 
100 
85 
109 
127 
119 
130 
153 
109 
81 
78 
75 
122 
147 
136 
113 
98 
121 
125 
98 
107 
142 
135 
140 
134 
125 
114 
122 
164 
145 
144 
171 
136 
146 
193 
145 
154 
180 
132 
179 
179 
157 
222 
191 
158 
215 
224 
210 
227 
219 
215 
222 
218 
218 
220 
218 
220 
220 
217 
217 
220 
219 
214 
214 
214 
215 
215 
216 
215 
215 
211 
219 
210 
216 
217 
199 
159 
198 
178 
170 
176 
157 
161 
163 
167 
153 
148 
181 
157 
136 
105 
55 
91 
118 
84 
47 
59 
83 
92 
63 
82 
74 
76 
77 
78 
79 
98 
120 
86 
84 
99 
85 
89 
93 
66 
103 
105 
107 
114 
143 
111 
95 
77 
91 
110 
109 
116 
123 
119 
143 
123 
109 
134 
149 
161 
156 
131 
92 
106 
144 
173 
124 
148 
151 
134 
187 
173 
132 
185 
134 
163 
208 
121 
209 
196 
126 
188 
217 
207 
231 
222 
216 
224 
219 
217 
219 
215 
218 
218 
215 
215 
218 
218 
211 
214 
213 
213 
217 
215 
216 
218 
215 
214 
223 
210 
190 
207 
179 
177 
190 
155 
177 
154 
111 
128 
140 
176 
130 
160 
144 
90 
110 
72 
93 
118 
94 
80 
94 
73 
89 
53 
68 
78 
75 
69 
66 
81 
97 
88 
81 
94 
89 
88 
79 
84 
74 
68 
84 
75 
83 
119 
143 
105 
75 
117 
127 
114 
126 
116 
133 
138 
113 
124 
133 
130 
163 
160 
157 
93 
118 
137 
185 
146 
144 
195 
122 
169 
182 
147 
184 
135 
112 
193 
115 
156 
226 
116 
171 
209 
177 
211 
216 
225 
230 
218 
215 
220 
215 
216 
219 
221 
219 
216 
216 
216 
214 
216 
213 
212 
217 
210 
217 
216 
215 
207 
199 
169 
189 
214 
162 
179 
133 
160 
158 
71 
96 
103 
187 
121 
127 
163 
89 
136 
100 
80 
127 
129 
97 
90 
88 
68 
70 
66 
74 
69 
71 
75 
84 
86 
77 
77 
90 
80 
67 
67 
81 
83 
77 
76 
71 
80 
93 
91 
68 
76 
129 
171 
150 
121 
138 
121 
97 
102 
141 
114 
135 
155 
147 
162 
91 
154 
119 
163 
177 
144 
208 
127 
152 
182 
138 
163 
117 
83 
122 
132 
118 
196 
159 
161 
206 
187 
189 
210 
222 
228 
230 
227 
214 
220 
218 
216 
217 
218 
219 
217 
217 
212 
217 
214 
209 
224 
212 
223 
215 
202 
176 
216 
169 
134 
210 
138 
115 
91 
156 
136 
85 
97 
94 
158 
133 
123 
164 
138 
161 
95 
78 
104 
143 
135 
83 
92 
73 
72 
62 
64 
59 
64 
74 
79 
74 
69 
72 
77 
64 
64 
64 
64 
78 
86 
72 
67 
83 
97 
153 
118 
74 
79 
126 
146 
114 
138 
124 
106 
109 
151 
134 
133 
178 
149 
169 
110 
147 
127 
124 
164 
127 
158 
111 
140 
176 
132 
128 
169 
111 
104 
157 
130 
149 
162 
93 
138 
190 
152 
166 
167 
191 
229 
233 
218 
213 
218 
220 
216 
212 
213 
215 
214 
213 
212 
217 
208 
224 
215 
221 
219 
205 
136 
197 
168 
101 
197 
133 
92 
67 
99 
98 
74 
75 
63 
120 
162 
123 
113 
112 
131 
116 
86 
96 
141 
142 
112 
90 
91 
76 
69 
66 
62 
61 
69 
76 
75 
79 
80 
70 
60 
60 
63 
61 
82 
126 
122 
68 
87 
73 
130 
156 
135 
72 
70 
120 
108 
122 
120 
122 
122 
145 
162 
115 
154 
150 
147 
117 
116 
124 
89 
95 
110 
90 
77 
118 
150 
127 
93 
161 
163 
84 
138 
140 
125 
182 
69 
100 
198 
61 
41 
82 
133 
197 
221 
235 
210 
218 
221 
216 
212 
214 
217 
213 
218 
208 
219 
207 
214 
214 
208 
213 
206 
112 
165 
163 
60 
137 
142 
114 
65 
55 
75 
65 
66 
67 
94 
141 
140 
88 
76 
115 
156 
132 
134 
145 
117 
162 
94 
92 
91 
81 
81 
68 
58 
60 
68 
71 
82 
84 
70 
68 
59 
69 
70 
60 
122 
174 
128 
74 
71 
55 
115 
159 
108 
86 
98 
112 
136 
115 
99 
117 
154 
169 
111 
128 
145 
100 
79 
88 
96 
97 
84 
81 
70 
82 
96 
101 
96 
80 
87 
138 
98 
123 
164 
90 
82 
67 
97 
199 
92 
83 
87 
58 
105 
174 
226 
221 
222 
219 
214 
216 
221 
220 
213 
220 
208 
221 
209 
210 
217 
202 
196 
195 
106 
117 
164 
56 
77 
143 
80 
48 
68 
105 
66 
61 
80 
102 
104 
117 
97 
74 
98 
128 
131 
121 
137 
118 
161 
90 
84 
84 
80 
84 
67 
54 
53 
58 
60 
70 
77 
71 
66 
75 
73 
66 
43 
62 
135 
159 
93 
95 
81 
105 
117 
126 
117 
93 
110 
152 
131 
82 
91 
159 
161 
124 
128 
105 
87 
89 
94 
107 
99 
81 
96 
66 
112 
92 
76 
72 
75 
66 
99 
81 
98 
179 
100 
61 
58 
111 
194 
129 
87 
67 
29 
31 
115 
211 
222 
223 
221 
216 
214 
216 
217 
214 
215 
212 
219 
212 
214 
220 
206 
176 
187 
120 
44 
161 
122 
80 
125 
59 
48 
89 
142 
56 
56 
64 
161 
135 
82 
113 
67 
79 
101 
109 
101 
116 
117 
117 
83 
78 
68 
77 
72 
64 
53 
54 
60 
59 
61 
69 
72 
64 
76 
66 
63 
60 
48 
66 
100 
97 
63 
85 
96 
79 
116 
104 
78 
92 
136 
133 
83 
73 
122 
130 
120 
137 
79 
78 
94 
87 
108 
93 
79 
152 
80 
112 
98 
83 
79 
69 
71 
86 
103 
86 
162 
123 
84 
69 
112 
192 
156 
77 
38 
49 
64 
159 
216 
207 
216 
223 
221 
213 
209 
213 
216 
210 
216 
216 
211 
216 
218 
206 
147 
174 
153 
27 
163 
142 
59 
98 
56 
37 
74 
77 
53 
73 
62 
159 
137 
95 
112 
70 
86 
82 
127 
114 
106 
85 
91 
86 
70 
72 
85 
65 
54 
46 
50 
60 
58 
54 
58 
64 
74 
66 
69 
68 
63 
65 
65 
64 
74 
88 
105 
85 
71 
111 
106 
81 
85 
124 
116 
83 
86 
78 
93 
107 
106 
88 
70 
89 
103 
86 
100 
80 
155 
110 
100 
106 
81 
81 
77 
70 
80 
114 
103 
76 
82 
77 
52 
91 
155 
97 
50 
59 
88 
100 
203 
190 
197 
206 
218 
224 
222 
216 
215 
212 
217 
212 
216 
213 
216 
205 
204 
130 
166 
173 
60 
185 
146 
151 
93 
62 
43 
66 
77 
65 
76 
71 
105 
88 
87 
97 
81 
77 
85 
119 
145 
101 
79 
70 
77 
85 
71 
71 
64 
51 
45 
49 
54 
57 
60 
56 
57 
70 
73 
72 
68 
68 
72 
71 
66 
63 
74 
84 
87 
79 
104 
105 
80 
83 
103 
95 
82 
84 
89 
75 
84 
73 
76 
82 
78 
120 
111 
81 
69 
113 
144 
102 
94 
90 
60 
76 
83 
65 
101 
127 
84 
54 
55 
49 
67 
104 
85 
72 
130 
148 
99 
117 
77 
166 
229 
206 
209 
220 
220 
215 
216 
213 
216 
214 
220 
208 
208 
212 
102 
171 
184 
99 
177 
165 
148 
132 
76 
45 
93 
101 
74 
79 
74 
66 
58 
68 
94 
83 
80 
75 
80 
130 
92 
54 
65 
71 
69 
69 
71 
64 
52 
46 
54 
59 
59 
60 
56 
57 
63 
64 
64 
62 
59 
58 
57 
56 
53 
63 
65 
71 
78 
97 
92 
81 
80 
82 
88 
85 
88 
95 
83 
79 
68 
77 
67 
77 
93 
132 
92 
56 
88 
137 
102 
60 
86 
57 
52 
67 
80 
78 
141 
155 
43 
52 
60 
76 
65 
82 
47 
167 
166 
91 
66 
41 
161 
228 
231 
215 
213 
216 
218 
214 
212 
214 
212 
221 
211 
210 
210 
129 
171 
199 
118 
151 
166 
158 
157 
86 
79 
82 
113 
88 
78 
78 
79 
85 
79 
88 
79 
92 
90 
62 
124 
96 
42 
66 
73 
62 
73 
74 
70 
59 
54 
63 
67 
65 
64 
60 
62 
61 
61 
61 
61 
57 
52 
51 
54 
53 
58 
47 
52 
72 
85 
81 
87 
78 
73 
87 
93 
97 
91 
73 
84 
81 
77 
70 
56 
62 
107 
95 
46 
70 
138 
120 
75 
97 
57 
76 
51 
84 
50 
128 
182 
63 
57 
39 
64 
60 
75 
39 
162 
161 
79 
56 
77 
132 
192 
224 
221 
221 
216 
214 
211 
218 
212 
214 
215 
224 
212 
204 
193 
196 
188 
92 
144 
172 
138 
147 
109 
136 
52 
114 
81 
80 
80 
80 
108 
96 
89 
80 
91 
100 
75 
138 
111 
52 
71 
84 
73 
80 
78 
76 
63 
58 
64 
67 
65 
65 
62 
63 
61 
61 
61 
60 
57 
55 
55 
57 
56 
59 
48 
49 
66 
76 
76 
85 
85 
85 
75 
78 
105 
113 
67 
70 
88 
69 
71 
48 
62 
84 
100 
62 
48 
144 
141 
88 
126 
73 
81 
64 
77 
69 
92 
131 
70 
51 
44 
45 
56 
56 
55 
129 
132 
89 
66 
83 
134 
197 
219 
218 
218 
213 
214 
213 
220 
215 
216 
215 
224 
216 
213 
197 
154 
151 
89 
130 
186 
148 
130 
105 
154 
76 
142 
59 
75 
93 
72 
94 
89 
78 
78 
85 
104 
87 
117 
113 
69 
65 
84 
84 
80 
75 
77 
63 
54 
58 
60 
60 
61 
58 
58 
58 
60 
58 
54 
54 
57 
58 
55 
52 
54 
55 
55 
61 
68 
74 
75 
80 
94 
73 
65 
86 
117 
71 
56 
79 
71 
62 
64 
68 
83 
83 
68 
44 
101 
134 
80 
109 
86 
66 
74 
80 
68 
81 
83 
60 
47 
50 
57 
49 
49 
68 
91 
69 
86 
113 
119 
127 
222 
227 
217 
213 
216 
219 
215 
214 
217 
214 
218 
209 
217 
228 
163 
94 
155 
124 
122 
176 
183 
128 
78 
116 
94 
148 
71 
63 
82 
74 
94 
94 
78 
77 
79 
100 
82 
67 
97 
77 
55 
71 
78 
69 
65 
70 
63 
54 
57 
60 
60 
61 
57 
57 
58 
61 
59 
53 
53 
58 
58 
53 
50 
48 
54 
49 
49 
57 
71 
69 
75 
78 
72 
76 
63 
82 
66 
56 
72 
83 
72 
75 
69 
73 
68 
69 
60 
64 
95 
82 
74 
79 
70 
68 
71 
82 
67 
64 
67 
45 
51 
66 
71 
51 
61 
64 
52 
69 
175 
177 
122 
216 
214 
218 
222 
221 
215 
216 
212 
215 
214 
218 
206 
215 
229 
172 
123 
187 
155 
143 
156 
151 
96 
66 
77 
69 
119 
114 
57 
56 
67 
99 
104 
88 
72 
69 
96 
81 
52 
84 
84 
59 
60 
60 
58 
55 
59 
61 
55 
61 
64 
63 
61 
56 
55 
59 
61 
60 
57 
56 
57 
56 
54 
54 
47 
49 
45 
46 
50 
63 
62 
75 
60 
57 
74 
67 
61 
61 
53 
64 
79 
79 
74 
76 
68 
81 
89 
73 
70 
66 
96 
71 
76 
61 
61 
69 
138 
47 
65 
92 
42 
74 
56 
77 
52 
51 
63 
82 
69 
173 
140 
153 
212 
208 
213 
222 
218 
212 
216 
218 
212 
218 
215 
218 
213 
220 
199 
148 
183 
178 
139 
150 
104 
30 
48 
69 
69 
119 
145 
61 
71 
87 
96 
90 
67 
50 
71 
116 
94 
52 
84 
94 
73 
58 
48 
53 
51 
53 
54 
50 
60 
64 
60 
57 
49 
48 
56 
56 
58 
59 
55 
51 
51 
53 
54 
49 
50 
48 
58 
51 
52 
50 
51 
61 
61 
64 
69 
53 
64 
60 
57 
64 
62 
70 
74 
69 
79 
85 
88 
53 
71 
125 
57 
79 
53 
45 
103 
128 
65 
109 
137 
49 
50 
66 
53 
71 
57 
57 
58 
68 
148 
112 
151 
203 
221 
214 
219 
218 
215 
215 
216 
216 
214 
214 
216 
214 
210 
176 
109 
154 
193 
112 
123 
74 
71 
75 
70 
57 
95 
159 
67 
77 
86 
75 
61 
61 
49 
65 
146 
100 
58 
86 
99 
68 
48 
47 
45 
50 
52 
50 
54 
57 
57 
54 
52 
52 
54 
61 
61 
58 
53 
51 
52 
53 
52 
50 
51 
51 
51 
51 
52 
53 
53 
56 
56 
54 
72 
70 
55 
66 
68 
56 
57 
56 
61 
71 
75 
73 
73 
84 
52 
67 
128 
62 
52 
46 
54 
134 
89 
69 
115 
120 
64 
48 
60 
57 
45 
65 
81 
51 
75 
98 
103 
171 
186 
194 
221 
218 
223 
209 
213 
215 
215 
215 
217 
218 
218 
216 
171 
55 
137 
203 
82 
138 
79 
111 
109 
68 
45 
82 
147 
78 
66 
68 
58 
54 
62 
53 
64 
127 
94 
61 
86 
95 
66 
50 
52 
49 
53 
53 
53 
54 
53 
51 
48 
48 
50 
53 
55 
56 
54 
52 
51 
53 
53 
52 
51 
52 
52 
52 
51 
51 
52 
53 
54 
56 
54 
73 
76 
61 
65 
66 
52 
60 
65 
66 
66 
65 
68 
75 
69 
45 
56 
104 
78 
56 
54 
57 
95 
81 
68 
97 
105 
61 
44 
54 
53 
69 
56 
52 
48 
78 
72 
88 
161 
166 
199 
215 
223 
210 
220 
214 
214 
215 
216 
216 
215 
215 
217 
183 
60 
133 
196 
96 
166 
83 
134 
142 
70 
40 
68 
115 
78 
57 
65 
56 
57 
65 
59 
65 
102 
83 
59 
73 
81 
59 
48 
52 
50 
54 
54 
58 
56 
53 
50 
48 
49 
51 
52 
50 
51 
52 
52 
53 
54 
54 
52 
51 
53 
54 
53 
51 
50 
51 
52 
48 
53 
52 
71 
82 
70 
68 
68 
51 
62 
68 
64 
58 
53 
57 
66 
53 
42 
47 
79 
87 
49 
51 
52 
70 
83 
71 
75 
79 
54 
46 
57 
63 
70 
79 
61 
52 
69 
55 
73 
93 
160 
220 
209 
230 
211 
216 
215 
213 
214 
216 
215 
213 
214 
218 
185 
117 
171 
210 
142 
165 
98 
124 
143 
70 
41 
61 
84 
68 
53 
63 
62 
60 
62 
59 
66 
82 
75 
56 
64 
71 
56 
48 
50 
48 
53 
57 
58 
57 
55 
53 
52 
51 
50 
49 
50 
50 
51 
53 
55 
56 
54 
52 
52 
53 
54 
53 
50 
49 
50 
52 
46 
53 
49 
63 
76 
67 
62 
64 
58 
63 
63 
59 
55 
50 
49 
54 
49 
44 
45 
76 
86 
45 
48 
53 
65 
81 
73 
66 
62 
50 
52 
61 
65 
66 
104 
74 
74 
74 
62 
70 
101 
159 
205 
212 
231 
216 
209 
213 
212 
214 
217 
217 
216 
218 
222 
175 
121 
172 
223 
170 
159 
136 
108 
126 
70 
46 
61 
70 
58 
51 
51 
58 
57 
57 
59 
68 
72 
73 
62 
68 
67 
54 
49 
54 
55 
56 
59 
55 
54 
53 
52 
51 
50 
48 
47 
49 
48 
49 
53 
56 
56 
54 
51 
52 
53 
54 
52 
50 
50 
51 
53 
51 
55 
49 
53 
61 
54 
49 
53 
64 
66 
62 
58 
56 
53 
51 
53 
55 
48 
45 
88 
79 
49 
54 
61 
59 
64 
70 
72 
59 
50 
54 
57 
62 
126 
131 
69 
63 
46 
62 
102 
142 
165 
205 
218 
207 
211 
225 
214 
213 
214 
216 
216 
215 
216 
218 
190 
126 
152 
210 
156 
141 
142 
109 
117 
81 
64 
65 
67 
50 
56 
58 
55 
61 
63 
67 
73 
74 
78 
76 
69 
57 
46 
46 
57 
62 
59 
57 
54 
52 
50 
49 
48 
48 
48 
48 
48 
47 
47 
51 
55 
55 
52 
50 
52 
52 
51 
51 
51 
52 
54 
55 
55 
56 
51 
49 
53 
50 
47 
51 
60 
64 
63 
58 
55 
52 
53 
59 
59 
47 
45 
88 
67 
53 
57 
61 
63 
55 
65 
72 
56 
46 
52 
56 
90 
156 
103 
75 
77 
62 
72 
95 
104 
148 
208 
221 
218 
215 
223 
214 
215 
215 
214 
214 
214 
213 
211 
213 
188 
185 
208 
124 
103 
126 
120 
122 
89 
82 
72 
82 
60 
65 
71 
59 
65 
65 
68 
71 
77 
79 
82 
68 
54 
46 
47 
57 
60 
55 
53 
52 
51 
50 
48 
48 
48 
49 
50 
50 
48 
47 
49 
53 
53 
50 
47 
52 
50 
48 
49 
51 
54 
56 
57 
55 
54 
53 
51 
52 
55 
53 
53 
53 
60 
61 
57 
54 
50 
52 
59 
55 
47 
56 
77 
57 
47 
56 
60 
66 
59 
63 
63 
51 
45 
53 
66 
114 
124 
70 
59 
53 
81 
106 
128 
190 
202 
210 
211 
227 
211 
208 
213 
215 
215 
214 
215 
218 
216 
212 
216 
228 
218 
217 
120 
106 
150 
129 
126 
84 
84 
77 
109 
84 
69 
65 
58 
60 
55 
57 
63 
77 
75 
79 
76 
64 
58 
57 
56 
54 
49 
51 
47 
48 
49 
49 
49 
48 
49 
49 
54 
49 
47 
49 
53 
51 
48 
46 
52 
49 
47 
47 
51 
55 
58 
59 
55 
51 
54 
52 
53 
57 
53 
49 
51 
58 
59 
57 
55 
51 
51 
56 
50 
51 
72 
71 
56 
45 
61 
69 
56 
59 
61 
57 
52 
50 
56 
76 
99 
80 
70 
47 
50 
110 
106 
112 
186 
203 
211 
212 
216 
221 
217 
215 
215 
214 
214 
214 
216 
218 
220 
202 
223 
216 
218 
154 
139 
160 
135 
121 
103 
100 
109 
148 
139 
84 
67 
49 
48 
51 
51 
59 
68 
68 
71 
69 
66 
63 
59 
52 
47 
49 
55 
47 
48 
48 
48 
48 
50 
51 
52 
58 
54 
49 
48 
50 
51 
49 
46 
48 
49 
51 
53 
55 
56 
57 
57 
50 
50 
51 
52 
53 
52 
50 
48 
53 
58 
57 
52 
50 
54 
54 
50 
47 
46 
67 
54 
56 
73 
60 
65 
46 
53 
58 
60 
57 
59 
45 
57 
71 
48 
62 
56 
91 
119 
103 
132 
205 
204 
207 
212 
216 
216 
216 
214 
214 
214 
214 
214 
215 
217 
219 
210 
214 
213 
221 
184 
153 
163 
145 
142 
127 
131 
120 
144 
137 
87 
80 
47 
46 
44 
54 
64 
55 
55 
66 
60 
59 
57 
51 
47 
47 
50 
52 
47 
48 
49 
49 
50 
50 
51 
51 
53 
52 
50 
50 
50 
50 
49 
48 
54 
58 
59 
56 
55 
58 
58 
54 
51 
53 
54 
52 
48 
47 
50 
54 
59 
57 
54 
53 
52 
52 
53 
55 
52 
50 
60 
50 
54 
69 
60 
61 
60 
58 
51 
58 
65 
41 
67 
92 
57 
52 
58 
63 
59 
68 
122 
185 
208 
208 
210 
215 
218 
216 
215 
214 
214 
215 
214 
214 
215 
216 
217 
217 
209 
212 
217 
209 
171 
168 
153 
152 
132 
159 
116 
128 
111 
87 
106 
63 
53 
43 
62 
80 
60 
48 
53 
54 
56 
54 
48 
47 
50 
50 
47 
46 
46 
47 
47 
48 
47 
47 
47 
48 
50 
51 
51 
49 
48 
49 
51 
56 
60 
59 
52 
52 
57 
58 
52 
54 
55 
54 
50 
47 
48 
53 
58 
62 
54 
51 
56 
55 
50 
51 
57 
58 
55 
54 
48 
53 
64 
60 
56 
72 
59 
62 
62 
55 
75 
76 
50 
68 
74 
89 
116 
105 
103 
165 
197 
210 
209 
211 
214 
216 
216 
216 
213 
214 
215 
215 
214 
214 
214 
215 
214 
212 
214 
208 
215 
193 
182 
170 
152 
119 
168 
116 
134 
102 
85 
106 
100 
78 
61 
67 
78 
73 
64 
64 
58 
58 
55 
52 
52 
52 
49 
46 
47 
46 
46 
47 
47 
46 
46 
47 
47 
49 
50 
50 
48 
48 
50 
51 
53 
55 
53 
48 
49 
54 
56 
55 
56 
53 
50 
49 
50 
53 
55 
57 
58 
50 
50 
57 
58 
50 
48 
53 
57 
56 
48 
47 
52 
57 
58 
51 
46 
63 
65 
59 
62 
80 
77 
115 
108 
84 
109 
149 
153 
140 
190 
202 
214 
213 
212 
213 
214 
215 
217 
213 
214 
215 
215 
214 
214 
214 
214 
209 
216 
214 
207 
212 
209 
202 
200 
167 
130 
171 
134 
156 
133 
96 
89 
95 
84 
88 
78 
70 
76 
68 
59 
66 
59 
54 
53 
54 
52 
50 
49 
54 
51 
49 
50 
50 
50 
50 
52 
50 
49 
48 
48 
48 
49 
50 
50 
52 
51 
51 
52 
52 
52 
52 
53 
55 
54 
52 
52 
53 
54 
54 
54 
54 
49 
49 
54 
56 
52 
49 
50 
51 
53 
47 
48 
51 
51 
53 
47 
49 
58 
51 
63 
92 
78 
104 
133 
133 
123 
143 
145 
136 
119 
194 
204 
218 
218 
217 
216 
215 
216 
216 
213 
214 
215 
215 
214 
214 
214 
214 
212 
216 
212 
214 
210 
212 
211 
216 
194 
168 
177 
150 
152 
159 
129 
115 
84 
83 
93 
88 
79 
81 
69 
50 
69 
58 
49 
49 
51 
51 
53 
57 
59 
54 
51 
53 
53 
52 
53 
55 
52 
50 
47 
47 
48 
50 
50 
49 
52 
50 
52 
57 
56 
50 
47 
48 
53 
57 
60 
58 
54 
51 
51 
53 
54 
50 
48 
50 
54 
54 
53 
51 
50 
53 
51 
53 
53 
51 
53 
50 
50 
45 
58 
63 
55 
75 
115 
122 
123 
137 
141 
132 
122 
101 
198 
215 
211 
214 
216 
217 
217 
217 
216 
214 
214 
215 
215 
214 
214 
214 
215 
214 
215 
212 
219 
211 
210 
215 
209 
212 
193 
189 
166 
154 
161 
164 
164 
101 
102 
90 
102 
108 
92 
85 
73 
67 
59 
50 
47 
50 
53 
55 
56 
59 
54 
51 
53 
54 
52 
52 
54 
52 
50 
48 
48 
49 
50 
50 
49 
48 
49 
52 
55 
55 
53 
51 
51 
56 
60 
63 
61 
56 
52 
51 
53 
56 
51 
49 
53 
58 
58 
56 
55 
53 
53 
55 
55 
54 
54 
53 
55 
53 
56 
62 
67 
66 
82 
71 
97 
142 
135 
117 
116 
119 
99 
167 
202 
209 
213 
216 
216 
216 
217 
217 
214 
214 
215 
214 
214 
214 
215 
216 
211 
213 
214 
220 
214 
215 
222 
199 
215 
196 
203 
191 
184 
163 
182 
182 
93 
110 
93 
130 
143 
93 
83 
80 
65 
63 
56 
51 
52 
56 
55 
50 
59 
54 
51 
54 
55 
52 
51 
53 
51 
50 
50 
50 
50 
50 
49 
49 
46 
49 
50 
50 
53 
59 
62 
61 
61 
60 
60 
60 
59 
57 
54 
52 
57 
51 
51 
59 
64 
61 
57 
56 
54 
51 
55 
52 
51 
53 
51 
56 
60 
61 
50 
52 
80 
94 
117 
123 
116 
135 
129 
103 
123 
158 
189 
207 
220 
221 
220 
216 
214 
216 
217 
213 
213 
214 
214 
214 
214 
214 
214 
215 
214 
213 
214 
215 
216 
216 
215 
213 
222 
209 
204 
214 
186 
175 
177 
119 
117 
129 
183 
139 
91 
88 
82 
82 
74 
59 
56 
58 
59 
57 
51 
51 
56 
54 
55 
56 
54 
51 
53 
51 
54 
49 
47 
52 
55 
51 
48 
48 
49 
56 
54 
52 
44 
59 
62 
55 
77 
75 
89 
58 
54 
57 
50 
66 
57 
67 
71 
63 
58 
69 
58 
55 
58 
49 
55 
51 
57 
57 
59 
60 
56 
53 
76 
71 
121 
127 
61 
112 
134 
144 
172 
187 
212 
213 
224 
214 
215 
215 
215 
215 
215 
216 
213 
213 
214 
214 
214 
214 
214 
214 
215 
214 
213 
214 
215 
216 
215 
215 
215 
220 
218 
216 
220 
203 
200 
192 
172 
155 
182 
222 
146 
86 
94 
92 
80 
72 
68 
68 
70 
71 
65 
59 
54 
57 
50 
47 
47 
46 
49 
54 
56 
58 
61 
49 
50 
56 
48 
47 
49 
55 
46 
84 
81 
44 
47 
61 
79 
73 
89 
87 
54 
62 
69 
49 
58 
76 
79 
69 
75 
70 
72 
75 
75 
62 
58 
68 
72 
64 
58 
51 
62 
70 
121 
119 
73 
134 
94 
95 
117 
104 
150 
223 
214 
208 
210 
215 
222 
221 
221 
219 
217 
216 
215 
213 
213 
214 
214 
214 
214 
214 
214 
215 
214 
213 
214 
215 
215 
215 
215 
215 
213 
220 
220 
218 
214 
221 
206 
211 
211 
212 
210 
175 
126 
97 
83 
82 
67 
70 
75 
83 
86 
70 
62 
58 
60 
46 
54 
77 
68 
60 
69 
59 
52 
56 
49 
54 
64 
50 
52 
57 
51 
48 
54 
45 
52 
70 
100 
125 
140 
115 
108 
71 
73 
68 
74 
78 
97 
92 
67 
76 
80 
83 
85 
74 
83 
76 
49 
58 
60 
66 
66 
78 
121 
148 
67 
131 
146 
69 
100 
156 
163 
180 
206 
203 
213 
217 
221 
219 
219 
219 
218 
217 
216 
216 
213 
213 
214 
214 
214 
214 
214 
214 
214 
214 
214 
214 
214 
215 
215 
215 
217 
210 
214 
212 
211 
212 
223 
217 
209 
235 
224 
203 
223 
197 
141 
118 
78 
61 
70 
69 
72 
85 
84 
92 
93 
84 
71 
82 
95 
72 
63 
61 
74 
62 
58 
53 
57 
59 
50 
55 
59 
54 
76 
61 
53 
63 
100 
155 
153 
148 
143 
80 
67 
84 
79 
95 
116 
88 
82 
74 
76 
91 
114 
116 
138 
149 
107 
43 
56 
68 
72 
82 
120 
139 
146 
128 
132 
122 
115 
124 
161 
191 
193 
202 
219 
221 
205 
218 
214 
215 
215 
216 
215 
215 
216 
213 
213 
214 
214 
214 
214 
214 
214 
214 
214 
214 
214 
214 
214 
215 
215 
219 
212 
211 
207 
214 
210 
216 
224 
209 
209 
216 
205 
216 
219 
223 
226 
143 
96 
73 
57 
61 
80 
75 
73 
102 
100 
107 
112 
100 
79 
85 
66 
68 
73 
62 
59 
61 
60 
64 
59 
70 
83 
77 
88 
112 
89 
100 
137 
164 
194 
134 
80 
77 
109 
96 
108 
140 
84 
78 
84 
89 
111 
148 
160 
147 
117 
73 
50 
79 
96 
92 
101 
123 
143 
128 
170 
142 
161 
190 
195 
205 
209 
210 
217 
217 
219 
215 
218 
216 
217 
217 
217 
216 
215 
215 
213 
213 
214 
214 
214 
214 
214 
214 
213 
214 
214 
214 
214 
214 
215 
216 
217 
215 
214 
208 
219 
212 
209 
224 
217 
207 
225 
225 
215 
207 
219 
222 
204 
176 
160 
129 
100 
102 
110 
116 
147 
162 
138 
109 
107 
86 
90 
81 
75 
91 
75 
72 
87 
99 
101 
71 
73 
100 
114 
121 
126 
166 
172 
137 
183 
163 
176 
139 
134 
157 
160 
160 
161 
137 
125 
99 
109 
141 
162 
163 
133 
97 
98 
110 
123 
132 
131 
132 
150 
158 
166 
183 
191 
213 
205 
182 
203 
203 
211 
211 
206 
222 
229 
215 
215 
216 
217 
217 
216 
215 
215 
213 
213 
214 
214 
214 
214 
214 
214 
213 
214 
214 
214 
213 
213 
215 
216 
216 
214 
218 
209 
218 
213 
209 
219 
215 
215 
214 
214 
221 
215 
214 
214 
226 
218 
219 
209 
191 
196 
208 
205 
201 
223 
196 
169 
172 
120 
94 
81 
80 
97 
92 
100 
131 
158 
160 
132 
134 
151 
154 
171 
183 
161 
142 
194 
190 
187 
188 
199 
185 
177 
178 
194 
193 
197 
185 
141 
152 
182 
180 
166 
143 
141 
173 
171 
171 
167 
174 
183 
194 
186 
185 
191 
206 
210 
200 
227 
226 
217 
214 
215 
213 
212 
217 
221 
213 
214 
215 
216 
216 
215 
215 
213 
213 
214 
214 
214 
214 
214 
214 
213 
214 
214 
214 
213 
213 
214 
216 
217 
214 
222 
210 
213 
214 
212 
215 
215 
219 
209 
213 
219 
209 
208 
215 
217 
217 
223 
224 
214 
220 
232 
220 
223 
215 
218 
229 
223 
186 
202 
192 
166 
177 
181 
181 
194 
207 
205 
198 
210 
216 
193 
191 
200 
186 
204 
196 
204 
199 
205 
200 
202 
199 
200 
211 
219 
209 
209 
190 
203 
219 
210 
201 
188 
198 
215 
187 
202 
184 
184 
208 
204 
190 
181 
195 
233 
218 
215 
208 
213 
211 
218 
219 
214 
214 
218 
213 
215 
216 
217 
217 
216 
215 
214 
214 
214 
214 
214 
214 
214 
214 
214 
214 
214 
214 
214 
215 
215 
215 
215 
216 
215 
214 
213 
212 
212 
213 
213 
213 
214 
216 
217 
216 
214 
213 
212 
205 
210 
214 
214 
212 
213 
217 
222 
220 
217 
213 
211 
212 
215 
216 
216 
213 
214 
216 
220 
222 
221 
217 
213 
213 
209 
208 
212 
214 
212 
211 
212 
216 
215 
213 
213 
215 
215 
214 
212 
216 
214 
214 
221 
223 
211 
208 
222 
198 
201 
230 
206 
211 
200 
203 
206 
207 
209 
212 
215 
217 
217 
216 
215 
216 
216 
216 
216 
215 
215 
215 
215 
216 
216 
216 
216 
216 
215 
215 
214 
214 
214 
214 
214 
214 
214 
214 
214 
214 
214 
214 
215 
215 
215 
215 
216 
215 
214 
213 
213 
213 
213 
213 
213 
213 
214 
214 
213 
215 
217 
219 
215 
214 
214 
215 
217 
218 
216 
214 
214 
214 
215 
217 
219 
217 
213 
210 
214 
214 
215 
218 
219 
219 
216 
214 
216 
212 
212 
216 
218 
216 
214 
215 
216 
214 
213 
213 
214 
214 
213 
211 
212 
216 
219 
217 
212 
206 
212 
224 
208 
207 
229 
211 
218 
214 
217 
220 
213 
214 
215 
216 
217 
217 
216 
216 
216 
216 
216 
216 
215 
215 
215 
215 
216 
216 
216 
216 
216 
215 
215 
214 
214 
214 
214 
214 
214 
214 
214 
214 
214 
214 
214 
215 
215 
215 
215 
215 
215 
214 
213 
213 
213 
213 
214 
214 
214 
213 
211 
210 
211 
213 
216 
215 
213 
212 
215 
218 
217 
213 
209 
216 
215 
214 
214 
215 
216 
214 
213 
215 
215 
214 
215 
216 
216 
215 
214 
214 
212 
213 
217 
218 
216 
214 
214 
216 
215 
214 
214 
215 
215 
214 
212 
213 
213 
213 
210 
207 
211 
215 
214 
215 
210 
220 
208 
213 
216 
215 
217 
217 
217 
216 
216 
216 
216 
216 
217 
216 
216 
216 
216 
215 
215 
215 
215 
216 
216 
216 
216 
216 
216 
215 
214 
214 
214 
214 
214 
214 
214 
214 
214 
214 
214 
214 
215 
215 
215 
215 
215 
215 
214 
214 
214 
213 
214 
214 
214 
213 
212 
212 
212 
212 
210 
209 
207 
210 
213 
215 
214 
213 
213 
214 
220 
217 
213 
211 
211 
213 
216 
217 
215 
214 
214 
214 
214 
214 
214 
213 
213 
211 
212 
215 
216 
214 
213 
213 
216 
216 
215 
215 
216 
216 
215 
215 
214 
211 
212 
212 
211 
216 
217 
208 
220 
216 
217 
211 
211 
217 
213 
215 
215 
215 
215 
215 
215 
216 
217 
217 
216 
216 
216 
216 
216 
215 
215 
215 
216 
216 
216 
216 
216 
216 
215 
214 
214 
214 
214 
214 
214 
214 
214 
214 
214 
214 
214 
215 
215 
215 
215 
215 
215 
215 
214 
214 
214 
214 
214 
213 
211 
211 
214 
218 
218 
215 
212 
208 
212 
216 
216 
213 
213 
216 
220 
215 
215 
215 
215 
215 
215 
214 
213 
214 
214 
214 
214 
214 
214 
213 
212 
215 
213 
213 
214 
215 
215 
215 
216 
215 
214 
214 
215 
216 
216 
216 
216 
213 
212 
218 
220 
213 
213 
217 
215 
217 
216 
216 
215 
213 
218 
215 
216 
214 
214 
214 
215 
215 
216 
216 
216 
216 
216 
216 
216 
216 
216 
216 
216 
216 
216 
217 
217 
217 
216 
216 
214 
214 
214 
214 
214 
214 
214 
214 
214 
214 
214 
214 
215 
215 
215 
215 
215 
215 
215 
215 
215 
214 
214 
214 
214 
212 
210 
212 
216 
219 
217 
215 
215 
215 
214 
214 
214 
215 
216 
216 
214 
215 
215 
216 
215 
214 
213 
213 
213 
214 
214 
214 
214 
213 
213 
212 
215 
214 
214 
213 
214 
214 
215 
216 
212 
213 
213 
213 
214 
214 
214 
214 
216 
212 
213 
216 
214 
213 
215 
217 
214 
215 
215 
215 
214 
214 
213 
213 
215 
215 
216 
216 
216 
216 
216 
215 
216 
216 
216 
216 
216 
216 
216 
216 
216 
216 
217 
217 
217 
217 
216 
214 
214 
214 
214 
214 
214 
214 
214 
214 
214 
214 
214 
215 
215 
215 
215 
215 
215 
215 
215 
215 
215 
214 
214 
216 
214 
212 
212 
214 
215 
215 
214 
217 
215 
214 
213 
214 
215 
214 
213 
217 
216 
214 
213 
212 
213 
215 
216 
213 
214 
214 
214 
214 
214 
214 
214 
213 
213 
213 
213 
213 
214 
214 
215 
212 
213 
213 
213 
212 
212 
212 
213 
217 
213 
208 
210 
216 
216 
213 
214 
219 
219 
219 
218 
218 
214 
216 
215 
216 
216 
216 
216 
216 
216 
216 
216 
216 
216 
216 
216 
216 
216 
216 
216 
216 
217 
217 
217 
217 
217 
217 
214 
214 
214 
214 
214 
214 
214 
214 
214 
214 
214 
214 
215 
215 
215 
215 
215 
215 
215 
215 
215 
215 
215 
214 
213 
215 
216 
216 
215 
215 
216 
216 
214 
215 
216 
215 
214 
214 
215 
216 
215 
215 
215 
214 
214 
213 
214 
214 
214 
214 
214 
214 
214 
214 
215 
215 
212 
214 
215 
214 
214 
215 
215 
215 
213 
214 
214 
213 
212 
212 
212 
212 
211 
218 
217 
214 
216 
215 
214 
219 
217 
216 
215 
213 
217 
212 
217 
215 
215 
215 
215 
215 
215 
215 
216 
217 
216 
216 
216 
216 
216 
216 
216 
216 
216 
217 
217 
217 
217 
217 
217 
